  0
SECTION
  2
HEADER
  9
$ACADVER
  1
AC1027
  9
$ACADMAINTVER
 70
   105
  9
$DWGCODEPAGE
  3
ANSI_1252
  9
$COMMENTS
  1
File was created by Cadenas
  9
$LASTSAVEDBY
  1
psService
  9
$CUSTOMPROPERTYTAG
  1
NB
  9
$CUSTOMPROPERTY
  1
DSH1803D000001S
  9
$CUSTOMPROPERTYTAG
  1
NN
  9
$CUSTOMPROPERTY
  1
Rooftop_Unit-Heat_Pump-Daikin-DSH_15-20_Ton
  9
$CUSTOMPROPERTYTAG
  1
NT
  9
$CUSTOMPROPERTY
  1

  9
$CUSTOMPROPERTYTAG
  1
NBSYN
  9
$CUSTOMPROPERTY
  1
$PARTNUMBER.
  9
$CUSTOMPROPERTYTAG
  1
LINA
  9
$CUSTOMPROPERTY
  1
DSH1803D000001S
  9
$CUSTOMPROPERTYTAG
  1
CATALOG
  9
$CUSTOMPROPERTY
  1
Daikin
  9
$CUSTOMPROPERTYTAG
  1
PARTNUMBER
  9
$CUSTOMPROPERTY
  1
DSH1803D000001S
  9
$CUSTOMPROPERTYTAG
  1
DESCRIPTION
  9
$CUSTOMPROPERTY
  1
Standard Efficiency Air Conditioner Packaged Rooftop Unit
  9
$CUSTOMPROPERTYTAG
  1
OVERALL_DEPTH
  9
$CUSTOMPROPERTY
  1
88.5
  9
$CUSTOMPROPERTYTAG
  1
OVERALL_HEIGHT
  9
$CUSTOMPROPERTY
  1
51.0
  9
$CUSTOMPROPERTYTAG
  1
OVERALL_WIDTH
  9
$CUSTOMPROPERTY
  1
133.875
  9
$CUSTOMPROPERTYTAG
  1
URL
  9
$CUSTOMPROPERTY
  1
https://www.daikin.com/
  9
$CUSTOMPROPERTYTAG
  1
RFA_FAMILY
  9
$CUSTOMPROPERTY
  1
Download Revit Family (RFA)
  9
$CUSTOMPROPERTYTAG
  1
COMPANY
  9
$CUSTOMPROPERTY
  1
daikin
  9
$REQUIREDVERSIONS
160
                 0
  9
$INSBASE
 10
0.0
 20
0.0
 30
0.0
  9
$EXTMIN
 10
-1701.00625000001
 20
0.0000000000799492
 30
0.0
  9
$EXTMAX
 10
1712.129449152532
 20
1295.905423728937
 30
0.0
  9
$LIMMIN
 10
0.0
 20
0.0
  9
$LIMMAX
 10
420.0
 20
297.0
  9
$ORTHOMODE
 70
     0
  9
$REGENMODE
 70
     1
  9
$FILLMODE
 70
     1
  9
$QTEXTMODE
 70
     0
  9
$MIRRTEXT
 70
     1
  9
$LTSCALE
 40
1.0
  9
$ATTMODE
 70
     1
  9
$TEXTSIZE
 40
2.5
  9
$TRACEWID
 40
1.0
  9
$TEXTSTYLE
  7
Standard
  9
$CLAYER
  8
0
  9
$CELTYPE
  6
ByLayer
  9
$CECOLOR
 62
   256
  9
$CELTSCALE
 40
1.0
  9
$DISPSILH
 70
     0
  9
$DIMSCALE
 40
1.0
  9
$DIMASZ
 40
2.5
  9
$DIMEXO
 40
0.625
  9
$DIMDLI
 40
3.75
  9
$DIMRND
 40
0.0
  9
$DIMDLE
 40
0.0
  9
$DIMEXE
 40
1.25
  9
$DIMTP
 40
0.0
  9
$DIMTM
 40
0.0
  9
$DIMTXT
 40
2.5
  9
$DIMCEN
 40
2.5
  9
$DIMTSZ
 40
0.0
  9
$DIMTOL
 70
     0
  9
$DIMLIM
 70
     0
  9
$DIMTIH
 70
     0
  9
$DIMTOH
 70
     0
  9
$DIMSE1
 70
     0
  9
$DIMSE2
 70
     0
  9
$DIMTAD
 70
     1
  9
$DIMZIN
 70
     8
  9
$DIMBLK
  1

  9
$DIMASO
 70
     1
  9
$DIMSHO
 70
     1
  9
$DIMPOST
  1

  9
$DIMAPOST
  1

  9
$DIMALT
 70
     0
  9
$DIMALTD
 70
     3
  9
$DIMALTF
 40
0.03937007874016
  9
$DIMLFAC
 40
1.0
  9
$DIMTOFL
 70
     1
  9
$DIMTVP
 40
0.0
  9
$DIMTIX
 70
     0
  9
$DIMSOXD
 70
     0
  9
$DIMSAH
 70
     0
  9
$DIMBLK1
  1

  9
$DIMBLK2
  1

  9
$DIMSTYLE
  2
ISO-25
  9
$DIMCLRD
 70
     0
  9
$DIMCLRE
 70
     0
  9
$DIMCLRT
 70
     0
  9
$DIMTFAC
 40
1.0
  9
$DIMGAP
 40
0.625
  9
$DIMJUST
 70
     0
  9
$DIMSD1
 70
     0
  9
$DIMSD2
 70
     0
  9
$DIMTOLJ
 70
     0
  9
$DIMTZIN
 70
     8
  9
$DIMALTZ
 70
     0
  9
$DIMALTTZ
 70
     0
  9
$DIMUPT
 70
     0
  9
$DIMDEC
 70
     2
  9
$DIMTDEC
 70
     2
  9
$DIMALTU
 70
     2
  9
$DIMALTTD
 70
     3
  9
$DIMTXSTY
  7
Standard
  9
$DIMAUNIT
 70
     0
  9
$DIMADEC
 70
     0
  9
$DIMALTRND
 40
0.0
  9
$DIMAZIN
 70
     0
  9
$DIMDSEP
 70
    44
  9
$DIMATFIT
 70
     3
  9
$DIMFRAC
 70
     0
  9
$DIMLDRBLK
  1

  9
$DIMLUNIT
 70
     2
  9
$DIMLWD
 70
    -2
  9
$DIMLWE
 70
    -2
  9
$DIMTMOVE
 70
     0
  9
$DIMFXL
 40
1.0
  9
$DIMFXLON
 70
     0
  9
$DIMJOGANG
 40
0.7853981633974483
  9
$DIMTFILL
 70
     0
  9
$DIMTFILLCLR
 70
     0
  9
$DIMARCSYM
 70
     0
  9
$DIMLTYPE
  6

  9
$DIMLTEX1
  6

  9
$DIMLTEX2
  6

  9
$DIMTXTDIRECTION
 70
     0
  9
$LUNITS
 70
     2
  9
$LUPREC
 70
     4
  9
$SKETCHINC
 40
1.0
  9
$FILLETRAD
 40
0.0
  9
$AUNITS
 70
     0
  9
$AUPREC
 70
     0
  9
$MENU
  1
.
  9
$ELEVATION
 40
0.0
  9
$PELEVATION
 40
0.0
  9
$THICKNESS
 40
0.0
  9
$LIMCHECK
 70
     0
  9
$CHAMFERA
 40
0.0
  9
$CHAMFERB
 40
0.0
  9
$CHAMFERC
 40
0.0
  9
$CHAMFERD
 40
0.0
  9
$SKPOLY
 70
     0
  9
$TDCREATE
 40
2461307.527445324
  9
$TDUCREATE
 40
2461307.444111991
  9
$TDUPDATE
 40
2461307.527445498
  9
$TDUUPDATE
 40
2461307.444112165
  9
$TDINDWG
 40
0.0000000116
  9
$TDUSRTIMER
 40
0.0000000116
  9
$USRTIMER
 70
     1
  9
$ANGBASE
 50
0.0
  9
$ANGDIR
 70
     0
  9
$PDMODE
 70
     0
  9
$PDSIZE
 40
0.0
  9
$PLINEWID
 40
0.0
  9
$SPLFRAME
 70
     0
  9
$SPLINETYPE
 70
     6
  9
$SPLINESEGS
 70
     8
  9
$HANDSEED
  5
220
  9
$SURFTAB1
 70
     6
  9
$SURFTAB2
 70
     6
  9
$SURFTYPE
 70
     6
  9
$SURFU
 70
     6
  9
$SURFV
 70
     6
  9
$UCSBASE
  2

  9
$UCSNAME
  2

  9
$UCSORG
 10
0.0
 20
0.0
 30
0.0
  9
$UCSXDIR
 10
1.0
 20
0.0
 30
0.0
  9
$UCSYDIR
 10
0.0
 20
1.0
 30
0.0
  9
$UCSORTHOREF
  2

  9
$UCSORTHOVIEW
 70
     0
  9
$UCSORGTOP
 10
0.0
 20
0.0
 30
0.0
  9
$UCSORGBOTTOM
 10
0.0
 20
0.0
 30
0.0
  9
$UCSORGLEFT
 10
0.0
 20
0.0
 30
0.0
  9
$UCSORGRIGHT
 10
0.0
 20
0.0
 30
0.0
  9
$UCSORGFRONT
 10
0.0
 20
0.0
 30
0.0
  9
$UCSORGBACK
 10
0.0
 20
0.0
 30
0.0
  9
$PUCSBASE
  2

  9
$PUCSNAME
  2

  9
$PUCSORG
 10
0.0
 20
0.0
 30
0.0
  9
$PUCSXDIR
 10
1.0
 20
0.0
 30
0.0
  9
$PUCSYDIR
 10
0.0
 20
1.0
 30
0.0
  9
$PUCSORTHOREF
  2

  9
$PUCSORTHOVIEW
 70
     0
  9
$PUCSORGTOP
 10
0.0
 20
0.0
 30
0.0
  9
$PUCSORGBOTTOM
 10
0.0
 20
0.0
 30
0.0
  9
$PUCSORGLEFT
 10
0.0
 20
0.0
 30
0.0
  9
$PUCSORGRIGHT
 10
0.0
 20
0.0
 30
0.0
  9
$PUCSORGFRONT
 10
0.0
 20
0.0
 30
0.0
  9
$PUCSORGBACK
 10
0.0
 20
0.0
 30
0.0
  9
$USERI1
 70
     0
  9
$USERI2
 70
     0
  9
$USERI3
 70
     0
  9
$USERI4
 70
     0
  9
$USERI5
 70
     0
  9
$USERR1
 40
0.0
  9
$USERR2
 40
0.0
  9
$USERR3
 40
0.0
  9
$USERR4
 40
0.0
  9
$USERR5
 40
0.0
  9
$WORLDVIEW
 70
     1
  9
$SHADEDGE
 70
     3
  9
$SHADEDIF
 70
    70
  9
$TILEMODE
 70
     1
  9
$MAXACTVP
 70
    64
  9
$PINSBASE
 10
0.0
 20
0.0
 30
0.0
  9
$PLIMCHECK
 70
     0
  9
$PEXTMIN
 10
1.000000000000000E+20
 20
1.000000000000000E+20
 30
1.000000000000000E+20
  9
$PEXTMAX
 10
-1.000000000000000E+20
 20
-1.000000000000000E+20
 30
-1.000000000000000E+20
  9
$PLIMMIN
 10
0.0
 20
0.0
  9
$PLIMMAX
 10
420.0
 20
297.0
  9
$UNITMODE
 70
     0
  9
$VISRETAIN
 70
     1
  9
$PLINEGEN
 70
     0
  9
$PSLTSCALE
 70
     1
  9
$TREEDEPTH
 70
  3020
  9
$CMLSTYLE
  2
Standard
  9
$CMLJUST
 70
     0
  9
$CMLSCALE
 40
20.0
  9
$PROXYGRAPHICS
 70
     1
  9
$MEASUREMENT
 70
     1
  9
$CELWEIGHT
370
    -1
  9
$ENDCAPS
280
     0
  9
$JOINSTYLE
280
     0
  9
$LWDISPLAY
290
     0
  9
$INSUNITS
 70
     4
  9
$HYPERLINKBASE
  1

  9
$STYLESHEET
  1

  9
$XEDIT
290
     1
  9
$CEPSNTYPE
380
     0
  9
$PSTYLEMODE
290
     1
  9
$FINGERPRINTGUID
  2
{e8df4843-6d55-4b10-b0bd-57b83645f582}
  9
$VERSIONGUID
  2
{FAEB1C32-E019-11D5-929B-00C0DF256EC4}
  9
$EXTNAMES
290
     1
  9
$PSVPSCALE
 40
0.0
  9
$OLESTARTUP
290
     0
  9
$SORTENTS
280
   127
  9
$INDEXCTL
280
     0
  9
$HIDETEXT
280
     1
  9
$XCLIPFRAME
280
     2
  9
$HALOGAP
280
     0
  9
$OBSCOLOR
 70
   257
  9
$OBSLTYPE
280
     0
  9
$INTERSECTIONDISPLAY
280
     0
  9
$INTERSECTIONCOLOR
 70
   257
  9
$DIMASSOC
280
     2
  9
$PROJECTNAME
  1

  9
$CAMERADISPLAY
290
     0
  9
$LENSLENGTH
 40
50.0
  9
$CAMERAHEIGHT
 40
0.0
  9
$STEPSPERSEC
 40
2.0
  9
$STEPSIZE
 40
6.0
  9
$3DDWFPREC
 40
2.0
  9
$PSOLWIDTH
 40
5.0
  9
$PSOLHEIGHT
 40
80.0
  9
$LOFTANG1
 40
1.570796326794897
  9
$LOFTANG2
 40
1.570796326794897
  9
$LOFTMAG1
 40
0.0
  9
$LOFTMAG2
 40
0.0
  9
$LOFTPARAM
 70
     7
  9
$LOFTNORMALS
280
     1
  9
$LATITUDE
 40
37.795
  9
$LONGITUDE
 40
-122.394
  9
$NORTHDIRECTION
 40
0.0
  9
$TIMEZONE
 70
 -8000
  9
$LIGHTGLYPHDISPLAY
280
     1
  9
$TILEMODELIGHTSYNCH
280
     1
  9
$CMATERIAL
347
44
  9
$SOLIDHIST
280
     0
  9
$SHOWHIST
280
     1
  9
$DWFFRAME
280
     2
  9
$DGNFRAME
280
     2
  9
$REALWORLDSCALE
290
     1
  9
$INTERFERECOLOR
 62
   256
  9
$CSHADOW
280
     0
  9
$SHADOWPLANELOCATION
 40
0.0
  0
ENDSEC
  0
SECTION
  2
CLASSES
  0
CLASS
  1
ACDBDICTIONARYWDFLT
  2
AcDbDictionaryWithDefault
  3
ObjectDBX Classes
 90
        0
 91
        3
280
     0
281
     0
  0
CLASS
  1
VISUALSTYLE
  2
AcDbVisualStyle
  3
ObjectDBX Classes
 90
     4095
 91
        3
280
     0
281
     0
  0
CLASS
  1
MATERIAL
  2
AcDbMaterial
  3
ObjectDBX Classes
 90
     1153
 91
        3
280
     0
281
     0
  0
CLASS
  1
SCALE
  2
AcDbScale
  3
ObjectDBX Classes
 90
     1153
 91
        3
280
     0
281
     0
  0
CLASS
  1
TABLESTYLE
  2
AcDbTableStyle
  3
ObjectDBX Classes
 90
     4095
 91
        3
280
     0
281
     0
  0
CLASS
  1
MLEADERSTYLE
  2
AcDbMLeaderStyle
  3
ACDB_MLEADERSTYLE_CLASS
 90
     4095
 91
        3
280
     0
281
     0
  0
CLASS
  1
SUN
  2
AcDbSun
  3
SCENEOE
 90
     1153
 91
        3
280
     0
281
     0
  0
CLASS
  1
DICTIONARYVAR
  2
AcDbDictionaryVar
  3
ObjectDBX Classes
 90
        0
 91
        3
280
     0
281
     0
  0
CLASS
  1
CELLSTYLEMAP
  2
AcDbCellStyleMap
  3
ObjectDBX Classes
 90
     1152
 91
        3
280
     0
281
     0
  0
ENDSEC
  0
SECTION
  2
TABLES
  0
TABLE
  2
VPORT
  5
8
330
0
100
AcDbSymbolTable
 70
     1
  0
VPORT
  5
29
330
8
100
AcDbSymbolTableRecord
100
AcDbViewportTableRecord
  2
*Active
 70
     0
 10
0.0
 20
0.0
 11
1.0
 21
1.0
 12
5.603294491515328
 22
648.0016949153559
 13
0.0
 23
0.0
 14
10.0
 24
10.0
 15
10.0
 25
10.0
 16
0.0
 26
0.0
 36
1.0
 17
0.0
 27
0.0
 37
0.0
 40
1321.923457627163
 41
2.633649815861452
 42
50.0
 43
0.0
 44
0.0
 50
0.0
 51
0.0
 71
     0
 72
   100
 73
     1
 74
     3
 75
     0
 76
     0
 77
     0
 78
     0
281
     0
 65
     1
110
0.0
120
0.0
130
0.0
111
1.0
121
0.0
131
0.0
112
0.0
122
1.0
132
0.0
 79
     0
146
0.0
348
2F
 60
     3
 61
     5
292
     1
282
     1
141
0.0
142
0.0
 63
   250
361
5D
  0
ENDTAB
  0
TABLE
  2
LTYPE
  5
5
330
0
100
AcDbSymbolTable
 70
     2
  0
LTYPE
  5
14
330
5
100
AcDbSymbolTableRecord
100
AcDbLinetypeTableRecord
  2
ByBlock
 70
     0
  3

 72
    65
 73
     0
 40
0.0
  0
LTYPE
  5
15
330
5
100
AcDbSymbolTableRecord
100
AcDbLinetypeTableRecord
  2
ByLayer
 70
     0
  3

 72
    65
 73
     0
 40
0.0
  0
LTYPE
  5
16
330
5
100
AcDbSymbolTableRecord
100
AcDbLinetypeTableRecord
  2
Continuous
 70
     0
  3
Solid line
 72
    65
 73
     0
 40
0.0
  0
LTYPE
  5
A3
330
5
100
AcDbSymbolTableRecord
100
AcDbLinetypeTableRecord
  2
Dashed
 70
     0
  3

 72
    65
 73
     2
 40
2.0
 49
1.0
 74
     0
 49
-1.0
 74
     0
  0
ENDTAB
  0
TABLE
  2
LAYER
  5
2
330
0
100
AcDbSymbolTable
 70
     4
  0
LAYER
  5
10
330
2
100
AcDbSymbolTableRecord
100
AcDbLayerTableRecord
  2
0
 70
     0
 62
     7
  6
Continuous
370
    -3
390
F
347
46
348
0
  0
LAYER
  5
5E
330
2
100
AcDbSymbolTableRecord
100
AcDbLayerTableRecord
  2
AM_6
 70
     0
 62
    -2
  6
Continuous
370
    35
390
F
347
46
348
0
  0
LAYER
  5
A4
330
2
100
AcDbSymbolTableRecord
100
AcDbLayerTableRecord
  2
AM_9
 70
     0
 62
     6
  6
Dashed
370
    25
390
F
347
46
348
0
  0
LAYER
  5
A7
330
2
100
AcDbSymbolTableRecord
100
AcDbLayerTableRecord
  2
AM_0
 70
     0
 62
     7
  6
Continuous
370
    50
390
F
347
46
348
0
  0
ENDTAB
  0
TABLE
  2
STYLE
  5
3
330
0
100
AcDbSymbolTable
 70
     1
  0
STYLE
  5
11
330
3
100
AcDbSymbolTableRecord
100
AcDbTextStyleTableRecord
  2
Standard
 70
     0
 40
0.0
 41
1.0
 50
0.0
 71
     0
 42
2.5
  3
txt
  4

  0
ENDTAB
  0
TABLE
  2
VIEW
  5
6
330
0
100
AcDbSymbolTable
 70
     0
  0
ENDTAB
  0
TABLE
  2
UCS
  5
7
330
0
100
AcDbSymbolTable
 70
     0
  0
ENDTAB
  0
TABLE
  2
APPID
  5
9
330
0
100
AcDbSymbolTable
 70
     1
  0
APPID
  5
12
330
9
100
AcDbSymbolTableRecord
100
AcDbRegAppTableRecord
  2
ACAD
 70
     0
  0
ENDTAB
  0
TABLE
  2
DIMSTYLE
  5
A
330
0
100
AcDbSymbolTable
 70
     1
100
AcDbDimStyleTable
  0
DIMSTYLE
105
27
330
A
100
AcDbSymbolTableRecord
100
AcDbDimStyleTableRecord
  2
ISO-25
 70
     0
 41
2.5
 42
0.625
 43
3.75
 44
1.25
 73
     0
 74
     0
 77
     1
 78
     8
140
2.5
141
2.5
143
0.03937007874016
147
0.625
171
     3
172
     1
178
     0
271
     2
272
     2
274
     3
278
    44
283
     0
284
     8
340
11
  0
ENDTAB
  0
TABLE
  2
BLOCK_RECORD
  5
1
330
0
100
AcDbSymbolTable
 70
    11
  0
BLOCK_RECORD
  5
1F
330
1
100
AcDbSymbolTableRecord
100
AcDbBlockTableRecord
  2
*Model_Space
340
22
 70
     0
280
     1
281
     0
  0
BLOCK_RECORD
  5
1B
330
1
100
AcDbSymbolTableRecord
100
AcDbBlockTableRecord
  2
*Paper_Space
340
1E
 70
     0
280
     1
281
     0
  0
BLOCK_RECORD
  5
23
330
1
100
AcDbSymbolTableRecord
100
AcDbBlockTableRecord
  2
*Paper_Space0
340
26
 70
     0
280
     1
281
     0
  0
BLOCK_RECORD
  5
7F
330
1
100
AcDbSymbolTableRecord
100
AcDbBlockTableRecord
  2
1_DSH1803D000001S_PART15_0_in_DSH1803D000001S_0
340
0
102
{BLKREFS
331
80
102
}
 70
     0
280
     1
281
     0
  0
BLOCK_RECORD
  5
AB
330
1
100
AcDbSymbolTableRecord
100
AcDbBlockTableRecord
  2
2_DSH1803D000001S_PART14_0_in_DSH1803D000001S_0
340
0
102
{BLKREFS
331
AC
102
}
 70
     0
280
     1
281
     0
  0
BLOCK_RECORD
  5
D7
330
1
100
AcDbSymbolTableRecord
100
AcDbBlockTableRecord
  2
3_DSH1803D000001S_PART13_0_in_DSH1803D000001S_0
340
0
102
{BLKREFS
331
D8
102
}
 70
     0
280
     1
281
     0
  0
BLOCK_RECORD
  5
101
330
1
100
AcDbSymbolTableRecord
100
AcDbBlockTableRecord
  2
4_DSH1803D000001S_PART12_0_in_DSH1803D000001S_0
340
0
102
{BLKREFS
331
102
102
}
 70
     0
280
     1
281
     0
  0
BLOCK_RECORD
  5
129
330
1
100
AcDbSymbolTableRecord
100
AcDbBlockTableRecord
  2
5_DSH1803D000001S_PART10_0_in_DSH1803D000001S_0
340
0
102
{BLKREFS
331
12A
102
}
 70
     0
280
     1
281
     0
  0
BLOCK_RECORD
  5
151
330
1
100
AcDbSymbolTableRecord
100
AcDbBlockTableRecord
  2
6_DSH1803D000001S_PART8_0_in_DSH1803D000001S_0
340
0
102
{BLKREFS
331
152
102
}
 70
     0
280
     1
281
     0
  0
BLOCK_RECORD
  5
17A
330
1
100
AcDbSymbolTableRecord
100
AcDbBlockTableRecord
  2
7_DSH1803D000001S_PART7_0_in_DSH1803D000001S_0
340
0
102
{BLKREFS
331
17B
102
}
 70
     0
280
     1
281
     0
  0
BLOCK_RECORD
  5
1A2
330
1
100
AcDbSymbolTableRecord
100
AcDbBlockTableRecord
  2
8_DSH1803D000001S_PART6_0_in_DSH1803D000001S_0
340
0
102
{BLKREFS
331
1A3
102
}
 70
     0
280
     1
281
     0
  0
BLOCK_RECORD
  5
1C8
330
1
100
AcDbSymbolTableRecord
100
AcDbBlockTableRecord
  2
9_DSH1803D000001S_PART4_0_in_DSH1803D000001S_0
340
0
102
{BLKREFS
331
1C9
102
}
 70
     0
280
     1
281
     0
  0
BLOCK_RECORD
  5
1EE
330
1
100
AcDbSymbolTableRecord
100
AcDbBlockTableRecord
  2
10_DSH1803D000001S_PART1_0_in_DSH1803D000001S_0
340
0
102
{BLKREFS
331
1EF
102
}
 70
     0
280
     1
281
     0
  0
ENDTAB
  0
ENDSEC
  0
SECTION
  2
BLOCKS
  0
BLOCK
  5
20
330
1F
100
AcDbEntity
  8
0
100
AcDbBlockBegin
  2
*Model_Space
 70
     2
 10
0.0
 20
0.0
 30
0.0
  3
*Model_Space
  1

  0
ENDBLK
  5
21
330
1F
100
AcDbEntity
  8
0
100
AcDbBlockEnd
  0
BLOCK
  5
1C
330
1B
100
AcDbEntity
 67
     1
  8
0
100
AcDbBlockBegin
  2
*Paper_Space
 70
     0
 10
0.0
 20
0.0
 30
0.0
  3
*Paper_Space
  1

  0
ENDBLK
  5
1D
330
1B
100
AcDbEntity
 67
     1
  8
0
100
AcDbBlockEnd
  0
BLOCK
  5
24
330
23
100
AcDbEntity
  8
0
100
AcDbBlockBegin
  2
*Paper_Space0
 70
     0
 10
0.0
 20
0.0
 30
0.0
  3
*Paper_Space0
  1

  0
ENDBLK
  5
25
330
23
100
AcDbEntity
  8
0
100
AcDbBlockEnd
  0
BLOCK
  5
81
330
7F
100
AcDbEntity
  8
0
100
AcDbBlockBegin
  2
1_DSH1803D000001S_PART15_0_in_DSH1803D000001S_0
 70
     2
 10
0.0
 20
0.0
 30
0.0
  3
1_DSH1803D000001S_PART15_0_in_DSH1803D000001S_0
  1

  0
ATTDEF
  5
83
330
7F
100
AcDbEntity
  8
AM_6
100
AcDbText
 10
1679.81249999999
 20
130.9687500001243
 30
0.0
 40
0.5
  1
DSH1803D000001S_PART15
100
AcDbAttributeDefinition
  3

  2
NB
 70
     8
280
     0
  0
ATTDEF
  5
84
330
7F
100
AcDbEntity
  8
AM_6
100
AcDbText
 10
1679.81249999999
 20
130.4687500001243
 30
0.0
 40
0.5
  1

100
AcDbAttributeDefinition
  3

  2
NN
 70
     8
280
     0
  0
ATTDEF
  5
85
330
7F
100
AcDbEntity
  8
AM_6
100
AcDbText
 10
1679.81249999999
 20
129.9687500001243
 30
0.0
 40
0.5
  1

100
AcDbAttributeDefinition
  3

  2
NT
 70
     8
280
     0
  0
ATTDEF
  5
86
330
7F
100
AcDbEntity
  8
AM_6
100
AcDbText
 10
1679.81249999999
 20
129.4687500001243
 30
0.0
 40
0.5
  1
$PARTNUMBER._PART15
100
AcDbAttributeDefinition
  3

  2
NBSYN
 70
     8
280
     0
  0
ATTDEF
  5
87
330
7F
100
AcDbEntity
  8
AM_6
100
AcDbText
 10
1679.81249999999
 20
128.9687500001243
 30
0.0
 40
0.5
  1
DSH1803D000001S_PART15
100
AcDbAttributeDefinition
  3

  2
LINA
 70
     8
280
     0
  0
ATTDEF
  5
88
330
7F
100
AcDbEntity
  8
AM_6
100
AcDbText
 10
1679.81249999999
 20
128.4687500001243
 30
0.0
 40
0.5
  1
Daikin
100
AcDbAttributeDefinition
  3

  2
CATALOG
 70
     8
280
     0
  0
ATTDEF
  5
89
330
7F
100
AcDbEntity
  8
AM_6
100
AcDbText
 10
1679.81249999999
 20
127.9687500001243
 30
0.0
 40
0.5
  1
DSH1803D000001S
100
AcDbAttributeDefinition
  3

  2
PARTNUMBER
 70
     8
280
     0
  0
ATTDEF
  5
8A
330
7F
100
AcDbEntity
  8
AM_6
100
AcDbText
 10
1679.81249999999
 20
127.4687500001243
 30
0.0
 40
0.5
  1
Standard Efficiency Air Conditioner Packaged Rooftop Unit
100
AcDbAttributeDefinition
  3

  2
DESCRIPTION
 70
     8
280
     0
  0
ATTDEF
  5
8B
330
7F
100
AcDbEntity
  8
AM_6
100
AcDbText
 10
1679.81249999999
 20
126.9687500001243
 30
0.0
 40
0.5
  1
88.5
100
AcDbAttributeDefinition
  3

  2
OVERALL_DEPTH
 70
     8
280
     0
  0
ATTDEF
  5
8C
330
7F
100
AcDbEntity
  8
AM_6
100
AcDbText
 10
1679.81249999999
 20
126.4687500001243
 30
0.0
 40
0.5
  1
51.0
100
AcDbAttributeDefinition
  3

  2
OVERALL_HEIGHT
 70
     8
280
     0
  0
ATTDEF
  5
8D
330
7F
100
AcDbEntity
  8
AM_6
100
AcDbText
 10
1679.81249999999
 20
125.9687500001243
 30
0.0
 40
0.5
  1
133.875
100
AcDbAttributeDefinition
  3

  2
OVERALL_WIDTH
 70
     8
280
     0
  0
ATTDEF
  5
8E
330
7F
100
AcDbEntity
  8
AM_6
100
AcDbText
 10
1679.81249999999
 20
125.4687500001243
 30
0.0
 40
0.5
  1
https://www.daikin.com/
100
AcDbAttributeDefinition
  3

  2
URL
 70
     8
280
     0
  0
ATTDEF
  5
8F
330
7F
100
AcDbEntity
  8
AM_6
100
AcDbText
 10
1679.81249999999
 20
124.9687500001243
 30
0.0
 40
0.5
  1
Download Revit Family (RFA)
100
AcDbAttributeDefinition
  3

  2
RFA_FAMILY
 70
     8
280
     0
  0
ATTDEF
  5
90
330
7F
100
AcDbEntity
  8
AM_6
100
AcDbText
 10
1679.81249999999
 20
124.4687500001243
 30
0.0
 40
0.5
  1
daikin
100
AcDbAttributeDefinition
  3

  2
COMPANY
 70
     8
280
     0
  0
ATTDEF
  5
91
330
7F
100
AcDbEntity
  8
AM_6
100
AcDbText
 10
1679.81249999999
 20
123.9687500001243
 30
0.0
 40
0.5
  1
{$CADENAS_DATA/23d-libs/daikin/light20commercial20rooftop20package20units/heat20pump/dsh/rooftop_unit-heat_pump-daikin-dsh_15-20_ton.prj},241 {VTYP=3D},{NB=DSH1803D000001S_PART15},{LINA=DSH1803D000001S_PART15},{NN=Rooftop_Unit-Heat_Pump-Daikin-DSH_1
100
AcDbAttributeDefinition
  3

  2
PSOL_0
 70
     9
280
     0
  0
ATTDEF
  5
92
330
7F
100
AcDbEntity
  8
AM_6
100
AcDbText
 10
1679.81249999999
 20
123.4687500001243
 30
0.0
 40
0.5
  1
on_PART15},{NOPRJ=TRUE},{DATE=06.08.2026 14:33:37},{GEOMDATE=08.07.2026 12:36:00},{VERSION=},{LINEID=60},{WBVAR=},{WBNUMERIC=}  {NB=DSH1803D000001S_PART15},{LINA=DSH1803D000001S_PART15},{KT=DUMMY},{PARTNUMBER=DSH1803D000001S},{PARTNUMBERHELP=15Ton_2
100
AcDbAttributeDefinition
  3

  2
PSOL_1
 70
     9
280
     0
  0
ATTDEF
  5
93
330
7F
100
AcDbEntity
  8
AM_6
100
AcDbText
 10
1679.81249999999
 20
122.9687500001243
 30
0.0
 40
0.5
  1
V_Standard-ESP},{ACTUAL_SUPPLY_AIR_FLOW=6000},{AMBIENT_TEMPERATURE=0},{APPARENT_POWER=36955.0360302896},{ASSEMBLY_CODE=D3050200},{ASSEMBLY_HEIGHT_OFFSET=0},{ASSEMBLY_MOUNTED_ON_CURB=0},{BACK_CLEARANCE=6.25},{BASE_RAIL_DEPTH=7.21875},{BASE_RAIL_HEIGH
100
AcDbAttributeDefinition
  3

  2
PSOL_2
 70
     9
280
     0
  0
ATTDEF
  5
94
330
7F
100
AcDbEntity
  8
AM_6
100
AcDbText
 10
1679.81249999999
 20
122.4687500001243
 30
0.0
 40
0.5
  1
96875},{BASE_RAIL_WIDTH=10.9895833333333},{BOTTOM_CONDUIT_RADIUS=0.75},{BOTTOM_CONDUIT_SIZE=1.5},{CATEGORY=Mechanical Equipment},{CENTER_DIVIDER_VISIBILITY=0},{CLEARANCE_VISIBILITY=1},{COIL_AIR_PRESSURE_DROP=0},{COMPRESSOR_LOCKED_ROTOR_AMPS=179},{CO
100
AcDbAttributeDefinition
  3

  2
PSOL_3
 70
     9
280
     0
  0
ATTDEF
  5
95
330
7F
100
AcDbEntity
  8
AM_6
100
AcDbText
 10
1679.81249999999
 20
121.9687500001243
 30
0.0
 40
0.5
  1
OR_RATED_LOAD_AMPS=25},{COMPRESSOR_TYPE=Scroll},{CONDENSATE_DRAIN_CONNECTION_DIAMETER=1},{CONDENSATE_DRAIN_CONNECTION_RADIUS=0.5},{CONDENSATE_DRAIN_HORIZONTAL_OFFSET=2.96354166666667},{CONDENSATE_DRAIN_VERTICAL_OFFSET=0.5859375},{CONDENSER_WIDTH=4.1
100
AcDbAttributeDefinition
  3

  2
PSOL_4
 70
     9
280
     0
  0
ATTDEF
  5
96
330
7F
100
AcDbEntity
  8
AM_6
100
AcDbText
 10
1679.81249999999
 20
121.4687500001243
 30
0.0
 40
0.5
  1
ONDUIT_A_HORIZONTAL_OFFSET=2.47916666666667},{CONDUIT_B_HORIZONTAL_OFFSET=0.515625},{CONDUIT_BOTTOM_HORIZONTAL_OFFSET=0.083333333333333},{CONDUIT_BOTTOM_VERTICAL_OFFSET=0.0781249999999996},{CONDUIT_VERTICAL_OFFSET=0.328125},{COOLING_ENTERING_DRY_BUL
100
AcDbAttributeDefinition
  3

  2
PSOL_5
 70
     9
280
     0
  0
ATTDEF
  5
97
330
7F
100
AcDbEntity
  8
AM_6
100
AcDbText
 10
1679.81249999999
 20
120.9687500001243
 30
0.0
 40
0.5
  1
ERATURE=0},{COOLING_ENTERING_WET_BULB_TEMPERATURE=0},{COOLING_LEAVING_DRY_BULB_TEMPERATURE=0},{COOLING_LEAVING_WET_BULB_TEMPERATURE=0},{COP_AT_17F=2.05},{COP_AT_47F=3.30},{COST=0},{CURB_HEIGHT=0},{DEFAULT_ELEVATION=0},{DESCRIPTION=Standard Efficienc
100
AcDbAttributeDefinition
  3

  2
PSOL_6
 70
     9
280
     0
  0
ATTDEF
  5
98
330
7F
100
AcDbEntity
  8
AM_6
100
AcDbText
 10
1679.81249999999
 20
120.4687500001243
 30
0.0
 40
0.5
  1
Conditioner Packaged Rooftop Unit},{DESIGN_RETURN_AIR_FLOW=0},{DESIGN_SUPPLY_AIR_FLOW=0},{DRAIN_FLOW=0},{ENCLOSURE_TOP_HEIGHT=0.322265625},{EVAPORATOR_FAN_MOTOR_HORSEPOWER=2609.94955053795},{EVAPORATOR_FAN_TYPE=Direct Drive - Standard},{FACE_VELOCIT
100
AcDbAttributeDefinition
  3

  2
PSOL_7
 70
     9
280
     0
  0
ATTDEF
  5
99
330
7F
100
AcDbEntity
  8
AM_6
100
AcDbText
 10
1679.81249999999
 20
119.9687500001243
 30
0.0
 40
0.5
  1
_=0},{FAN_ARRAY_A_CENTER_OFFSET=1.22916666666667},{FAN_ARRAY_A_OFFSET=1.03125},{FEET_PRESSURE_DROP=0},{FILTER_SIZE=20 X 20 X 2 (8)},{FREQUENCY=60},{FRONT_CLEARANCE=4},{HEATING_ENTERING_DRY_BULB_TEMPERATURE=0},{HEATING_ENTERING_WET_BULB_TEMPERATURE=0
100
AcDbAttributeDefinition
  3

  2
PSOL_8
 70
     9
280
     0
  0
ATTDEF
  5
9A
330
7F
100
AcDbEntity
  8
AM_6
100
AcDbText
 10
1679.81249999999
 20
119.4687500001243
 30
0.0
 40
0.5
  1
TING_LEAVING_DRY_BULB_TEMPERATURE=0},{HEATING_LEAVING_WET_BULB_TEMPERATURE=0},{HIGH_VOLTAGE_ENTRANCE_HORIZONTAL_OFFSET=1.01041666666667},{HIGH_VOLTAGE_ENTRANCE_RADIUS=1.25},{HIGH_VOLTAGE_ENTRANCE_SIZE=2.5},{LATENT_COOLING_CAPACITY=0},{LEFT_CLEARANCE
100
AcDbAttributeDefinition
  3

  2
PSOL_9
 70
     9
280
     0
  0
ATTDEF
  5
9B
330
7F
100
AcDbEntity
  8
AM_6
100
AcDbText
 10
1679.81249999999
 20
118.9687500001243
 30
0.0
 40
0.5
  1
{LOAD_SUB_CLASSIFICATION_MOTOR=1},{LOW_VOLTAGE_ENTRANCE_HORIZONTAL_OFFSET=0.283333333333333},{LOW_VOLTAGE_ENTRANCE_RADIUS=0.25},{LOW_VOLTAGE_ENTRANCE_SIZE=0.5},{MANUFACTURER=Daikin},{MASSUNIT=1},{MAXIMUM_AIR_FLOW=7700},{MAXIMUM_OVERCURRENT_PROTECTIO
100
AcDbAttributeDefinition
  3

  2
PSOL_10
 70
     9
280
     0
  0
ATTDEF
  5
9C
330
7F
100
AcDbEntity
  8
AM_6
100
AcDbText
 10
1679.81249999999
 20
118.4687500001243
 30
0.0
 40
0.5
  1
,{MINIMUM_AIR_FLOW=6000},{MINIMUM_CIRCUIT_AMPS=88.9},{NOMINAL_COOLING_CAPACITY=180000},{NOMINAL_COOLING_CAPACITY__TONS_=15},{NOMINAL_HEATING_CAPACITY=0},{NUMBER_OF_FANS=3},{NUMBER_OF_POLES=3},{OMNICLASS_NUMBER=23.75.10.24.21.27.14},{OMNICLASS_TITLE=
100
AcDbAttributeDefinition
  3

  2
PSOL_11
 70
     9
280
     0
  0
ATTDEF
  5
9D
330
7F
100
AcDbEntity
  8
AM_6
100
AcDbText
 10
1679.81249999999
 20
117.9687500001243
 30
0.0
 40
0.5
  1
ed Rooftop Air Conditioning Units},{OUTDOOR_FAN_DIAMETER=1.83333333333333},{OUTDOOR_FAN_RADIUS=0.916666666666667},{OVERALL_DEPTH=88.5},{OVERALL_HEIGHT=51.0},{OVERALL_WIDTH=133.875},{PARTTYPE=Normal},{PHASE=3},{PRIMARY_REFRIGERANT_CHARGE=360},{PRODUC
100
AcDbAttributeDefinition
  3

  2
PSOL_12
 70
     9
280
     0
  0
ATTDEF
  5
9E
330
7F
100
AcDbEntity
  8
AM_6
100
AcDbText
 10
1679.81249999999
 20
117.4687500001243
 30
0.0
 40
0.5
  1
_URL=https://daikincomfort.com/products/commercial-systems/packaged-systems/heat-pumps},{REFRIGERANT_USED=R-32},{RETURN_AIR_CONNECTION_HEIGHT=22},{RETURN_AIR_CONNECTION_WIDTH=60},{RETURN_AIR_PRESSURE_DROP=0},{RETURN_DUCT_HORIZONTAL_OFFSET=0.58333333
100
AcDbAttributeDefinition
  3

  2
PSOL_13
 70
     9
280
     0
  0
ATTDEF
  5
9F
330
7F
100
AcDbEntity
  8
AM_6
100
AcDbText
 10
1679.81249999999
 20
116.9687500001243
 30
0.0
 40
0.5
  1
3},{RETURN_DUCT_VERTICAL_OFFSET=1.75},{RIGHT_CLEARANCE=4},{SECONDARY_REFRIGERANT_CHARGE=350},{SENSIBLE_COOLING_CAPACITY=0},{SERIES=DSH},{STANDARDS=AHRI Certified; ETL Listed; NEC Compliant},{SUPPLY_AIR_CONNECTION_HEIGHT=22},{SUPPLY_AIR_CONNECTION_WI
100
AcDbAttributeDefinition
  3

  2
PSOL_14
 70
     9
280
     0
  0
ATTDEF
  5
A0
330
7F
100
AcDbEntity
  8
AM_6
100
AcDbText
 10
1679.81249999999
 20
116.4687500001243
 30
0.0
 40
0.5
  1
},{SUPPLY_AIR_PRESSURE_DROP=0},{SUPPLY_DUCT_HORIZONTAL_OFFSET=4},{SYSTEM_PERFORMANCE_EER=10.6},{SYSTEM_PERFORMANCE_IEER=14.5},{TOTAL_COOLING_CAPACITY=0},{TOTAL_FULL_LOAD_AMPS=0},{TOTAL_HEATING_CAPACITY=0},{TOTAL_STATIC_PRESSURE=0},{UNIT_WEIGHT=2273}
100
AcDbAttributeDefinition
  3

  2
PSOL_15
 70
     9
280
     0
  0
ATTDEF
  5
A1
330
7F
100
AcDbEntity
  8
AM_6
100
AcDbText
 10
1679.81249999999
 20
115.9687500001243
 30
0.0
 40
0.5
  1
https://www.daikin.com/},{VERSION=1},{VOLTAGE=240},{VOLTAGE_COMMENTS=208 VAC to 230 VAC},{VOLTAGE_ENTRANCE_VERTICAL_OFFSET=0.683333333333333},{RFA_FAMILY=Download Revit Family (RFA)},{DEFAULTSORTATTR=8},{RFA_FAMILY_=../../../_pool_/9b/12/rooftop_uni
100
AcDbAttributeDefinition
  3

  2
PSOL_16
 70
     9
280
     0
  0
ATTDEF
  5
A2
330
7F
100
AcDbEntity
  8
AM_6
100
AcDbText
 10
1679.81249999999
 20
115.4687500001243
 30
0.0
 40
0.5
  1
_pump-daikin-dsh_15-20_ton.zip},{RFA_FAMILY_ENG=../../../_pool_/9b/12/rooftop_unit-heat_pump-daikin-dsh_15-20_ton.zip},{REVIT_FAMILY_DOWNLOAD=../../../_pool_/9b/12/rooftop_unit-heat_pump-daikin-dsh_15-20_ton.zip}
100
AcDbAttributeDefinition
  3

  2
PSOL_17
 70
     9
280
     0
  0
LINE
  5
A5
330
7F
100
AcDbEntity
  8
AM_9
100
AcDbLine
 10
1672.46299999999
 20
0.0000000000799492
 30
0.0
 11
1672.46299999999
 21
130.9687500001243
 31
0.0
  0
LINE
  5
A6
330
7F
100
AcDbEntity
  8
AM_9
100
AcDbLine
 10
-1672.46300000001
 20
130.968750000124
 30
0.0
 11
-1672.46300000001
 21
0.0000000000799492
 31
0.0
  0
LINE
  5
A8
330
7F
100
AcDbEntity
  8
AM_0
100
AcDbLine
 10
1674.81249999999
 20
0.0000000000799817
 30
0.0
 11
-1674.81250000001
 21
0.0000000000799817
 31
0.0
  0
LINE
  5
A9
330
7F
100
AcDbEntity
  8
AM_0
100
AcDbLine
 10
1674.81249999999
 20
0.0000000000799817
 30
0.0
 11
1674.81249999999
 21
130.968750000124
 31
0.0
  0
LINE
  5
AA
330
7F
100
AcDbEntity
  8
AM_0
100
AcDbLine
 10
-1674.81250000001
 20
130.9687500001243
 30
0.0
 11
-1674.81250000001
 21
0.0000000000799817
 31
0.0
  0
ENDBLK
  5
82
330
7F
100
AcDbEntity
  8
0
100
AcDbBlockEnd
  0
BLOCK
  5
AD
330
AB
100
AcDbEntity
  8
0
100
AcDbBlockBegin
  2
2_DSH1803D000001S_PART14_0_in_DSH1803D000001S_0
 70
     2
 10
0.0
 20
0.0
 30
0.0
  3
2_DSH1803D000001S_PART14_0_in_DSH1803D000001S_0
  1

  0
ATTDEF
  5
AF
330
AB
100
AcDbEntity
  8
AM_6
100
AcDbText
 10
1705.21249999999
 20
1197.173437500161
 30
0.0
 40
0.5
  1
DSH1803D000001S_PART14
100
AcDbAttributeDefinition
  3

  2
NB
 70
     8
280
     0
  0
ATTDEF
  5
B0
330
AB
100
AcDbEntity
  8
AM_6
100
AcDbText
 10
1705.21249999999
 20
1196.673437500161
 30
0.0
 40
0.5
  1

100
AcDbAttributeDefinition
  3

  2
NN
 70
     8
280
     0
  0
ATTDEF
  5
B1
330
AB
100
AcDbEntity
  8
AM_6
100
AcDbText
 10
1705.21249999999
 20
1196.173437500161
 30
0.0
 40
0.5
  1

100
AcDbAttributeDefinition
  3

  2
NT
 70
     8
280
     0
  0
ATTDEF
  5
B2
330
AB
100
AcDbEntity
  8
AM_6
100
AcDbText
 10
1705.21249999999
 20
1195.673437500161
 30
0.0
 40
0.5
  1
$PARTNUMBER._PART14
100
AcDbAttributeDefinition
  3

  2
NBSYN
 70
     8
280
     0
  0
ATTDEF
  5
B3
330
AB
100
AcDbEntity
  8
AM_6
100
AcDbText
 10
1705.21249999999
 20
1195.173437500161
 30
0.0
 40
0.5
  1
DSH1803D000001S_PART14
100
AcDbAttributeDefinition
  3

  2
LINA
 70
     8
280
     0
  0
ATTDEF
  5
B4
330
AB
100
AcDbEntity
  8
AM_6
100
AcDbText
 10
1705.21249999999
 20
1194.673437500161
 30
0.0
 40
0.5
  1
Daikin
100
AcDbAttributeDefinition
  3

  2
CATALOG
 70
     8
280
     0
  0
ATTDEF
  5
B5
330
AB
100
AcDbEntity
  8
AM_6
100
AcDbText
 10
1705.21249999999
 20
1194.173437500161
 30
0.0
 40
0.5
  1
DSH1803D000001S
100
AcDbAttributeDefinition
  3

  2
PARTNUMBER
 70
     8
280
     0
  0
ATTDEF
  5
B6
330
AB
100
AcDbEntity
  8
AM_6
100
AcDbText
 10
1705.21249999999
 20
1193.673437500161
 30
0.0
 40
0.5
  1
Standard Efficiency Air Conditioner Packaged Rooftop Unit
100
AcDbAttributeDefinition
  3

  2
DESCRIPTION
 70
     8
280
     0
  0
ATTDEF
  5
B7
330
AB
100
AcDbEntity
  8
AM_6
100
AcDbText
 10
1705.21249999999
 20
1193.173437500161
 30
0.0
 40
0.5
  1
88.5
100
AcDbAttributeDefinition
  3

  2
OVERALL_DEPTH
 70
     8
280
     0
  0
ATTDEF
  5
B8
330
AB
100
AcDbEntity
  8
AM_6
100
AcDbText
 10
1705.21249999999
 20
1192.673437500161
 30
0.0
 40
0.5
  1
51.0
100
AcDbAttributeDefinition
  3

  2
OVERALL_HEIGHT
 70
     8
280
     0
  0
ATTDEF
  5
B9
330
AB
100
AcDbEntity
  8
AM_6
100
AcDbText
 10
1705.21249999999
 20
1192.173437500161
 30
0.0
 40
0.5
  1
133.875
100
AcDbAttributeDefinition
  3

  2
OVERALL_WIDTH
 70
     8
280
     0
  0
ATTDEF
  5
BA
330
AB
100
AcDbEntity
  8
AM_6
100
AcDbText
 10
1705.21249999999
 20
1191.673437500161
 30
0.0
 40
0.5
  1
https://www.daikin.com/
100
AcDbAttributeDefinition
  3

  2
URL
 70
     8
280
     0
  0
ATTDEF
  5
BB
330
AB
100
AcDbEntity
  8
AM_6
100
AcDbText
 10
1705.21249999999
 20
1191.173437500161
 30
0.0
 40
0.5
  1
Download Revit Family (RFA)
100
AcDbAttributeDefinition
  3

  2
RFA_FAMILY
 70
     8
280
     0
  0
ATTDEF
  5
BC
330
AB
100
AcDbEntity
  8
AM_6
100
AcDbText
 10
1705.21249999999
 20
1190.673437500161
 30
0.0
 40
0.5
  1
daikin
100
AcDbAttributeDefinition
  3

  2
COMPANY
 70
     8
280
     0
  0
ATTDEF
  5
BD
330
AB
100
AcDbEntity
  8
AM_6
100
AcDbText
 10
1705.21249999999
 20
1190.173437500161
 30
0.0
 40
0.5
  1
{$CADENAS_DATA/23d-libs/daikin/light20commercial20rooftop20package20units/heat20pump/dsh/rooftop_unit-heat_pump-daikin-dsh_15-20_ton.prj},241 {VTYP=3D},{NB=DSH1803D000001S_PART14},{LINA=DSH1803D000001S_PART14},{NN=Rooftop_Unit-Heat_Pump-Daikin-DSH_1
100
AcDbAttributeDefinition
  3

  2
PSOL_0
 70
     9
280
     0
  0
ATTDEF
  5
BE
330
AB
100
AcDbEntity
  8
AM_6
100
AcDbText
 10
1705.21249999999
 20
1189.673437500161
 30
0.0
 40
0.5
  1
on_PART14},{NOPRJ=TRUE},{DATE=06.08.2026 14:33:37},{GEOMDATE=08.07.2026 12:36:00},{VERSION=},{LINEID=60},{WBVAR=},{WBNUMERIC=}  {NB=DSH1803D000001S_PART14},{LINA=DSH1803D000001S_PART14},{KT=DUMMY},{PARTNUMBER=DSH1803D000001S},{PARTNUMBERHELP=15Ton_2
100
AcDbAttributeDefinition
  3

  2
PSOL_1
 70
     9
280
     0
  0
ATTDEF
  5
BF
330
AB
100
AcDbEntity
  8
AM_6
100
AcDbText
 10
1705.21249999999
 20
1189.173437500161
 30
0.0
 40
0.5
  1
V_Standard-ESP},{ACTUAL_SUPPLY_AIR_FLOW=6000},{AMBIENT_TEMPERATURE=0},{APPARENT_POWER=36955.0360302896},{ASSEMBLY_CODE=D3050200},{ASSEMBLY_HEIGHT_OFFSET=0},{ASSEMBLY_MOUNTED_ON_CURB=0},{BACK_CLEARANCE=6.25},{BASE_RAIL_DEPTH=7.21875},{BASE_RAIL_HEIGH
100
AcDbAttributeDefinition
  3

  2
PSOL_2
 70
     9
280
     0
  0
ATTDEF
  5
C0
330
AB
100
AcDbEntity
  8
AM_6
100
AcDbText
 10
1705.21249999999
 20
1188.673437500161
 30
0.0
 40
0.5
  1
96875},{BASE_RAIL_WIDTH=10.9895833333333},{BOTTOM_CONDUIT_RADIUS=0.75},{BOTTOM_CONDUIT_SIZE=1.5},{CATEGORY=Mechanical Equipment},{CENTER_DIVIDER_VISIBILITY=0},{CLEARANCE_VISIBILITY=1},{COIL_AIR_PRESSURE_DROP=0},{COMPRESSOR_LOCKED_ROTOR_AMPS=179},{CO
100
AcDbAttributeDefinition
  3

  2
PSOL_3
 70
     9
280
     0
  0
ATTDEF
  5
C1
330
AB
100
AcDbEntity
  8
AM_6
100
AcDbText
 10
1705.21249999999
 20
1188.173437500161
 30
0.0
 40
0.5
  1
OR_RATED_LOAD_AMPS=25},{COMPRESSOR_TYPE=Scroll},{CONDENSATE_DRAIN_CONNECTION_DIAMETER=1},{CONDENSATE_DRAIN_CONNECTION_RADIUS=0.5},{CONDENSATE_DRAIN_HORIZONTAL_OFFSET=2.96354166666667},{CONDENSATE_DRAIN_VERTICAL_OFFSET=0.5859375},{CONDENSER_WIDTH=4.1
100
AcDbAttributeDefinition
  3

  2
PSOL_4
 70
     9
280
     0
  0
ATTDEF
  5
C2
330
AB
100
AcDbEntity
  8
AM_6
100
AcDbText
 10
1705.21249999999
 20
1187.673437500161
 30
0.0
 40
0.5
  1
ONDUIT_A_HORIZONTAL_OFFSET=2.47916666666667},{CONDUIT_B_HORIZONTAL_OFFSET=0.515625},{CONDUIT_BOTTOM_HORIZONTAL_OFFSET=0.083333333333333},{CONDUIT_BOTTOM_VERTICAL_OFFSET=0.0781249999999996},{CONDUIT_VERTICAL_OFFSET=0.328125},{COOLING_ENTERING_DRY_BUL
100
AcDbAttributeDefinition
  3

  2
PSOL_5
 70
     9
280
     0
  0
ATTDEF
  5
C3
330
AB
100
AcDbEntity
  8
AM_6
100
AcDbText
 10
1705.21249999999
 20
1187.173437500161
 30
0.0
 40
0.5
  1
ERATURE=0},{COOLING_ENTERING_WET_BULB_TEMPERATURE=0},{COOLING_LEAVING_DRY_BULB_TEMPERATURE=0},{COOLING_LEAVING_WET_BULB_TEMPERATURE=0},{COP_AT_17F=2.05},{COP_AT_47F=3.30},{COST=0},{CURB_HEIGHT=0},{DEFAULT_ELEVATION=0},{DESCRIPTION=Standard Efficienc
100
AcDbAttributeDefinition
  3

  2
PSOL_6
 70
     9
280
     0
  0
ATTDEF
  5
C4
330
AB
100
AcDbEntity
  8
AM_6
100
AcDbText
 10
1705.21249999999
 20
1186.673437500161
 30
0.0
 40
0.5
  1
Conditioner Packaged Rooftop Unit},{DESIGN_RETURN_AIR_FLOW=0},{DESIGN_SUPPLY_AIR_FLOW=0},{DRAIN_FLOW=0},{ENCLOSURE_TOP_HEIGHT=0.322265625},{EVAPORATOR_FAN_MOTOR_HORSEPOWER=2609.94955053795},{EVAPORATOR_FAN_TYPE=Direct Drive - Standard},{FACE_VELOCIT
100
AcDbAttributeDefinition
  3

  2
PSOL_7
 70
     9
280
     0
  0
ATTDEF
  5
C5
330
AB
100
AcDbEntity
  8
AM_6
100
AcDbText
 10
1705.21249999999
 20
1186.173437500161
 30
0.0
 40
0.5
  1
_=0},{FAN_ARRAY_A_CENTER_OFFSET=1.22916666666667},{FAN_ARRAY_A_OFFSET=1.03125},{FEET_PRESSURE_DROP=0},{FILTER_SIZE=20 X 20 X 2 (8)},{FREQUENCY=60},{FRONT_CLEARANCE=4},{HEATING_ENTERING_DRY_BULB_TEMPERATURE=0},{HEATING_ENTERING_WET_BULB_TEMPERATURE=0
100
AcDbAttributeDefinition
  3

  2
PSOL_8
 70
     9
280
     0
  0
ATTDEF
  5
C6
330
AB
100
AcDbEntity
  8
AM_6
100
AcDbText
 10
1705.21249999999
 20
1185.673437500161
 30
0.0
 40
0.5
  1
TING_LEAVING_DRY_BULB_TEMPERATURE=0},{HEATING_LEAVING_WET_BULB_TEMPERATURE=0},{HIGH_VOLTAGE_ENTRANCE_HORIZONTAL_OFFSET=1.01041666666667},{HIGH_VOLTAGE_ENTRANCE_RADIUS=1.25},{HIGH_VOLTAGE_ENTRANCE_SIZE=2.5},{LATENT_COOLING_CAPACITY=0},{LEFT_CLEARANCE
100
AcDbAttributeDefinition
  3

  2
PSOL_9
 70
     9
280
     0
  0
ATTDEF
  5
C7
330
AB
100
AcDbEntity
  8
AM_6
100
AcDbText
 10
1705.21249999999
 20
1185.173437500161
 30
0.0
 40
0.5
  1
{LOAD_SUB_CLASSIFICATION_MOTOR=1},{LOW_VOLTAGE_ENTRANCE_HORIZONTAL_OFFSET=0.283333333333333},{LOW_VOLTAGE_ENTRANCE_RADIUS=0.25},{LOW_VOLTAGE_ENTRANCE_SIZE=0.5},{MANUFACTURER=Daikin},{MASSUNIT=1},{MAXIMUM_AIR_FLOW=7700},{MAXIMUM_OVERCURRENT_PROTECTIO
100
AcDbAttributeDefinition
  3

  2
PSOL_10
 70
     9
280
     0
  0
ATTDEF
  5
C8
330
AB
100
AcDbEntity
  8
AM_6
100
AcDbText
 10
1705.21249999999
 20
1184.673437500161
 30
0.0
 40
0.5
  1
,{MINIMUM_AIR_FLOW=6000},{MINIMUM_CIRCUIT_AMPS=88.9},{NOMINAL_COOLING_CAPACITY=180000},{NOMINAL_COOLING_CAPACITY__TONS_=15},{NOMINAL_HEATING_CAPACITY=0},{NUMBER_OF_FANS=3},{NUMBER_OF_POLES=3},{OMNICLASS_NUMBER=23.75.10.24.21.27.14},{OMNICLASS_TITLE=
100
AcDbAttributeDefinition
  3

  2
PSOL_11
 70
     9
280
     0
  0
ATTDEF
  5
C9
330
AB
100
AcDbEntity
  8
AM_6
100
AcDbText
 10
1705.21249999999
 20
1184.173437500161
 30
0.0
 40
0.5
  1
ed Rooftop Air Conditioning Units},{OUTDOOR_FAN_DIAMETER=1.83333333333333},{OUTDOOR_FAN_RADIUS=0.916666666666667},{OVERALL_DEPTH=88.5},{OVERALL_HEIGHT=51.0},{OVERALL_WIDTH=133.875},{PARTTYPE=Normal},{PHASE=3},{PRIMARY_REFRIGERANT_CHARGE=360},{PRODUC
100
AcDbAttributeDefinition
  3

  2
PSOL_12
 70
     9
280
     0
  0
ATTDEF
  5
CA
330
AB
100
AcDbEntity
  8
AM_6
100
AcDbText
 10
1705.21249999999
 20
1183.673437500161
 30
0.0
 40
0.5
  1
_URL=https://daikincomfort.com/products/commercial-systems/packaged-systems/heat-pumps},{REFRIGERANT_USED=R-32},{RETURN_AIR_CONNECTION_HEIGHT=22},{RETURN_AIR_CONNECTION_WIDTH=60},{RETURN_AIR_PRESSURE_DROP=0},{RETURN_DUCT_HORIZONTAL_OFFSET=0.58333333
100
AcDbAttributeDefinition
  3

  2
PSOL_13
 70
     9
280
     0
  0
ATTDEF
  5
CB
330
AB
100
AcDbEntity
  8
AM_6
100
AcDbText
 10
1705.21249999999
 20
1183.173437500161
 30
0.0
 40
0.5
  1
3},{RETURN_DUCT_VERTICAL_OFFSET=1.75},{RIGHT_CLEARANCE=4},{SECONDARY_REFRIGERANT_CHARGE=350},{SENSIBLE_COOLING_CAPACITY=0},{SERIES=DSH},{STANDARDS=AHRI Certified; ETL Listed; NEC Compliant},{SUPPLY_AIR_CONNECTION_HEIGHT=22},{SUPPLY_AIR_CONNECTION_WI
100
AcDbAttributeDefinition
  3

  2
PSOL_14
 70
     9
280
     0
  0
ATTDEF
  5
CC
330
AB
100
AcDbEntity
  8
AM_6
100
AcDbText
 10
1705.21249999999
 20
1182.673437500161
 30
0.0
 40
0.5
  1
},{SUPPLY_AIR_PRESSURE_DROP=0},{SUPPLY_DUCT_HORIZONTAL_OFFSET=4},{SYSTEM_PERFORMANCE_EER=10.6},{SYSTEM_PERFORMANCE_IEER=14.5},{TOTAL_COOLING_CAPACITY=0},{TOTAL_FULL_LOAD_AMPS=0},{TOTAL_HEATING_CAPACITY=0},{TOTAL_STATIC_PRESSURE=0},{UNIT_WEIGHT=2273}
100
AcDbAttributeDefinition
  3

  2
PSOL_15
 70
     9
280
     0
  0
ATTDEF
  5
CD
330
AB
100
AcDbEntity
  8
AM_6
100
AcDbText
 10
1705.21249999999
 20
1182.173437500161
 30
0.0
 40
0.5
  1
https://www.daikin.com/},{VERSION=1},{VOLTAGE=240},{VOLTAGE_COMMENTS=208 VAC to 230 VAC},{VOLTAGE_ENTRANCE_VERTICAL_OFFSET=0.683333333333333},{RFA_FAMILY=Download Revit Family (RFA)},{DEFAULTSORTATTR=8},{RFA_FAMILY_=../../../_pool_/9b/12/rooftop_uni
100
AcDbAttributeDefinition
  3

  2
PSOL_16
 70
     9
280
     0
  0
ATTDEF
  5
CE
330
AB
100
AcDbEntity
  8
AM_6
100
AcDbText
 10
1705.21249999999
 20
1181.673437500161
 30
0.0
 40
0.5
  1
_pump-daikin-dsh_15-20_ton.zip},{RFA_FAMILY_ENG=../../../_pool_/9b/12/rooftop_unit-heat_pump-daikin-dsh_15-20_ton.zip},{REVIT_FAMILY_DOWNLOAD=../../../_pool_/9b/12/rooftop_unit-heat_pump-daikin-dsh_15-20_ton.zip}
100
AcDbAttributeDefinition
  3

  2
PSOL_17
 70
     9
280
     0
  0
LINE
  5
CF
330
AB
100
AcDbEntity
  8
AM_0
100
AcDbLine
 10
-1636.712500000011
 20
130.968750000125
 30
0.0
 11
-1700.21250000001
 21
130.968750000125
 31
0.0
  0
LINE
  5
D0
330
AB
100
AcDbEntity
  8
AM_0
100
AcDbLine
 10
-1027.11250000001
 20
130.968750000125
 30
0.0
 11
-1116.01250000001
 21
130.968750000125
 31
0.0
  0
LINE
  5
D1
330
AB
100
AcDbEntity
  8
AM_0
100
AcDbLine
 10
1700.21249999999
 20
130.968750000125
 30
0.0
 11
-442.9125000000074
 21
130.968750000125
 31
0.0
  0
LINE
  5
D2
330
AB
100
AcDbEntity
  8
AM_0
100
AcDbLine
 10
1700.21249999999
 20
1197.17343750016
 30
0.0
 11
1700.21249999999
 21
130.968750000125
 31
0.0
  0
LINE
  5
D3
330
AB
100
AcDbEntity
  8
AM_0
100
AcDbLine
 10
-1700.21250000001
 20
1197.173437500161
 30
0.0
 11
-1700.21250000001
 21
130.968750000125
 31
0.0
  0
LINE
  5
D4
330
AB
100
AcDbEntity
  8
AM_0
100
AcDbLine
 10
-442.9125000000068
 20
1197.173437500161
 30
0.0
 11
1700.21249999999
 21
1197.17343750016
 31
0.0
  0
LINE
  5
D5
330
AB
100
AcDbEntity
  8
AM_0
100
AcDbLine
 10
-1116.01250000001
 20
1197.173437500161
 30
0.0
 11
-1027.11250000001
 21
1197.173437500161
 31
0.0
  0
LINE
  5
D6
330
AB
100
AcDbEntity
  8
AM_0
100
AcDbLine
 10
-1700.21250000001
 20
1197.173437500161
 30
0.0
 11
-1636.71250000001
 21
1197.173437500161
 31
0.0
  0
ENDBLK
  5
AE
330
AB
100
AcDbEntity
  8
0
100
AcDbBlockEnd
  0
BLOCK
  5
D9
330
D7
100
AcDbEntity
  8
0
100
AcDbBlockBegin
  2
3_DSH1803D000001S_PART13_0_in_DSH1803D000001S_0
 70
     2
 10
0.0
 20
0.0
 30
0.0
  3
3_DSH1803D000001S_PART13_0_in_DSH1803D000001S_0
  1

  0
ATTDEF
  5
DB
330
D7
100
AcDbEntity
  8
AM_6
100
AcDbText
 10
1705.21249999999
 20
1289.05000000013
 30
0.0
 40
0.5
  1
DSH1803D000001S_PART13
100
AcDbAttributeDefinition
  3

  2
NB
 70
     8
280
     0
  0
ATTDEF
  5
DC
330
D7
100
AcDbEntity
  8
AM_6
100
AcDbText
 10
1705.21249999999
 20
1288.55000000013
 30
0.0
 40
0.5
  1

100
AcDbAttributeDefinition
  3

  2
NN
 70
     8
280
     0
  0
ATTDEF
  5
DD
330
D7
100
AcDbEntity
  8
AM_6
100
AcDbText
 10
1705.21249999999
 20
1288.05000000013
 30
0.0
 40
0.5
  1

100
AcDbAttributeDefinition
  3

  2
NT
 70
     8
280
     0
  0
ATTDEF
  5
DE
330
D7
100
AcDbEntity
  8
AM_6
100
AcDbText
 10
1705.21249999999
 20
1287.55000000013
 30
0.0
 40
0.5
  1
$PARTNUMBER._PART13
100
AcDbAttributeDefinition
  3

  2
NBSYN
 70
     8
280
     0
  0
ATTDEF
  5
DF
330
D7
100
AcDbEntity
  8
AM_6
100
AcDbText
 10
1705.21249999999
 20
1287.05000000013
 30
0.0
 40
0.5
  1
DSH1803D000001S_PART13
100
AcDbAttributeDefinition
  3

  2
LINA
 70
     8
280
     0
  0
ATTDEF
  5
E0
330
D7
100
AcDbEntity
  8
AM_6
100
AcDbText
 10
1705.21249999999
 20
1286.55000000013
 30
0.0
 40
0.5
  1
Daikin
100
AcDbAttributeDefinition
  3

  2
CATALOG
 70
     8
280
     0
  0
ATTDEF
  5
E1
330
D7
100
AcDbEntity
  8
AM_6
100
AcDbText
 10
1705.21249999999
 20
1286.05000000013
 30
0.0
 40
0.5
  1
DSH1803D000001S
100
AcDbAttributeDefinition
  3

  2
PARTNUMBER
 70
     8
280
     0
  0
ATTDEF
  5
E2
330
D7
100
AcDbEntity
  8
AM_6
100
AcDbText
 10
1705.21249999999
 20
1285.55000000013
 30
0.0
 40
0.5
  1
Standard Efficiency Air Conditioner Packaged Rooftop Unit
100
AcDbAttributeDefinition
  3

  2
DESCRIPTION
 70
     8
280
     0
  0
ATTDEF
  5
E3
330
D7
100
AcDbEntity
  8
AM_6
100
AcDbText
 10
1705.21249999999
 20
1285.05000000013
 30
0.0
 40
0.5
  1
88.5
100
AcDbAttributeDefinition
  3

  2
OVERALL_DEPTH
 70
     8
280
     0
  0
ATTDEF
  5
E4
330
D7
100
AcDbEntity
  8
AM_6
100
AcDbText
 10
1705.21249999999
 20
1284.55000000013
 30
0.0
 40
0.5
  1
51.0
100
AcDbAttributeDefinition
  3

  2
OVERALL_HEIGHT
 70
     8
280
     0
  0
ATTDEF
  5
E5
330
D7
100
AcDbEntity
  8
AM_6
100
AcDbText
 10
1705.21249999999
 20
1284.05000000013
 30
0.0
 40
0.5
  1
133.875
100
AcDbAttributeDefinition
  3

  2
OVERALL_WIDTH
 70
     8
280
     0
  0
ATTDEF
  5
E6
330
D7
100
AcDbEntity
  8
AM_6
100
AcDbText
 10
1705.21249999999
 20
1283.55000000013
 30
0.0
 40
0.5
  1
https://www.daikin.com/
100
AcDbAttributeDefinition
  3

  2
URL
 70
     8
280
     0
  0
ATTDEF
  5
E7
330
D7
100
AcDbEntity
  8
AM_6
100
AcDbText
 10
1705.21249999999
 20
1283.05000000013
 30
0.0
 40
0.5
  1
Download Revit Family (RFA)
100
AcDbAttributeDefinition
  3

  2
RFA_FAMILY
 70
     8
280
     0
  0
ATTDEF
  5
E8
330
D7
100
AcDbEntity
  8
AM_6
100
AcDbText
 10
1705.21249999999
 20
1282.55000000013
 30
0.0
 40
0.5
  1
daikin
100
AcDbAttributeDefinition
  3

  2
COMPANY
 70
     8
280
     0
  0
ATTDEF
  5
E9
330
D7
100
AcDbEntity
  8
AM_6
100
AcDbText
 10
1705.21249999999
 20
1282.05000000013
 30
0.0
 40
0.5
  1
{$CADENAS_DATA/23d-libs/daikin/light20commercial20rooftop20package20units/heat20pump/dsh/rooftop_unit-heat_pump-daikin-dsh_15-20_ton.prj},241 {VTYP=3D},{NB=DSH1803D000001S_PART13},{LINA=DSH1803D000001S_PART13},{NN=Rooftop_Unit-Heat_Pump-Daikin-DSH_1
100
AcDbAttributeDefinition
  3

  2
PSOL_0
 70
     9
280
     0
  0
ATTDEF
  5
EA
330
D7
100
AcDbEntity
  8
AM_6
100
AcDbText
 10
1705.21249999999
 20
1281.55000000013
 30
0.0
 40
0.5
  1
on_PART13},{NOPRJ=TRUE},{DATE=06.08.2026 14:33:37},{GEOMDATE=08.07.2026 12:36:00},{VERSION=},{LINEID=60},{WBVAR=},{WBNUMERIC=}  {NB=DSH1803D000001S_PART13},{LINA=DSH1803D000001S_PART13},{KT=DUMMY},{PARTNUMBER=DSH1803D000001S},{PARTNUMBERHELP=15Ton_2
100
AcDbAttributeDefinition
  3

  2
PSOL_1
 70
     9
280
     0
  0
ATTDEF
  5
EB
330
D7
100
AcDbEntity
  8
AM_6
100
AcDbText
 10
1705.21249999999
 20
1281.05000000013
 30
0.0
 40
0.5
  1
V_Standard-ESP},{ACTUAL_SUPPLY_AIR_FLOW=6000},{AMBIENT_TEMPERATURE=0},{APPARENT_POWER=36955.0360302896},{ASSEMBLY_CODE=D3050200},{ASSEMBLY_HEIGHT_OFFSET=0},{ASSEMBLY_MOUNTED_ON_CURB=0},{BACK_CLEARANCE=6.25},{BASE_RAIL_DEPTH=7.21875},{BASE_RAIL_HEIGH
100
AcDbAttributeDefinition
  3

  2
PSOL_2
 70
     9
280
     0
  0
ATTDEF
  5
EC
330
D7
100
AcDbEntity
  8
AM_6
100
AcDbText
 10
1705.21249999999
 20
1280.55000000013
 30
0.0
 40
0.5
  1
96875},{BASE_RAIL_WIDTH=10.9895833333333},{BOTTOM_CONDUIT_RADIUS=0.75},{BOTTOM_CONDUIT_SIZE=1.5},{CATEGORY=Mechanical Equipment},{CENTER_DIVIDER_VISIBILITY=0},{CLEARANCE_VISIBILITY=1},{COIL_AIR_PRESSURE_DROP=0},{COMPRESSOR_LOCKED_ROTOR_AMPS=179},{CO
100
AcDbAttributeDefinition
  3

  2
PSOL_3
 70
     9
280
     0
  0
ATTDEF
  5
ED
330
D7
100
AcDbEntity
  8
AM_6
100
AcDbText
 10
1705.21249999999
 20
1280.05000000013
 30
0.0
 40
0.5
  1
OR_RATED_LOAD_AMPS=25},{COMPRESSOR_TYPE=Scroll},{CONDENSATE_DRAIN_CONNECTION_DIAMETER=1},{CONDENSATE_DRAIN_CONNECTION_RADIUS=0.5},{CONDENSATE_DRAIN_HORIZONTAL_OFFSET=2.96354166666667},{CONDENSATE_DRAIN_VERTICAL_OFFSET=0.5859375},{CONDENSER_WIDTH=4.1
100
AcDbAttributeDefinition
  3

  2
PSOL_4
 70
     9
280
     0
  0
ATTDEF
  5
EE
330
D7
100
AcDbEntity
  8
AM_6
100
AcDbText
 10
1705.21249999999
 20
1279.55000000013
 30
0.0
 40
0.5
  1
ONDUIT_A_HORIZONTAL_OFFSET=2.47916666666667},{CONDUIT_B_HORIZONTAL_OFFSET=0.515625},{CONDUIT_BOTTOM_HORIZONTAL_OFFSET=0.083333333333333},{CONDUIT_BOTTOM_VERTICAL_OFFSET=0.0781249999999996},{CONDUIT_VERTICAL_OFFSET=0.328125},{COOLING_ENTERING_DRY_BUL
100
AcDbAttributeDefinition
  3

  2
PSOL_5
 70
     9
280
     0
  0
ATTDEF
  5
EF
330
D7
100
AcDbEntity
  8
AM_6
100
AcDbText
 10
1705.21249999999
 20
1279.05000000013
 30
0.0
 40
0.5
  1
ERATURE=0},{COOLING_ENTERING_WET_BULB_TEMPERATURE=0},{COOLING_LEAVING_DRY_BULB_TEMPERATURE=0},{COOLING_LEAVING_WET_BULB_TEMPERATURE=0},{COP_AT_17F=2.05},{COP_AT_47F=3.30},{COST=0},{CURB_HEIGHT=0},{DEFAULT_ELEVATION=0},{DESCRIPTION=Standard Efficienc
100
AcDbAttributeDefinition
  3

  2
PSOL_6
 70
     9
280
     0
  0
ATTDEF
  5
F0
330
D7
100
AcDbEntity
  8
AM_6
100
AcDbText
 10
1705.21249999999
 20
1278.55000000013
 30
0.0
 40
0.5
  1
Conditioner Packaged Rooftop Unit},{DESIGN_RETURN_AIR_FLOW=0},{DESIGN_SUPPLY_AIR_FLOW=0},{DRAIN_FLOW=0},{ENCLOSURE_TOP_HEIGHT=0.322265625},{EVAPORATOR_FAN_MOTOR_HORSEPOWER=2609.94955053795},{EVAPORATOR_FAN_TYPE=Direct Drive - Standard},{FACE_VELOCIT
100
AcDbAttributeDefinition
  3

  2
PSOL_7
 70
     9
280
     0
  0
ATTDEF
  5
F1
330
D7
100
AcDbEntity
  8
AM_6
100
AcDbText
 10
1705.21249999999
 20
1278.05000000013
 30
0.0
 40
0.5
  1
_=0},{FAN_ARRAY_A_CENTER_OFFSET=1.22916666666667},{FAN_ARRAY_A_OFFSET=1.03125},{FEET_PRESSURE_DROP=0},{FILTER_SIZE=20 X 20 X 2 (8)},{FREQUENCY=60},{FRONT_CLEARANCE=4},{HEATING_ENTERING_DRY_BULB_TEMPERATURE=0},{HEATING_ENTERING_WET_BULB_TEMPERATURE=0
100
AcDbAttributeDefinition
  3

  2
PSOL_8
 70
     9
280
     0
  0
ATTDEF
  5
F2
330
D7
100
AcDbEntity
  8
AM_6
100
AcDbText
 10
1705.21249999999
 20
1277.55000000013
 30
0.0
 40
0.5
  1
TING_LEAVING_DRY_BULB_TEMPERATURE=0},{HEATING_LEAVING_WET_BULB_TEMPERATURE=0},{HIGH_VOLTAGE_ENTRANCE_HORIZONTAL_OFFSET=1.01041666666667},{HIGH_VOLTAGE_ENTRANCE_RADIUS=1.25},{HIGH_VOLTAGE_ENTRANCE_SIZE=2.5},{LATENT_COOLING_CAPACITY=0},{LEFT_CLEARANCE
100
AcDbAttributeDefinition
  3

  2
PSOL_9
 70
     9
280
     0
  0
ATTDEF
  5
F3
330
D7
100
AcDbEntity
  8
AM_6
100
AcDbText
 10
1705.21249999999
 20
1277.05000000013
 30
0.0
 40
0.5
  1
{LOAD_SUB_CLASSIFICATION_MOTOR=1},{LOW_VOLTAGE_ENTRANCE_HORIZONTAL_OFFSET=0.283333333333333},{LOW_VOLTAGE_ENTRANCE_RADIUS=0.25},{LOW_VOLTAGE_ENTRANCE_SIZE=0.5},{MANUFACTURER=Daikin},{MASSUNIT=1},{MAXIMUM_AIR_FLOW=7700},{MAXIMUM_OVERCURRENT_PROTECTIO
100
AcDbAttributeDefinition
  3

  2
PSOL_10
 70
     9
280
     0
  0
ATTDEF
  5
F4
330
D7
100
AcDbEntity
  8
AM_6
100
AcDbText
 10
1705.21249999999
 20
1276.55000000013
 30
0.0
 40
0.5
  1
,{MINIMUM_AIR_FLOW=6000},{MINIMUM_CIRCUIT_AMPS=88.9},{NOMINAL_COOLING_CAPACITY=180000},{NOMINAL_COOLING_CAPACITY__TONS_=15},{NOMINAL_HEATING_CAPACITY=0},{NUMBER_OF_FANS=3},{NUMBER_OF_POLES=3},{OMNICLASS_NUMBER=23.75.10.24.21.27.14},{OMNICLASS_TITLE=
100
AcDbAttributeDefinition
  3

  2
PSOL_11
 70
     9
280
     0
  0
ATTDEF
  5
F5
330
D7
100
AcDbEntity
  8
AM_6
100
AcDbText
 10
1705.21249999999
 20
1276.05000000013
 30
0.0
 40
0.5
  1
ed Rooftop Air Conditioning Units},{OUTDOOR_FAN_DIAMETER=1.83333333333333},{OUTDOOR_FAN_RADIUS=0.916666666666667},{OVERALL_DEPTH=88.5},{OVERALL_HEIGHT=51.0},{OVERALL_WIDTH=133.875},{PARTTYPE=Normal},{PHASE=3},{PRIMARY_REFRIGERANT_CHARGE=360},{PRODUC
100
AcDbAttributeDefinition
  3

  2
PSOL_12
 70
     9
280
     0
  0
ATTDEF
  5
F6
330
D7
100
AcDbEntity
  8
AM_6
100
AcDbText
 10
1705.21249999999
 20
1275.55000000013
 30
0.0
 40
0.5
  1
_URL=https://daikincomfort.com/products/commercial-systems/packaged-systems/heat-pumps},{REFRIGERANT_USED=R-32},{RETURN_AIR_CONNECTION_HEIGHT=22},{RETURN_AIR_CONNECTION_WIDTH=60},{RETURN_AIR_PRESSURE_DROP=0},{RETURN_DUCT_HORIZONTAL_OFFSET=0.58333333
100
AcDbAttributeDefinition
  3

  2
PSOL_13
 70
     9
280
     0
  0
ATTDEF
  5
F7
330
D7
100
AcDbEntity
  8
AM_6
100
AcDbText
 10
1705.21249999999
 20
1275.05000000013
 30
0.0
 40
0.5
  1
3},{RETURN_DUCT_VERTICAL_OFFSET=1.75},{RIGHT_CLEARANCE=4},{SECONDARY_REFRIGERANT_CHARGE=350},{SENSIBLE_COOLING_CAPACITY=0},{SERIES=DSH},{STANDARDS=AHRI Certified; ETL Listed; NEC Compliant},{SUPPLY_AIR_CONNECTION_HEIGHT=22},{SUPPLY_AIR_CONNECTION_WI
100
AcDbAttributeDefinition
  3

  2
PSOL_14
 70
     9
280
     0
  0
ATTDEF
  5
F8
330
D7
100
AcDbEntity
  8
AM_6
100
AcDbText
 10
1705.21249999999
 20
1274.55000000013
 30
0.0
 40
0.5
  1
},{SUPPLY_AIR_PRESSURE_DROP=0},{SUPPLY_DUCT_HORIZONTAL_OFFSET=4},{SYSTEM_PERFORMANCE_EER=10.6},{SYSTEM_PERFORMANCE_IEER=14.5},{TOTAL_COOLING_CAPACITY=0},{TOTAL_FULL_LOAD_AMPS=0},{TOTAL_HEATING_CAPACITY=0},{TOTAL_STATIC_PRESSURE=0},{UNIT_WEIGHT=2273}
100
AcDbAttributeDefinition
  3

  2
PSOL_15
 70
     9
280
     0
  0
ATTDEF
  5
F9
330
D7
100
AcDbEntity
  8
AM_6
100
AcDbText
 10
1705.21249999999
 20
1274.05000000013
 30
0.0
 40
0.5
  1
https://www.daikin.com/},{VERSION=1},{VOLTAGE=240},{VOLTAGE_COMMENTS=208 VAC to 230 VAC},{VOLTAGE_ENTRANCE_VERTICAL_OFFSET=0.683333333333333},{RFA_FAMILY=Download Revit Family (RFA)},{DEFAULTSORTATTR=8},{RFA_FAMILY_=../../../_pool_/9b/12/rooftop_uni
100
AcDbAttributeDefinition
  3

  2
PSOL_16
 70
     9
280
     0
  0
ATTDEF
  5
FA
330
D7
100
AcDbEntity
  8
AM_6
100
AcDbText
 10
1705.21249999999
 20
1273.55000000013
 30
0.0
 40
0.5
  1
_pump-daikin-dsh_15-20_ton.zip},{RFA_FAMILY_ENG=../../../_pool_/9b/12/rooftop_unit-heat_pump-daikin-dsh_15-20_ton.zip},{REVIT_FAMILY_DOWNLOAD=../../../_pool_/9b/12/rooftop_unit-heat_pump-daikin-dsh_15-20_ton.zip}
100
AcDbAttributeDefinition
  3

  2
PSOL_17
 70
     9
280
     0
  0
LINE
  5
FB
330
D7
100
AcDbEntity
  8
AM_0
100
AcDbLine
 10
-1636.712500000011
 20
1197.17343750016
 30
0.0
 11
-1700.21250000001
 21
1197.17343750016
 31
0.0
  0
LINE
  5
FC
330
D7
100
AcDbEntity
  8
AM_0
100
AcDbLine
 10
-1027.11250000001
 20
1197.17343750016
 30
0.0
 11
-1116.01250000001
 21
1197.17343750016
 31
0.0
  0
LINE
  5
FD
330
D7
100
AcDbEntity
  8
AM_0
100
AcDbLine
 10
1700.21249999999
 20
1197.17343750016
 30
0.0
 11
-442.9125000000074
 21
1197.17343750016
 31
0.0
  0
LINE
  5
FE
330
D7
100
AcDbEntity
  8
AM_0
100
AcDbLine
 10
1700.21249999999
 20
1289.05000000013
 30
0.0
 11
1700.21249999999
 21
1197.17343750016
 31
0.0
  0
LINE
  5
FF
330
D7
100
AcDbEntity
  8
AM_0
100
AcDbLine
 10
-1700.21250000001
 20
1289.05000000013
 30
0.0
 11
1700.21249999999
 21
1289.05000000013
 31
0.0
  0
LINE
  5
100
330
D7
100
AcDbEntity
  8
AM_0
100
AcDbLine
 10
-1700.21250000001
 20
1289.05000000013
 30
0.0
 11
-1700.21250000001
 21
1197.17343750016
 31
0.0
  0
ENDBLK
  5
DA
330
D7
100
AcDbEntity
  8
0
100
AcDbBlockEnd
  0
BLOCK
  5
103
330
101
100
AcDbEntity
  8
0
100
AcDbBlockBegin
  2
4_DSH1803D000001S_PART12_0_in_DSH1803D000001S_0
 70
     2
 10
0.0
 20
0.0
 30
0.0
  3
4_DSH1803D000001S_PART12_0_in_DSH1803D000001S_0
  1

  0
ATTDEF
  5
105
330
101
100
AcDbEntity
  8
AM_6
100
AcDbText
 10
-437.9125000000069
 20
1197.17343750009
 30
0.0
 40
0.5
  1
DSH1803D000001S_PART12
100
AcDbAttributeDefinition
  3

  2
NB
 70
     8
280
     0
  0
ATTDEF
  5
106
330
101
100
AcDbEntity
  8
AM_6
100
AcDbText
 10
-437.9125000000069
 20
1196.67343750009
 30
0.0
 40
0.5
  1

100
AcDbAttributeDefinition
  3

  2
NN
 70
     8
280
     0
  0
ATTDEF
  5
107
330
101
100
AcDbEntity
  8
AM_6
100
AcDbText
 10
-437.9125000000069
 20
1196.17343750009
 30
0.0
 40
0.5
  1

100
AcDbAttributeDefinition
  3

  2
NT
 70
     8
280
     0
  0
ATTDEF
  5
108
330
101
100
AcDbEntity
  8
AM_6
100
AcDbText
 10
-437.9125000000069
 20
1195.67343750009
 30
0.0
 40
0.5
  1
$PARTNUMBER._PART12
100
AcDbAttributeDefinition
  3

  2
NBSYN
 70
     8
280
     0
  0
ATTDEF
  5
109
330
101
100
AcDbEntity
  8
AM_6
100
AcDbText
 10
-437.9125000000069
 20
1195.17343750009
 30
0.0
 40
0.5
  1
DSH1803D000001S_PART12
100
AcDbAttributeDefinition
  3

  2
LINA
 70
     8
280
     0
  0
ATTDEF
  5
10A
330
101
100
AcDbEntity
  8
AM_6
100
AcDbText
 10
-437.9125000000069
 20
1194.67343750009
 30
0.0
 40
0.5
  1
Daikin
100
AcDbAttributeDefinition
  3

  2
CATALOG
 70
     8
280
     0
  0
ATTDEF
  5
10B
330
101
100
AcDbEntity
  8
AM_6
100
AcDbText
 10
-437.9125000000069
 20
1194.17343750009
 30
0.0
 40
0.5
  1
DSH1803D000001S
100
AcDbAttributeDefinition
  3

  2
PARTNUMBER
 70
     8
280
     0
  0
ATTDEF
  5
10C
330
101
100
AcDbEntity
  8
AM_6
100
AcDbText
 10
-437.9125000000069
 20
1193.67343750009
 30
0.0
 40
0.5
  1
Standard Efficiency Air Conditioner Packaged Rooftop Unit
100
AcDbAttributeDefinition
  3

  2
DESCRIPTION
 70
     8
280
     0
  0
ATTDEF
  5
10D
330
101
100
AcDbEntity
  8
AM_6
100
AcDbText
 10
-437.9125000000069
 20
1193.17343750009
 30
0.0
 40
0.5
  1
88.5
100
AcDbAttributeDefinition
  3

  2
OVERALL_DEPTH
 70
     8
280
     0
  0
ATTDEF
  5
10E
330
101
100
AcDbEntity
  8
AM_6
100
AcDbText
 10
-437.9125000000069
 20
1192.67343750009
 30
0.0
 40
0.5
  1
51.0
100
AcDbAttributeDefinition
  3

  2
OVERALL_HEIGHT
 70
     8
280
     0
  0
ATTDEF
  5
10F
330
101
100
AcDbEntity
  8
AM_6
100
AcDbText
 10
-437.9125000000069
 20
1192.17343750009
 30
0.0
 40
0.5
  1
133.875
100
AcDbAttributeDefinition
  3

  2
OVERALL_WIDTH
 70
     8
280
     0
  0
ATTDEF
  5
110
330
101
100
AcDbEntity
  8
AM_6
100
AcDbText
 10
-437.9125000000069
 20
1191.67343750009
 30
0.0
 40
0.5
  1
https://www.daikin.com/
100
AcDbAttributeDefinition
  3

  2
URL
 70
     8
280
     0
  0
ATTDEF
  5
111
330
101
100
AcDbEntity
  8
AM_6
100
AcDbText
 10
-437.9125000000069
 20
1191.17343750009
 30
0.0
 40
0.5
  1
Download Revit Family (RFA)
100
AcDbAttributeDefinition
  3

  2
RFA_FAMILY
 70
     8
280
     0
  0
ATTDEF
  5
112
330
101
100
AcDbEntity
  8
AM_6
100
AcDbText
 10
-437.9125000000069
 20
1190.67343750009
 30
0.0
 40
0.5
  1
daikin
100
AcDbAttributeDefinition
  3

  2
COMPANY
 70
     8
280
     0
  0
ATTDEF
  5
113
330
101
100
AcDbEntity
  8
AM_6
100
AcDbText
 10
-437.9125000000069
 20
1190.17343750009
 30
0.0
 40
0.5
  1
{$CADENAS_DATA/23d-libs/daikin/light20commercial20rooftop20package20units/heat20pump/dsh/rooftop_unit-heat_pump-daikin-dsh_15-20_ton.prj},241 {VTYP=3D},{NB=DSH1803D000001S_PART12},{LINA=DSH1803D000001S_PART12},{NN=Rooftop_Unit-Heat_Pump-Daikin-DSH_1
100
AcDbAttributeDefinition
  3

  2
PSOL_0
 70
     9
280
     0
  0
ATTDEF
  5
114
330
101
100
AcDbEntity
  8
AM_6
100
AcDbText
 10
-437.9125000000069
 20
1189.67343750009
 30
0.0
 40
0.5
  1
on_PART12},{NOPRJ=TRUE},{DATE=06.08.2026 14:33:37},{GEOMDATE=08.07.2026 12:36:00},{VERSION=},{LINEID=60},{WBVAR=},{WBNUMERIC=}  {NB=DSH1803D000001S_PART12},{LINA=DSH1803D000001S_PART12},{KT=DUMMY},{PARTNUMBER=DSH1803D000001S},{PARTNUMBERHELP=15Ton_2
100
AcDbAttributeDefinition
  3

  2
PSOL_1
 70
     9
280
     0
  0
ATTDEF
  5
115
330
101
100
AcDbEntity
  8
AM_6
100
AcDbText
 10
-437.9125000000069
 20
1189.17343750009
 30
0.0
 40
0.5
  1
V_Standard-ESP},{ACTUAL_SUPPLY_AIR_FLOW=6000},{AMBIENT_TEMPERATURE=0},{APPARENT_POWER=36955.0360302896},{ASSEMBLY_CODE=D3050200},{ASSEMBLY_HEIGHT_OFFSET=0},{ASSEMBLY_MOUNTED_ON_CURB=0},{BACK_CLEARANCE=6.25},{BASE_RAIL_DEPTH=7.21875},{BASE_RAIL_HEIGH
100
AcDbAttributeDefinition
  3

  2
PSOL_2
 70
     9
280
     0
  0
ATTDEF
  5
116
330
101
100
AcDbEntity
  8
AM_6
100
AcDbText
 10
-437.9125000000069
 20
1188.67343750009
 30
0.0
 40
0.5
  1
96875},{BASE_RAIL_WIDTH=10.9895833333333},{BOTTOM_CONDUIT_RADIUS=0.75},{BOTTOM_CONDUIT_SIZE=1.5},{CATEGORY=Mechanical Equipment},{CENTER_DIVIDER_VISIBILITY=0},{CLEARANCE_VISIBILITY=1},{COIL_AIR_PRESSURE_DROP=0},{COMPRESSOR_LOCKED_ROTOR_AMPS=179},{CO
100
AcDbAttributeDefinition
  3

  2
PSOL_3
 70
     9
280
     0
  0
ATTDEF
  5
117
330
101
100
AcDbEntity
  8
AM_6
100
AcDbText
 10
-437.9125000000069
 20
1188.17343750009
 30
0.0
 40
0.5
  1
OR_RATED_LOAD_AMPS=25},{COMPRESSOR_TYPE=Scroll},{CONDENSATE_DRAIN_CONNECTION_DIAMETER=1},{CONDENSATE_DRAIN_CONNECTION_RADIUS=0.5},{CONDENSATE_DRAIN_HORIZONTAL_OFFSET=2.96354166666667},{CONDENSATE_DRAIN_VERTICAL_OFFSET=0.5859375},{CONDENSER_WIDTH=4.1
100
AcDbAttributeDefinition
  3

  2
PSOL_4
 70
     9
280
     0
  0
ATTDEF
  5
118
330
101
100
AcDbEntity
  8
AM_6
100
AcDbText
 10
-437.9125000000069
 20
1187.67343750009
 30
0.0
 40
0.5
  1
ONDUIT_A_HORIZONTAL_OFFSET=2.47916666666667},{CONDUIT_B_HORIZONTAL_OFFSET=0.515625},{CONDUIT_BOTTOM_HORIZONTAL_OFFSET=0.083333333333333},{CONDUIT_BOTTOM_VERTICAL_OFFSET=0.0781249999999996},{CONDUIT_VERTICAL_OFFSET=0.328125},{COOLING_ENTERING_DRY_BUL
100
AcDbAttributeDefinition
  3

  2
PSOL_5
 70
     9
280
     0
  0
ATTDEF
  5
119
330
101
100
AcDbEntity
  8
AM_6
100
AcDbText
 10
-437.9125000000069
 20
1187.17343750009
 30
0.0
 40
0.5
  1
ERATURE=0},{COOLING_ENTERING_WET_BULB_TEMPERATURE=0},{COOLING_LEAVING_DRY_BULB_TEMPERATURE=0},{COOLING_LEAVING_WET_BULB_TEMPERATURE=0},{COP_AT_17F=2.05},{COP_AT_47F=3.30},{COST=0},{CURB_HEIGHT=0},{DEFAULT_ELEVATION=0},{DESCRIPTION=Standard Efficienc
100
AcDbAttributeDefinition
  3

  2
PSOL_6
 70
     9
280
     0
  0
ATTDEF
  5
11A
330
101
100
AcDbEntity
  8
AM_6
100
AcDbText
 10
-437.9125000000069
 20
1186.67343750009
 30
0.0
 40
0.5
  1
Conditioner Packaged Rooftop Unit},{DESIGN_RETURN_AIR_FLOW=0},{DESIGN_SUPPLY_AIR_FLOW=0},{DRAIN_FLOW=0},{ENCLOSURE_TOP_HEIGHT=0.322265625},{EVAPORATOR_FAN_MOTOR_HORSEPOWER=2609.94955053795},{EVAPORATOR_FAN_TYPE=Direct Drive - Standard},{FACE_VELOCIT
100
AcDbAttributeDefinition
  3

  2
PSOL_7
 70
     9
280
     0
  0
ATTDEF
  5
11B
330
101
100
AcDbEntity
  8
AM_6
100
AcDbText
 10
-437.9125000000069
 20
1186.17343750009
 30
0.0
 40
0.5
  1
_=0},{FAN_ARRAY_A_CENTER_OFFSET=1.22916666666667},{FAN_ARRAY_A_OFFSET=1.03125},{FEET_PRESSURE_DROP=0},{FILTER_SIZE=20 X 20 X 2 (8)},{FREQUENCY=60},{FRONT_CLEARANCE=4},{HEATING_ENTERING_DRY_BULB_TEMPERATURE=0},{HEATING_ENTERING_WET_BULB_TEMPERATURE=0
100
AcDbAttributeDefinition
  3

  2
PSOL_8
 70
     9
280
     0
  0
ATTDEF
  5
11C
330
101
100
AcDbEntity
  8
AM_6
100
AcDbText
 10
-437.9125000000069
 20
1185.67343750009
 30
0.0
 40
0.5
  1
TING_LEAVING_DRY_BULB_TEMPERATURE=0},{HEATING_LEAVING_WET_BULB_TEMPERATURE=0},{HIGH_VOLTAGE_ENTRANCE_HORIZONTAL_OFFSET=1.01041666666667},{HIGH_VOLTAGE_ENTRANCE_RADIUS=1.25},{HIGH_VOLTAGE_ENTRANCE_SIZE=2.5},{LATENT_COOLING_CAPACITY=0},{LEFT_CLEARANCE
100
AcDbAttributeDefinition
  3

  2
PSOL_9
 70
     9
280
     0
  0
ATTDEF
  5
11D
330
101
100
AcDbEntity
  8
AM_6
100
AcDbText
 10
-437.9125000000069
 20
1185.17343750009
 30
0.0
 40
0.5
  1
{LOAD_SUB_CLASSIFICATION_MOTOR=1},{LOW_VOLTAGE_ENTRANCE_HORIZONTAL_OFFSET=0.283333333333333},{LOW_VOLTAGE_ENTRANCE_RADIUS=0.25},{LOW_VOLTAGE_ENTRANCE_SIZE=0.5},{MANUFACTURER=Daikin},{MASSUNIT=1},{MAXIMUM_AIR_FLOW=7700},{MAXIMUM_OVERCURRENT_PROTECTIO
100
AcDbAttributeDefinition
  3

  2
PSOL_10
 70
     9
280
     0
  0
ATTDEF
  5
11E
330
101
100
AcDbEntity
  8
AM_6
100
AcDbText
 10
-437.9125000000069
 20
1184.67343750009
 30
0.0
 40
0.5
  1
,{MINIMUM_AIR_FLOW=6000},{MINIMUM_CIRCUIT_AMPS=88.9},{NOMINAL_COOLING_CAPACITY=180000},{NOMINAL_COOLING_CAPACITY__TONS_=15},{NOMINAL_HEATING_CAPACITY=0},{NUMBER_OF_FANS=3},{NUMBER_OF_POLES=3},{OMNICLASS_NUMBER=23.75.10.24.21.27.14},{OMNICLASS_TITLE=
100
AcDbAttributeDefinition
  3

  2
PSOL_11
 70
     9
280
     0
  0
ATTDEF
  5
11F
330
101
100
AcDbEntity
  8
AM_6
100
AcDbText
 10
-437.9125000000069
 20
1184.17343750009
 30
0.0
 40
0.5
  1
ed Rooftop Air Conditioning Units},{OUTDOOR_FAN_DIAMETER=1.83333333333333},{OUTDOOR_FAN_RADIUS=0.916666666666667},{OVERALL_DEPTH=88.5},{OVERALL_HEIGHT=51.0},{OVERALL_WIDTH=133.875},{PARTTYPE=Normal},{PHASE=3},{PRIMARY_REFRIGERANT_CHARGE=360},{PRODUC
100
AcDbAttributeDefinition
  3

  2
PSOL_12
 70
     9
280
     0
  0
ATTDEF
  5
120
330
101
100
AcDbEntity
  8
AM_6
100
AcDbText
 10
-437.9125000000069
 20
1183.67343750009
 30
0.0
 40
0.5
  1
_URL=https://daikincomfort.com/products/commercial-systems/packaged-systems/heat-pumps},{REFRIGERANT_USED=R-32},{RETURN_AIR_CONNECTION_HEIGHT=22},{RETURN_AIR_CONNECTION_WIDTH=60},{RETURN_AIR_PRESSURE_DROP=0},{RETURN_DUCT_HORIZONTAL_OFFSET=0.58333333
100
AcDbAttributeDefinition
  3

  2
PSOL_13
 70
     9
280
     0
  0
ATTDEF
  5
121
330
101
100
AcDbEntity
  8
AM_6
100
AcDbText
 10
-437.9125000000069
 20
1183.17343750009
 30
0.0
 40
0.5
  1
3},{RETURN_DUCT_VERTICAL_OFFSET=1.75},{RIGHT_CLEARANCE=4},{SECONDARY_REFRIGERANT_CHARGE=350},{SENSIBLE_COOLING_CAPACITY=0},{SERIES=DSH},{STANDARDS=AHRI Certified; ETL Listed; NEC Compliant},{SUPPLY_AIR_CONNECTION_HEIGHT=22},{SUPPLY_AIR_CONNECTION_WI
100
AcDbAttributeDefinition
  3

  2
PSOL_14
 70
     9
280
     0
  0
ATTDEF
  5
122
330
101
100
AcDbEntity
  8
AM_6
100
AcDbText
 10
-437.9125000000069
 20
1182.67343750009
 30
0.0
 40
0.5
  1
},{SUPPLY_AIR_PRESSURE_DROP=0},{SUPPLY_DUCT_HORIZONTAL_OFFSET=4},{SYSTEM_PERFORMANCE_EER=10.6},{SYSTEM_PERFORMANCE_IEER=14.5},{TOTAL_COOLING_CAPACITY=0},{TOTAL_FULL_LOAD_AMPS=0},{TOTAL_HEATING_CAPACITY=0},{TOTAL_STATIC_PRESSURE=0},{UNIT_WEIGHT=2273}
100
AcDbAttributeDefinition
  3

  2
PSOL_15
 70
     9
280
     0
  0
ATTDEF
  5
123
330
101
100
AcDbEntity
  8
AM_6
100
AcDbText
 10
-437.9125000000069
 20
1182.17343750009
 30
0.0
 40
0.5
  1
https://www.daikin.com/},{VERSION=1},{VOLTAGE=240},{VOLTAGE_COMMENTS=208 VAC to 230 VAC},{VOLTAGE_ENTRANCE_VERTICAL_OFFSET=0.683333333333333},{RFA_FAMILY=Download Revit Family (RFA)},{DEFAULTSORTATTR=8},{RFA_FAMILY_=../../../_pool_/9b/12/rooftop_uni
100
AcDbAttributeDefinition
  3

  2
PSOL_16
 70
     9
280
     0
  0
ATTDEF
  5
124
330
101
100
AcDbEntity
  8
AM_6
100
AcDbText
 10
-437.9125000000069
 20
1181.67343750009
 30
0.0
 40
0.5
  1
_pump-daikin-dsh_15-20_ton.zip},{RFA_FAMILY_ENG=../../../_pool_/9b/12/rooftop_unit-heat_pump-daikin-dsh_15-20_ton.zip},{REVIT_FAMILY_DOWNLOAD=../../../_pool_/9b/12/rooftop_unit-heat_pump-daikin-dsh_15-20_ton.zip}
100
AcDbAttributeDefinition
  3

  2
PSOL_17
 70
     9
280
     0
  0
LINE
  5
125
330
101
100
AcDbEntity
  8
AM_0
100
AcDbLine
 10
-442.912500000007
 20
1197.17343750009
 30
0.0
 11
-1027.11250000001
 21
1197.17343750009
 31
0.0
  0
LINE
  5
126
330
101
100
AcDbEntity
  8
AM_0
100
AcDbLine
 10
-1027.11250000001
 20
1197.17343750009
 30
0.0
 11
-1027.11250000001
 21
130.968750000048
 31
0.0
  0
LINE
  5
127
330
101
100
AcDbEntity
  8
AM_0
100
AcDbLine
 10
-1027.11250000001
 20
130.968750000048
 30
0.0
 11
-442.9125000000069
 21
130.968750000048
 31
0.0
  0
LINE
  5
128
330
101
100
AcDbEntity
  8
AM_0
100
AcDbLine
 10
-442.912500000007
 20
130.968750000048
 30
0.0
 11
-442.912500000007
 21
1197.17343750009
 31
0.0
  0
ENDBLK
  5
104
330
101
100
AcDbEntity
  8
0
100
AcDbBlockEnd
  0
BLOCK
  5
12B
330
129
100
AcDbEntity
  8
0
100
AcDbBlockBegin
  2
5_DSH1803D000001S_PART10_0_in_DSH1803D000001S_0
 70
     2
 10
0.0
 20
0.0
 30
0.0
  3
5_DSH1803D000001S_PART10_0_in_DSH1803D000001S_0
  1

  0
ATTDEF
  5
12D
330
129
100
AcDbEntity
  8
AM_6
100
AcDbText
 10
-1111.01250000001
 20
1197.17343750009
 30
0.0
 40
0.5
  1
DSH1803D000001S_PART10
100
AcDbAttributeDefinition
  3

  2
NB
 70
     8
280
     0
  0
ATTDEF
  5
12E
330
129
100
AcDbEntity
  8
AM_6
100
AcDbText
 10
-1111.01250000001
 20
1196.67343750009
 30
0.0
 40
0.5
  1

100
AcDbAttributeDefinition
  3

  2
NN
 70
     8
280
     0
  0
ATTDEF
  5
12F
330
129
100
AcDbEntity
  8
AM_6
100
AcDbText
 10
-1111.01250000001
 20
1196.17343750009
 30
0.0
 40
0.5
  1

100
AcDbAttributeDefinition
  3

  2
NT
 70
     8
280
     0
  0
ATTDEF
  5
130
330
129
100
AcDbEntity
  8
AM_6
100
AcDbText
 10
-1111.01250000001
 20
1195.67343750009
 30
0.0
 40
0.5
  1
$PARTNUMBER._PART10
100
AcDbAttributeDefinition
  3

  2
NBSYN
 70
     8
280
     0
  0
ATTDEF
  5
131
330
129
100
AcDbEntity
  8
AM_6
100
AcDbText
 10
-1111.01250000001
 20
1195.17343750009
 30
0.0
 40
0.5
  1
DSH1803D000001S_PART10
100
AcDbAttributeDefinition
  3

  2
LINA
 70
     8
280
     0
  0
ATTDEF
  5
132
330
129
100
AcDbEntity
  8
AM_6
100
AcDbText
 10
-1111.01250000001
 20
1194.67343750009
 30
0.0
 40
0.5
  1
Daikin
100
AcDbAttributeDefinition
  3

  2
CATALOG
 70
     8
280
     0
  0
ATTDEF
  5
133
330
129
100
AcDbEntity
  8
AM_6
100
AcDbText
 10
-1111.01250000001
 20
1194.17343750009
 30
0.0
 40
0.5
  1
DSH1803D000001S
100
AcDbAttributeDefinition
  3

  2
PARTNUMBER
 70
     8
280
     0
  0
ATTDEF
  5
134
330
129
100
AcDbEntity
  8
AM_6
100
AcDbText
 10
-1111.01250000001
 20
1193.67343750009
 30
0.0
 40
0.5
  1
Standard Efficiency Air Conditioner Packaged Rooftop Unit
100
AcDbAttributeDefinition
  3

  2
DESCRIPTION
 70
     8
280
     0
  0
ATTDEF
  5
135
330
129
100
AcDbEntity
  8
AM_6
100
AcDbText
 10
-1111.01250000001
 20
1193.17343750009
 30
0.0
 40
0.5
  1
88.5
100
AcDbAttributeDefinition
  3

  2
OVERALL_DEPTH
 70
     8
280
     0
  0
ATTDEF
  5
136
330
129
100
AcDbEntity
  8
AM_6
100
AcDbText
 10
-1111.01250000001
 20
1192.67343750009
 30
0.0
 40
0.5
  1
51.0
100
AcDbAttributeDefinition
  3

  2
OVERALL_HEIGHT
 70
     8
280
     0
  0
ATTDEF
  5
137
330
129
100
AcDbEntity
  8
AM_6
100
AcDbText
 10
-1111.01250000001
 20
1192.17343750009
 30
0.0
 40
0.5
  1
133.875
100
AcDbAttributeDefinition
  3

  2
OVERALL_WIDTH
 70
     8
280
     0
  0
ATTDEF
  5
138
330
129
100
AcDbEntity
  8
AM_6
100
AcDbText
 10
-1111.01250000001
 20
1191.67343750009
 30
0.0
 40
0.5
  1
https://www.daikin.com/
100
AcDbAttributeDefinition
  3

  2
URL
 70
     8
280
     0
  0
ATTDEF
  5
139
330
129
100
AcDbEntity
  8
AM_6
100
AcDbText
 10
-1111.01250000001
 20
1191.17343750009
 30
0.0
 40
0.5
  1
Download Revit Family (RFA)
100
AcDbAttributeDefinition
  3

  2
RFA_FAMILY
 70
     8
280
     0
  0
ATTDEF
  5
13A
330
129
100
AcDbEntity
  8
AM_6
100
AcDbText
 10
-1111.01250000001
 20
1190.67343750009
 30
0.0
 40
0.5
  1
daikin
100
AcDbAttributeDefinition
  3

  2
COMPANY
 70
     8
280
     0
  0
ATTDEF
  5
13B
330
129
100
AcDbEntity
  8
AM_6
100
AcDbText
 10
-1111.01250000001
 20
1190.17343750009
 30
0.0
 40
0.5
  1
{$CADENAS_DATA/23d-libs/daikin/light20commercial20rooftop20package20units/heat20pump/dsh/rooftop_unit-heat_pump-daikin-dsh_15-20_ton.prj},241 {VTYP=3D},{NB=DSH1803D000001S_PART10},{LINA=DSH1803D000001S_PART10},{NN=Rooftop_Unit-Heat_Pump-Daikin-DSH_1
100
AcDbAttributeDefinition
  3

  2
PSOL_0
 70
     9
280
     0
  0
ATTDEF
  5
13C
330
129
100
AcDbEntity
  8
AM_6
100
AcDbText
 10
-1111.01250000001
 20
1189.67343750009
 30
0.0
 40
0.5
  1
on_PART10},{NOPRJ=TRUE},{DATE=06.08.2026 14:33:37},{GEOMDATE=08.07.2026 12:36:00},{VERSION=},{LINEID=60},{WBVAR=},{WBNUMERIC=}  {NB=DSH1803D000001S_PART10},{LINA=DSH1803D000001S_PART10},{KT=DUMMY},{PARTNUMBER=DSH1803D000001S},{PARTNUMBERHELP=15Ton_2
100
AcDbAttributeDefinition
  3

  2
PSOL_1
 70
     9
280
     0
  0
ATTDEF
  5
13D
330
129
100
AcDbEntity
  8
AM_6
100
AcDbText
 10
-1111.01250000001
 20
1189.17343750009
 30
0.0
 40
0.5
  1
V_Standard-ESP},{ACTUAL_SUPPLY_AIR_FLOW=6000},{AMBIENT_TEMPERATURE=0},{APPARENT_POWER=36955.0360302896},{ASSEMBLY_CODE=D3050200},{ASSEMBLY_HEIGHT_OFFSET=0},{ASSEMBLY_MOUNTED_ON_CURB=0},{BACK_CLEARANCE=6.25},{BASE_RAIL_DEPTH=7.21875},{BASE_RAIL_HEIGH
100
AcDbAttributeDefinition
  3

  2
PSOL_2
 70
     9
280
     0
  0
ATTDEF
  5
13E
330
129
100
AcDbEntity
  8
AM_6
100
AcDbText
 10
-1111.01250000001
 20
1188.67343750009
 30
0.0
 40
0.5
  1
96875},{BASE_RAIL_WIDTH=10.9895833333333},{BOTTOM_CONDUIT_RADIUS=0.75},{BOTTOM_CONDUIT_SIZE=1.5},{CATEGORY=Mechanical Equipment},{CENTER_DIVIDER_VISIBILITY=0},{CLEARANCE_VISIBILITY=1},{COIL_AIR_PRESSURE_DROP=0},{COMPRESSOR_LOCKED_ROTOR_AMPS=179},{CO
100
AcDbAttributeDefinition
  3

  2
PSOL_3
 70
     9
280
     0
  0
ATTDEF
  5
13F
330
129
100
AcDbEntity
  8
AM_6
100
AcDbText
 10
-1111.01250000001
 20
1188.17343750009
 30
0.0
 40
0.5
  1
OR_RATED_LOAD_AMPS=25},{COMPRESSOR_TYPE=Scroll},{CONDENSATE_DRAIN_CONNECTION_DIAMETER=1},{CONDENSATE_DRAIN_CONNECTION_RADIUS=0.5},{CONDENSATE_DRAIN_HORIZONTAL_OFFSET=2.96354166666667},{CONDENSATE_DRAIN_VERTICAL_OFFSET=0.5859375},{CONDENSER_WIDTH=4.1
100
AcDbAttributeDefinition
  3

  2
PSOL_4
 70
     9
280
     0
  0
ATTDEF
  5
140
330
129
100
AcDbEntity
  8
AM_6
100
AcDbText
 10
-1111.01250000001
 20
1187.67343750009
 30
0.0
 40
0.5
  1
ONDUIT_A_HORIZONTAL_OFFSET=2.47916666666667},{CONDUIT_B_HORIZONTAL_OFFSET=0.515625},{CONDUIT_BOTTOM_HORIZONTAL_OFFSET=0.083333333333333},{CONDUIT_BOTTOM_VERTICAL_OFFSET=0.0781249999999996},{CONDUIT_VERTICAL_OFFSET=0.328125},{COOLING_ENTERING_DRY_BUL
100
AcDbAttributeDefinition
  3

  2
PSOL_5
 70
     9
280
     0
  0
ATTDEF
  5
141
330
129
100
AcDbEntity
  8
AM_6
100
AcDbText
 10
-1111.01250000001
 20
1187.17343750009
 30
0.0
 40
0.5
  1
ERATURE=0},{COOLING_ENTERING_WET_BULB_TEMPERATURE=0},{COOLING_LEAVING_DRY_BULB_TEMPERATURE=0},{COOLING_LEAVING_WET_BULB_TEMPERATURE=0},{COP_AT_17F=2.05},{COP_AT_47F=3.30},{COST=0},{CURB_HEIGHT=0},{DEFAULT_ELEVATION=0},{DESCRIPTION=Standard Efficienc
100
AcDbAttributeDefinition
  3

  2
PSOL_6
 70
     9
280
     0
  0
ATTDEF
  5
142
330
129
100
AcDbEntity
  8
AM_6
100
AcDbText
 10
-1111.01250000001
 20
1186.67343750009
 30
0.0
 40
0.5
  1
Conditioner Packaged Rooftop Unit},{DESIGN_RETURN_AIR_FLOW=0},{DESIGN_SUPPLY_AIR_FLOW=0},{DRAIN_FLOW=0},{ENCLOSURE_TOP_HEIGHT=0.322265625},{EVAPORATOR_FAN_MOTOR_HORSEPOWER=2609.94955053795},{EVAPORATOR_FAN_TYPE=Direct Drive - Standard},{FACE_VELOCIT
100
AcDbAttributeDefinition
  3

  2
PSOL_7
 70
     9
280
     0
  0
ATTDEF
  5
143
330
129
100
AcDbEntity
  8
AM_6
100
AcDbText
 10
-1111.01250000001
 20
1186.17343750009
 30
0.0
 40
0.5
  1
_=0},{FAN_ARRAY_A_CENTER_OFFSET=1.22916666666667},{FAN_ARRAY_A_OFFSET=1.03125},{FEET_PRESSURE_DROP=0},{FILTER_SIZE=20 X 20 X 2 (8)},{FREQUENCY=60},{FRONT_CLEARANCE=4},{HEATING_ENTERING_DRY_BULB_TEMPERATURE=0},{HEATING_ENTERING_WET_BULB_TEMPERATURE=0
100
AcDbAttributeDefinition
  3

  2
PSOL_8
 70
     9
280
     0
  0
ATTDEF
  5
144
330
129
100
AcDbEntity
  8
AM_6
100
AcDbText
 10
-1111.01250000001
 20
1185.67343750009
 30
0.0
 40
0.5
  1
TING_LEAVING_DRY_BULB_TEMPERATURE=0},{HEATING_LEAVING_WET_BULB_TEMPERATURE=0},{HIGH_VOLTAGE_ENTRANCE_HORIZONTAL_OFFSET=1.01041666666667},{HIGH_VOLTAGE_ENTRANCE_RADIUS=1.25},{HIGH_VOLTAGE_ENTRANCE_SIZE=2.5},{LATENT_COOLING_CAPACITY=0},{LEFT_CLEARANCE
100
AcDbAttributeDefinition
  3

  2
PSOL_9
 70
     9
280
     0
  0
ATTDEF
  5
145
330
129
100
AcDbEntity
  8
AM_6
100
AcDbText
 10
-1111.01250000001
 20
1185.17343750009
 30
0.0
 40
0.5
  1
{LOAD_SUB_CLASSIFICATION_MOTOR=1},{LOW_VOLTAGE_ENTRANCE_HORIZONTAL_OFFSET=0.283333333333333},{LOW_VOLTAGE_ENTRANCE_RADIUS=0.25},{LOW_VOLTAGE_ENTRANCE_SIZE=0.5},{MANUFACTURER=Daikin},{MASSUNIT=1},{MAXIMUM_AIR_FLOW=7700},{MAXIMUM_OVERCURRENT_PROTECTIO
100
AcDbAttributeDefinition
  3

  2
PSOL_10
 70
     9
280
     0
  0
ATTDEF
  5
146
330
129
100
AcDbEntity
  8
AM_6
100
AcDbText
 10
-1111.01250000001
 20
1184.67343750009
 30
0.0
 40
0.5
  1
,{MINIMUM_AIR_FLOW=6000},{MINIMUM_CIRCUIT_AMPS=88.9},{NOMINAL_COOLING_CAPACITY=180000},{NOMINAL_COOLING_CAPACITY__TONS_=15},{NOMINAL_HEATING_CAPACITY=0},{NUMBER_OF_FANS=3},{NUMBER_OF_POLES=3},{OMNICLASS_NUMBER=23.75.10.24.21.27.14},{OMNICLASS_TITLE=
100
AcDbAttributeDefinition
  3

  2
PSOL_11
 70
     9
280
     0
  0
ATTDEF
  5
147
330
129
100
AcDbEntity
  8
AM_6
100
AcDbText
 10
-1111.01250000001
 20
1184.17343750009
 30
0.0
 40
0.5
  1
ed Rooftop Air Conditioning Units},{OUTDOOR_FAN_DIAMETER=1.83333333333333},{OUTDOOR_FAN_RADIUS=0.916666666666667},{OVERALL_DEPTH=88.5},{OVERALL_HEIGHT=51.0},{OVERALL_WIDTH=133.875},{PARTTYPE=Normal},{PHASE=3},{PRIMARY_REFRIGERANT_CHARGE=360},{PRODUC
100
AcDbAttributeDefinition
  3

  2
PSOL_12
 70
     9
280
     0
  0
ATTDEF
  5
148
330
129
100
AcDbEntity
  8
AM_6
100
AcDbText
 10
-1111.01250000001
 20
1183.67343750009
 30
0.0
 40
0.5
  1
_URL=https://daikincomfort.com/products/commercial-systems/packaged-systems/heat-pumps},{REFRIGERANT_USED=R-32},{RETURN_AIR_CONNECTION_HEIGHT=22},{RETURN_AIR_CONNECTION_WIDTH=60},{RETURN_AIR_PRESSURE_DROP=0},{RETURN_DUCT_HORIZONTAL_OFFSET=0.58333333
100
AcDbAttributeDefinition
  3

  2
PSOL_13
 70
     9
280
     0
  0
ATTDEF
  5
149
330
129
100
AcDbEntity
  8
AM_6
100
AcDbText
 10
-1111.01250000001
 20
1183.17343750009
 30
0.0
 40
0.5
  1
3},{RETURN_DUCT_VERTICAL_OFFSET=1.75},{RIGHT_CLEARANCE=4},{SECONDARY_REFRIGERANT_CHARGE=350},{SENSIBLE_COOLING_CAPACITY=0},{SERIES=DSH},{STANDARDS=AHRI Certified; ETL Listed; NEC Compliant},{SUPPLY_AIR_CONNECTION_HEIGHT=22},{SUPPLY_AIR_CONNECTION_WI
100
AcDbAttributeDefinition
  3

  2
PSOL_14
 70
     9
280
     0
  0
ATTDEF
  5
14A
330
129
100
AcDbEntity
  8
AM_6
100
AcDbText
 10
-1111.01250000001
 20
1182.67343750009
 30
0.0
 40
0.5
  1
},{SUPPLY_AIR_PRESSURE_DROP=0},{SUPPLY_DUCT_HORIZONTAL_OFFSET=4},{SYSTEM_PERFORMANCE_EER=10.6},{SYSTEM_PERFORMANCE_IEER=14.5},{TOTAL_COOLING_CAPACITY=0},{TOTAL_FULL_LOAD_AMPS=0},{TOTAL_HEATING_CAPACITY=0},{TOTAL_STATIC_PRESSURE=0},{UNIT_WEIGHT=2273}
100
AcDbAttributeDefinition
  3

  2
PSOL_15
 70
     9
280
     0
  0
ATTDEF
  5
14B
330
129
100
AcDbEntity
  8
AM_6
100
AcDbText
 10
-1111.01250000001
 20
1182.17343750009
 30
0.0
 40
0.5
  1
https://www.daikin.com/},{VERSION=1},{VOLTAGE=240},{VOLTAGE_COMMENTS=208 VAC to 230 VAC},{VOLTAGE_ENTRANCE_VERTICAL_OFFSET=0.683333333333333},{RFA_FAMILY=Download Revit Family (RFA)},{DEFAULTSORTATTR=8},{RFA_FAMILY_=../../../_pool_/9b/12/rooftop_uni
100
AcDbAttributeDefinition
  3

  2
PSOL_16
 70
     9
280
     0
  0
ATTDEF
  5
14C
330
129
100
AcDbEntity
  8
AM_6
100
AcDbText
 10
-1111.01250000001
 20
1181.67343750009
 30
0.0
 40
0.5
  1
_pump-daikin-dsh_15-20_ton.zip},{RFA_FAMILY_ENG=../../../_pool_/9b/12/rooftop_unit-heat_pump-daikin-dsh_15-20_ton.zip},{REVIT_FAMILY_DOWNLOAD=../../../_pool_/9b/12/rooftop_unit-heat_pump-daikin-dsh_15-20_ton.zip}
100
AcDbAttributeDefinition
  3

  2
PSOL_17
 70
     9
280
     0
  0
LINE
  5
14D
330
129
100
AcDbEntity
  8
AM_0
100
AcDbLine
 10
-1636.71250000001
 20
130.968750000048
 30
0.0
 11
-1116.01250000001
 21
130.968750000048
 31
0.0
  0
LINE
  5
14E
330
129
100
AcDbEntity
  8
AM_0
100
AcDbLine
 10
-1116.01250000001
 20
130.968750000048
 30
0.0
 11
-1116.01250000001
 21
1197.17343750009
 31
0.0
  0
LINE
  5
14F
330
129
100
AcDbEntity
  8
AM_0
100
AcDbLine
 10
-1116.01250000001
 20
1197.17343750009
 30
0.0
 11
-1636.71250000001
 21
1197.17343750009
 31
0.0
  0
LINE
  5
150
330
129
100
AcDbEntity
  8
AM_0
100
AcDbLine
 10
-1636.71250000001
 20
1197.17343750009
 30
0.0
 11
-1636.71250000001
 21
130.968750000048
 31
0.0
  0
ENDBLK
  5
12C
330
129
100
AcDbEntity
  8
0
100
AcDbBlockEnd
  0
BLOCK
  5
153
330
151
100
AcDbEntity
  8
0
100
AcDbBlockBegin
  2
6_DSH1803D000001S_PART8_0_in_DSH1803D000001S_0
 70
     2
 10
0.0
 20
0.0
 30
0.0
  3
6_DSH1803D000001S_PART8_0_in_DSH1803D000001S_0
  1

  0
ATTDEF
  5
155
330
151
100
AcDbEntity
  8
AM_6
100
AcDbText
 10
1705.21249999999
 20
1295.400000000124
 30
0.0
 40
0.5
  1
DSH1803D000001S_PART8
100
AcDbAttributeDefinition
  3

  2
NB
 70
     8
280
     0
  0
ATTDEF
  5
156
330
151
100
AcDbEntity
  8
AM_6
100
AcDbText
 10
1705.21249999999
 20
1294.900000000124
 30
0.0
 40
0.5
  1

100
AcDbAttributeDefinition
  3

  2
NN
 70
     8
280
     0
  0
ATTDEF
  5
157
330
151
100
AcDbEntity
  8
AM_6
100
AcDbText
 10
1705.21249999999
 20
1294.400000000124
 30
0.0
 40
0.5
  1

100
AcDbAttributeDefinition
  3

  2
NT
 70
     8
280
     0
  0
ATTDEF
  5
158
330
151
100
AcDbEntity
  8
AM_6
100
AcDbText
 10
1705.21249999999
 20
1293.900000000124
 30
0.0
 40
0.5
  1
$PARTNUMBER._PART8
100
AcDbAttributeDefinition
  3

  2
NBSYN
 70
     8
280
     0
  0
ATTDEF
  5
159
330
151
100
AcDbEntity
  8
AM_6
100
AcDbText
 10
1705.21249999999
 20
1293.400000000124
 30
0.0
 40
0.5
  1
DSH1803D000001S_PART8
100
AcDbAttributeDefinition
  3

  2
LINA
 70
     8
280
     0
  0
ATTDEF
  5
15A
330
151
100
AcDbEntity
  8
AM_6
100
AcDbText
 10
1705.21249999999
 20
1292.900000000124
 30
0.0
 40
0.5
  1
Daikin
100
AcDbAttributeDefinition
  3

  2
CATALOG
 70
     8
280
     0
  0
ATTDEF
  5
15B
330
151
100
AcDbEntity
  8
AM_6
100
AcDbText
 10
1705.21249999999
 20
1292.400000000124
 30
0.0
 40
0.5
  1
DSH1803D000001S
100
AcDbAttributeDefinition
  3

  2
PARTNUMBER
 70
     8
280
     0
  0
ATTDEF
  5
15C
330
151
100
AcDbEntity
  8
AM_6
100
AcDbText
 10
1705.21249999999
 20
1291.900000000124
 30
0.0
 40
0.5
  1
Standard Efficiency Air Conditioner Packaged Rooftop Unit
100
AcDbAttributeDefinition
  3

  2
DESCRIPTION
 70
     8
280
     0
  0
ATTDEF
  5
15D
330
151
100
AcDbEntity
  8
AM_6
100
AcDbText
 10
1705.21249999999
 20
1291.400000000124
 30
0.0
 40
0.5
  1
88.5
100
AcDbAttributeDefinition
  3

  2
OVERALL_DEPTH
 70
     8
280
     0
  0
ATTDEF
  5
15E
330
151
100
AcDbEntity
  8
AM_6
100
AcDbText
 10
1705.21249999999
 20
1290.900000000124
 30
0.0
 40
0.5
  1
51.0
100
AcDbAttributeDefinition
  3

  2
OVERALL_HEIGHT
 70
     8
280
     0
  0
ATTDEF
  5
15F
330
151
100
AcDbEntity
  8
AM_6
100
AcDbText
 10
1705.21249999999
 20
1290.400000000124
 30
0.0
 40
0.5
  1
133.875
100
AcDbAttributeDefinition
  3

  2
OVERALL_WIDTH
 70
     8
280
     0
  0
ATTDEF
  5
160
330
151
100
AcDbEntity
  8
AM_6
100
AcDbText
 10
1705.21249999999
 20
1289.900000000124
 30
0.0
 40
0.5
  1
https://www.daikin.com/
100
AcDbAttributeDefinition
  3

  2
URL
 70
     8
280
     0
  0
ATTDEF
  5
161
330
151
100
AcDbEntity
  8
AM_6
100
AcDbText
 10
1705.21249999999
 20
1289.400000000124
 30
0.0
 40
0.5
  1
Download Revit Family (RFA)
100
AcDbAttributeDefinition
  3

  2
RFA_FAMILY
 70
     8
280
     0
  0
ATTDEF
  5
162
330
151
100
AcDbEntity
  8
AM_6
100
AcDbText
 10
1705.21249999999
 20
1288.900000000124
 30
0.0
 40
0.5
  1
daikin
100
AcDbAttributeDefinition
  3

  2
COMPANY
 70
     8
280
     0
  0
ATTDEF
  5
163
330
151
100
AcDbEntity
  8
AM_6
100
AcDbText
 10
1705.21249999999
 20
1288.400000000124
 30
0.0
 40
0.5
  1
{$CADENAS_DATA/23d-libs/daikin/light20commercial20rooftop20package20units/heat20pump/dsh/rooftop_unit-heat_pump-daikin-dsh_15-20_ton.prj},238 {VTYP=3D},{NB=DSH1803D000001S_PART8},{LINA=DSH1803D000001S_PART8},{NN=Rooftop_Unit-Heat_Pump-Daikin-DSH_15-
100
AcDbAttributeDefinition
  3

  2
PSOL_0
 70
     9
280
     0
  0
ATTDEF
  5
164
330
151
100
AcDbEntity
  8
AM_6
100
AcDbText
 10
1705.21249999999
 20
1287.900000000124
 30
0.0
 40
0.5
  1
_PART8},{NOPRJ=TRUE},{DATE=06.08.2026 14:33:37},{GEOMDATE=08.07.2026 12:36:00},{VERSION=},{LINEID=60},{WBVAR=},{WBNUMERIC=}  {NB=DSH1803D000001S_PART8},{LINA=DSH1803D000001S_PART8},{KT=DUMMY},{PARTNUMBER=DSH1803D000001S},{PARTNUMBERHELP=15Ton_208-23
100
AcDbAttributeDefinition
  3

  2
PSOL_1
 70
     9
280
     0
  0
ATTDEF
  5
165
330
151
100
AcDbEntity
  8
AM_6
100
AcDbText
 10
1705.21249999999
 20
1287.400000000124
 30
0.0
 40
0.5
  1
ndard-ESP},{ACTUAL_SUPPLY_AIR_FLOW=6000},{AMBIENT_TEMPERATURE=0},{APPARENT_POWER=36955.0360302896},{ASSEMBLY_CODE=D3050200},{ASSEMBLY_HEIGHT_OFFSET=0},{ASSEMBLY_MOUNTED_ON_CURB=0},{BACK_CLEARANCE=6.25},{BASE_RAIL_DEPTH=7.21875},{BASE_RAIL_HEIGHT=0.4
100
AcDbAttributeDefinition
  3

  2
PSOL_2
 70
     9
280
     0
  0
ATTDEF
  5
166
330
151
100
AcDbEntity
  8
AM_6
100
AcDbText
 10
1705.21249999999
 20
1286.900000000124
 30
0.0
 40
0.5
  1
},{BASE_RAIL_WIDTH=10.9895833333333},{BOTTOM_CONDUIT_RADIUS=0.75},{BOTTOM_CONDUIT_SIZE=1.5},{CATEGORY=Mechanical Equipment},{CENTER_DIVIDER_VISIBILITY=0},{CLEARANCE_VISIBILITY=1},{COIL_AIR_PRESSURE_DROP=0},{COMPRESSOR_LOCKED_ROTOR_AMPS=179},{COMPRES
100
AcDbAttributeDefinition
  3

  2
PSOL_3
 70
     9
280
     0
  0
ATTDEF
  5
167
330
151
100
AcDbEntity
  8
AM_6
100
AcDbText
 10
1705.21249999999
 20
1286.400000000124
 30
0.0
 40
0.5
  1
TED_LOAD_AMPS=25},{COMPRESSOR_TYPE=Scroll},{CONDENSATE_DRAIN_CONNECTION_DIAMETER=1},{CONDENSATE_DRAIN_CONNECTION_RADIUS=0.5},{CONDENSATE_DRAIN_HORIZONTAL_OFFSET=2.96354166666667},{CONDENSATE_DRAIN_VERTICAL_OFFSET=0.5859375},{CONDENSER_WIDTH=4.125},{
100
AcDbAttributeDefinition
  3

  2
PSOL_4
 70
     9
280
     0
  0
ATTDEF
  5
168
330
151
100
AcDbEntity
  8
AM_6
100
AcDbText
 10
1705.21249999999
 20
1285.900000000124
 30
0.0
 40
0.5
  1
T_A_HORIZONTAL_OFFSET=2.47916666666667},{CONDUIT_B_HORIZONTAL_OFFSET=0.515625},{CONDUIT_BOTTOM_HORIZONTAL_OFFSET=0.083333333333333},{CONDUIT_BOTTOM_VERTICAL_OFFSET=0.0781249999999996},{CONDUIT_VERTICAL_OFFSET=0.328125},{COOLING_ENTERING_DRY_BULB_TEM
100
AcDbAttributeDefinition
  3

  2
PSOL_5
 70
     9
280
     0
  0
ATTDEF
  5
169
330
151
100
AcDbEntity
  8
AM_6
100
AcDbText
 10
1705.21249999999
 20
1285.400000000124
 30
0.0
 40
0.5
  1
RE=0},{COOLING_ENTERING_WET_BULB_TEMPERATURE=0},{COOLING_LEAVING_DRY_BULB_TEMPERATURE=0},{COOLING_LEAVING_WET_BULB_TEMPERATURE=0},{COP_AT_17F=2.05},{COP_AT_47F=3.30},{COST=0},{CURB_HEIGHT=0},{DEFAULT_ELEVATION=0},{DESCRIPTION=Standard Efficiency Air
100
AcDbAttributeDefinition
  3

  2
PSOL_6
 70
     9
280
     0
  0
ATTDEF
  5
16A
330
151
100
AcDbEntity
  8
AM_6
100
AcDbText
 10
1705.21249999999
 20
1284.900000000124
 30
0.0
 40
0.5
  1
tioner Packaged Rooftop Unit},{DESIGN_RETURN_AIR_FLOW=0},{DESIGN_SUPPLY_AIR_FLOW=0},{DRAIN_FLOW=0},{ENCLOSURE_TOP_HEIGHT=0.322265625},{EVAPORATOR_FAN_MOTOR_HORSEPOWER=2609.94955053795},{EVAPORATOR_FAN_TYPE=Direct Drive - Standard},{FACE_VELOCITY__FP
100
AcDbAttributeDefinition
  3

  2
PSOL_7
 70
     9
280
     0
  0
ATTDEF
  5
16B
330
151
100
AcDbEntity
  8
AM_6
100
AcDbText
 10
1705.21249999999
 20
1284.400000000124
 30
0.0
 40
0.5
  1
{FAN_ARRAY_A_CENTER_OFFSET=1.22916666666667},{FAN_ARRAY_A_OFFSET=1.03125},{FEET_PRESSURE_DROP=0},{FILTER_SIZE=20 X 20 X 2 (8)},{FREQUENCY=60},{FRONT_CLEARANCE=4},{HEATING_ENTERING_DRY_BULB_TEMPERATURE=0},{HEATING_ENTERING_WET_BULB_TEMPERATURE=0},{HE
100
AcDbAttributeDefinition
  3

  2
PSOL_8
 70
     9
280
     0
  0
ATTDEF
  5
16C
330
151
100
AcDbEntity
  8
AM_6
100
AcDbText
 10
1705.21249999999
 20
1283.900000000124
 30
0.0
 40
0.5
  1
LEAVING_DRY_BULB_TEMPERATURE=0},{HEATING_LEAVING_WET_BULB_TEMPERATURE=0},{HIGH_VOLTAGE_ENTRANCE_HORIZONTAL_OFFSET=1.01041666666667},{HIGH_VOLTAGE_ENTRANCE_RADIUS=1.25},{HIGH_VOLTAGE_ENTRANCE_SIZE=2.5},{LATENT_COOLING_CAPACITY=0},{LEFT_CLEARANCE=0.5}
100
AcDbAttributeDefinition
  3

  2
PSOL_9
 70
     9
280
     0
  0
ATTDEF
  5
16D
330
151
100
AcDbEntity
  8
AM_6
100
AcDbText
 10
1705.21249999999
 20
1283.400000000124
 30
0.0
 40
0.5
  1
_SUB_CLASSIFICATION_MOTOR=1},{LOW_VOLTAGE_ENTRANCE_HORIZONTAL_OFFSET=0.283333333333333},{LOW_VOLTAGE_ENTRANCE_RADIUS=0.25},{LOW_VOLTAGE_ENTRANCE_SIZE=0.5},{MANUFACTURER=Daikin},{MASSUNIT=1},{MAXIMUM_AIR_FLOW=7700},{MAXIMUM_OVERCURRENT_PROTECTION=110
100
AcDbAttributeDefinition
  3

  2
PSOL_10
 70
     9
280
     0
  0
ATTDEF
  5
16E
330
151
100
AcDbEntity
  8
AM_6
100
AcDbText
 10
1705.21249999999
 20
1282.900000000124
 30
0.0
 40
0.5
  1
IMUM_AIR_FLOW=6000},{MINIMUM_CIRCUIT_AMPS=88.9},{NOMINAL_COOLING_CAPACITY=180000},{NOMINAL_COOLING_CAPACITY__TONS_=15},{NOMINAL_HEATING_CAPACITY=0},{NUMBER_OF_FANS=3},{NUMBER_OF_POLES=3},{OMNICLASS_NUMBER=23.75.10.24.21.27.14},{OMNICLASS_TITLE=Packa
100
AcDbAttributeDefinition
  3

  2
PSOL_11
 70
     9
280
     0
  0
ATTDEF
  5
16F
330
151
100
AcDbEntity
  8
AM_6
100
AcDbText
 10
1705.21249999999
 20
1282.400000000124
 30
0.0
 40
0.5
  1
oftop Air Conditioning Units},{OUTDOOR_FAN_DIAMETER=1.83333333333333},{OUTDOOR_FAN_RADIUS=0.916666666666667},{OVERALL_DEPTH=88.5},{OVERALL_HEIGHT=51.0},{OVERALL_WIDTH=133.875},{PARTTYPE=Normal},{PHASE=3},{PRIMARY_REFRIGERANT_CHARGE=360},{PRODUCT_PAG
100
AcDbAttributeDefinition
  3

  2
PSOL_12
 70
     9
280
     0
  0
ATTDEF
  5
170
330
151
100
AcDbEntity
  8
AM_6
100
AcDbText
 10
1705.21249999999
 20
1281.900000000124
 30
0.0
 40
0.5
  1
https://daikincomfort.com/products/commercial-systems/packaged-systems/heat-pumps},{REFRIGERANT_USED=R-32},{RETURN_AIR_CONNECTION_HEIGHT=22},{RETURN_AIR_CONNECTION_WIDTH=60},{RETURN_AIR_PRESSURE_DROP=0},{RETURN_DUCT_HORIZONTAL_OFFSET=0.5833333333333
100
AcDbAttributeDefinition
  3

  2
PSOL_13
 70
     9
280
     0
  0
ATTDEF
  5
171
330
151
100
AcDbEntity
  8
AM_6
100
AcDbText
 10
1705.21249999999
 20
1281.400000000124
 30
0.0
 40
0.5
  1
ETURN_DUCT_VERTICAL_OFFSET=1.75},{RIGHT_CLEARANCE=4},{SECONDARY_REFRIGERANT_CHARGE=350},{SENSIBLE_COOLING_CAPACITY=0},{SERIES=DSH},{STANDARDS=AHRI Certified; ETL Listed; NEC Compliant},{SUPPLY_AIR_CONNECTION_HEIGHT=22},{SUPPLY_AIR_CONNECTION_WIDTH=6
100
AcDbAttributeDefinition
  3

  2
PSOL_14
 70
     9
280
     0
  0
ATTDEF
  5
172
330
151
100
AcDbEntity
  8
AM_6
100
AcDbText
 10
1705.21249999999
 20
1280.900000000124
 30
0.0
 40
0.5
  1
PPLY_AIR_PRESSURE_DROP=0},{SUPPLY_DUCT_HORIZONTAL_OFFSET=4},{SYSTEM_PERFORMANCE_EER=10.6},{SYSTEM_PERFORMANCE_IEER=14.5},{TOTAL_COOLING_CAPACITY=0},{TOTAL_FULL_LOAD_AMPS=0},{TOTAL_HEATING_CAPACITY=0},{TOTAL_STATIC_PRESSURE=0},{UNIT_WEIGHT=2273},{URL
100
AcDbAttributeDefinition
  3

  2
PSOL_15
 70
     9
280
     0
  0
ATTDEF
  5
173
330
151
100
AcDbEntity
  8
AM_6
100
AcDbText
 10
1705.21249999999
 20
1280.400000000124
 30
0.0
 40
0.5
  1
://www.daikin.com/},{VERSION=1},{VOLTAGE=240},{VOLTAGE_COMMENTS=208 VAC to 230 VAC},{VOLTAGE_ENTRANCE_VERTICAL_OFFSET=0.683333333333333},{RFA_FAMILY=Download Revit Family (RFA)},{DEFAULTSORTATTR=8},{RFA_FAMILY_=../../../_pool_/9b/12/rooftop_unit-hea
100
AcDbAttributeDefinition
  3

  2
PSOL_16
 70
     9
280
     0
  0
ATTDEF
  5
174
330
151
100
AcDbEntity
  8
AM_6
100
AcDbText
 10
1705.21249999999
 20
1279.900000000124
 30
0.0
 40
0.5
  1
-daikin-dsh_15-20_ton.zip},{RFA_FAMILY_ENG=../../../_pool_/9b/12/rooftop_unit-heat_pump-daikin-dsh_15-20_ton.zip},{REVIT_FAMILY_DOWNLOAD=../../../_pool_/9b/12/rooftop_unit-heat_pump-daikin-dsh_15-20_ton.zip}
100
AcDbAttributeDefinition
  3

  2
PSOL_17
 70
     9
280
     0
  0
LINE
  5
175
330
151
100
AcDbEntity
  8
AM_0
100
AcDbLine
 10
-442.912500000008
 20
1295.400000000124
 30
0.0
 11
1700.21249999999
 21
1295.40000000011
 31
0.0
  0
LINE
  5
176
330
151
100
AcDbEntity
  8
AM_0
100
AcDbLine
 10
1700.21249999999
 20
1295.40000000011
 30
0.0
 11
1700.21249999999
 21
1289.05000000011
 31
0.0
  0
LINE
  5
177
330
151
100
AcDbEntity
  8
AM_0
100
AcDbLine
 10
-430.2125000000061
 20
1295.400000000122
 30
0.0
 11
-430.2125000000061
 21
1289.050000000129
 31
0.0
  0
LINE
  5
178
330
151
100
AcDbEntity
  8
AM_0
100
AcDbLine
 10
-442.912500000008
 20
1295.400000000124
 30
0.0
 11
-442.912500000008
 21
1289.05000000013
 31
0.0
  0
LINE
  5
179
330
151
100
AcDbEntity
  8
AM_0
100
AcDbLine
 10
-430.2125000000061
 20
1289.050000000129
 30
0.0
 11
-442.912500000008
 21
1289.05000000013
 31
0.0
  0
ENDBLK
  5
154
330
151
100
AcDbEntity
  8
0
100
AcDbBlockEnd
  0
BLOCK
  5
17C
330
17A
100
AcDbEntity
  8
0
100
AcDbBlockBegin
  2
7_DSH1803D000001S_PART7_0_in_DSH1803D000001S_0
 70
     2
 10
0.0
 20
0.0
 30
0.0
  3
7_DSH1803D000001S_PART7_0_in_DSH1803D000001S_0
  1

  0
ATTDEF
  5
17E
330
17A
100
AcDbEntity
  8
AM_6
100
AcDbText
 10
-1060.21249999999
 20
1295.40000000012
 30
0.0
 40
0.5
  1
DSH1803D000001S_PART7
100
AcDbAttributeDefinition
  3

  2
NB
 70
     8
280
     0
  0
ATTDEF
  5
17F
330
17A
100
AcDbEntity
  8
AM_6
100
AcDbText
 10
-1060.21249999999
 20
1294.90000000012
 30
0.0
 40
0.5
  1

100
AcDbAttributeDefinition
  3

  2
NN
 70
     8
280
     0
  0
ATTDEF
  5
180
330
17A
100
AcDbEntity
  8
AM_6
100
AcDbText
 10
-1060.21249999999
 20
1294.40000000012
 30
0.0
 40
0.5
  1

100
AcDbAttributeDefinition
  3

  2
NT
 70
     8
280
     0
  0
ATTDEF
  5
181
330
17A
100
AcDbEntity
  8
AM_6
100
AcDbText
 10
-1060.21249999999
 20
1293.90000000012
 30
0.0
 40
0.5
  1
$PARTNUMBER._PART7
100
AcDbAttributeDefinition
  3

  2
NBSYN
 70
     8
280
     0
  0
ATTDEF
  5
182
330
17A
100
AcDbEntity
  8
AM_6
100
AcDbText
 10
-1060.21249999999
 20
1293.40000000012
 30
0.0
 40
0.5
  1
DSH1803D000001S_PART7
100
AcDbAttributeDefinition
  3

  2
LINA
 70
     8
280
     0
  0
ATTDEF
  5
183
330
17A
100
AcDbEntity
  8
AM_6
100
AcDbText
 10
-1060.21249999999
 20
1292.90000000012
 30
0.0
 40
0.5
  1
Daikin
100
AcDbAttributeDefinition
  3

  2
CATALOG
 70
     8
280
     0
  0
ATTDEF
  5
184
330
17A
100
AcDbEntity
  8
AM_6
100
AcDbText
 10
-1060.21249999999
 20
1292.40000000012
 30
0.0
 40
0.5
  1
DSH1803D000001S
100
AcDbAttributeDefinition
  3

  2
PARTNUMBER
 70
     8
280
     0
  0
ATTDEF
  5
185
330
17A
100
AcDbEntity
  8
AM_6
100
AcDbText
 10
-1060.21249999999
 20
1291.90000000012
 30
0.0
 40
0.5
  1
Standard Efficiency Air Conditioner Packaged Rooftop Unit
100
AcDbAttributeDefinition
  3

  2
DESCRIPTION
 70
     8
280
     0
  0
ATTDEF
  5
186
330
17A
100
AcDbEntity
  8
AM_6
100
AcDbText
 10
-1060.21249999999
 20
1291.40000000012
 30
0.0
 40
0.5
  1
88.5
100
AcDbAttributeDefinition
  3

  2
OVERALL_DEPTH
 70
     8
280
     0
  0
ATTDEF
  5
187
330
17A
100
AcDbEntity
  8
AM_6
100
AcDbText
 10
-1060.21249999999
 20
1290.90000000012
 30
0.0
 40
0.5
  1
51.0
100
AcDbAttributeDefinition
  3

  2
OVERALL_HEIGHT
 70
     8
280
     0
  0
ATTDEF
  5
188
330
17A
100
AcDbEntity
  8
AM_6
100
AcDbText
 10
-1060.21249999999
 20
1290.40000000012
 30
0.0
 40
0.5
  1
133.875
100
AcDbAttributeDefinition
  3

  2
OVERALL_WIDTH
 70
     8
280
     0
  0
ATTDEF
  5
189
330
17A
100
AcDbEntity
  8
AM_6
100
AcDbText
 10
-1060.21249999999
 20
1289.90000000012
 30
0.0
 40
0.5
  1
https://www.daikin.com/
100
AcDbAttributeDefinition
  3

  2
URL
 70
     8
280
     0
  0
ATTDEF
  5
18A
330
17A
100
AcDbEntity
  8
AM_6
100
AcDbText
 10
-1060.21249999999
 20
1289.40000000012
 30
0.0
 40
0.5
  1
Download Revit Family (RFA)
100
AcDbAttributeDefinition
  3

  2
RFA_FAMILY
 70
     8
280
     0
  0
ATTDEF
  5
18B
330
17A
100
AcDbEntity
  8
AM_6
100
AcDbText
 10
-1060.21249999999
 20
1288.90000000012
 30
0.0
 40
0.5
  1
daikin
100
AcDbAttributeDefinition
  3

  2
COMPANY
 70
     8
280
     0
  0
ATTDEF
  5
18C
330
17A
100
AcDbEntity
  8
AM_6
100
AcDbText
 10
-1060.21249999999
 20
1288.40000000012
 30
0.0
 40
0.5
  1
{$CADENAS_DATA/23d-libs/daikin/light20commercial20rooftop20package20units/heat20pump/dsh/rooftop_unit-heat_pump-daikin-dsh_15-20_ton.prj},238 {VTYP=3D},{NB=DSH1803D000001S_PART7},{LINA=DSH1803D000001S_PART7},{NN=Rooftop_Unit-Heat_Pump-Daikin-DSH_15-
100
AcDbAttributeDefinition
  3

  2
PSOL_0
 70
     9
280
     0
  0
ATTDEF
  5
18D
330
17A
100
AcDbEntity
  8
AM_6
100
AcDbText
 10
-1060.21249999999
 20
1287.90000000012
 30
0.0
 40
0.5
  1
_PART7},{NOPRJ=TRUE},{DATE=06.08.2026 14:33:37},{GEOMDATE=08.07.2026 12:36:00},{VERSION=},{LINEID=60},{WBVAR=},{WBNUMERIC=}  {NB=DSH1803D000001S_PART7},{LINA=DSH1803D000001S_PART7},{KT=DUMMY},{PARTNUMBER=DSH1803D000001S},{PARTNUMBERHELP=15Ton_208-23
100
AcDbAttributeDefinition
  3

  2
PSOL_1
 70
     9
280
     0
  0
ATTDEF
  5
18E
330
17A
100
AcDbEntity
  8
AM_6
100
AcDbText
 10
-1060.21249999999
 20
1287.40000000012
 30
0.0
 40
0.5
  1
ndard-ESP},{ACTUAL_SUPPLY_AIR_FLOW=6000},{AMBIENT_TEMPERATURE=0},{APPARENT_POWER=36955.0360302896},{ASSEMBLY_CODE=D3050200},{ASSEMBLY_HEIGHT_OFFSET=0},{ASSEMBLY_MOUNTED_ON_CURB=0},{BACK_CLEARANCE=6.25},{BASE_RAIL_DEPTH=7.21875},{BASE_RAIL_HEIGHT=0.4
100
AcDbAttributeDefinition
  3

  2
PSOL_2
 70
     9
280
     0
  0
ATTDEF
  5
18F
330
17A
100
AcDbEntity
  8
AM_6
100
AcDbText
 10
-1060.21249999999
 20
1286.90000000012
 30
0.0
 40
0.5
  1
},{BASE_RAIL_WIDTH=10.9895833333333},{BOTTOM_CONDUIT_RADIUS=0.75},{BOTTOM_CONDUIT_SIZE=1.5},{CATEGORY=Mechanical Equipment},{CENTER_DIVIDER_VISIBILITY=0},{CLEARANCE_VISIBILITY=1},{COIL_AIR_PRESSURE_DROP=0},{COMPRESSOR_LOCKED_ROTOR_AMPS=179},{COMPRES
100
AcDbAttributeDefinition
  3

  2
PSOL_3
 70
     9
280
     0
  0
ATTDEF
  5
190
330
17A
100
AcDbEntity
  8
AM_6
100
AcDbText
 10
-1060.21249999999
 20
1286.40000000012
 30
0.0
 40
0.5
  1
TED_LOAD_AMPS=25},{COMPRESSOR_TYPE=Scroll},{CONDENSATE_DRAIN_CONNECTION_DIAMETER=1},{CONDENSATE_DRAIN_CONNECTION_RADIUS=0.5},{CONDENSATE_DRAIN_HORIZONTAL_OFFSET=2.96354166666667},{CONDENSATE_DRAIN_VERTICAL_OFFSET=0.5859375},{CONDENSER_WIDTH=4.125},{
100
AcDbAttributeDefinition
  3

  2
PSOL_4
 70
     9
280
     0
  0
ATTDEF
  5
191
330
17A
100
AcDbEntity
  8
AM_6
100
AcDbText
 10
-1060.21249999999
 20
1285.90000000012
 30
0.0
 40
0.5
  1
T_A_HORIZONTAL_OFFSET=2.47916666666667},{CONDUIT_B_HORIZONTAL_OFFSET=0.515625},{CONDUIT_BOTTOM_HORIZONTAL_OFFSET=0.083333333333333},{CONDUIT_BOTTOM_VERTICAL_OFFSET=0.0781249999999996},{CONDUIT_VERTICAL_OFFSET=0.328125},{COOLING_ENTERING_DRY_BULB_TEM
100
AcDbAttributeDefinition
  3

  2
PSOL_5
 70
     9
280
     0
  0
ATTDEF
  5
192
330
17A
100
AcDbEntity
  8
AM_6
100
AcDbText
 10
-1060.21249999999
 20
1285.40000000012
 30
0.0
 40
0.5
  1
RE=0},{COOLING_ENTERING_WET_BULB_TEMPERATURE=0},{COOLING_LEAVING_DRY_BULB_TEMPERATURE=0},{COOLING_LEAVING_WET_BULB_TEMPERATURE=0},{COP_AT_17F=2.05},{COP_AT_47F=3.30},{COST=0},{CURB_HEIGHT=0},{DEFAULT_ELEVATION=0},{DESCRIPTION=Standard Efficiency Air
100
AcDbAttributeDefinition
  3

  2
PSOL_6
 70
     9
280
     0
  0
ATTDEF
  5
193
330
17A
100
AcDbEntity
  8
AM_6
100
AcDbText
 10
-1060.21249999999
 20
1284.90000000012
 30
0.0
 40
0.5
  1
tioner Packaged Rooftop Unit},{DESIGN_RETURN_AIR_FLOW=0},{DESIGN_SUPPLY_AIR_FLOW=0},{DRAIN_FLOW=0},{ENCLOSURE_TOP_HEIGHT=0.322265625},{EVAPORATOR_FAN_MOTOR_HORSEPOWER=2609.94955053795},{EVAPORATOR_FAN_TYPE=Direct Drive - Standard},{FACE_VELOCITY__FP
100
AcDbAttributeDefinition
  3

  2
PSOL_7
 70
     9
280
     0
  0
ATTDEF
  5
194
330
17A
100
AcDbEntity
  8
AM_6
100
AcDbText
 10
-1060.21249999999
 20
1284.40000000012
 30
0.0
 40
0.5
  1
{FAN_ARRAY_A_CENTER_OFFSET=1.22916666666667},{FAN_ARRAY_A_OFFSET=1.03125},{FEET_PRESSURE_DROP=0},{FILTER_SIZE=20 X 20 X 2 (8)},{FREQUENCY=60},{FRONT_CLEARANCE=4},{HEATING_ENTERING_DRY_BULB_TEMPERATURE=0},{HEATING_ENTERING_WET_BULB_TEMPERATURE=0},{HE
100
AcDbAttributeDefinition
  3

  2
PSOL_8
 70
     9
280
     0
  0
ATTDEF
  5
195
330
17A
100
AcDbEntity
  8
AM_6
100
AcDbText
 10
-1060.21249999999
 20
1283.90000000012
 30
0.0
 40
0.5
  1
LEAVING_DRY_BULB_TEMPERATURE=0},{HEATING_LEAVING_WET_BULB_TEMPERATURE=0},{HIGH_VOLTAGE_ENTRANCE_HORIZONTAL_OFFSET=1.01041666666667},{HIGH_VOLTAGE_ENTRANCE_RADIUS=1.25},{HIGH_VOLTAGE_ENTRANCE_SIZE=2.5},{LATENT_COOLING_CAPACITY=0},{LEFT_CLEARANCE=0.5}
100
AcDbAttributeDefinition
  3

  2
PSOL_9
 70
     9
280
     0
  0
ATTDEF
  5
196
330
17A
100
AcDbEntity
  8
AM_6
100
AcDbText
 10
-1060.21249999999
 20
1283.40000000012
 30
0.0
 40
0.5
  1
_SUB_CLASSIFICATION_MOTOR=1},{LOW_VOLTAGE_ENTRANCE_HORIZONTAL_OFFSET=0.283333333333333},{LOW_VOLTAGE_ENTRANCE_RADIUS=0.25},{LOW_VOLTAGE_ENTRANCE_SIZE=0.5},{MANUFACTURER=Daikin},{MASSUNIT=1},{MAXIMUM_AIR_FLOW=7700},{MAXIMUM_OVERCURRENT_PROTECTION=110
100
AcDbAttributeDefinition
  3

  2
PSOL_10
 70
     9
280
     0
  0
ATTDEF
  5
197
330
17A
100
AcDbEntity
  8
AM_6
100
AcDbText
 10
-1060.21249999999
 20
1282.90000000012
 30
0.0
 40
0.5
  1
IMUM_AIR_FLOW=6000},{MINIMUM_CIRCUIT_AMPS=88.9},{NOMINAL_COOLING_CAPACITY=180000},{NOMINAL_COOLING_CAPACITY__TONS_=15},{NOMINAL_HEATING_CAPACITY=0},{NUMBER_OF_FANS=3},{NUMBER_OF_POLES=3},{OMNICLASS_NUMBER=23.75.10.24.21.27.14},{OMNICLASS_TITLE=Packa
100
AcDbAttributeDefinition
  3

  2
PSOL_11
 70
     9
280
     0
  0
ATTDEF
  5
198
330
17A
100
AcDbEntity
  8
AM_6
100
AcDbText
 10
-1060.21249999999
 20
1282.40000000012
 30
0.0
 40
0.5
  1
oftop Air Conditioning Units},{OUTDOOR_FAN_DIAMETER=1.83333333333333},{OUTDOOR_FAN_RADIUS=0.916666666666667},{OVERALL_DEPTH=88.5},{OVERALL_HEIGHT=51.0},{OVERALL_WIDTH=133.875},{PARTTYPE=Normal},{PHASE=3},{PRIMARY_REFRIGERANT_CHARGE=360},{PRODUCT_PAG
100
AcDbAttributeDefinition
  3

  2
PSOL_12
 70
     9
280
     0
  0
ATTDEF
  5
199
330
17A
100
AcDbEntity
  8
AM_6
100
AcDbText
 10
-1060.21249999999
 20
1281.90000000012
 30
0.0
 40
0.5
  1
https://daikincomfort.com/products/commercial-systems/packaged-systems/heat-pumps},{REFRIGERANT_USED=R-32},{RETURN_AIR_CONNECTION_HEIGHT=22},{RETURN_AIR_CONNECTION_WIDTH=60},{RETURN_AIR_PRESSURE_DROP=0},{RETURN_DUCT_HORIZONTAL_OFFSET=0.5833333333333
100
AcDbAttributeDefinition
  3

  2
PSOL_13
 70
     9
280
     0
  0
ATTDEF
  5
19A
330
17A
100
AcDbEntity
  8
AM_6
100
AcDbText
 10
-1060.21249999999
 20
1281.40000000012
 30
0.0
 40
0.5
  1
ETURN_DUCT_VERTICAL_OFFSET=1.75},{RIGHT_CLEARANCE=4},{SECONDARY_REFRIGERANT_CHARGE=350},{SENSIBLE_COOLING_CAPACITY=0},{SERIES=DSH},{STANDARDS=AHRI Certified; ETL Listed; NEC Compliant},{SUPPLY_AIR_CONNECTION_HEIGHT=22},{SUPPLY_AIR_CONNECTION_WIDTH=6
100
AcDbAttributeDefinition
  3

  2
PSOL_14
 70
     9
280
     0
  0
ATTDEF
  5
19B
330
17A
100
AcDbEntity
  8
AM_6
100
AcDbText
 10
-1060.21249999999
 20
1280.90000000012
 30
0.0
 40
0.5
  1
PPLY_AIR_PRESSURE_DROP=0},{SUPPLY_DUCT_HORIZONTAL_OFFSET=4},{SYSTEM_PERFORMANCE_EER=10.6},{SYSTEM_PERFORMANCE_IEER=14.5},{TOTAL_COOLING_CAPACITY=0},{TOTAL_FULL_LOAD_AMPS=0},{TOTAL_HEATING_CAPACITY=0},{TOTAL_STATIC_PRESSURE=0},{UNIT_WEIGHT=2273},{URL
100
AcDbAttributeDefinition
  3

  2
PSOL_15
 70
     9
280
     0
  0
ATTDEF
  5
19C
330
17A
100
AcDbEntity
  8
AM_6
100
AcDbText
 10
-1060.21249999999
 20
1280.40000000012
 30
0.0
 40
0.5
  1
://www.daikin.com/},{VERSION=1},{VOLTAGE=240},{VOLTAGE_COMMENTS=208 VAC to 230 VAC},{VOLTAGE_ENTRANCE_VERTICAL_OFFSET=0.683333333333333},{RFA_FAMILY=Download Revit Family (RFA)},{DEFAULTSORTATTR=8},{RFA_FAMILY_=../../../_pool_/9b/12/rooftop_unit-hea
100
AcDbAttributeDefinition
  3

  2
PSOL_16
 70
     9
280
     0
  0
ATTDEF
  5
19D
330
17A
100
AcDbEntity
  8
AM_6
100
AcDbText
 10
-1060.21249999999
 20
1279.90000000012
 30
0.0
 40
0.5
  1
-daikin-dsh_15-20_ton.zip},{RFA_FAMILY_ENG=../../../_pool_/9b/12/rooftop_unit-heat_pump-daikin-dsh_15-20_ton.zip},{REVIT_FAMILY_DOWNLOAD=../../../_pool_/9b/12/rooftop_unit-heat_pump-daikin-dsh_15-20_ton.zip}
100
AcDbAttributeDefinition
  3

  2
PSOL_17
 70
     9
280
     0
  0
LINE
  5
19E
330
17A
100
AcDbEntity
  8
AM_0
100
AcDbLine
 10
-1077.91249999999
 20
1295.40000000012
 30
0.0
 11
-1065.21249999999
 21
1295.40000000012
 31
0.0
  0
LINE
  5
19F
330
17A
100
AcDbEntity
  8
AM_0
100
AcDbLine
 10
-1065.21249999999
 20
1289.05000000013
 30
0.0
 11
-1077.91249999999
 21
1289.05000000013
 31
0.0
  0
LINE
  5
1A0
330
17A
100
AcDbEntity
  8
AM_0
100
AcDbLine
 10
-1065.21249999999
 20
1295.40000000012
 30
0.0
 11
-1065.21249999999
 21
1289.05000000013
 31
0.0
  0
LINE
  5
1A1
330
17A
100
AcDbEntity
  8
AM_0
100
AcDbLine
 10
-1077.91249999999
 20
1289.05000000013
 30
0.0
 11
-1077.91249999999
 21
1295.40000000012
 31
0.0
  0
ENDBLK
  5
17D
330
17A
100
AcDbEntity
  8
0
100
AcDbBlockEnd
  0
BLOCK
  5
1A4
330
1A2
100
AcDbEntity
  8
0
100
AcDbBlockBegin
  2
8_DSH1803D000001S_PART6_0_in_DSH1803D000001S_0
 70
     2
 10
0.0
 20
0.0
 30
0.0
  3
8_DSH1803D000001S_PART6_0_in_DSH1803D000001S_0
  1

  0
ATTDEF
  5
1A6
330
1A2
100
AcDbEntity
  8
AM_6
100
AcDbText
 10
-1101.4875
 20
1289.84375000022
 30
0.0
 40
0.5
  1
DSH1803D000001S_PART6
100
AcDbAttributeDefinition
  3

  2
NB
 70
     8
280
     0
  0
ATTDEF
  5
1A7
330
1A2
100
AcDbEntity
  8
AM_6
100
AcDbText
 10
-1101.4875
 20
1289.34375000022
 30
0.0
 40
0.5
  1

100
AcDbAttributeDefinition
  3

  2
NN
 70
     8
280
     0
  0
ATTDEF
  5
1A8
330
1A2
100
AcDbEntity
  8
AM_6
100
AcDbText
 10
-1101.4875
 20
1288.84375000022
 30
0.0
 40
0.5
  1

100
AcDbAttributeDefinition
  3

  2
NT
 70
     8
280
     0
  0
ATTDEF
  5
1A9
330
1A2
100
AcDbEntity
  8
AM_6
100
AcDbText
 10
-1101.4875
 20
1288.34375000022
 30
0.0
 40
0.5
  1
$PARTNUMBER._PART6
100
AcDbAttributeDefinition
  3

  2
NBSYN
 70
     8
280
     0
  0
ATTDEF
  5
1AA
330
1A2
100
AcDbEntity
  8
AM_6
100
AcDbText
 10
-1101.4875
 20
1287.84375000022
 30
0.0
 40
0.5
  1
DSH1803D000001S_PART6
100
AcDbAttributeDefinition
  3

  2
LINA
 70
     8
280
     0
  0
ATTDEF
  5
1AB
330
1A2
100
AcDbEntity
  8
AM_6
100
AcDbText
 10
-1101.4875
 20
1287.34375000022
 30
0.0
 40
0.5
  1
Daikin
100
AcDbAttributeDefinition
  3

  2
CATALOG
 70
     8
280
     0
  0
ATTDEF
  5
1AC
330
1A2
100
AcDbEntity
  8
AM_6
100
AcDbText
 10
-1101.4875
 20
1286.84375000022
 30
0.0
 40
0.5
  1
DSH1803D000001S
100
AcDbAttributeDefinition
  3

  2
PARTNUMBER
 70
     8
280
     0
  0
ATTDEF
  5
1AD
330
1A2
100
AcDbEntity
  8
AM_6
100
AcDbText
 10
-1101.4875
 20
1286.34375000022
 30
0.0
 40
0.5
  1
Standard Efficiency Air Conditioner Packaged Rooftop Unit
100
AcDbAttributeDefinition
  3

  2
DESCRIPTION
 70
     8
280
     0
  0
ATTDEF
  5
1AE
330
1A2
100
AcDbEntity
  8
AM_6
100
AcDbText
 10
-1101.4875
 20
1285.84375000022
 30
0.0
 40
0.5
  1
88.5
100
AcDbAttributeDefinition
  3

  2
OVERALL_DEPTH
 70
     8
280
     0
  0
ATTDEF
  5
1AF
330
1A2
100
AcDbEntity
  8
AM_6
100
AcDbText
 10
-1101.4875
 20
1285.34375000022
 30
0.0
 40
0.5
  1
51.0
100
AcDbAttributeDefinition
  3

  2
OVERALL_HEIGHT
 70
     8
280
     0
  0
ATTDEF
  5
1B0
330
1A2
100
AcDbEntity
  8
AM_6
100
AcDbText
 10
-1101.4875
 20
1284.84375000022
 30
0.0
 40
0.5
  1
133.875
100
AcDbAttributeDefinition
  3

  2
OVERALL_WIDTH
 70
     8
280
     0
  0
ATTDEF
  5
1B1
330
1A2
100
AcDbEntity
  8
AM_6
100
AcDbText
 10
-1101.4875
 20
1284.34375000022
 30
0.0
 40
0.5
  1
https://www.daikin.com/
100
AcDbAttributeDefinition
  3

  2
URL
 70
     8
280
     0
  0
ATTDEF
  5
1B2
330
1A2
100
AcDbEntity
  8
AM_6
100
AcDbText
 10
-1101.4875
 20
1283.84375000022
 30
0.0
 40
0.5
  1
Download Revit Family (RFA)
100
AcDbAttributeDefinition
  3

  2
RFA_FAMILY
 70
     8
280
     0
  0
ATTDEF
  5
1B3
330
1A2
100
AcDbEntity
  8
AM_6
100
AcDbText
 10
-1101.4875
 20
1283.34375000022
 30
0.0
 40
0.5
  1
daikin
100
AcDbAttributeDefinition
  3

  2
COMPANY
 70
     8
280
     0
  0
ATTDEF
  5
1B4
330
1A2
100
AcDbEntity
  8
AM_6
100
AcDbText
 10
-1101.4875
 20
1282.84375000022
 30
0.0
 40
0.5
  1
{$CADENAS_DATA/23d-libs/daikin/light20commercial20rooftop20package20units/heat20pump/dsh/rooftop_unit-heat_pump-daikin-dsh_15-20_ton.prj},238 {VTYP=3D},{NB=DSH1803D000001S_PART6},{LINA=DSH1803D000001S_PART6},{NN=Rooftop_Unit-Heat_Pump-Daikin-DSH_15-
100
AcDbAttributeDefinition
  3

  2
PSOL_0
 70
     9
280
     0
  0
ATTDEF
  5
1B5
330
1A2
100
AcDbEntity
  8
AM_6
100
AcDbText
 10
-1101.4875
 20
1282.34375000022
 30
0.0
 40
0.5
  1
_PART6},{NOPRJ=TRUE},{DATE=06.08.2026 14:33:37},{GEOMDATE=08.07.2026 12:36:00},{VERSION=},{LINEID=60},{WBVAR=},{WBNUMERIC=}  {NB=DSH1803D000001S_PART6},{LINA=DSH1803D000001S_PART6},{KT=DUMMY},{PARTNUMBER=DSH1803D000001S},{PARTNUMBERHELP=15Ton_208-23
100
AcDbAttributeDefinition
  3

  2
PSOL_1
 70
     9
280
     0
  0
ATTDEF
  5
1B6
330
1A2
100
AcDbEntity
  8
AM_6
100
AcDbText
 10
-1101.4875
 20
1281.84375000022
 30
0.0
 40
0.5
  1
ndard-ESP},{ACTUAL_SUPPLY_AIR_FLOW=6000},{AMBIENT_TEMPERATURE=0},{APPARENT_POWER=36955.0360302896},{ASSEMBLY_CODE=D3050200},{ASSEMBLY_HEIGHT_OFFSET=0},{ASSEMBLY_MOUNTED_ON_CURB=0},{BACK_CLEARANCE=6.25},{BASE_RAIL_DEPTH=7.21875},{BASE_RAIL_HEIGHT=0.4
100
AcDbAttributeDefinition
  3

  2
PSOL_2
 70
     9
280
     0
  0
ATTDEF
  5
1B7
330
1A2
100
AcDbEntity
  8
AM_6
100
AcDbText
 10
-1101.4875
 20
1281.34375000022
 30
0.0
 40
0.5
  1
},{BASE_RAIL_WIDTH=10.9895833333333},{BOTTOM_CONDUIT_RADIUS=0.75},{BOTTOM_CONDUIT_SIZE=1.5},{CATEGORY=Mechanical Equipment},{CENTER_DIVIDER_VISIBILITY=0},{CLEARANCE_VISIBILITY=1},{COIL_AIR_PRESSURE_DROP=0},{COMPRESSOR_LOCKED_ROTOR_AMPS=179},{COMPRES
100
AcDbAttributeDefinition
  3

  2
PSOL_3
 70
     9
280
     0
  0
ATTDEF
  5
1B8
330
1A2
100
AcDbEntity
  8
AM_6
100
AcDbText
 10
-1101.4875
 20
1280.84375000022
 30
0.0
 40
0.5
  1
TED_LOAD_AMPS=25},{COMPRESSOR_TYPE=Scroll},{CONDENSATE_DRAIN_CONNECTION_DIAMETER=1},{CONDENSATE_DRAIN_CONNECTION_RADIUS=0.5},{CONDENSATE_DRAIN_HORIZONTAL_OFFSET=2.96354166666667},{CONDENSATE_DRAIN_VERTICAL_OFFSET=0.5859375},{CONDENSER_WIDTH=4.125},{
100
AcDbAttributeDefinition
  3

  2
PSOL_4
 70
     9
280
     0
  0
ATTDEF
  5
1B9
330
1A2
100
AcDbEntity
  8
AM_6
100
AcDbText
 10
-1101.4875
 20
1280.34375000022
 30
0.0
 40
0.5
  1
T_A_HORIZONTAL_OFFSET=2.47916666666667},{CONDUIT_B_HORIZONTAL_OFFSET=0.515625},{CONDUIT_BOTTOM_HORIZONTAL_OFFSET=0.083333333333333},{CONDUIT_BOTTOM_VERTICAL_OFFSET=0.0781249999999996},{CONDUIT_VERTICAL_OFFSET=0.328125},{COOLING_ENTERING_DRY_BULB_TEM
100
AcDbAttributeDefinition
  3

  2
PSOL_5
 70
     9
280
     0
  0
ATTDEF
  5
1BA
330
1A2
100
AcDbEntity
  8
AM_6
100
AcDbText
 10
-1101.4875
 20
1279.84375000022
 30
0.0
 40
0.5
  1
RE=0},{COOLING_ENTERING_WET_BULB_TEMPERATURE=0},{COOLING_LEAVING_DRY_BULB_TEMPERATURE=0},{COOLING_LEAVING_WET_BULB_TEMPERATURE=0},{COP_AT_17F=2.05},{COP_AT_47F=3.30},{COST=0},{CURB_HEIGHT=0},{DEFAULT_ELEVATION=0},{DESCRIPTION=Standard Efficiency Air
100
AcDbAttributeDefinition
  3

  2
PSOL_6
 70
     9
280
     0
  0
ATTDEF
  5
1BB
330
1A2
100
AcDbEntity
  8
AM_6
100
AcDbText
 10
-1101.4875
 20
1279.34375000022
 30
0.0
 40
0.5
  1
tioner Packaged Rooftop Unit},{DESIGN_RETURN_AIR_FLOW=0},{DESIGN_SUPPLY_AIR_FLOW=0},{DRAIN_FLOW=0},{ENCLOSURE_TOP_HEIGHT=0.322265625},{EVAPORATOR_FAN_MOTOR_HORSEPOWER=2609.94955053795},{EVAPORATOR_FAN_TYPE=Direct Drive - Standard},{FACE_VELOCITY__FP
100
AcDbAttributeDefinition
  3

  2
PSOL_7
 70
     9
280
     0
  0
ATTDEF
  5
1BC
330
1A2
100
AcDbEntity
  8
AM_6
100
AcDbText
 10
-1101.4875
 20
1278.84375000022
 30
0.0
 40
0.5
  1
{FAN_ARRAY_A_CENTER_OFFSET=1.22916666666667},{FAN_ARRAY_A_OFFSET=1.03125},{FEET_PRESSURE_DROP=0},{FILTER_SIZE=20 X 20 X 2 (8)},{FREQUENCY=60},{FRONT_CLEARANCE=4},{HEATING_ENTERING_DRY_BULB_TEMPERATURE=0},{HEATING_ENTERING_WET_BULB_TEMPERATURE=0},{HE
100
AcDbAttributeDefinition
  3

  2
PSOL_8
 70
     9
280
     0
  0
ATTDEF
  5
1BD
330
1A2
100
AcDbEntity
  8
AM_6
100
AcDbText
 10
-1101.4875
 20
1278.34375000022
 30
0.0
 40
0.5
  1
LEAVING_DRY_BULB_TEMPERATURE=0},{HEATING_LEAVING_WET_BULB_TEMPERATURE=0},{HIGH_VOLTAGE_ENTRANCE_HORIZONTAL_OFFSET=1.01041666666667},{HIGH_VOLTAGE_ENTRANCE_RADIUS=1.25},{HIGH_VOLTAGE_ENTRANCE_SIZE=2.5},{LATENT_COOLING_CAPACITY=0},{LEFT_CLEARANCE=0.5}
100
AcDbAttributeDefinition
  3

  2
PSOL_9
 70
     9
280
     0
  0
ATTDEF
  5
1BE
330
1A2
100
AcDbEntity
  8
AM_6
100
AcDbText
 10
-1101.4875
 20
1277.84375000022
 30
0.0
 40
0.5
  1
_SUB_CLASSIFICATION_MOTOR=1},{LOW_VOLTAGE_ENTRANCE_HORIZONTAL_OFFSET=0.283333333333333},{LOW_VOLTAGE_ENTRANCE_RADIUS=0.25},{LOW_VOLTAGE_ENTRANCE_SIZE=0.5},{MANUFACTURER=Daikin},{MASSUNIT=1},{MAXIMUM_AIR_FLOW=7700},{MAXIMUM_OVERCURRENT_PROTECTION=110
100
AcDbAttributeDefinition
  3

  2
PSOL_10
 70
     9
280
     0
  0
ATTDEF
  5
1BF
330
1A2
100
AcDbEntity
  8
AM_6
100
AcDbText
 10
-1101.4875
 20
1277.34375000022
 30
0.0
 40
0.5
  1
IMUM_AIR_FLOW=6000},{MINIMUM_CIRCUIT_AMPS=88.9},{NOMINAL_COOLING_CAPACITY=180000},{NOMINAL_COOLING_CAPACITY__TONS_=15},{NOMINAL_HEATING_CAPACITY=0},{NUMBER_OF_FANS=3},{NUMBER_OF_POLES=3},{OMNICLASS_NUMBER=23.75.10.24.21.27.14},{OMNICLASS_TITLE=Packa
100
AcDbAttributeDefinition
  3

  2
PSOL_11
 70
     9
280
     0
  0
ATTDEF
  5
1C0
330
1A2
100
AcDbEntity
  8
AM_6
100
AcDbText
 10
-1101.4875
 20
1276.84375000022
 30
0.0
 40
0.5
  1
oftop Air Conditioning Units},{OUTDOOR_FAN_DIAMETER=1.83333333333333},{OUTDOOR_FAN_RADIUS=0.916666666666667},{OVERALL_DEPTH=88.5},{OVERALL_HEIGHT=51.0},{OVERALL_WIDTH=133.875},{PARTTYPE=Normal},{PHASE=3},{PRIMARY_REFRIGERANT_CHARGE=360},{PRODUCT_PAG
100
AcDbAttributeDefinition
  3

  2
PSOL_12
 70
     9
280
     0
  0
ATTDEF
  5
1C1
330
1A2
100
AcDbEntity
  8
AM_6
100
AcDbText
 10
-1101.4875
 20
1276.34375000022
 30
0.0
 40
0.5
  1
https://daikincomfort.com/products/commercial-systems/packaged-systems/heat-pumps},{REFRIGERANT_USED=R-32},{RETURN_AIR_CONNECTION_HEIGHT=22},{RETURN_AIR_CONNECTION_WIDTH=60},{RETURN_AIR_PRESSURE_DROP=0},{RETURN_DUCT_HORIZONTAL_OFFSET=0.5833333333333
100
AcDbAttributeDefinition
  3

  2
PSOL_13
 70
     9
280
     0
  0
ATTDEF
  5
1C2
330
1A2
100
AcDbEntity
  8
AM_6
100
AcDbText
 10
-1101.4875
 20
1275.84375000022
 30
0.0
 40
0.5
  1
ETURN_DUCT_VERTICAL_OFFSET=1.75},{RIGHT_CLEARANCE=4},{SECONDARY_REFRIGERANT_CHARGE=350},{SENSIBLE_COOLING_CAPACITY=0},{SERIES=DSH},{STANDARDS=AHRI Certified; ETL Listed; NEC Compliant},{SUPPLY_AIR_CONNECTION_HEIGHT=22},{SUPPLY_AIR_CONNECTION_WIDTH=6
100
AcDbAttributeDefinition
  3

  2
PSOL_14
 70
     9
280
     0
  0
ATTDEF
  5
1C3
330
1A2
100
AcDbEntity
  8
AM_6
100
AcDbText
 10
-1101.4875
 20
1275.34375000022
 30
0.0
 40
0.5
  1
PPLY_AIR_PRESSURE_DROP=0},{SUPPLY_DUCT_HORIZONTAL_OFFSET=4},{SYSTEM_PERFORMANCE_EER=10.6},{SYSTEM_PERFORMANCE_IEER=14.5},{TOTAL_COOLING_CAPACITY=0},{TOTAL_FULL_LOAD_AMPS=0},{TOTAL_HEATING_CAPACITY=0},{TOTAL_STATIC_PRESSURE=0},{UNIT_WEIGHT=2273},{URL
100
AcDbAttributeDefinition
  3

  2
PSOL_15
 70
     9
280
     0
  0
ATTDEF
  5
1C4
330
1A2
100
AcDbEntity
  8
AM_6
100
AcDbText
 10
-1101.4875
 20
1274.84375000022
 30
0.0
 40
0.5
  1
://www.daikin.com/},{VERSION=1},{VOLTAGE=240},{VOLTAGE_COMMENTS=208 VAC to 230 VAC},{VOLTAGE_ENTRANCE_VERTICAL_OFFSET=0.683333333333333},{RFA_FAMILY=Download Revit Family (RFA)},{DEFAULTSORTATTR=8},{RFA_FAMILY_=../../../_pool_/9b/12/rooftop_unit-hea
100
AcDbAttributeDefinition
  3

  2
PSOL_16
 70
     9
280
     0
  0
ATTDEF
  5
1C5
330
1A2
100
AcDbEntity
  8
AM_6
100
AcDbText
 10
-1101.4875
 20
1274.34375000022
 30
0.0
 40
0.5
  1
-daikin-dsh_15-20_ton.zip},{RFA_FAMILY_ENG=../../../_pool_/9b/12/rooftop_unit-heat_pump-daikin-dsh_15-20_ton.zip},{REVIT_FAMILY_DOWNLOAD=../../../_pool_/9b/12/rooftop_unit-heat_pump-daikin-dsh_15-20_ton.zip}
100
AcDbAttributeDefinition
  3

  2
PSOL_17
 70
     9
280
     0
  0
LWPOLYLINE
  5
1C6
330
1A2
100
AcDbEntity
  8
AM_0
100
AcDbPolyline
 90
       19
 70
     0
 43
0.0
 10
-1106.4875
 20
1289.05000000005
 10
-1106.488819009639
 20
1289.052435190184
 10
-1106.492775510425
 20
1289.054870356368
 10
-1106.525378080751
 20
1289.063052040613
 10
-1106.571857466174
 20
1289.069479572359
 10
-1107.833974618107
 20
1289.127800997576
 10
-1111.856092655325
 20
1289.204852943184
 10
-1118.519412202459
 20
1289.280412549702
 10
-1127.755558616329
 20
1289.353754974554
 10
-1141.048365966719
 20
1289.432390429182
 10
-1157.296590622294
 20
1289.506410129875
 10
-1176.307083045161
 20
1289.574915495953
 10
-1197.848223732638
 20
1289.63707968692
 10
-1221.660748021675
 20
1289.692154383766
 10
-1247.456320559206
 20
1289.739480389466
 10
-1279.980321670009
 20
1289.784515442458
 10
-1314.284081874245
 20
1289.817184360137
 10
-1349.784041619079
 20
1289.837048797708
 10
-1385.8875
 20
1289.84375000022
  0
LWPOLYLINE
  5
1C7
330
1A2
100
AcDbEntity
  8
AM_0
100
AcDbPolyline
 90
       19
 70
     0
 43
0.0
 10
-1385.8875
 20
1289.84375000022
 10
-1422.643594263467
 20
1289.83680402937
 10
-1458.762873171329
 20
1289.816218571054
 10
-1493.619715456671
 20
1289.782372307862
 10
-1526.599855553871
 20
1289.735742791629
 10
-1557.132958512256
 20
1289.677181140226
 10
-1579.060899034985
 20
1289.623471248749
 10
-1598.913174611855
 20
1289.563599482617
 10
-1616.479276070006
 20
1289.498213841398
 10
-1631.567506295812
 20
1289.428012482263
 10
-1644.019441383672
 20
1289.353754974553
 10
-1653.255587797541
 20
1289.280412549702
 10
-1659.918907344675
 20
1289.204852943184
 10
-1663.941025381893
 20
1289.127800997576
 10
-1665.203142533827
 20
1289.069479572359
 10
-1665.259112597192
 20
1289.061298910399
 10
-1665.282224489575
 20
1289.054870356368
 10
-1665.286180990361
 20
1289.052435190184
 10
-1665.2875
 20
1289.05000000005
  0
ENDBLK
  5
1A5
330
1A2
100
AcDbEntity
  8
0
100
AcDbBlockEnd
  0
BLOCK
  5
1CA
330
1C8
100
AcDbEntity
  8
0
100
AcDbBlockBegin
  2
9_DSH1803D000001S_PART4_0_in_DSH1803D000001S_0
 70
     2
 10
0.0
 20
0.0
 30
0.0
  3
9_DSH1803D000001S_PART4_0_in_DSH1803D000001S_0
  1

  0
ATTDEF
  5
1CC
330
1C8
100
AcDbEntity
  8
AM_6
100
AcDbText
 10
-472.837500000005
 20
1289.84375000047
 30
0.0
 40
0.5
  1
DSH1803D000001S_PART4
100
AcDbAttributeDefinition
  3

  2
NB
 70
     8
280
     0
  0
ATTDEF
  5
1CD
330
1C8
100
AcDbEntity
  8
AM_6
100
AcDbText
 10
-472.837500000005
 20
1289.34375000047
 30
0.0
 40
0.5
  1

100
AcDbAttributeDefinition
  3

  2
NN
 70
     8
280
     0
  0
ATTDEF
  5
1CE
330
1C8
100
AcDbEntity
  8
AM_6
100
AcDbText
 10
-472.837500000005
 20
1288.84375000047
 30
0.0
 40
0.5
  1

100
AcDbAttributeDefinition
  3

  2
NT
 70
     8
280
     0
  0
ATTDEF
  5
1CF
330
1C8
100
AcDbEntity
  8
AM_6
100
AcDbText
 10
-472.837500000005
 20
1288.34375000047
 30
0.0
 40
0.5
  1
$PARTNUMBER._PART4
100
AcDbAttributeDefinition
  3

  2
NBSYN
 70
     8
280
     0
  0
ATTDEF
  5
1D0
330
1C8
100
AcDbEntity
  8
AM_6
100
AcDbText
 10
-472.837500000005
 20
1287.84375000047
 30
0.0
 40
0.5
  1
DSH1803D000001S_PART4
100
AcDbAttributeDefinition
  3

  2
LINA
 70
     8
280
     0
  0
ATTDEF
  5
1D1
330
1C8
100
AcDbEntity
  8
AM_6
100
AcDbText
 10
-472.837500000005
 20
1287.34375000047
 30
0.0
 40
0.5
  1
Daikin
100
AcDbAttributeDefinition
  3

  2
CATALOG
 70
     8
280
     0
  0
ATTDEF
  5
1D2
330
1C8
100
AcDbEntity
  8
AM_6
100
AcDbText
 10
-472.837500000005
 20
1286.84375000047
 30
0.0
 40
0.5
  1
DSH1803D000001S
100
AcDbAttributeDefinition
  3

  2
PARTNUMBER
 70
     8
280
     0
  0
ATTDEF
  5
1D3
330
1C8
100
AcDbEntity
  8
AM_6
100
AcDbText
 10
-472.837500000005
 20
1286.34375000047
 30
0.0
 40
0.5
  1
Standard Efficiency Air Conditioner Packaged Rooftop Unit
100
AcDbAttributeDefinition
  3

  2
DESCRIPTION
 70
     8
280
     0
  0
ATTDEF
  5
1D4
330
1C8
100
AcDbEntity
  8
AM_6
100
AcDbText
 10
-472.837500000005
 20
1285.84375000047
 30
0.0
 40
0.5
  1
88.5
100
AcDbAttributeDefinition
  3

  2
OVERALL_DEPTH
 70
     8
280
     0
  0
ATTDEF
  5
1D5
330
1C8
100
AcDbEntity
  8
AM_6
100
AcDbText
 10
-472.837500000005
 20
1285.34375000047
 30
0.0
 40
0.5
  1
51.0
100
AcDbAttributeDefinition
  3

  2
OVERALL_HEIGHT
 70
     8
280
     0
  0
ATTDEF
  5
1D6
330
1C8
100
AcDbEntity
  8
AM_6
100
AcDbText
 10
-472.837500000005
 20
1284.84375000047
 30
0.0
 40
0.5
  1
133.875
100
AcDbAttributeDefinition
  3

  2
OVERALL_WIDTH
 70
     8
280
     0
  0
ATTDEF
  5
1D7
330
1C8
100
AcDbEntity
  8
AM_6
100
AcDbText
 10
-472.837500000005
 20
1284.34375000047
 30
0.0
 40
0.5
  1
https://www.daikin.com/
100
AcDbAttributeDefinition
  3

  2
URL
 70
     8
280
     0
  0
ATTDEF
  5
1D8
330
1C8
100
AcDbEntity
  8
AM_6
100
AcDbText
 10
-472.837500000005
 20
1283.84375000047
 30
0.0
 40
0.5
  1
Download Revit Family (RFA)
100
AcDbAttributeDefinition
  3

  2
RFA_FAMILY
 70
     8
280
     0
  0
ATTDEF
  5
1D9
330
1C8
100
AcDbEntity
  8
AM_6
100
AcDbText
 10
-472.837500000005
 20
1283.34375000047
 30
0.0
 40
0.5
  1
daikin
100
AcDbAttributeDefinition
  3

  2
COMPANY
 70
     8
280
     0
  0
ATTDEF
  5
1DA
330
1C8
100
AcDbEntity
  8
AM_6
100
AcDbText
 10
-472.837500000005
 20
1282.84375000047
 30
0.0
 40
0.5
  1
{$CADENAS_DATA/23d-libs/daikin/light20commercial20rooftop20package20units/heat20pump/dsh/rooftop_unit-heat_pump-daikin-dsh_15-20_ton.prj},238 {VTYP=3D},{NB=DSH1803D000001S_PART4},{LINA=DSH1803D000001S_PART4},{NN=Rooftop_Unit-Heat_Pump-Daikin-DSH_15-
100
AcDbAttributeDefinition
  3

  2
PSOL_0
 70
     9
280
     0
  0
ATTDEF
  5
1DB
330
1C8
100
AcDbEntity
  8
AM_6
100
AcDbText
 10
-472.837500000005
 20
1282.34375000047
 30
0.0
 40
0.5
  1
_PART4},{NOPRJ=TRUE},{DATE=06.08.2026 14:33:37},{GEOMDATE=08.07.2026 12:36:00},{VERSION=},{LINEID=60},{WBVAR=},{WBNUMERIC=}  {NB=DSH1803D000001S_PART4},{LINA=DSH1803D000001S_PART4},{KT=DUMMY},{PARTNUMBER=DSH1803D000001S},{PARTNUMBERHELP=15Ton_208-23
100
AcDbAttributeDefinition
  3

  2
PSOL_1
 70
     9
280
     0
  0
ATTDEF
  5
1DC
330
1C8
100
AcDbEntity
  8
AM_6
100
AcDbText
 10
-472.837500000005
 20
1281.84375000047
 30
0.0
 40
0.5
  1
ndard-ESP},{ACTUAL_SUPPLY_AIR_FLOW=6000},{AMBIENT_TEMPERATURE=0},{APPARENT_POWER=36955.0360302896},{ASSEMBLY_CODE=D3050200},{ASSEMBLY_HEIGHT_OFFSET=0},{ASSEMBLY_MOUNTED_ON_CURB=0},{BACK_CLEARANCE=6.25},{BASE_RAIL_DEPTH=7.21875},{BASE_RAIL_HEIGHT=0.4
100
AcDbAttributeDefinition
  3

  2
PSOL_2
 70
     9
280
     0
  0
ATTDEF
  5
1DD
330
1C8
100
AcDbEntity
  8
AM_6
100
AcDbText
 10
-472.837500000005
 20
1281.34375000047
 30
0.0
 40
0.5
  1
},{BASE_RAIL_WIDTH=10.9895833333333},{BOTTOM_CONDUIT_RADIUS=0.75},{BOTTOM_CONDUIT_SIZE=1.5},{CATEGORY=Mechanical Equipment},{CENTER_DIVIDER_VISIBILITY=0},{CLEARANCE_VISIBILITY=1},{COIL_AIR_PRESSURE_DROP=0},{COMPRESSOR_LOCKED_ROTOR_AMPS=179},{COMPRES
100
AcDbAttributeDefinition
  3

  2
PSOL_3
 70
     9
280
     0
  0
ATTDEF
  5
1DE
330
1C8
100
AcDbEntity
  8
AM_6
100
AcDbText
 10
-472.837500000005
 20
1280.84375000047
 30
0.0
 40
0.5
  1
TED_LOAD_AMPS=25},{COMPRESSOR_TYPE=Scroll},{CONDENSATE_DRAIN_CONNECTION_DIAMETER=1},{CONDENSATE_DRAIN_CONNECTION_RADIUS=0.5},{CONDENSATE_DRAIN_HORIZONTAL_OFFSET=2.96354166666667},{CONDENSATE_DRAIN_VERTICAL_OFFSET=0.5859375},{CONDENSER_WIDTH=4.125},{
100
AcDbAttributeDefinition
  3

  2
PSOL_4
 70
     9
280
     0
  0
ATTDEF
  5
1DF
330
1C8
100
AcDbEntity
  8
AM_6
100
AcDbText
 10
-472.837500000005
 20
1280.34375000047
 30
0.0
 40
0.5
  1
T_A_HORIZONTAL_OFFSET=2.47916666666667},{CONDUIT_B_HORIZONTAL_OFFSET=0.515625},{CONDUIT_BOTTOM_HORIZONTAL_OFFSET=0.083333333333333},{CONDUIT_BOTTOM_VERTICAL_OFFSET=0.0781249999999996},{CONDUIT_VERTICAL_OFFSET=0.328125},{COOLING_ENTERING_DRY_BULB_TEM
100
AcDbAttributeDefinition
  3

  2
PSOL_5
 70
     9
280
     0
  0
ATTDEF
  5
1E0
330
1C8
100
AcDbEntity
  8
AM_6
100
AcDbText
 10
-472.837500000005
 20
1279.84375000047
 30
0.0
 40
0.5
  1
RE=0},{COOLING_ENTERING_WET_BULB_TEMPERATURE=0},{COOLING_LEAVING_DRY_BULB_TEMPERATURE=0},{COOLING_LEAVING_WET_BULB_TEMPERATURE=0},{COP_AT_17F=2.05},{COP_AT_47F=3.30},{COST=0},{CURB_HEIGHT=0},{DEFAULT_ELEVATION=0},{DESCRIPTION=Standard Efficiency Air
100
AcDbAttributeDefinition
  3

  2
PSOL_6
 70
     9
280
     0
  0
ATTDEF
  5
1E1
330
1C8
100
AcDbEntity
  8
AM_6
100
AcDbText
 10
-472.837500000005
 20
1279.34375000047
 30
0.0
 40
0.5
  1
tioner Packaged Rooftop Unit},{DESIGN_RETURN_AIR_FLOW=0},{DESIGN_SUPPLY_AIR_FLOW=0},{DRAIN_FLOW=0},{ENCLOSURE_TOP_HEIGHT=0.322265625},{EVAPORATOR_FAN_MOTOR_HORSEPOWER=2609.94955053795},{EVAPORATOR_FAN_TYPE=Direct Drive - Standard},{FACE_VELOCITY__FP
100
AcDbAttributeDefinition
  3

  2
PSOL_7
 70
     9
280
     0
  0
ATTDEF
  5
1E2
330
1C8
100
AcDbEntity
  8
AM_6
100
AcDbText
 10
-472.837500000005
 20
1278.84375000047
 30
0.0
 40
0.5
  1
{FAN_ARRAY_A_CENTER_OFFSET=1.22916666666667},{FAN_ARRAY_A_OFFSET=1.03125},{FEET_PRESSURE_DROP=0},{FILTER_SIZE=20 X 20 X 2 (8)},{FREQUENCY=60},{FRONT_CLEARANCE=4},{HEATING_ENTERING_DRY_BULB_TEMPERATURE=0},{HEATING_ENTERING_WET_BULB_TEMPERATURE=0},{HE
100
AcDbAttributeDefinition
  3

  2
PSOL_8
 70
     9
280
     0
  0
ATTDEF
  5
1E3
330
1C8
100
AcDbEntity
  8
AM_6
100
AcDbText
 10
-472.837500000005
 20
1278.34375000047
 30
0.0
 40
0.5
  1
LEAVING_DRY_BULB_TEMPERATURE=0},{HEATING_LEAVING_WET_BULB_TEMPERATURE=0},{HIGH_VOLTAGE_ENTRANCE_HORIZONTAL_OFFSET=1.01041666666667},{HIGH_VOLTAGE_ENTRANCE_RADIUS=1.25},{HIGH_VOLTAGE_ENTRANCE_SIZE=2.5},{LATENT_COOLING_CAPACITY=0},{LEFT_CLEARANCE=0.5}
100
AcDbAttributeDefinition
  3

  2
PSOL_9
 70
     9
280
     0
  0
ATTDEF
  5
1E4
330
1C8
100
AcDbEntity
  8
AM_6
100
AcDbText
 10
-472.837500000005
 20
1277.84375000047
 30
0.0
 40
0.5
  1
_SUB_CLASSIFICATION_MOTOR=1},{LOW_VOLTAGE_ENTRANCE_HORIZONTAL_OFFSET=0.283333333333333},{LOW_VOLTAGE_ENTRANCE_RADIUS=0.25},{LOW_VOLTAGE_ENTRANCE_SIZE=0.5},{MANUFACTURER=Daikin},{MASSUNIT=1},{MAXIMUM_AIR_FLOW=7700},{MAXIMUM_OVERCURRENT_PROTECTION=110
100
AcDbAttributeDefinition
  3

  2
PSOL_10
 70
     9
280
     0
  0
ATTDEF
  5
1E5
330
1C8
100
AcDbEntity
  8
AM_6
100
AcDbText
 10
-472.837500000005
 20
1277.34375000047
 30
0.0
 40
0.5
  1
IMUM_AIR_FLOW=6000},{MINIMUM_CIRCUIT_AMPS=88.9},{NOMINAL_COOLING_CAPACITY=180000},{NOMINAL_COOLING_CAPACITY__TONS_=15},{NOMINAL_HEATING_CAPACITY=0},{NUMBER_OF_FANS=3},{NUMBER_OF_POLES=3},{OMNICLASS_NUMBER=23.75.10.24.21.27.14},{OMNICLASS_TITLE=Packa
100
AcDbAttributeDefinition
  3

  2
PSOL_11
 70
     9
280
     0
  0
ATTDEF
  5
1E6
330
1C8
100
AcDbEntity
  8
AM_6
100
AcDbText
 10
-472.837500000005
 20
1276.84375000047
 30
0.0
 40
0.5
  1
oftop Air Conditioning Units},{OUTDOOR_FAN_DIAMETER=1.83333333333333},{OUTDOOR_FAN_RADIUS=0.916666666666667},{OVERALL_DEPTH=88.5},{OVERALL_HEIGHT=51.0},{OVERALL_WIDTH=133.875},{PARTTYPE=Normal},{PHASE=3},{PRIMARY_REFRIGERANT_CHARGE=360},{PRODUCT_PAG
100
AcDbAttributeDefinition
  3

  2
PSOL_12
 70
     9
280
     0
  0
ATTDEF
  5
1E7
330
1C8
100
AcDbEntity
  8
AM_6
100
AcDbText
 10
-472.837500000005
 20
1276.34375000047
 30
0.0
 40
0.5
  1
https://daikincomfort.com/products/commercial-systems/packaged-systems/heat-pumps},{REFRIGERANT_USED=R-32},{RETURN_AIR_CONNECTION_HEIGHT=22},{RETURN_AIR_CONNECTION_WIDTH=60},{RETURN_AIR_PRESSURE_DROP=0},{RETURN_DUCT_HORIZONTAL_OFFSET=0.5833333333333
100
AcDbAttributeDefinition
  3

  2
PSOL_13
 70
     9
280
     0
  0
ATTDEF
  5
1E8
330
1C8
100
AcDbEntity
  8
AM_6
100
AcDbText
 10
-472.837500000005
 20
1275.84375000047
 30
0.0
 40
0.5
  1
ETURN_DUCT_VERTICAL_OFFSET=1.75},{RIGHT_CLEARANCE=4},{SECONDARY_REFRIGERANT_CHARGE=350},{SENSIBLE_COOLING_CAPACITY=0},{SERIES=DSH},{STANDARDS=AHRI Certified; ETL Listed; NEC Compliant},{SUPPLY_AIR_CONNECTION_HEIGHT=22},{SUPPLY_AIR_CONNECTION_WIDTH=6
100
AcDbAttributeDefinition
  3

  2
PSOL_14
 70
     9
280
     0
  0
ATTDEF
  5
1E9
330
1C8
100
AcDbEntity
  8
AM_6
100
AcDbText
 10
-472.837500000005
 20
1275.34375000047
 30
0.0
 40
0.5
  1
PPLY_AIR_PRESSURE_DROP=0},{SUPPLY_DUCT_HORIZONTAL_OFFSET=4},{SYSTEM_PERFORMANCE_EER=10.6},{SYSTEM_PERFORMANCE_IEER=14.5},{TOTAL_COOLING_CAPACITY=0},{TOTAL_FULL_LOAD_AMPS=0},{TOTAL_HEATING_CAPACITY=0},{TOTAL_STATIC_PRESSURE=0},{UNIT_WEIGHT=2273},{URL
100
AcDbAttributeDefinition
  3

  2
PSOL_15
 70
     9
280
     0
  0
ATTDEF
  5
1EA
330
1C8
100
AcDbEntity
  8
AM_6
100
AcDbText
 10
-472.837500000005
 20
1274.84375000047
 30
0.0
 40
0.5
  1
://www.daikin.com/},{VERSION=1},{VOLTAGE=240},{VOLTAGE_COMMENTS=208 VAC to 230 VAC},{VOLTAGE_ENTRANCE_VERTICAL_OFFSET=0.683333333333333},{RFA_FAMILY=Download Revit Family (RFA)},{DEFAULTSORTATTR=8},{RFA_FAMILY_=../../../_pool_/9b/12/rooftop_unit-hea
100
AcDbAttributeDefinition
  3

  2
PSOL_16
 70
     9
280
     0
  0
ATTDEF
  5
1EB
330
1C8
100
AcDbEntity
  8
AM_6
100
AcDbText
 10
-472.837500000005
 20
1274.34375000047
 30
0.0
 40
0.5
  1
-daikin-dsh_15-20_ton.zip},{RFA_FAMILY_ENG=../../../_pool_/9b/12/rooftop_unit-heat_pump-daikin-dsh_15-20_ton.zip},{REVIT_FAMILY_DOWNLOAD=../../../_pool_/9b/12/rooftop_unit-heat_pump-daikin-dsh_15-20_ton.zip}
100
AcDbAttributeDefinition
  3

  2
PSOL_17
 70
     9
280
     0
  0
LWPOLYLINE
  5
1EC
330
1C8
100
AcDbEntity
  8
AM_0
100
AcDbPolyline
 90
       19
 70
     0
 43
0.0
 10
-757.2375
 20
1289.84375000047
 10
-793.9935942634634
 20
1289.836804029618
 10
-830.1128731713244
 20
1289.816218571295
 10
-864.969715456667
 20
1289.782372308093
 10
-897.949855553865
 20
1289.735742791845
 10
-928.4829585122474
 20
1289.677181140425
 10
-950.410899034973
 20
1289.623471248931
 10
-970.2631746118418
 20
1289.56359948278
 10
-987.8292760699933
 20
1289.49821384154
 10
-1002.9175062958
 20
1289.428012482384
 10
-1015.369441383661
 20
1289.353754974652
 10
-1024.605587797531
 20
1289.280412549777
 10
-1031.268907344665
 20
1289.204852943233
 10
-1035.291025381883
 20
1289.127800997597
 10
-1036.553142533817
 20
1289.069479572364
 10
-1036.609112597182
 20
1289.061298910401
 10
-1036.632224489565
 20
1289.054870356369
 10
-1036.636180990352
 20
1289.052435190185
 10
-1036.63749999999
 20
1289.05000000005
  0
LWPOLYLINE
  5
1ED
330
1C8
100
AcDbEntity
  8
AM_0
100
AcDbPolyline
 90
       19
 70
     0
 43
0.0
 10
-477.837500000005
 20
1289.05000000005
 10
-477.8388190096439
 20
1289.052435190185
 10
-477.84277551043
 20
1289.054870356369
 10
-477.8753780807567
 20
1289.063052040616
 10
-477.9218574661788
 20
1289.069479572364
 10
-479.1839746181104
 20
1289.127800997597
 10
-483.2060926553224
 20
1289.204852943233
 10
-489.8694122024515
 20
1289.280412549777
 10
-499.1055586163172
 20
1289.353754974652
 10
-512.3983659667056
 20
1289.432390429304
 10
-528.6465906222787
 20
1289.50641013002
 10
-547.6570830451446
 20
1289.574915496119
 10
-569.1982237326209
 20
1289.637079687107
 10
-593.0107480216575
 20
1289.692154383969
 10
-618.8063205591887
 20
1289.739480389684
 10
-651.3303216699959
 20
1289.784515442689
 10
-685.6340818742372
 20
1289.817184360378
 10
-721.1340416190764
 20
1289.837048797955
 10
-757.2375
 20
1289.84375000047
  0
ENDBLK
  5
1CB
330
1C8
100
AcDbEntity
  8
0
100
AcDbBlockEnd
  0
BLOCK
  5
1F0
330
1EE
100
AcDbEntity
  8
0
100
AcDbBlockBegin
  2
10_DSH1803D000001S_PART1_0_in_DSH1803D000001S_0
 70
     2
 10
0.0
 20
0.0
 30
0.0
  3
10_DSH1803D000001S_PART1_0_in_DSH1803D000001S_0
  1

  0
ATTDEF
  5
1F2
330
1EE
100
AcDbEntity
  8
AM_6
100
AcDbText
 10
-1695.21250000001
 20
1197.17343750009
 30
0.0
 40
0.5
  1
DSH1803D000001S_PART1
100
AcDbAttributeDefinition
  3

  2
NB
 70
     8
280
     0
  0
ATTDEF
  5
1F3
330
1EE
100
AcDbEntity
  8
AM_6
100
AcDbText
 10
-1695.21250000001
 20
1196.67343750009
 30
0.0
 40
0.5
  1

100
AcDbAttributeDefinition
  3

  2
NN
 70
     8
280
     0
  0
ATTDEF
  5
1F4
330
1EE
100
AcDbEntity
  8
AM_6
100
AcDbText
 10
-1695.21250000001
 20
1196.17343750009
 30
0.0
 40
0.5
  1

100
AcDbAttributeDefinition
  3

  2
NT
 70
     8
280
     0
  0
ATTDEF
  5
1F5
330
1EE
100
AcDbEntity
  8
AM_6
100
AcDbText
 10
-1695.21250000001
 20
1195.67343750009
 30
0.0
 40
0.5
  1
$PARTNUMBER._PART1
100
AcDbAttributeDefinition
  3

  2
NBSYN
 70
     8
280
     0
  0
ATTDEF
  5
1F6
330
1EE
100
AcDbEntity
  8
AM_6
100
AcDbText
 10
-1695.21250000001
 20
1195.17343750009
 30
0.0
 40
0.5
  1
DSH1803D000001S_PART1
100
AcDbAttributeDefinition
  3

  2
LINA
 70
     8
280
     0
  0
ATTDEF
  5
1F7
330
1EE
100
AcDbEntity
  8
AM_6
100
AcDbText
 10
-1695.21250000001
 20
1194.67343750009
 30
0.0
 40
0.5
  1
Daikin
100
AcDbAttributeDefinition
  3

  2
CATALOG
 70
     8
280
     0
  0
ATTDEF
  5
1F8
330
1EE
100
AcDbEntity
  8
AM_6
100
AcDbText
 10
-1695.21250000001
 20
1194.17343750009
 30
0.0
 40
0.5
  1
DSH1803D000001S
100
AcDbAttributeDefinition
  3

  2
PARTNUMBER
 70
     8
280
     0
  0
ATTDEF
  5
1F9
330
1EE
100
AcDbEntity
  8
AM_6
100
AcDbText
 10
-1695.21250000001
 20
1193.67343750009
 30
0.0
 40
0.5
  1
Standard Efficiency Air Conditioner Packaged Rooftop Unit
100
AcDbAttributeDefinition
  3

  2
DESCRIPTION
 70
     8
280
     0
  0
ATTDEF
  5
1FA
330
1EE
100
AcDbEntity
  8
AM_6
100
AcDbText
 10
-1695.21250000001
 20
1193.17343750009
 30
0.0
 40
0.5
  1
88.5
100
AcDbAttributeDefinition
  3

  2
OVERALL_DEPTH
 70
     8
280
     0
  0
ATTDEF
  5
1FB
330
1EE
100
AcDbEntity
  8
AM_6
100
AcDbText
 10
-1695.21250000001
 20
1192.67343750009
 30
0.0
 40
0.5
  1
51.0
100
AcDbAttributeDefinition
  3

  2
OVERALL_HEIGHT
 70
     8
280
     0
  0
ATTDEF
  5
1FC
330
1EE
100
AcDbEntity
  8
AM_6
100
AcDbText
 10
-1695.21250000001
 20
1192.17343750009
 30
0.0
 40
0.5
  1
133.875
100
AcDbAttributeDefinition
  3

  2
OVERALL_WIDTH
 70
     8
280
     0
  0
ATTDEF
  5
1FD
330
1EE
100
AcDbEntity
  8
AM_6
100
AcDbText
 10
-1695.21250000001
 20
1191.67343750009
 30
0.0
 40
0.5
  1
https://www.daikin.com/
100
AcDbAttributeDefinition
  3

  2
URL
 70
     8
280
     0
  0
ATTDEF
  5
1FE
330
1EE
100
AcDbEntity
  8
AM_6
100
AcDbText
 10
-1695.21250000001
 20
1191.17343750009
 30
0.0
 40
0.5
  1
Download Revit Family (RFA)
100
AcDbAttributeDefinition
  3

  2
RFA_FAMILY
 70
     8
280
     0
  0
ATTDEF
  5
1FF
330
1EE
100
AcDbEntity
  8
AM_6
100
AcDbText
 10
-1695.21250000001
 20
1190.67343750009
 30
0.0
 40
0.5
  1
daikin
100
AcDbAttributeDefinition
  3

  2
COMPANY
 70
     8
280
     0
  0
ATTDEF
  5
200
330
1EE
100
AcDbEntity
  8
AM_6
100
AcDbText
 10
-1695.21250000001
 20
1190.17343750009
 30
0.0
 40
0.5
  1
{$CADENAS_DATA/23d-libs/daikin/light20commercial20rooftop20package20units/heat20pump/dsh/rooftop_unit-heat_pump-daikin-dsh_15-20_ton.prj},238 {VTYP=3D},{NB=DSH1803D000001S_PART1},{LINA=DSH1803D000001S_PART1},{NN=Rooftop_Unit-Heat_Pump-Daikin-DSH_15-
100
AcDbAttributeDefinition
  3

  2
PSOL_0
 70
     9
280
     0
  0
ATTDEF
  5
201
330
1EE
100
AcDbEntity
  8
AM_6
100
AcDbText
 10
-1695.21250000001
 20
1189.67343750009
 30
0.0
 40
0.5
  1
_PART1},{NOPRJ=TRUE},{DATE=06.08.2026 14:33:37},{GEOMDATE=08.07.2026 12:36:00},{VERSION=},{LINEID=60},{WBVAR=},{WBNUMERIC=}  {NB=DSH1803D000001S_PART1},{LINA=DSH1803D000001S_PART1},{KT=DUMMY},{PARTNUMBER=DSH1803D000001S},{PARTNUMBERHELP=15Ton_208-23
100
AcDbAttributeDefinition
  3

  2
PSOL_1
 70
     9
280
     0
  0
ATTDEF
  5
202
330
1EE
100
AcDbEntity
  8
AM_6
100
AcDbText
 10
-1695.21250000001
 20
1189.17343750009
 30
0.0
 40
0.5
  1
ndard-ESP},{ACTUAL_SUPPLY_AIR_FLOW=6000},{AMBIENT_TEMPERATURE=0},{APPARENT_POWER=36955.0360302896},{ASSEMBLY_CODE=D3050200},{ASSEMBLY_HEIGHT_OFFSET=0},{ASSEMBLY_MOUNTED_ON_CURB=0},{BACK_CLEARANCE=6.25},{BASE_RAIL_DEPTH=7.21875},{BASE_RAIL_HEIGHT=0.4
100
AcDbAttributeDefinition
  3

  2
PSOL_2
 70
     9
280
     0
  0
ATTDEF
  5
203
330
1EE
100
AcDbEntity
  8
AM_6
100
AcDbText
 10
-1695.21250000001
 20
1188.67343750009
 30
0.0
 40
0.5
  1
},{BASE_RAIL_WIDTH=10.9895833333333},{BOTTOM_CONDUIT_RADIUS=0.75},{BOTTOM_CONDUIT_SIZE=1.5},{CATEGORY=Mechanical Equipment},{CENTER_DIVIDER_VISIBILITY=0},{CLEARANCE_VISIBILITY=1},{COIL_AIR_PRESSURE_DROP=0},{COMPRESSOR_LOCKED_ROTOR_AMPS=179},{COMPRES
100
AcDbAttributeDefinition
  3

  2
PSOL_3
 70
     9
280
     0
  0
ATTDEF
  5
204
330
1EE
100
AcDbEntity
  8
AM_6
100
AcDbText
 10
-1695.21250000001
 20
1188.17343750009
 30
0.0
 40
0.5
  1
TED_LOAD_AMPS=25},{COMPRESSOR_TYPE=Scroll},{CONDENSATE_DRAIN_CONNECTION_DIAMETER=1},{CONDENSATE_DRAIN_CONNECTION_RADIUS=0.5},{CONDENSATE_DRAIN_HORIZONTAL_OFFSET=2.96354166666667},{CONDENSATE_DRAIN_VERTICAL_OFFSET=0.5859375},{CONDENSER_WIDTH=4.125},{
100
AcDbAttributeDefinition
  3

  2
PSOL_4
 70
     9
280
     0
  0
ATTDEF
  5
205
330
1EE
100
AcDbEntity
  8
AM_6
100
AcDbText
 10
-1695.21250000001
 20
1187.67343750009
 30
0.0
 40
0.5
  1
T_A_HORIZONTAL_OFFSET=2.47916666666667},{CONDUIT_B_HORIZONTAL_OFFSET=0.515625},{CONDUIT_BOTTOM_HORIZONTAL_OFFSET=0.083333333333333},{CONDUIT_BOTTOM_VERTICAL_OFFSET=0.0781249999999996},{CONDUIT_VERTICAL_OFFSET=0.328125},{COOLING_ENTERING_DRY_BULB_TEM
100
AcDbAttributeDefinition
  3

  2
PSOL_5
 70
     9
280
     0
  0
ATTDEF
  5
206
330
1EE
100
AcDbEntity
  8
AM_6
100
AcDbText
 10
-1695.21250000001
 20
1187.17343750009
 30
0.0
 40
0.5
  1
RE=0},{COOLING_ENTERING_WET_BULB_TEMPERATURE=0},{COOLING_LEAVING_DRY_BULB_TEMPERATURE=0},{COOLING_LEAVING_WET_BULB_TEMPERATURE=0},{COP_AT_17F=2.05},{COP_AT_47F=3.30},{COST=0},{CURB_HEIGHT=0},{DEFAULT_ELEVATION=0},{DESCRIPTION=Standard Efficiency Air
100
AcDbAttributeDefinition
  3

  2
PSOL_6
 70
     9
280
     0
  0
ATTDEF
  5
207
330
1EE
100
AcDbEntity
  8
AM_6
100
AcDbText
 10
-1695.21250000001
 20
1186.67343750009
 30
0.0
 40
0.5
  1
tioner Packaged Rooftop Unit},{DESIGN_RETURN_AIR_FLOW=0},{DESIGN_SUPPLY_AIR_FLOW=0},{DRAIN_FLOW=0},{ENCLOSURE_TOP_HEIGHT=0.322265625},{EVAPORATOR_FAN_MOTOR_HORSEPOWER=2609.94955053795},{EVAPORATOR_FAN_TYPE=Direct Drive - Standard},{FACE_VELOCITY__FP
100
AcDbAttributeDefinition
  3

  2
PSOL_7
 70
     9
280
     0
  0
ATTDEF
  5
208
330
1EE
100
AcDbEntity
  8
AM_6
100
AcDbText
 10
-1695.21250000001
 20
1186.17343750009
 30
0.0
 40
0.5
  1
{FAN_ARRAY_A_CENTER_OFFSET=1.22916666666667},{FAN_ARRAY_A_OFFSET=1.03125},{FEET_PRESSURE_DROP=0},{FILTER_SIZE=20 X 20 X 2 (8)},{FREQUENCY=60},{FRONT_CLEARANCE=4},{HEATING_ENTERING_DRY_BULB_TEMPERATURE=0},{HEATING_ENTERING_WET_BULB_TEMPERATURE=0},{HE
100
AcDbAttributeDefinition
  3

  2
PSOL_8
 70
     9
280
     0
  0
ATTDEF
  5
209
330
1EE
100
AcDbEntity
  8
AM_6
100
AcDbText
 10
-1695.21250000001
 20
1185.67343750009
 30
0.0
 40
0.5
  1
LEAVING_DRY_BULB_TEMPERATURE=0},{HEATING_LEAVING_WET_BULB_TEMPERATURE=0},{HIGH_VOLTAGE_ENTRANCE_HORIZONTAL_OFFSET=1.01041666666667},{HIGH_VOLTAGE_ENTRANCE_RADIUS=1.25},{HIGH_VOLTAGE_ENTRANCE_SIZE=2.5},{LATENT_COOLING_CAPACITY=0},{LEFT_CLEARANCE=0.5}
100
AcDbAttributeDefinition
  3

  2
PSOL_9
 70
     9
280
     0
  0
ATTDEF
  5
20A
330
1EE
100
AcDbEntity
  8
AM_6
100
AcDbText
 10
-1695.21250000001
 20
1185.17343750009
 30
0.0
 40
0.5
  1
_SUB_CLASSIFICATION_MOTOR=1},{LOW_VOLTAGE_ENTRANCE_HORIZONTAL_OFFSET=0.283333333333333},{LOW_VOLTAGE_ENTRANCE_RADIUS=0.25},{LOW_VOLTAGE_ENTRANCE_SIZE=0.5},{MANUFACTURER=Daikin},{MASSUNIT=1},{MAXIMUM_AIR_FLOW=7700},{MAXIMUM_OVERCURRENT_PROTECTION=110
100
AcDbAttributeDefinition
  3

  2
PSOL_10
 70
     9
280
     0
  0
ATTDEF
  5
20B
330
1EE
100
AcDbEntity
  8
AM_6
100
AcDbText
 10
-1695.21250000001
 20
1184.67343750009
 30
0.0
 40
0.5
  1
IMUM_AIR_FLOW=6000},{MINIMUM_CIRCUIT_AMPS=88.9},{NOMINAL_COOLING_CAPACITY=180000},{NOMINAL_COOLING_CAPACITY__TONS_=15},{NOMINAL_HEATING_CAPACITY=0},{NUMBER_OF_FANS=3},{NUMBER_OF_POLES=3},{OMNICLASS_NUMBER=23.75.10.24.21.27.14},{OMNICLASS_TITLE=Packa
100
AcDbAttributeDefinition
  3

  2
PSOL_11
 70
     9
280
     0
  0
ATTDEF
  5
20C
330
1EE
100
AcDbEntity
  8
AM_6
100
AcDbText
 10
-1695.21250000001
 20
1184.17343750009
 30
0.0
 40
0.5
  1
oftop Air Conditioning Units},{OUTDOOR_FAN_DIAMETER=1.83333333333333},{OUTDOOR_FAN_RADIUS=0.916666666666667},{OVERALL_DEPTH=88.5},{OVERALL_HEIGHT=51.0},{OVERALL_WIDTH=133.875},{PARTTYPE=Normal},{PHASE=3},{PRIMARY_REFRIGERANT_CHARGE=360},{PRODUCT_PAG
100
AcDbAttributeDefinition
  3

  2
PSOL_12
 70
     9
280
     0
  0
ATTDEF
  5
20D
330
1EE
100
AcDbEntity
  8
AM_6
100
AcDbText
 10
-1695.21250000001
 20
1183.67343750009
 30
0.0
 40
0.5
  1
https://daikincomfort.com/products/commercial-systems/packaged-systems/heat-pumps},{REFRIGERANT_USED=R-32},{RETURN_AIR_CONNECTION_HEIGHT=22},{RETURN_AIR_CONNECTION_WIDTH=60},{RETURN_AIR_PRESSURE_DROP=0},{RETURN_DUCT_HORIZONTAL_OFFSET=0.5833333333333
100
AcDbAttributeDefinition
  3

  2
PSOL_13
 70
     9
280
     0
  0
ATTDEF
  5
20E
330
1EE
100
AcDbEntity
  8
AM_6
100
AcDbText
 10
-1695.21250000001
 20
1183.17343750009
 30
0.0
 40
0.5
  1
ETURN_DUCT_VERTICAL_OFFSET=1.75},{RIGHT_CLEARANCE=4},{SECONDARY_REFRIGERANT_CHARGE=350},{SENSIBLE_COOLING_CAPACITY=0},{SERIES=DSH},{STANDARDS=AHRI Certified; ETL Listed; NEC Compliant},{SUPPLY_AIR_CONNECTION_HEIGHT=22},{SUPPLY_AIR_CONNECTION_WIDTH=6
100
AcDbAttributeDefinition
  3

  2
PSOL_14
 70
     9
280
     0
  0
ATTDEF
  5
20F
330
1EE
100
AcDbEntity
  8
AM_6
100
AcDbText
 10
-1695.21250000001
 20
1182.67343750009
 30
0.0
 40
0.5
  1
PPLY_AIR_PRESSURE_DROP=0},{SUPPLY_DUCT_HORIZONTAL_OFFSET=4},{SYSTEM_PERFORMANCE_EER=10.6},{SYSTEM_PERFORMANCE_IEER=14.5},{TOTAL_COOLING_CAPACITY=0},{TOTAL_FULL_LOAD_AMPS=0},{TOTAL_HEATING_CAPACITY=0},{TOTAL_STATIC_PRESSURE=0},{UNIT_WEIGHT=2273},{URL
100
AcDbAttributeDefinition
  3

  2
PSOL_15
 70
     9
280
     0
  0
ATTDEF
  5
210
330
1EE
100
AcDbEntity
  8
AM_6
100
AcDbText
 10
-1695.21250000001
 20
1182.17343750009
 30
0.0
 40
0.5
  1
://www.daikin.com/},{VERSION=1},{VOLTAGE=240},{VOLTAGE_COMMENTS=208 VAC to 230 VAC},{VOLTAGE_ENTRANCE_VERTICAL_OFFSET=0.683333333333333},{RFA_FAMILY=Download Revit Family (RFA)},{DEFAULTSORTATTR=8},{RFA_FAMILY_=../../../_pool_/9b/12/rooftop_unit-hea
100
AcDbAttributeDefinition
  3

  2
PSOL_16
 70
     9
280
     0
  0
ATTDEF
  5
211
330
1EE
100
AcDbEntity
  8
AM_6
100
AcDbText
 10
-1695.21250000001
 20
1181.67343750009
 30
0.0
 40
0.5
  1
-daikin-dsh_15-20_ton.zip},{RFA_FAMILY_ENG=../../../_pool_/9b/12/rooftop_unit-heat_pump-daikin-dsh_15-20_ton.zip},{REVIT_FAMILY_DOWNLOAD=../../../_pool_/9b/12/rooftop_unit-heat_pump-daikin-dsh_15-20_ton.zip}
100
AcDbAttributeDefinition
  3

  2
PSOL_17
 70
     9
280
     0
  0
LINE
  5
212
330
1EE
100
AcDbEntity
  8
AM_0
100
AcDbLine
 10
-1701.00625000001
 20
1197.17343750009
 30
0.0
 11
-1700.21250000001
 21
1197.17343750009
 31
0.0
  0
LINE
  5
213
330
1EE
100
AcDbEntity
  8
AM_0
100
AcDbLine
 10
-1701.00625000001
 20
130.968750000048
 30
0.0
 11
-1700.212500000012
 21
130.968750000048
 31
0.0
  0
LINE
  5
214
330
1EE
100
AcDbEntity
  8
AM_0
100
AcDbLine
 10
-1701.00625000001
 20
130.968750000048
 30
0.0
 11
-1701.00625000001
 21
1197.17343750009
 31
0.0
  0
ENDBLK
  5
1F1
330
1EE
100
AcDbEntity
  8
0
100
AcDbBlockEnd
  0
ENDSEC
  0
SECTION
  2
ENTITIES
  0
ATTDEF
  5
5F
330
1F
100
AcDbEntity
  8
AM_6
100
AcDbText
 10
1705.21249999999
 20
1295.400000000124
 30
0.0
 40
0.5
  1
DSH1803D000001S
100
AcDbAttributeDefinition
  3

  2
NB
 70
     8
280
     0
  0
ATTDEF
  5
60
330
1F
100
AcDbEntity
  8
AM_6
100
AcDbText
 10
1705.21249999999
 20
1294.900000000124
 30
0.0
 40
0.5
  1
Rooftop_Unit-Heat_Pump-Daikin-DSH_15-20_Ton
100
AcDbAttributeDefinition
  3

  2
NN
 70
     8
280
     0
  0
ATTDEF
  5
61
330
1F
100
AcDbEntity
  8
AM_6
100
AcDbText
 10
1705.21249999999
 20
1294.400000000124
 30
0.0
 40
0.5
  1

100
AcDbAttributeDefinition
  3

  2
NT
 70
     8
280
     0
  0
ATTDEF
  5
62
330
1F
100
AcDbEntity
  8
AM_6
100
AcDbText
 10
1705.21249999999
 20
1293.900000000124
 30
0.0
 40
0.5
  1
$PARTNUMBER.
100
AcDbAttributeDefinition
  3

  2
NBSYN
 70
     8
280
     0
  0
ATTDEF
  5
63
330
1F
100
AcDbEntity
  8
AM_6
100
AcDbText
 10
1705.21249999999
 20
1293.400000000124
 30
0.0
 40
0.5
  1
DSH1803D000001S
100
AcDbAttributeDefinition
  3

  2
LINA
 70
     8
280
     0
  0
ATTDEF
  5
64
330
1F
100
AcDbEntity
  8
AM_6
100
AcDbText
 10
1705.21249999999
 20
1292.900000000124
 30
0.0
 40
0.5
  1
Daikin
100
AcDbAttributeDefinition
  3

  2
CATALOG
 70
     8
280
     0
  0
ATTDEF
  5
65
330
1F
100
AcDbEntity
  8
AM_6
100
AcDbText
 10
1705.21249999999
 20
1292.400000000124
 30
0.0
 40
0.5
  1
DSH1803D000001S
100
AcDbAttributeDefinition
  3

  2
PARTNUMBER
 70
     8
280
     0
  0
ATTDEF
  5
66
330
1F
100
AcDbEntity
  8
AM_6
100
AcDbText
 10
1705.21249999999
 20
1291.900000000124
 30
0.0
 40
0.5
  1
Standard Efficiency Air Conditioner Packaged Rooftop Unit
100
AcDbAttributeDefinition
  3

  2
DESCRIPTION
 70
     8
280
     0
  0
ATTDEF
  5
67
330
1F
100
AcDbEntity
  8
AM_6
100
AcDbText
 10
1705.21249999999
 20
1291.400000000124
 30
0.0
 40
0.5
  1
88.5
100
AcDbAttributeDefinition
  3

  2
OVERALL_DEPTH
 70
     8
280
     0
  0
ATTDEF
  5
68
330
1F
100
AcDbEntity
  8
AM_6
100
AcDbText
 10
1705.21249999999
 20
1290.900000000124
 30
0.0
 40
0.5
  1
51.0
100
AcDbAttributeDefinition
  3

  2
OVERALL_HEIGHT
 70
     8
280
     0
  0
ATTDEF
  5
69
330
1F
100
AcDbEntity
  8
AM_6
100
AcDbText
 10
1705.21249999999
 20
1290.400000000124
 30
0.0
 40
0.5
  1
133.875
100
AcDbAttributeDefinition
  3

  2
OVERALL_WIDTH
 70
     8
280
     0
  0
ATTDEF
  5
6A
330
1F
100
AcDbEntity
  8
AM_6
100
AcDbText
 10
1705.21249999999
 20
1289.900000000124
 30
0.0
 40
0.5
  1
https://www.daikin.com/
100
AcDbAttributeDefinition
  3

  2
URL
 70
     8
280
     0
  0
ATTDEF
  5
6B
330
1F
100
AcDbEntity
  8
AM_6
100
AcDbText
 10
1705.21249999999
 20
1289.400000000124
 30
0.0
 40
0.5
  1
Download Revit Family (RFA)
100
AcDbAttributeDefinition
  3

  2
RFA_FAMILY
 70
     8
280
     0
  0
ATTDEF
  5
6C
330
1F
100
AcDbEntity
  8
AM_6
100
AcDbText
 10
1705.21249999999
 20
1288.900000000124
 30
0.0
 40
0.5
  1
daikin
100
AcDbAttributeDefinition
  3

  2
COMPANY
 70
     8
280
     0
  0
ATTDEF
  5
6D
330
1F
100
AcDbEntity
  8
AM_6
100
AcDbText
 10
1705.21249999999
 20
1288.400000000124
 30
0.0
 40
0.5
  1
{$CADENAS_DATA/23d-libs/daikin/light20commercial20rooftop20package20units/heat20pump/dsh/rooftop_unit-heat_pump-daikin-dsh_15-20_ton.prj},218 {STYP=ASS},{VTYP=3D},{NB=DSH1803D000001S},{LINA=DSH1803D000001S},{NN=Rooftop_Unit-Heat_Pump-Daikin-DSH_15-2
100
AcDbAttributeDefinition
  3

  2
PSOL_0
 70
     9
280
     0
  0
ATTDEF
  5
6E
330
1F
100
AcDbEntity
  8
AM_6
100
AcDbText
 10
1705.21249999999
 20
1287.900000000124
 30
0.0
 40
0.5
  1
,{DATE=06.08.2026 14:33:37},{GEOMDATE=08.07.2026 12:36:00},{VERSION=},{LINEID=60},{WBVAR=},{WBNUMERIC=}  {NB=DSH1803D000001S},{LINA=DSH1803D000001S},{KT=DUMMY},{PARTNUMBER=DSH1803D000001S},{PARTNUMBERHELP=15Ton_208-230V_Standard-ESP},{ACTUAL_SUPPLY_
100
AcDbAttributeDefinition
  3

  2
PSOL_1
 70
     9
280
     0
  0
ATTDEF
  5
6F
330
1F
100
AcDbEntity
  8
AM_6
100
AcDbText
 10
1705.21249999999
 20
1287.400000000124
 30
0.0
 40
0.5
  1
OW=6000},{AMBIENT_TEMPERATURE=0},{APPARENT_POWER=36955.0360302896},{ASSEMBLY_CODE=D3050200},{ASSEMBLY_HEIGHT_OFFSET=0},{ASSEMBLY_MOUNTED_ON_CURB=0},{BACK_CLEARANCE=6.25},{BASE_RAIL_DEPTH=7.21875},{BASE_RAIL_HEIGHT=0.4296875},{BASE_RAIL_WIDTH=10.9895
100
AcDbAttributeDefinition
  3

  2
PSOL_2
 70
     9
280
     0
  0
ATTDEF
  5
70
330
1F
100
AcDbEntity
  8
AM_6
100
AcDbText
 10
1705.21249999999
 20
1286.900000000124
 30
0.0
 40
0.5
  1
333},{BOTTOM_CONDUIT_RADIUS=0.75},{BOTTOM_CONDUIT_SIZE=1.5},{CATEGORY=Mechanical Equipment},{CENTER_DIVIDER_VISIBILITY=0},{CLEARANCE_VISIBILITY=1},{COIL_AIR_PRESSURE_DROP=0},{COMPRESSOR_LOCKED_ROTOR_AMPS=179},{COMPRESSOR_RATED_LOAD_AMPS=25},{COMPRES
100
AcDbAttributeDefinition
  3

  2
PSOL_3
 70
     9
280
     0
  0
ATTDEF
  5
71
330
1F
100
AcDbEntity
  8
AM_6
100
AcDbText
 10
1705.21249999999
 20
1286.400000000124
 30
0.0
 40
0.5
  1
PE=Scroll},{CONDENSATE_DRAIN_CONNECTION_DIAMETER=1},{CONDENSATE_DRAIN_CONNECTION_RADIUS=0.5},{CONDENSATE_DRAIN_HORIZONTAL_OFFSET=2.96354166666667},{CONDENSATE_DRAIN_VERTICAL_OFFSET=0.5859375},{CONDENSER_WIDTH=4.125},{CONDUIT_A_HORIZONTAL_OFFSET=2.47
100
AcDbAttributeDefinition
  3

  2
PSOL_4
 70
     9
280
     0
  0
ATTDEF
  5
72
330
1F
100
AcDbEntity
  8
AM_6
100
AcDbText
 10
1705.21249999999
 20
1285.900000000124
 30
0.0
 40
0.5
  1
666667},{CONDUIT_B_HORIZONTAL_OFFSET=0.515625},{CONDUIT_BOTTOM_HORIZONTAL_OFFSET=0.083333333333333},{CONDUIT_BOTTOM_VERTICAL_OFFSET=0.0781249999999996},{CONDUIT_VERTICAL_OFFSET=0.328125},{COOLING_ENTERING_DRY_BULB_TEMPERATURE=0},{COOLING_ENTERING_WE
100
AcDbAttributeDefinition
  3

  2
PSOL_5
 70
     9
280
     0
  0
ATTDEF
  5
73
330
1F
100
AcDbEntity
  8
AM_6
100
AcDbText
 10
1705.21249999999
 20
1285.400000000124
 30
0.0
 40
0.5
  1
_TEMPERATURE=0},{COOLING_LEAVING_DRY_BULB_TEMPERATURE=0},{COOLING_LEAVING_WET_BULB_TEMPERATURE=0},{COP_AT_17F=2.05},{COP_AT_47F=3.30},{COST=0},{CURB_HEIGHT=0},{DEFAULT_ELEVATION=0},{DESCRIPTION=Standard Efficiency Air Conditioner Packaged Rooftop Un
100
AcDbAttributeDefinition
  3

  2
PSOL_6
 70
     9
280
     0
  0
ATTDEF
  5
74
330
1F
100
AcDbEntity
  8
AM_6
100
AcDbText
 10
1705.21249999999
 20
1284.900000000124
 30
0.0
 40
0.5
  1
ESIGN_RETURN_AIR_FLOW=0},{DESIGN_SUPPLY_AIR_FLOW=0},{DRAIN_FLOW=0},{ENCLOSURE_TOP_HEIGHT=0.322265625},{EVAPORATOR_FAN_MOTOR_HORSEPOWER=2609.94955053795},{EVAPORATOR_FAN_TYPE=Direct Drive - Standard},{FACE_VELOCITY__FPM_=0},{FAN_ARRAY_A_CENTER_OFFSET
100
AcDbAttributeDefinition
  3

  2
PSOL_7
 70
     9
280
     0
  0
ATTDEF
  5
75
330
1F
100
AcDbEntity
  8
AM_6
100
AcDbText
 10
1705.21249999999
 20
1284.400000000124
 30
0.0
 40
0.5
  1
16666666667},{FAN_ARRAY_A_OFFSET=1.03125},{FEET_PRESSURE_DROP=0},{FILTER_SIZE=20 X 20 X 2 (8)},{FREQUENCY=60},{FRONT_CLEARANCE=4},{HEATING_ENTERING_DRY_BULB_TEMPERATURE=0},{HEATING_ENTERING_WET_BULB_TEMPERATURE=0},{HEATING_LEAVING_DRY_BULB_TEMPERATU
100
AcDbAttributeDefinition
  3

  2
PSOL_8
 70
     9
280
     0
  0
ATTDEF
  5
76
330
1F
100
AcDbEntity
  8
AM_6
100
AcDbText
 10
1705.21249999999
 20
1283.900000000124
 30
0.0
 40
0.5
  1
{HEATING_LEAVING_WET_BULB_TEMPERATURE=0},{HIGH_VOLTAGE_ENTRANCE_HORIZONTAL_OFFSET=1.01041666666667},{HIGH_VOLTAGE_ENTRANCE_RADIUS=1.25},{HIGH_VOLTAGE_ENTRANCE_SIZE=2.5},{LATENT_COOLING_CAPACITY=0},{LEFT_CLEARANCE=0.5},{LOAD_SUB_CLASSIFICATION_MOTOR=
100
AcDbAttributeDefinition
  3

  2
PSOL_9
 70
     9
280
     0
  0
ATTDEF
  5
77
330
1F
100
AcDbEntity
  8
AM_6
100
AcDbText
 10
1705.21249999999
 20
1283.400000000124
 30
0.0
 40
0.5
  1
W_VOLTAGE_ENTRANCE_HORIZONTAL_OFFSET=0.283333333333333},{LOW_VOLTAGE_ENTRANCE_RADIUS=0.25},{LOW_VOLTAGE_ENTRANCE_SIZE=0.5},{MANUFACTURER=Daikin},{MASSUNIT=1},{MAXIMUM_AIR_FLOW=7700},{MAXIMUM_OVERCURRENT_PROTECTION=110},{MINIMUM_AIR_FLOW=6000},{MINIM
100
AcDbAttributeDefinition
  3

  2
PSOL_10
 70
     9
280
     0
  0
ATTDEF
  5
78
330
1F
100
AcDbEntity
  8
AM_6
100
AcDbText
 10
1705.21249999999
 20
1282.900000000124
 30
0.0
 40
0.5
  1
CUIT_AMPS=88.9},{NOMINAL_COOLING_CAPACITY=180000},{NOMINAL_COOLING_CAPACITY__TONS_=15},{NOMINAL_HEATING_CAPACITY=0},{NUMBER_OF_FANS=3},{NUMBER_OF_POLES=3},{OMNICLASS_NUMBER=23.75.10.24.21.27.14},{OMNICLASS_TITLE=Packaged Rooftop Air Conditioning Uni
100
AcDbAttributeDefinition
  3

  2
PSOL_11
 70
     9
280
     0
  0
ATTDEF
  5
79
330
1F
100
AcDbEntity
  8
AM_6
100
AcDbText
 10
1705.21249999999
 20
1282.400000000124
 30
0.0
 40
0.5
  1
UTDOOR_FAN_DIAMETER=1.83333333333333},{OUTDOOR_FAN_RADIUS=0.916666666666667},{OVERALL_DEPTH=88.5},{OVERALL_HEIGHT=51.0},{OVERALL_WIDTH=133.875},{PARTTYPE=Normal},{PHASE=3},{PRIMARY_REFRIGERANT_CHARGE=360},{PRODUCT_PAGE_URL=https://daikincomfort.com/
100
AcDbAttributeDefinition
  3

  2
PSOL_12
 70
     9
280
     0
  0
ATTDEF
  5
7A
330
1F
100
AcDbEntity
  8
AM_6
100
AcDbText
 10
1705.21249999999
 20
1281.900000000124
 30
0.0
 40
0.5
  1
ts/commercial-systems/packaged-systems/heat-pumps},{REFRIGERANT_USED=R-32},{RETURN_AIR_CONNECTION_HEIGHT=22},{RETURN_AIR_CONNECTION_WIDTH=60},{RETURN_AIR_PRESSURE_DROP=0},{RETURN_DUCT_HORIZONTAL_OFFSET=0.583333333333333},{RETURN_DUCT_VERTICAL_OFFSET
100
AcDbAttributeDefinition
  3

  2
PSOL_13
 70
     9
280
     0
  0
ATTDEF
  5
7B
330
1F
100
AcDbEntity
  8
AM_6
100
AcDbText
 10
1705.21249999999
 20
1281.400000000124
 30
0.0
 40
0.5
  1
,{RIGHT_CLEARANCE=4},{SECONDARY_REFRIGERANT_CHARGE=350},{SENSIBLE_COOLING_CAPACITY=0},{SERIES=DSH},{STANDARDS=AHRI Certified; ETL Listed; NEC Compliant},{SUPPLY_AIR_CONNECTION_HEIGHT=22},{SUPPLY_AIR_CONNECTION_WIDTH=60},{SUPPLY_AIR_PRESSURE_DROP=0},
100
AcDbAttributeDefinition
  3

  2
PSOL_14
 70
     9
280
     0
  0
ATTDEF
  5
7C
330
1F
100
AcDbEntity
  8
AM_6
100
AcDbText
 10
1705.21249999999
 20
1280.900000000124
 30
0.0
 40
0.5
  1
Y_DUCT_HORIZONTAL_OFFSET=4},{SYSTEM_PERFORMANCE_EER=10.6},{SYSTEM_PERFORMANCE_IEER=14.5},{TOTAL_COOLING_CAPACITY=0},{TOTAL_FULL_LOAD_AMPS=0},{TOTAL_HEATING_CAPACITY=0},{TOTAL_STATIC_PRESSURE=0},{UNIT_WEIGHT=2273},{URL=https://www.daikin.com/},{VERSI
100
AcDbAttributeDefinition
  3

  2
PSOL_15
 70
     9
280
     0
  0
ATTDEF
  5
7D
330
1F
100
AcDbEntity
  8
AM_6
100
AcDbText
 10
1705.21249999999
 20
1280.400000000124
 30
0.0
 40
0.5
  1
{VOLTAGE=240},{VOLTAGE_COMMENTS=208 VAC to 230 VAC},{VOLTAGE_ENTRANCE_VERTICAL_OFFSET=0.683333333333333},{RFA_FAMILY=Download Revit Family (RFA)},{DEFAULTSORTATTR=8},{RFA_FAMILY_=../../../_pool_/9b/12/rooftop_unit-heat_pump-daikin-dsh_15-20_ton.zip}
100
AcDbAttributeDefinition
  3

  2
PSOL_16
 70
     9
280
     0
  0
ATTDEF
  5
7E
330
1F
100
AcDbEntity
  8
AM_6
100
AcDbText
 10
1705.21249999999
 20
1279.900000000124
 30
0.0
 40
0.5
  1
FAMILY_ENG=../../../_pool_/9b/12/rooftop_unit-heat_pump-daikin-dsh_15-20_ton.zip},{REVIT_FAMILY_DOWNLOAD=../../../_pool_/9b/12/rooftop_unit-heat_pump-daikin-dsh_15-20_ton.zip}
100
AcDbAttributeDefinition
  3

  2
PSOL_17
 70
     9
280
     0
  0
INSERT
  5
80
330
1F
100
AcDbEntity
  8
0
100
AcDbBlockReference
  2
1_DSH1803D000001S_PART15_0_in_DSH1803D000001S_0
 10
0.0
 20
0.0
 30
0.0
  0
INSERT
  5
AC
330
1F
100
AcDbEntity
  8
0
100
AcDbBlockReference
  2
2_DSH1803D000001S_PART14_0_in_DSH1803D000001S_0
 10
0.0
 20
0.0
 30
0.0
  0
INSERT
  5
D8
330
1F
100
AcDbEntity
  8
0
100
AcDbBlockReference
  2
3_DSH1803D000001S_PART13_0_in_DSH1803D000001S_0
 10
0.0
 20
0.0
 30
0.0
  0
INSERT
  5
102
330
1F
100
AcDbEntity
  8
0
100
AcDbBlockReference
  2
4_DSH1803D000001S_PART12_0_in_DSH1803D000001S_0
 10
0.0
 20
0.0
 30
0.0
  0
INSERT
  5
12A
330
1F
100
AcDbEntity
  8
0
100
AcDbBlockReference
  2
5_DSH1803D000001S_PART10_0_in_DSH1803D000001S_0
 10
0.0
 20
0.0
 30
0.0
  0
INSERT
  5
152
330
1F
100
AcDbEntity
  8
0
100
AcDbBlockReference
  2
6_DSH1803D000001S_PART8_0_in_DSH1803D000001S_0
 10
0.0
 20
0.0
 30
0.0
  0
INSERT
  5
17B
330
1F
100
AcDbEntity
  8
0
100
AcDbBlockReference
  2
7_DSH1803D000001S_PART7_0_in_DSH1803D000001S_0
 10
0.0
 20
0.0
 30
0.0
  0
INSERT
  5
1A3
330
1F
100
AcDbEntity
  8
0
100
AcDbBlockReference
  2
8_DSH1803D000001S_PART6_0_in_DSH1803D000001S_0
 10
0.0
 20
0.0
 30
0.0
  0
INSERT
  5
1C9
330
1F
100
AcDbEntity
  8
0
100
AcDbBlockReference
  2
9_DSH1803D000001S_PART4_0_in_DSH1803D000001S_0
 10
0.0
 20
0.0
 30
0.0
  0
INSERT
  5
1EF
330
1F
100
AcDbEntity
  8
0
100
AcDbBlockReference
  2
10_DSH1803D000001S_PART1_0_in_DSH1803D000001S_0
 10
0.0
 20
0.0
 30
0.0
  0
ENDSEC
  0
SECTION
  2
OBJECTS
  0
DICTIONARY
  5
C
330
0
100
AcDbDictionary
281
     1
  3
ACAD_DETAILVIEWSTYLE
350
21C
  3
ACAD_GROUP
350
D
  3
ACAD_LAYOUT
350
1A
  3
ACAD_MATERIAL
350
43
  3
ACAD_MLEADERSTYLE
350
5B
  3
ACAD_MLINESTYLE
350
17
  3
ACAD_PLOTSETTINGS
350
19
  3
ACAD_PLOTSTYLENAME
350
E
  3
ACAD_SCALELIST
350
47
  3
ACAD_SECTIONVIEWSTYLE
350
21D
  3
ACAD_TABLESTYLE
350
59
  3
ACAD_VISUALSTYLE
350
2A
  3
ACDB_RECOMPOSE_DATA
350
219
  3
AcDbVariableDictionary
350
215
  0
SUN
  5
5D
330
29
100
AcDbSun
 90
        1
290
     0
 63
     7
421
 16777215
 40
1.0
291
     1
 91
  2455826
 92
 54000000
292
     0
 70
     2
 71
   256
280
     1
  0
DICTIONARY
  5
21C
102
{ACAD_REACTORS
330
C
102
}
330
C
100
AcDbDictionary
281
     1
  0
DICTIONARY
  5
D
102
{ACAD_REACTORS
330
C
102
}
330
C
100
AcDbDictionary
281
     1
  0
DICTIONARY
  5
1A
102
{ACAD_REACTORS
330
C
102
}
330
C
100
AcDbDictionary
281
     1
  3
Layout1
350
1E
  3
Layout2
350
26
  3
Model
350
22
  0
DICTIONARY
  5
43
102
{ACAD_REACTORS
330
C
102
}
330
C
100
AcDbDictionary
281
     1
  3
ByBlock
350
45
  3
ByLayer
350
44
  3
Global
350
46
  0
DICTIONARY
  5
5B
102
{ACAD_REACTORS
330
C
102
}
330
C
100
AcDbDictionary
281
     1
  3
Standard
350
5C
  0
DICTIONARY
  5
17
102
{ACAD_REACTORS
330
C
102
}
330
C
100
AcDbDictionary
281
     1
  3
Standard
350
18
  0
DICTIONARY
  5
19
102
{ACAD_REACTORS
330
C
102
}
330
C
100
AcDbDictionary
281
     1
  0
ACDBDICTIONARYWDFLT
  5
E
102
{ACAD_REACTORS
330
C
102
}
330
C
100
AcDbDictionary
281
     1
  3
Normal
350
F
100
AcDbDictionaryWithDefault
340
F
  0
DICTIONARY
  5
47
102
{ACAD_REACTORS
330
C
102
}
330
C
100
AcDbDictionary
281
     1
  3
A0
350
48
  3
A1
350
49
  3
A2
350
4A
  3
A3
350
4B
  3
A4
350
4C
  3
A5
350
4D
  3
A6
350
4E
  3
A7
350
4F
  3
A8
350
50
  3
A9
350
51
  3
B0
350
52
  3
B1
350
53
  3
B2
350
54
  3
B3
350
55
  3
B4
350
56
  3
B5
350
57
  3
B6
350
58
  0
DICTIONARY
  5
21D
102
{ACAD_REACTORS
330
C
102
}
330
C
100
AcDbDictionary
281
     1
  0
DICTIONARY
  5
59
102
{ACAD_REACTORS
330
C
102
}
330
C
100
AcDbDictionary
281
     1
  3
Standard
350
5A
  0
DICTIONARY
  5
2A
102
{ACAD_REACTORS
330
C
102
}
330
C
100
AcDbDictionary
281
     1
  3
2dWireframe
350
2F
  3
Basic
350
32
  3
Brighten
350
36
  3
ColorChange
350
3A
  3
Conceptual
350
34
  3
Dim
350
35
  3
EdgeColorOff
350
3D
  3
Facepattern
350
39
  3
Flat
350
2B
  3
FlatWithEdges
350
2C
  3
Gouraud
350
2D
  3
GouraudWithEdges
350
2E
  3
Hidden
350
31
  3
JitterOff
350
3B
  3
Linepattern
350
38
  3
OverhangOff
350
3C
  3
Realistic
350
33
  3
Shaded
350
42
  3
Shaded with edges
350
41
  3
Shades of Gray
350
3E
  3
Sketchy
350
3F
  3
Thicken
350
37
  3
Wireframe
350
30
  3
X-Ray
350
40
  0
XRECORD
  5
219
102
{ACAD_REACTORS
330
C
102
}
330
C
100
AcDbXrecord
280
     1
 90
        1
330
5A
  0
DICTIONARY
  5
215
102
{ACAD_REACTORS
330
C
102
}
330
C
100
AcDbDictionary
281
     1
  3
CANNOSCALE
350
216
  3
CENTEREXE
350
21E
  3
CENTERLTYPEFILE
350
21F
  3
CMLEADERSTYLE
350
21B
  3
CTABLESTYLE
350
21A
  0
LAYOUT
  5
1E
102
{ACAD_REACTORS
330
1A
102
}
330
1A
100
AcDbPlotSettings
  1

  2
none_device
  4

  6

 40
0.0
 41
0.0
 42
0.0
 43
0.0
 44
0.0
 45
0.0
 46
0.0
 47
0.0
 48
0.0
 49
0.0
140
0.0
141
0.0
142
1.0
143
1.0
 70
   688
 72
     1
 73
     0
 74
     5
  7

 75
    16
 76
     0
 77
     2
 78
   300
147
1.0
148
0.0
149
0.0
100
AcDbLayout
  1
Layout1
 70
     1
 71
     1
 10
0.0
 20
0.0
 11
420.0
 21
297.0
 12
0.0
 22
0.0
 32
0.0
 14
1.000000000000000E+20
 24
1.000000000000000E+20
 34
1.000000000000000E+20
 15
-1.000000000000000E+20
 25
-1.000000000000000E+20
 35
-1.000000000000000E+20
146
0.0
 13
0.0
 23
0.0
 33
0.0
 16
1.0
 26
0.0
 36
0.0
 17
0.0
 27
1.0
 37
0.0
 76
     0
330
1B
  0
LAYOUT
  5
26
102
{ACAD_REACTORS
330
1A
102
}
330
1A
100
AcDbPlotSettings
  1

  2
none_device
  4

  6

 40
0.0
 41
0.0
 42
0.0
 43
0.0
 44
0.0
 45
0.0
 46
0.0
 47
0.0
 48
0.0
 49
0.0
140
0.0
141
0.0
142
1.0
143
1.0
 70
   688
 72
     1
 73
     0
 74
     5
  7

 75
    16
 76
     0
 77
     2
 78
   300
147
1.0
148
0.0
149
0.0
100
AcDbLayout
  1
Layout2
 70
     1
 71
     2
 10
0.0
 20
0.0
 11
0.0
 21
0.0
 12
0.0
 22
0.0
 32
0.0
 14
0.0
 24
0.0
 34
0.0
 15
0.0
 25
0.0
 35
0.0
146
0.0
 13
0.0
 23
0.0
 33
0.0
 16
1.0
 26
0.0
 36
0.0
 17
0.0
 27
1.0
 37
0.0
 76
     0
330
23
  0
LAYOUT
  5
22
102
{ACAD_REACTORS
330
1A
102
}
330
1A
100
AcDbPlotSettings
  1

  2
none_device
  4
Letter_(8.50_x_11.00_Inches)
  6

 40
6.35
 41
6.35
 42
6.35000508
 43
6.35000508
 44
215.9
 45
279.4
 46
0.0
 47
0.0
 48
0.0
 49
0.0
140
0.0
141
0.0
142
1.0
143
1.0
 70
  1712
 72
     1
 73
     0
 74
     0
  7

 75
     0
 76
     0
 77
     2
 78
   300
147
1.0
148
0.0
149
0.0
100
AcDbLayout
  1
Model
 70
     1
 71
     0
 10
0.0
 20
0.0
 11
420.0
 21
297.0
 12
0.0
 22
0.0
 32
0.0
 14
-1701.00625000001
 24
0.0000000000799492
 34
0.0
 15
1712.129449152532
 25
1295.905423728937
 35
0.0
146
0.0
 13
0.0
 23
0.0
 33
0.0
 16
1.0
 26
0.0
 36
0.0
 17
0.0
 27
1.0
 37
0.0
 76
     0
330
1F
331
29
  0
MATERIAL
  5
45
102
{ACAD_REACTORS
330
43
102
}
330
43
100
AcDbMaterial
  1
ByBlock
 72
     1
 94
      127
  0
MATERIAL
  5
44
102
{ACAD_REACTORS
330
43
102
}
330
43
100
AcDbMaterial
  1
ByLayer
 72
     1
 94
      127
  0
MATERIAL
  5
46
102
{ACAD_REACTORS
330
43
102
}
330
43
100
AcDbMaterial
  1
Global
 72
     1
 94
      127
  0
MLEADERSTYLE
  5
5C
102
{ACAD_REACTORS
330
5B
102
}
330
5B
100
AcDbMLeaderStyle
179
     2
170
     2
171
     1
172
     0
 90
        2
 40
0.0
 41
0.0
173
     1
 91
-1056964608
340
14
 92
       -2
290
     1
 42
2.0
291
     1
 43
8.0
  3
Standard
341
0
 44
4.0
300

342
11
174
     1
178
     6
175
     1
176
     0
 93
-1056964608
 45
4.0
292
     0
297
     0
 46
4.0
343
0
 94
-1056964608
 47
1.0
 49
1.0
140
1.0
293
     1
141
0.0
294
     1
177
     0
142
1.0
295
     0
296
     0
143
3.75
271
     0
272
     9
273
     9
298
     0
  0
MLINESTYLE
  5
18
102
{ACAD_REACTORS
330
17
102
}
330
17
100
AcDbMlineStyle
  2
Standard
 70
     0
  3

 62
   256
 51
90.0
 52
90.0
 71
     2
 49
0.5
 62
   256
  6
BYLAYER
 49
-0.5
 62
   256
  6
BYLAYER
  0
ACDBPLACEHOLDER
  5
F
102
{ACAD_REACTORS
330
E
102
}
330
E
  0
SCALE
  5
48
102
{ACAD_REACTORS
330
47
102
}
330
47
100
AcDbScale
 70
     0
300
1:1
140
1.0
141
1.0
290
     1
  0
SCALE
  5
49
102
{ACAD_REACTORS
330
47
102
}
330
47
100
AcDbScale
 70
     0
300
1:2
140
1.0
141
2.0
290
     0
  0
SCALE
  5
4A
102
{ACAD_REACTORS
330
47
102
}
330
47
100
AcDbScale
 70
     0
300
1:4
140
1.0
141
4.0
290
     0
  0
SCALE
  5
4B
102
{ACAD_REACTORS
330
47
102
}
330
47
100
AcDbScale
 70
     0
300
1:5
140
1.0
141
5.0
290
     0
  0
SCALE
  5
4C
102
{ACAD_REACTORS
330
47
102
}
330
47
100
AcDbScale
 70
     0
300
1:8
140
1.0
141
8.0
290
     0
  0
SCALE
  5
4D
102
{ACAD_REACTORS
330
47
102
}
330
47
100
AcDbScale
 70
     0
300
1:10
140
1.0
141
10.0
290
     0
  0
SCALE
  5
4E
102
{ACAD_REACTORS
330
47
102
}
330
47
100
AcDbScale
 70
     0
300
1:16
140
1.0
141
16.0
290
     0
  0
SCALE
  5
4F
102
{ACAD_REACTORS
330
47
102
}
330
47
100
AcDbScale
 70
     0
300
1:20
140
1.0
141
20.0
290
     0
  0
SCALE
  5
50
102
{ACAD_REACTORS
330
47
102
}
330
47
100
AcDbScale
 70
     0
300
1:30
140
1.0
141
30.0
290
     0
  0
SCALE
  5
51
102
{ACAD_REACTORS
330
47
102
}
330
47
100
AcDbScale
 70
     0
300
1:40
140
1.0
141
40.0
290
     0
  0
SCALE
  5
52
102
{ACAD_REACTORS
330
47
102
}
330
47
100
AcDbScale
 70
     0
300
1:50
140
1.0
141
50.0
290
     0
  0
SCALE
  5
53
102
{ACAD_REACTORS
330
47
102
}
330
47
100
AcDbScale
 70
     0
300
1:100
140
1.0
141
100.0
290
     0
  0
SCALE
  5
54
102
{ACAD_REACTORS
330
47
102
}
330
47
100
AcDbScale
 70
     0
300
2:1
140
2.0
141
1.0
290
     0
  0
SCALE
  5
55
102
{ACAD_REACTORS
330
47
102
}
330
47
100
AcDbScale
 70
     0
300
4:1
140
4.0
141
1.0
290
     0
  0
SCALE
  5
56
102
{ACAD_REACTORS
330
47
102
}
330
47
100
AcDbScale
 70
     0
300
8:1
140
8.0
141
1.0
290
     0
  0
SCALE
  5
57
102
{ACAD_REACTORS
330
47
102
}
330
47
100
AcDbScale
 70
     0
300
10:1
140
10.0
141
1.0
290
     0
  0
SCALE
  5
58
102
{ACAD_REACTORS
330
47
102
}
330
47
100
AcDbScale
 70
     0
300
100:1
140
100.0
141
1.0
290
     0
  0
TABLESTYLE
  5
5A
102
{ACAD_REACTORS
330
59
102
}
102
{ACAD_XDICTIONARY
360
217
102
}
330
59
100
AcDbTableStyle
  3
Standard
 70
     0
 71
     0
 40
0.06
 41
0.06
280
     0
281
     0
  7
Standard
140
4.5
170
     2
 62
     0
 63
   257
283
     0
 90
        4
 91
        0
  1

274
    -2
284
     1
 64
     0
275
    -2
285
     1
 65
     0
276
    -2
286
     1
 66
     0
277
    -2
287
     1
 67
     0
278
    -2
288
     1
 68
     0
279
    -2
289
     1
 69
     0
  7
Standard
140
6.0
170
     5
 62
     0
 63
   257
283
     0
 90
        4
 91
        0
  1

274
    -2
284
     1
 64
     0
275
    -2
285
     1
 65
     0
276
    -2
286
     1
 66
     0
277
    -2
287
     1
 67
     0
278
    -2
288
     1
 68
     0
279
    -2
289
     1
 69
     0
  7
Standard
140
4.5
170
     5
 62
     0
 63
   257
283
     0
 90
        4
 91
        0
  1

274
    -2
284
     1
 64
     0
275
    -2
285
     1
 65
     0
276
    -2
286
     1
 66
     0
277
    -2
287
     1
 67
     0
278
    -2
288
     1
 68
     0
279
    -2
289
     1
 69
     0
  0
VISUALSTYLE
  5
2F
102
{ACAD_REACTORS
330
2A
102
}
330
2A
100
AcDbVisualStyle
  2
2dWireframe
 70
     4
177
     3
291
     0
 70
    58
 90
        0
176
     1
 90
        2
176
     1
 90
        0
176
     1
 90
        0
176
     1
 40
0.6
176
     1
 40
30.0
176
     1
 62
     7
420
 16777215
176
     1
 90
        1
176
     1
 90
        4
176
     1
 62
     7
176
     1
 62
   257
176
     1
 90
        1
176
     1
 90
        1
176
     1
 40
1.0
176
     1
 90
        0
176
     1
 62
   257
176
     1
 40
1.0
176
     1
 90
        1
176
     1
 90
        6
176
     1
 90
        2
176
     1
 62
     7
176
     1
 90
        5
176
     1
 90
        0
176
     1
 90
        0
176
     1
290
     0
176
     1
 90
        1
176
     1
 40
0.0
176
     1
 90
        0
176
     1
290
     1
176
     1
290
     1
176
     1
290
     0
176
     1
290
     0
176
     1
290
     0
176
     1
290
     0
176
     1
290
     0
176
     1
290
     0
176
     1
290
     0
176
     1
 90
       50
176
     1
 40
0.0
176
     1
 40
1.0
176
     1
 90
        0
176
     1
 62
    18
420
        0
176
     1
 90
       50
176
     1
 90
        3
176
     1
 62
     5
420
      255
176
     1
290
     0
176
     1
 90
       50
176
     1
 90
       50
176
     1
 90
       50
176
     1
290
     0
176
     1
 90
       50
176
     1
 62
   256
176
     0
 40
1.0
176
     0
 90
        2
176
     1
  1
strokes_ogs.tif
176
     1
290
     0
176
     1
 40
1.0
176
     1
 40
1.0
176
     1
  0
VISUALSTYLE
  5
32
102
{ACAD_REACTORS
330
2A
102
}
330
2A
100
AcDbVisualStyle
  2
Basic
 70
     7
177
     3
291
     1
 70
    58
 90
        1
176
     1
 90
        0
176
     1
 90
        1
176
     1
 90
        0
176
     1
 40
0.6
176
     1
 40
30.0
176
     1
 62
     7
420
 16777215
176
     1
 90
        0
176
     1
 90
        4
176
     1
 62
     7
176
     1
 62
   257
176
     1
 90
        1
176
     1
 90
        1
176
     1
 40
1.0
176
     1
 90
        8
176
     1
 62
     7
176
     1
 40
1.0
176
     1
 90
        1
176
     1
 90
        6
176
     1
 90
        2
176
     1
 62
     7
176
     1
 90
        5
176
     1
 90
        0
176
     1
 90
        0
176
     1
290
     0
176
     1
 90
        1
176
     1
 40
0.0
176
     1
 90
        0
176
     1
290
     0
176
     1
290
     1
176
     1
290
     1
176
     1
290
     0
176
     1
290
     0
176
     1
290
     0
176
     1
290
     0
176
     1
290
     0
176
     1
290
     0
176
     1
 90
       50
176
     1
 40
0.0
176
     1
 40
1.0
176
     1
 90
        0
176
     1
 62
    18
420
        0
176
     1
 90
       50
176
     1
 90
        3
176
     1
 62
     5
420
      255
176
     1
290
     0
176
     1
 90
       50
176
     1
 90
       50
176
     1
 90
       50
176
     1
290
     0
176
     1
 90
       50
176
     1
 62
   256
176
     0
 40
1.0
176
     0
 90
        2
176
     1
  1
strokes_ogs.tif
176
     1
290
     0
176
     1
 40
1.0
176
     1
 40
1.0
176
     1
  0
VISUALSTYLE
  5
36
102
{ACAD_REACTORS
330
2A
102
}
330
2A
100
AcDbVisualStyle
  2
Brighten
 70
    12
177
     3
291
     1
 70
    58
 90
        2
176
     1
 90
        2
176
     1
 90
        0
176
     1
 90
        0
176
     1
 40
0.6
176
     1
 40
30.0
176
     1
 62
     7
420
 16777215
176
     1
 90
        1
176
     1
 90
        4
176
     1
 62
     7
176
     1
 62
   257
176
     1
 90
        1
176
     1
 90
        1
176
     1
 40
1.0
176
     1
 90
        8
176
     1
 62
     7
176
     1
 40
1.0
176
     1
 90
        1
176
     1
 90
        6
176
     1
 90
        2
176
     1
 62
     7
176
     1
 90
        5
176
     1
 90
        0
176
     1
 90
        0
176
     1
290
     0
176
     1
 90
        1
176
     1
 40
50.0
176
     1
 90
        0
176
     1
290
     0
176
     1
290
     1
176
     1
290
     1
176
     1
290
     0
176
     1
290
     0
176
     1
290
     0
176
     1
290
     0
176
     1
290
     0
176
     1
290
     0
176
     1
 90
       50
176
     1
 40
0.0
176
     1
 40
1.0
176
     1
 90
        0
176
     1
 62
    18
420
        0
176
     1
 90
       50
176
     1
 90
        3
176
     1
 62
     5
420
      255
176
     1
290
     0
176
     1
 90
       50
176
     1
 90
       50
176
     1
 90
       50
176
     1
290
     0
176
     1
 90
       50
176
     1
 62
   256
176
     0
 40
1.0
176
     0
 90
        2
176
     1
  1
strokes_ogs.tif
176
     1
290
     0
176
     1
 40
1.0
176
     1
 40
1.0
176
     1
  0
VISUALSTYLE
  5
3A
102
{ACAD_REACTORS
330
2A
102
}
330
2A
100
AcDbVisualStyle
  2
ColorChange
 70
    16
177
     3
291
     1
 70
    58
 90
        2
176
     1
 90
        2
176
     1
 90
        3
176
     1
 90
        0
176
     1
 40
0.6
176
     1
 40
30.0
176
     1
 62
     8
420
  8421504
176
     1
 90
        1
176
     1
 90
        4
176
     1
 62
     7
176
     1
 62
   257
176
     1
 90
        1
176
     1
 90
        1
176
     1
 40
1.0
176
     1
 90
        8
176
     1
 62
     8
420
  8421504
176
     1
 40
1.0
176
     1
 90
        1
176
     1
 90
        6
176
     1
 90
        2
176
     1
 62
     7
176
     1
 90
        5
176
     1
 90
        0
176
     1
 90
        0
176
     1
290
     0
176
     1
 90
        1
176
     1
 40
0.0
176
     1
 90
        0
176
     1
290
     0
176
     1
290
     1
176
     1
290
     1
176
     1
290
     0
176
     1
290
     0
176
     1
290
     0
176
     1
290
     0
176
     1
290
     0
176
     1
290
     0
176
     1
 90
       50
176
     1
 40
0.0
176
     1
 40
1.0
176
     1
 90
        0
176
     1
 62
    18
420
        0
176
     1
 90
       50
176
     1
 90
        3
176
     1
 62
     5
420
      255
176
     1
290
     0
176
     1
 90
       50
176
     1
 90
       50
176
     1
 90
       50
176
     1
290
     0
176
     1
 90
       50
176
     1
 62
   256
176
     0
 40
1.0
176
     0
 90
        2
176
     1
  1
strokes_ogs.tif
176
     1
290
     0
176
     1
 40
1.0
176
     1
 40
1.0
176
     1
  0
VISUALSTYLE
  5
34
102
{ACAD_REACTORS
330
2A
102
}
330
2A
100
AcDbVisualStyle
  2
Conceptual
 70
     9
177
     3
291
     0
 70
    58
 90
        3
176
     1
 90
        2
176
     1
 90
        0
176
     1
 90
        0
176
     1
 40
0.6
176
     1
 40
30.0
176
     1
 62
     7
420
 16777215
176
     1
 90
        2
176
     1
 90
        2
176
     1
 62
     7
176
     1
 62
   257
176
     1
 90
        1
176
     1
 90
        1
176
     1
 40
179.0
176
     1
 90
        8
176
     1
 62
     7
176
     1
 40
1.0
176
     1
 90
        1
176
     1
 90
        6
176
     1
 90
        2
176
     1
 62
     7
176
     1
 90
        3
176
     1
 90
        0
176
     1
 90
        0
176
     1
290
     0
176
     1
 90
        1
176
     1
 40
0.0
176
     1
 90
        0
176
     1
290
     0
176
     1
290
     1
176
     1
290
     1
176
     1
290
     0
176
     1
290
     0
176
     1
290
     0
176
     1
290
     0
176
     1
290
     0
176
     1
290
     0
176
     1
 90
       50
176
     1
 40
0.0
176
     1
 40
1.0
176
     1
 90
        0
176
     1
 62
    18
420
        0
176
     1
 90
       50
176
     1
 90
        3
176
     1
 62
     5
420
      255
176
     1
290
     0
176
     1
 90
       50
176
     1
 90
       50
176
     1
 90
       50
176
     1
290
     0
176
     1
 90
       50
176
     1
 62
   256
176
     0
 40
1.0
176
     0
 90
        2
176
     1
  1
strokes_ogs.tif
176
     1
290
     0
176
     1
 40
1.0
176
     1
 40
1.0
176
     1
  0
VISUALSTYLE
  5
35
102
{ACAD_REACTORS
330
2A
102
}
330
2A
100
AcDbVisualStyle
  2
Dim
 70
    11
177
     3
291
     1
 70
    58
 90
        2
176
     1
 90
        2
176
     1
 90
        0
176
     1
 90
        0
176
     1
 40
0.6
176
     1
 40
30.0
176
     1
 62
     7
420
 16777215
176
     1
 90
        1
176
     1
 90
        4
176
     1
 62
     7
176
     1
 62
   257
176
     1
 90
        1
176
     1
 90
        1
176
     1
 40
1.0
176
     1
 90
        8
176
     1
 62
     7
176
     1
 40
1.0
176
     1
 90
        1
176
     1
 90
        6
176
     1
 90
        2
176
     1
 62
     7
176
     1
 90
        5
176
     1
 90
        0
176
     1
 90
        0
176
     1
290
     0
176
     1
 90
        1
176
     1
 40
-50.0
176
     1
 90
        0
176
     1
290
     0
176
     1
290
     1
176
     1
290
     1
176
     1
290
     0
176
     1
290
     0
176
     1
290
     0
176
     1
290
     0
176
     1
290
     0
176
     1
290
     0
176
     1
 90
       50
176
     1
 40
0.0
176
     1
 40
1.0
176
     1
 90
        0
176
     1
 62
    18
420
        0
176
     1
 90
       50
176
     1
 90
        3
176
     1
 62
     5
420
      255
176
     1
290
     0
176
     1
 90
       50
176
     1
 90
       50
176
     1
 90
       50
176
     1
290
     0
176
     1
 90
       50
176
     1
 62
   256
176
     0
 40
1.0
176
     0
 90
        2
176
     1
  1
strokes_ogs.tif
176
     1
290
     0
176
     1
 40
1.0
176
     1
 40
1.0
176
     1
  0
VISUALSTYLE
  5
3D
102
{ACAD_REACTORS
330
2A
102
}
330
2A
100
AcDbVisualStyle
  2
EdgeColorOff
 70
    22
177
     3
291
     1
 70
    58
 90
        2
176
     0
 90
        2
176
     0
 90
        0
176
     0
 90
        0
176
     0
 40
0.6
176
     0
 40
30.0
176
     0
 62
     7
420
 16777215
176
     0
 90
        1
176
     0
 90
        4
176
     0
 62
     7
176
     0
 62
   257
176
     0
 90
        1
176
     0
 90
        1
176
     0
 40
1.0
176
     0
 90
        8
176
     2
 62
     7
176
     0
 40
1.0
176
     0
 90
        1
176
     0
 90
        6
176
     0
 90
        2
176
     0
 62
     7
176
     0
 90
        5
176
     0
 90
        0
176
     0
 90
        0
176
     0
290
     0
176
     0
 90
        1
176
     0
 40
0.0
176
     0
 90
        0
176
     0
290
     0
176
     0
290
     1
176
     0
290
     1
176
     0
290
     0
176
     0
290
     0
176
     0
290
     0
176
     0
290
     0
176
     0
290
     0
176
     0
290
     0
176
     0
 90
       50
176
     0
 40
0.0
176
     0
 40
1.0
176
     0
 90
        0
176
     0
 62
    18
420
        0
176
     0
 90
       50
176
     0
 90
        3
176
     0
 62
     5
420
      255
176
     0
290
     0
176
     0
 90
       50
176
     0
 90
       50
176
     0
 90
       50
176
     0
290
     0
176
     0
 90
       50
176
     0
 62
   256
176
     0
 40
1.0
176
     0
 90
        2
176
     0
  1
strokes_ogs.tif
176
     0
290
     0
176
     0
 40
1.0
176
     0
 40
1.0
176
     0
  0
VISUALSTYLE
  5
39
102
{ACAD_REACTORS
330
2A
102
}
330
2A
100
AcDbVisualStyle
  2
Facepattern
 70
    15
177
     3
291
     1
 70
    58
 90
        2
176
     1
 90
        2
176
     1
 90
        0
176
     1
 90
        0
176
     1
 40
0.6
176
     1
 40
30.0
176
     1
 62
     7
420
 16777215
176
     1
 90
        1
176
     1
 90
        4
176
     1
 62
     7
176
     1
 62
   257
176
     1
 90
        1
176
     1
 90
        1
176
     1
 40
1.0
176
     1
 90
        8
176
     1
 62
     7
176
     1
 40
1.0
176
     1
 90
        1
176
     1
 90
        6
176
     1
 90
        2
176
     1
 62
     7
176
     1
 90
        5
176
     1
 90
        0
176
     1
 90
        0
176
     1
290
     0
176
     1
 90
        1
176
     1
 40
0.0
176
     1
 90
        0
176
     1
290
     0
176
     1
290
     1
176
     1
290
     1
176
     1
290
     0
176
     1
290
     0
176
     1
290
     0
176
     1
290
     0
176
     1
290
     0
176
     1
290
     0
176
     1
 90
       50
176
     1
 40
0.0
176
     1
 40
1.0
176
     1
 90
        0
176
     1
 62
    18
420
        0
176
     1
 90
       50
176
     1
 90
        3
176
     1
 62
     5
420
      255
176
     1
290
     0
176
     1
 90
       50
176
     1
 90
       50
176
     1
 90
       50
176
     1
290
     0
176
     1
 90
       50
176
     1
 62
   256
176
     0
 40
1.0
176
     0
 90
        2
176
     1
  1
strokes_ogs.tif
176
     1
290
     0
176
     1
 40
1.0
176
     1
 40
1.0
176
     1
  0
VISUALSTYLE
  5
2B
102
{ACAD_REACTORS
330
2A
102
}
330
2A
100
AcDbVisualStyle
  2
Flat
 70
     0
177
     3
291
     1
 70
    58
 90
        2
176
     1
 90
        1
176
     1
 90
        1
176
     1
 90
        2
176
     1
 40
0.6
176
     1
 40
30.0
176
     1
 62
     7
420
 16777215
176
     1
 90
        0
176
     1
 90
        0
176
     1
 62
     7
176
     1
 62
   257
176
     1
 90
        1
176
     1
 90
        1
176
     1
 40
1.0
176
     1
 90
        8
176
     1
 62
     7
176
     1
 40
1.0
176
     1
 90
        1
176
     1
 90
        6
176
     1
 90
        2
176
     1
 62
     7
176
     1
 90
        5
176
     1
 90
        0
176
     1
 90
        0
176
     1
290
     0
176
     1
 90
       13
176
     1
 40
0.0
176
     1
 90
        0
176
     1
290
     0
176
     1
290
     1
176
     1
290
     1
176
     1
290
     0
176
     1
290
     0
176
     1
290
     0
176
     1
290
     0
176
     1
290
     0
176
     1
290
     0
176
     1
 90
       50
176
     1
 40
0.0
176
     1
 40
1.0
176
     1
 90
        0
176
     1
 62
    18
420
        0
176
     1
 90
       50
176
     1
 90
        3
176
     1
 62
     5
420
      255
176
     1
290
     0
176
     1
 90
       50
176
     1
 90
       50
176
     1
 90
       50
176
     1
290
     0
176
     1
 90
       50
176
     1
 62
   256
176
     0
 40
1.0
176
     0
 90
        2
176
     1
  1
strokes_ogs.tif
176
     1
290
     0
176
     1
 40
1.0
176
     1
 40
1.0
176
     1
  0
VISUALSTYLE
  5
2C
102
{ACAD_REACTORS
330
2A
102
}
330
2A
100
AcDbVisualStyle
  2
FlatWithEdges
 70
     1
177
     3
291
     1
 70
    58
 90
        2
176
     1
 90
        1
176
     1
 90
        1
176
     1
 90
        2
176
     1
 40
0.6
176
     1
 40
30.0
176
     1
 62
     7
420
 16777215
176
     1
 90
        1
176
     1
 90
        0
176
     1
 62
     7
176
     1
 62
   257
176
     1
 90
        1
176
     1
 90
        1
176
     1
 40
1.0
176
     1
 90
        0
176
     1
 62
   257
176
     1
 40
1.0
176
     1
 90
        1
176
     1
 90
        6
176
     1
 90
        2
176
     1
 62
     7
176
     1
 90
        5
176
     1
 90
        0
176
     1
 90
        0
176
     1
290
     0
176
     1
 90
       13
176
     1
 40
0.0
176
     1
 90
        0
176
     1
290
     0
176
     1
290
     1
176
     1
290
     1
176
     1
290
     0
176
     1
290
     0
176
     1
290
     0
176
     1
290
     0
176
     1
290
     0
176
     1
290
     0
176
     1
 90
       50
176
     1
 40
0.0
176
     1
 40
1.0
176
     1
 90
        0
176
     1
 62
    18
420
        0
176
     1
 90
       50
176
     1
 90
        3
176
     1
 62
     5
420
      255
176
     1
290
     0
176
     1
 90
       50
176
     1
 90
       50
176
     1
 90
       50
176
     1
290
     0
176
     1
 90
       50
176
     1
 62
   256
176
     0
 40
1.0
176
     0
 90
        2
176
     1
  1
strokes_ogs.tif
176
     1
290
     0
176
     1
 40
1.0
176
     1
 40
1.0
176
     1
  0
VISUALSTYLE
  5
2D
102
{ACAD_REACTORS
330
2A
102
}
330
2A
100
AcDbVisualStyle
  2
Gouraud
 70
     2
177
     3
291
     1
 70
    58
 90
        2
176
     1
 90
        2
176
     1
 90
        1
176
     1
 90
        2
176
     1
 40
0.6
176
     1
 40
30.0
176
     1
 62
     7
420
 16777215
176
     1
 90
        0
176
     1
 90
        0
176
     1
 62
     7
176
     1
 62
   257
176
     1
 90
        1
176
     1
 90
        1
176
     1
 40
1.0
176
     1
 90
        0
176
     1
 62
     7
176
     1
 40
1.0
176
     1
 90
        1
176
     1
 90
        6
176
     1
 90
        2
176
     1
 62
     7
176
     1
 90
        5
176
     1
 90
        0
176
     1
 90
        0
176
     1
290
     0
176
     1
 90
       13
176
     1
 40
0.0
176
     1
 90
        0
176
     1
290
     0
176
     1
290
     1
176
     1
290
     1
176
     1
290
     0
176
     1
290
     0
176
     1
290
     0
176
     1
290
     0
176
     1
290
     0
176
     1
290
     0
176
     1
 90
       50
176
     1
 40
0.0
176
     1
 40
1.0
176
     1
 90
        0
176
     1
 62
    18
420
        0
176
     1
 90
       50
176
     1
 90
        3
176
     1
 62
     5
420
      255
176
     1
290
     0
176
     1
 90
       50
176
     1
 90
       50
176
     1
 90
       50
176
     1
290
     0
176
     1
 90
       50
176
     1
 62
   256
176
     0
 40
1.0
176
     0
 90
        2
176
     1
  1
strokes_ogs.tif
176
     1
290
     0
176
     1
 40
1.0
176
     1
 40
1.0
176
     1
  0
VISUALSTYLE
  5
2E
102
{ACAD_REACTORS
330
2A
102
}
330
2A
100
AcDbVisualStyle
  2
GouraudWithEdges
 70
     3
177
     3
291
     1
 70
    58
 90
        2
176
     1
 90
        2
176
     1
 90
        1
176
     1
 90
        2
176
     1
 40
0.6
176
     1
 40
30.0
176
     1
 62
     7
420
 16777215
176
     1
 90
        1
176
     1
 90
        0
176
     1
 62
     7
176
     1
 62
   257
176
     1
 90
        1
176
     1
 90
        1
176
     1
 40
1.0
176
     1
 90
        0
176
     1
 62
   257
176
     1
 40
1.0
176
     1
 90
        1
176
     1
 90
        6
176
     1
 90
        2
176
     1
 62
     7
176
     1
 90
        5
176
     1
 90
        0
176
     1
 90
        0
176
     1
290
     0
176
     1
 90
       13
176
     1
 40
0.0
176
     1
 90
        0
176
     1
290
     0
176
     1
290
     1
176
     1
290
     1
176
     1
290
     0
176
     1
290
     0
176
     1
290
     0
176
     1
290
     0
176
     1
290
     0
176
     1
290
     0
176
     1
 90
       50
176
     1
 40
0.0
176
     1
 40
1.0
176
     1
 90
        0
176
     1
 62
    18
420
        0
176
     1
 90
       50
176
     1
 90
        3
176
     1
 62
     5
420
      255
176
     1
290
     0
176
     1
 90
       50
176
     1
 90
       50
176
     1
 90
       50
176
     1
290
     0
176
     1
 90
       50
176
     1
 62
   256
176
     0
 40
1.0
176
     0
 90
        2
176
     1
  1
strokes_ogs.tif
176
     1
290
     0
176
     1
 40
1.0
176
     1
 40
1.0
176
     1
  0
VISUALSTYLE
  5
31
102
{ACAD_REACTORS
330
2A
102
}
330
2A
100
AcDbVisualStyle
  2
Hidden
 70
     6
177
     3
291
     0
 70
    58
 90
        1
176
     1
 90
        2
176
     1
 90
        2
176
     1
 90
        0
176
     1
 40
0.6
176
     1
 40
30.0
176
     1
 62
     7
420
 16777215
176
     1
 90
        2
176
     1
 90
        2
176
     1
 62
     7
176
     1
 62
   257
176
     1
 90
        2
176
     1
 90
        1
176
     1
 40
40.0
176
     1
 90
        0
176
     1
 62
   257
176
     1
 40
1.0
176
     1
 90
        1
176
     1
 90
        6
176
     1
 90
        2
176
     1
 62
     7
176
     1
 90
        3
176
     1
 90
        0
176
     1
 90
        0
176
     1
290
     0
176
     1
 90
        1
176
     1
 40
0.0
176
     1
 90
        0
176
     1
290
     0
176
     1
290
     1
176
     1
290
     1
176
     1
290
     0
176
     1
290
     0
176
     1
290
     0
176
     1
290
     0
176
     1
290
     0
176
     1
290
     0
176
     1
 90
       50
176
     1
 40
0.0
176
     1
 40
1.0
176
     1
 90
        0
176
     1
 62
    18
420
        0
176
     1
 90
       50
176
     1
 90
        3
176
     1
 62
     5
420
      255
176
     1
290
     0
176
     1
 90
       50
176
     1
 90
       50
176
     1
 90
       50
176
     1
290
     0
176
     1
 90
       50
176
     1
 62
   256
176
     0
 40
1.0
176
     0
 90
        2
176
     1
  1
strokes_ogs.tif
176
     1
290
     0
176
     1
 40
1.0
176
     1
 40
1.0
176
     1
  0
VISUALSTYLE
  5
3B
102
{ACAD_REACTORS
330
2A
102
}
330
2A
100
AcDbVisualStyle
  2
JitterOff
 70
    20
177
     3
291
     1
 70
    58
 90
        2
176
     0
 90
        2
176
     0
 90
        0
176
     0
 90
        0
176
     0
 40
0.6
176
     0
 40
30.0
176
     0
 62
     7
420
 16777215
176
     0
 90
        1
176
     0
 90
        4
176
     0
 62
     7
176
     0
 62
   257
176
     0
 90
        1
176
     0
 90
        1
176
     0
 40
1.0
176
     0
 90
       10
176
     2
 62
     7
176
     0
 40
1.0
176
     0
 90
        1
176
     0
 90
        6
176
     0
 90
        2
176
     0
 62
     7
176
     0
 90
        5
176
     0
 90
        0
176
     0
 90
        0
176
     0
290
     0
176
     0
 90
        1
176
     0
 40
0.0
176
     0
 90
        0
176
     0
290
     0
176
     0
290
     1
176
     0
290
     1
176
     0
290
     0
176
     0
290
     0
176
     0
290
     0
176
     0
290
     0
176
     0
290
     0
176
     0
290
     0
176
     0
 90
       50
176
     0
 40
0.0
176
     0
 40
1.0
176
     0
 90
        0
176
     0
 62
    18
420
        0
176
     0
 90
       50
176
     0
 90
        3
176
     0
 62
     5
420
      255
176
     0
290
     0
176
     0
 90
       50
176
     0
 90
       50
176
     0
 90
       50
176
     0
290
     0
176
     0
 90
       50
176
     0
 62
   256
176
     0
 40
1.0
176
     0
 90
        2
176
     0
  1
strokes_ogs.tif
176
     0
290
     0
176
     0
 40
1.0
176
     0
 40
1.0
176
     0
  0
VISUALSTYLE
  5
38
102
{ACAD_REACTORS
330
2A
102
}
330
2A
100
AcDbVisualStyle
  2
Linepattern
 70
    14
177
     3
291
     1
 70
    58
 90
        2
176
     1
 90
        2
176
     1
 90
        0
176
     1
 90
        0
176
     1
 40
0.6
176
     1
 40
30.0
176
     1
 62
     7
420
 16777215
176
     1
 90
        1
176
     1
 90
        4
176
     1
 62
     7
176
     1
 62
   257
176
     1
 90
        7
176
     1
 90
        7
176
     1
 40
1.0
176
     1
 90
        8
176
     1
 62
     7
176
     1
 40
1.0
176
     1
 90
        1
176
     1
 90
        6
176
     1
 90
        2
176
     1
 62
     7
176
     1
 90
        5
176
     1
 90
        0
176
     1
 90
        0
176
     1
290
     0
176
     1
 90
        1
176
     1
 40
0.0
176
     1
 90
        0
176
     1
290
     0
176
     1
290
     1
176
     1
290
     1
176
     1
290
     0
176
     1
290
     0
176
     1
290
     0
176
     1
290
     0
176
     1
290
     0
176
     1
290
     0
176
     1
 90
       50
176
     1
 40
0.0
176
     1
 40
1.0
176
     1
 90
        0
176
     1
 62
    18
420
        0
176
     1
 90
       50
176
     1
 90
        3
176
     1
 62
     5
420
      255
176
     1
290
     0
176
     1
 90
       50
176
     1
 90
       50
176
     1
 90
       50
176
     1
290
     0
176
     1
 90
       50
176
     1
 62
   256
176
     0
 40
1.0
176
     0
 90
        2
176
     1
  1
strokes_ogs.tif
176
     1
290
     0
176
     1
 40
1.0
176
     1
 40
1.0
176
     1
  0
VISUALSTYLE
  5
3C
102
{ACAD_REACTORS
330
2A
102
}
330
2A
100
AcDbVisualStyle
  2
OverhangOff
 70
    21
177
     3
291
     1
 70
    58
 90
        2
176
     0
 90
        2
176
     0
 90
        0
176
     0
 90
        0
176
     0
 40
0.6
176
     0
 40
30.0
176
     0
 62
     7
420
 16777215
176
     0
 90
        1
176
     0
 90
        4
176
     0
 62
     7
176
     0
 62
   257
176
     0
 90
        1
176
     0
 90
        1
176
     0
 40
1.0
176
     0
 90
        9
176
     2
 62
     7
176
     0
 40
1.0
176
     0
 90
        1
176
     0
 90
        6
176
     0
 90
        2
176
     0
 62
     7
176
     0
 90
        5
176
     0
 90
        0
176
     0
 90
        0
176
     0
290
     0
176
     0
 90
        1
176
     0
 40
0.0
176
     0
 90
        0
176
     0
290
     0
176
     0
290
     1
176
     0
290
     1
176
     0
290
     0
176
     0
290
     0
176
     0
290
     0
176
     0
290
     0
176
     0
290
     0
176
     0
290
     0
176
     0
 90
       50
176
     0
 40
0.0
176
     0
 40
1.0
176
     0
 90
        0
176
     0
 62
    18
420
        0
176
     0
 90
       50
176
     0
 90
        3
176
     0
 62
     5
420
      255
176
     0
290
     0
176
     0
 90
       50
176
     0
 90
       50
176
     0
 90
       50
176
     0
290
     0
176
     0
 90
       50
176
     0
 62
   256
176
     0
 40
1.0
176
     0
 90
        2
176
     0
  1
strokes_ogs.tif
176
     0
290
     0
176
     0
 40
1.0
176
     0
 40
1.0
176
     0
  0
VISUALSTYLE
  5
33
102
{ACAD_REACTORS
330
2A
102
}
330
2A
100
AcDbVisualStyle
  2
Realistic
 70
     8
177
     3
291
     0
 70
    58
 90
        2
176
     1
 90
        3
176
     1
 90
        0
176
     1
 90
        2
176
     1
 40
0.6
176
     1
 40
30.0
176
     1
 62
     7
420
 16777215
176
     1
 90
        0
176
     1
 90
        0
176
     1
 62
     7
176
     1
 62
   257
176
     1
 90
        1
176
     1
 90
        1
176
     1
 40
1.0
176
     1
 90
        8
176
     1
 62
   257
176
     1
 40
1.0
176
     1
 90
        1
176
     1
 90
        6
176
     1
 90
        2
176
     1
 62
     7
176
     1
 90
        3
176
     1
 90
        0
176
     1
 90
        0
176
     1
290
     0
176
     1
 90
       13
176
     1
 40
0.0
176
     1
 90
        0
176
     1
290
     0
176
     1
290
     1
176
     1
290
     1
176
     1
290
     0
176
     1
290
     0
176
     1
290
     0
176
     1
290
     0
176
     1
290
     0
176
     1
290
     0
176
     1
 90
       50
176
     1
 40
0.0
176
     1
 40
1.0
176
     1
 90
        0
176
     1
 62
    18
420
        0
176
     1
 90
       50
176
     1
 90
        3
176
     1
 62
     5
420
      255
176
     1
290
     0
176
     1
 90
       50
176
     1
 90
       50
176
     1
 90
       50
176
     1
290
     0
176
     1
 90
       50
176
     1
 62
   256
176
     0
 40
1.0
176
     0
 90
        2
176
     1
  1
strokes_ogs.tif
176
     1
290
     0
176
     1
 40
1.0
176
     1
 40
1.0
176
     1
  0
VISUALSTYLE
  5
42
102
{ACAD_REACTORS
330
2A
102
}
330
2A
100
AcDbVisualStyle
  2
Shaded
 70
    27
177
     3
291
     0
 70
    58
 90
        2
176
     1
 90
        2
176
     1
 90
        1
176
     1
 90
        2
176
     1
 40
0.6
176
     1
 40
30.0
176
     1
 62
     7
420
 16777215
176
     1
 90
        0
176
     1
 90
        4
176
     1
 62
     7
176
     1
 62
   257
176
     1
 90
        1
176
     1
 90
        1
176
     1
 40
1.0
176
     1
 90
        8
176
     1
 62
   257
176
     1
 40
1.0
176
     1
 90
        1
176
     1
 90
        6
176
     1
 90
        2
176
     1
 62
     8
420
  7895160
176
     1
 90
        3
176
     1
 90
        0
176
     1
 90
        0
176
     1
290
     0
176
     1
 90
        5
176
     1
 40
0.0
176
     1
 90
        0
176
     1
290
     0
176
     1
290
     1
176
     1
290
     1
176
     1
290
     0
176
     1
290
     0
176
     1
290
     0
176
     1
290
     0
176
     1
290
     0
176
     1
290
     0
176
     1
 90
       50
176
     1
 40
0.0
176
     1
 40
1.0
176
     1
 90
        0
176
     1
 62
    18
420
        0
176
     1
 90
       50
176
     1
 90
        3
176
     1
 62
     5
420
      255
176
     1
290
     0
176
     1
 90
       50
176
     1
 90
       50
176
     1
 90
       50
176
     1
290
     0
176
     1
 90
       50
176
     1
 62
   256
176
     0
 40
1.0
176
     0
 90
        2
176
     1
  1
strokes_ogs.tif
176
     1
290
     0
176
     1
 40
1.0
176
     1
 40
1.0
176
     1
  0
VISUALSTYLE
  5
41
102
{ACAD_REACTORS
330
2A
102
}
330
2A
100
AcDbVisualStyle
  2
Shaded with edges
 70
    26
177
     3
291
     0
 70
    58
 90
        2
176
     1
 90
        2
176
     1
 90
        1
176
     1
 90
        2
176
     1
 40
0.6
176
     1
 40
30.0
176
     1
 62
     7
420
 16777215
176
     1
 90
        1
176
     1
 90
       10
176
     1
 62
     7
176
     1
 62
   257
176
     1
 90
        2
176
     1
 90
        1
176
     1
 40
1.0
176
     1
 90
        8
176
     1
 62
   257
176
     1
 40
1.0
176
     1
 90
        1
176
     1
 90
        6
176
     1
 90
        2
176
     1
 62
     7
176
     1
 90
        3
176
     1
 90
        0
176
     1
 90
        0
176
     1
290
     0
176
     1
 90
        5
176
     1
 40
0.0
176
     1
 90
        0
176
     1
290
     0
176
     1
290
     1
176
     1
290
     1
176
     1
290
     0
176
     1
290
     0
176
     1
290
     0
176
     1
290
     0
176
     1
290
     0
176
     1
290
     0
176
     1
 90
       50
176
     1
 40
0.0
176
     1
 40
1.0
176
     1
 90
        0
176
     1
 62
    18
420
        0
176
     1
 90
       50
176
     1
 90
        3
176
     1
 62
     5
420
      255
176
     1
290
     0
176
     1
 90
       50
176
     1
 90
       50
176
     1
 90
       50
176
     1
290
     0
176
     1
 90
       50
176
     1
 62
   256
176
     0
 40
1.0
176
     0
 90
        2
176
     1
  1
strokes_ogs.tif
176
     1
290
     0
176
     1
 40
1.0
176
     1
 40
1.0
176
     1
  0
VISUALSTYLE
  5
3E
102
{ACAD_REACTORS
330
2A
102
}
330
2A
100
AcDbVisualStyle
  2
Shades of Gray
 70
    23
177
     3
291
     0
 70
    58
 90
        2
176
     1
 90
        2
176
     1
 90
        3
176
     1
 90
        0
176
     1
 40
0.6
176
     1
 40
30.0
176
     1
 62
     7
420
 16777215
176
     1
 90
        2
176
     1
 90
        2
176
     1
 62
     7
176
     1
 62
     7
176
     1
 90
        1
176
     1
 90
        1
176
     1
 40
40.0
176
     1
 90
        8
176
     1
 62
     7
176
     1
 40
1.0
176
     1
 90
        1
176
     1
 90
        6
176
     1
 90
        2
176
     1
 62
     7
176
     1
 90
        3
176
     1
 90
        0
176
     1
 90
        0
176
     1
290
     0
176
     1
 90
        1
176
     1
 40
0.0
176
     1
 90
        0
176
     1
290
     0
176
     1
290
     1
176
     1
290
     1
176
     1
290
     0
176
     1
290
     0
176
     1
290
     0
176
     1
290
     0
176
     1
290
     0
176
     1
290
     0
176
     1
 90
       50
176
     1
 40
0.0
176
     1
 40
1.0
176
     1
 90
        0
176
     1
 62
    18
420
        0
176
     1
 90
       50
176
     1
 90
        3
176
     1
 62
     5
420
      255
176
     1
290
     0
176
     1
 90
       50
176
     1
 90
       50
176
     1
 90
       50
176
     1
290
     0
176
     1
 90
       50
176
     1
 62
   256
176
     0
 40
1.0
176
     0
 90
        2
176
     1
  1
strokes_ogs.tif
176
     1
290
     0
176
     1
 40
1.0
176
     1
 40
1.0
176
     1
  0
VISUALSTYLE
  5
3F
102
{ACAD_REACTORS
330
2A
102
}
330
2A
100
AcDbVisualStyle
  2
Sketchy
 70
    24
177
     3
291
     0
 70
    58
 90
        1
176
     1
 90
        2
176
     1
 90
        2
176
     1
 90
        0
176
     1
 40
0.6
176
     1
 40
30.0
176
     1
 62
     7
420
 16777215
176
     1
 90
        2
176
     1
 90
        2
176
     1
 62
     7
176
     1
 62
     7
176
     1
 90
        1
176
     1
 90
        1
176
     1
 40
40.0
176
     1
 90
       11
176
     1
 62
     7
176
     1
 40
1.0
176
     1
 90
        1
176
     1
 90
        6
176
     1
 90
        2
176
     1
 62
     7
176
     1
 90
        6
176
     1
 90
        0
176
     1
 90
        0
176
     1
290
     0
176
     1
 90
        1
176
     1
 40
0.0
176
     1
 90
        0
176
     1
290
     0
176
     1
290
     1
176
     1
290
     1
176
     1
290
     0
176
     1
290
     0
176
     1
290
     0
176
     1
290
     0
176
     1
290
     0
176
     1
290
     0
176
     1
 90
       50
176
     1
 40
0.0
176
     1
 40
1.0
176
     1
 90
        0
176
     1
 62
    18
420
        0
176
     1
 90
       50
176
     1
 90
        3
176
     1
 62
     5
420
      255
176
     1
290
     0
176
     1
 90
       50
176
     1
 90
       50
176
     1
 90
       50
176
     1
290
     0
176
     1
 90
       50
176
     1
 62
   256
176
     0
 40
1.0
176
     0
 90
        2
176
     1
  1
strokes_ogs.tif
176
     1
290
     0
176
     1
 40
1.0
176
     1
 40
1.0
176
     1
  0
VISUALSTYLE
  5
37
102
{ACAD_REACTORS
330
2A
102
}
330
2A
100
AcDbVisualStyle
  2
Thicken
 70
    13
177
     3
291
     1
 70
    58
 90
        2
176
     1
 90
        2
176
     1
 90
        0
176
     1
 90
        0
176
     1
 40
0.6
176
     1
 40
30.0
176
     1
 62
     7
420
 16777215
176
     1
 90
        1
176
     1
 90
        4
176
     1
 62
     7
176
     1
 62
   257
176
     1
 90
        1
176
     1
 90
        1
176
     1
 40
1.0
176
     1
 90
       12
176
     1
 62
     7
176
     1
 40
1.0
176
     1
 90
        1
176
     1
 90
        6
176
     1
 90
        2
176
     1
 62
     7
176
     1
 90
        5
176
     1
 90
        0
176
     1
 90
        0
176
     1
290
     0
176
     1
 90
        1
176
     1
 40
0.0
176
     1
 90
        0
176
     1
290
     0
176
     1
290
     1
176
     1
290
     1
176
     1
290
     0
176
     1
290
     0
176
     1
290
     0
176
     1
290
     0
176
     1
290
     0
176
     1
290
     0
176
     1
 90
       50
176
     1
 40
0.0
176
     1
 40
1.0
176
     1
 90
        0
176
     1
 62
    18
420
        0
176
     1
 90
       50
176
     1
 90
        3
176
     1
 62
     5
420
      255
176
     1
290
     0
176
     1
 90
       50
176
     1
 90
       50
176
     1
 90
       50
176
     1
290
     0
176
     1
 90
       50
176
     1
 62
   256
176
     0
 40
1.0
176
     0
 90
        2
176
     1
  1
strokes_ogs.tif
176
     1
290
     0
176
     1
 40
1.0
176
     1
 40
1.0
176
     1
  0
VISUALSTYLE
  5
30
102
{ACAD_REACTORS
330
2A
102
}
330
2A
100
AcDbVisualStyle
  2
Wireframe
 70
     5
177
     3
291
     0
 70
    58
 90
        0
176
     1
 90
        2
176
     1
 90
        0
176
     1
 90
        0
176
     1
 40
0.6
176
     1
 40
30.0
176
     1
 62
     7
420
 16777215
176
     1
 90
        1
176
     1
 90
        4
176
     1
 62
     7
176
     1
 62
   257
176
     1
 90
        1
176
     1
 90
        1
176
     1
 40
1.0
176
     1
 90
        0
176
     1
 62
   257
176
     1
 40
1.0
176
     1
 90
        1
176
     1
 90
        6
176
     1
 90
        2
176
     1
 62
     7
176
     1
 90
        3
176
     1
 90
        0
176
     1
 90
        0
176
     1
290
     0
176
     1
 90
        1
176
     1
 40
0.0
176
     1
 90
        0
176
     1
290
     0
176
     1
290
     1
176
     1
290
     1
176
     1
290
     0
176
     1
290
     0
176
     1
290
     0
176
     1
290
     0
176
     1
290
     0
176
     1
290
     0
176
     1
 90
       50
176
     1
 40
0.0
176
     1
 40
1.0
176
     1
 90
        0
176
     1
 62
    18
420
        0
176
     1
 90
       50
176
     1
 90
        3
176
     1
 62
     5
420
      255
176
     1
290
     0
176
     1
 90
       50
176
     1
 90
       50
176
     1
 90
       50
176
     1
290
     0
176
     1
 90
       50
176
     1
 62
   256
176
     0
 40
1.0
176
     0
 90
        2
176
     1
  1
strokes_ogs.tif
176
     1
290
     0
176
     1
 40
1.0
176
     1
 40
1.0
176
     1
  0
VISUALSTYLE
  5
40
102
{ACAD_REACTORS
330
2A
102
}
330
2A
100
AcDbVisualStyle
  2
X-Ray
 70
    25
177
     3
291
     0
 70
    58
 90
        2
176
     1
 90
        2
176
     1
 90
        1
176
     1
 90
        1
176
     1
 40
0.5
176
     1
 40
30.0
176
     1
 62
     7
420
 16777215
176
     1
 90
        1
176
     1
 90
        0
176
     1
 62
     7
176
     1
 62
   257
176
     1
 90
        1
176
     1
 90
        1
176
     1
 40
1.0
176
     1
 90
        8
176
     1
 62
     7
176
     1
 40
1.0
176
     1
 90
        1
176
     1
 90
        6
176
     1
 90
        2
176
     1
 62
     7
176
     1
 90
        3
176
     1
 90
        0
176
     1
 90
        0
176
     1
290
     0
176
     1
 90
       13
176
     1
 40
0.0
176
     1
 90
        0
176
     1
290
     0
176
     1
290
     1
176
     1
290
     1
176
     1
290
     0
176
     1
290
     0
176
     1
290
     0
176
     1
290
     0
176
     1
290
     0
176
     1
290
     0
176
     1
 90
       50
176
     1
 40
0.0
176
     1
 40
1.0
176
     1
 90
        0
176
     1
 62
    18
420
        0
176
     1
 90
       50
176
     1
 90
        3
176
     1
 62
     5
420
      255
176
     1
290
     0
176
     1
 90
       50
176
     1
 90
       50
176
     1
 90
       50
176
     1
290
     0
176
     1
 90
       50
176
     1
 62
   256
176
     0
 40
1.0
176
     0
 90
        2
176
     1
  1
strokes_ogs.tif
176
     1
290
     0
176
     1
 40
1.0
176
     1
 40
1.0
176
     1
  0
DICTIONARYVAR
  5
216
102
{ACAD_REACTORS
330
215
102
}
330
215
100
DictionaryVariables
280
     0
  1
1:1
  0
DICTIONARYVAR
  5
21E
102
{ACAD_REACTORS
330
215
102
}
330
215
100
DictionaryVariables
280
     0
  1
3.500000
  0
DICTIONARYVAR
  5
21F
102
{ACAD_REACTORS
330
215
102
}
330
215
100
DictionaryVariables
280
     0
  1
acadiso.lin
  0
DICTIONARYVAR
  5
21B
102
{ACAD_REACTORS
330
215
102
}
330
215
100
DictionaryVariables
280
     0
  1
Standard
  0
DICTIONARYVAR
  5
21A
102
{ACAD_REACTORS
330
215
102
}
330
215
100
DictionaryVariables
280
     0
  1
Standard
  0
DICTIONARY
  5
217
330
5A
100
AcDbDictionary
280
     1
281
     1
  3
ACAD_ROUNDTRIP_2008_TABLESTYLE_CELLSTYLEMAP
360
218
  0
CELLSTYLEMAP
  5
218
102
{ACAD_REACTORS
330
217
102
}
330
217
100
AcDbCellStyleMap
 90
        3
300
CELLSTYLE
  1
TABLEFORMAT_BEGIN
 90
        5
170
     1
 91
        0
 92
    32768
 62
   257
 93
        1
300
CONTENTFORMAT
  1
CONTENTFORMAT_BEGIN
 90
        0
 91
        0
 92
        4
 93
        0
300

 40
0.0
140
1.0
 94
        5
 62
     0
340
11
144
6.0
309
CONTENTFORMAT_END
171
     1
301
MARGIN
  1
CELLMARGIN_BEGIN
 40
1.5
 40
1.5
 40
1.5
 40
1.5
 40
1.5
 40
1.5
309
CELLMARGIN_END
 94
        6
 95
        1
302
GRIDFORMAT
  1
GRIDFORMAT_BEGIN
 90
        0
 91
        1
 62
     0
 92
       -2
340
14
 93
        0
 40
0.045
309
GRIDFORMAT_END
 95
        2
302
GRIDFORMAT
  1
GRIDFORMAT_BEGIN
 90
        0
 91
        1
 62
     0
 92
       -2
340
14
 93
        0
 40
0.045
309
GRIDFORMAT_END
 95
        4
302
GRIDFORMAT
  1
GRIDFORMAT_BEGIN
 90
        0
 91
        1
 62
     0
 92
       -2
340
14
 93
        0
 40
0.045
309
GRIDFORMAT_END
 95
        8
302
GRIDFORMAT
  1
GRIDFORMAT_BEGIN
 90
        0
 91
        1
 62
     0
 92
       -2
340
14
 93
        0
 40
0.045
309
GRIDFORMAT_END
 95
       16
302
GRIDFORMAT
  1
GRIDFORMAT_BEGIN
 90
        0
 91
        1
 62
     0
 92
       -2
340
14
 93
        0
 40
0.045
309
GRIDFORMAT_END
 95
       32
302
GRIDFORMAT
  1
GRIDFORMAT_BEGIN
 90
        0
 91
        1
 62
     0
 92
       -2
340
14
 93
        0
 40
0.045
309
GRIDFORMAT_END
309
TABLEFORMAT_END
  1
CELLSTYLE_BEGIN
 90
        1
 91
        1
300
_TITLE
309
CELLSTYLE_END
300
CELLSTYLE
  1
TABLEFORMAT_BEGIN
 90
        5
170
     1
 91
        0
 92
        0
 62
   257
 93
        1
300
CONTENTFORMAT
  1
CONTENTFORMAT_BEGIN
 90
        0
 91
        0
 92
        4
 93
        0
300

 40
0.0
140
1.0
 94
        5
 62
     0
340
11
144
4.5
309
CONTENTFORMAT_END
171
     1
301
MARGIN
  1
CELLMARGIN_BEGIN
 40
1.5
 40
1.5
 40
1.5
 40
1.5
 40
1.5
 40
1.5
309
CELLMARGIN_END
 94
        6
 95
        1
302
GRIDFORMAT
  1
GRIDFORMAT_BEGIN
 90
        0
 91
        1
 62
     0
 92
       -2
340
14
 93
        0
 40
0.045
309
GRIDFORMAT_END
 95
        2
302
GRIDFORMAT
  1
GRIDFORMAT_BEGIN
 90
        0
 91
        1
 62
     0
 92
       -2
340
14
 93
        0
 40
0.045
309
GRIDFORMAT_END
 95
        4
302
GRIDFORMAT
  1
GRIDFORMAT_BEGIN
 90
        0
 91
        1
 62
     0
 92
       -2
340
14
 93
        0
 40
0.045
309
GRIDFORMAT_END
 95
        8
302
GRIDFORMAT
  1
GRIDFORMAT_BEGIN
 90
        0
 91
        1
 62
     0
 92
       -2
340
14
 93
        0
 40
0.045
309
GRIDFORMAT_END
 95
       16
302
GRIDFORMAT
  1
GRIDFORMAT_BEGIN
 90
        0
 91
        1
 62
     0
 92
       -2
340
14
 93
        0
 40
0.045
309
GRIDFORMAT_END
 95
       32
302
GRIDFORMAT
  1
GRIDFORMAT_BEGIN
 90
        0
 91
        1
 62
     0
 92
       -2
340
14
 93
        0
 40
0.045
309
GRIDFORMAT_END
309
TABLEFORMAT_END
  1
CELLSTYLE_BEGIN
 90
        2
 91
        1
300
_HEADER
309
CELLSTYLE_END
300
CELLSTYLE
  1
TABLEFORMAT_BEGIN
 90
        5
170
     1
 91
        0
 92
        0
 62
   257
 93
        1
300
CONTENTFORMAT
  1
CONTENTFORMAT_BEGIN
 90
        0
 91
        0
 92
        4
 93
        0
300

 40
0.0
140
1.0
 94
        2
 62
     0
340
11
144
4.5
309
CONTENTFORMAT_END
171
     1
301
MARGIN
  1
CELLMARGIN_BEGIN
 40
1.5
 40
1.5
 40
1.5
 40
1.5
 40
1.5
 40
1.5
309
CELLMARGIN_END
 94
        6
 95
        1
302
GRIDFORMAT
  1
GRIDFORMAT_BEGIN
 90
        0
 91
        1
 62
     0
 92
       -2
340
14
 93
        0
 40
0.045
309
GRIDFORMAT_END
 95
        2
302
GRIDFORMAT
  1
GRIDFORMAT_BEGIN
 90
        0
 91
        1
 62
     0
 92
       -2
340
14
 93
        0
 40
0.045
309
GRIDFORMAT_END
 95
        4
302
GRIDFORMAT
  1
GRIDFORMAT_BEGIN
 90
        0
 91
        1
 62
     0
 92
       -2
340
14
 93
        0
 40
0.045
309
GRIDFORMAT_END
 95
        8
302
GRIDFORMAT
  1
GRIDFORMAT_BEGIN
 90
        0
 91
        1
 62
     0
 92
       -2
340
14
 93
        0
 40
0.045
309
GRIDFORMAT_END
 95
       16
302
GRIDFORMAT
  1
GRIDFORMAT_BEGIN
 90
        0
 91
        1
 62
     0
 92
       -2
340
14
 93
        0
 40
0.045
309
GRIDFORMAT_END
 95
       32
302
GRIDFORMAT
  1
GRIDFORMAT_BEGIN
 90
        0
 91
        1
 62
     0
 92
       -2
340
14
 93
        0
 40
0.045
309
GRIDFORMAT_END
309
TABLEFORMAT_END
  1
CELLSTYLE_BEGIN
 90
        3
 91
        2
300
_DATA
309
CELLSTYLE_END
  0
ENDSEC
  0
EOF
