  0
SECTION
  2
HEADER
  9
$ACADVER
  1
AC1027
  9
$ACADMAINTVER
 70
   105
  9
$DWGCODEPAGE
  3
ANSI_1252
  9
$COMMENTS
  1
File was created by Cadenas
  9
$LASTSAVEDBY
  1
psservice
  9
$CUSTOMPROPERTYTAG
  1
NB
  9
$CUSTOMPROPERTY
  1
DSG0723DH00001S
  9
$CUSTOMPROPERTYTAG
  1
NN
  9
$CUSTOMPROPERTY
  1
Rooftop_Unit-Gas_Electric-Daikin-DSG_3-6_Ton
  9
$CUSTOMPROPERTYTAG
  1
NT
  9
$CUSTOMPROPERTY
  1

  9
$CUSTOMPROPERTYTAG
  1
NBSYN
  9
$CUSTOMPROPERTY
  1
$PARTNUMBER.
  9
$CUSTOMPROPERTYTAG
  1
LINA
  9
$CUSTOMPROPERTY
  1
DSG0723DH00001S
  9
$CUSTOMPROPERTYTAG
  1
CATALOG
  9
$CUSTOMPROPERTY
  1
Daikin
  9
$CUSTOMPROPERTYTAG
  1
PARTNUMBER
  9
$CUSTOMPROPERTY
  1
DSG0723DH00001S
  9
$CUSTOMPROPERTYTAG
  1
DESCRIPTION
  9
$CUSTOMPROPERTY
  1
Standard Efficiency Gas/Electric Direct-Drive Packaged Rooftop Unit
  9
$CUSTOMPROPERTYTAG
  1
OVERALL_DEPTH
  9
$CUSTOMPROPERTY
  1
48.375
  9
$CUSTOMPROPERTYTAG
  1
OVERALL_HEIGHT
  9
$CUSTOMPROPERTY
  1
43.500
  9
$CUSTOMPROPERTYTAG
  1
OVERALL_WIDTH
  9
$CUSTOMPROPERTY
  1
74.000
  9
$CUSTOMPROPERTYTAG
  1
URL
  9
$CUSTOMPROPERTY
  1
https://daikincomfort.com
  9
$CUSTOMPROPERTYTAG
  1
RFA_FAMILY
  9
$CUSTOMPROPERTY
  1
Download Revit Family (RFA)
  9
$CUSTOMPROPERTYTAG
  1
COMPANY
  9
$CUSTOMPROPERTY
  1
daikin
  9
$REQUIREDVERSIONS
160
                 0
  9
$INSBASE
 10
0.0
 20
0.0
 30
0.0
  9
$EXTMIN
 10
-36.9999999999998
 20
-24.1562500000005
 30
0.0
  9
$EXTMAX
 10
48.91694915254257
 20
24.66167372881308
 30
0.0
  9
$LIMMIN
 10
0.0
 20
0.0
  9
$LIMMAX
 10
12.0
 20
9.0
  9
$ORTHOMODE
 70
     0
  9
$REGENMODE
 70
     1
  9
$FILLMODE
 70
     1
  9
$QTEXTMODE
 70
     0
  9
$MIRRTEXT
 70
     1
  9
$LTSCALE
 40
1.0
  9
$ATTMODE
 70
     1
  9
$TEXTSIZE
 40
0.2
  9
$TRACEWID
 40
0.05
  9
$TEXTSTYLE
  7
Standard
  9
$CLAYER
  8
0
  9
$CELTYPE
  6
ByLayer
  9
$CECOLOR
 62
   256
  9
$CELTSCALE
 40
1.0
  9
$DISPSILH
 70
     0
  9
$DIMSCALE
 40
1.0
  9
$DIMASZ
 40
0.18
  9
$DIMEXO
 40
0.0625
  9
$DIMDLI
 40
0.38
  9
$DIMRND
 40
0.0
  9
$DIMDLE
 40
0.0
  9
$DIMEXE
 40
0.18
  9
$DIMTP
 40
0.0
  9
$DIMTM
 40
0.0
  9
$DIMTXT
 40
0.18
  9
$DIMCEN
 40
0.09
  9
$DIMTSZ
 40
0.0
  9
$DIMTOL
 70
     0
  9
$DIMLIM
 70
     0
  9
$DIMTIH
 70
     1
  9
$DIMTOH
 70
     1
  9
$DIMSE1
 70
     0
  9
$DIMSE2
 70
     0
  9
$DIMTAD
 70
     0
  9
$DIMZIN
 70
     0
  9
$DIMBLK
  1

  9
$DIMASO
 70
     1
  9
$DIMSHO
 70
     1
  9
$DIMPOST
  1

  9
$DIMAPOST
  1

  9
$DIMALT
 70
     0
  9
$DIMALTD
 70
     2
  9
$DIMALTF
 40
25.4
  9
$DIMLFAC
 40
1.0
  9
$DIMTOFL
 70
     0
  9
$DIMTVP
 40
0.0
  9
$DIMTIX
 70
     0
  9
$DIMSOXD
 70
     0
  9
$DIMSAH
 70
     0
  9
$DIMBLK1
  1

  9
$DIMBLK2
  1

  9
$DIMSTYLE
  2
Standard
  9
$DIMCLRD
 70
     0
  9
$DIMCLRE
 70
     0
  9
$DIMCLRT
 70
     0
  9
$DIMTFAC
 40
1.0
  9
$DIMGAP
 40
0.09
  9
$DIMJUST
 70
     0
  9
$DIMSD1
 70
     0
  9
$DIMSD2
 70
     0
  9
$DIMTOLJ
 70
     1
  9
$DIMTZIN
 70
     0
  9
$DIMALTZ
 70
     0
  9
$DIMALTTZ
 70
     0
  9
$DIMUPT
 70
     0
  9
$DIMDEC
 70
     4
  9
$DIMTDEC
 70
     4
  9
$DIMALTU
 70
     2
  9
$DIMALTTD
 70
     2
  9
$DIMTXSTY
  7
Standard
  9
$DIMAUNIT
 70
     0
  9
$DIMADEC
 70
     0
  9
$DIMALTRND
 40
0.0
  9
$DIMAZIN
 70
     0
  9
$DIMDSEP
 70
    46
  9
$DIMATFIT
 70
     3
  9
$DIMFRAC
 70
     0
  9
$DIMLDRBLK
  1

  9
$DIMLUNIT
 70
     2
  9
$DIMLWD
 70
    -2
  9
$DIMLWE
 70
    -2
  9
$DIMTMOVE
 70
     0
  9
$DIMFXL
 40
1.0
  9
$DIMFXLON
 70
     0
  9
$DIMJOGANG
 40
0.7853981633974483
  9
$DIMTFILL
 70
     0
  9
$DIMTFILLCLR
 70
     0
  9
$DIMARCSYM
 70
     0
  9
$DIMLTYPE
  6

  9
$DIMLTEX1
  6

  9
$DIMLTEX2
  6

  9
$DIMTXTDIRECTION
 70
     0
  9
$LUNITS
 70
     2
  9
$LUPREC
 70
     4
  9
$SKETCHINC
 40
0.1
  9
$FILLETRAD
 40
0.0
  9
$AUNITS
 70
     0
  9
$AUPREC
 70
     0
  9
$MENU
  1
.
  9
$ELEVATION
 40
0.0
  9
$PELEVATION
 40
0.0
  9
$THICKNESS
 40
0.0
  9
$LIMCHECK
 70
     0
  9
$CHAMFERA
 40
0.0
  9
$CHAMFERB
 40
0.0
  9
$CHAMFERC
 40
0.0
  9
$CHAMFERD
 40
0.0
  9
$SKPOLY
 70
     0
  9
$TDCREATE
 40
2461206.694017836
  9
$TDUCREATE
 40
2461206.610684503
  9
$TDUPDATE
 40
2461206.694018021
  9
$TDUUPDATE
 40
2461206.610684688
  9
$TDINDWG
 40
0.0000000116
  9
$TDUSRTIMER
 40
0.0000000116
  9
$USRTIMER
 70
     1
  9
$ANGBASE
 50
0.0
  9
$ANGDIR
 70
     0
  9
$PDMODE
 70
     0
  9
$PDSIZE
 40
0.0
  9
$PLINEWID
 40
0.0
  9
$SPLFRAME
 70
     0
  9
$SPLINETYPE
 70
     6
  9
$SPLINESEGS
 70
     8
  9
$HANDSEED
  5
1FA
  9
$SURFTAB1
 70
     6
  9
$SURFTAB2
 70
     6
  9
$SURFTYPE
 70
     6
  9
$SURFU
 70
     6
  9
$SURFV
 70
     6
  9
$UCSBASE
  2

  9
$UCSNAME
  2

  9
$UCSORG
 10
0.0
 20
0.0
 30
0.0
  9
$UCSXDIR
 10
1.0
 20
0.0
 30
0.0
  9
$UCSYDIR
 10
0.0
 20
1.0
 30
0.0
  9
$UCSORTHOREF
  2

  9
$UCSORTHOVIEW
 70
     0
  9
$UCSORGTOP
 10
0.0
 20
0.0
 30
0.0
  9
$UCSORGBOTTOM
 10
0.0
 20
0.0
 30
0.0
  9
$UCSORGLEFT
 10
0.0
 20
0.0
 30
0.0
  9
$UCSORGRIGHT
 10
0.0
 20
0.0
 30
0.0
  9
$UCSORGFRONT
 10
0.0
 20
0.0
 30
0.0
  9
$UCSORGBACK
 10
0.0
 20
0.0
 30
0.0
  9
$PUCSBASE
  2

  9
$PUCSNAME
  2

  9
$PUCSORG
 10
0.0
 20
0.0
 30
0.0
  9
$PUCSXDIR
 10
1.0
 20
0.0
 30
0.0
  9
$PUCSYDIR
 10
0.0
 20
1.0
 30
0.0
  9
$PUCSORTHOREF
  2

  9
$PUCSORTHOVIEW
 70
     0
  9
$PUCSORGTOP
 10
0.0
 20
0.0
 30
0.0
  9
$PUCSORGBOTTOM
 10
0.0
 20
0.0
 30
0.0
  9
$PUCSORGLEFT
 10
0.0
 20
0.0
 30
0.0
  9
$PUCSORGRIGHT
 10
0.0
 20
0.0
 30
0.0
  9
$PUCSORGFRONT
 10
0.0
 20
0.0
 30
0.0
  9
$PUCSORGBACK
 10
0.0
 20
0.0
 30
0.0
  9
$USERI1
 70
     0
  9
$USERI2
 70
     0
  9
$USERI3
 70
     0
  9
$USERI4
 70
     0
  9
$USERI5
 70
     0
  9
$USERR1
 40
0.0
  9
$USERR2
 40
0.0
  9
$USERR3
 40
0.0
  9
$USERR4
 40
0.0
  9
$USERR5
 40
0.0
  9
$WORLDVIEW
 70
     1
  9
$SHADEDGE
 70
     3
  9
$SHADEDIF
 70
    70
  9
$TILEMODE
 70
     1
  9
$MAXACTVP
 70
    64
  9
$PINSBASE
 10
0.0
 20
0.0
 30
0.0
  9
$PLIMCHECK
 70
     0
  9
$PEXTMIN
 10
1.000000000000000E+20
 20
1.000000000000000E+20
 30
1.000000000000000E+20
  9
$PEXTMAX
 10
-1.000000000000000E+20
 20
-1.000000000000000E+20
 30
-1.000000000000000E+20
  9
$PLIMMIN
 10
0.0
 20
0.0
  9
$PLIMMAX
 10
12.0
 20
9.0
  9
$UNITMODE
 70
     0
  9
$VISRETAIN
 70
     1
  9
$PLINEGEN
 70
     0
  9
$PSLTSCALE
 70
     1
  9
$TREEDEPTH
 70
  3020
  9
$CMLSTYLE
  2
Standard
  9
$CMLJUST
 70
     0
  9
$CMLSCALE
 40
1.0
  9
$PROXYGRAPHICS
 70
     1
  9
$MEASUREMENT
 70
     0
  9
$CELWEIGHT
370
    -1
  9
$ENDCAPS
280
     0
  9
$JOINSTYLE
280
     0
  9
$LWDISPLAY
290
     0
  9
$INSUNITS
 70
     1
  9
$HYPERLINKBASE
  1

  9
$STYLESHEET
  1

  9
$XEDIT
290
     1
  9
$CEPSNTYPE
380
     0
  9
$PSTYLEMODE
290
     1
  9
$FINGERPRINTGUID
  2
{edfed750-8862-47c2-935a-5f6d976e7184}
  9
$VERSIONGUID
  2
{FAEB1C32-E019-11D5-929B-00C0DF256EC4}
  9
$EXTNAMES
290
     1
  9
$PSVPSCALE
 40
0.0
  9
$OLESTARTUP
290
     0
  9
$SORTENTS
280
   127
  9
$INDEXCTL
280
     0
  9
$HIDETEXT
280
     1
  9
$XCLIPFRAME
280
     2
  9
$HALOGAP
280
     0
  9
$OBSCOLOR
 70
   257
  9
$OBSLTYPE
280
     0
  9
$INTERSECTIONDISPLAY
280
     0
  9
$INTERSECTIONCOLOR
 70
   257
  9
$DIMASSOC
280
     2
  9
$PROJECTNAME
  1

  9
$CAMERADISPLAY
290
     0
  9
$LENSLENGTH
 40
50.0
  9
$CAMERAHEIGHT
 40
0.0
  9
$STEPSPERSEC
 40
2.0
  9
$STEPSIZE
 40
6.0
  9
$3DDWFPREC
 40
2.0
  9
$PSOLWIDTH
 40
0.25
  9
$PSOLHEIGHT
 40
4.0
  9
$LOFTANG1
 40
1.570796326794897
  9
$LOFTANG2
 40
1.570796326794897
  9
$LOFTMAG1
 40
0.0
  9
$LOFTMAG2
 40
0.0
  9
$LOFTPARAM
 70
     7
  9
$LOFTNORMALS
280
     1
  9
$LATITUDE
 40
37.795
  9
$LONGITUDE
 40
-122.394
  9
$NORTHDIRECTION
 40
0.0
  9
$TIMEZONE
 70
 -8000
  9
$LIGHTGLYPHDISPLAY
280
     1
  9
$TILEMODELIGHTSYNCH
280
     1
  9
$CMATERIAL
347
44
  9
$SOLIDHIST
280
     0
  9
$SHOWHIST
280
     1
  9
$DWFFRAME
280
     2
  9
$DGNFRAME
280
     2
  9
$REALWORLDSCALE
290
     1
  9
$INTERFERECOLOR
 62
   256
  9
$CSHADOW
280
     0
  9
$SHADOWPLANELOCATION
 40
0.0
  0
ENDSEC
  0
SECTION
  2
CLASSES
  0
CLASS
  1
ACDBDICTIONARYWDFLT
  2
AcDbDictionaryWithDefault
  3
ObjectDBX Classes
 90
        0
 91
        3
280
     0
281
     0
  0
CLASS
  1
VISUALSTYLE
  2
AcDbVisualStyle
  3
ObjectDBX Classes
 90
     4095
 91
        3
280
     0
281
     0
  0
CLASS
  1
MATERIAL
  2
AcDbMaterial
  3
ObjectDBX Classes
 90
     1153
 91
        3
280
     0
281
     0
  0
CLASS
  1
SCALE
  2
AcDbScale
  3
ObjectDBX Classes
 90
     1153
 91
        3
280
     0
281
     0
  0
CLASS
  1
TABLESTYLE
  2
AcDbTableStyle
  3
ObjectDBX Classes
 90
     4095
 91
        3
280
     0
281
     0
  0
CLASS
  1
MLEADERSTYLE
  2
AcDbMLeaderStyle
  3
ACDB_MLEADERSTYLE_CLASS
 90
     4095
 91
        3
280
     0
281
     0
  0
CLASS
  1
SUN
  2
AcDbSun
  3
SCENEOE
 90
     1153
 91
        3
280
     0
281
     0
  0
CLASS
  1
DICTIONARYVAR
  2
AcDbDictionaryVar
  3
ObjectDBX Classes
 90
        0
 91
        3
280
     0
281
     0
  0
CLASS
  1
CELLSTYLEMAP
  2
AcDbCellStyleMap
  3
ObjectDBX Classes
 90
     1152
 91
        3
280
     0
281
     0
  0
ENDSEC
  0
SECTION
  2
TABLES
  0
TABLE
  2
VPORT
  5
8
330
0
100
AcDbSymbolTable
 70
     1
  0
VPORT
  5
29
330
8
100
AcDbSymbolTableRecord
100
AcDbViewportTableRecord
  2
*Active
 70
     0
 10
0.0
 20
0.0
 11
1.0
 21
1.0
 12
6.000169491525622
 22
0.3016949152537478
 13
0.0
 23
0.0
 14
0.5
 24
0.5
 15
0.5
 25
0.5
 16
0.0
 26
0.0
 36
1.0
 17
0.0
 27
0.0
 37
0.0
 40
49.89420762711867
 41
1.75812684346617
 42
50.0
 43
0.0
 44
0.0
 50
0.0
 51
0.0
 71
     0
 72
   100
 73
     1
 74
     3
 75
     0
 76
     0
 77
     0
 78
     0
281
     0
 65
     1
110
0.0
120
0.0
130
0.0
111
1.0
121
0.0
131
0.0
112
0.0
122
1.0
132
0.0
 79
     0
146
0.0
348
2F
 60
     3
 61
     5
292
     1
282
     1
141
0.0
142
0.0
 63
   250
361
5D
  0
ENDTAB
  0
TABLE
  2
LTYPE
  5
5
330
0
100
AcDbSymbolTable
 70
     3
  0
LTYPE
  5
14
330
5
100
AcDbSymbolTableRecord
100
AcDbLinetypeTableRecord
  2
ByBlock
 70
     0
  3

 72
    65
 73
     0
 40
0.0
  0
LTYPE
  5
15
330
5
100
AcDbSymbolTableRecord
100
AcDbLinetypeTableRecord
  2
ByLayer
 70
     0
  3

 72
    65
 73
     0
 40
0.0
  0
LTYPE
  5
16
330
5
100
AcDbSymbolTableRecord
100
AcDbLinetypeTableRecord
  2
Continuous
 70
     0
  3
Solid line
 72
    65
 73
     0
 40
0.0
  0
LTYPE
  5
AB
330
5
100
AcDbSymbolTableRecord
100
AcDbLinetypeTableRecord
  2
Dashed
 70
     0
  3

 72
    65
 73
     2
 40
2.0
 49
1.0
 74
     0
 49
-1.0
 74
     0
  0
LTYPE
  5
1B8
330
5
100
AcDbSymbolTableRecord
100
AcDbLinetypeTableRecord
  2
Center
 70
     0
  3

 72
    65
 73
     4
 40
1.5
 49
0.45
 74
     0
 49
-0.5
 74
     0
 49
0.05
 74
     0
 49
-0.5
 74
     0
  0
ENDTAB
  0
TABLE
  2
LAYER
  5
2
330
0
100
AcDbSymbolTable
 70
     6
  0
LAYER
  5
10
330
2
100
AcDbSymbolTableRecord
100
AcDbLayerTableRecord
  2
0
 70
     0
 62
     7
  6
Continuous
370
    -3
390
F
347
46
348
0
  0
LAYER
  5
5E
330
2
100
AcDbSymbolTableRecord
100
AcDbLayerTableRecord
  2
AM_6
 70
     0
 62
    -2
  6
Continuous
370
    35
390
F
347
46
348
0
  0
LAYER
  5
AC
330
2
100
AcDbSymbolTableRecord
100
AcDbLayerTableRecord
  2
AM_9
 70
     0
 62
     6
  6
Dashed
370
    25
390
F
347
46
348
0
  0
LAYER
  5
B1
330
2
100
AcDbSymbolTableRecord
100
AcDbLayerTableRecord
  2
AM_0
 70
     0
 62
     7
  6
Continuous
370
    50
390
F
347
46
348
0
  0
LAYER
  5
1B9
330
2
100
AcDbSymbolTableRecord
100
AcDbLayerTableRecord
  2
AM_7
 70
     0
 62
     7
  6
Center
370
    25
390
F
347
46
348
0
  0
LAYER
  5
1BD
330
2
100
AcDbSymbolTableRecord
100
AcDbLayerTableRecord
  2
AM_4
 70
     0
 62
     3
  6
Continuous
370
    25
390
F
347
46
348
0
  0
ENDTAB
  0
TABLE
  2
STYLE
  5
3
330
0
100
AcDbSymbolTable
 70
     1
  0
STYLE
  5
11
330
3
100
AcDbSymbolTableRecord
100
AcDbTextStyleTableRecord
  2
Standard
 70
     0
 40
0.0
 41
1.0
 50
0.0
 71
     0
 42
0.2
  3
txt
  4

  0
ENDTAB
  0
TABLE
  2
VIEW
  5
6
330
0
100
AcDbSymbolTable
 70
     0
  0
ENDTAB
  0
TABLE
  2
UCS
  5
7
330
0
100
AcDbSymbolTable
 70
     0
  0
ENDTAB
  0
TABLE
  2
APPID
  5
9
330
0
100
AcDbSymbolTable
 70
     1
  0
APPID
  5
12
330
9
100
AcDbSymbolTableRecord
100
AcDbRegAppTableRecord
  2
ACAD
 70
     0
  0
ENDTAB
  0
TABLE
  2
DIMSTYLE
  5
A
330
0
100
AcDbSymbolTable
 70
     1
100
AcDbDimStyleTable
  0
DIMSTYLE
105
27
330
A
100
AcDbSymbolTableRecord
100
AcDbDimStyleTableRecord
  2
Standard
 70
     0
178
     0
340
11
  0
ENDTAB
  0
TABLE
  2
BLOCK_RECORD
  5
1
330
0
100
AcDbSymbolTable
 70
     9
  0
BLOCK_RECORD
  5
1F
330
1
100
AcDbSymbolTableRecord
100
AcDbBlockTableRecord
  2
*Model_Space
340
22
 70
     0
280
     1
281
     0
  0
BLOCK_RECORD
  5
1B
330
1
100
AcDbSymbolTableRecord
100
AcDbBlockTableRecord
  2
*Paper_Space
340
1E
 70
     0
280
     1
281
     0
  0
BLOCK_RECORD
  5
23
330
1
100
AcDbSymbolTableRecord
100
AcDbBlockTableRecord
  2
*Paper_Space0
340
26
 70
     0
280
     1
281
     0
  0
BLOCK_RECORD
  5
83
330
1
100
AcDbSymbolTableRecord
100
AcDbBlockTableRecord
  2
1_DSG0723DH00001S_PART8_0_in_DSG0723DH00001S_4
340
0
102
{BLKREFS
331
84
102
}
 70
     0
280
     1
281
     0
  0
BLOCK_RECORD
  5
B6
330
1
100
AcDbSymbolTableRecord
100
AcDbBlockTableRecord
  2
2_DSG0723DH00001S_PART7_0_in_DSG0723DH00001S_4
340
0
102
{BLKREFS
331
B7
102
}
 70
     0
280
     1
281
     0
  0
BLOCK_RECORD
  5
E2
330
1
100
AcDbSymbolTableRecord
100
AcDbBlockTableRecord
  2
3_DSG0723DH00001S_PART6_0_in_DSG0723DH00001S_4
340
0
102
{BLKREFS
331
E3
102
}
 70
     0
280
     1
281
     0
  0
BLOCK_RECORD
  5
10E
330
1
100
AcDbSymbolTableRecord
100
AcDbBlockTableRecord
  2
4_DSG0723DH00001S_PART5_0_in_DSG0723DH00001S_4
340
0
102
{BLKREFS
331
10F
102
}
 70
     0
280
     1
281
     0
  0
BLOCK_RECORD
  5
13A
330
1
100
AcDbSymbolTableRecord
100
AcDbBlockTableRecord
  2
5_DSG0723DH00001S_PART4_0_in_DSG0723DH00001S_4
340
0
102
{BLKREFS
331
13B
102
}
 70
     0
280
     1
281
     0
  0
BLOCK_RECORD
  5
165
330
1
100
AcDbSymbolTableRecord
100
AcDbBlockTableRecord
  2
6_DSG0723DH00001S_PART3_0_in_DSG0723DH00001S_4
340
0
102
{BLKREFS
331
166
102
}
 70
     0
280
     1
281
     0
  0
BLOCK_RECORD
  5
190
330
1
100
AcDbSymbolTableRecord
100
AcDbBlockTableRecord
  2
7_DSG0723DH00001S_PART2_0_in_DSG0723DH00001S_4
340
0
102
{BLKREFS
331
191
102
}
 70
     0
280
     1
281
     0
  0
BLOCK_RECORD
  5
1C6
330
1
100
AcDbSymbolTableRecord
100
AcDbBlockTableRecord
  2
8_DSG0723DH00001S_PART1_0_in_DSG0723DH00001S_4
340
0
102
{BLKREFS
331
1C7
102
}
 70
     0
280
     1
281
     0
  0
ENDTAB
  0
ENDSEC
  0
SECTION
  2
BLOCKS
  0
BLOCK
  5
20
330
1F
100
AcDbEntity
  8
0
100
AcDbBlockBegin
  2
*Model_Space
 70
     2
 10
0.0
 20
0.0
 30
0.0
  3
*Model_Space
  1

  0
ENDBLK
  5
21
330
1F
100
AcDbEntity
  8
0
100
AcDbBlockEnd
  0
BLOCK
  5
1C
330
1B
100
AcDbEntity
 67
     1
  8
0
100
AcDbBlockBegin
  2
*Paper_Space
 70
     0
 10
0.0
 20
0.0
 30
0.0
  3
*Paper_Space
  1

  0
ENDBLK
  5
1D
330
1B
100
AcDbEntity
 67
     1
  8
0
100
AcDbBlockEnd
  0
BLOCK
  5
24
330
23
100
AcDbEntity
  8
0
100
AcDbBlockBegin
  2
*Paper_Space0
 70
     0
 10
0.0
 20
0.0
 30
0.0
  3
*Paper_Space0
  1

  0
ENDBLK
  5
25
330
23
100
AcDbEntity
  8
0
100
AcDbBlockEnd
  0
BLOCK
  5
85
330
83
100
AcDbEntity
  8
0
100
AcDbBlockBegin
  2
1_DSG0723DH00001S_PART8_0_in_DSG0723DH00001S_4
 70
     2
 10
0.0
 20
0.0
 30
0.0
  3
1_DSG0723DH00001S_PART8_0_in_DSG0723DH00001S_4
  1

  0
ATTDEF
  5
87
330
83
100
AcDbEntity
  8
AM_6
100
AcDbText
 10
42.0000000000002
 20
24.15624999999952
 30
0.0
 40
0.5
  1
DSG0723DH00001S_PART8
100
AcDbAttributeDefinition
  3

  2
NB
 70
     8
280
     0
  0
ATTDEF
  5
88
330
83
100
AcDbEntity
  8
AM_6
100
AcDbText
 10
42.0000000000002
 20
23.65624999999952
 30
0.0
 40
0.5
  1

100
AcDbAttributeDefinition
  3

  2
NN
 70
     8
280
     0
  0
ATTDEF
  5
89
330
83
100
AcDbEntity
  8
AM_6
100
AcDbText
 10
42.0000000000002
 20
23.15624999999952
 30
0.0
 40
0.5
  1

100
AcDbAttributeDefinition
  3

  2
NT
 70
     8
280
     0
  0
ATTDEF
  5
8A
330
83
100
AcDbEntity
  8
AM_6
100
AcDbText
 10
42.0000000000002
 20
22.65624999999952
 30
0.0
 40
0.5
  1
$PARTNUMBER._PART8
100
AcDbAttributeDefinition
  3

  2
NBSYN
 70
     8
280
     0
  0
ATTDEF
  5
8B
330
83
100
AcDbEntity
  8
AM_6
100
AcDbText
 10
42.0000000000002
 20
22.15624999999952
 30
0.0
 40
0.5
  1
DSG0723DH00001S_PART8
100
AcDbAttributeDefinition
  3

  2
LINA
 70
     8
280
     0
  0
ATTDEF
  5
8C
330
83
100
AcDbEntity
  8
AM_6
100
AcDbText
 10
42.0000000000002
 20
21.65624999999952
 30
0.0
 40
0.5
  1
Daikin
100
AcDbAttributeDefinition
  3

  2
CATALOG
 70
     8
280
     0
  0
ATTDEF
  5
8D
330
83
100
AcDbEntity
  8
AM_6
100
AcDbText
 10
42.0000000000002
 20
21.15624999999952
 30
0.0
 40
0.5
  1
DSG0723DH00001S
100
AcDbAttributeDefinition
  3

  2
PARTNUMBER
 70
     8
280
     0
  0
ATTDEF
  5
8E
330
83
100
AcDbEntity
  8
AM_6
100
AcDbText
 10
42.0000000000002
 20
20.65624999999952
 30
0.0
 40
0.5
  1
Standard Efficiency Gas/Electric Direct-Drive Packaged Rooftop Unit
100
AcDbAttributeDefinition
  3

  2
DESCRIPTION
 70
     8
280
     0
  0
ATTDEF
  5
8F
330
83
100
AcDbEntity
  8
AM_6
100
AcDbText
 10
42.0000000000002
 20
20.15624999999952
 30
0.0
 40
0.5
  1
48.375
100
AcDbAttributeDefinition
  3

  2
OVERALL_DEPTH
 70
     8
280
     0
  0
ATTDEF
  5
90
330
83
100
AcDbEntity
  8
AM_6
100
AcDbText
 10
42.0000000000002
 20
19.65624999999952
 30
0.0
 40
0.5
  1
43.500
100
AcDbAttributeDefinition
  3

  2
OVERALL_HEIGHT
 70
     8
280
     0
  0
ATTDEF
  5
91
330
83
100
AcDbEntity
  8
AM_6
100
AcDbText
 10
42.0000000000002
 20
19.15624999999952
 30
0.0
 40
0.5
  1
74.000
100
AcDbAttributeDefinition
  3

  2
OVERALL_WIDTH
 70
     8
280
     0
  0
ATTDEF
  5
92
330
83
100
AcDbEntity
  8
AM_6
100
AcDbText
 10
42.0000000000002
 20
18.65624999999952
 30
0.0
 40
0.5
  1
https://daikincomfort.com
100
AcDbAttributeDefinition
  3

  2
URL
 70
     8
280
     0
  0
ATTDEF
  5
93
330
83
100
AcDbEntity
  8
AM_6
100
AcDbText
 10
42.0000000000002
 20
18.15624999999952
 30
0.0
 40
0.5
  1
Download Revit Family (RFA)
100
AcDbAttributeDefinition
  3

  2
RFA_FAMILY
 70
     8
280
     0
  0
ATTDEF
  5
94
330
83
100
AcDbEntity
  8
AM_6
100
AcDbText
 10
42.0000000000002
 20
17.65624999999952
 30
0.0
 40
0.5
  1
daikin
100
AcDbAttributeDefinition
  3

  2
COMPANY
 70
     8
280
     0
  0
ATTDEF
  5
95
330
83
100
AcDbEntity
  8
AM_6
100
AcDbText
 10
42.0000000000002
 20
17.15624999999952
 30
0.0
 40
0.5
  1
{$CADENAS_DATA/23d-libs/daikin/light20commercial20rooftop20package20units/gas-electric/dsg/rooftop_unit-gas_electric-daikin-dsg_3-6_ton.prj},240 {VTYP=3D},{NB=DSG0723DH00001S_PART8},{LINA=DSG0723DH00001S_PART8},{NN=Rooftop_Unit-Gas_Electric-Daikin-D
100
AcDbAttributeDefinition
  3

  2
PSOL_0
 70
     9
280
     0
  0
ATTDEF
  5
96
330
83
100
AcDbEntity
  8
AM_6
100
AcDbText
 10
42.0000000000002
 20
16.65624999999952
 30
0.0
 40
0.5
  1
_Ton_PART8},{NOPRJ=TRUE},{DATE=03.06.2026 19:23:11},{GEOMDATE=10.10.2025 10:56:44},{VERSION=},{LINEID=300},{WBVAR=},{WBNUMERIC=}  {NB=DSG0723DH00001S_PART8},{LINA=DSG0723DH00001S_PART8},{KT=DUMMY},{PARTNUMBER=DSG0723DH00001S},{DESCRIPTION=Standard E
100
AcDbAttributeDefinition
  3

  2
PSOL_1
 70
     9
280
     0
  0
ATTDEF
  5
97
330
83
100
AcDbEntity
  8
AM_6
100
AcDbText
 10
42.0000000000002
 20
16.15624999999952
 30
0.0
 40
0.5
  1
ncy Gas/Electric Direct-Drive Packaged Rooftop Unit},{OVERALL_DEPTH=48.375},{OVERALL_HEIGHT=43.500},{OVERALL_WIDTH=74.000},{URL=https://daikincomfort.com},{RFA_FAMILY=Download Revit Family (RFA)},{ORDERNO=6Ton_208-230V_3Ph_Standard-ESP_High-Heat_DSG
100
AcDbAttributeDefinition
  3

  2
PSOL_2
 70
     9
280
     0
  0
ATTDEF
  5
98
330
83
100
AcDbEntity
  8
AM_6
100
AcDbText
 10
42.0000000000002
 20
15.65624999999952
 30
0.0
 40
0.5
  1
00001S},{ACTUAL_SUPPLY_AIR_FLOW=1800},{AMBIENT_TEMPERATURE=0},{APPARENT_POWER=16627.6877526612},{ASSEMBLY_CODE=D3050200},{ASSEMBLY_HEIGHT_OFFSET=0},{ASSEMBLY_MOUNTED_ON_CURB=0},{BASE_RAIL_HEIGHT=0.34375},{BASE_RAIL_THICKNESS=0.0286458333333333},{BOT
100
AcDbAttributeDefinition
  3

  2
PSOL_3
 70
     9
280
     0
  0
ATTDEF
  5
99
330
83
100
AcDbEntity
  8
AM_6
100
AcDbText
 10
42.0000000000002
 20
15.15624999999952
 30
0.0
 40
0.5
  1
NDENSATE_DRAIN_CONNECTION_HORIZONTAL_OFFSET=1.625},{BOTTOM_CONDENSATE_DRAIN_CONNECTION_VERTICAL_OFFSET=1.625},{CATEGORY=Mechanical Equipment},{CLEARANCE_VISIBILITY=1},{COIL_AIR_PRESSURE_DROP=0},{COMPRESSOR_LOCKED_ROTOR_AMPS=155},{COMPRESSOR_RATED_LO
100
AcDbAttributeDefinition
  3

  2
PSOL_4
 70
     9
280
     0
  0
ATTDEF
  5
9A
330
83
100
AcDbEntity
  8
AM_6
100
AcDbText
 10
42.0000000000002
 20
14.65624999999952
 30
0.0
 40
0.5
  1
S=16.1},{COMPRESSOR_TYPE=Scroll},{CONDENSATE_DRAIN_CONNECTION_DIAMETER=0.75},{CONDENSATE_DRAIN_CONNECTION_RADIUS=0.375},{CONDENSER_FAN_MOTOR_HORSEPOWER=246.080957622149},{CONDUIT_A_VERTICAL_OFFSET=0.375},{CONDUIT_B_VERTICAL_OFFSET=0.625},{CONDUIT_CO
100
AcDbAttributeDefinition
  3

  2
PSOL_5
 70
     9
280
     0
  0
ATTDEF
  5
9B
330
83
100
AcDbEntity
  8
AM_6
100
AcDbText
 10
42.0000000000002
 20
14.15624999999952
 30
0.0
 40
0.5
  1
ON_RADIUS_A=0.25},{CONDUIT_CONNECTION_RADIUS_B=0.25},{CONDUIT_CONNECTION_SIZE_A=0.5},{CONDUIT_CONNECTION_SIZE_B=0.5},{CONDUIT_HORIZONTAL_OFFSET=3.9609375},{COOLING_ENTERING_DRY_BULB_TEMPERATURE=0},{COOLING_ENTERING_WET_BULB_TEMPERATURE=0},{COOLING_L
100
AcDbAttributeDefinition
  3

  2
PSOL_6
 70
     9
280
     0
  0
ATTDEF
  5
9C
330
83
100
AcDbEntity
  8
AM_6
100
AcDbText
 10
42.0000000000002
 20
13.65624999999952
 30
0.0
 40
0.5
  1
_DRY_BULB_TEMPERATURE=0},{COOLING_LEAVING_WET_BULB_TEMPERATURE=0},{COST=0},{CURB_HEIGHT=0},{DEFAULT_ELEVATION=0},{DESIGN_RETURN_AIR_FLOW=0},{DESIGN_SUPPLY_AIR_FLOW=0},{DOWNFLOW_DUCT_VERTICAL_OFFSET=0.442708333333333},{DOWNFLOW_OPTION=1},{DOWNFLOW_RE
100
AcDbAttributeDefinition
  3

  2
PSOL_7
 70
     9
280
     0
  0
ATTDEF
  5
9D
330
83
100
AcDbEntity
  8
AM_6
100
AcDbText
 10
42.0000000000002
 20
13.15624999999952
 30
0.0
 40
0.5
  1
IR_CONNECTION_HEIGHT=25},{DOWNFLOW_RETURN_AIR_CONNECTION_WIDTH=11},{DOWNFLOW_RETURN_DUCT_HORIZONTAL_OFFSET=0.486979166666667},{DOWNFLOW_SUPPLY_AIR_CONNECTION_HEIGHT=12},{DOWNFLOW_SUPPLY_AIR_CONNECTION_WIDTH=17},{DOWNFLOW_SUPPLY_DUCT_HORIZONTAL_OFFSE
100
AcDbAttributeDefinition
  3

  2
PSOL_8
 70
     9
280
     0
  0
ATTDEF
  5
9E
330
83
100
AcDbEntity
  8
AM_6
100
AcDbText
 10
42.0000000000002
 20
12.65624999999952
 30
0.0
 40
0.5
  1
5416666666667},{DRAIN_FLOW=0},{DUCT_ANGLE=0},{ENCLOSURE_DEPTH=3.96875},{ENCLOSURE_WIDTH=6.11458333333333},{ENGWORKS_GLOBAL=www.ENGworksGlobal.com},{EVAPORATOR_FAN_MOTOR_HORSEPOWER=894.839845898724},{EVAPORATOR_FAN_TYPE=Direct Drive - Standard},{FACE
100
AcDbAttributeDefinition
  3

  2
PSOL_9
 70
     9
280
     0
  0
ATTDEF
  5
9F
330
83
100
AcDbEntity
  8
AM_6
100
AcDbText
 10
42.0000000000002
 20
12.15624999999952
 30
0.0
 40
0.5
  1
ITY__FPM_=0},{FAN_DIAMETER=1.83333333333333},{FAN_OFFSET=1.375},{FAN_RADIUS=0.916666666666667},{FEET_PRESSURE_DROP=0},{FILTER_SIZE=14 X 20 X 2, 20 X 20 X 2},{FREQUENCY=60},{GAS_ENTRY_RADIUS=0.25},{GAS_ENTRY_SIZE=0.5},{HEATING_ENTERING_DRY_BULB_TEMPE
100
AcDbAttributeDefinition
  3

  2
PSOL_10
 70
     9
280
     0
  0
ATTDEF
  5
A0
330
83
100
AcDbEntity
  8
AM_6
100
AcDbText
 10
42.0000000000002
 20
11.65624999999952
 30
0.0
 40
0.5
  1
=0},{HEATING_ENTERING_WET_BULB_TEMPERATURE=0},{HEATING_LEAVING_DRY_BULB_TEMPERATURE=0},{HEATING_LEAVING_WET_BULB_TEMPERATURE=0},{HORIZONTAL_RETURN_AIR_CONNECTION_HEIGHT=25},{HORIZONTAL_RETURN_AIR_CONNECTION_WIDTH=11},{HORIZONTAL_SUPPLY_AIR_CONNECTIO
100
AcDbAttributeDefinition
  3

  2
PSOL_11
 70
     9
280
     0
  0
ATTDEF
  5
A1
330
83
100
AcDbEntity
  8
AM_6
100
AcDbText
 10
42.0000000000002
 20
11.15624999999952
 30
0.0
 40
0.5
  1
HT=12},{HORIZONTAL_SUPPLY_AIR_CONNECTION_WIDTH=17},{LATENT_COOLING_CAPACITY=0},{LOAD_SUB_CLASSIFICATION_MOTOR=1},{MANUFACTURER=Daikin},{MASSUNIT=1},{MAXIMUM_AIR_FLOW=2700},{MAXIMUM_CLEARANCE=3},{MAXIMUM_HEATING_INPUT__MBH_=140},{MAXIMUM_HEATING_OUTP
100
AcDbAttributeDefinition
  3

  2
PSOL_12
 70
     9
280
     0
  0
ATTDEF
  5
A2
330
83
100
AcDbEntity
  8
AM_6
100
AcDbText
 10
42.0000000000002
 20
10.65624999999952
 30
0.0
 40
0.5
  1
H_=112},{MAXIMUM_OVERCURRENT_PROTECTION=40},{MINIMUM_AIR_FLOW=1800},{MINIMUM_CIRCUIT_AMPS=27.2},{MINIMUM_CLEARANCE=2},{MINIMUM_HEATING_INPUT__MBH_=105},{MINIMUM_HEATING_OUTPUT__MBH_=84},{MODEL=DSG0723DH00001S},{NOMINAL_COOLING_CAPACITY=69000},{NOMIN
100
AcDbAttributeDefinition
  3

  2
PSOL_13
 70
     9
280
     0
  0
ATTDEF
  5
A3
330
83
100
AcDbEntity
  8
AM_6
100
AcDbText
 10
42.0000000000002
 20
10.15624999999952
 30
0.0
 40
0.5
  1
LING_CAPACITY__TONS_=6},{NOMINAL_HEATING_CAPACITY=0},{NUMBER_OF_POLES=3},{OMNICLASS_NUMBER=23.75.10.24.21.27.14},{OMNICLASS_TITLE=Packaged Rooftop Air Conditioning Units},{PARTTYPE=Normal},{PHASE=3},{PRODUCT_PAGE_URL=https://www.daikinac.com/content
100
AcDbAttributeDefinition
  3

  2
PSOL_14
 70
     9
280
     0
  0
ATTDEF
  5
A4
330
83
100
AcDbEntity
  8
AM_6
100
AcDbText
 10
42.0000000000002
 20
9.656249999999524
 30
0.0
 40
0.5
  1
-commercial/packaged-hvac-systems/dsg-series-3-6-tons-packaged-gaselectric/},{REFRIGERANT_CHARGE=5.1875},{REFRIGERANT_CHARGE_VALUE=5.1875},{REFRIGERANT_USED=R-32},{RETURN_AIR_CONNECTION_HEIGHT=25},{RETURN_AIR_CONNECTION_HORIZONTAL_CENTER_OFFSET=1.02
100
AcDbAttributeDefinition
  3

  2
PSOL_15
 70
     9
280
     0
  0
ATTDEF
  5
A5
330
83
100
AcDbEntity
  8
AM_6
100
AcDbText
 10
42.0000000000002
 20
9.156249999999524
 30
0.0
 40
0.5
  1
333333},{RETURN_AIR_CONNECTION_VERTICAL_CENTER_OFFSET=1.484375},{RETURN_AIR_CONNECTION_WIDTH=11},{RETURN_AIR_PRESSURE_DROP=0},{SENSIBLE_COOLING_CAPACITY=0},{SERIES=DSG},{SIDE_CONDENSATE_DRAIN_CONNECTION_HORIZONTAL_OFFSET=1.66666666666667},{SIDE_COND
100
AcDbAttributeDefinition
  3

  2
PSOL_16
 70
     9
280
     0
  0
ATTDEF
  5
A6
330
83
100
AcDbEntity
  8
AM_6
100
AcDbText
 10
42.0000000000002
 20
8.656249999999524
 30
0.0
 40
0.5
  1
_DRAIN_CONNECTION_VERTICAL_OFFSET=0.708333333333333},{SIDE_DUCT_VERTICAL_OFFSET=0.515625},{SIDE_RETURN_DUCT_HORIZONTAL_OFFSET=0.416666666666667},{SIDE_SUPPLY_DUCT_HORIZONTAL_OFFSET=0.614583333333333},{SIDEFLOW_OPTION=0},{STANDARDS=AHRI Certified; ET
100
AcDbAttributeDefinition
  3

  2
PSOL_17
 70
     9
280
     0
  0
ATTDEF
  5
A7
330
83
100
AcDbEntity
  8
AM_6
100
AcDbText
 10
42.0000000000002
 20
8.156249999999524
 30
0.0
 40
0.5
  1
ed},{SUPPLY_AIR_CONNECTION_HEIGHT=12},{SUPPLY_AIR_CONNECTION_HORIZONTAL_CENTER_OFFSET=2.68229166666667},{SUPPLY_AIR_CONNECTION_VERTICAL_CENTER_OFFSET=0.942708333333333},{SUPPLY_AIR_CONNECTION_WIDTH=17},{SUPPLY_AIR_FLOW_STATUS=Design Supply Air Flow 
100
AcDbAttributeDefinition
  3

  2
PSOL_18
 70
     9
280
     0
  0
ATTDEF
  5
A8
330
83
100
AcDbEntity
  8
AM_6
100
AcDbText
 10
42.0000000000002
 20
7.656249999999524
 30
0.0
 40
0.5
  1
Short of Minimum Recommended},{SUPPLY_AIR_PRESSURE_DROP=0},{SYSTEM_PERFORMANCE_EER=11.8},{SYSTEM_PERFORMANCE_EER2=N/A},{SYSTEM_PERFORMANCE_IEER=16.7},{SYSTEM_PERFORMANCE_SEER2=N/A},{TOTAL_COOLING_CAPACITY=0},{TOTAL_STATIC_PRESSURE=0},{UNIT_WEIGHT=62
100
AcDbAttributeDefinition
  3

  2
PSOL_19
 70
     9
280
     0
  0
ATTDEF
  5
A9
330
83
100
AcDbEntity
  8
AM_6
100
AcDbText
 10
42.0000000000002
 20
7.156249999999524
 30
0.0
 40
0.5
  1
IT_WEIGHT_VALUE=626},{VERSION=1},{VOLTAGE=240},{VOLTAGE_COMMENTS=208 VAC to 230 VAC},{DEFAULTSORTATTR=752},{RFA_FAMILY_=../../../_pool_/d3/37/rooftop_unit-gas_electric-daikin-dsg_3-6_ton.zip},{RFA_FAMILY_ENG=../../../_pool_/d3/37/rooftop_unit-gas_el
100
AcDbAttributeDefinition
  3

  2
PSOL_20
 70
     9
280
     0
  0
ATTDEF
  5
AA
330
83
100
AcDbEntity
  8
AM_6
100
AcDbText
 10
42.0000000000002
 20
6.656249999999524
 30
0.0
 40
0.5
  1
-daikin-dsg_3-6_ton.zip},{REVIT_FAMILY_DOWNLOAD=../../../_pool_/d3/37/rooftop_unit-gas_electric-daikin-dsg_3-6_ton.zip}
100
AcDbAttributeDefinition
  3

  2
PSOL_21
 70
     9
280
     0
  0
LINE
  5
AD
330
83
100
AcDbEntity
  8
AM_9
100
AcDbLine
 10
-35.9999999999998
 20
-23.15625000000048
 30
0.0
 11
-35.9999999999998
 21
23.15624999999952
 31
0.0
  0
LINE
  5
AE
330
83
100
AcDbEntity
  8
AM_9
100
AcDbLine
 10
-35.9999999999998
 20
23.15624999999952
 30
0.0
 11
36.0000000000002
 21
23.15624999999952
 31
0.0
  0
LINE
  5
AF
330
83
100
AcDbEntity
  8
AM_9
100
AcDbLine
 10
36.0000000000002
 20
23.15624999999952
 30
0.0
 11
36.0000000000002
 21
-23.15625000000048
 31
0.0
  0
LINE
  5
B0
330
83
100
AcDbEntity
  8
AM_9
100
AcDbLine
 10
36.0000000000002
 20
-23.15625000000048
 30
0.0
 11
-35.9999999999998
 21
-23.15625000000048
 31
0.0
  0
LINE
  5
B2
330
83
100
AcDbEntity
  8
AM_0
100
AcDbLine
 10
-36.9999999999998
 20
24.15624999999952
 30
0.0
 11
-36.9999999999998
 21
-24.15625000000049
 31
0.0
  0
LINE
  5
B3
330
83
100
AcDbEntity
  8
AM_0
100
AcDbLine
 10
-36.9999999999998
 20
-24.15625000000049
 30
0.0
 11
37.0000000000002
 21
-24.1562500000005
 31
0.0
  0
LINE
  5
B4
330
83
100
AcDbEntity
  8
AM_0
100
AcDbLine
 10
37.0000000000002
 20
-24.1562500000005
 30
0.0
 11
37.0000000000002
 21
24.15624999999952
 31
0.0
  0
LINE
  5
B5
330
83
100
AcDbEntity
  8
AM_0
100
AcDbLine
 10
37.0000000000002
 20
24.15624999999952
 30
0.0
 11
-36.9999999999998
 21
24.15624999999952
 31
0.0
  0
ENDBLK
  5
86
330
83
100
AcDbEntity
  8
0
100
AcDbBlockEnd
  0
BLOCK
  5
B8
330
B6
100
AcDbEntity
  8
0
100
AcDbBlockBegin
  2
2_DSG0723DH00001S_PART7_0_in_DSG0723DH00001S_4
 70
     2
 10
0.0
 20
0.0
 30
0.0
  3
2_DSG0723DH00001S_PART7_0_in_DSG0723DH00001S_4
  1

  0
ATTDEF
  5
BA
330
B6
100
AcDbEntity
  8
AM_6
100
AcDbText
 10
41.6875000000002
 20
23.81249999999912
 30
0.0
 40
0.5
  1
DSG0723DH00001S_PART7
100
AcDbAttributeDefinition
  3

  2
NB
 70
     8
280
     0
  0
ATTDEF
  5
BB
330
B6
100
AcDbEntity
  8
AM_6
100
AcDbText
 10
41.6875000000002
 20
23.31249999999912
 30
0.0
 40
0.5
  1

100
AcDbAttributeDefinition
  3

  2
NN
 70
     8
280
     0
  0
ATTDEF
  5
BC
330
B6
100
AcDbEntity
  8
AM_6
100
AcDbText
 10
41.6875000000002
 20
22.81249999999912
 30
0.0
 40
0.5
  1

100
AcDbAttributeDefinition
  3

  2
NT
 70
     8
280
     0
  0
ATTDEF
  5
BD
330
B6
100
AcDbEntity
  8
AM_6
100
AcDbText
 10
41.6875000000002
 20
22.31249999999912
 30
0.0
 40
0.5
  1
$PARTNUMBER._PART7
100
AcDbAttributeDefinition
  3

  2
NBSYN
 70
     8
280
     0
  0
ATTDEF
  5
BE
330
B6
100
AcDbEntity
  8
AM_6
100
AcDbText
 10
41.6875000000002
 20
21.81249999999912
 30
0.0
 40
0.5
  1
DSG0723DH00001S_PART7
100
AcDbAttributeDefinition
  3

  2
LINA
 70
     8
280
     0
  0
ATTDEF
  5
BF
330
B6
100
AcDbEntity
  8
AM_6
100
AcDbText
 10
41.6875000000002
 20
21.31249999999912
 30
0.0
 40
0.5
  1
Daikin
100
AcDbAttributeDefinition
  3

  2
CATALOG
 70
     8
280
     0
  0
ATTDEF
  5
C0
330
B6
100
AcDbEntity
  8
AM_6
100
AcDbText
 10
41.6875000000002
 20
20.81249999999912
 30
0.0
 40
0.5
  1
DSG0723DH00001S
100
AcDbAttributeDefinition
  3

  2
PARTNUMBER
 70
     8
280
     0
  0
ATTDEF
  5
C1
330
B6
100
AcDbEntity
  8
AM_6
100
AcDbText
 10
41.6875000000002
 20
20.31249999999912
 30
0.0
 40
0.5
  1
Standard Efficiency Gas/Electric Direct-Drive Packaged Rooftop Unit
100
AcDbAttributeDefinition
  3

  2
DESCRIPTION
 70
     8
280
     0
  0
ATTDEF
  5
C2
330
B6
100
AcDbEntity
  8
AM_6
100
AcDbText
 10
41.6875000000002
 20
19.81249999999912
 30
0.0
 40
0.5
  1
48.375
100
AcDbAttributeDefinition
  3

  2
OVERALL_DEPTH
 70
     8
280
     0
  0
ATTDEF
  5
C3
330
B6
100
AcDbEntity
  8
AM_6
100
AcDbText
 10
41.6875000000002
 20
19.31249999999912
 30
0.0
 40
0.5
  1
43.500
100
AcDbAttributeDefinition
  3

  2
OVERALL_HEIGHT
 70
     8
280
     0
  0
ATTDEF
  5
C4
330
B6
100
AcDbEntity
  8
AM_6
100
AcDbText
 10
41.6875000000002
 20
18.81249999999912
 30
0.0
 40
0.5
  1
74.000
100
AcDbAttributeDefinition
  3

  2
OVERALL_WIDTH
 70
     8
280
     0
  0
ATTDEF
  5
C5
330
B6
100
AcDbEntity
  8
AM_6
100
AcDbText
 10
41.6875000000002
 20
18.31249999999912
 30
0.0
 40
0.5
  1
https://daikincomfort.com
100
AcDbAttributeDefinition
  3

  2
URL
 70
     8
280
     0
  0
ATTDEF
  5
C6
330
B6
100
AcDbEntity
  8
AM_6
100
AcDbText
 10
41.6875000000002
 20
17.81249999999912
 30
0.0
 40
0.5
  1
Download Revit Family (RFA)
100
AcDbAttributeDefinition
  3

  2
RFA_FAMILY
 70
     8
280
     0
  0
ATTDEF
  5
C7
330
B6
100
AcDbEntity
  8
AM_6
100
AcDbText
 10
41.6875000000002
 20
17.31249999999912
 30
0.0
 40
0.5
  1
daikin
100
AcDbAttributeDefinition
  3

  2
COMPANY
 70
     8
280
     0
  0
ATTDEF
  5
C8
330
B6
100
AcDbEntity
  8
AM_6
100
AcDbText
 10
41.6875000000002
 20
16.81249999999912
 30
0.0
 40
0.5
  1
{$CADENAS_DATA/23d-libs/daikin/light20commercial20rooftop20package20units/gas-electric/dsg/rooftop_unit-gas_electric-daikin-dsg_3-6_ton.prj},240 {VTYP=3D},{NB=DSG0723DH00001S_PART7},{LINA=DSG0723DH00001S_PART7},{NN=Rooftop_Unit-Gas_Electric-Daikin-D
100
AcDbAttributeDefinition
  3

  2
PSOL_0
 70
     9
280
     0
  0
ATTDEF
  5
C9
330
B6
100
AcDbEntity
  8
AM_6
100
AcDbText
 10
41.6875000000002
 20
16.31249999999912
 30
0.0
 40
0.5
  1
_Ton_PART7},{NOPRJ=TRUE},{DATE=03.06.2026 19:23:11},{GEOMDATE=10.10.2025 10:56:44},{VERSION=},{LINEID=300},{WBVAR=},{WBNUMERIC=}  {NB=DSG0723DH00001S_PART7},{LINA=DSG0723DH00001S_PART7},{KT=DUMMY},{PARTNUMBER=DSG0723DH00001S},{DESCRIPTION=Standard E
100
AcDbAttributeDefinition
  3

  2
PSOL_1
 70
     9
280
     0
  0
ATTDEF
  5
CA
330
B6
100
AcDbEntity
  8
AM_6
100
AcDbText
 10
41.6875000000002
 20
15.81249999999912
 30
0.0
 40
0.5
  1
ncy Gas/Electric Direct-Drive Packaged Rooftop Unit},{OVERALL_DEPTH=48.375},{OVERALL_HEIGHT=43.500},{OVERALL_WIDTH=74.000},{URL=https://daikincomfort.com},{RFA_FAMILY=Download Revit Family (RFA)},{ORDERNO=6Ton_208-230V_3Ph_Standard-ESP_High-Heat_DSG
100
AcDbAttributeDefinition
  3

  2
PSOL_2
 70
     9
280
     0
  0
ATTDEF
  5
CB
330
B6
100
AcDbEntity
  8
AM_6
100
AcDbText
 10
41.6875000000002
 20
15.31249999999912
 30
0.0
 40
0.5
  1
00001S},{ACTUAL_SUPPLY_AIR_FLOW=1800},{AMBIENT_TEMPERATURE=0},{APPARENT_POWER=16627.6877526612},{ASSEMBLY_CODE=D3050200},{ASSEMBLY_HEIGHT_OFFSET=0},{ASSEMBLY_MOUNTED_ON_CURB=0},{BASE_RAIL_HEIGHT=0.34375},{BASE_RAIL_THICKNESS=0.0286458333333333},{BOT
100
AcDbAttributeDefinition
  3

  2
PSOL_3
 70
     9
280
     0
  0
ATTDEF
  5
CC
330
B6
100
AcDbEntity
  8
AM_6
100
AcDbText
 10
41.6875000000002
 20
14.81249999999912
 30
0.0
 40
0.5
  1
NDENSATE_DRAIN_CONNECTION_HORIZONTAL_OFFSET=1.625},{BOTTOM_CONDENSATE_DRAIN_CONNECTION_VERTICAL_OFFSET=1.625},{CATEGORY=Mechanical Equipment},{CLEARANCE_VISIBILITY=1},{COIL_AIR_PRESSURE_DROP=0},{COMPRESSOR_LOCKED_ROTOR_AMPS=155},{COMPRESSOR_RATED_LO
100
AcDbAttributeDefinition
  3

  2
PSOL_4
 70
     9
280
     0
  0
ATTDEF
  5
CD
330
B6
100
AcDbEntity
  8
AM_6
100
AcDbText
 10
41.6875000000002
 20
14.31249999999912
 30
0.0
 40
0.5
  1
S=16.1},{COMPRESSOR_TYPE=Scroll},{CONDENSATE_DRAIN_CONNECTION_DIAMETER=0.75},{CONDENSATE_DRAIN_CONNECTION_RADIUS=0.375},{CONDENSER_FAN_MOTOR_HORSEPOWER=246.080957622149},{CONDUIT_A_VERTICAL_OFFSET=0.375},{CONDUIT_B_VERTICAL_OFFSET=0.625},{CONDUIT_CO
100
AcDbAttributeDefinition
  3

  2
PSOL_5
 70
     9
280
     0
  0
ATTDEF
  5
CE
330
B6
100
AcDbEntity
  8
AM_6
100
AcDbText
 10
41.6875000000002
 20
13.81249999999912
 30
0.0
 40
0.5
  1
ON_RADIUS_A=0.25},{CONDUIT_CONNECTION_RADIUS_B=0.25},{CONDUIT_CONNECTION_SIZE_A=0.5},{CONDUIT_CONNECTION_SIZE_B=0.5},{CONDUIT_HORIZONTAL_OFFSET=3.9609375},{COOLING_ENTERING_DRY_BULB_TEMPERATURE=0},{COOLING_ENTERING_WET_BULB_TEMPERATURE=0},{COOLING_L
100
AcDbAttributeDefinition
  3

  2
PSOL_6
 70
     9
280
     0
  0
ATTDEF
  5
CF
330
B6
100
AcDbEntity
  8
AM_6
100
AcDbText
 10
41.6875000000002
 20
13.31249999999912
 30
0.0
 40
0.5
  1
_DRY_BULB_TEMPERATURE=0},{COOLING_LEAVING_WET_BULB_TEMPERATURE=0},{COST=0},{CURB_HEIGHT=0},{DEFAULT_ELEVATION=0},{DESIGN_RETURN_AIR_FLOW=0},{DESIGN_SUPPLY_AIR_FLOW=0},{DOWNFLOW_DUCT_VERTICAL_OFFSET=0.442708333333333},{DOWNFLOW_OPTION=1},{DOWNFLOW_RE
100
AcDbAttributeDefinition
  3

  2
PSOL_7
 70
     9
280
     0
  0
ATTDEF
  5
D0
330
B6
100
AcDbEntity
  8
AM_6
100
AcDbText
 10
41.6875000000002
 20
12.81249999999912
 30
0.0
 40
0.5
  1
IR_CONNECTION_HEIGHT=25},{DOWNFLOW_RETURN_AIR_CONNECTION_WIDTH=11},{DOWNFLOW_RETURN_DUCT_HORIZONTAL_OFFSET=0.486979166666667},{DOWNFLOW_SUPPLY_AIR_CONNECTION_HEIGHT=12},{DOWNFLOW_SUPPLY_AIR_CONNECTION_WIDTH=17},{DOWNFLOW_SUPPLY_DUCT_HORIZONTAL_OFFSE
100
AcDbAttributeDefinition
  3

  2
PSOL_8
 70
     9
280
     0
  0
ATTDEF
  5
D1
330
B6
100
AcDbEntity
  8
AM_6
100
AcDbText
 10
41.6875000000002
 20
12.31249999999912
 30
0.0
 40
0.5
  1
5416666666667},{DRAIN_FLOW=0},{DUCT_ANGLE=0},{ENCLOSURE_DEPTH=3.96875},{ENCLOSURE_WIDTH=6.11458333333333},{ENGWORKS_GLOBAL=www.ENGworksGlobal.com},{EVAPORATOR_FAN_MOTOR_HORSEPOWER=894.839845898724},{EVAPORATOR_FAN_TYPE=Direct Drive - Standard},{FACE
100
AcDbAttributeDefinition
  3

  2
PSOL_9
 70
     9
280
     0
  0
ATTDEF
  5
D2
330
B6
100
AcDbEntity
  8
AM_6
100
AcDbText
 10
41.6875000000002
 20
11.81249999999912
 30
0.0
 40
0.5
  1
ITY__FPM_=0},{FAN_DIAMETER=1.83333333333333},{FAN_OFFSET=1.375},{FAN_RADIUS=0.916666666666667},{FEET_PRESSURE_DROP=0},{FILTER_SIZE=14 X 20 X 2, 20 X 20 X 2},{FREQUENCY=60},{GAS_ENTRY_RADIUS=0.25},{GAS_ENTRY_SIZE=0.5},{HEATING_ENTERING_DRY_BULB_TEMPE
100
AcDbAttributeDefinition
  3

  2
PSOL_10
 70
     9
280
     0
  0
ATTDEF
  5
D3
330
B6
100
AcDbEntity
  8
AM_6
100
AcDbText
 10
41.6875000000002
 20
11.31249999999912
 30
0.0
 40
0.5
  1
=0},{HEATING_ENTERING_WET_BULB_TEMPERATURE=0},{HEATING_LEAVING_DRY_BULB_TEMPERATURE=0},{HEATING_LEAVING_WET_BULB_TEMPERATURE=0},{HORIZONTAL_RETURN_AIR_CONNECTION_HEIGHT=25},{HORIZONTAL_RETURN_AIR_CONNECTION_WIDTH=11},{HORIZONTAL_SUPPLY_AIR_CONNECTIO
100
AcDbAttributeDefinition
  3

  2
PSOL_11
 70
     9
280
     0
  0
ATTDEF
  5
D4
330
B6
100
AcDbEntity
  8
AM_6
100
AcDbText
 10
41.6875000000002
 20
10.81249999999912
 30
0.0
 40
0.5
  1
HT=12},{HORIZONTAL_SUPPLY_AIR_CONNECTION_WIDTH=17},{LATENT_COOLING_CAPACITY=0},{LOAD_SUB_CLASSIFICATION_MOTOR=1},{MANUFACTURER=Daikin},{MASSUNIT=1},{MAXIMUM_AIR_FLOW=2700},{MAXIMUM_CLEARANCE=3},{MAXIMUM_HEATING_INPUT__MBH_=140},{MAXIMUM_HEATING_OUTP
100
AcDbAttributeDefinition
  3

  2
PSOL_12
 70
     9
280
     0
  0
ATTDEF
  5
D5
330
B6
100
AcDbEntity
  8
AM_6
100
AcDbText
 10
41.6875000000002
 20
10.31249999999912
 30
0.0
 40
0.5
  1
H_=112},{MAXIMUM_OVERCURRENT_PROTECTION=40},{MINIMUM_AIR_FLOW=1800},{MINIMUM_CIRCUIT_AMPS=27.2},{MINIMUM_CLEARANCE=2},{MINIMUM_HEATING_INPUT__MBH_=105},{MINIMUM_HEATING_OUTPUT__MBH_=84},{MODEL=DSG0723DH00001S},{NOMINAL_COOLING_CAPACITY=69000},{NOMIN
100
AcDbAttributeDefinition
  3

  2
PSOL_13
 70
     9
280
     0
  0
ATTDEF
  5
D6
330
B6
100
AcDbEntity
  8
AM_6
100
AcDbText
 10
41.6875000000002
 20
9.812499999999115
 30
0.0
 40
0.5
  1
LING_CAPACITY__TONS_=6},{NOMINAL_HEATING_CAPACITY=0},{NUMBER_OF_POLES=3},{OMNICLASS_NUMBER=23.75.10.24.21.27.14},{OMNICLASS_TITLE=Packaged Rooftop Air Conditioning Units},{PARTTYPE=Normal},{PHASE=3},{PRODUCT_PAGE_URL=https://www.daikinac.com/content
100
AcDbAttributeDefinition
  3

  2
PSOL_14
 70
     9
280
     0
  0
ATTDEF
  5
D7
330
B6
100
AcDbEntity
  8
AM_6
100
AcDbText
 10
41.6875000000002
 20
9.312499999999115
 30
0.0
 40
0.5
  1
-commercial/packaged-hvac-systems/dsg-series-3-6-tons-packaged-gaselectric/},{REFRIGERANT_CHARGE=5.1875},{REFRIGERANT_CHARGE_VALUE=5.1875},{REFRIGERANT_USED=R-32},{RETURN_AIR_CONNECTION_HEIGHT=25},{RETURN_AIR_CONNECTION_HORIZONTAL_CENTER_OFFSET=1.02
100
AcDbAttributeDefinition
  3

  2
PSOL_15
 70
     9
280
     0
  0
ATTDEF
  5
D8
330
B6
100
AcDbEntity
  8
AM_6
100
AcDbText
 10
41.6875000000002
 20
8.812499999999115
 30
0.0
 40
0.5
  1
333333},{RETURN_AIR_CONNECTION_VERTICAL_CENTER_OFFSET=1.484375},{RETURN_AIR_CONNECTION_WIDTH=11},{RETURN_AIR_PRESSURE_DROP=0},{SENSIBLE_COOLING_CAPACITY=0},{SERIES=DSG},{SIDE_CONDENSATE_DRAIN_CONNECTION_HORIZONTAL_OFFSET=1.66666666666667},{SIDE_COND
100
AcDbAttributeDefinition
  3

  2
PSOL_16
 70
     9
280
     0
  0
ATTDEF
  5
D9
330
B6
100
AcDbEntity
  8
AM_6
100
AcDbText
 10
41.6875000000002
 20
8.312499999999115
 30
0.0
 40
0.5
  1
_DRAIN_CONNECTION_VERTICAL_OFFSET=0.708333333333333},{SIDE_DUCT_VERTICAL_OFFSET=0.515625},{SIDE_RETURN_DUCT_HORIZONTAL_OFFSET=0.416666666666667},{SIDE_SUPPLY_DUCT_HORIZONTAL_OFFSET=0.614583333333333},{SIDEFLOW_OPTION=0},{STANDARDS=AHRI Certified; ET
100
AcDbAttributeDefinition
  3

  2
PSOL_17
 70
     9
280
     0
  0
ATTDEF
  5
DA
330
B6
100
AcDbEntity
  8
AM_6
100
AcDbText
 10
41.6875000000002
 20
7.812499999999115
 30
0.0
 40
0.5
  1
ed},{SUPPLY_AIR_CONNECTION_HEIGHT=12},{SUPPLY_AIR_CONNECTION_HORIZONTAL_CENTER_OFFSET=2.68229166666667},{SUPPLY_AIR_CONNECTION_VERTICAL_CENTER_OFFSET=0.942708333333333},{SUPPLY_AIR_CONNECTION_WIDTH=17},{SUPPLY_AIR_FLOW_STATUS=Design Supply Air Flow 
100
AcDbAttributeDefinition
  3

  2
PSOL_18
 70
     9
280
     0
  0
ATTDEF
  5
DB
330
B6
100
AcDbEntity
  8
AM_6
100
AcDbText
 10
41.6875000000002
 20
7.312499999999115
 30
0.0
 40
0.5
  1
Short of Minimum Recommended},{SUPPLY_AIR_PRESSURE_DROP=0},{SYSTEM_PERFORMANCE_EER=11.8},{SYSTEM_PERFORMANCE_EER2=N/A},{SYSTEM_PERFORMANCE_IEER=16.7},{SYSTEM_PERFORMANCE_SEER2=N/A},{TOTAL_COOLING_CAPACITY=0},{TOTAL_STATIC_PRESSURE=0},{UNIT_WEIGHT=62
100
AcDbAttributeDefinition
  3

  2
PSOL_19
 70
     9
280
     0
  0
ATTDEF
  5
DC
330
B6
100
AcDbEntity
  8
AM_6
100
AcDbText
 10
41.6875000000002
 20
6.812499999999115
 30
0.0
 40
0.5
  1
IT_WEIGHT_VALUE=626},{VERSION=1},{VOLTAGE=240},{VOLTAGE_COMMENTS=208 VAC to 230 VAC},{DEFAULTSORTATTR=752},{RFA_FAMILY_=../../../_pool_/d3/37/rooftop_unit-gas_electric-daikin-dsg_3-6_ton.zip},{RFA_FAMILY_ENG=../../../_pool_/d3/37/rooftop_unit-gas_el
100
AcDbAttributeDefinition
  3

  2
PSOL_20
 70
     9
280
     0
  0
ATTDEF
  5
DD
330
B6
100
AcDbEntity
  8
AM_6
100
AcDbText
 10
41.6875000000002
 20
6.312499999999115
 30
0.0
 40
0.5
  1
-daikin-dsg_3-6_ton.zip},{REVIT_FAMILY_DOWNLOAD=../../../_pool_/d3/37/rooftop_unit-gas_electric-daikin-dsg_3-6_ton.zip}
100
AcDbAttributeDefinition
  3

  2
PSOL_21
 70
     9
280
     0
  0
LINE
  5
DE
330
B6
100
AcDbEntity
  8
AM_0
100
AcDbLine
 10
-36.68749999999973
 20
23.81249999999911
 30
0.0
 11
-36.68749999999973
 21
-23.81250000000098
 31
0.0
  0
LINE
  5
DF
330
B6
100
AcDbEntity
  8
AM_0
100
AcDbLine
 10
36.6875000000002
 20
23.81249999999912
 30
0.0
 11
-36.68749999999973
 21
23.81249999999911
 31
0.0
  0
LINE
  5
E0
330
B6
100
AcDbEntity
  8
AM_0
100
AcDbLine
 10
-36.68749999999973
 20
-23.81250000000098
 30
0.0
 11
36.6875000000002
 21
-23.81250000000098
 31
0.0
  0
LINE
  5
E1
330
B6
100
AcDbEntity
  8
AM_0
100
AcDbLine
 10
36.6875000000002
 20
-23.81250000000098
 30
0.0
 11
36.6875000000002
 21
23.81249999999912
 31
0.0
  0
ENDBLK
  5
B9
330
B6
100
AcDbEntity
  8
0
100
AcDbBlockEnd
  0
BLOCK
  5
E4
330
E2
100
AcDbEntity
  8
0
100
AcDbBlockBegin
  2
3_DSG0723DH00001S_PART6_0_in_DSG0723DH00001S_4
 70
     2
 10
0.0
 20
0.0
 30
0.0
  3
3_DSG0723DH00001S_PART6_0_in_DSG0723DH00001S_4
  1

  0
ATTDEF
  5
E6
330
E2
100
AcDbEntity
  8
AM_6
100
AcDbText
 10
36.37500000000087
 20
17.31249999999965
 30
0.0
 40
0.5
  1
DSG0723DH00001S_PART6
100
AcDbAttributeDefinition
  3

  2
NB
 70
     8
280
     0
  0
ATTDEF
  5
E7
330
E2
100
AcDbEntity
  8
AM_6
100
AcDbText
 10
36.37500000000087
 20
16.81249999999965
 30
0.0
 40
0.5
  1

100
AcDbAttributeDefinition
  3

  2
NN
 70
     8
280
     0
  0
ATTDEF
  5
E8
330
E2
100
AcDbEntity
  8
AM_6
100
AcDbText
 10
36.37500000000087
 20
16.31249999999965
 30
0.0
 40
0.5
  1

100
AcDbAttributeDefinition
  3

  2
NT
 70
     8
280
     0
  0
ATTDEF
  5
E9
330
E2
100
AcDbEntity
  8
AM_6
100
AcDbText
 10
36.37500000000087
 20
15.81249999999965
 30
0.0
 40
0.5
  1
$PARTNUMBER._PART6
100
AcDbAttributeDefinition
  3

  2
NBSYN
 70
     8
280
     0
  0
ATTDEF
  5
EA
330
E2
100
AcDbEntity
  8
AM_6
100
AcDbText
 10
36.37500000000087
 20
15.31249999999965
 30
0.0
 40
0.5
  1
DSG0723DH00001S_PART6
100
AcDbAttributeDefinition
  3

  2
LINA
 70
     8
280
     0
  0
ATTDEF
  5
EB
330
E2
100
AcDbEntity
  8
AM_6
100
AcDbText
 10
36.37500000000087
 20
14.81249999999965
 30
0.0
 40
0.5
  1
Daikin
100
AcDbAttributeDefinition
  3

  2
CATALOG
 70
     8
280
     0
  0
ATTDEF
  5
EC
330
E2
100
AcDbEntity
  8
AM_6
100
AcDbText
 10
36.37500000000087
 20
14.31249999999965
 30
0.0
 40
0.5
  1
DSG0723DH00001S
100
AcDbAttributeDefinition
  3

  2
PARTNUMBER
 70
     8
280
     0
  0
ATTDEF
  5
ED
330
E2
100
AcDbEntity
  8
AM_6
100
AcDbText
 10
36.37500000000087
 20
13.81249999999965
 30
0.0
 40
0.5
  1
Standard Efficiency Gas/Electric Direct-Drive Packaged Rooftop Unit
100
AcDbAttributeDefinition
  3

  2
DESCRIPTION
 70
     8
280
     0
  0
ATTDEF
  5
EE
330
E2
100
AcDbEntity
  8
AM_6
100
AcDbText
 10
36.37500000000087
 20
13.31249999999965
 30
0.0
 40
0.5
  1
48.375
100
AcDbAttributeDefinition
  3

  2
OVERALL_DEPTH
 70
     8
280
     0
  0
ATTDEF
  5
EF
330
E2
100
AcDbEntity
  8
AM_6
100
AcDbText
 10
36.37500000000087
 20
12.81249999999965
 30
0.0
 40
0.5
  1
43.500
100
AcDbAttributeDefinition
  3

  2
OVERALL_HEIGHT
 70
     8
280
     0
  0
ATTDEF
  5
F0
330
E2
100
AcDbEntity
  8
AM_6
100
AcDbText
 10
36.37500000000087
 20
12.31249999999965
 30
0.0
 40
0.5
  1
74.000
100
AcDbAttributeDefinition
  3

  2
OVERALL_WIDTH
 70
     8
280
     0
  0
ATTDEF
  5
F1
330
E2
100
AcDbEntity
  8
AM_6
100
AcDbText
 10
36.37500000000087
 20
11.81249999999965
 30
0.0
 40
0.5
  1
https://daikincomfort.com
100
AcDbAttributeDefinition
  3

  2
URL
 70
     8
280
     0
  0
ATTDEF
  5
F2
330
E2
100
AcDbEntity
  8
AM_6
100
AcDbText
 10
36.37500000000087
 20
11.31249999999965
 30
0.0
 40
0.5
  1
Download Revit Family (RFA)
100
AcDbAttributeDefinition
  3

  2
RFA_FAMILY
 70
     8
280
     0
  0
ATTDEF
  5
F3
330
E2
100
AcDbEntity
  8
AM_6
100
AcDbText
 10
36.37500000000087
 20
10.81249999999965
 30
0.0
 40
0.5
  1
daikin
100
AcDbAttributeDefinition
  3

  2
COMPANY
 70
     8
280
     0
  0
ATTDEF
  5
F4
330
E2
100
AcDbEntity
  8
AM_6
100
AcDbText
 10
36.37500000000087
 20
10.31249999999965
 30
0.0
 40
0.5
  1
{$CADENAS_DATA/23d-libs/daikin/light20commercial20rooftop20package20units/gas-electric/dsg/rooftop_unit-gas_electric-daikin-dsg_3-6_ton.prj},240 {VTYP=3D},{NB=DSG0723DH00001S_PART6},{LINA=DSG0723DH00001S_PART6},{NN=Rooftop_Unit-Gas_Electric-Daikin-D
100
AcDbAttributeDefinition
  3

  2
PSOL_0
 70
     9
280
     0
  0
ATTDEF
  5
F5
330
E2
100
AcDbEntity
  8
AM_6
100
AcDbText
 10
36.37500000000087
 20
9.812499999999648
 30
0.0
 40
0.5
  1
_Ton_PART6},{NOPRJ=TRUE},{DATE=03.06.2026 19:23:11},{GEOMDATE=10.10.2025 10:56:44},{VERSION=},{LINEID=300},{WBVAR=},{WBNUMERIC=}  {NB=DSG0723DH00001S_PART6},{LINA=DSG0723DH00001S_PART6},{KT=DUMMY},{PARTNUMBER=DSG0723DH00001S},{DESCRIPTION=Standard E
100
AcDbAttributeDefinition
  3

  2
PSOL_1
 70
     9
280
     0
  0
ATTDEF
  5
F6
330
E2
100
AcDbEntity
  8
AM_6
100
AcDbText
 10
36.37500000000087
 20
9.312499999999648
 30
0.0
 40
0.5
  1
ncy Gas/Electric Direct-Drive Packaged Rooftop Unit},{OVERALL_DEPTH=48.375},{OVERALL_HEIGHT=43.500},{OVERALL_WIDTH=74.000},{URL=https://daikincomfort.com},{RFA_FAMILY=Download Revit Family (RFA)},{ORDERNO=6Ton_208-230V_3Ph_Standard-ESP_High-Heat_DSG
100
AcDbAttributeDefinition
  3

  2
PSOL_2
 70
     9
280
     0
  0
ATTDEF
  5
F7
330
E2
100
AcDbEntity
  8
AM_6
100
AcDbText
 10
36.37500000000087
 20
8.812499999999648
 30
0.0
 40
0.5
  1
00001S},{ACTUAL_SUPPLY_AIR_FLOW=1800},{AMBIENT_TEMPERATURE=0},{APPARENT_POWER=16627.6877526612},{ASSEMBLY_CODE=D3050200},{ASSEMBLY_HEIGHT_OFFSET=0},{ASSEMBLY_MOUNTED_ON_CURB=0},{BASE_RAIL_HEIGHT=0.34375},{BASE_RAIL_THICKNESS=0.0286458333333333},{BOT
100
AcDbAttributeDefinition
  3

  2
PSOL_3
 70
     9
280
     0
  0
ATTDEF
  5
F8
330
E2
100
AcDbEntity
  8
AM_6
100
AcDbText
 10
36.37500000000087
 20
8.312499999999648
 30
0.0
 40
0.5
  1
NDENSATE_DRAIN_CONNECTION_HORIZONTAL_OFFSET=1.625},{BOTTOM_CONDENSATE_DRAIN_CONNECTION_VERTICAL_OFFSET=1.625},{CATEGORY=Mechanical Equipment},{CLEARANCE_VISIBILITY=1},{COIL_AIR_PRESSURE_DROP=0},{COMPRESSOR_LOCKED_ROTOR_AMPS=155},{COMPRESSOR_RATED_LO
100
AcDbAttributeDefinition
  3

  2
PSOL_4
 70
     9
280
     0
  0
ATTDEF
  5
F9
330
E2
100
AcDbEntity
  8
AM_6
100
AcDbText
 10
36.37500000000087
 20
7.812499999999648
 30
0.0
 40
0.5
  1
S=16.1},{COMPRESSOR_TYPE=Scroll},{CONDENSATE_DRAIN_CONNECTION_DIAMETER=0.75},{CONDENSATE_DRAIN_CONNECTION_RADIUS=0.375},{CONDENSER_FAN_MOTOR_HORSEPOWER=246.080957622149},{CONDUIT_A_VERTICAL_OFFSET=0.375},{CONDUIT_B_VERTICAL_OFFSET=0.625},{CONDUIT_CO
100
AcDbAttributeDefinition
  3

  2
PSOL_5
 70
     9
280
     0
  0
ATTDEF
  5
FA
330
E2
100
AcDbEntity
  8
AM_6
100
AcDbText
 10
36.37500000000087
 20
7.312499999999648
 30
0.0
 40
0.5
  1
ON_RADIUS_A=0.25},{CONDUIT_CONNECTION_RADIUS_B=0.25},{CONDUIT_CONNECTION_SIZE_A=0.5},{CONDUIT_CONNECTION_SIZE_B=0.5},{CONDUIT_HORIZONTAL_OFFSET=3.9609375},{COOLING_ENTERING_DRY_BULB_TEMPERATURE=0},{COOLING_ENTERING_WET_BULB_TEMPERATURE=0},{COOLING_L
100
AcDbAttributeDefinition
  3

  2
PSOL_6
 70
     9
280
     0
  0
ATTDEF
  5
FB
330
E2
100
AcDbEntity
  8
AM_6
100
AcDbText
 10
36.37500000000087
 20
6.812499999999648
 30
0.0
 40
0.5
  1
_DRY_BULB_TEMPERATURE=0},{COOLING_LEAVING_WET_BULB_TEMPERATURE=0},{COST=0},{CURB_HEIGHT=0},{DEFAULT_ELEVATION=0},{DESIGN_RETURN_AIR_FLOW=0},{DESIGN_SUPPLY_AIR_FLOW=0},{DOWNFLOW_DUCT_VERTICAL_OFFSET=0.442708333333333},{DOWNFLOW_OPTION=1},{DOWNFLOW_RE
100
AcDbAttributeDefinition
  3

  2
PSOL_7
 70
     9
280
     0
  0
ATTDEF
  5
FC
330
E2
100
AcDbEntity
  8
AM_6
100
AcDbText
 10
36.37500000000087
 20
6.312499999999648
 30
0.0
 40
0.5
  1
IR_CONNECTION_HEIGHT=25},{DOWNFLOW_RETURN_AIR_CONNECTION_WIDTH=11},{DOWNFLOW_RETURN_DUCT_HORIZONTAL_OFFSET=0.486979166666667},{DOWNFLOW_SUPPLY_AIR_CONNECTION_HEIGHT=12},{DOWNFLOW_SUPPLY_AIR_CONNECTION_WIDTH=17},{DOWNFLOW_SUPPLY_DUCT_HORIZONTAL_OFFSE
100
AcDbAttributeDefinition
  3

  2
PSOL_8
 70
     9
280
     0
  0
ATTDEF
  5
FD
330
E2
100
AcDbEntity
  8
AM_6
100
AcDbText
 10
36.37500000000087
 20
5.812499999999648
 30
0.0
 40
0.5
  1
5416666666667},{DRAIN_FLOW=0},{DUCT_ANGLE=0},{ENCLOSURE_DEPTH=3.96875},{ENCLOSURE_WIDTH=6.11458333333333},{ENGWORKS_GLOBAL=www.ENGworksGlobal.com},{EVAPORATOR_FAN_MOTOR_HORSEPOWER=894.839845898724},{EVAPORATOR_FAN_TYPE=Direct Drive - Standard},{FACE
100
AcDbAttributeDefinition
  3

  2
PSOL_9
 70
     9
280
     0
  0
ATTDEF
  5
FE
330
E2
100
AcDbEntity
  8
AM_6
100
AcDbText
 10
36.37500000000087
 20
5.312499999999648
 30
0.0
 40
0.5
  1
ITY__FPM_=0},{FAN_DIAMETER=1.83333333333333},{FAN_OFFSET=1.375},{FAN_RADIUS=0.916666666666667},{FEET_PRESSURE_DROP=0},{FILTER_SIZE=14 X 20 X 2, 20 X 20 X 2},{FREQUENCY=60},{GAS_ENTRY_RADIUS=0.25},{GAS_ENTRY_SIZE=0.5},{HEATING_ENTERING_DRY_BULB_TEMPE
100
AcDbAttributeDefinition
  3

  2
PSOL_10
 70
     9
280
     0
  0
ATTDEF
  5
FF
330
E2
100
AcDbEntity
  8
AM_6
100
AcDbText
 10
36.37500000000087
 20
4.812499999999648
 30
0.0
 40
0.5
  1
=0},{HEATING_ENTERING_WET_BULB_TEMPERATURE=0},{HEATING_LEAVING_DRY_BULB_TEMPERATURE=0},{HEATING_LEAVING_WET_BULB_TEMPERATURE=0},{HORIZONTAL_RETURN_AIR_CONNECTION_HEIGHT=25},{HORIZONTAL_RETURN_AIR_CONNECTION_WIDTH=11},{HORIZONTAL_SUPPLY_AIR_CONNECTIO
100
AcDbAttributeDefinition
  3

  2
PSOL_11
 70
     9
280
     0
  0
ATTDEF
  5
100
330
E2
100
AcDbEntity
  8
AM_6
100
AcDbText
 10
36.37500000000087
 20
4.312499999999648
 30
0.0
 40
0.5
  1
HT=12},{HORIZONTAL_SUPPLY_AIR_CONNECTION_WIDTH=17},{LATENT_COOLING_CAPACITY=0},{LOAD_SUB_CLASSIFICATION_MOTOR=1},{MANUFACTURER=Daikin},{MASSUNIT=1},{MAXIMUM_AIR_FLOW=2700},{MAXIMUM_CLEARANCE=3},{MAXIMUM_HEATING_INPUT__MBH_=140},{MAXIMUM_HEATING_OUTP
100
AcDbAttributeDefinition
  3

  2
PSOL_12
 70
     9
280
     0
  0
ATTDEF
  5
101
330
E2
100
AcDbEntity
  8
AM_6
100
AcDbText
 10
36.37500000000087
 20
3.812499999999648
 30
0.0
 40
0.5
  1
H_=112},{MAXIMUM_OVERCURRENT_PROTECTION=40},{MINIMUM_AIR_FLOW=1800},{MINIMUM_CIRCUIT_AMPS=27.2},{MINIMUM_CLEARANCE=2},{MINIMUM_HEATING_INPUT__MBH_=105},{MINIMUM_HEATING_OUTPUT__MBH_=84},{MODEL=DSG0723DH00001S},{NOMINAL_COOLING_CAPACITY=69000},{NOMIN
100
AcDbAttributeDefinition
  3

  2
PSOL_13
 70
     9
280
     0
  0
ATTDEF
  5
102
330
E2
100
AcDbEntity
  8
AM_6
100
AcDbText
 10
36.37500000000087
 20
3.312499999999648
 30
0.0
 40
0.5
  1
LING_CAPACITY__TONS_=6},{NOMINAL_HEATING_CAPACITY=0},{NUMBER_OF_POLES=3},{OMNICLASS_NUMBER=23.75.10.24.21.27.14},{OMNICLASS_TITLE=Packaged Rooftop Air Conditioning Units},{PARTTYPE=Normal},{PHASE=3},{PRODUCT_PAGE_URL=https://www.daikinac.com/content
100
AcDbAttributeDefinition
  3

  2
PSOL_14
 70
     9
280
     0
  0
ATTDEF
  5
103
330
E2
100
AcDbEntity
  8
AM_6
100
AcDbText
 10
36.37500000000087
 20
2.812499999999648
 30
0.0
 40
0.5
  1
-commercial/packaged-hvac-systems/dsg-series-3-6-tons-packaged-gaselectric/},{REFRIGERANT_CHARGE=5.1875},{REFRIGERANT_CHARGE_VALUE=5.1875},{REFRIGERANT_USED=R-32},{RETURN_AIR_CONNECTION_HEIGHT=25},{RETURN_AIR_CONNECTION_HORIZONTAL_CENTER_OFFSET=1.02
100
AcDbAttributeDefinition
  3

  2
PSOL_15
 70
     9
280
     0
  0
ATTDEF
  5
104
330
E2
100
AcDbEntity
  8
AM_6
100
AcDbText
 10
36.37500000000087
 20
2.312499999999648
 30
0.0
 40
0.5
  1
333333},{RETURN_AIR_CONNECTION_VERTICAL_CENTER_OFFSET=1.484375},{RETURN_AIR_CONNECTION_WIDTH=11},{RETURN_AIR_PRESSURE_DROP=0},{SENSIBLE_COOLING_CAPACITY=0},{SERIES=DSG},{SIDE_CONDENSATE_DRAIN_CONNECTION_HORIZONTAL_OFFSET=1.66666666666667},{SIDE_COND
100
AcDbAttributeDefinition
  3

  2
PSOL_16
 70
     9
280
     0
  0
ATTDEF
  5
105
330
E2
100
AcDbEntity
  8
AM_6
100
AcDbText
 10
36.37500000000087
 20
1.812499999999648
 30
0.0
 40
0.5
  1
_DRAIN_CONNECTION_VERTICAL_OFFSET=0.708333333333333},{SIDE_DUCT_VERTICAL_OFFSET=0.515625},{SIDE_RETURN_DUCT_HORIZONTAL_OFFSET=0.416666666666667},{SIDE_SUPPLY_DUCT_HORIZONTAL_OFFSET=0.614583333333333},{SIDEFLOW_OPTION=0},{STANDARDS=AHRI Certified; ET
100
AcDbAttributeDefinition
  3

  2
PSOL_17
 70
     9
280
     0
  0
ATTDEF
  5
106
330
E2
100
AcDbEntity
  8
AM_6
100
AcDbText
 10
36.37500000000087
 20
1.312499999999648
 30
0.0
 40
0.5
  1
ed},{SUPPLY_AIR_CONNECTION_HEIGHT=12},{SUPPLY_AIR_CONNECTION_HORIZONTAL_CENTER_OFFSET=2.68229166666667},{SUPPLY_AIR_CONNECTION_VERTICAL_CENTER_OFFSET=0.942708333333333},{SUPPLY_AIR_CONNECTION_WIDTH=17},{SUPPLY_AIR_FLOW_STATUS=Design Supply Air Flow 
100
AcDbAttributeDefinition
  3

  2
PSOL_18
 70
     9
280
     0
  0
ATTDEF
  5
107
330
E2
100
AcDbEntity
  8
AM_6
100
AcDbText
 10
36.37500000000087
 20
0.8124999999996483
 30
0.0
 40
0.5
  1
Short of Minimum Recommended},{SUPPLY_AIR_PRESSURE_DROP=0},{SYSTEM_PERFORMANCE_EER=11.8},{SYSTEM_PERFORMANCE_EER2=N/A},{SYSTEM_PERFORMANCE_IEER=16.7},{SYSTEM_PERFORMANCE_SEER2=N/A},{TOTAL_COOLING_CAPACITY=0},{TOTAL_STATIC_PRESSURE=0},{UNIT_WEIGHT=62
100
AcDbAttributeDefinition
  3

  2
PSOL_19
 70
     9
280
     0
  0
ATTDEF
  5
108
330
E2
100
AcDbEntity
  8
AM_6
100
AcDbText
 10
36.37500000000087
 20
0.3124999999996483
 30
0.0
 40
0.5
  1
IT_WEIGHT_VALUE=626},{VERSION=1},{VOLTAGE=240},{VOLTAGE_COMMENTS=208 VAC to 230 VAC},{DEFAULTSORTATTR=752},{RFA_FAMILY_=../../../_pool_/d3/37/rooftop_unit-gas_electric-daikin-dsg_3-6_ton.zip},{RFA_FAMILY_ENG=../../../_pool_/d3/37/rooftop_unit-gas_el
100
AcDbAttributeDefinition
  3

  2
PSOL_20
 70
     9
280
     0
  0
ATTDEF
  5
109
330
E2
100
AcDbEntity
  8
AM_6
100
AcDbText
 10
36.37500000000087
 20
-0.1875000000003517
 30
0.0
 40
0.5
  1
-daikin-dsg_3-6_ton.zip},{REVIT_FAMILY_DOWNLOAD=../../../_pool_/d3/37/rooftop_unit-gas_electric-daikin-dsg_3-6_ton.zip}
100
AcDbAttributeDefinition
  3

  2
PSOL_21
 70
     9
280
     0
  0
LINE
  5
10A
330
E2
100
AcDbEntity
  8
AM_9
100
AcDbLine
 10
6.375000000000866
 20
6.312499999999529
 30
0.0
 11
31.37500000000082
 21
6.312499999999449
 31
0.0
  0
LINE
  5
10B
330
E2
100
AcDbEntity
  8
AM_9
100
AcDbLine
 10
6.375000000000905
 20
17.31249999999965
 30
0.0
 11
6.375000000000866
 21
6.312499999999529
 31
0.0
  0
LINE
  5
10C
330
E2
100
AcDbEntity
  8
AM_9
100
AcDbLine
 10
31.37500000000082
 20
6.312499999999449
 30
0.0
 11
31.37500000000087
 21
17.31249999999957
 31
0.0
  0
LINE
  5
10D
330
E2
100
AcDbEntity
  8
AM_9
100
AcDbLine
 10
31.37500000000087
 20
17.31249999999957
 30
0.0
 11
6.375000000000905
 21
17.31249999999965
 31
0.0
  0
ENDBLK
  5
E5
330
E2
100
AcDbEntity
  8
0
100
AcDbBlockEnd
  0
BLOCK
  5
110
330
10E
100
AcDbEntity
  8
0
100
AcDbBlockBegin
  2
4_DSG0723DH00001S_PART5_0_in_DSG0723DH00001S_4
 70
     2
 10
0.0
 20
0.0
 30
0.0
  3
4_DSG0723DH00001S_PART5_0_in_DSG0723DH00001S_4
  1

  0
ATTDEF
  5
112
330
10E
100
AcDbEntity
  8
AM_6
100
AcDbText
 10
36.37500000000079
 20
0.4687499999995982
 30
0.0
 40
0.5
  1
DSG0723DH00001S_PART5
100
AcDbAttributeDefinition
  3

  2
NB
 70
     8
280
     0
  0
ATTDEF
  5
113
330
10E
100
AcDbEntity
  8
AM_6
100
AcDbText
 10
36.37500000000079
 20
-0.0312500000004018
 30
0.0
 40
0.5
  1

100
AcDbAttributeDefinition
  3

  2
NN
 70
     8
280
     0
  0
ATTDEF
  5
114
330
10E
100
AcDbEntity
  8
AM_6
100
AcDbText
 10
36.37500000000079
 20
-0.5312500000004019
 30
0.0
 40
0.5
  1

100
AcDbAttributeDefinition
  3

  2
NT
 70
     8
280
     0
  0
ATTDEF
  5
115
330
10E
100
AcDbEntity
  8
AM_6
100
AcDbText
 10
36.37500000000079
 20
-1.031250000000402
 30
0.0
 40
0.5
  1
$PARTNUMBER._PART5
100
AcDbAttributeDefinition
  3

  2
NBSYN
 70
     8
280
     0
  0
ATTDEF
  5
116
330
10E
100
AcDbEntity
  8
AM_6
100
AcDbText
 10
36.37500000000079
 20
-1.531250000000402
 30
0.0
 40
0.5
  1
DSG0723DH00001S_PART5
100
AcDbAttributeDefinition
  3

  2
LINA
 70
     8
280
     0
  0
ATTDEF
  5
117
330
10E
100
AcDbEntity
  8
AM_6
100
AcDbText
 10
36.37500000000079
 20
-2.031250000000402
 30
0.0
 40
0.5
  1
Daikin
100
AcDbAttributeDefinition
  3

  2
CATALOG
 70
     8
280
     0
  0
ATTDEF
  5
118
330
10E
100
AcDbEntity
  8
AM_6
100
AcDbText
 10
36.37500000000079
 20
-2.531250000000402
 30
0.0
 40
0.5
  1
DSG0723DH00001S
100
AcDbAttributeDefinition
  3

  2
PARTNUMBER
 70
     8
280
     0
  0
ATTDEF
  5
119
330
10E
100
AcDbEntity
  8
AM_6
100
AcDbText
 10
36.37500000000079
 20
-3.031250000000402
 30
0.0
 40
0.5
  1
Standard Efficiency Gas/Electric Direct-Drive Packaged Rooftop Unit
100
AcDbAttributeDefinition
  3

  2
DESCRIPTION
 70
     8
280
     0
  0
ATTDEF
  5
11A
330
10E
100
AcDbEntity
  8
AM_6
100
AcDbText
 10
36.37500000000079
 20
-3.531250000000402
 30
0.0
 40
0.5
  1
48.375
100
AcDbAttributeDefinition
  3

  2
OVERALL_DEPTH
 70
     8
280
     0
  0
ATTDEF
  5
11B
330
10E
100
AcDbEntity
  8
AM_6
100
AcDbText
 10
36.37500000000079
 20
-4.031250000000401
 30
0.0
 40
0.5
  1
43.500
100
AcDbAttributeDefinition
  3

  2
OVERALL_HEIGHT
 70
     8
280
     0
  0
ATTDEF
  5
11C
330
10E
100
AcDbEntity
  8
AM_6
100
AcDbText
 10
36.37500000000079
 20
-4.531250000000401
 30
0.0
 40
0.5
  1
74.000
100
AcDbAttributeDefinition
  3

  2
OVERALL_WIDTH
 70
     8
280
     0
  0
ATTDEF
  5
11D
330
10E
100
AcDbEntity
  8
AM_6
100
AcDbText
 10
36.37500000000079
 20
-5.031250000000401
 30
0.0
 40
0.5
  1
https://daikincomfort.com
100
AcDbAttributeDefinition
  3

  2
URL
 70
     8
280
     0
  0
ATTDEF
  5
11E
330
10E
100
AcDbEntity
  8
AM_6
100
AcDbText
 10
36.37500000000079
 20
-5.531250000000401
 30
0.0
 40
0.5
  1
Download Revit Family (RFA)
100
AcDbAttributeDefinition
  3

  2
RFA_FAMILY
 70
     8
280
     0
  0
ATTDEF
  5
11F
330
10E
100
AcDbEntity
  8
AM_6
100
AcDbText
 10
36.37500000000079
 20
-6.031250000000401
 30
0.0
 40
0.5
  1
daikin
100
AcDbAttributeDefinition
  3

  2
COMPANY
 70
     8
280
     0
  0
ATTDEF
  5
120
330
10E
100
AcDbEntity
  8
AM_6
100
AcDbText
 10
36.37500000000079
 20
-6.531250000000401
 30
0.0
 40
0.5
  1
{$CADENAS_DATA/23d-libs/daikin/light20commercial20rooftop20package20units/gas-electric/dsg/rooftop_unit-gas_electric-daikin-dsg_3-6_ton.prj},240 {VTYP=3D},{NB=DSG0723DH00001S_PART5},{LINA=DSG0723DH00001S_PART5},{NN=Rooftop_Unit-Gas_Electric-Daikin-D
100
AcDbAttributeDefinition
  3

  2
PSOL_0
 70
     9
280
     0
  0
ATTDEF
  5
121
330
10E
100
AcDbEntity
  8
AM_6
100
AcDbText
 10
36.37500000000079
 20
-7.031250000000401
 30
0.0
 40
0.5
  1
_Ton_PART5},{NOPRJ=TRUE},{DATE=03.06.2026 19:23:11},{GEOMDATE=10.10.2025 10:56:44},{VERSION=},{LINEID=300},{WBVAR=},{WBNUMERIC=}  {NB=DSG0723DH00001S_PART5},{LINA=DSG0723DH00001S_PART5},{KT=DUMMY},{PARTNUMBER=DSG0723DH00001S},{DESCRIPTION=Standard E
100
AcDbAttributeDefinition
  3

  2
PSOL_1
 70
     9
280
     0
  0
ATTDEF
  5
122
330
10E
100
AcDbEntity
  8
AM_6
100
AcDbText
 10
36.37500000000079
 20
-7.531250000000401
 30
0.0
 40
0.5
  1
ncy Gas/Electric Direct-Drive Packaged Rooftop Unit},{OVERALL_DEPTH=48.375},{OVERALL_HEIGHT=43.500},{OVERALL_WIDTH=74.000},{URL=https://daikincomfort.com},{RFA_FAMILY=Download Revit Family (RFA)},{ORDERNO=6Ton_208-230V_3Ph_Standard-ESP_High-Heat_DSG
100
AcDbAttributeDefinition
  3

  2
PSOL_2
 70
     9
280
     0
  0
ATTDEF
  5
123
330
10E
100
AcDbEntity
  8
AM_6
100
AcDbText
 10
36.37500000000079
 20
-8.031250000000401
 30
0.0
 40
0.5
  1
00001S},{ACTUAL_SUPPLY_AIR_FLOW=1800},{AMBIENT_TEMPERATURE=0},{APPARENT_POWER=16627.6877526612},{ASSEMBLY_CODE=D3050200},{ASSEMBLY_HEIGHT_OFFSET=0},{ASSEMBLY_MOUNTED_ON_CURB=0},{BASE_RAIL_HEIGHT=0.34375},{BASE_RAIL_THICKNESS=0.0286458333333333},{BOT
100
AcDbAttributeDefinition
  3

  2
PSOL_3
 70
     9
280
     0
  0
ATTDEF
  5
124
330
10E
100
AcDbEntity
  8
AM_6
100
AcDbText
 10
36.37500000000079
 20
-8.531250000000401
 30
0.0
 40
0.5
  1
NDENSATE_DRAIN_CONNECTION_HORIZONTAL_OFFSET=1.625},{BOTTOM_CONDENSATE_DRAIN_CONNECTION_VERTICAL_OFFSET=1.625},{CATEGORY=Mechanical Equipment},{CLEARANCE_VISIBILITY=1},{COIL_AIR_PRESSURE_DROP=0},{COMPRESSOR_LOCKED_ROTOR_AMPS=155},{COMPRESSOR_RATED_LO
100
AcDbAttributeDefinition
  3

  2
PSOL_4
 70
     9
280
     0
  0
ATTDEF
  5
125
330
10E
100
AcDbEntity
  8
AM_6
100
AcDbText
 10
36.37500000000079
 20
-9.031250000000401
 30
0.0
 40
0.5
  1
S=16.1},{COMPRESSOR_TYPE=Scroll},{CONDENSATE_DRAIN_CONNECTION_DIAMETER=0.75},{CONDENSATE_DRAIN_CONNECTION_RADIUS=0.375},{CONDENSER_FAN_MOTOR_HORSEPOWER=246.080957622149},{CONDUIT_A_VERTICAL_OFFSET=0.375},{CONDUIT_B_VERTICAL_OFFSET=0.625},{CONDUIT_CO
100
AcDbAttributeDefinition
  3

  2
PSOL_5
 70
     9
280
     0
  0
ATTDEF
  5
126
330
10E
100
AcDbEntity
  8
AM_6
100
AcDbText
 10
36.37500000000079
 20
-9.531250000000401
 30
0.0
 40
0.5
  1
ON_RADIUS_A=0.25},{CONDUIT_CONNECTION_RADIUS_B=0.25},{CONDUIT_CONNECTION_SIZE_A=0.5},{CONDUIT_CONNECTION_SIZE_B=0.5},{CONDUIT_HORIZONTAL_OFFSET=3.9609375},{COOLING_ENTERING_DRY_BULB_TEMPERATURE=0},{COOLING_ENTERING_WET_BULB_TEMPERATURE=0},{COOLING_L
100
AcDbAttributeDefinition
  3

  2
PSOL_6
 70
     9
280
     0
  0
ATTDEF
  5
127
330
10E
100
AcDbEntity
  8
AM_6
100
AcDbText
 10
36.37500000000079
 20
-10.0312500000004
 30
0.0
 40
0.5
  1
_DRY_BULB_TEMPERATURE=0},{COOLING_LEAVING_WET_BULB_TEMPERATURE=0},{COST=0},{CURB_HEIGHT=0},{DEFAULT_ELEVATION=0},{DESIGN_RETURN_AIR_FLOW=0},{DESIGN_SUPPLY_AIR_FLOW=0},{DOWNFLOW_DUCT_VERTICAL_OFFSET=0.442708333333333},{DOWNFLOW_OPTION=1},{DOWNFLOW_RE
100
AcDbAttributeDefinition
  3

  2
PSOL_7
 70
     9
280
     0
  0
ATTDEF
  5
128
330
10E
100
AcDbEntity
  8
AM_6
100
AcDbText
 10
36.37500000000079
 20
-10.5312500000004
 30
0.0
 40
0.5
  1
IR_CONNECTION_HEIGHT=25},{DOWNFLOW_RETURN_AIR_CONNECTION_WIDTH=11},{DOWNFLOW_RETURN_DUCT_HORIZONTAL_OFFSET=0.486979166666667},{DOWNFLOW_SUPPLY_AIR_CONNECTION_HEIGHT=12},{DOWNFLOW_SUPPLY_AIR_CONNECTION_WIDTH=17},{DOWNFLOW_SUPPLY_DUCT_HORIZONTAL_OFFSE
100
AcDbAttributeDefinition
  3

  2
PSOL_8
 70
     9
280
     0
  0
ATTDEF
  5
129
330
10E
100
AcDbEntity
  8
AM_6
100
AcDbText
 10
36.37500000000079
 20
-11.0312500000004
 30
0.0
 40
0.5
  1
5416666666667},{DRAIN_FLOW=0},{DUCT_ANGLE=0},{ENCLOSURE_DEPTH=3.96875},{ENCLOSURE_WIDTH=6.11458333333333},{ENGWORKS_GLOBAL=www.ENGworksGlobal.com},{EVAPORATOR_FAN_MOTOR_HORSEPOWER=894.839845898724},{EVAPORATOR_FAN_TYPE=Direct Drive - Standard},{FACE
100
AcDbAttributeDefinition
  3

  2
PSOL_9
 70
     9
280
     0
  0
ATTDEF
  5
12A
330
10E
100
AcDbEntity
  8
AM_6
100
AcDbText
 10
36.37500000000079
 20
-11.5312500000004
 30
0.0
 40
0.5
  1
ITY__FPM_=0},{FAN_DIAMETER=1.83333333333333},{FAN_OFFSET=1.375},{FAN_RADIUS=0.916666666666667},{FEET_PRESSURE_DROP=0},{FILTER_SIZE=14 X 20 X 2, 20 X 20 X 2},{FREQUENCY=60},{GAS_ENTRY_RADIUS=0.25},{GAS_ENTRY_SIZE=0.5},{HEATING_ENTERING_DRY_BULB_TEMPE
100
AcDbAttributeDefinition
  3

  2
PSOL_10
 70
     9
280
     0
  0
ATTDEF
  5
12B
330
10E
100
AcDbEntity
  8
AM_6
100
AcDbText
 10
36.37500000000079
 20
-12.0312500000004
 30
0.0
 40
0.5
  1
=0},{HEATING_ENTERING_WET_BULB_TEMPERATURE=0},{HEATING_LEAVING_DRY_BULB_TEMPERATURE=0},{HEATING_LEAVING_WET_BULB_TEMPERATURE=0},{HORIZONTAL_RETURN_AIR_CONNECTION_HEIGHT=25},{HORIZONTAL_RETURN_AIR_CONNECTION_WIDTH=11},{HORIZONTAL_SUPPLY_AIR_CONNECTIO
100
AcDbAttributeDefinition
  3

  2
PSOL_11
 70
     9
280
     0
  0
ATTDEF
  5
12C
330
10E
100
AcDbEntity
  8
AM_6
100
AcDbText
 10
36.37500000000079
 20
-12.5312500000004
 30
0.0
 40
0.5
  1
HT=12},{HORIZONTAL_SUPPLY_AIR_CONNECTION_WIDTH=17},{LATENT_COOLING_CAPACITY=0},{LOAD_SUB_CLASSIFICATION_MOTOR=1},{MANUFACTURER=Daikin},{MASSUNIT=1},{MAXIMUM_AIR_FLOW=2700},{MAXIMUM_CLEARANCE=3},{MAXIMUM_HEATING_INPUT__MBH_=140},{MAXIMUM_HEATING_OUTP
100
AcDbAttributeDefinition
  3

  2
PSOL_12
 70
     9
280
     0
  0
ATTDEF
  5
12D
330
10E
100
AcDbEntity
  8
AM_6
100
AcDbText
 10
36.37500000000079
 20
-13.0312500000004
 30
0.0
 40
0.5
  1
H_=112},{MAXIMUM_OVERCURRENT_PROTECTION=40},{MINIMUM_AIR_FLOW=1800},{MINIMUM_CIRCUIT_AMPS=27.2},{MINIMUM_CLEARANCE=2},{MINIMUM_HEATING_INPUT__MBH_=105},{MINIMUM_HEATING_OUTPUT__MBH_=84},{MODEL=DSG0723DH00001S},{NOMINAL_COOLING_CAPACITY=69000},{NOMIN
100
AcDbAttributeDefinition
  3

  2
PSOL_13
 70
     9
280
     0
  0
ATTDEF
  5
12E
330
10E
100
AcDbEntity
  8
AM_6
100
AcDbText
 10
36.37500000000079
 20
-13.5312500000004
 30
0.0
 40
0.5
  1
LING_CAPACITY__TONS_=6},{NOMINAL_HEATING_CAPACITY=0},{NUMBER_OF_POLES=3},{OMNICLASS_NUMBER=23.75.10.24.21.27.14},{OMNICLASS_TITLE=Packaged Rooftop Air Conditioning Units},{PARTTYPE=Normal},{PHASE=3},{PRODUCT_PAGE_URL=https://www.daikinac.com/content
100
AcDbAttributeDefinition
  3

  2
PSOL_14
 70
     9
280
     0
  0
ATTDEF
  5
12F
330
10E
100
AcDbEntity
  8
AM_6
100
AcDbText
 10
36.37500000000079
 20
-14.0312500000004
 30
0.0
 40
0.5
  1
-commercial/packaged-hvac-systems/dsg-series-3-6-tons-packaged-gaselectric/},{REFRIGERANT_CHARGE=5.1875},{REFRIGERANT_CHARGE_VALUE=5.1875},{REFRIGERANT_USED=R-32},{RETURN_AIR_CONNECTION_HEIGHT=25},{RETURN_AIR_CONNECTION_HORIZONTAL_CENTER_OFFSET=1.02
100
AcDbAttributeDefinition
  3

  2
PSOL_15
 70
     9
280
     0
  0
ATTDEF
  5
130
330
10E
100
AcDbEntity
  8
AM_6
100
AcDbText
 10
36.37500000000079
 20
-14.5312500000004
 30
0.0
 40
0.5
  1
333333},{RETURN_AIR_CONNECTION_VERTICAL_CENTER_OFFSET=1.484375},{RETURN_AIR_CONNECTION_WIDTH=11},{RETURN_AIR_PRESSURE_DROP=0},{SENSIBLE_COOLING_CAPACITY=0},{SERIES=DSG},{SIDE_CONDENSATE_DRAIN_CONNECTION_HORIZONTAL_OFFSET=1.66666666666667},{SIDE_COND
100
AcDbAttributeDefinition
  3

  2
PSOL_16
 70
     9
280
     0
  0
ATTDEF
  5
131
330
10E
100
AcDbEntity
  8
AM_6
100
AcDbText
 10
36.37500000000079
 20
-15.0312500000004
 30
0.0
 40
0.5
  1
_DRAIN_CONNECTION_VERTICAL_OFFSET=0.708333333333333},{SIDE_DUCT_VERTICAL_OFFSET=0.515625},{SIDE_RETURN_DUCT_HORIZONTAL_OFFSET=0.416666666666667},{SIDE_SUPPLY_DUCT_HORIZONTAL_OFFSET=0.614583333333333},{SIDEFLOW_OPTION=0},{STANDARDS=AHRI Certified; ET
100
AcDbAttributeDefinition
  3

  2
PSOL_17
 70
     9
280
     0
  0
ATTDEF
  5
132
330
10E
100
AcDbEntity
  8
AM_6
100
AcDbText
 10
36.37500000000079
 20
-15.5312500000004
 30
0.0
 40
0.5
  1
ed},{SUPPLY_AIR_CONNECTION_HEIGHT=12},{SUPPLY_AIR_CONNECTION_HORIZONTAL_CENTER_OFFSET=2.68229166666667},{SUPPLY_AIR_CONNECTION_VERTICAL_CENTER_OFFSET=0.942708333333333},{SUPPLY_AIR_CONNECTION_WIDTH=17},{SUPPLY_AIR_FLOW_STATUS=Design Supply Air Flow 
100
AcDbAttributeDefinition
  3

  2
PSOL_18
 70
     9
280
     0
  0
ATTDEF
  5
133
330
10E
100
AcDbEntity
  8
AM_6
100
AcDbText
 10
36.37500000000079
 20
-16.0312500000004
 30
0.0
 40
0.5
  1
Short of Minimum Recommended},{SUPPLY_AIR_PRESSURE_DROP=0},{SYSTEM_PERFORMANCE_EER=11.8},{SYSTEM_PERFORMANCE_EER2=N/A},{SYSTEM_PERFORMANCE_IEER=16.7},{SYSTEM_PERFORMANCE_SEER2=N/A},{TOTAL_COOLING_CAPACITY=0},{TOTAL_STATIC_PRESSURE=0},{UNIT_WEIGHT=62
100
AcDbAttributeDefinition
  3

  2
PSOL_19
 70
     9
280
     0
  0
ATTDEF
  5
134
330
10E
100
AcDbEntity
  8
AM_6
100
AcDbText
 10
36.37500000000079
 20
-16.5312500000004
 30
0.0
 40
0.5
  1
IT_WEIGHT_VALUE=626},{VERSION=1},{VOLTAGE=240},{VOLTAGE_COMMENTS=208 VAC to 230 VAC},{DEFAULTSORTATTR=752},{RFA_FAMILY_=../../../_pool_/d3/37/rooftop_unit-gas_electric-daikin-dsg_3-6_ton.zip},{RFA_FAMILY_ENG=../../../_pool_/d3/37/rooftop_unit-gas_el
100
AcDbAttributeDefinition
  3

  2
PSOL_20
 70
     9
280
     0
  0
ATTDEF
  5
135
330
10E
100
AcDbEntity
  8
AM_6
100
AcDbText
 10
36.37500000000079
 20
-17.0312500000004
 30
0.0
 40
0.5
  1
-daikin-dsg_3-6_ton.zip},{REVIT_FAMILY_DOWNLOAD=../../../_pool_/d3/37/rooftop_unit-gas_electric-daikin-dsg_3-6_ton.zip}
100
AcDbAttributeDefinition
  3

  2
PSOL_21
 70
     9
280
     0
  0
LINE
  5
136
330
10E
100
AcDbEntity
  8
AM_9
100
AcDbLine
 10
19.3750000000008
 20
-16.53125000000051
 30
0.0
 11
31.37500000000075
 21
-16.53125000000055
 31
0.0
  0
LINE
  5
137
330
10E
100
AcDbEntity
  8
AM_9
100
AcDbLine
 10
19.37500000000087
 20
0.4687499999995982
 30
0.0
 11
19.3750000000008
 21
-16.53125000000051
 31
0.0
  0
LINE
  5
138
330
10E
100
AcDbEntity
  8
AM_9
100
AcDbLine
 10
31.37500000000075
 20
-16.53125000000055
 30
0.0
 11
31.37500000000079
 21
0.468749999999559
 31
0.0
  0
LINE
  5
139
330
10E
100
AcDbEntity
  8
AM_9
100
AcDbLine
 10
31.37500000000079
 20
0.468749999999559
 30
0.0
 11
19.37500000000087
 21
0.4687499999995982
 31
0.0
  0
ENDBLK
  5
111
330
10E
100
AcDbEntity
  8
0
100
AcDbBlockEnd
  0
BLOCK
  5
13C
330
13A
100
AcDbEntity
  8
0
100
AcDbBlockBegin
  2
5_DSG0723DH00001S_PART4_0_in_DSG0723DH00001S_4
 70
     2
 10
0.0
 20
0.0
 30
0.0
  3
5_DSG0723DH00001S_PART4_0_in_DSG0723DH00001S_4
  1

  0
ATTDEF
  5
13E
330
13A
100
AcDbEntity
  8
AM_6
100
AcDbText
 10
-31.68749999999965
 20
21.15624999999949
 30
0.0
 40
0.5
  1
DSG0723DH00001S_PART4
100
AcDbAttributeDefinition
  3

  2
NB
 70
     8
280
     0
  0
ATTDEF
  5
13F
330
13A
100
AcDbEntity
  8
AM_6
100
AcDbText
 10
-31.68749999999965
 20
20.65624999999949
 30
0.0
 40
0.5
  1

100
AcDbAttributeDefinition
  3

  2
NN
 70
     8
280
     0
  0
ATTDEF
  5
140
330
13A
100
AcDbEntity
  8
AM_6
100
AcDbText
 10
-31.68749999999965
 20
20.15624999999949
 30
0.0
 40
0.5
  1

100
AcDbAttributeDefinition
  3

  2
NT
 70
     8
280
     0
  0
ATTDEF
  5
141
330
13A
100
AcDbEntity
  8
AM_6
100
AcDbText
 10
-31.68749999999965
 20
19.65624999999949
 30
0.0
 40
0.5
  1
$PARTNUMBER._PART4
100
AcDbAttributeDefinition
  3

  2
NBSYN
 70
     8
280
     0
  0
ATTDEF
  5
142
330
13A
100
AcDbEntity
  8
AM_6
100
AcDbText
 10
-31.68749999999965
 20
19.15624999999949
 30
0.0
 40
0.5
  1
DSG0723DH00001S_PART4
100
AcDbAttributeDefinition
  3

  2
LINA
 70
     8
280
     0
  0
ATTDEF
  5
143
330
13A
100
AcDbEntity
  8
AM_6
100
AcDbText
 10
-31.68749999999965
 20
18.65624999999949
 30
0.0
 40
0.5
  1
Daikin
100
AcDbAttributeDefinition
  3

  2
CATALOG
 70
     8
280
     0
  0
ATTDEF
  5
144
330
13A
100
AcDbEntity
  8
AM_6
100
AcDbText
 10
-31.68749999999965
 20
18.15624999999949
 30
0.0
 40
0.5
  1
DSG0723DH00001S
100
AcDbAttributeDefinition
  3

  2
PARTNUMBER
 70
     8
280
     0
  0
ATTDEF
  5
145
330
13A
100
AcDbEntity
  8
AM_6
100
AcDbText
 10
-31.68749999999965
 20
17.65624999999949
 30
0.0
 40
0.5
  1
Standard Efficiency Gas/Electric Direct-Drive Packaged Rooftop Unit
100
AcDbAttributeDefinition
  3

  2
DESCRIPTION
 70
     8
280
     0
  0
ATTDEF
  5
146
330
13A
100
AcDbEntity
  8
AM_6
100
AcDbText
 10
-31.68749999999965
 20
17.15624999999949
 30
0.0
 40
0.5
  1
48.375
100
AcDbAttributeDefinition
  3

  2
OVERALL_DEPTH
 70
     8
280
     0
  0
ATTDEF
  5
147
330
13A
100
AcDbEntity
  8
AM_6
100
AcDbText
 10
-31.68749999999965
 20
16.65624999999949
 30
0.0
 40
0.5
  1
43.500
100
AcDbAttributeDefinition
  3

  2
OVERALL_HEIGHT
 70
     8
280
     0
  0
ATTDEF
  5
148
330
13A
100
AcDbEntity
  8
AM_6
100
AcDbText
 10
-31.68749999999965
 20
16.15624999999949
 30
0.0
 40
0.5
  1
74.000
100
AcDbAttributeDefinition
  3

  2
OVERALL_WIDTH
 70
     8
280
     0
  0
ATTDEF
  5
149
330
13A
100
AcDbEntity
  8
AM_6
100
AcDbText
 10
-31.68749999999965
 20
15.65624999999949
 30
0.0
 40
0.5
  1
https://daikincomfort.com
100
AcDbAttributeDefinition
  3

  2
URL
 70
     8
280
     0
  0
ATTDEF
  5
14A
330
13A
100
AcDbEntity
  8
AM_6
100
AcDbText
 10
-31.68749999999965
 20
15.15624999999949
 30
0.0
 40
0.5
  1
Download Revit Family (RFA)
100
AcDbAttributeDefinition
  3

  2
RFA_FAMILY
 70
     8
280
     0
  0
ATTDEF
  5
14B
330
13A
100
AcDbEntity
  8
AM_6
100
AcDbText
 10
-31.68749999999965
 20
14.65624999999949
 30
0.0
 40
0.5
  1
daikin
100
AcDbAttributeDefinition
  3

  2
COMPANY
 70
     8
280
     0
  0
ATTDEF
  5
14C
330
13A
100
AcDbEntity
  8
AM_6
100
AcDbText
 10
-31.68749999999965
 20
14.15624999999949
 30
0.0
 40
0.5
  1
{$CADENAS_DATA/23d-libs/daikin/light20commercial20rooftop20package20units/gas-electric/dsg/rooftop_unit-gas_electric-daikin-dsg_3-6_ton.prj},240 {VTYP=3D},{NB=DSG0723DH00001S_PART4},{LINA=DSG0723DH00001S_PART4},{NN=Rooftop_Unit-Gas_Electric-Daikin-D
100
AcDbAttributeDefinition
  3

  2
PSOL_0
 70
     9
280
     0
  0
ATTDEF
  5
14D
330
13A
100
AcDbEntity
  8
AM_6
100
AcDbText
 10
-31.68749999999965
 20
13.65624999999949
 30
0.0
 40
0.5
  1
_Ton_PART4},{NOPRJ=TRUE},{DATE=03.06.2026 19:23:11},{GEOMDATE=10.10.2025 10:56:44},{VERSION=},{LINEID=300},{WBVAR=},{WBNUMERIC=}  {NB=DSG0723DH00001S_PART4},{LINA=DSG0723DH00001S_PART4},{KT=DUMMY},{PARTNUMBER=DSG0723DH00001S},{DESCRIPTION=Standard E
100
AcDbAttributeDefinition
  3

  2
PSOL_1
 70
     9
280
     0
  0
ATTDEF
  5
14E
330
13A
100
AcDbEntity
  8
AM_6
100
AcDbText
 10
-31.68749999999965
 20
13.15624999999949
 30
0.0
 40
0.5
  1
ncy Gas/Electric Direct-Drive Packaged Rooftop Unit},{OVERALL_DEPTH=48.375},{OVERALL_HEIGHT=43.500},{OVERALL_WIDTH=74.000},{URL=https://daikincomfort.com},{RFA_FAMILY=Download Revit Family (RFA)},{ORDERNO=6Ton_208-230V_3Ph_Standard-ESP_High-Heat_DSG
100
AcDbAttributeDefinition
  3

  2
PSOL_2
 70
     9
280
     0
  0
ATTDEF
  5
14F
330
13A
100
AcDbEntity
  8
AM_6
100
AcDbText
 10
-31.68749999999965
 20
12.65624999999949
 30
0.0
 40
0.5
  1
00001S},{ACTUAL_SUPPLY_AIR_FLOW=1800},{AMBIENT_TEMPERATURE=0},{APPARENT_POWER=16627.6877526612},{ASSEMBLY_CODE=D3050200},{ASSEMBLY_HEIGHT_OFFSET=0},{ASSEMBLY_MOUNTED_ON_CURB=0},{BASE_RAIL_HEIGHT=0.34375},{BASE_RAIL_THICKNESS=0.0286458333333333},{BOT
100
AcDbAttributeDefinition
  3

  2
PSOL_3
 70
     9
280
     0
  0
ATTDEF
  5
150
330
13A
100
AcDbEntity
  8
AM_6
100
AcDbText
 10
-31.68749999999965
 20
12.15624999999949
 30
0.0
 40
0.5
  1
NDENSATE_DRAIN_CONNECTION_HORIZONTAL_OFFSET=1.625},{BOTTOM_CONDENSATE_DRAIN_CONNECTION_VERTICAL_OFFSET=1.625},{CATEGORY=Mechanical Equipment},{CLEARANCE_VISIBILITY=1},{COIL_AIR_PRESSURE_DROP=0},{COMPRESSOR_LOCKED_ROTOR_AMPS=155},{COMPRESSOR_RATED_LO
100
AcDbAttributeDefinition
  3

  2
PSOL_4
 70
     9
280
     0
  0
ATTDEF
  5
151
330
13A
100
AcDbEntity
  8
AM_6
100
AcDbText
 10
-31.68749999999965
 20
11.65624999999949
 30
0.0
 40
0.5
  1
S=16.1},{COMPRESSOR_TYPE=Scroll},{CONDENSATE_DRAIN_CONNECTION_DIAMETER=0.75},{CONDENSATE_DRAIN_CONNECTION_RADIUS=0.375},{CONDENSER_FAN_MOTOR_HORSEPOWER=246.080957622149},{CONDUIT_A_VERTICAL_OFFSET=0.375},{CONDUIT_B_VERTICAL_OFFSET=0.625},{CONDUIT_CO
100
AcDbAttributeDefinition
  3

  2
PSOL_5
 70
     9
280
     0
  0
ATTDEF
  5
152
330
13A
100
AcDbEntity
  8
AM_6
100
AcDbText
 10
-31.68749999999965
 20
11.15624999999949
 30
0.0
 40
0.5
  1
ON_RADIUS_A=0.25},{CONDUIT_CONNECTION_RADIUS_B=0.25},{CONDUIT_CONNECTION_SIZE_A=0.5},{CONDUIT_CONNECTION_SIZE_B=0.5},{CONDUIT_HORIZONTAL_OFFSET=3.9609375},{COOLING_ENTERING_DRY_BULB_TEMPERATURE=0},{COOLING_ENTERING_WET_BULB_TEMPERATURE=0},{COOLING_L
100
AcDbAttributeDefinition
  3

  2
PSOL_6
 70
     9
280
     0
  0
ATTDEF
  5
153
330
13A
100
AcDbEntity
  8
AM_6
100
AcDbText
 10
-31.68749999999965
 20
10.65624999999949
 30
0.0
 40
0.5
  1
_DRY_BULB_TEMPERATURE=0},{COOLING_LEAVING_WET_BULB_TEMPERATURE=0},{COST=0},{CURB_HEIGHT=0},{DEFAULT_ELEVATION=0},{DESIGN_RETURN_AIR_FLOW=0},{DESIGN_SUPPLY_AIR_FLOW=0},{DOWNFLOW_DUCT_VERTICAL_OFFSET=0.442708333333333},{DOWNFLOW_OPTION=1},{DOWNFLOW_RE
100
AcDbAttributeDefinition
  3

  2
PSOL_7
 70
     9
280
     0
  0
ATTDEF
  5
154
330
13A
100
AcDbEntity
  8
AM_6
100
AcDbText
 10
-31.68749999999965
 20
10.15624999999949
 30
0.0
 40
0.5
  1
IR_CONNECTION_HEIGHT=25},{DOWNFLOW_RETURN_AIR_CONNECTION_WIDTH=11},{DOWNFLOW_RETURN_DUCT_HORIZONTAL_OFFSET=0.486979166666667},{DOWNFLOW_SUPPLY_AIR_CONNECTION_HEIGHT=12},{DOWNFLOW_SUPPLY_AIR_CONNECTION_WIDTH=17},{DOWNFLOW_SUPPLY_DUCT_HORIZONTAL_OFFSE
100
AcDbAttributeDefinition
  3

  2
PSOL_8
 70
     9
280
     0
  0
ATTDEF
  5
155
330
13A
100
AcDbEntity
  8
AM_6
100
AcDbText
 10
-31.68749999999965
 20
9.656249999999488
 30
0.0
 40
0.5
  1
5416666666667},{DRAIN_FLOW=0},{DUCT_ANGLE=0},{ENCLOSURE_DEPTH=3.96875},{ENCLOSURE_WIDTH=6.11458333333333},{ENGWORKS_GLOBAL=www.ENGworksGlobal.com},{EVAPORATOR_FAN_MOTOR_HORSEPOWER=894.839845898724},{EVAPORATOR_FAN_TYPE=Direct Drive - Standard},{FACE
100
AcDbAttributeDefinition
  3

  2
PSOL_9
 70
     9
280
     0
  0
ATTDEF
  5
156
330
13A
100
AcDbEntity
  8
AM_6
100
AcDbText
 10
-31.68749999999965
 20
9.156249999999488
 30
0.0
 40
0.5
  1
ITY__FPM_=0},{FAN_DIAMETER=1.83333333333333},{FAN_OFFSET=1.375},{FAN_RADIUS=0.916666666666667},{FEET_PRESSURE_DROP=0},{FILTER_SIZE=14 X 20 X 2, 20 X 20 X 2},{FREQUENCY=60},{GAS_ENTRY_RADIUS=0.25},{GAS_ENTRY_SIZE=0.5},{HEATING_ENTERING_DRY_BULB_TEMPE
100
AcDbAttributeDefinition
  3

  2
PSOL_10
 70
     9
280
     0
  0
ATTDEF
  5
157
330
13A
100
AcDbEntity
  8
AM_6
100
AcDbText
 10
-31.68749999999965
 20
8.656249999999488
 30
0.0
 40
0.5
  1
=0},{HEATING_ENTERING_WET_BULB_TEMPERATURE=0},{HEATING_LEAVING_DRY_BULB_TEMPERATURE=0},{HEATING_LEAVING_WET_BULB_TEMPERATURE=0},{HORIZONTAL_RETURN_AIR_CONNECTION_HEIGHT=25},{HORIZONTAL_RETURN_AIR_CONNECTION_WIDTH=11},{HORIZONTAL_SUPPLY_AIR_CONNECTIO
100
AcDbAttributeDefinition
  3

  2
PSOL_11
 70
     9
280
     0
  0
ATTDEF
  5
158
330
13A
100
AcDbEntity
  8
AM_6
100
AcDbText
 10
-31.68749999999965
 20
8.156249999999488
 30
0.0
 40
0.5
  1
HT=12},{HORIZONTAL_SUPPLY_AIR_CONNECTION_WIDTH=17},{LATENT_COOLING_CAPACITY=0},{LOAD_SUB_CLASSIFICATION_MOTOR=1},{MANUFACTURER=Daikin},{MASSUNIT=1},{MAXIMUM_AIR_FLOW=2700},{MAXIMUM_CLEARANCE=3},{MAXIMUM_HEATING_INPUT__MBH_=140},{MAXIMUM_HEATING_OUTP
100
AcDbAttributeDefinition
  3

  2
PSOL_12
 70
     9
280
     0
  0
ATTDEF
  5
159
330
13A
100
AcDbEntity
  8
AM_6
100
AcDbText
 10
-31.68749999999965
 20
7.656249999999488
 30
0.0
 40
0.5
  1
H_=112},{MAXIMUM_OVERCURRENT_PROTECTION=40},{MINIMUM_AIR_FLOW=1800},{MINIMUM_CIRCUIT_AMPS=27.2},{MINIMUM_CLEARANCE=2},{MINIMUM_HEATING_INPUT__MBH_=105},{MINIMUM_HEATING_OUTPUT__MBH_=84},{MODEL=DSG0723DH00001S},{NOMINAL_COOLING_CAPACITY=69000},{NOMIN
100
AcDbAttributeDefinition
  3

  2
PSOL_13
 70
     9
280
     0
  0
ATTDEF
  5
15A
330
13A
100
AcDbEntity
  8
AM_6
100
AcDbText
 10
-31.68749999999965
 20
7.156249999999488
 30
0.0
 40
0.5
  1
LING_CAPACITY__TONS_=6},{NOMINAL_HEATING_CAPACITY=0},{NUMBER_OF_POLES=3},{OMNICLASS_NUMBER=23.75.10.24.21.27.14},{OMNICLASS_TITLE=Packaged Rooftop Air Conditioning Units},{PARTTYPE=Normal},{PHASE=3},{PRODUCT_PAGE_URL=https://www.daikinac.com/content
100
AcDbAttributeDefinition
  3

  2
PSOL_14
 70
     9
280
     0
  0
ATTDEF
  5
15B
330
13A
100
AcDbEntity
  8
AM_6
100
AcDbText
 10
-31.68749999999965
 20
6.656249999999488
 30
0.0
 40
0.5
  1
-commercial/packaged-hvac-systems/dsg-series-3-6-tons-packaged-gaselectric/},{REFRIGERANT_CHARGE=5.1875},{REFRIGERANT_CHARGE_VALUE=5.1875},{REFRIGERANT_USED=R-32},{RETURN_AIR_CONNECTION_HEIGHT=25},{RETURN_AIR_CONNECTION_HORIZONTAL_CENTER_OFFSET=1.02
100
AcDbAttributeDefinition
  3

  2
PSOL_15
 70
     9
280
     0
  0
ATTDEF
  5
15C
330
13A
100
AcDbEntity
  8
AM_6
100
AcDbText
 10
-31.68749999999965
 20
6.156249999999488
 30
0.0
 40
0.5
  1
333333},{RETURN_AIR_CONNECTION_VERTICAL_CENTER_OFFSET=1.484375},{RETURN_AIR_CONNECTION_WIDTH=11},{RETURN_AIR_PRESSURE_DROP=0},{SENSIBLE_COOLING_CAPACITY=0},{SERIES=DSG},{SIDE_CONDENSATE_DRAIN_CONNECTION_HORIZONTAL_OFFSET=1.66666666666667},{SIDE_COND
100
AcDbAttributeDefinition
  3

  2
PSOL_16
 70
     9
280
     0
  0
ATTDEF
  5
15D
330
13A
100
AcDbEntity
  8
AM_6
100
AcDbText
 10
-31.68749999999965
 20
5.656249999999488
 30
0.0
 40
0.5
  1
_DRAIN_CONNECTION_VERTICAL_OFFSET=0.708333333333333},{SIDE_DUCT_VERTICAL_OFFSET=0.515625},{SIDE_RETURN_DUCT_HORIZONTAL_OFFSET=0.416666666666667},{SIDE_SUPPLY_DUCT_HORIZONTAL_OFFSET=0.614583333333333},{SIDEFLOW_OPTION=0},{STANDARDS=AHRI Certified; ET
100
AcDbAttributeDefinition
  3

  2
PSOL_17
 70
     9
280
     0
  0
ATTDEF
  5
15E
330
13A
100
AcDbEntity
  8
AM_6
100
AcDbText
 10
-31.68749999999965
 20
5.156249999999488
 30
0.0
 40
0.5
  1
ed},{SUPPLY_AIR_CONNECTION_HEIGHT=12},{SUPPLY_AIR_CONNECTION_HORIZONTAL_CENTER_OFFSET=2.68229166666667},{SUPPLY_AIR_CONNECTION_VERTICAL_CENTER_OFFSET=0.942708333333333},{SUPPLY_AIR_CONNECTION_WIDTH=17},{SUPPLY_AIR_FLOW_STATUS=Design Supply Air Flow 
100
AcDbAttributeDefinition
  3

  2
PSOL_18
 70
     9
280
     0
  0
ATTDEF
  5
15F
330
13A
100
AcDbEntity
  8
AM_6
100
AcDbText
 10
-31.68749999999965
 20
4.656249999999488
 30
0.0
 40
0.5
  1
Short of Minimum Recommended},{SUPPLY_AIR_PRESSURE_DROP=0},{SYSTEM_PERFORMANCE_EER=11.8},{SYSTEM_PERFORMANCE_EER2=N/A},{SYSTEM_PERFORMANCE_IEER=16.7},{SYSTEM_PERFORMANCE_SEER2=N/A},{TOTAL_COOLING_CAPACITY=0},{TOTAL_STATIC_PRESSURE=0},{UNIT_WEIGHT=62
100
AcDbAttributeDefinition
  3

  2
PSOL_19
 70
     9
280
     0
  0
ATTDEF
  5
160
330
13A
100
AcDbEntity
  8
AM_6
100
AcDbText
 10
-31.68749999999965
 20
4.156249999999488
 30
0.0
 40
0.5
  1
IT_WEIGHT_VALUE=626},{VERSION=1},{VOLTAGE=240},{VOLTAGE_COMMENTS=208 VAC to 230 VAC},{DEFAULTSORTATTR=752},{RFA_FAMILY_=../../../_pool_/d3/37/rooftop_unit-gas_electric-daikin-dsg_3-6_ton.zip},{RFA_FAMILY_ENG=../../../_pool_/d3/37/rooftop_unit-gas_el
100
AcDbAttributeDefinition
  3

  2
PSOL_20
 70
     9
280
     0
  0
ATTDEF
  5
161
330
13A
100
AcDbEntity
  8
AM_6
100
AcDbText
 10
-31.68749999999965
 20
3.656249999999488
 30
0.0
 40
0.5
  1
-daikin-dsg_3-6_ton.zip},{REVIT_FAMILY_DOWNLOAD=../../../_pool_/d3/37/rooftop_unit-gas_electric-daikin-dsg_3-6_ton.zip}
100
AcDbAttributeDefinition
  3

  2
PSOL_21
 70
     9
280
     0
  0
LINE
  5
162
330
13A
100
AcDbEntity
  8
AM_0
100
AcDbLine
 10
-36.71874999999964
 20
21.15624999999949
 30
0.0
 11
-36.68749999999965
 21
21.15624999999949
 31
0.0
  0
LINE
  5
163
330
13A
100
AcDbEntity
  8
AM_0
100
AcDbLine
 10
-36.71874999999964
 20
-12.07812500000024
 30
0.0
 11
-36.71874999999964
 21
21.15624999999949
 31
0.0
  0
LINE
  5
164
330
13A
100
AcDbEntity
  8
AM_0
100
AcDbLine
 10
-36.68749999999965
 20
-12.07812500000024
 30
0.0
 11
-36.71874999999964
 21
-12.07812500000024
 31
0.0
  0
ENDBLK
  5
13D
330
13A
100
AcDbEntity
  8
0
100
AcDbBlockEnd
  0
BLOCK
  5
167
330
165
100
AcDbEntity
  8
0
100
AcDbBlockBegin
  2
6_DSG0723DH00001S_PART3_0_in_DSG0723DH00001S_4
 70
     2
 10
0.0
 20
0.0
 30
0.0
  3
6_DSG0723DH00001S_PART3_0_in_DSG0723DH00001S_4
  1

  0
ATTDEF
  5
169
330
165
100
AcDbEntity
  8
AM_6
100
AcDbText
 10
-7.333333333332911
 20
23.8437499999998
 30
0.0
 40
0.5
  1
DSG0723DH00001S_PART3
100
AcDbAttributeDefinition
  3

  2
NB
 70
     8
280
     0
  0
ATTDEF
  5
16A
330
165
100
AcDbEntity
  8
AM_6
100
AcDbText
 10
-7.333333333332911
 20
23.3437499999998
 30
0.0
 40
0.5
  1

100
AcDbAttributeDefinition
  3

  2
NN
 70
     8
280
     0
  0
ATTDEF
  5
16B
330
165
100
AcDbEntity
  8
AM_6
100
AcDbText
 10
-7.333333333332911
 20
22.8437499999998
 30
0.0
 40
0.5
  1

100
AcDbAttributeDefinition
  3

  2
NT
 70
     8
280
     0
  0
ATTDEF
  5
16C
330
165
100
AcDbEntity
  8
AM_6
100
AcDbText
 10
-7.333333333332911
 20
22.3437499999998
 30
0.0
 40
0.5
  1
$PARTNUMBER._PART3
100
AcDbAttributeDefinition
  3

  2
NBSYN
 70
     8
280
     0
  0
ATTDEF
  5
16D
330
165
100
AcDbEntity
  8
AM_6
100
AcDbText
 10
-7.333333333332911
 20
21.8437499999998
 30
0.0
 40
0.5
  1
DSG0723DH00001S_PART3
100
AcDbAttributeDefinition
  3

  2
LINA
 70
     8
280
     0
  0
ATTDEF
  5
16E
330
165
100
AcDbEntity
  8
AM_6
100
AcDbText
 10
-7.333333333332911
 20
21.3437499999998
 30
0.0
 40
0.5
  1
Daikin
100
AcDbAttributeDefinition
  3

  2
CATALOG
 70
     8
280
     0
  0
ATTDEF
  5
16F
330
165
100
AcDbEntity
  8
AM_6
100
AcDbText
 10
-7.333333333332911
 20
20.8437499999998
 30
0.0
 40
0.5
  1
DSG0723DH00001S
100
AcDbAttributeDefinition
  3

  2
PARTNUMBER
 70
     8
280
     0
  0
ATTDEF
  5
170
330
165
100
AcDbEntity
  8
AM_6
100
AcDbText
 10
-7.333333333332911
 20
20.3437499999998
 30
0.0
 40
0.5
  1
Standard Efficiency Gas/Electric Direct-Drive Packaged Rooftop Unit
100
AcDbAttributeDefinition
  3

  2
DESCRIPTION
 70
     8
280
     0
  0
ATTDEF
  5
171
330
165
100
AcDbEntity
  8
AM_6
100
AcDbText
 10
-7.333333333332911
 20
19.8437499999998
 30
0.0
 40
0.5
  1
48.375
100
AcDbAttributeDefinition
  3

  2
OVERALL_DEPTH
 70
     8
280
     0
  0
ATTDEF
  5
172
330
165
100
AcDbEntity
  8
AM_6
100
AcDbText
 10
-7.333333333332911
 20
19.3437499999998
 30
0.0
 40
0.5
  1
43.500
100
AcDbAttributeDefinition
  3

  2
OVERALL_HEIGHT
 70
     8
280
     0
  0
ATTDEF
  5
173
330
165
100
AcDbEntity
  8
AM_6
100
AcDbText
 10
-7.333333333332911
 20
18.8437499999998
 30
0.0
 40
0.5
  1
74.000
100
AcDbAttributeDefinition
  3

  2
OVERALL_WIDTH
 70
     8
280
     0
  0
ATTDEF
  5
174
330
165
100
AcDbEntity
  8
AM_6
100
AcDbText
 10
-7.333333333332911
 20
18.3437499999998
 30
0.0
 40
0.5
  1
https://daikincomfort.com
100
AcDbAttributeDefinition
  3

  2
URL
 70
     8
280
     0
  0
ATTDEF
  5
175
330
165
100
AcDbEntity
  8
AM_6
100
AcDbText
 10
-7.333333333332911
 20
17.8437499999998
 30
0.0
 40
0.5
  1
Download Revit Family (RFA)
100
AcDbAttributeDefinition
  3

  2
RFA_FAMILY
 70
     8
280
     0
  0
ATTDEF
  5
176
330
165
100
AcDbEntity
  8
AM_6
100
AcDbText
 10
-7.333333333332911
 20
17.3437499999998
 30
0.0
 40
0.5
  1
daikin
100
AcDbAttributeDefinition
  3

  2
COMPANY
 70
     8
280
     0
  0
ATTDEF
  5
177
330
165
100
AcDbEntity
  8
AM_6
100
AcDbText
 10
-7.333333333332911
 20
16.8437499999998
 30
0.0
 40
0.5
  1
{$CADENAS_DATA/23d-libs/daikin/light20commercial20rooftop20package20units/gas-electric/dsg/rooftop_unit-gas_electric-daikin-dsg_3-6_ton.prj},240 {VTYP=3D},{NB=DSG0723DH00001S_PART3},{LINA=DSG0723DH00001S_PART3},{NN=Rooftop_Unit-Gas_Electric-Daikin-D
100
AcDbAttributeDefinition
  3

  2
PSOL_0
 70
     9
280
     0
  0
ATTDEF
  5
178
330
165
100
AcDbEntity
  8
AM_6
100
AcDbText
 10
-7.333333333332911
 20
16.3437499999998
 30
0.0
 40
0.5
  1
_Ton_PART3},{NOPRJ=TRUE},{DATE=03.06.2026 19:23:11},{GEOMDATE=10.10.2025 10:56:44},{VERSION=},{LINEID=300},{WBVAR=},{WBNUMERIC=}  {NB=DSG0723DH00001S_PART3},{LINA=DSG0723DH00001S_PART3},{KT=DUMMY},{PARTNUMBER=DSG0723DH00001S},{DESCRIPTION=Standard E
100
AcDbAttributeDefinition
  3

  2
PSOL_1
 70
     9
280
     0
  0
ATTDEF
  5
179
330
165
100
AcDbEntity
  8
AM_6
100
AcDbText
 10
-7.333333333332911
 20
15.8437499999998
 30
0.0
 40
0.5
  1
ncy Gas/Electric Direct-Drive Packaged Rooftop Unit},{OVERALL_DEPTH=48.375},{OVERALL_HEIGHT=43.500},{OVERALL_WIDTH=74.000},{URL=https://daikincomfort.com},{RFA_FAMILY=Download Revit Family (RFA)},{ORDERNO=6Ton_208-230V_3Ph_Standard-ESP_High-Heat_DSG
100
AcDbAttributeDefinition
  3

  2
PSOL_2
 70
     9
280
     0
  0
ATTDEF
  5
17A
330
165
100
AcDbEntity
  8
AM_6
100
AcDbText
 10
-7.333333333332911
 20
15.3437499999998
 30
0.0
 40
0.5
  1
00001S},{ACTUAL_SUPPLY_AIR_FLOW=1800},{AMBIENT_TEMPERATURE=0},{APPARENT_POWER=16627.6877526612},{ASSEMBLY_CODE=D3050200},{ASSEMBLY_HEIGHT_OFFSET=0},{ASSEMBLY_MOUNTED_ON_CURB=0},{BASE_RAIL_HEIGHT=0.34375},{BASE_RAIL_THICKNESS=0.0286458333333333},{BOT
100
AcDbAttributeDefinition
  3

  2
PSOL_3
 70
     9
280
     0
  0
ATTDEF
  5
17B
330
165
100
AcDbEntity
  8
AM_6
100
AcDbText
 10
-7.333333333332911
 20
14.8437499999998
 30
0.0
 40
0.5
  1
NDENSATE_DRAIN_CONNECTION_HORIZONTAL_OFFSET=1.625},{BOTTOM_CONDENSATE_DRAIN_CONNECTION_VERTICAL_OFFSET=1.625},{CATEGORY=Mechanical Equipment},{CLEARANCE_VISIBILITY=1},{COIL_AIR_PRESSURE_DROP=0},{COMPRESSOR_LOCKED_ROTOR_AMPS=155},{COMPRESSOR_RATED_LO
100
AcDbAttributeDefinition
  3

  2
PSOL_4
 70
     9
280
     0
  0
ATTDEF
  5
17C
330
165
100
AcDbEntity
  8
AM_6
100
AcDbText
 10
-7.333333333332911
 20
14.3437499999998
 30
0.0
 40
0.5
  1
S=16.1},{COMPRESSOR_TYPE=Scroll},{CONDENSATE_DRAIN_CONNECTION_DIAMETER=0.75},{CONDENSATE_DRAIN_CONNECTION_RADIUS=0.375},{CONDENSER_FAN_MOTOR_HORSEPOWER=246.080957622149},{CONDUIT_A_VERTICAL_OFFSET=0.375},{CONDUIT_B_VERTICAL_OFFSET=0.625},{CONDUIT_CO
100
AcDbAttributeDefinition
  3

  2
PSOL_5
 70
     9
280
     0
  0
ATTDEF
  5
17D
330
165
100
AcDbEntity
  8
AM_6
100
AcDbText
 10
-7.333333333332911
 20
13.8437499999998
 30
0.0
 40
0.5
  1
ON_RADIUS_A=0.25},{CONDUIT_CONNECTION_RADIUS_B=0.25},{CONDUIT_CONNECTION_SIZE_A=0.5},{CONDUIT_CONNECTION_SIZE_B=0.5},{CONDUIT_HORIZONTAL_OFFSET=3.9609375},{COOLING_ENTERING_DRY_BULB_TEMPERATURE=0},{COOLING_ENTERING_WET_BULB_TEMPERATURE=0},{COOLING_L
100
AcDbAttributeDefinition
  3

  2
PSOL_6
 70
     9
280
     0
  0
ATTDEF
  5
17E
330
165
100
AcDbEntity
  8
AM_6
100
AcDbText
 10
-7.333333333332911
 20
13.3437499999998
 30
0.0
 40
0.5
  1
_DRY_BULB_TEMPERATURE=0},{COOLING_LEAVING_WET_BULB_TEMPERATURE=0},{COST=0},{CURB_HEIGHT=0},{DEFAULT_ELEVATION=0},{DESIGN_RETURN_AIR_FLOW=0},{DESIGN_SUPPLY_AIR_FLOW=0},{DOWNFLOW_DUCT_VERTICAL_OFFSET=0.442708333333333},{DOWNFLOW_OPTION=1},{DOWNFLOW_RE
100
AcDbAttributeDefinition
  3

  2
PSOL_7
 70
     9
280
     0
  0
ATTDEF
  5
17F
330
165
100
AcDbEntity
  8
AM_6
100
AcDbText
 10
-7.333333333332911
 20
12.8437499999998
 30
0.0
 40
0.5
  1
IR_CONNECTION_HEIGHT=25},{DOWNFLOW_RETURN_AIR_CONNECTION_WIDTH=11},{DOWNFLOW_RETURN_DUCT_HORIZONTAL_OFFSET=0.486979166666667},{DOWNFLOW_SUPPLY_AIR_CONNECTION_HEIGHT=12},{DOWNFLOW_SUPPLY_AIR_CONNECTION_WIDTH=17},{DOWNFLOW_SUPPLY_DUCT_HORIZONTAL_OFFSE
100
AcDbAttributeDefinition
  3

  2
PSOL_8
 70
     9
280
     0
  0
ATTDEF
  5
180
330
165
100
AcDbEntity
  8
AM_6
100
AcDbText
 10
-7.333333333332911
 20
12.3437499999998
 30
0.0
 40
0.5
  1
5416666666667},{DRAIN_FLOW=0},{DUCT_ANGLE=0},{ENCLOSURE_DEPTH=3.96875},{ENCLOSURE_WIDTH=6.11458333333333},{ENGWORKS_GLOBAL=www.ENGworksGlobal.com},{EVAPORATOR_FAN_MOTOR_HORSEPOWER=894.839845898724},{EVAPORATOR_FAN_TYPE=Direct Drive - Standard},{FACE
100
AcDbAttributeDefinition
  3

  2
PSOL_9
 70
     9
280
     0
  0
ATTDEF
  5
181
330
165
100
AcDbEntity
  8
AM_6
100
AcDbText
 10
-7.333333333332911
 20
11.8437499999998
 30
0.0
 40
0.5
  1
ITY__FPM_=0},{FAN_DIAMETER=1.83333333333333},{FAN_OFFSET=1.375},{FAN_RADIUS=0.916666666666667},{FEET_PRESSURE_DROP=0},{FILTER_SIZE=14 X 20 X 2, 20 X 20 X 2},{FREQUENCY=60},{GAS_ENTRY_RADIUS=0.25},{GAS_ENTRY_SIZE=0.5},{HEATING_ENTERING_DRY_BULB_TEMPE
100
AcDbAttributeDefinition
  3

  2
PSOL_10
 70
     9
280
     0
  0
ATTDEF
  5
182
330
165
100
AcDbEntity
  8
AM_6
100
AcDbText
 10
-7.333333333332911
 20
11.3437499999998
 30
0.0
 40
0.5
  1
=0},{HEATING_ENTERING_WET_BULB_TEMPERATURE=0},{HEATING_LEAVING_DRY_BULB_TEMPERATURE=0},{HEATING_LEAVING_WET_BULB_TEMPERATURE=0},{HORIZONTAL_RETURN_AIR_CONNECTION_HEIGHT=25},{HORIZONTAL_RETURN_AIR_CONNECTION_WIDTH=11},{HORIZONTAL_SUPPLY_AIR_CONNECTIO
100
AcDbAttributeDefinition
  3

  2
PSOL_11
 70
     9
280
     0
  0
ATTDEF
  5
183
330
165
100
AcDbEntity
  8
AM_6
100
AcDbText
 10
-7.333333333332911
 20
10.8437499999998
 30
0.0
 40
0.5
  1
HT=12},{HORIZONTAL_SUPPLY_AIR_CONNECTION_WIDTH=17},{LATENT_COOLING_CAPACITY=0},{LOAD_SUB_CLASSIFICATION_MOTOR=1},{MANUFACTURER=Daikin},{MASSUNIT=1},{MAXIMUM_AIR_FLOW=2700},{MAXIMUM_CLEARANCE=3},{MAXIMUM_HEATING_INPUT__MBH_=140},{MAXIMUM_HEATING_OUTP
100
AcDbAttributeDefinition
  3

  2
PSOL_12
 70
     9
280
     0
  0
ATTDEF
  5
184
330
165
100
AcDbEntity
  8
AM_6
100
AcDbText
 10
-7.333333333332911
 20
10.3437499999998
 30
0.0
 40
0.5
  1
H_=112},{MAXIMUM_OVERCURRENT_PROTECTION=40},{MINIMUM_AIR_FLOW=1800},{MINIMUM_CIRCUIT_AMPS=27.2},{MINIMUM_CLEARANCE=2},{MINIMUM_HEATING_INPUT__MBH_=105},{MINIMUM_HEATING_OUTPUT__MBH_=84},{MODEL=DSG0723DH00001S},{NOMINAL_COOLING_CAPACITY=69000},{NOMIN
100
AcDbAttributeDefinition
  3

  2
PSOL_13
 70
     9
280
     0
  0
ATTDEF
  5
185
330
165
100
AcDbEntity
  8
AM_6
100
AcDbText
 10
-7.333333333332911
 20
9.843749999999801
 30
0.0
 40
0.5
  1
LING_CAPACITY__TONS_=6},{NOMINAL_HEATING_CAPACITY=0},{NUMBER_OF_POLES=3},{OMNICLASS_NUMBER=23.75.10.24.21.27.14},{OMNICLASS_TITLE=Packaged Rooftop Air Conditioning Units},{PARTTYPE=Normal},{PHASE=3},{PRODUCT_PAGE_URL=https://www.daikinac.com/content
100
AcDbAttributeDefinition
  3

  2
PSOL_14
 70
     9
280
     0
  0
ATTDEF
  5
186
330
165
100
AcDbEntity
  8
AM_6
100
AcDbText
 10
-7.333333333332911
 20
9.343749999999801
 30
0.0
 40
0.5
  1
-commercial/packaged-hvac-systems/dsg-series-3-6-tons-packaged-gaselectric/},{REFRIGERANT_CHARGE=5.1875},{REFRIGERANT_CHARGE_VALUE=5.1875},{REFRIGERANT_USED=R-32},{RETURN_AIR_CONNECTION_HEIGHT=25},{RETURN_AIR_CONNECTION_HORIZONTAL_CENTER_OFFSET=1.02
100
AcDbAttributeDefinition
  3

  2
PSOL_15
 70
     9
280
     0
  0
ATTDEF
  5
187
330
165
100
AcDbEntity
  8
AM_6
100
AcDbText
 10
-7.333333333332911
 20
8.843749999999801
 30
0.0
 40
0.5
  1
333333},{RETURN_AIR_CONNECTION_VERTICAL_CENTER_OFFSET=1.484375},{RETURN_AIR_CONNECTION_WIDTH=11},{RETURN_AIR_PRESSURE_DROP=0},{SENSIBLE_COOLING_CAPACITY=0},{SERIES=DSG},{SIDE_CONDENSATE_DRAIN_CONNECTION_HORIZONTAL_OFFSET=1.66666666666667},{SIDE_COND
100
AcDbAttributeDefinition
  3

  2
PSOL_16
 70
     9
280
     0
  0
ATTDEF
  5
188
330
165
100
AcDbEntity
  8
AM_6
100
AcDbText
 10
-7.333333333332911
 20
8.343749999999801
 30
0.0
 40
0.5
  1
_DRAIN_CONNECTION_VERTICAL_OFFSET=0.708333333333333},{SIDE_DUCT_VERTICAL_OFFSET=0.515625},{SIDE_RETURN_DUCT_HORIZONTAL_OFFSET=0.416666666666667},{SIDE_SUPPLY_DUCT_HORIZONTAL_OFFSET=0.614583333333333},{SIDEFLOW_OPTION=0},{STANDARDS=AHRI Certified; ET
100
AcDbAttributeDefinition
  3

  2
PSOL_17
 70
     9
280
     0
  0
ATTDEF
  5
189
330
165
100
AcDbEntity
  8
AM_6
100
AcDbText
 10
-7.333333333332911
 20
7.843749999999801
 30
0.0
 40
0.5
  1
ed},{SUPPLY_AIR_CONNECTION_HEIGHT=12},{SUPPLY_AIR_CONNECTION_HORIZONTAL_CENTER_OFFSET=2.68229166666667},{SUPPLY_AIR_CONNECTION_VERTICAL_CENTER_OFFSET=0.942708333333333},{SUPPLY_AIR_CONNECTION_WIDTH=17},{SUPPLY_AIR_FLOW_STATUS=Design Supply Air Flow 
100
AcDbAttributeDefinition
  3

  2
PSOL_18
 70
     9
280
     0
  0
ATTDEF
  5
18A
330
165
100
AcDbEntity
  8
AM_6
100
AcDbText
 10
-7.333333333332911
 20
7.343749999999801
 30
0.0
 40
0.5
  1
Short of Minimum Recommended},{SUPPLY_AIR_PRESSURE_DROP=0},{SYSTEM_PERFORMANCE_EER=11.8},{SYSTEM_PERFORMANCE_EER2=N/A},{SYSTEM_PERFORMANCE_IEER=16.7},{SYSTEM_PERFORMANCE_SEER2=N/A},{TOTAL_COOLING_CAPACITY=0},{TOTAL_STATIC_PRESSURE=0},{UNIT_WEIGHT=62
100
AcDbAttributeDefinition
  3

  2
PSOL_19
 70
     9
280
     0
  0
ATTDEF
  5
18B
330
165
100
AcDbEntity
  8
AM_6
100
AcDbText
 10
-7.333333333332911
 20
6.843749999999801
 30
0.0
 40
0.5
  1
IT_WEIGHT_VALUE=626},{VERSION=1},{VOLTAGE=240},{VOLTAGE_COMMENTS=208 VAC to 230 VAC},{DEFAULTSORTATTR=752},{RFA_FAMILY_=../../../_pool_/d3/37/rooftop_unit-gas_electric-daikin-dsg_3-6_ton.zip},{RFA_FAMILY_ENG=../../../_pool_/d3/37/rooftop_unit-gas_el
100
AcDbAttributeDefinition
  3

  2
PSOL_20
 70
     9
280
     0
  0
ATTDEF
  5
18C
330
165
100
AcDbEntity
  8
AM_6
100
AcDbText
 10
-7.333333333332911
 20
6.343749999999801
 30
0.0
 40
0.5
  1
-daikin-dsg_3-6_ton.zip},{REVIT_FAMILY_DOWNLOAD=../../../_pool_/d3/37/rooftop_unit-gas_electric-daikin-dsg_3-6_ton.zip}
100
AcDbAttributeDefinition
  3

  2
PSOL_21
 70
     9
280
     0
  0
LINE
  5
18D
330
165
100
AcDbEntity
  8
AM_0
100
AcDbLine
 10
-34.99999999999969
 20
23.8437499999998
 30
0.0
 11
-34.99999999999969
 21
23.81249999999984
 31
0.0
  0
LINE
  5
18E
330
165
100
AcDbEntity
  8
AM_0
100
AcDbLine
 10
-12.33333333333291
 20
23.81249999999984
 30
0.0
 11
-12.33333333333291
 21
23.8437499999998
 31
0.0
  0
LINE
  5
18F
330
165
100
AcDbEntity
  8
AM_0
100
AcDbLine
 10
-34.99999999999969
 20
23.8437499999998
 30
0.0
 11
-12.33333333333291
 21
23.8437499999998
 31
0.0
  0
ENDBLK
  5
168
330
165
100
AcDbEntity
  8
0
100
AcDbBlockEnd
  0
BLOCK
  5
192
330
190
100
AcDbEntity
  8
0
100
AcDbBlockBegin
  2
7_DSG0723DH00001S_PART2_0_in_DSG0723DH00001S_4
 70
     2
 10
0.0
 20
0.0
 30
0.0
  3
7_DSG0723DH00001S_PART2_0_in_DSG0723DH00001S_4
  1

  0
ATTDEF
  5
194
330
190
100
AcDbEntity
  8
AM_6
100
AcDbText
 10
-3.950001515834037
 20
19.20624848422647
 30
0.0
 40
0.5
  1
DSG0723DH00001S_PART2
100
AcDbAttributeDefinition
  3

  2
NB
 70
     8
280
     0
  0
ATTDEF
  5
195
330
190
100
AcDbEntity
  8
AM_6
100
AcDbText
 10
-3.950001515834037
 20
18.70624848422647
 30
0.0
 40
0.5
  1

100
AcDbAttributeDefinition
  3

  2
NN
 70
     8
280
     0
  0
ATTDEF
  5
196
330
190
100
AcDbEntity
  8
AM_6
100
AcDbText
 10
-3.950001515834037
 20
18.20624848422647
 30
0.0
 40
0.5
  1

100
AcDbAttributeDefinition
  3

  2
NT
 70
     8
280
     0
  0
ATTDEF
  5
197
330
190
100
AcDbEntity
  8
AM_6
100
AcDbText
 10
-3.950001515834037
 20
17.70624848422647
 30
0.0
 40
0.5
  1
$PARTNUMBER._PART2
100
AcDbAttributeDefinition
  3

  2
NBSYN
 70
     8
280
     0
  0
ATTDEF
  5
198
330
190
100
AcDbEntity
  8
AM_6
100
AcDbText
 10
-3.950001515834037
 20
17.20624848422647
 30
0.0
 40
0.5
  1
DSG0723DH00001S_PART2
100
AcDbAttributeDefinition
  3

  2
LINA
 70
     8
280
     0
  0
ATTDEF
  5
199
330
190
100
AcDbEntity
  8
AM_6
100
AcDbText
 10
-3.950001515834037
 20
16.70624848422647
 30
0.0
 40
0.5
  1
Daikin
100
AcDbAttributeDefinition
  3

  2
CATALOG
 70
     8
280
     0
  0
ATTDEF
  5
19A
330
190
100
AcDbEntity
  8
AM_6
100
AcDbText
 10
-3.950001515834037
 20
16.20624848422647
 30
0.0
 40
0.5
  1
DSG0723DH00001S
100
AcDbAttributeDefinition
  3

  2
PARTNUMBER
 70
     8
280
     0
  0
ATTDEF
  5
19B
330
190
100
AcDbEntity
  8
AM_6
100
AcDbText
 10
-3.950001515834037
 20
15.70624848422647
 30
0.0
 40
0.5
  1
Standard Efficiency Gas/Electric Direct-Drive Packaged Rooftop Unit
100
AcDbAttributeDefinition
  3

  2
DESCRIPTION
 70
     8
280
     0
  0
ATTDEF
  5
19C
330
190
100
AcDbEntity
  8
AM_6
100
AcDbText
 10
-3.950001515834037
 20
15.20624848422647
 30
0.0
 40
0.5
  1
48.375
100
AcDbAttributeDefinition
  3

  2
OVERALL_DEPTH
 70
     8
280
     0
  0
ATTDEF
  5
19D
330
190
100
AcDbEntity
  8
AM_6
100
AcDbText
 10
-3.950001515834037
 20
14.70624848422647
 30
0.0
 40
0.5
  1
43.500
100
AcDbAttributeDefinition
  3

  2
OVERALL_HEIGHT
 70
     8
280
     0
  0
ATTDEF
  5
19E
330
190
100
AcDbEntity
  8
AM_6
100
AcDbText
 10
-3.950001515834037
 20
14.20624848422647
 30
0.0
 40
0.5
  1
74.000
100
AcDbAttributeDefinition
  3

  2
OVERALL_WIDTH
 70
     8
280
     0
  0
ATTDEF
  5
19F
330
190
100
AcDbEntity
  8
AM_6
100
AcDbText
 10
-3.950001515834037
 20
13.70624848422647
 30
0.0
 40
0.5
  1
https://daikincomfort.com
100
AcDbAttributeDefinition
  3

  2
URL
 70
     8
280
     0
  0
ATTDEF
  5
1A0
330
190
100
AcDbEntity
  8
AM_6
100
AcDbText
 10
-3.950001515834037
 20
13.20624848422647
 30
0.0
 40
0.5
  1
Download Revit Family (RFA)
100
AcDbAttributeDefinition
  3

  2
RFA_FAMILY
 70
     8
280
     0
  0
ATTDEF
  5
1A1
330
190
100
AcDbEntity
  8
AM_6
100
AcDbText
 10
-3.950001515834037
 20
12.70624848422647
 30
0.0
 40
0.5
  1
daikin
100
AcDbAttributeDefinition
  3

  2
COMPANY
 70
     8
280
     0
  0
ATTDEF
  5
1A2
330
190
100
AcDbEntity
  8
AM_6
100
AcDbText
 10
-3.950001515834037
 20
12.20624848422647
 30
0.0
 40
0.5
  1
{$CADENAS_DATA/23d-libs/daikin/light20commercial20rooftop20package20units/gas-electric/dsg/rooftop_unit-gas_electric-daikin-dsg_3-6_ton.prj},240 {VTYP=3D},{NB=DSG0723DH00001S_PART2},{LINA=DSG0723DH00001S_PART2},{NN=Rooftop_Unit-Gas_Electric-Daikin-D
100
AcDbAttributeDefinition
  3

  2
PSOL_0
 70
     9
280
     0
  0
ATTDEF
  5
1A3
330
190
100
AcDbEntity
  8
AM_6
100
AcDbText
 10
-3.950001515834037
 20
11.70624848422647
 30
0.0
 40
0.5
  1
_Ton_PART2},{NOPRJ=TRUE},{DATE=03.06.2026 19:23:11},{GEOMDATE=10.10.2025 10:56:44},{VERSION=},{LINEID=300},{WBVAR=},{WBNUMERIC=}  {NB=DSG0723DH00001S_PART2},{LINA=DSG0723DH00001S_PART2},{KT=DUMMY},{PARTNUMBER=DSG0723DH00001S},{DESCRIPTION=Standard E
100
AcDbAttributeDefinition
  3

  2
PSOL_1
 70
     9
280
     0
  0
ATTDEF
  5
1A4
330
190
100
AcDbEntity
  8
AM_6
100
AcDbText
 10
-3.950001515834037
 20
11.20624848422647
 30
0.0
 40
0.5
  1
ncy Gas/Electric Direct-Drive Packaged Rooftop Unit},{OVERALL_DEPTH=48.375},{OVERALL_HEIGHT=43.500},{OVERALL_WIDTH=74.000},{URL=https://daikincomfort.com},{RFA_FAMILY=Download Revit Family (RFA)},{ORDERNO=6Ton_208-230V_3Ph_Standard-ESP_High-Heat_DSG
100
AcDbAttributeDefinition
  3

  2
PSOL_2
 70
     9
280
     0
  0
ATTDEF
  5
1A5
330
190
100
AcDbEntity
  8
AM_6
100
AcDbText
 10
-3.950001515834037
 20
10.70624848422647
 30
0.0
 40
0.5
  1
00001S},{ACTUAL_SUPPLY_AIR_FLOW=1800},{AMBIENT_TEMPERATURE=0},{APPARENT_POWER=16627.6877526612},{ASSEMBLY_CODE=D3050200},{ASSEMBLY_HEIGHT_OFFSET=0},{ASSEMBLY_MOUNTED_ON_CURB=0},{BASE_RAIL_HEIGHT=0.34375},{BASE_RAIL_THICKNESS=0.0286458333333333},{BOT
100
AcDbAttributeDefinition
  3

  2
PSOL_3
 70
     9
280
     0
  0
ATTDEF
  5
1A6
330
190
100
AcDbEntity
  8
AM_6
100
AcDbText
 10
-3.950001515834037
 20
10.20624848422647
 30
0.0
 40
0.5
  1
NDENSATE_DRAIN_CONNECTION_HORIZONTAL_OFFSET=1.625},{BOTTOM_CONDENSATE_DRAIN_CONNECTION_VERTICAL_OFFSET=1.625},{CATEGORY=Mechanical Equipment},{CLEARANCE_VISIBILITY=1},{COIL_AIR_PRESSURE_DROP=0},{COMPRESSOR_LOCKED_ROTOR_AMPS=155},{COMPRESSOR_RATED_LO
100
AcDbAttributeDefinition
  3

  2
PSOL_4
 70
     9
280
     0
  0
ATTDEF
  5
1A7
330
190
100
AcDbEntity
  8
AM_6
100
AcDbText
 10
-3.950001515834037
 20
9.706248484226471
 30
0.0
 40
0.5
  1
S=16.1},{COMPRESSOR_TYPE=Scroll},{CONDENSATE_DRAIN_CONNECTION_DIAMETER=0.75},{CONDENSATE_DRAIN_CONNECTION_RADIUS=0.375},{CONDENSER_FAN_MOTOR_HORSEPOWER=246.080957622149},{CONDUIT_A_VERTICAL_OFFSET=0.375},{CONDUIT_B_VERTICAL_OFFSET=0.625},{CONDUIT_CO
100
AcDbAttributeDefinition
  3

  2
PSOL_5
 70
     9
280
     0
  0
ATTDEF
  5
1A8
330
190
100
AcDbEntity
  8
AM_6
100
AcDbText
 10
-3.950001515834037
 20
9.206248484226471
 30
0.0
 40
0.5
  1
ON_RADIUS_A=0.25},{CONDUIT_CONNECTION_RADIUS_B=0.25},{CONDUIT_CONNECTION_SIZE_A=0.5},{CONDUIT_CONNECTION_SIZE_B=0.5},{CONDUIT_HORIZONTAL_OFFSET=3.9609375},{COOLING_ENTERING_DRY_BULB_TEMPERATURE=0},{COOLING_ENTERING_WET_BULB_TEMPERATURE=0},{COOLING_L
100
AcDbAttributeDefinition
  3

  2
PSOL_6
 70
     9
280
     0
  0
ATTDEF
  5
1A9
330
190
100
AcDbEntity
  8
AM_6
100
AcDbText
 10
-3.950001515834037
 20
8.706248484226471
 30
0.0
 40
0.5
  1
_DRY_BULB_TEMPERATURE=0},{COOLING_LEAVING_WET_BULB_TEMPERATURE=0},{COST=0},{CURB_HEIGHT=0},{DEFAULT_ELEVATION=0},{DESIGN_RETURN_AIR_FLOW=0},{DESIGN_SUPPLY_AIR_FLOW=0},{DOWNFLOW_DUCT_VERTICAL_OFFSET=0.442708333333333},{DOWNFLOW_OPTION=1},{DOWNFLOW_RE
100
AcDbAttributeDefinition
  3

  2
PSOL_7
 70
     9
280
     0
  0
ATTDEF
  5
1AA
330
190
100
AcDbEntity
  8
AM_6
100
AcDbText
 10
-3.950001515834037
 20
8.206248484226471
 30
0.0
 40
0.5
  1
IR_CONNECTION_HEIGHT=25},{DOWNFLOW_RETURN_AIR_CONNECTION_WIDTH=11},{DOWNFLOW_RETURN_DUCT_HORIZONTAL_OFFSET=0.486979166666667},{DOWNFLOW_SUPPLY_AIR_CONNECTION_HEIGHT=12},{DOWNFLOW_SUPPLY_AIR_CONNECTION_WIDTH=17},{DOWNFLOW_SUPPLY_DUCT_HORIZONTAL_OFFSE
100
AcDbAttributeDefinition
  3

  2
PSOL_8
 70
     9
280
     0
  0
ATTDEF
  5
1AB
330
190
100
AcDbEntity
  8
AM_6
100
AcDbText
 10
-3.950001515834037
 20
7.706248484226471
 30
0.0
 40
0.5
  1
5416666666667},{DRAIN_FLOW=0},{DUCT_ANGLE=0},{ENCLOSURE_DEPTH=3.96875},{ENCLOSURE_WIDTH=6.11458333333333},{ENGWORKS_GLOBAL=www.ENGworksGlobal.com},{EVAPORATOR_FAN_MOTOR_HORSEPOWER=894.839845898724},{EVAPORATOR_FAN_TYPE=Direct Drive - Standard},{FACE
100
AcDbAttributeDefinition
  3

  2
PSOL_9
 70
     9
280
     0
  0
ATTDEF
  5
1AC
330
190
100
AcDbEntity
  8
AM_6
100
AcDbText
 10
-3.950001515834037
 20
7.206248484226471
 30
0.0
 40
0.5
  1
ITY__FPM_=0},{FAN_DIAMETER=1.83333333333333},{FAN_OFFSET=1.375},{FAN_RADIUS=0.916666666666667},{FEET_PRESSURE_DROP=0},{FILTER_SIZE=14 X 20 X 2, 20 X 20 X 2},{FREQUENCY=60},{GAS_ENTRY_RADIUS=0.25},{GAS_ENTRY_SIZE=0.5},{HEATING_ENTERING_DRY_BULB_TEMPE
100
AcDbAttributeDefinition
  3

  2
PSOL_10
 70
     9
280
     0
  0
ATTDEF
  5
1AD
330
190
100
AcDbEntity
  8
AM_6
100
AcDbText
 10
-3.950001515834037
 20
6.706248484226471
 30
0.0
 40
0.5
  1
=0},{HEATING_ENTERING_WET_BULB_TEMPERATURE=0},{HEATING_LEAVING_DRY_BULB_TEMPERATURE=0},{HEATING_LEAVING_WET_BULB_TEMPERATURE=0},{HORIZONTAL_RETURN_AIR_CONNECTION_HEIGHT=25},{HORIZONTAL_RETURN_AIR_CONNECTION_WIDTH=11},{HORIZONTAL_SUPPLY_AIR_CONNECTIO
100
AcDbAttributeDefinition
  3

  2
PSOL_11
 70
     9
280
     0
  0
ATTDEF
  5
1AE
330
190
100
AcDbEntity
  8
AM_6
100
AcDbText
 10
-3.950001515834037
 20
6.206248484226471
 30
0.0
 40
0.5
  1
HT=12},{HORIZONTAL_SUPPLY_AIR_CONNECTION_WIDTH=17},{LATENT_COOLING_CAPACITY=0},{LOAD_SUB_CLASSIFICATION_MOTOR=1},{MANUFACTURER=Daikin},{MASSUNIT=1},{MAXIMUM_AIR_FLOW=2700},{MAXIMUM_CLEARANCE=3},{MAXIMUM_HEATING_INPUT__MBH_=140},{MAXIMUM_HEATING_OUTP
100
AcDbAttributeDefinition
  3

  2
PSOL_12
 70
     9
280
     0
  0
ATTDEF
  5
1AF
330
190
100
AcDbEntity
  8
AM_6
100
AcDbText
 10
-3.950001515834037
 20
5.706248484226471
 30
0.0
 40
0.5
  1
H_=112},{MAXIMUM_OVERCURRENT_PROTECTION=40},{MINIMUM_AIR_FLOW=1800},{MINIMUM_CIRCUIT_AMPS=27.2},{MINIMUM_CLEARANCE=2},{MINIMUM_HEATING_INPUT__MBH_=105},{MINIMUM_HEATING_OUTPUT__MBH_=84},{MODEL=DSG0723DH00001S},{NOMINAL_COOLING_CAPACITY=69000},{NOMIN
100
AcDbAttributeDefinition
  3

  2
PSOL_13
 70
     9
280
     0
  0
ATTDEF
  5
1B0
330
190
100
AcDbEntity
  8
AM_6
100
AcDbText
 10
-3.950001515834037
 20
5.206248484226471
 30
0.0
 40
0.5
  1
LING_CAPACITY__TONS_=6},{NOMINAL_HEATING_CAPACITY=0},{NUMBER_OF_POLES=3},{OMNICLASS_NUMBER=23.75.10.24.21.27.14},{OMNICLASS_TITLE=Packaged Rooftop Air Conditioning Units},{PARTTYPE=Normal},{PHASE=3},{PRODUCT_PAGE_URL=https://www.daikinac.com/content
100
AcDbAttributeDefinition
  3

  2
PSOL_14
 70
     9
280
     0
  0
ATTDEF
  5
1B1
330
190
100
AcDbEntity
  8
AM_6
100
AcDbText
 10
-3.950001515834037
 20
4.706248484226471
 30
0.0
 40
0.5
  1
-commercial/packaged-hvac-systems/dsg-series-3-6-tons-packaged-gaselectric/},{REFRIGERANT_CHARGE=5.1875},{REFRIGERANT_CHARGE_VALUE=5.1875},{REFRIGERANT_USED=R-32},{RETURN_AIR_CONNECTION_HEIGHT=25},{RETURN_AIR_CONNECTION_HORIZONTAL_CENTER_OFFSET=1.02
100
AcDbAttributeDefinition
  3

  2
PSOL_15
 70
     9
280
     0
  0
ATTDEF
  5
1B2
330
190
100
AcDbEntity
  8
AM_6
100
AcDbText
 10
-3.950001515834037
 20
4.206248484226471
 30
0.0
 40
0.5
  1
333333},{RETURN_AIR_CONNECTION_VERTICAL_CENTER_OFFSET=1.484375},{RETURN_AIR_CONNECTION_WIDTH=11},{RETURN_AIR_PRESSURE_DROP=0},{SENSIBLE_COOLING_CAPACITY=0},{SERIES=DSG},{SIDE_CONDENSATE_DRAIN_CONNECTION_HORIZONTAL_OFFSET=1.66666666666667},{SIDE_COND
100
AcDbAttributeDefinition
  3

  2
PSOL_16
 70
     9
280
     0
  0
ATTDEF
  5
1B3
330
190
100
AcDbEntity
  8
AM_6
100
AcDbText
 10
-3.950001515834037
 20
3.706248484226471
 30
0.0
 40
0.5
  1
_DRAIN_CONNECTION_VERTICAL_OFFSET=0.708333333333333},{SIDE_DUCT_VERTICAL_OFFSET=0.515625},{SIDE_RETURN_DUCT_HORIZONTAL_OFFSET=0.416666666666667},{SIDE_SUPPLY_DUCT_HORIZONTAL_OFFSET=0.614583333333333},{SIDEFLOW_OPTION=0},{STANDARDS=AHRI Certified; ET
100
AcDbAttributeDefinition
  3

  2
PSOL_17
 70
     9
280
     0
  0
ATTDEF
  5
1B4
330
190
100
AcDbEntity
  8
AM_6
100
AcDbText
 10
-3.950001515834037
 20
3.206248484226471
 30
0.0
 40
0.5
  1
ed},{SUPPLY_AIR_CONNECTION_HEIGHT=12},{SUPPLY_AIR_CONNECTION_HORIZONTAL_CENTER_OFFSET=2.68229166666667},{SUPPLY_AIR_CONNECTION_VERTICAL_CENTER_OFFSET=0.942708333333333},{SUPPLY_AIR_CONNECTION_WIDTH=17},{SUPPLY_AIR_FLOW_STATUS=Design Supply Air Flow 
100
AcDbAttributeDefinition
  3

  2
PSOL_18
 70
     9
280
     0
  0
ATTDEF
  5
1B5
330
190
100
AcDbEntity
  8
AM_6
100
AcDbText
 10
-3.950001515834037
 20
2.706248484226471
 30
0.0
 40
0.5
  1
Short of Minimum Recommended},{SUPPLY_AIR_PRESSURE_DROP=0},{SYSTEM_PERFORMANCE_EER=11.8},{SYSTEM_PERFORMANCE_EER2=N/A},{SYSTEM_PERFORMANCE_IEER=16.7},{SYSTEM_PERFORMANCE_SEER2=N/A},{TOTAL_COOLING_CAPACITY=0},{TOTAL_STATIC_PRESSURE=0},{UNIT_WEIGHT=62
100
AcDbAttributeDefinition
  3

  2
PSOL_19
 70
     9
280
     0
  0
ATTDEF
  5
1B6
330
190
100
AcDbEntity
  8
AM_6
100
AcDbText
 10
-3.950001515834037
 20
2.206248484226471
 30
0.0
 40
0.5
  1
IT_WEIGHT_VALUE=626},{VERSION=1},{VOLTAGE=240},{VOLTAGE_COMMENTS=208 VAC to 230 VAC},{DEFAULTSORTATTR=752},{RFA_FAMILY_=../../../_pool_/d3/37/rooftop_unit-gas_electric-daikin-dsg_3-6_ton.zip},{RFA_FAMILY_ENG=../../../_pool_/d3/37/rooftop_unit-gas_el
100
AcDbAttributeDefinition
  3

  2
PSOL_20
 70
     9
280
     0
  0
ATTDEF
  5
1B7
330
190
100
AcDbEntity
  8
AM_6
100
AcDbText
 10
-3.950001515834037
 20
1.706248484226471
 30
0.0
 40
0.5
  1
-daikin-dsg_3-6_ton.zip},{REVIT_FAMILY_DOWNLOAD=../../../_pool_/d3/37/rooftop_unit-gas_electric-daikin-dsg_3-6_ton.zip}
100
AcDbAttributeDefinition
  3

  2
PSOL_21
 70
     9
280
     0
  0
LINE
  5
1BA
330
190
100
AcDbEntity
  8
AM_7
100
AcDbLine
 10
-32.04999848428664
 20
7.656250000000169
 30
0.0
 11
-8.950001515834037
 21
7.656250000000169
 31
0.0
  0
LINE
  5
1BB
330
190
100
AcDbEntity
  8
AM_7
100
AcDbLine
 10
-20.50000000006034
 20
-3.893748484226133
 30
0.0
 11
-20.50000000006034
 21
19.20624848422647
 31
0.0
  0
ARC
  5
1BC
330
190
100
AcDbEntity
  8
AM_0
100
AcDbCircle
 10
-20.49999999999961
 20
7.656249999982065
 30
0.0
 40
10.99999855646674
100
AcDbArc
 50
0.000000000145607
 51
179.9999999999131
  0
LINE
  5
1BE
330
190
100
AcDbEntity
  8
AM_4
100
AcDbLine
 10
-9.50001225934111
 20
7.656249999999646
 30
0.0
 11
-31.49993798666075
 21
7.656249999999767
 31
0.0
  0
LWPOLYLINE
  5
1BF
330
190
100
AcDbEntity
  8
AM_0
100
AcDbPolyline
 90
       45
 70
     0
 43
0.0
 10
-9.499999999999615
 20
7.65625000001002
 10
-9.500000022853891
 20
7.655542063165308
 10
-9.500000571351732
 20
7.652710315815937
 10
-9.500010078314975
 20
7.64138332877928
 10
-9.50016509372983
 20
7.596075539244519
 10
-9.502655801749317
 20
7.414854644945418
 10
-9.542507119108839
 20
6.690628619183572
 10
-9.630211538504478
 20
5.969029611523711
 10
-9.76534402750731
 20
5.254794077829255
 10
-9.951149783187459
 20
4.538492073965191
 10
-10.18460361916936
 20
3.836272416283428
 10
-10.45876949217693
 20
3.164761912953073
 10
-10.77811906653053
 20
2.509980619887746
 10
-11.23740948397238
 20
1.722929012044393
 10
-11.76417381638763
 20
0.971595227191622
 10
-12.34725546991444
 20
0.2716565406563318
 10
-12.99087463600714
 20
-0.3819541676724104
 10
-13.68428194107558
 20
-0.9776453003588518
 10
-14.4246643193926
 20
-1.513825821952021
 10
-15.23040730420654
 20
-1.99928682329146
 10
-16.07460576610604
 20
-2.414288424961679
 10
-16.92342135600918
 20
-2.74602786922387
 10
-17.80292069175304
 20
-3.007951750526721
 10
-18.6944690468239
 20
-3.194546485121689
 10
-19.60471850419064
 20
-3.307215659736316
 10
-20.51476711650841
 20
-3.343740056209092
 10
-21.43102616357444
 20
-3.304237200052257
 10
-22.33457232716404
 20
-3.189675865053957
 10
-23.23166355520594
 20
-2.999143217957042
 10
-24.10676133896383
 20
-2.735545467954363
 10
-24.95700068153023
 20
-2.400338141075606
 10
-25.7996911053759
 20
-1.982800051898255
 10
-26.60372361886245
 20
-1.494955260531161
 10
-27.34016979453511
 20
-0.9583412218762802
 10
-28.03433363614177
 20
-0.3583336630397966
 10
-28.67167630025676
 20
0.2926140973235817
 10
-29.25681024201389
 20
0.9991048797242362
 10
-29.77756504893266
 20
1.746373613211915
 10
-30.23760851541688
 20
2.539801574682161
 10
-30.62754127229619
 20
3.36289661961204
 10
-30.94995000913196
 20
4.221471913794471
 10
-31.186210346681
 20
5.047713027549756
 10
-31.35808759675911
 20
5.895113597515909
 10
-31.46419822630227
 20
6.769982070312452
 10
-31.49999999999961
 20
7.656249999998741
  0
LINE
  5
1C0
330
190
100
AcDbEntity
  8
AM_0
100
AcDbLine
 10
-31.49921013751973
 20
7.787881707584956
 30
0.0
 11
-31.49994264322901
 21
7.691717024822705
 31
0.0
  0
LWPOLYLINE
  5
1C1
330
190
100
AcDbEntity
  8
AM_0
100
AcDbPolyline
 90
        3
 70
     0
 43
0.0
 10
-31.47209116659593
 20
8.43881453196076
 10
-31.49761174656957
 20
7.885161042718454
 10
-31.49921013751973
 20
7.787881707584956
  0
LINE
  5
1C2
330
190
100
AcDbEntity
  8
AM_0
100
AcDbLine
 10
-31.44698921112476
 20
8.73443432993914
 30
0.0
 11
-31.47209116659593
 21
8.43881453196076
 31
0.0
  0
LINE
  5
1C3
330
190
100
AcDbEntity
  8
AM_0
100
AcDbLine
 10
-31.36801119935379
 20
9.355048298140398
 30
0.0
 11
-31.44698921112476
 21
8.73443432993914
 31
0.0
  0
LWPOLYLINE
  5
1C4
330
190
100
AcDbEntity
  8
AM_0
100
AcDbPolyline
 90
       38
 70
     0
 43
0.0
 10
-9.501200618136483
 20
7.818543678137964
 10
-9.508001244263989
 20
8.075288947485783
 10
-9.588643273350876
 20
9.049628986905107
 10
-9.755429702635835
 20
10.0129611643515
 10
-10.00715881414878
 20
10.95766770196844
 10
-10.34170058595587
 20
11.87631547311859
 10
-10.75656529385768
 20
12.76159500562852
 10
-11.24832848719378
 20
13.60658400370195
 10
-11.81323107031286
 20
14.40452647023842
 10
-12.44671660531899
 20
15.14919917519237
 10
-13.14383686360295
 20
15.83465316431069
 10
-13.89906699729909
 20
16.45551557079716
 10
-14.7064252826835
 20
17.00687442822637
 10
-15.55957602475241
 20
17.48434161440703
 10
-16.45172232713501
 20
17.884219743754
 10
-17.3758787794166
 20
18.203236737775
 10
-18.32468946073979
 20
18.43901500931309
 10
-19.29069968911659
 20
18.58953290209745
 10
-20.26625763417407
 20
18.65375989171854
 10
-21.24365744938577
 20
18.6310484954646
 10
-22.21519328681487
 20
18.52168682692746
 10
-23.17316762374444
 20
18.32647224486799
 10
-24.10678637753146
 20
18.04809433169249
 10
-24.9856433560771
 20
17.70009322934521
 10
-25.80140868794251
 20
17.2944110417528
 10
-26.30927449146444
 20
16.99713000184788
 10
-26.78802930949462
 20
16.68180079109824
 10
-27.23777070351462
 20
16.35117079855841
 10
-27.70521106994672
 20
15.96793607461006
 10
-28.22059335218893
 20
15.49158142664173
 10
-28.76905214091802
 20
14.91035445997694
 10
-29.33230196405142
 20
14.21291866060762
 10
-29.88800757500472
 20
13.38904195930972
 10
-30.40974310641592
 20
12.43080329613989
 10
-30.76054345003113
 20
11.62123107363434
 10
-31.06073918584754
 20
10.7335646815564
 10
-31.29503027005938
 20
9.769853096662287
 10
-31.36801119935379
 20
9.355048298140398
  0
LINE
  5
1C5
330
190
100
AcDbEntity
  8
AM_0
100
AcDbLine
 10
-9.500068004464632
 20
7.694869177352973
 30
0.0
 11
-9.501200618136483
 21
7.818543678137964
 31
0.0
  0
ENDBLK
  5
193
330
190
100
AcDbEntity
  8
0
100
AcDbBlockEnd
  0
BLOCK
  5
1C8
330
1C6
100
AcDbEntity
  8
0
100
AcDbBlockBegin
  2
8_DSG0723DH00001S_PART1_0_in_DSG0723DH00001S_4
 70
     2
 10
0.0
 20
0.0
 30
0.0
  3
8_DSG0723DH00001S_PART1_0_in_DSG0723DH00001S_4
  1

  0
ATTDEF
  5
1CA
330
1C6
100
AcDbEntity
  8
AM_6
100
AcDbText
 10
-9.33333333333311
 20
-23.81250000000004
 30
0.0
 40
0.5
  1
DSG0723DH00001S_PART1
100
AcDbAttributeDefinition
  3

  2
NB
 70
     8
280
     0
  0
ATTDEF
  5
1CB
330
1C6
100
AcDbEntity
  8
AM_6
100
AcDbText
 10
-9.33333333333311
 20
-24.31250000000004
 30
0.0
 40
0.5
  1

100
AcDbAttributeDefinition
  3

  2
NN
 70
     8
280
     0
  0
ATTDEF
  5
1CC
330
1C6
100
AcDbEntity
  8
AM_6
100
AcDbText
 10
-9.33333333333311
 20
-24.81250000000004
 30
0.0
 40
0.5
  1

100
AcDbAttributeDefinition
  3

  2
NT
 70
     8
280
     0
  0
ATTDEF
  5
1CD
330
1C6
100
AcDbEntity
  8
AM_6
100
AcDbText
 10
-9.33333333333311
 20
-25.31250000000004
 30
0.0
 40
0.5
  1
$PARTNUMBER._PART1
100
AcDbAttributeDefinition
  3

  2
NBSYN
 70
     8
280
     0
  0
ATTDEF
  5
1CE
330
1C6
100
AcDbEntity
  8
AM_6
100
AcDbText
 10
-9.33333333333311
 20
-25.81250000000004
 30
0.0
 40
0.5
  1
DSG0723DH00001S_PART1
100
AcDbAttributeDefinition
  3

  2
LINA
 70
     8
280
     0
  0
ATTDEF
  5
1CF
330
1C6
100
AcDbEntity
  8
AM_6
100
AcDbText
 10
-9.33333333333311
 20
-26.31250000000004
 30
0.0
 40
0.5
  1
Daikin
100
AcDbAttributeDefinition
  3

  2
CATALOG
 70
     8
280
     0
  0
ATTDEF
  5
1D0
330
1C6
100
AcDbEntity
  8
AM_6
100
AcDbText
 10
-9.33333333333311
 20
-26.81250000000004
 30
0.0
 40
0.5
  1
DSG0723DH00001S
100
AcDbAttributeDefinition
  3

  2
PARTNUMBER
 70
     8
280
     0
  0
ATTDEF
  5
1D1
330
1C6
100
AcDbEntity
  8
AM_6
100
AcDbText
 10
-9.33333333333311
 20
-27.31250000000004
 30
0.0
 40
0.5
  1
Standard Efficiency Gas/Electric Direct-Drive Packaged Rooftop Unit
100
AcDbAttributeDefinition
  3

  2
DESCRIPTION
 70
     8
280
     0
  0
ATTDEF
  5
1D2
330
1C6
100
AcDbEntity
  8
AM_6
100
AcDbText
 10
-9.33333333333311
 20
-27.81250000000004
 30
0.0
 40
0.5
  1
48.375
100
AcDbAttributeDefinition
  3

  2
OVERALL_DEPTH
 70
     8
280
     0
  0
ATTDEF
  5
1D3
330
1C6
100
AcDbEntity
  8
AM_6
100
AcDbText
 10
-9.33333333333311
 20
-28.31250000000004
 30
0.0
 40
0.5
  1
43.500
100
AcDbAttributeDefinition
  3

  2
OVERALL_HEIGHT
 70
     8
280
     0
  0
ATTDEF
  5
1D4
330
1C6
100
AcDbEntity
  8
AM_6
100
AcDbText
 10
-9.33333333333311
 20
-28.81250000000004
 30
0.0
 40
0.5
  1
74.000
100
AcDbAttributeDefinition
  3

  2
OVERALL_WIDTH
 70
     8
280
     0
  0
ATTDEF
  5
1D5
330
1C6
100
AcDbEntity
  8
AM_6
100
AcDbText
 10
-9.33333333333311
 20
-29.31250000000004
 30
0.0
 40
0.5
  1
https://daikincomfort.com
100
AcDbAttributeDefinition
  3

  2
URL
 70
     8
280
     0
  0
ATTDEF
  5
1D6
330
1C6
100
AcDbEntity
  8
AM_6
100
AcDbText
 10
-9.33333333333311
 20
-29.81250000000004
 30
0.0
 40
0.5
  1
Download Revit Family (RFA)
100
AcDbAttributeDefinition
  3

  2
RFA_FAMILY
 70
     8
280
     0
  0
ATTDEF
  5
1D7
330
1C6
100
AcDbEntity
  8
AM_6
100
AcDbText
 10
-9.33333333333311
 20
-30.31250000000004
 30
0.0
 40
0.5
  1
daikin
100
AcDbAttributeDefinition
  3

  2
COMPANY
 70
     8
280
     0
  0
ATTDEF
  5
1D8
330
1C6
100
AcDbEntity
  8
AM_6
100
AcDbText
 10
-9.33333333333311
 20
-30.81250000000004
 30
0.0
 40
0.5
  1
{$CADENAS_DATA/23d-libs/daikin/light20commercial20rooftop20package20units/gas-electric/dsg/rooftop_unit-gas_electric-daikin-dsg_3-6_ton.prj},240 {VTYP=3D},{NB=DSG0723DH00001S_PART1},{LINA=DSG0723DH00001S_PART1},{NN=Rooftop_Unit-Gas_Electric-Daikin-D
100
AcDbAttributeDefinition
  3

  2
PSOL_0
 70
     9
280
     0
  0
ATTDEF
  5
1D9
330
1C6
100
AcDbEntity
  8
AM_6
100
AcDbText
 10
-9.33333333333311
 20
-31.31250000000004
 30
0.0
 40
0.5
  1
_Ton_PART1},{NOPRJ=TRUE},{DATE=03.06.2026 19:23:11},{GEOMDATE=10.10.2025 10:56:44},{VERSION=},{LINEID=300},{WBVAR=},{WBNUMERIC=}  {NB=DSG0723DH00001S_PART1},{LINA=DSG0723DH00001S_PART1},{KT=DUMMY},{PARTNUMBER=DSG0723DH00001S},{DESCRIPTION=Standard E
100
AcDbAttributeDefinition
  3

  2
PSOL_1
 70
     9
280
     0
  0
ATTDEF
  5
1DA
330
1C6
100
AcDbEntity
  8
AM_6
100
AcDbText
 10
-9.33333333333311
 20
-31.81250000000004
 30
0.0
 40
0.5
  1
ncy Gas/Electric Direct-Drive Packaged Rooftop Unit},{OVERALL_DEPTH=48.375},{OVERALL_HEIGHT=43.500},{OVERALL_WIDTH=74.000},{URL=https://daikincomfort.com},{RFA_FAMILY=Download Revit Family (RFA)},{ORDERNO=6Ton_208-230V_3Ph_Standard-ESP_High-Heat_DSG
100
AcDbAttributeDefinition
  3

  2
PSOL_2
 70
     9
280
     0
  0
ATTDEF
  5
1DB
330
1C6
100
AcDbEntity
  8
AM_6
100
AcDbText
 10
-9.33333333333311
 20
-32.31250000000004
 30
0.0
 40
0.5
  1
00001S},{ACTUAL_SUPPLY_AIR_FLOW=1800},{AMBIENT_TEMPERATURE=0},{APPARENT_POWER=16627.6877526612},{ASSEMBLY_CODE=D3050200},{ASSEMBLY_HEIGHT_OFFSET=0},{ASSEMBLY_MOUNTED_ON_CURB=0},{BASE_RAIL_HEIGHT=0.34375},{BASE_RAIL_THICKNESS=0.0286458333333333},{BOT
100
AcDbAttributeDefinition
  3

  2
PSOL_3
 70
     9
280
     0
  0
ATTDEF
  5
1DC
330
1C6
100
AcDbEntity
  8
AM_6
100
AcDbText
 10
-9.33333333333311
 20
-32.81250000000004
 30
0.0
 40
0.5
  1
NDENSATE_DRAIN_CONNECTION_HORIZONTAL_OFFSET=1.625},{BOTTOM_CONDENSATE_DRAIN_CONNECTION_VERTICAL_OFFSET=1.625},{CATEGORY=Mechanical Equipment},{CLEARANCE_VISIBILITY=1},{COIL_AIR_PRESSURE_DROP=0},{COMPRESSOR_LOCKED_ROTOR_AMPS=155},{COMPRESSOR_RATED_LO
100
AcDbAttributeDefinition
  3

  2
PSOL_4
 70
     9
280
     0
  0
ATTDEF
  5
1DD
330
1C6
100
AcDbEntity
  8
AM_6
100
AcDbText
 10
-9.33333333333311
 20
-33.31250000000004
 30
0.0
 40
0.5
  1
S=16.1},{COMPRESSOR_TYPE=Scroll},{CONDENSATE_DRAIN_CONNECTION_DIAMETER=0.75},{CONDENSATE_DRAIN_CONNECTION_RADIUS=0.375},{CONDENSER_FAN_MOTOR_HORSEPOWER=246.080957622149},{CONDUIT_A_VERTICAL_OFFSET=0.375},{CONDUIT_B_VERTICAL_OFFSET=0.625},{CONDUIT_CO
100
AcDbAttributeDefinition
  3

  2
PSOL_5
 70
     9
280
     0
  0
ATTDEF
  5
1DE
330
1C6
100
AcDbEntity
  8
AM_6
100
AcDbText
 10
-9.33333333333311
 20
-33.81250000000004
 30
0.0
 40
0.5
  1
ON_RADIUS_A=0.25},{CONDUIT_CONNECTION_RADIUS_B=0.25},{CONDUIT_CONNECTION_SIZE_A=0.5},{CONDUIT_CONNECTION_SIZE_B=0.5},{CONDUIT_HORIZONTAL_OFFSET=3.9609375},{COOLING_ENTERING_DRY_BULB_TEMPERATURE=0},{COOLING_ENTERING_WET_BULB_TEMPERATURE=0},{COOLING_L
100
AcDbAttributeDefinition
  3

  2
PSOL_6
 70
     9
280
     0
  0
ATTDEF
  5
1DF
330
1C6
100
AcDbEntity
  8
AM_6
100
AcDbText
 10
-9.33333333333311
 20
-34.31250000000004
 30
0.0
 40
0.5
  1
_DRY_BULB_TEMPERATURE=0},{COOLING_LEAVING_WET_BULB_TEMPERATURE=0},{COST=0},{CURB_HEIGHT=0},{DEFAULT_ELEVATION=0},{DESIGN_RETURN_AIR_FLOW=0},{DESIGN_SUPPLY_AIR_FLOW=0},{DOWNFLOW_DUCT_VERTICAL_OFFSET=0.442708333333333},{DOWNFLOW_OPTION=1},{DOWNFLOW_RE
100
AcDbAttributeDefinition
  3

  2
PSOL_7
 70
     9
280
     0
  0
ATTDEF
  5
1E0
330
1C6
100
AcDbEntity
  8
AM_6
100
AcDbText
 10
-9.33333333333311
 20
-34.81250000000004
 30
0.0
 40
0.5
  1
IR_CONNECTION_HEIGHT=25},{DOWNFLOW_RETURN_AIR_CONNECTION_WIDTH=11},{DOWNFLOW_RETURN_DUCT_HORIZONTAL_OFFSET=0.486979166666667},{DOWNFLOW_SUPPLY_AIR_CONNECTION_HEIGHT=12},{DOWNFLOW_SUPPLY_AIR_CONNECTION_WIDTH=17},{DOWNFLOW_SUPPLY_DUCT_HORIZONTAL_OFFSE
100
AcDbAttributeDefinition
  3

  2
PSOL_8
 70
     9
280
     0
  0
ATTDEF
  5
1E1
330
1C6
100
AcDbEntity
  8
AM_6
100
AcDbText
 10
-9.33333333333311
 20
-35.31250000000004
 30
0.0
 40
0.5
  1
5416666666667},{DRAIN_FLOW=0},{DUCT_ANGLE=0},{ENCLOSURE_DEPTH=3.96875},{ENCLOSURE_WIDTH=6.11458333333333},{ENGWORKS_GLOBAL=www.ENGworksGlobal.com},{EVAPORATOR_FAN_MOTOR_HORSEPOWER=894.839845898724},{EVAPORATOR_FAN_TYPE=Direct Drive - Standard},{FACE
100
AcDbAttributeDefinition
  3

  2
PSOL_9
 70
     9
280
     0
  0
ATTDEF
  5
1E2
330
1C6
100
AcDbEntity
  8
AM_6
100
AcDbText
 10
-9.33333333333311
 20
-35.81250000000004
 30
0.0
 40
0.5
  1
ITY__FPM_=0},{FAN_DIAMETER=1.83333333333333},{FAN_OFFSET=1.375},{FAN_RADIUS=0.916666666666667},{FEET_PRESSURE_DROP=0},{FILTER_SIZE=14 X 20 X 2, 20 X 20 X 2},{FREQUENCY=60},{GAS_ENTRY_RADIUS=0.25},{GAS_ENTRY_SIZE=0.5},{HEATING_ENTERING_DRY_BULB_TEMPE
100
AcDbAttributeDefinition
  3

  2
PSOL_10
 70
     9
280
     0
  0
ATTDEF
  5
1E3
330
1C6
100
AcDbEntity
  8
AM_6
100
AcDbText
 10
-9.33333333333311
 20
-36.31250000000004
 30
0.0
 40
0.5
  1
=0},{HEATING_ENTERING_WET_BULB_TEMPERATURE=0},{HEATING_LEAVING_DRY_BULB_TEMPERATURE=0},{HEATING_LEAVING_WET_BULB_TEMPERATURE=0},{HORIZONTAL_RETURN_AIR_CONNECTION_HEIGHT=25},{HORIZONTAL_RETURN_AIR_CONNECTION_WIDTH=11},{HORIZONTAL_SUPPLY_AIR_CONNECTIO
100
AcDbAttributeDefinition
  3

  2
PSOL_11
 70
     9
280
     0
  0
ATTDEF
  5
1E4
330
1C6
100
AcDbEntity
  8
AM_6
100
AcDbText
 10
-9.33333333333311
 20
-36.81250000000004
 30
0.0
 40
0.5
  1
HT=12},{HORIZONTAL_SUPPLY_AIR_CONNECTION_WIDTH=17},{LATENT_COOLING_CAPACITY=0},{LOAD_SUB_CLASSIFICATION_MOTOR=1},{MANUFACTURER=Daikin},{MASSUNIT=1},{MAXIMUM_AIR_FLOW=2700},{MAXIMUM_CLEARANCE=3},{MAXIMUM_HEATING_INPUT__MBH_=140},{MAXIMUM_HEATING_OUTP
100
AcDbAttributeDefinition
  3

  2
PSOL_12
 70
     9
280
     0
  0
ATTDEF
  5
1E5
330
1C6
100
AcDbEntity
  8
AM_6
100
AcDbText
 10
-9.33333333333311
 20
-37.31250000000004
 30
0.0
 40
0.5
  1
H_=112},{MAXIMUM_OVERCURRENT_PROTECTION=40},{MINIMUM_AIR_FLOW=1800},{MINIMUM_CIRCUIT_AMPS=27.2},{MINIMUM_CLEARANCE=2},{MINIMUM_HEATING_INPUT__MBH_=105},{MINIMUM_HEATING_OUTPUT__MBH_=84},{MODEL=DSG0723DH00001S},{NOMINAL_COOLING_CAPACITY=69000},{NOMIN
100
AcDbAttributeDefinition
  3

  2
PSOL_13
 70
     9
280
     0
  0
ATTDEF
  5
1E6
330
1C6
100
AcDbEntity
  8
AM_6
100
AcDbText
 10
-9.33333333333311
 20
-37.81250000000004
 30
0.0
 40
0.5
  1
LING_CAPACITY__TONS_=6},{NOMINAL_HEATING_CAPACITY=0},{NUMBER_OF_POLES=3},{OMNICLASS_NUMBER=23.75.10.24.21.27.14},{OMNICLASS_TITLE=Packaged Rooftop Air Conditioning Units},{PARTTYPE=Normal},{PHASE=3},{PRODUCT_PAGE_URL=https://www.daikinac.com/content
100
AcDbAttributeDefinition
  3

  2
PSOL_14
 70
     9
280
     0
  0
ATTDEF
  5
1E7
330
1C6
100
AcDbEntity
  8
AM_6
100
AcDbText
 10
-9.33333333333311
 20
-38.31250000000004
 30
0.0
 40
0.5
  1
-commercial/packaged-hvac-systems/dsg-series-3-6-tons-packaged-gaselectric/},{REFRIGERANT_CHARGE=5.1875},{REFRIGERANT_CHARGE_VALUE=5.1875},{REFRIGERANT_USED=R-32},{RETURN_AIR_CONNECTION_HEIGHT=25},{RETURN_AIR_CONNECTION_HORIZONTAL_CENTER_OFFSET=1.02
100
AcDbAttributeDefinition
  3

  2
PSOL_15
 70
     9
280
     0
  0
ATTDEF
  5
1E8
330
1C6
100
AcDbEntity
  8
AM_6
100
AcDbText
 10
-9.33333333333311
 20
-38.81250000000004
 30
0.0
 40
0.5
  1
333333},{RETURN_AIR_CONNECTION_VERTICAL_CENTER_OFFSET=1.484375},{RETURN_AIR_CONNECTION_WIDTH=11},{RETURN_AIR_PRESSURE_DROP=0},{SENSIBLE_COOLING_CAPACITY=0},{SERIES=DSG},{SIDE_CONDENSATE_DRAIN_CONNECTION_HORIZONTAL_OFFSET=1.66666666666667},{SIDE_COND
100
AcDbAttributeDefinition
  3

  2
PSOL_16
 70
     9
280
     0
  0
ATTDEF
  5
1E9
330
1C6
100
AcDbEntity
  8
AM_6
100
AcDbText
 10
-9.33333333333311
 20
-39.31250000000004
 30
0.0
 40
0.5
  1
_DRAIN_CONNECTION_VERTICAL_OFFSET=0.708333333333333},{SIDE_DUCT_VERTICAL_OFFSET=0.515625},{SIDE_RETURN_DUCT_HORIZONTAL_OFFSET=0.416666666666667},{SIDE_SUPPLY_DUCT_HORIZONTAL_OFFSET=0.614583333333333},{SIDEFLOW_OPTION=0},{STANDARDS=AHRI Certified; ET
100
AcDbAttributeDefinition
  3

  2
PSOL_17
 70
     9
280
     0
  0
ATTDEF
  5
1EA
330
1C6
100
AcDbEntity
  8
AM_6
100
AcDbText
 10
-9.33333333333311
 20
-39.81250000000004
 30
0.0
 40
0.5
  1
ed},{SUPPLY_AIR_CONNECTION_HEIGHT=12},{SUPPLY_AIR_CONNECTION_HORIZONTAL_CENTER_OFFSET=2.68229166666667},{SUPPLY_AIR_CONNECTION_VERTICAL_CENTER_OFFSET=0.942708333333333},{SUPPLY_AIR_CONNECTION_WIDTH=17},{SUPPLY_AIR_FLOW_STATUS=Design Supply Air Flow 
100
AcDbAttributeDefinition
  3

  2
PSOL_18
 70
     9
280
     0
  0
ATTDEF
  5
1EB
330
1C6
100
AcDbEntity
  8
AM_6
100
AcDbText
 10
-9.33333333333311
 20
-40.31250000000004
 30
0.0
 40
0.5
  1
Short of Minimum Recommended},{SUPPLY_AIR_PRESSURE_DROP=0},{SYSTEM_PERFORMANCE_EER=11.8},{SYSTEM_PERFORMANCE_EER2=N/A},{SYSTEM_PERFORMANCE_IEER=16.7},{SYSTEM_PERFORMANCE_SEER2=N/A},{TOTAL_COOLING_CAPACITY=0},{TOTAL_STATIC_PRESSURE=0},{UNIT_WEIGHT=62
100
AcDbAttributeDefinition
  3

  2
PSOL_19
 70
     9
280
     0
  0
ATTDEF
  5
1EC
330
1C6
100
AcDbEntity
  8
AM_6
100
AcDbText
 10
-9.33333333333311
 20
-40.81250000000004
 30
0.0
 40
0.5
  1
IT_WEIGHT_VALUE=626},{VERSION=1},{VOLTAGE=240},{VOLTAGE_COMMENTS=208 VAC to 230 VAC},{DEFAULTSORTATTR=752},{RFA_FAMILY_=../../../_pool_/d3/37/rooftop_unit-gas_electric-daikin-dsg_3-6_ton.zip},{RFA_FAMILY_ENG=../../../_pool_/d3/37/rooftop_unit-gas_el
100
AcDbAttributeDefinition
  3

  2
PSOL_20
 70
     9
280
     0
  0
ATTDEF
  5
1ED
330
1C6
100
AcDbEntity
  8
AM_6
100
AcDbText
 10
-9.33333333333311
 20
-41.31250000000004
 30
0.0
 40
0.5
  1
-daikin-dsg_3-6_ton.zip},{REVIT_FAMILY_DOWNLOAD=../../../_pool_/d3/37/rooftop_unit-gas_electric-daikin-dsg_3-6_ton.zip}
100
AcDbAttributeDefinition
  3

  2
PSOL_21
 70
     9
280
     0
  0
LINE
  5
1EE
330
1C6
100
AcDbEntity
  8
AM_0
100
AcDbLine
 10
-14.33333333333311
 20
-23.84375000000047
 30
0.0
 11
-32.99999999999969
 21
-23.84375000000047
 31
0.0
  0
LINE
  5
1EF
330
1C6
100
AcDbEntity
  8
AM_0
100
AcDbLine
 10
-14.33333333333311
 20
-23.81250000000004
 30
0.0
 11
-14.33333333333311
 21
-23.84375000000047
 31
0.0
  0
LINE
  5
1F0
330
1C6
100
AcDbEntity
  8
AM_0
100
AcDbLine
 10
-32.99999999999969
 20
-23.84375000000047
 30
0.0
 11
-32.99999999999969
 21
-23.81250000000004
 31
0.0
  0
ENDBLK
  5
1C9
330
1C6
100
AcDbEntity
  8
0
100
AcDbBlockEnd
  0
ENDSEC
  0
SECTION
  2
ENTITIES
  0
ATTDEF
  5
5F
330
1F
100
AcDbEntity
  8
AM_6
100
AcDbText
 10
42.0000000000002
 20
24.15624999999952
 30
0.0
 40
0.5
  1
DSG0723DH00001S
100
AcDbAttributeDefinition
  3

  2
NB
 70
     8
280
     0
  0
ATTDEF
  5
60
330
1F
100
AcDbEntity
  8
AM_6
100
AcDbText
 10
42.0000000000002
 20
23.65624999999952
 30
0.0
 40
0.5
  1
Rooftop_Unit-Gas_Electric-Daikin-DSG_3-6_Ton
100
AcDbAttributeDefinition
  3

  2
NN
 70
     8
280
     0
  0
ATTDEF
  5
61
330
1F
100
AcDbEntity
  8
AM_6
100
AcDbText
 10
42.0000000000002
 20
23.15624999999952
 30
0.0
 40
0.5
  1

100
AcDbAttributeDefinition
  3

  2
NT
 70
     8
280
     0
  0
ATTDEF
  5
62
330
1F
100
AcDbEntity
  8
AM_6
100
AcDbText
 10
42.0000000000002
 20
22.65624999999952
 30
0.0
 40
0.5
  1
$PARTNUMBER.
100
AcDbAttributeDefinition
  3

  2
NBSYN
 70
     8
280
     0
  0
ATTDEF
  5
63
330
1F
100
AcDbEntity
  8
AM_6
100
AcDbText
 10
42.0000000000002
 20
22.15624999999952
 30
0.0
 40
0.5
  1
DSG0723DH00001S
100
AcDbAttributeDefinition
  3

  2
LINA
 70
     8
280
     0
  0
ATTDEF
  5
64
330
1F
100
AcDbEntity
  8
AM_6
100
AcDbText
 10
42.0000000000002
 20
21.65624999999952
 30
0.0
 40
0.5
  1
Daikin
100
AcDbAttributeDefinition
  3

  2
CATALOG
 70
     8
280
     0
  0
ATTDEF
  5
65
330
1F
100
AcDbEntity
  8
AM_6
100
AcDbText
 10
42.0000000000002
 20
21.15624999999952
 30
0.0
 40
0.5
  1
DSG0723DH00001S
100
AcDbAttributeDefinition
  3

  2
PARTNUMBER
 70
     8
280
     0
  0
ATTDEF
  5
66
330
1F
100
AcDbEntity
  8
AM_6
100
AcDbText
 10
42.0000000000002
 20
20.65624999999952
 30
0.0
 40
0.5
  1
Standard Efficiency Gas/Electric Direct-Drive Packaged Rooftop Unit
100
AcDbAttributeDefinition
  3

  2
DESCRIPTION
 70
     8
280
     0
  0
ATTDEF
  5
67
330
1F
100
AcDbEntity
  8
AM_6
100
AcDbText
 10
42.0000000000002
 20
20.15624999999952
 30
0.0
 40
0.5
  1
48.375
100
AcDbAttributeDefinition
  3

  2
OVERALL_DEPTH
 70
     8
280
     0
  0
ATTDEF
  5
68
330
1F
100
AcDbEntity
  8
AM_6
100
AcDbText
 10
42.0000000000002
 20
19.65624999999952
 30
0.0
 40
0.5
  1
43.500
100
AcDbAttributeDefinition
  3

  2
OVERALL_HEIGHT
 70
     8
280
     0
  0
ATTDEF
  5
69
330
1F
100
AcDbEntity
  8
AM_6
100
AcDbText
 10
42.0000000000002
 20
19.15624999999952
 30
0.0
 40
0.5
  1
74.000
100
AcDbAttributeDefinition
  3

  2
OVERALL_WIDTH
 70
     8
280
     0
  0
ATTDEF
  5
6A
330
1F
100
AcDbEntity
  8
AM_6
100
AcDbText
 10
42.0000000000002
 20
18.65624999999952
 30
0.0
 40
0.5
  1
https://daikincomfort.com
100
AcDbAttributeDefinition
  3

  2
URL
 70
     8
280
     0
  0
ATTDEF
  5
6B
330
1F
100
AcDbEntity
  8
AM_6
100
AcDbText
 10
42.0000000000002
 20
18.15624999999952
 30
0.0
 40
0.5
  1
Download Revit Family (RFA)
100
AcDbAttributeDefinition
  3

  2
RFA_FAMILY
 70
     8
280
     0
  0
ATTDEF
  5
6C
330
1F
100
AcDbEntity
  8
AM_6
100
AcDbText
 10
42.0000000000002
 20
17.65624999999952
 30
0.0
 40
0.5
  1
daikin
100
AcDbAttributeDefinition
  3

  2
COMPANY
 70
     8
280
     0
  0
ATTDEF
  5
6D
330
1F
100
AcDbEntity
  8
AM_6
100
AcDbText
 10
42.0000000000002
 20
17.15624999999952
 30
0.0
 40
0.5
  1
{$CADENAS_DATA/23d-libs/daikin/light20commercial20rooftop20package20units/gas-electric/dsg/rooftop_unit-gas_electric-daikin-dsg_3-6_ton.prj},220 {STYP=ASS},{VTYP=3D},{NB=DSG0723DH00001S},{LINA=DSG0723DH00001S},{NN=Rooftop_Unit-Gas_Electric-Daikin-DS
100
AcDbAttributeDefinition
  3

  2
PSOL_0
 70
     9
280
     0
  0
ATTDEF
  5
6E
330
1F
100
AcDbEntity
  8
AM_6
100
AcDbText
 10
42.0000000000002
 20
16.65624999999952
 30
0.0
 40
0.5
  1
Ton},{DATE=03.06.2026 19:23:11},{GEOMDATE=10.10.2025 10:56:44},{VERSION=},{LINEID=300},{WBVAR=},{WBNUMERIC=}  {NB=DSG0723DH00001S},{LINA=DSG0723DH00001S},{KT=DUMMY},{PARTNUMBER=DSG0723DH00001S},{DESCRIPTION=Standard Efficiency Gas/Electric Direct-Dr
100
AcDbAttributeDefinition
  3

  2
PSOL_1
 70
     9
280
     0
  0
ATTDEF
  5
6F
330
1F
100
AcDbEntity
  8
AM_6
100
AcDbText
 10
42.0000000000002
 20
16.15624999999952
 30
0.0
 40
0.5
  1
ckaged Rooftop Unit},{OVERALL_DEPTH=48.375},{OVERALL_HEIGHT=43.500},{OVERALL_WIDTH=74.000},{URL=https://daikincomfort.com},{RFA_FAMILY=Download Revit Family (RFA)},{ORDERNO=6Ton_208-230V_3Ph_Standard-ESP_High-Heat_DSG0723DH00001S},{ACTUAL_SUPPLY_AIR
100
AcDbAttributeDefinition
  3

  2
PSOL_2
 70
     9
280
     0
  0
ATTDEF
  5
70
330
1F
100
AcDbEntity
  8
AM_6
100
AcDbText
 10
42.0000000000002
 20
15.65624999999952
 30
0.0
 40
0.5
  1
1800},{AMBIENT_TEMPERATURE=0},{APPARENT_POWER=16627.6877526612},{ASSEMBLY_CODE=D3050200},{ASSEMBLY_HEIGHT_OFFSET=0},{ASSEMBLY_MOUNTED_ON_CURB=0},{BASE_RAIL_HEIGHT=0.34375},{BASE_RAIL_THICKNESS=0.0286458333333333},{BOTTOM_CONDENSATE_DRAIN_CONNECTION_
100
AcDbAttributeDefinition
  3

  2
PSOL_3
 70
     9
280
     0
  0
ATTDEF
  5
71
330
1F
100
AcDbEntity
  8
AM_6
100
AcDbText
 10
42.0000000000002
 20
15.15624999999952
 30
0.0
 40
0.5
  1
NTAL_OFFSET=1.625},{BOTTOM_CONDENSATE_DRAIN_CONNECTION_VERTICAL_OFFSET=1.625},{CATEGORY=Mechanical Equipment},{CLEARANCE_VISIBILITY=1},{COIL_AIR_PRESSURE_DROP=0},{COMPRESSOR_LOCKED_ROTOR_AMPS=155},{COMPRESSOR_RATED_LOAD_AMPS=16.1},{COMPRESSOR_TYPE=S
100
AcDbAttributeDefinition
  3

  2
PSOL_4
 70
     9
280
     0
  0
ATTDEF
  5
72
330
1F
100
AcDbEntity
  8
AM_6
100
AcDbText
 10
42.0000000000002
 20
14.65624999999952
 30
0.0
 40
0.5
  1
,{CONDENSATE_DRAIN_CONNECTION_DIAMETER=0.75},{CONDENSATE_DRAIN_CONNECTION_RADIUS=0.375},{CONDENSER_FAN_MOTOR_HORSEPOWER=246.080957622149},{CONDUIT_A_VERTICAL_OFFSET=0.375},{CONDUIT_B_VERTICAL_OFFSET=0.625},{CONDUIT_CONNECTION_RADIUS_A=0.25},{CONDUIT
100
AcDbAttributeDefinition
  3

  2
PSOL_5
 70
     9
280
     0
  0
ATTDEF
  5
73
330
1F
100
AcDbEntity
  8
AM_6
100
AcDbText
 10
42.0000000000002
 20
14.15624999999952
 30
0.0
 40
0.5
  1
CTION_RADIUS_B=0.25},{CONDUIT_CONNECTION_SIZE_A=0.5},{CONDUIT_CONNECTION_SIZE_B=0.5},{CONDUIT_HORIZONTAL_OFFSET=3.9609375},{COOLING_ENTERING_DRY_BULB_TEMPERATURE=0},{COOLING_ENTERING_WET_BULB_TEMPERATURE=0},{COOLING_LEAVING_DRY_BULB_TEMPERATURE=0},{
100
AcDbAttributeDefinition
  3

  2
PSOL_6
 70
     9
280
     0
  0
ATTDEF
  5
74
330
1F
100
AcDbEntity
  8
AM_6
100
AcDbText
 10
42.0000000000002
 20
13.65624999999952
 30
0.0
 40
0.5
  1
G_LEAVING_WET_BULB_TEMPERATURE=0},{COST=0},{CURB_HEIGHT=0},{DEFAULT_ELEVATION=0},{DESIGN_RETURN_AIR_FLOW=0},{DESIGN_SUPPLY_AIR_FLOW=0},{DOWNFLOW_DUCT_VERTICAL_OFFSET=0.442708333333333},{DOWNFLOW_OPTION=1},{DOWNFLOW_RETURN_AIR_CONNECTION_HEIGHT=25},{
100
AcDbAttributeDefinition
  3

  2
PSOL_7
 70
     9
280
     0
  0
ATTDEF
  5
75
330
1F
100
AcDbEntity
  8
AM_6
100
AcDbText
 10
42.0000000000002
 20
13.15624999999952
 30
0.0
 40
0.5
  1
OW_RETURN_AIR_CONNECTION_WIDTH=11},{DOWNFLOW_RETURN_DUCT_HORIZONTAL_OFFSET=0.486979166666667},{DOWNFLOW_SUPPLY_AIR_CONNECTION_HEIGHT=12},{DOWNFLOW_SUPPLY_AIR_CONNECTION_WIDTH=17},{DOWNFLOW_SUPPLY_DUCT_HORIZONTAL_OFFSET=0.635416666666667},{DRAIN_FLOW
100
AcDbAttributeDefinition
  3

  2
PSOL_8
 70
     9
280
     0
  0
ATTDEF
  5
76
330
1F
100
AcDbEntity
  8
AM_6
100
AcDbText
 10
42.0000000000002
 20
12.65624999999952
 30
0.0
 40
0.5
  1
UCT_ANGLE=0},{ENCLOSURE_DEPTH=3.96875},{ENCLOSURE_WIDTH=6.11458333333333},{ENGWORKS_GLOBAL=www.ENGworksGlobal.com},{EVAPORATOR_FAN_MOTOR_HORSEPOWER=894.839845898724},{EVAPORATOR_FAN_TYPE=Direct Drive - Standard},{FACE_VELOCITY__FPM_=0},{FAN_DIAMETER
100
AcDbAttributeDefinition
  3

  2
PSOL_9
 70
     9
280
     0
  0
ATTDEF
  5
77
330
1F
100
AcDbEntity
  8
AM_6
100
AcDbText
 10
42.0000000000002
 20
12.15624999999952
 30
0.0
 40
0.5
  1
33333333333},{FAN_OFFSET=1.375},{FAN_RADIUS=0.916666666666667},{FEET_PRESSURE_DROP=0},{FILTER_SIZE=14 X 20 X 2, 20 X 20 X 2},{FREQUENCY=60},{GAS_ENTRY_RADIUS=0.25},{GAS_ENTRY_SIZE=0.5},{HEATING_ENTERING_DRY_BULB_TEMPERATURE=0},{HEATING_ENTERING_WET_
100
AcDbAttributeDefinition
  3

  2
PSOL_10
 70
     9
280
     0
  0
ATTDEF
  5
78
330
1F
100
AcDbEntity
  8
AM_6
100
AcDbText
 10
42.0000000000002
 20
11.65624999999952
 30
0.0
 40
0.5
  1
EMPERATURE=0},{HEATING_LEAVING_DRY_BULB_TEMPERATURE=0},{HEATING_LEAVING_WET_BULB_TEMPERATURE=0},{HORIZONTAL_RETURN_AIR_CONNECTION_HEIGHT=25},{HORIZONTAL_RETURN_AIR_CONNECTION_WIDTH=11},{HORIZONTAL_SUPPLY_AIR_CONNECTION_HEIGHT=12},{HORIZONTAL_SUPPLY_
100
AcDbAttributeDefinition
  3

  2
PSOL_11
 70
     9
280
     0
  0
ATTDEF
  5
79
330
1F
100
AcDbEntity
  8
AM_6
100
AcDbText
 10
42.0000000000002
 20
11.15624999999952
 30
0.0
 40
0.5
  1
NNECTION_WIDTH=17},{LATENT_COOLING_CAPACITY=0},{LOAD_SUB_CLASSIFICATION_MOTOR=1},{MANUFACTURER=Daikin},{MASSUNIT=1},{MAXIMUM_AIR_FLOW=2700},{MAXIMUM_CLEARANCE=3},{MAXIMUM_HEATING_INPUT__MBH_=140},{MAXIMUM_HEATING_OUTPUT__MBH_=112},{MAXIMUM_OVERCURRE
100
AcDbAttributeDefinition
  3

  2
PSOL_12
 70
     9
280
     0
  0
ATTDEF
  5
7A
330
1F
100
AcDbEntity
  8
AM_6
100
AcDbText
 10
42.0000000000002
 20
10.65624999999952
 30
0.0
 40
0.5
  1
TECTION=40},{MINIMUM_AIR_FLOW=1800},{MINIMUM_CIRCUIT_AMPS=27.2},{MINIMUM_CLEARANCE=2},{MINIMUM_HEATING_INPUT__MBH_=105},{MINIMUM_HEATING_OUTPUT__MBH_=84},{MODEL=DSG0723DH00001S},{NOMINAL_COOLING_CAPACITY=69000},{NOMINAL_COOLING_CAPACITY__TONS_=6},{N
100
AcDbAttributeDefinition
  3

  2
PSOL_13
 70
     9
280
     0
  0
ATTDEF
  5
7B
330
1F
100
AcDbEntity
  8
AM_6
100
AcDbText
 10
42.0000000000002
 20
10.15624999999952
 30
0.0
 40
0.5
  1
_HEATING_CAPACITY=0},{NUMBER_OF_POLES=3},{OMNICLASS_NUMBER=23.75.10.24.21.27.14},{OMNICLASS_TITLE=Packaged Rooftop Air Conditioning Units},{PARTTYPE=Normal},{PHASE=3},{PRODUCT_PAGE_URL=https://www.daikinac.com/content/light-commercial/packaged-hvac-
100
AcDbAttributeDefinition
  3

  2
PSOL_14
 70
     9
280
     0
  0
ATTDEF
  5
7C
330
1F
100
AcDbEntity
  8
AM_6
100
AcDbText
 10
42.0000000000002
 20
9.656249999999524
 30
0.0
 40
0.5
  1
s/dsg-series-3-6-tons-packaged-gaselectric/},{REFRIGERANT_CHARGE=5.1875},{REFRIGERANT_CHARGE_VALUE=5.1875},{REFRIGERANT_USED=R-32},{RETURN_AIR_CONNECTION_HEIGHT=25},{RETURN_AIR_CONNECTION_HORIZONTAL_CENTER_OFFSET=1.02864583333333},{RETURN_AIR_CONNEC
100
AcDbAttributeDefinition
  3

  2
PSOL_15
 70
     9
280
     0
  0
ATTDEF
  5
7D
330
1F
100
AcDbEntity
  8
AM_6
100
AcDbText
 10
42.0000000000002
 20
9.156249999999524
 30
0.0
 40
0.5
  1
ERTICAL_CENTER_OFFSET=1.484375},{RETURN_AIR_CONNECTION_WIDTH=11},{RETURN_AIR_PRESSURE_DROP=0},{SENSIBLE_COOLING_CAPACITY=0},{SERIES=DSG},{SIDE_CONDENSATE_DRAIN_CONNECTION_HORIZONTAL_OFFSET=1.66666666666667},{SIDE_CONDENSATE_DRAIN_CONNECTION_VERTICAL
100
AcDbAttributeDefinition
  3

  2
PSOL_16
 70
     9
280
     0
  0
ATTDEF
  5
7E
330
1F
100
AcDbEntity
  8
AM_6
100
AcDbText
 10
42.0000000000002
 20
8.656249999999524
 30
0.0
 40
0.5
  1
T=0.708333333333333},{SIDE_DUCT_VERTICAL_OFFSET=0.515625},{SIDE_RETURN_DUCT_HORIZONTAL_OFFSET=0.416666666666667},{SIDE_SUPPLY_DUCT_HORIZONTAL_OFFSET=0.614583333333333},{SIDEFLOW_OPTION=0},{STANDARDS=AHRI Certified; ETL Listed},{SUPPLY_AIR_CONNECTION
100
AcDbAttributeDefinition
  3

  2
PSOL_17
 70
     9
280
     0
  0
ATTDEF
  5
7F
330
1F
100
AcDbEntity
  8
AM_6
100
AcDbText
 10
42.0000000000002
 20
8.156249999999524
 30
0.0
 40
0.5
  1
T=12},{SUPPLY_AIR_CONNECTION_HORIZONTAL_CENTER_OFFSET=2.68229166666667},{SUPPLY_AIR_CONNECTION_VERTICAL_CENTER_OFFSET=0.942708333333333},{SUPPLY_AIR_CONNECTION_WIDTH=17},{SUPPLY_AIR_FLOW_STATUS=Design Supply Air Flow Falls Short of Minimum Recommend
100
AcDbAttributeDefinition
  3

  2
PSOL_18
 70
     9
280
     0
  0
ATTDEF
  5
80
330
1F
100
AcDbEntity
  8
AM_6
100
AcDbText
 10
42.0000000000002
 20
7.656249999999524
 30
0.0
 40
0.5
  1
UPPLY_AIR_PRESSURE_DROP=0},{SYSTEM_PERFORMANCE_EER=11.8},{SYSTEM_PERFORMANCE_EER2=N/A},{SYSTEM_PERFORMANCE_IEER=16.7},{SYSTEM_PERFORMANCE_SEER2=N/A},{TOTAL_COOLING_CAPACITY=0},{TOTAL_STATIC_PRESSURE=0},{UNIT_WEIGHT=626},{UNIT_WEIGHT_VALUE=626},{VERS
100
AcDbAttributeDefinition
  3

  2
PSOL_19
 70
     9
280
     0
  0
ATTDEF
  5
81
330
1F
100
AcDbEntity
  8
AM_6
100
AcDbText
 10
42.0000000000002
 20
7.156249999999524
 30
0.0
 40
0.5
  1
,{VOLTAGE=240},{VOLTAGE_COMMENTS=208 VAC to 230 VAC},{DEFAULTSORTATTR=752},{RFA_FAMILY_=../../../_pool_/d3/37/rooftop_unit-gas_electric-daikin-dsg_3-6_ton.zip},{RFA_FAMILY_ENG=../../../_pool_/d3/37/rooftop_unit-gas_electric-daikin-dsg_3-6_ton.zip},{
100
AcDbAttributeDefinition
  3

  2
PSOL_20
 70
     9
280
     0
  0
ATTDEF
  5
82
330
1F
100
AcDbEntity
  8
AM_6
100
AcDbText
 10
42.0000000000002
 20
6.656249999999524
 30
0.0
 40
0.5
  1
FAMILY_DOWNLOAD=../../../_pool_/d3/37/rooftop_unit-gas_electric-daikin-dsg_3-6_ton.zip}
100
AcDbAttributeDefinition
  3

  2
PSOL_21
 70
     9
280
     0
  0
INSERT
  5
84
330
1F
100
AcDbEntity
  8
0
100
AcDbBlockReference
  2
1_DSG0723DH00001S_PART8_0_in_DSG0723DH00001S_4
 10
0.0
 20
0.0
 30
0.0
  0
INSERT
  5
B7
330
1F
100
AcDbEntity
  8
0
100
AcDbBlockReference
  2
2_DSG0723DH00001S_PART7_0_in_DSG0723DH00001S_4
 10
0.0
 20
0.0
 30
0.0
  0
INSERT
  5
E3
330
1F
100
AcDbEntity
  8
0
100
AcDbBlockReference
  2
3_DSG0723DH00001S_PART6_0_in_DSG0723DH00001S_4
 10
0.0
 20
0.0
 30
0.0
  0
INSERT
  5
10F
330
1F
100
AcDbEntity
  8
0
100
AcDbBlockReference
  2
4_DSG0723DH00001S_PART5_0_in_DSG0723DH00001S_4
 10
0.0
 20
0.0
 30
0.0
  0
INSERT
  5
13B
330
1F
100
AcDbEntity
  8
0
100
AcDbBlockReference
  2
5_DSG0723DH00001S_PART4_0_in_DSG0723DH00001S_4
 10
0.0
 20
0.0
 30
0.0
  0
INSERT
  5
166
330
1F
100
AcDbEntity
  8
0
100
AcDbBlockReference
  2
6_DSG0723DH00001S_PART3_0_in_DSG0723DH00001S_4
 10
0.0
 20
0.0
 30
0.0
  0
INSERT
  5
191
330
1F
100
AcDbEntity
  8
0
100
AcDbBlockReference
  2
7_DSG0723DH00001S_PART2_0_in_DSG0723DH00001S_4
 10
0.0
 20
0.0
 30
0.0
  0
INSERT
  5
1C7
330
1F
100
AcDbEntity
  8
0
100
AcDbBlockReference
  2
8_DSG0723DH00001S_PART1_0_in_DSG0723DH00001S_4
 10
0.0
 20
0.0
 30
0.0
  0
ENDSEC
  0
SECTION
  2
OBJECTS
  0
DICTIONARY
  5
C
330
0
100
AcDbDictionary
281
     1
  3
ACAD_DETAILVIEWSTYLE
350
1F8
  3
ACAD_GROUP
350
D
  3
ACAD_LAYOUT
350
1A
  3
ACAD_MATERIAL
350
43
  3
ACAD_MLEADERSTYLE
350
5B
  3
ACAD_MLINESTYLE
350
17
  3
ACAD_PLOTSETTINGS
350
19
  3
ACAD_PLOTSTYLENAME
350
E
  3
ACAD_SCALELIST
350
47
  3
ACAD_SECTIONVIEWSTYLE
350
1F9
  3
ACAD_TABLESTYLE
350
59
  3
ACAD_VISUALSTYLE
350
2A
  3
ACDB_RECOMPOSE_DATA
350
1F5
  3
AcDbVariableDictionary
350
1F1
  0
SUN
  5
5D
330
29
100
AcDbSun
 90
        1
290
     0
 63
     7
421
 16777215
 40
1.0
291
     1
 91
  2455826
 92
 54000000
292
     0
 70
     2
 71
   256
280
     1
  0
DICTIONARY
  5
1F8
102
{ACAD_REACTORS
330
C
102
}
330
C
100
AcDbDictionary
281
     1
  0
DICTIONARY
  5
D
102
{ACAD_REACTORS
330
C
102
}
330
C
100
AcDbDictionary
281
     1
  0
DICTIONARY
  5
1A
102
{ACAD_REACTORS
330
C
102
}
330
C
100
AcDbDictionary
281
     1
  3
Layout1
350
1E
  3
Layout2
350
26
  3
Model
350
22
  0
DICTIONARY
  5
43
102
{ACAD_REACTORS
330
C
102
}
330
C
100
AcDbDictionary
281
     1
  3
ByBlock
350
45
  3
ByLayer
350
44
  3
Global
350
46
  0
DICTIONARY
  5
5B
102
{ACAD_REACTORS
330
C
102
}
330
C
100
AcDbDictionary
281
     1
  3
Standard
350
5C
  0
DICTIONARY
  5
17
102
{ACAD_REACTORS
330
C
102
}
330
C
100
AcDbDictionary
281
     1
  3
Standard
350
18
  0
DICTIONARY
  5
19
102
{ACAD_REACTORS
330
C
102
}
330
C
100
AcDbDictionary
281
     1
  0
ACDBDICTIONARYWDFLT
  5
E
102
{ACAD_REACTORS
330
C
102
}
330
C
100
AcDbDictionary
281
     1
  3
Normal
350
F
100
AcDbDictionaryWithDefault
340
F
  0
DICTIONARY
  5
47
102
{ACAD_REACTORS
330
C
102
}
330
C
100
AcDbDictionary
281
     1
  3
A0
350
48
  3
A1
350
49
  3
A2
350
4A
  3
A3
350
4B
  3
A4
350
4C
  3
A5
350
4D
  3
A6
350
4E
  3
A7
350
4F
  3
A8
350
50
  3
A9
350
51
  3
B1
350
52
  3
B2
350
53
  3
B3
350
54
  3
B4
350
55
  3
B5
350
56
  3
B6
350
57
  3
B7
350
58
  0
DICTIONARY
  5
1F9
102
{ACAD_REACTORS
330
C
102
}
330
C
100
AcDbDictionary
281
     1
  0
DICTIONARY
  5
59
102
{ACAD_REACTORS
330
C
102
}
330
C
100
AcDbDictionary
281
     1
  3
Standard
350
5A
  0
DICTIONARY
  5
2A
102
{ACAD_REACTORS
330
C
102
}
330
C
100
AcDbDictionary
281
     1
  3
2dWireframe
350
2F
  3
Basic
350
32
  3
Brighten
350
36
  3
ColorChange
350
3A
  3
Conceptual
350
34
  3
Dim
350
35
  3
EdgeColorOff
350
3D
  3
Facepattern
350
39
  3
Flat
350
2B
  3
FlatWithEdges
350
2C
  3
Gouraud
350
2D
  3
GouraudWithEdges
350
2E
  3
Hidden
350
31
  3
JitterOff
350
3B
  3
Linepattern
350
38
  3
OverhangOff
350
3C
  3
Realistic
350
33
  3
Shaded
350
42
  3
Shaded with edges
350
41
  3
Shades of Gray
350
3E
  3
Sketchy
350
3F
  3
Thicken
350
37
  3
Wireframe
350
30
  3
X-Ray
350
40
  0
XRECORD
  5
1F5
102
{ACAD_REACTORS
330
C
102
}
330
C
100
AcDbXrecord
280
     1
 90
        1
330
5A
  0
DICTIONARY
  5
1F1
102
{ACAD_REACTORS
330
C
102
}
330
C
100
AcDbDictionary
281
     1
  3
CANNOSCALE
350
1F2
  3
CMLEADERSTYLE
350
1F7
  3
CTABLESTYLE
350
1F6
  0
LAYOUT
  5
1E
102
{ACAD_REACTORS
330
1A
102
}
330
1A
100
AcDbPlotSettings
  1

  2
none_device
  4

  6

 40
0.0
 41
0.0
 42
0.0
 43
0.0
 44
0.0
 45
0.0
 46
0.0
 47
0.0
 48
0.0
 49
0.0
140
0.0
141
0.0
142
1.0
143
1.0
 70
   688
 72
     0
 73
     0
 74
     5
  7

 75
    16
 76
     0
 77
     2
 78
   300
147
1.0
148
0.0
149
0.0
100
AcDbLayout
  1
Layout1
 70
     1
 71
     1
 10
0.0
 20
0.0
 11
12.0
 21
9.0
 12
0.0
 22
0.0
 32
0.0
 14
1.000000000000000E+20
 24
1.000000000000000E+20
 34
1.000000000000000E+20
 15
-1.000000000000000E+20
 25
-1.000000000000000E+20
 35
-1.000000000000000E+20
146
0.0
 13
0.0
 23
0.0
 33
0.0
 16
1.0
 26
0.0
 36
0.0
 17
0.0
 27
1.0
 37
0.0
 76
     0
330
1B
  0
LAYOUT
  5
26
102
{ACAD_REACTORS
330
1A
102
}
330
1A
100
AcDbPlotSettings
  1

  2
none_device
  4

  6

 40
0.0
 41
0.0
 42
0.0
 43
0.0
 44
0.0
 45
0.0
 46
0.0
 47
0.0
 48
0.0
 49
0.0
140
0.0
141
0.0
142
1.0
143
1.0
 70
   688
 72
     0
 73
     0
 74
     5
  7

 75
    16
 76
     0
 77
     2
 78
   300
147
1.0
148
0.0
149
0.0
100
AcDbLayout
  1
Layout2
 70
     1
 71
     2
 10
0.0
 20
0.0
 11
0.0
 21
0.0
 12
0.0
 22
0.0
 32
0.0
 14
0.0
 24
0.0
 34
0.0
 15
0.0
 25
0.0
 35
0.0
146
0.0
 13
0.0
 23
0.0
 33
0.0
 16
1.0
 26
0.0
 36
0.0
 17
0.0
 27
1.0
 37
0.0
 76
     0
330
23
  0
LAYOUT
  5
22
102
{ACAD_REACTORS
330
1A
102
}
330
1A
100
AcDbPlotSettings
  1

  2
none_device
  4
Letter_(8.50_x_11.00_Inches)
  6

 40
6.35
 41
6.35
 42
6.35000508
 43
6.35000508
 44
215.9
 45
279.4
 46
0.0
 47
0.0
 48
0.0
 49
0.0
140
0.0
141
0.0
142
1.0
143
1.0
 70
  1712
 72
     0
 73
     0
 74
     0
  7

 75
     0
 76
     0
 77
     2
 78
   300
147
1.0
148
0.0
149
0.0
100
AcDbLayout
  1
Model
 70
     1
 71
     0
 10
0.0
 20
0.0
 11
12.0
 21
9.0
 12
0.0
 22
0.0
 32
0.0
 14
-36.9999999999998
 24
-24.1562500000005
 34
0.0
 15
48.91694915254257
 25
24.66167372881308
 35
0.0
146
0.0
 13
0.0
 23
0.0
 33
0.0
 16
1.0
 26
0.0
 36
0.0
 17
0.0
 27
1.0
 37
0.0
 76
     0
330
1F
331
29
  0
MATERIAL
  5
45
102
{ACAD_REACTORS
330
43
102
}
330
43
100
AcDbMaterial
  1
ByBlock
 72
     1
 94
      127
  0
MATERIAL
  5
44
102
{ACAD_REACTORS
330
43
102
}
330
43
100
AcDbMaterial
  1
ByLayer
 72
     1
 94
      127
  0
MATERIAL
  5
46
102
{ACAD_REACTORS
330
43
102
}
330
43
100
AcDbMaterial
  1
Global
 72
     1
 94
      127
  0
MLEADERSTYLE
  5
5C
102
{ACAD_REACTORS
330
5B
102
}
330
5B
100
AcDbMLeaderStyle
179
     2
170
     2
171
     1
172
     0
 90
        2
 40
0.0
 41
0.0
173
     1
 91
-1056964608
340
14
 92
       -2
290
     1
 42
0.09
291
     1
 43
0.36
  3
Standard
341
0
 44
0.18
300

342
11
174
     1
178
     6
175
     1
176
     0
 93
-1056964608
 45
0.18
292
     0
297
     0
 46
0.18
343
0
 94
-1056964608
 47
1.0
 49
1.0
140
1.0
293
     1
141
0.0
294
     1
177
     0
142
1.0
295
     0
296
     0
143
0.125
271
     0
272
     9
273
     9
298
     0
  0
MLINESTYLE
  5
18
102
{ACAD_REACTORS
330
17
102
}
330
17
100
AcDbMlineStyle
  2
Standard
 70
     0
  3

 62
   256
 51
90.0
 52
90.0
 71
     2
 49
0.5
 62
   256
  6
BYLAYER
 49
-0.5
 62
   256
  6
BYLAYER
  0
ACDBPLACEHOLDER
  5
F
102
{ACAD_REACTORS
330
E
102
}
330
E
  0
SCALE
  5
48
102
{ACAD_REACTORS
330
47
102
}
330
47
100
AcDbScale
 70
     0
300
1:1
140
1.0
141
1.0
290
     1
  0
SCALE
  5
49
102
{ACAD_REACTORS
330
47
102
}
330
47
100
AcDbScale
 70
     0
300
1/128" = 1'-0"
140
0.0078125
141
12.0
290
     0
  0
SCALE
  5
4A
102
{ACAD_REACTORS
330
47
102
}
330
47
100
AcDbScale
 70
     0
300
1/64" = 1'-0"
140
0.015625
141
12.0
290
     0
  0
SCALE
  5
4B
102
{ACAD_REACTORS
330
47
102
}
330
47
100
AcDbScale
 70
     0
300
1/32" = 1'-0"
140
0.03125
141
12.0
290
     0
  0
SCALE
  5
4C
102
{ACAD_REACTORS
330
47
102
}
330
47
100
AcDbScale
 70
     0
300
1/16" = 1'-0"
140
0.0625
141
12.0
290
     0
  0
SCALE
  5
4D
102
{ACAD_REACTORS
330
47
102
}
330
47
100
AcDbScale
 70
     0
300
3/32" = 1'-0"
140
0.09375
141
12.0
290
     0
  0
SCALE
  5
4E
102
{ACAD_REACTORS
330
47
102
}
330
47
100
AcDbScale
 70
     0
300
1/8" = 1'-0"
140
0.125
141
12.0
290
     0
  0
SCALE
  5
4F
102
{ACAD_REACTORS
330
47
102
}
330
47
100
AcDbScale
 70
     0
300
3/16" = 1'-0"
140
0.1875
141
12.0
290
     0
  0
SCALE
  5
50
102
{ACAD_REACTORS
330
47
102
}
330
47
100
AcDbScale
 70
     0
300
1/4" = 1'-0"
140
0.25
141
12.0
290
     0
  0
SCALE
  5
51
102
{ACAD_REACTORS
330
47
102
}
330
47
100
AcDbScale
 70
     0
300
3/8" = 1'-0"
140
0.375
141
12.0
290
     0
  0
SCALE
  5
52
102
{ACAD_REACTORS
330
47
102
}
330
47
100
AcDbScale
 70
     0
300
1/2" = 1'-0"
140
0.5
141
12.0
290
     0
  0
SCALE
  5
53
102
{ACAD_REACTORS
330
47
102
}
330
47
100
AcDbScale
 70
     0
300
3/4" = 1'-0"
140
0.75
141
12.0
290
     0
  0
SCALE
  5
54
102
{ACAD_REACTORS
330
47
102
}
330
47
100
AcDbScale
 70
     0
300
1" = 1'-0"
140
1.0
141
12.0
290
     0
  0
SCALE
  5
55
102
{ACAD_REACTORS
330
47
102
}
330
47
100
AcDbScale
 70
     0
300
1-1/2" = 1'-0"
140
1.5
141
12.0
290
     0
  0
SCALE
  5
56
102
{ACAD_REACTORS
330
47
102
}
330
47
100
AcDbScale
 70
     0
300
3" = 1'-0"
140
3.0
141
12.0
290
     0
  0
SCALE
  5
57
102
{ACAD_REACTORS
330
47
102
}
330
47
100
AcDbScale
 70
     0
300
6" = 1'-0"
140
6.0
141
12.0
290
     0
  0
SCALE
  5
58
102
{ACAD_REACTORS
330
47
102
}
330
47
100
AcDbScale
 70
     0
300
1'-0" = 1'-0"
140
12.0
141
12.0
290
     0
  0
TABLESTYLE
  5
5A
102
{ACAD_REACTORS
330
59
102
}
102
{ACAD_XDICTIONARY
360
1F3
102
}
330
59
100
AcDbTableStyle
  3
Standard
 70
     0
 71
     0
 40
0.06
 41
0.06
280
     0
281
     0
  7
Standard
140
0.18
170
     2
 62
     0
 63
   257
283
     0
 90
        4
 91
        0
  1

274
    -2
284
     1
 64
     0
275
    -2
285
     1
 65
     0
276
    -2
286
     1
 66
     0
277
    -2
287
     1
 67
     0
278
    -2
288
     1
 68
     0
279
    -2
289
     1
 69
     0
  7
Standard
140
0.25
170
     5
 62
     0
 63
   257
283
     0
 90
        4
 91
        0
  1

274
    -2
284
     1
 64
     0
275
    -2
285
     1
 65
     0
276
    -2
286
     1
 66
     0
277
    -2
287
     1
 67
     0
278
    -2
288
     1
 68
     0
279
    -2
289
     1
 69
     0
  7
Standard
140
0.18
170
     5
 62
     0
 63
   257
283
     0
 90
        4
 91
        0
  1

274
    -2
284
     1
 64
     0
275
    -2
285
     1
 65
     0
276
    -2
286
     1
 66
     0
277
    -2
287
     1
 67
     0
278
    -2
288
     1
 68
     0
279
    -2
289
     1
 69
     0
  0
VISUALSTYLE
  5
2F
102
{ACAD_REACTORS
330
2A
102
}
330
2A
100
AcDbVisualStyle
  2
2dWireframe
 70
     4
177
     3
291
     0
 70
    58
 90
        0
176
     1
 90
        2
176
     1
 90
        0
176
     1
 90
        0
176
     1
 40
0.6
176
     1
 40
30.0
176
     1
 62
     7
420
 16777215
176
     1
 90
        1
176
     1
 90
        4
176
     1
 62
     7
176
     1
 62
   257
176
     1
 90
        1
176
     1
 90
        1
176
     1
 40
1.0
176
     1
 90
        0
176
     1
 62
   257
176
     1
 40
1.0
176
     1
 90
        1
176
     1
 90
        6
176
     1
 90
        2
176
     1
 62
     7
176
     1
 90
        5
176
     1
 90
        0
176
     1
 90
        0
176
     1
290
     0
176
     1
 90
        1
176
     1
 40
0.0
176
     1
 90
        0
176
     1
290
     1
176
     1
290
     1
176
     1
290
     0
176
     1
290
     0
176
     1
290
     0
176
     1
290
     0
176
     1
290
     0
176
     1
290
     0
176
     1
290
     0
176
     1
 90
       50
176
     1
 40
0.0
176
     1
 40
1.0
176
     1
 90
        0
176
     1
 62
    18
420
        0
176
     1
 90
       50
176
     1
 90
        3
176
     1
 62
     5
420
      255
176
     1
290
     0
176
     1
 90
       50
176
     1
 90
       50
176
     1
 90
       50
176
     1
290
     0
176
     1
 90
       50
176
     1
 62
   256
176
     0
 40
1.0
176
     0
 90
        2
176
     1
  1
strokes_ogs.tif
176
     1
290
     0
176
     1
 40
1.0
176
     1
 40
1.0
176
     1
  0
VISUALSTYLE
  5
32
102
{ACAD_REACTORS
330
2A
102
}
330
2A
100
AcDbVisualStyle
  2
Basic
 70
     7
177
     3
291
     1
 70
    58
 90
        1
176
     1
 90
        0
176
     1
 90
        1
176
     1
 90
        0
176
     1
 40
0.6
176
     1
 40
30.0
176
     1
 62
     7
420
 16777215
176
     1
 90
        0
176
     1
 90
        4
176
     1
 62
     7
176
     1
 62
   257
176
     1
 90
        1
176
     1
 90
        1
176
     1
 40
1.0
176
     1
 90
        8
176
     1
 62
     7
176
     1
 40
1.0
176
     1
 90
        1
176
     1
 90
        6
176
     1
 90
        2
176
     1
 62
     7
176
     1
 90
        5
176
     1
 90
        0
176
     1
 90
        0
176
     1
290
     0
176
     1
 90
        1
176
     1
 40
0.0
176
     1
 90
        0
176
     1
290
     0
176
     1
290
     1
176
     1
290
     1
176
     1
290
     0
176
     1
290
     0
176
     1
290
     0
176
     1
290
     0
176
     1
290
     0
176
     1
290
     0
176
     1
 90
       50
176
     1
 40
0.0
176
     1
 40
1.0
176
     1
 90
        0
176
     1
 62
    18
420
        0
176
     1
 90
       50
176
     1
 90
        3
176
     1
 62
     5
420
      255
176
     1
290
     0
176
     1
 90
       50
176
     1
 90
       50
176
     1
 90
       50
176
     1
290
     0
176
     1
 90
       50
176
     1
 62
   256
176
     0
 40
1.0
176
     0
 90
        2
176
     1
  1
strokes_ogs.tif
176
     1
290
     0
176
     1
 40
1.0
176
     1
 40
1.0
176
     1
  0
VISUALSTYLE
  5
36
102
{ACAD_REACTORS
330
2A
102
}
330
2A
100
AcDbVisualStyle
  2
Brighten
 70
    12
177
     3
291
     1
 70
    58
 90
        2
176
     1
 90
        2
176
     1
 90
        0
176
     1
 90
        0
176
     1
 40
0.6
176
     1
 40
30.0
176
     1
 62
     7
420
 16777215
176
     1
 90
        1
176
     1
 90
        4
176
     1
 62
     7
176
     1
 62
   257
176
     1
 90
        1
176
     1
 90
        1
176
     1
 40
1.0
176
     1
 90
        8
176
     1
 62
     7
176
     1
 40
1.0
176
     1
 90
        1
176
     1
 90
        6
176
     1
 90
        2
176
     1
 62
     7
176
     1
 90
        5
176
     1
 90
        0
176
     1
 90
        0
176
     1
290
     0
176
     1
 90
        1
176
     1
 40
50.0
176
     1
 90
        0
176
     1
290
     0
176
     1
290
     1
176
     1
290
     1
176
     1
290
     0
176
     1
290
     0
176
     1
290
     0
176
     1
290
     0
176
     1
290
     0
176
     1
290
     0
176
     1
 90
       50
176
     1
 40
0.0
176
     1
 40
1.0
176
     1
 90
        0
176
     1
 62
    18
420
        0
176
     1
 90
       50
176
     1
 90
        3
176
     1
 62
     5
420
      255
176
     1
290
     0
176
     1
 90
       50
176
     1
 90
       50
176
     1
 90
       50
176
     1
290
     0
176
     1
 90
       50
176
     1
 62
   256
176
     0
 40
1.0
176
     0
 90
        2
176
     1
  1
strokes_ogs.tif
176
     1
290
     0
176
     1
 40
1.0
176
     1
 40
1.0
176
     1
  0
VISUALSTYLE
  5
3A
102
{ACAD_REACTORS
330
2A
102
}
330
2A
100
AcDbVisualStyle
  2
ColorChange
 70
    16
177
     3
291
     1
 70
    58
 90
        2
176
     1
 90
        2
176
     1
 90
        3
176
     1
 90
        0
176
     1
 40
0.6
176
     1
 40
30.0
176
     1
 62
     8
420
  8421504
176
     1
 90
        1
176
     1
 90
        4
176
     1
 62
     7
176
     1
 62
   257
176
     1
 90
        1
176
     1
 90
        1
176
     1
 40
1.0
176
     1
 90
        8
176
     1
 62
     8
420
  8421504
176
     1
 40
1.0
176
     1
 90
        1
176
     1
 90
        6
176
     1
 90
        2
176
     1
 62
     7
176
     1
 90
        5
176
     1
 90
        0
176
     1
 90
        0
176
     1
290
     0
176
     1
 90
        1
176
     1
 40
0.0
176
     1
 90
        0
176
     1
290
     0
176
     1
290
     1
176
     1
290
     1
176
     1
290
     0
176
     1
290
     0
176
     1
290
     0
176
     1
290
     0
176
     1
290
     0
176
     1
290
     0
176
     1
 90
       50
176
     1
 40
0.0
176
     1
 40
1.0
176
     1
 90
        0
176
     1
 62
    18
420
        0
176
     1
 90
       50
176
     1
 90
        3
176
     1
 62
     5
420
      255
176
     1
290
     0
176
     1
 90
       50
176
     1
 90
       50
176
     1
 90
       50
176
     1
290
     0
176
     1
 90
       50
176
     1
 62
   256
176
     0
 40
1.0
176
     0
 90
        2
176
     1
  1
strokes_ogs.tif
176
     1
290
     0
176
     1
 40
1.0
176
     1
 40
1.0
176
     1
  0
VISUALSTYLE
  5
34
102
{ACAD_REACTORS
330
2A
102
}
330
2A
100
AcDbVisualStyle
  2
Conceptual
 70
     9
177
     3
291
     0
 70
    58
 90
        3
176
     1
 90
        2
176
     1
 90
        0
176
     1
 90
        0
176
     1
 40
0.6
176
     1
 40
30.0
176
     1
 62
     7
420
 16777215
176
     1
 90
        2
176
     1
 90
        2
176
     1
 62
     7
176
     1
 62
   257
176
     1
 90
        1
176
     1
 90
        1
176
     1
 40
179.0
176
     1
 90
        8
176
     1
 62
     7
176
     1
 40
1.0
176
     1
 90
        1
176
     1
 90
        6
176
     1
 90
        2
176
     1
 62
     7
176
     1
 90
        3
176
     1
 90
        0
176
     1
 90
        0
176
     1
290
     0
176
     1
 90
        1
176
     1
 40
0.0
176
     1
 90
        0
176
     1
290
     0
176
     1
290
     1
176
     1
290
     1
176
     1
290
     0
176
     1
290
     0
176
     1
290
     0
176
     1
290
     0
176
     1
290
     0
176
     1
290
     0
176
     1
 90
       50
176
     1
 40
0.0
176
     1
 40
1.0
176
     1
 90
        0
176
     1
 62
    18
420
        0
176
     1
 90
       50
176
     1
 90
        3
176
     1
 62
     5
420
      255
176
     1
290
     0
176
     1
 90
       50
176
     1
 90
       50
176
     1
 90
       50
176
     1
290
     0
176
     1
 90
       50
176
     1
 62
   256
176
     0
 40
1.0
176
     0
 90
        2
176
     1
  1
strokes_ogs.tif
176
     1
290
     0
176
     1
 40
1.0
176
     1
 40
1.0
176
     1
  0
VISUALSTYLE
  5
35
102
{ACAD_REACTORS
330
2A
102
}
330
2A
100
AcDbVisualStyle
  2
Dim
 70
    11
177
     3
291
     1
 70
    58
 90
        2
176
     1
 90
        2
176
     1
 90
        0
176
     1
 90
        0
176
     1
 40
0.6
176
     1
 40
30.0
176
     1
 62
     7
420
 16777215
176
     1
 90
        1
176
     1
 90
        4
176
     1
 62
     7
176
     1
 62
   257
176
     1
 90
        1
176
     1
 90
        1
176
     1
 40
1.0
176
     1
 90
        8
176
     1
 62
     7
176
     1
 40
1.0
176
     1
 90
        1
176
     1
 90
        6
176
     1
 90
        2
176
     1
 62
     7
176
     1
 90
        5
176
     1
 90
        0
176
     1
 90
        0
176
     1
290
     0
176
     1
 90
        1
176
     1
 40
-50.0
176
     1
 90
        0
176
     1
290
     0
176
     1
290
     1
176
     1
290
     1
176
     1
290
     0
176
     1
290
     0
176
     1
290
     0
176
     1
290
     0
176
     1
290
     0
176
     1
290
     0
176
     1
 90
       50
176
     1
 40
0.0
176
     1
 40
1.0
176
     1
 90
        0
176
     1
 62
    18
420
        0
176
     1
 90
       50
176
     1
 90
        3
176
     1
 62
     5
420
      255
176
     1
290
     0
176
     1
 90
       50
176
     1
 90
       50
176
     1
 90
       50
176
     1
290
     0
176
     1
 90
       50
176
     1
 62
   256
176
     0
 40
1.0
176
     0
 90
        2
176
     1
  1
strokes_ogs.tif
176
     1
290
     0
176
     1
 40
1.0
176
     1
 40
1.0
176
     1
  0
VISUALSTYLE
  5
3D
102
{ACAD_REACTORS
330
2A
102
}
330
2A
100
AcDbVisualStyle
  2
EdgeColorOff
 70
    22
177
     3
291
     1
 70
    58
 90
        2
176
     0
 90
        2
176
     0
 90
        0
176
     0
 90
        0
176
     0
 40
0.6
176
     0
 40
30.0
176
     0
 62
     7
420
 16777215
176
     0
 90
        1
176
     0
 90
        4
176
     0
 62
     7
176
     0
 62
   257
176
     0
 90
        1
176
     0
 90
        1
176
     0
 40
1.0
176
     0
 90
        8
176
     2
 62
     7
176
     0
 40
1.0
176
     0
 90
        1
176
     0
 90
        6
176
     0
 90
        2
176
     0
 62
     7
176
     0
 90
        5
176
     0
 90
        0
176
     0
 90
        0
176
     0
290
     0
176
     0
 90
        1
176
     0
 40
0.0
176
     0
 90
        0
176
     0
290
     0
176
     0
290
     1
176
     0
290
     1
176
     0
290
     0
176
     0
290
     0
176
     0
290
     0
176
     0
290
     0
176
     0
290
     0
176
     0
290
     0
176
     0
 90
       50
176
     0
 40
0.0
176
     0
 40
1.0
176
     0
 90
        0
176
     0
 62
    18
420
        0
176
     0
 90
       50
176
     0
 90
        3
176
     0
 62
     5
420
      255
176
     0
290
     0
176
     0
 90
       50
176
     0
 90
       50
176
     0
 90
       50
176
     0
290
     0
176
     0
 90
       50
176
     0
 62
   256
176
     0
 40
1.0
176
     0
 90
        2
176
     0
  1
strokes_ogs.tif
176
     0
290
     0
176
     0
 40
1.0
176
     0
 40
1.0
176
     0
  0
VISUALSTYLE
  5
39
102
{ACAD_REACTORS
330
2A
102
}
330
2A
100
AcDbVisualStyle
  2
Facepattern
 70
    15
177
     3
291
     1
 70
    58
 90
        2
176
     1
 90
        2
176
     1
 90
        0
176
     1
 90
        0
176
     1
 40
0.6
176
     1
 40
30.0
176
     1
 62
     7
420
 16777215
176
     1
 90
        1
176
     1
 90
        4
176
     1
 62
     7
176
     1
 62
   257
176
     1
 90
        1
176
     1
 90
        1
176
     1
 40
1.0
176
     1
 90
        8
176
     1
 62
     7
176
     1
 40
1.0
176
     1
 90
        1
176
     1
 90
        6
176
     1
 90
        2
176
     1
 62
     7
176
     1
 90
        5
176
     1
 90
        0
176
     1
 90
        0
176
     1
290
     0
176
     1
 90
        1
176
     1
 40
0.0
176
     1
 90
        0
176
     1
290
     0
176
     1
290
     1
176
     1
290
     1
176
     1
290
     0
176
     1
290
     0
176
     1
290
     0
176
     1
290
     0
176
     1
290
     0
176
     1
290
     0
176
     1
 90
       50
176
     1
 40
0.0
176
     1
 40
1.0
176
     1
 90
        0
176
     1
 62
    18
420
        0
176
     1
 90
       50
176
     1
 90
        3
176
     1
 62
     5
420
      255
176
     1
290
     0
176
     1
 90
       50
176
     1
 90
       50
176
     1
 90
       50
176
     1
290
     0
176
     1
 90
       50
176
     1
 62
   256
176
     0
 40
1.0
176
     0
 90
        2
176
     1
  1
strokes_ogs.tif
176
     1
290
     0
176
     1
 40
1.0
176
     1
 40
1.0
176
     1
  0
VISUALSTYLE
  5
2B
102
{ACAD_REACTORS
330
2A
102
}
330
2A
100
AcDbVisualStyle
  2
Flat
 70
     0
177
     3
291
     1
 70
    58
 90
        2
176
     1
 90
        1
176
     1
 90
        1
176
     1
 90
        2
176
     1
 40
0.6
176
     1
 40
30.0
176
     1
 62
     7
420
 16777215
176
     1
 90
        0
176
     1
 90
        0
176
     1
 62
     7
176
     1
 62
   257
176
     1
 90
        1
176
     1
 90
        1
176
     1
 40
1.0
176
     1
 90
        8
176
     1
 62
     7
176
     1
 40
1.0
176
     1
 90
        1
176
     1
 90
        6
176
     1
 90
        2
176
     1
 62
     7
176
     1
 90
        5
176
     1
 90
        0
176
     1
 90
        0
176
     1
290
     0
176
     1
 90
       13
176
     1
 40
0.0
176
     1
 90
        0
176
     1
290
     0
176
     1
290
     1
176
     1
290
     1
176
     1
290
     0
176
     1
290
     0
176
     1
290
     0
176
     1
290
     0
176
     1
290
     0
176
     1
290
     0
176
     1
 90
       50
176
     1
 40
0.0
176
     1
 40
1.0
176
     1
 90
        0
176
     1
 62
    18
420
        0
176
     1
 90
       50
176
     1
 90
        3
176
     1
 62
     5
420
      255
176
     1
290
     0
176
     1
 90
       50
176
     1
 90
       50
176
     1
 90
       50
176
     1
290
     0
176
     1
 90
       50
176
     1
 62
   256
176
     0
 40
1.0
176
     0
 90
        2
176
     1
  1
strokes_ogs.tif
176
     1
290
     0
176
     1
 40
1.0
176
     1
 40
1.0
176
     1
  0
VISUALSTYLE
  5
2C
102
{ACAD_REACTORS
330
2A
102
}
330
2A
100
AcDbVisualStyle
  2
FlatWithEdges
 70
     1
177
     3
291
     1
 70
    58
 90
        2
176
     1
 90
        1
176
     1
 90
        1
176
     1
 90
        2
176
     1
 40
0.6
176
     1
 40
30.0
176
     1
 62
     7
420
 16777215
176
     1
 90
        1
176
     1
 90
        0
176
     1
 62
     7
176
     1
 62
   257
176
     1
 90
        1
176
     1
 90
        1
176
     1
 40
1.0
176
     1
 90
        0
176
     1
 62
   257
176
     1
 40
1.0
176
     1
 90
        1
176
     1
 90
        6
176
     1
 90
        2
176
     1
 62
     7
176
     1
 90
        5
176
     1
 90
        0
176
     1
 90
        0
176
     1
290
     0
176
     1
 90
       13
176
     1
 40
0.0
176
     1
 90
        0
176
     1
290
     0
176
     1
290
     1
176
     1
290
     1
176
     1
290
     0
176
     1
290
     0
176
     1
290
     0
176
     1
290
     0
176
     1
290
     0
176
     1
290
     0
176
     1
 90
       50
176
     1
 40
0.0
176
     1
 40
1.0
176
     1
 90
        0
176
     1
 62
    18
420
        0
176
     1
 90
       50
176
     1
 90
        3
176
     1
 62
     5
420
      255
176
     1
290
     0
176
     1
 90
       50
176
     1
 90
       50
176
     1
 90
       50
176
     1
290
     0
176
     1
 90
       50
176
     1
 62
   256
176
     0
 40
1.0
176
     0
 90
        2
176
     1
  1
strokes_ogs.tif
176
     1
290
     0
176
     1
 40
1.0
176
     1
 40
1.0
176
     1
  0
VISUALSTYLE
  5
2D
102
{ACAD_REACTORS
330
2A
102
}
330
2A
100
AcDbVisualStyle
  2
Gouraud
 70
     2
177
     3
291
     1
 70
    58
 90
        2
176
     1
 90
        2
176
     1
 90
        1
176
     1
 90
        2
176
     1
 40
0.6
176
     1
 40
30.0
176
     1
 62
     7
420
 16777215
176
     1
 90
        0
176
     1
 90
        0
176
     1
 62
     7
176
     1
 62
   257
176
     1
 90
        1
176
     1
 90
        1
176
     1
 40
1.0
176
     1
 90
        0
176
     1
 62
     7
176
     1
 40
1.0
176
     1
 90
        1
176
     1
 90
        6
176
     1
 90
        2
176
     1
 62
     7
176
     1
 90
        5
176
     1
 90
        0
176
     1
 90
        0
176
     1
290
     0
176
     1
 90
       13
176
     1
 40
0.0
176
     1
 90
        0
176
     1
290
     0
176
     1
290
     1
176
     1
290
     1
176
     1
290
     0
176
     1
290
     0
176
     1
290
     0
176
     1
290
     0
176
     1
290
     0
176
     1
290
     0
176
     1
 90
       50
176
     1
 40
0.0
176
     1
 40
1.0
176
     1
 90
        0
176
     1
 62
    18
420
        0
176
     1
 90
       50
176
     1
 90
        3
176
     1
 62
     5
420
      255
176
     1
290
     0
176
     1
 90
       50
176
     1
 90
       50
176
     1
 90
       50
176
     1
290
     0
176
     1
 90
       50
176
     1
 62
   256
176
     0
 40
1.0
176
     0
 90
        2
176
     1
  1
strokes_ogs.tif
176
     1
290
     0
176
     1
 40
1.0
176
     1
 40
1.0
176
     1
  0
VISUALSTYLE
  5
2E
102
{ACAD_REACTORS
330
2A
102
}
330
2A
100
AcDbVisualStyle
  2
GouraudWithEdges
 70
     3
177
     3
291
     1
 70
    58
 90
        2
176
     1
 90
        2
176
     1
 90
        1
176
     1
 90
        2
176
     1
 40
0.6
176
     1
 40
30.0
176
     1
 62
     7
420
 16777215
176
     1
 90
        1
176
     1
 90
        0
176
     1
 62
     7
176
     1
 62
   257
176
     1
 90
        1
176
     1
 90
        1
176
     1
 40
1.0
176
     1
 90
        0
176
     1
 62
   257
176
     1
 40
1.0
176
     1
 90
        1
176
     1
 90
        6
176
     1
 90
        2
176
     1
 62
     7
176
     1
 90
        5
176
     1
 90
        0
176
     1
 90
        0
176
     1
290
     0
176
     1
 90
       13
176
     1
 40
0.0
176
     1
 90
        0
176
     1
290
     0
176
     1
290
     1
176
     1
290
     1
176
     1
290
     0
176
     1
290
     0
176
     1
290
     0
176
     1
290
     0
176
     1
290
     0
176
     1
290
     0
176
     1
 90
       50
176
     1
 40
0.0
176
     1
 40
1.0
176
     1
 90
        0
176
     1
 62
    18
420
        0
176
     1
 90
       50
176
     1
 90
        3
176
     1
 62
     5
420
      255
176
     1
290
     0
176
     1
 90
       50
176
     1
 90
       50
176
     1
 90
       50
176
     1
290
     0
176
     1
 90
       50
176
     1
 62
   256
176
     0
 40
1.0
176
     0
 90
        2
176
     1
  1
strokes_ogs.tif
176
     1
290
     0
176
     1
 40
1.0
176
     1
 40
1.0
176
     1
  0
VISUALSTYLE
  5
31
102
{ACAD_REACTORS
330
2A
102
}
330
2A
100
AcDbVisualStyle
  2
Hidden
 70
     6
177
     3
291
     0
 70
    58
 90
        1
176
     1
 90
        2
176
     1
 90
        2
176
     1
 90
        0
176
     1
 40
0.6
176
     1
 40
30.0
176
     1
 62
     7
420
 16777215
176
     1
 90
        2
176
     1
 90
        2
176
     1
 62
     7
176
     1
 62
   257
176
     1
 90
        2
176
     1
 90
        1
176
     1
 40
40.0
176
     1
 90
        0
176
     1
 62
   257
176
     1
 40
1.0
176
     1
 90
        1
176
     1
 90
        6
176
     1
 90
        2
176
     1
 62
     7
176
     1
 90
        3
176
     1
 90
        0
176
     1
 90
        0
176
     1
290
     0
176
     1
 90
        1
176
     1
 40
0.0
176
     1
 90
        0
176
     1
290
     0
176
     1
290
     1
176
     1
290
     1
176
     1
290
     0
176
     1
290
     0
176
     1
290
     0
176
     1
290
     0
176
     1
290
     0
176
     1
290
     0
176
     1
 90
       50
176
     1
 40
0.0
176
     1
 40
1.0
176
     1
 90
        0
176
     1
 62
    18
420
        0
176
     1
 90
       50
176
     1
 90
        3
176
     1
 62
     5
420
      255
176
     1
290
     0
176
     1
 90
       50
176
     1
 90
       50
176
     1
 90
       50
176
     1
290
     0
176
     1
 90
       50
176
     1
 62
   256
176
     0
 40
1.0
176
     0
 90
        2
176
     1
  1
strokes_ogs.tif
176
     1
290
     0
176
     1
 40
1.0
176
     1
 40
1.0
176
     1
  0
VISUALSTYLE
  5
3B
102
{ACAD_REACTORS
330
2A
102
}
330
2A
100
AcDbVisualStyle
  2
JitterOff
 70
    20
177
     3
291
     1
 70
    58
 90
        2
176
     0
 90
        2
176
     0
 90
        0
176
     0
 90
        0
176
     0
 40
0.6
176
     0
 40
30.0
176
     0
 62
     7
420
 16777215
176
     0
 90
        1
176
     0
 90
        4
176
     0
 62
     7
176
     0
 62
   257
176
     0
 90
        1
176
     0
 90
        1
176
     0
 40
1.0
176
     0
 90
       10
176
     2
 62
     7
176
     0
 40
1.0
176
     0
 90
        1
176
     0
 90
        6
176
     0
 90
        2
176
     0
 62
     7
176
     0
 90
        5
176
     0
 90
        0
176
     0
 90
        0
176
     0
290
     0
176
     0
 90
        1
176
     0
 40
0.0
176
     0
 90
        0
176
     0
290
     0
176
     0
290
     1
176
     0
290
     1
176
     0
290
     0
176
     0
290
     0
176
     0
290
     0
176
     0
290
     0
176
     0
290
     0
176
     0
290
     0
176
     0
 90
       50
176
     0
 40
0.0
176
     0
 40
1.0
176
     0
 90
        0
176
     0
 62
    18
420
        0
176
     0
 90
       50
176
     0
 90
        3
176
     0
 62
     5
420
      255
176
     0
290
     0
176
     0
 90
       50
176
     0
 90
       50
176
     0
 90
       50
176
     0
290
     0
176
     0
 90
       50
176
     0
 62
   256
176
     0
 40
1.0
176
     0
 90
        2
176
     0
  1
strokes_ogs.tif
176
     0
290
     0
176
     0
 40
1.0
176
     0
 40
1.0
176
     0
  0
VISUALSTYLE
  5
38
102
{ACAD_REACTORS
330
2A
102
}
330
2A
100
AcDbVisualStyle
  2
Linepattern
 70
    14
177
     3
291
     1
 70
    58
 90
        2
176
     1
 90
        2
176
     1
 90
        0
176
     1
 90
        0
176
     1
 40
0.6
176
     1
 40
30.0
176
     1
 62
     7
420
 16777215
176
     1
 90
        1
176
     1
 90
        4
176
     1
 62
     7
176
     1
 62
   257
176
     1
 90
        7
176
     1
 90
        7
176
     1
 40
1.0
176
     1
 90
        8
176
     1
 62
     7
176
     1
 40
1.0
176
     1
 90
        1
176
     1
 90
        6
176
     1
 90
        2
176
     1
 62
     7
176
     1
 90
        5
176
     1
 90
        0
176
     1
 90
        0
176
     1
290
     0
176
     1
 90
        1
176
     1
 40
0.0
176
     1
 90
        0
176
     1
290
     0
176
     1
290
     1
176
     1
290
     1
176
     1
290
     0
176
     1
290
     0
176
     1
290
     0
176
     1
290
     0
176
     1
290
     0
176
     1
290
     0
176
     1
 90
       50
176
     1
 40
0.0
176
     1
 40
1.0
176
     1
 90
        0
176
     1
 62
    18
420
        0
176
     1
 90
       50
176
     1
 90
        3
176
     1
 62
     5
420
      255
176
     1
290
     0
176
     1
 90
       50
176
     1
 90
       50
176
     1
 90
       50
176
     1
290
     0
176
     1
 90
       50
176
     1
 62
   256
176
     0
 40
1.0
176
     0
 90
        2
176
     1
  1
strokes_ogs.tif
176
     1
290
     0
176
     1
 40
1.0
176
     1
 40
1.0
176
     1
  0
VISUALSTYLE
  5
3C
102
{ACAD_REACTORS
330
2A
102
}
330
2A
100
AcDbVisualStyle
  2
OverhangOff
 70
    21
177
     3
291
     1
 70
    58
 90
        2
176
     0
 90
        2
176
     0
 90
        0
176
     0
 90
        0
176
     0
 40
0.6
176
     0
 40
30.0
176
     0
 62
     7
420
 16777215
176
     0
 90
        1
176
     0
 90
        4
176
     0
 62
     7
176
     0
 62
   257
176
     0
 90
        1
176
     0
 90
        1
176
     0
 40
1.0
176
     0
 90
        9
176
     2
 62
     7
176
     0
 40
1.0
176
     0
 90
        1
176
     0
 90
        6
176
     0
 90
        2
176
     0
 62
     7
176
     0
 90
        5
176
     0
 90
        0
176
     0
 90
        0
176
     0
290
     0
176
     0
 90
        1
176
     0
 40
0.0
176
     0
 90
        0
176
     0
290
     0
176
     0
290
     1
176
     0
290
     1
176
     0
290
     0
176
     0
290
     0
176
     0
290
     0
176
     0
290
     0
176
     0
290
     0
176
     0
290
     0
176
     0
 90
       50
176
     0
 40
0.0
176
     0
 40
1.0
176
     0
 90
        0
176
     0
 62
    18
420
        0
176
     0
 90
       50
176
     0
 90
        3
176
     0
 62
     5
420
      255
176
     0
290
     0
176
     0
 90
       50
176
     0
 90
       50
176
     0
 90
       50
176
     0
290
     0
176
     0
 90
       50
176
     0
 62
   256
176
     0
 40
1.0
176
     0
 90
        2
176
     0
  1
strokes_ogs.tif
176
     0
290
     0
176
     0
 40
1.0
176
     0
 40
1.0
176
     0
  0
VISUALSTYLE
  5
33
102
{ACAD_REACTORS
330
2A
102
}
330
2A
100
AcDbVisualStyle
  2
Realistic
 70
     8
177
     3
291
     0
 70
    58
 90
        2
176
     1
 90
        3
176
     1
 90
        0
176
     1
 90
        2
176
     1
 40
0.6
176
     1
 40
30.0
176
     1
 62
     7
420
 16777215
176
     1
 90
        0
176
     1
 90
        0
176
     1
 62
     7
176
     1
 62
   257
176
     1
 90
        1
176
     1
 90
        1
176
     1
 40
1.0
176
     1
 90
        8
176
     1
 62
   257
176
     1
 40
1.0
176
     1
 90
        1
176
     1
 90
        6
176
     1
 90
        2
176
     1
 62
     7
176
     1
 90
        3
176
     1
 90
        0
176
     1
 90
        0
176
     1
290
     0
176
     1
 90
       13
176
     1
 40
0.0
176
     1
 90
        0
176
     1
290
     0
176
     1
290
     1
176
     1
290
     1
176
     1
290
     0
176
     1
290
     0
176
     1
290
     0
176
     1
290
     0
176
     1
290
     0
176
     1
290
     0
176
     1
 90
       50
176
     1
 40
0.0
176
     1
 40
1.0
176
     1
 90
        0
176
     1
 62
    18
420
        0
176
     1
 90
       50
176
     1
 90
        3
176
     1
 62
     5
420
      255
176
     1
290
     0
176
     1
 90
       50
176
     1
 90
       50
176
     1
 90
       50
176
     1
290
     0
176
     1
 90
       50
176
     1
 62
   256
176
     0
 40
1.0
176
     0
 90
        2
176
     1
  1
strokes_ogs.tif
176
     1
290
     0
176
     1
 40
1.0
176
     1
 40
1.0
176
     1
  0
VISUALSTYLE
  5
42
102
{ACAD_REACTORS
330
2A
102
}
330
2A
100
AcDbVisualStyle
  2
Shaded
 70
    27
177
     3
291
     0
 70
    58
 90
        2
176
     1
 90
        2
176
     1
 90
        1
176
     1
 90
        2
176
     1
 40
0.6
176
     1
 40
30.0
176
     1
 62
     7
420
 16777215
176
     1
 90
        0
176
     1
 90
        4
176
     1
 62
     7
176
     1
 62
   257
176
     1
 90
        1
176
     1
 90
        1
176
     1
 40
1.0
176
     1
 90
        8
176
     1
 62
   257
176
     1
 40
1.0
176
     1
 90
        1
176
     1
 90
        6
176
     1
 90
        2
176
     1
 62
     8
420
  7895160
176
     1
 90
        3
176
     1
 90
        0
176
     1
 90
        0
176
     1
290
     0
176
     1
 90
        5
176
     1
 40
0.0
176
     1
 90
        0
176
     1
290
     0
176
     1
290
     1
176
     1
290
     1
176
     1
290
     0
176
     1
290
     0
176
     1
290
     0
176
     1
290
     0
176
     1
290
     0
176
     1
290
     0
176
     1
 90
       50
176
     1
 40
0.0
176
     1
 40
1.0
176
     1
 90
        0
176
     1
 62
    18
420
        0
176
     1
 90
       50
176
     1
 90
        3
176
     1
 62
     5
420
      255
176
     1
290
     0
176
     1
 90
       50
176
     1
 90
       50
176
     1
 90
       50
176
     1
290
     0
176
     1
 90
       50
176
     1
 62
   256
176
     0
 40
1.0
176
     0
 90
        2
176
     1
  1
strokes_ogs.tif
176
     1
290
     0
176
     1
 40
1.0
176
     1
 40
1.0
176
     1
  0
VISUALSTYLE
  5
41
102
{ACAD_REACTORS
330
2A
102
}
330
2A
100
AcDbVisualStyle
  2
Shaded with edges
 70
    26
177
     3
291
     0
 70
    58
 90
        2
176
     1
 90
        2
176
     1
 90
        1
176
     1
 90
        2
176
     1
 40
0.6
176
     1
 40
30.0
176
     1
 62
     7
420
 16777215
176
     1
 90
        1
176
     1
 90
       10
176
     1
 62
     7
176
     1
 62
   257
176
     1
 90
        2
176
     1
 90
        1
176
     1
 40
1.0
176
     1
 90
        8
176
     1
 62
   257
176
     1
 40
1.0
176
     1
 90
        1
176
     1
 90
        6
176
     1
 90
        2
176
     1
 62
     7
176
     1
 90
        3
176
     1
 90
        0
176
     1
 90
        0
176
     1
290
     0
176
     1
 90
        5
176
     1
 40
0.0
176
     1
 90
        0
176
     1
290
     0
176
     1
290
     1
176
     1
290
     1
176
     1
290
     0
176
     1
290
     0
176
     1
290
     0
176
     1
290
     0
176
     1
290
     0
176
     1
290
     0
176
     1
 90
       50
176
     1
 40
0.0
176
     1
 40
1.0
176
     1
 90
        0
176
     1
 62
    18
420
        0
176
     1
 90
       50
176
     1
 90
        3
176
     1
 62
     5
420
      255
176
     1
290
     0
176
     1
 90
       50
176
     1
 90
       50
176
     1
 90
       50
176
     1
290
     0
176
     1
 90
       50
176
     1
 62
   256
176
     0
 40
1.0
176
     0
 90
        2
176
     1
  1
strokes_ogs.tif
176
     1
290
     0
176
     1
 40
1.0
176
     1
 40
1.0
176
     1
  0
VISUALSTYLE
  5
3E
102
{ACAD_REACTORS
330
2A
102
}
330
2A
100
AcDbVisualStyle
  2
Shades of Gray
 70
    23
177
     3
291
     0
 70
    58
 90
        2
176
     1
 90
        2
176
     1
 90
        3
176
     1
 90
        0
176
     1
 40
0.6
176
     1
 40
30.0
176
     1
 62
     7
420
 16777215
176
     1
 90
        2
176
     1
 90
        2
176
     1
 62
     7
176
     1
 62
     7
176
     1
 90
        1
176
     1
 90
        1
176
     1
 40
40.0
176
     1
 90
        8
176
     1
 62
     7
176
     1
 40
1.0
176
     1
 90
        1
176
     1
 90
        6
176
     1
 90
        2
176
     1
 62
     7
176
     1
 90
        3
176
     1
 90
        0
176
     1
 90
        0
176
     1
290
     0
176
     1
 90
        1
176
     1
 40
0.0
176
     1
 90
        0
176
     1
290
     0
176
     1
290
     1
176
     1
290
     1
176
     1
290
     0
176
     1
290
     0
176
     1
290
     0
176
     1
290
     0
176
     1
290
     0
176
     1
290
     0
176
     1
 90
       50
176
     1
 40
0.0
176
     1
 40
1.0
176
     1
 90
        0
176
     1
 62
    18
420
        0
176
     1
 90
       50
176
     1
 90
        3
176
     1
 62
     5
420
      255
176
     1
290
     0
176
     1
 90
       50
176
     1
 90
       50
176
     1
 90
       50
176
     1
290
     0
176
     1
 90
       50
176
     1
 62
   256
176
     0
 40
1.0
176
     0
 90
        2
176
     1
  1
strokes_ogs.tif
176
     1
290
     0
176
     1
 40
1.0
176
     1
 40
1.0
176
     1
  0
VISUALSTYLE
  5
3F
102
{ACAD_REACTORS
330
2A
102
}
330
2A
100
AcDbVisualStyle
  2
Sketchy
 70
    24
177
     3
291
     0
 70
    58
 90
        1
176
     1
 90
        2
176
     1
 90
        2
176
     1
 90
        0
176
     1
 40
0.6
176
     1
 40
30.0
176
     1
 62
     7
420
 16777215
176
     1
 90
        2
176
     1
 90
        2
176
     1
 62
     7
176
     1
 62
     7
176
     1
 90
        1
176
     1
 90
        1
176
     1
 40
40.0
176
     1
 90
       11
176
     1
 62
     7
176
     1
 40
1.0
176
     1
 90
        1
176
     1
 90
        6
176
     1
 90
        2
176
     1
 62
     7
176
     1
 90
        6
176
     1
 90
        0
176
     1
 90
        0
176
     1
290
     0
176
     1
 90
        1
176
     1
 40
0.0
176
     1
 90
        0
176
     1
290
     0
176
     1
290
     1
176
     1
290
     1
176
     1
290
     0
176
     1
290
     0
176
     1
290
     0
176
     1
290
     0
176
     1
290
     0
176
     1
290
     0
176
     1
 90
       50
176
     1
 40
0.0
176
     1
 40
1.0
176
     1
 90
        0
176
     1
 62
    18
420
        0
176
     1
 90
       50
176
     1
 90
        3
176
     1
 62
     5
420
      255
176
     1
290
     0
176
     1
 90
       50
176
     1
 90
       50
176
     1
 90
       50
176
     1
290
     0
176
     1
 90
       50
176
     1
 62
   256
176
     0
 40
1.0
176
     0
 90
        2
176
     1
  1
strokes_ogs.tif
176
     1
290
     0
176
     1
 40
1.0
176
     1
 40
1.0
176
     1
  0
VISUALSTYLE
  5
37
102
{ACAD_REACTORS
330
2A
102
}
330
2A
100
AcDbVisualStyle
  2
Thicken
 70
    13
177
     3
291
     1
 70
    58
 90
        2
176
     1
 90
        2
176
     1
 90
        0
176
     1
 90
        0
176
     1
 40
0.6
176
     1
 40
30.0
176
     1
 62
     7
420
 16777215
176
     1
 90
        1
176
     1
 90
        4
176
     1
 62
     7
176
     1
 62
   257
176
     1
 90
        1
176
     1
 90
        1
176
     1
 40
1.0
176
     1
 90
       12
176
     1
 62
     7
176
     1
 40
1.0
176
     1
 90
        1
176
     1
 90
        6
176
     1
 90
        2
176
     1
 62
     7
176
     1
 90
        5
176
     1
 90
        0
176
     1
 90
        0
176
     1
290
     0
176
     1
 90
        1
176
     1
 40
0.0
176
     1
 90
        0
176
     1
290
     0
176
     1
290
     1
176
     1
290
     1
176
     1
290
     0
176
     1
290
     0
176
     1
290
     0
176
     1
290
     0
176
     1
290
     0
176
     1
290
     0
176
     1
 90
       50
176
     1
 40
0.0
176
     1
 40
1.0
176
     1
 90
        0
176
     1
 62
    18
420
        0
176
     1
 90
       50
176
     1
 90
        3
176
     1
 62
     5
420
      255
176
     1
290
     0
176
     1
 90
       50
176
     1
 90
       50
176
     1
 90
       50
176
     1
290
     0
176
     1
 90
       50
176
     1
 62
   256
176
     0
 40
1.0
176
     0
 90
        2
176
     1
  1
strokes_ogs.tif
176
     1
290
     0
176
     1
 40
1.0
176
     1
 40
1.0
176
     1
  0
VISUALSTYLE
  5
30
102
{ACAD_REACTORS
330
2A
102
}
330
2A
100
AcDbVisualStyle
  2
Wireframe
 70
     5
177
     3
291
     0
 70
    58
 90
        0
176
     1
 90
        2
176
     1
 90
        0
176
     1
 90
        0
176
     1
 40
0.6
176
     1
 40
30.0
176
     1
 62
     7
420
 16777215
176
     1
 90
        1
176
     1
 90
        4
176
     1
 62
     7
176
     1
 62
   257
176
     1
 90
        1
176
     1
 90
        1
176
     1
 40
1.0
176
     1
 90
        0
176
     1
 62
   257
176
     1
 40
1.0
176
     1
 90
        1
176
     1
 90
        6
176
     1
 90
        2
176
     1
 62
     7
176
     1
 90
        3
176
     1
 90
        0
176
     1
 90
        0
176
     1
290
     0
176
     1
 90
        1
176
     1
 40
0.0
176
     1
 90
        0
176
     1
290
     0
176
     1
290
     1
176
     1
290
     1
176
     1
290
     0
176
     1
290
     0
176
     1
290
     0
176
     1
290
     0
176
     1
290
     0
176
     1
290
     0
176
     1
 90
       50
176
     1
 40
0.0
176
     1
 40
1.0
176
     1
 90
        0
176
     1
 62
    18
420
        0
176
     1
 90
       50
176
     1
 90
        3
176
     1
 62
     5
420
      255
176
     1
290
     0
176
     1
 90
       50
176
     1
 90
       50
176
     1
 90
       50
176
     1
290
     0
176
     1
 90
       50
176
     1
 62
   256
176
     0
 40
1.0
176
     0
 90
        2
176
     1
  1
strokes_ogs.tif
176
     1
290
     0
176
     1
 40
1.0
176
     1
 40
1.0
176
     1
  0
VISUALSTYLE
  5
40
102
{ACAD_REACTORS
330
2A
102
}
330
2A
100
AcDbVisualStyle
  2
X-Ray
 70
    25
177
     3
291
     0
 70
    58
 90
        2
176
     1
 90
        2
176
     1
 90
        1
176
     1
 90
        1
176
     1
 40
0.5
176
     1
 40
30.0
176
     1
 62
     7
420
 16777215
176
     1
 90
        1
176
     1
 90
        0
176
     1
 62
     7
176
     1
 62
   257
176
     1
 90
        1
176
     1
 90
        1
176
     1
 40
1.0
176
     1
 90
        8
176
     1
 62
     7
176
     1
 40
1.0
176
     1
 90
        1
176
     1
 90
        6
176
     1
 90
        2
176
     1
 62
     7
176
     1
 90
        3
176
     1
 90
        0
176
     1
 90
        0
176
     1
290
     0
176
     1
 90
       13
176
     1
 40
0.0
176
     1
 90
        0
176
     1
290
     0
176
     1
290
     1
176
     1
290
     1
176
     1
290
     0
176
     1
290
     0
176
     1
290
     0
176
     1
290
     0
176
     1
290
     0
176
     1
290
     0
176
     1
 90
       50
176
     1
 40
0.0
176
     1
 40
1.0
176
     1
 90
        0
176
     1
 62
    18
420
        0
176
     1
 90
       50
176
     1
 90
        3
176
     1
 62
     5
420
      255
176
     1
290
     0
176
     1
 90
       50
176
     1
 90
       50
176
     1
 90
       50
176
     1
290
     0
176
     1
 90
       50
176
     1
 62
   256
176
     0
 40
1.0
176
     0
 90
        2
176
     1
  1
strokes_ogs.tif
176
     1
290
     0
176
     1
 40
1.0
176
     1
 40
1.0
176
     1
  0
DICTIONARYVAR
  5
1F2
102
{ACAD_REACTORS
330
1F1
102
}
330
1F1
100
DictionaryVariables
280
     0
  1
1:1
  0
DICTIONARYVAR
  5
1F7
102
{ACAD_REACTORS
330
1F1
102
}
330
1F1
100
DictionaryVariables
280
     0
  1
Standard
  0
DICTIONARYVAR
  5
1F6
102
{ACAD_REACTORS
330
1F1
102
}
330
1F1
100
DictionaryVariables
280
     0
  1
Standard
  0
DICTIONARY
  5
1F3
330
5A
100
AcDbDictionary
280
     1
281
     1
  3
ACAD_ROUNDTRIP_2008_TABLESTYLE_CELLSTYLEMAP
360
1F4
  0
CELLSTYLEMAP
  5
1F4
102
{ACAD_REACTORS
330
1F3
102
}
330
1F3
100
AcDbCellStyleMap
 90
        3
300
CELLSTYLE
  1
TABLEFORMAT_BEGIN
 90
        5
170
     1
 91
        0
 92
    32768
 62
   257
 93
        1
300
CONTENTFORMAT
  1
CONTENTFORMAT_BEGIN
 90
        0
 91
        0
 92
        4
 93
        0
300

 40
0.0
140
1.0
 94
        5
 62
     0
340
11
144
0.25
309
CONTENTFORMAT_END
171
     1
301
MARGIN
  1
CELLMARGIN_BEGIN
 40
0.06
 40
0.06
 40
0.06
 40
0.06
 40
0.06
 40
0.06
309
CELLMARGIN_END
 94
        6
 95
        1
302
GRIDFORMAT
  1
GRIDFORMAT_BEGIN
 90
        0
 91
        1
 62
     0
 92
       -2
340
14
 93
        0
 40
0.045
309
GRIDFORMAT_END
 95
        2
302
GRIDFORMAT
  1
GRIDFORMAT_BEGIN
 90
        0
 91
        1
 62
     0
 92
       -2
340
14
 93
        0
 40
0.045
309
GRIDFORMAT_END
 95
        4
302
GRIDFORMAT
  1
GRIDFORMAT_BEGIN
 90
        0
 91
        1
 62
     0
 92
       -2
340
14
 93
        0
 40
0.045
309
GRIDFORMAT_END
 95
        8
302
GRIDFORMAT
  1
GRIDFORMAT_BEGIN
 90
        0
 91
        1
 62
     0
 92
       -2
340
14
 93
        0
 40
0.045
309
GRIDFORMAT_END
 95
       16
302
GRIDFORMAT
  1
GRIDFORMAT_BEGIN
 90
        0
 91
        1
 62
     0
 92
       -2
340
14
 93
        0
 40
0.045
309
GRIDFORMAT_END
 95
       32
302
GRIDFORMAT
  1
GRIDFORMAT_BEGIN
 90
        0
 91
        1
 62
     0
 92
       -2
340
14
 93
        0
 40
0.045
309
GRIDFORMAT_END
309
TABLEFORMAT_END
  1
CELLSTYLE_BEGIN
 90
        1
 91
        1
300
_TITLE
309
CELLSTYLE_END
300
CELLSTYLE
  1
TABLEFORMAT_BEGIN
 90
        5
170
     1
 91
        0
 92
        0
 62
   257
 93
        1
300
CONTENTFORMAT
  1
CONTENTFORMAT_BEGIN
 90
        0
 91
        0
 92
        4
 93
        0
300

 40
0.0
140
1.0
 94
        5
 62
     0
340
11
144
0.18
309
CONTENTFORMAT_END
171
     1
301
MARGIN
  1
CELLMARGIN_BEGIN
 40
0.06
 40
0.06
 40
0.06
 40
0.06
 40
0.06
 40
0.06
309
CELLMARGIN_END
 94
        6
 95
        1
302
GRIDFORMAT
  1
GRIDFORMAT_BEGIN
 90
        0
 91
        1
 62
     0
 92
       -2
340
14
 93
        0
 40
0.045
309
GRIDFORMAT_END
 95
        2
302
GRIDFORMAT
  1
GRIDFORMAT_BEGIN
 90
        0
 91
        1
 62
     0
 92
       -2
340
14
 93
        0
 40
0.045
309
GRIDFORMAT_END
 95
        4
302
GRIDFORMAT
  1
GRIDFORMAT_BEGIN
 90
        0
 91
        1
 62
     0
 92
       -2
340
14
 93
        0
 40
0.045
309
GRIDFORMAT_END
 95
        8
302
GRIDFORMAT
  1
GRIDFORMAT_BEGIN
 90
        0
 91
        1
 62
     0
 92
       -2
340
14
 93
        0
 40
0.045
309
GRIDFORMAT_END
 95
       16
302
GRIDFORMAT
  1
GRIDFORMAT_BEGIN
 90
        0
 91
        1
 62
     0
 92
       -2
340
14
 93
        0
 40
0.045
309
GRIDFORMAT_END
 95
       32
302
GRIDFORMAT
  1
GRIDFORMAT_BEGIN
 90
        0
 91
        1
 62
     0
 92
       -2
340
14
 93
        0
 40
0.045
309
GRIDFORMAT_END
309
TABLEFORMAT_END
  1
CELLSTYLE_BEGIN
 90
        2
 91
        1
300
_HEADER
309
CELLSTYLE_END
300
CELLSTYLE
  1
TABLEFORMAT_BEGIN
 90
        5
170
     1
 91
        0
 92
        0
 62
   257
 93
        1
300
CONTENTFORMAT
  1
CONTENTFORMAT_BEGIN
 90
        0
 91
        0
 92
        4
 93
        0
300

 40
0.0
140
1.0
 94
        2
 62
     0
340
11
144
0.18
309
CONTENTFORMAT_END
171
     1
301
MARGIN
  1
CELLMARGIN_BEGIN
 40
0.06
 40
0.06
 40
0.06
 40
0.06
 40
0.06
 40
0.06
309
CELLMARGIN_END
 94
        6
 95
        1
302
GRIDFORMAT
  1
GRIDFORMAT_BEGIN
 90
        0
 91
        1
 62
     0
 92
       -2
340
14
 93
        0
 40
0.045
309
GRIDFORMAT_END
 95
        2
302
GRIDFORMAT
  1
GRIDFORMAT_BEGIN
 90
        0
 91
        1
 62
     0
 92
       -2
340
14
 93
        0
 40
0.045
309
GRIDFORMAT_END
 95
        4
302
GRIDFORMAT
  1
GRIDFORMAT_BEGIN
 90
        0
 91
        1
 62
     0
 92
       -2
340
14
 93
        0
 40
0.045
309
GRIDFORMAT_END
 95
        8
302
GRIDFORMAT
  1
GRIDFORMAT_BEGIN
 90
        0
 91
        1
 62
     0
 92
       -2
340
14
 93
        0
 40
0.045
309
GRIDFORMAT_END
 95
       16
302
GRIDFORMAT
  1
GRIDFORMAT_BEGIN
 90
        0
 91
        1
 62
     0
 92
       -2
340
14
 93
        0
 40
0.045
309
GRIDFORMAT_END
 95
       32
302
GRIDFORMAT
  1
GRIDFORMAT_BEGIN
 90
        0
 91
        1
 62
     0
 92
       -2
340
14
 93
        0
 40
0.045
309
GRIDFORMAT_END
309
TABLEFORMAT_END
  1
CELLSTYLE_BEGIN
 90
        3
 91
        2
300
_DATA
309
CELLSTYLE_END
  0
ENDSEC
  0
EOF
