  0
SECTION
  2
HEADER
  9
$ACADVER
  1
AC1027
  9
$ACADMAINTVER
 70
   105
  9
$DWGCODEPAGE
  3
ANSI_1252
  9
$COMMENTS
  1
File was created by Cadenas
  9
$LASTSAVEDBY
  1
psService
  9
$CUSTOMPROPERTYTAG
  1
NB
  9
$CUSTOMPROPERTY
  1
DFVE48DP1400
  9
$CUSTOMPROPERTYTAG
  1
NN
  9
$CUSTOMPROPERTY
  1
Air_Handling_Unit-Multi_Position-Daikin-DFVE
  9
$CUSTOMPROPERTYTAG
  1
NT
  9
$CUSTOMPROPERTY
  1

  9
$CUSTOMPROPERTYTAG
  1
NBSYN
  9
$CUSTOMPROPERTY
  1
$PARTNUMBER.
  9
$CUSTOMPROPERTYTAG
  1
LINA
  9
$CUSTOMPROPERTY
  1
DFVE48DP1400
  9
$CUSTOMPROPERTYTAG
  1
CATALOG
  9
$CUSTOMPROPERTY
  1
Daikin
  9
$CUSTOMPROPERTYTAG
  1
PARTNUMBER
  9
$CUSTOMPROPERTY
  1
DFVE48DP1400
  9
$CUSTOMPROPERTYTAG
  1
DESCRIPTION
  9
$CUSTOMPROPERTY
  1
Multi-Position, Variable-Speed air handler
  9
$CUSTOMPROPERTYTAG
  1
OVERALL_DEPTH
  9
$CUSTOMPROPERTY
  1
21.000
  9
$CUSTOMPROPERTYTAG
  1
OVERALL_HEIGHT
  9
$CUSTOMPROPERTY
  1
53.500
  9
$CUSTOMPROPERTYTAG
  1
OVERALL_WIDTH
  9
$CUSTOMPROPERTY
  1
24.500
  9
$CUSTOMPROPERTYTAG
  1
URL
  9
$CUSTOMPROPERTY
  1
https://daikincomfort.com
  9
$CUSTOMPROPERTYTAG
  1
RFA_FAMILY
  9
$CUSTOMPROPERTY
  1
Download Revit Family (RFA)
  9
$CUSTOMPROPERTYTAG
  1
COMPANY
  9
$CUSTOMPROPERTY
  1
daikin
  9
$REQUIREDVERSIONS
160
                 0
  9
$INSBASE
 10
0.0
 20
0.0
 30
0.0
  9
$EXTMIN
 10
-10.56250000000024
 20
-0.0000000000026059
 30
0.0
  9
$EXTMAX
 10
22.41694915254133
 20
54.0054237288112
 30
0.0
  9
$LIMMIN
 10
0.0
 20
0.0
  9
$LIMMAX
 10
12.0
 20
9.0
  9
$ORTHOMODE
 70
     0
  9
$REGENMODE
 70
     1
  9
$FILLMODE
 70
     1
  9
$QTEXTMODE
 70
     0
  9
$MIRRTEXT
 70
     1
  9
$LTSCALE
 40
1.0
  9
$ATTMODE
 70
     1
  9
$TEXTSIZE
 40
0.2
  9
$TRACEWID
 40
0.05
  9
$TEXTSTYLE
  7
Standard
  9
$CLAYER
  8
0
  9
$CELTYPE
  6
ByLayer
  9
$CECOLOR
 62
   256
  9
$CELTSCALE
 40
1.0
  9
$DISPSILH
 70
     0
  9
$DIMSCALE
 40
1.0
  9
$DIMASZ
 40
0.18
  9
$DIMEXO
 40
0.0625
  9
$DIMDLI
 40
0.38
  9
$DIMRND
 40
0.0
  9
$DIMDLE
 40
0.0
  9
$DIMEXE
 40
0.18
  9
$DIMTP
 40
0.0
  9
$DIMTM
 40
0.0
  9
$DIMTXT
 40
0.18
  9
$DIMCEN
 40
0.09
  9
$DIMTSZ
 40
0.0
  9
$DIMTOL
 70
     0
  9
$DIMLIM
 70
     0
  9
$DIMTIH
 70
     1
  9
$DIMTOH
 70
     1
  9
$DIMSE1
 70
     0
  9
$DIMSE2
 70
     0
  9
$DIMTAD
 70
     0
  9
$DIMZIN
 70
     0
  9
$DIMBLK
  1

  9
$DIMASO
 70
     1
  9
$DIMSHO
 70
     1
  9
$DIMPOST
  1

  9
$DIMAPOST
  1

  9
$DIMALT
 70
     0
  9
$DIMALTD
 70
     2
  9
$DIMALTF
 40
25.4
  9
$DIMLFAC
 40
1.0
  9
$DIMTOFL
 70
     0
  9
$DIMTVP
 40
0.0
  9
$DIMTIX
 70
     0
  9
$DIMSOXD
 70
     0
  9
$DIMSAH
 70
     0
  9
$DIMBLK1
  1

  9
$DIMBLK2
  1

  9
$DIMSTYLE
  2
Standard
  9
$DIMCLRD
 70
     0
  9
$DIMCLRE
 70
     0
  9
$DIMCLRT
 70
     0
  9
$DIMTFAC
 40
1.0
  9
$DIMGAP
 40
0.09
  9
$DIMJUST
 70
     0
  9
$DIMSD1
 70
     0
  9
$DIMSD2
 70
     0
  9
$DIMTOLJ
 70
     1
  9
$DIMTZIN
 70
     0
  9
$DIMALTZ
 70
     0
  9
$DIMALTTZ
 70
     0
  9
$DIMUPT
 70
     0
  9
$DIMDEC
 70
     4
  9
$DIMTDEC
 70
     4
  9
$DIMALTU
 70
     2
  9
$DIMALTTD
 70
     2
  9
$DIMTXSTY
  7
Standard
  9
$DIMAUNIT
 70
     0
  9
$DIMADEC
 70
     0
  9
$DIMALTRND
 40
0.0
  9
$DIMAZIN
 70
     0
  9
$DIMDSEP
 70
    46
  9
$DIMATFIT
 70
     3
  9
$DIMFRAC
 70
     0
  9
$DIMLDRBLK
  1

  9
$DIMLUNIT
 70
     2
  9
$DIMLWD
 70
    -2
  9
$DIMLWE
 70
    -2
  9
$DIMTMOVE
 70
     0
  9
$DIMFXL
 40
1.0
  9
$DIMFXLON
 70
     0
  9
$DIMJOGANG
 40
0.7853981633974483
  9
$DIMTFILL
 70
     0
  9
$DIMTFILLCLR
 70
     0
  9
$DIMARCSYM
 70
     0
  9
$DIMLTYPE
  6

  9
$DIMLTEX1
  6

  9
$DIMLTEX2
  6

  9
$DIMTXTDIRECTION
 70
     0
  9
$LUNITS
 70
     2
  9
$LUPREC
 70
     4
  9
$SKETCHINC
 40
0.1
  9
$FILLETRAD
 40
0.0
  9
$AUNITS
 70
     0
  9
$AUPREC
 70
     0
  9
$MENU
  1
.
  9
$ELEVATION
 40
0.0
  9
$PELEVATION
 40
0.0
  9
$THICKNESS
 40
0.0
  9
$LIMCHECK
 70
     0
  9
$CHAMFERA
 40
0.0
  9
$CHAMFERB
 40
0.0
  9
$CHAMFERC
 40
0.0
  9
$CHAMFERD
 40
0.0
  9
$SKPOLY
 70
     0
  9
$TDCREATE
 40
2461206.797102616
  9
$TDUCREATE
 40
2461206.713769282
  9
$TDUPDATE
 40
2461206.79710279
  9
$TDUUPDATE
 40
2461206.713769456
  9
$TDINDWG
 40
0.0000000116
  9
$TDUSRTIMER
 40
0.0000000116
  9
$USRTIMER
 70
     1
  9
$ANGBASE
 50
0.0
  9
$ANGDIR
 70
     0
  9
$PDMODE
 70
     0
  9
$PDSIZE
 40
0.0
  9
$PLINEWID
 40
0.0
  9
$SPLFRAME
 70
     0
  9
$SPLINETYPE
 70
     6
  9
$SPLINESEGS
 70
     8
  9
$HANDSEED
  5
1F7
  9
$SURFTAB1
 70
     6
  9
$SURFTAB2
 70
     6
  9
$SURFTYPE
 70
     6
  9
$SURFU
 70
     6
  9
$SURFV
 70
     6
  9
$UCSBASE
  2

  9
$UCSNAME
  2

  9
$UCSORG
 10
0.0
 20
0.0
 30
0.0
  9
$UCSXDIR
 10
1.0
 20
0.0
 30
0.0
  9
$UCSYDIR
 10
0.0
 20
1.0
 30
0.0
  9
$UCSORTHOREF
  2

  9
$UCSORTHOVIEW
 70
     0
  9
$UCSORGTOP
 10
0.0
 20
0.0
 30
0.0
  9
$UCSORGBOTTOM
 10
0.0
 20
0.0
 30
0.0
  9
$UCSORGLEFT
 10
0.0
 20
0.0
 30
0.0
  9
$UCSORGRIGHT
 10
0.0
 20
0.0
 30
0.0
  9
$UCSORGFRONT
 10
0.0
 20
0.0
 30
0.0
  9
$UCSORGBACK
 10
0.0
 20
0.0
 30
0.0
  9
$PUCSBASE
  2

  9
$PUCSNAME
  2

  9
$PUCSORG
 10
0.0
 20
0.0
 30
0.0
  9
$PUCSXDIR
 10
1.0
 20
0.0
 30
0.0
  9
$PUCSYDIR
 10
0.0
 20
1.0
 30
0.0
  9
$PUCSORTHOREF
  2

  9
$PUCSORTHOVIEW
 70
     0
  9
$PUCSORGTOP
 10
0.0
 20
0.0
 30
0.0
  9
$PUCSORGBOTTOM
 10
0.0
 20
0.0
 30
0.0
  9
$PUCSORGLEFT
 10
0.0
 20
0.0
 30
0.0
  9
$PUCSORGRIGHT
 10
0.0
 20
0.0
 30
0.0
  9
$PUCSORGFRONT
 10
0.0
 20
0.0
 30
0.0
  9
$PUCSORGBACK
 10
0.0
 20
0.0
 30
0.0
  9
$USERI1
 70
     0
  9
$USERI2
 70
     0
  9
$USERI3
 70
     0
  9
$USERI4
 70
     0
  9
$USERI5
 70
     0
  9
$USERR1
 40
0.0
  9
$USERR2
 40
0.0
  9
$USERR3
 40
0.0
  9
$USERR4
 40
0.0
  9
$USERR5
 40
0.0
  9
$WORLDVIEW
 70
     1
  9
$SHADEDGE
 70
     3
  9
$SHADEDIF
 70
    70
  9
$TILEMODE
 70
     1
  9
$MAXACTVP
 70
    64
  9
$PINSBASE
 10
0.0
 20
0.0
 30
0.0
  9
$PLIMCHECK
 70
     0
  9
$PEXTMIN
 10
1.000000000000000E+20
 20
1.000000000000000E+20
 30
1.000000000000000E+20
  9
$PEXTMAX
 10
-1.000000000000000E+20
 20
-1.000000000000000E+20
 30
-1.000000000000000E+20
  9
$PLIMMIN
 10
0.0
 20
0.0
  9
$PLIMMAX
 10
12.0
 20
9.0
  9
$UNITMODE
 70
     0
  9
$VISRETAIN
 70
     1
  9
$PLINEGEN
 70
     0
  9
$PSLTSCALE
 70
     1
  9
$TREEDEPTH
 70
  3020
  9
$CMLSTYLE
  2
Standard
  9
$CMLJUST
 70
     0
  9
$CMLSCALE
 40
1.0
  9
$PROXYGRAPHICS
 70
     1
  9
$MEASUREMENT
 70
     0
  9
$CELWEIGHT
370
    -1
  9
$ENDCAPS
280
     0
  9
$JOINSTYLE
280
     0
  9
$LWDISPLAY
290
     0
  9
$INSUNITS
 70
     1
  9
$HYPERLINKBASE
  1

  9
$STYLESHEET
  1

  9
$XEDIT
290
     1
  9
$CEPSNTYPE
380
     0
  9
$PSTYLEMODE
290
     1
  9
$FINGERPRINTGUID
  2
{70395a47-e8f3-4bd1-bf03-f78280d3f9c5}
  9
$VERSIONGUID
  2
{FAEB1C32-E019-11D5-929B-00C0DF256EC4}
  9
$EXTNAMES
290
     1
  9
$PSVPSCALE
 40
0.0
  9
$OLESTARTUP
290
     0
  9
$SORTENTS
280
   127
  9
$INDEXCTL
280
     0
  9
$HIDETEXT
280
     1
  9
$XCLIPFRAME
280
     2
  9
$HALOGAP
280
     0
  9
$OBSCOLOR
 70
   257
  9
$OBSLTYPE
280
     0
  9
$INTERSECTIONDISPLAY
280
     0
  9
$INTERSECTIONCOLOR
 70
   257
  9
$DIMASSOC
280
     2
  9
$PROJECTNAME
  1

  9
$CAMERADISPLAY
290
     0
  9
$LENSLENGTH
 40
50.0
  9
$CAMERAHEIGHT
 40
0.0
  9
$STEPSPERSEC
 40
2.0
  9
$STEPSIZE
 40
6.0
  9
$3DDWFPREC
 40
2.0
  9
$PSOLWIDTH
 40
0.25
  9
$PSOLHEIGHT
 40
4.0
  9
$LOFTANG1
 40
1.570796326794897
  9
$LOFTANG2
 40
1.570796326794897
  9
$LOFTMAG1
 40
0.0
  9
$LOFTMAG2
 40
0.0
  9
$LOFTPARAM
 70
     7
  9
$LOFTNORMALS
280
     1
  9
$LATITUDE
 40
37.795
  9
$LONGITUDE
 40
-122.394
  9
$NORTHDIRECTION
 40
0.0
  9
$TIMEZONE
 70
 -8000
  9
$LIGHTGLYPHDISPLAY
280
     1
  9
$TILEMODELIGHTSYNCH
280
     1
  9
$CMATERIAL
347
44
  9
$SOLIDHIST
280
     0
  9
$SHOWHIST
280
     1
  9
$DWFFRAME
280
     2
  9
$DGNFRAME
280
     2
  9
$REALWORLDSCALE
290
     1
  9
$INTERFERECOLOR
 62
   256
  9
$CSHADOW
280
     0
  9
$SHADOWPLANELOCATION
 40
0.0
  0
ENDSEC
  0
SECTION
  2
CLASSES
  0
CLASS
  1
ACDBDICTIONARYWDFLT
  2
AcDbDictionaryWithDefault
  3
ObjectDBX Classes
 90
        0
 91
        3
280
     0
281
     0
  0
CLASS
  1
VISUALSTYLE
  2
AcDbVisualStyle
  3
ObjectDBX Classes
 90
     4095
 91
        3
280
     0
281
     0
  0
CLASS
  1
MATERIAL
  2
AcDbMaterial
  3
ObjectDBX Classes
 90
     1153
 91
        3
280
     0
281
     0
  0
CLASS
  1
SCALE
  2
AcDbScale
  3
ObjectDBX Classes
 90
     1153
 91
        3
280
     0
281
     0
  0
CLASS
  1
TABLESTYLE
  2
AcDbTableStyle
  3
ObjectDBX Classes
 90
     4095
 91
        3
280
     0
281
     0
  0
CLASS
  1
MLEADERSTYLE
  2
AcDbMLeaderStyle
  3
ACDB_MLEADERSTYLE_CLASS
 90
     4095
 91
        3
280
     0
281
     0
  0
CLASS
  1
SUN
  2
AcDbSun
  3
SCENEOE
 90
     1153
 91
        3
280
     0
281
     0
  0
CLASS
  1
DICTIONARYVAR
  2
AcDbDictionaryVar
  3
ObjectDBX Classes
 90
        0
 91
        3
280
     0
281
     0
  0
CLASS
  1
CELLSTYLEMAP
  2
AcDbCellStyleMap
  3
ObjectDBX Classes
 90
     1152
 91
        3
280
     0
281
     0
  0
ENDSEC
  0
SECTION
  2
TABLES
  0
TABLE
  2
VPORT
  5
8
330
0
100
AcDbSymbolTable
 70
     1
  0
VPORT
  5
29
330
8
100
AcDbSymbolTableRecord
100
AcDbViewportTableRecord
  2
*Active
 70
     0
 10
0.0
 20
0.0
 11
1.0
 21
1.0
 12
5.968919491524783
 22
27.05169491525175
 13
0.0
 23
0.0
 14
0.5
 24
0.5
 15
0.5
 25
0.5
 16
0.0
 26
0.0
 36
1.0
 17
0.0
 27
0.0
 37
0.0
 40
55.18545762711889
 41
0.6111047586228325
 42
50.0
 43
0.0
 44
0.0
 50
0.0
 51
0.0
 71
     0
 72
   100
 73
     1
 74
     3
 75
     0
 76
     0
 77
     0
 78
     0
281
     0
 65
     1
110
0.0
120
0.0
130
0.0
111
1.0
121
0.0
131
0.0
112
0.0
122
1.0
132
0.0
 79
     0
146
0.0
348
2F
 60
     3
 61
     5
292
     1
282
     1
141
0.0
142
0.0
 63
   250
361
5D
  0
ENDTAB
  0
TABLE
  2
LTYPE
  5
5
330
0
100
AcDbSymbolTable
 70
     2
  0
LTYPE
  5
14
330
5
100
AcDbSymbolTableRecord
100
AcDbLinetypeTableRecord
  2
ByBlock
 70
     0
  3

 72
    65
 73
     0
 40
0.0
  0
LTYPE
  5
15
330
5
100
AcDbSymbolTableRecord
100
AcDbLinetypeTableRecord
  2
ByLayer
 70
     0
  3

 72
    65
 73
     0
 40
0.0
  0
LTYPE
  5
16
330
5
100
AcDbSymbolTableRecord
100
AcDbLinetypeTableRecord
  2
Continuous
 70
     0
  3
Solid line
 72
    65
 73
     0
 40
0.0
  0
LTYPE
  5
AD
330
5
100
AcDbSymbolTableRecord
100
AcDbLinetypeTableRecord
  2
Dashed
 70
     0
  3

 72
    65
 73
     2
 40
2.0
 49
1.0
 74
     0
 49
-1.0
 74
     0
  0
ENDTAB
  0
TABLE
  2
LAYER
  5
2
330
0
100
AcDbSymbolTable
 70
     4
  0
LAYER
  5
10
330
2
100
AcDbSymbolTableRecord
100
AcDbLayerTableRecord
  2
0
 70
     0
 62
     7
  6
Continuous
370
    -3
390
F
347
46
348
0
  0
LAYER
  5
5E
330
2
100
AcDbSymbolTableRecord
100
AcDbLayerTableRecord
  2
AM_6
 70
     0
 62
    -2
  6
Continuous
370
    35
390
F
347
46
348
0
  0
LAYER
  5
AE
330
2
100
AcDbSymbolTableRecord
100
AcDbLayerTableRecord
  2
AM_9
 70
     0
 62
     6
  6
Dashed
370
    25
390
F
347
46
348
0
  0
LAYER
  5
107
330
2
100
AcDbSymbolTableRecord
100
AcDbLayerTableRecord
  2
AM_0
 70
     0
 62
     7
  6
Continuous
370
    50
390
F
347
46
348
0
  0
ENDTAB
  0
TABLE
  2
STYLE
  5
3
330
0
100
AcDbSymbolTable
 70
     1
  0
STYLE
  5
11
330
3
100
AcDbSymbolTableRecord
100
AcDbTextStyleTableRecord
  2
Standard
 70
     0
 40
0.0
 41
1.0
 50
0.0
 71
     0
 42
0.2
  3
txt
  4

  0
ENDTAB
  0
TABLE
  2
VIEW
  5
6
330
0
100
AcDbSymbolTable
 70
     0
  0
ENDTAB
  0
TABLE
  2
UCS
  5
7
330
0
100
AcDbSymbolTable
 70
     0
  0
ENDTAB
  0
TABLE
  2
APPID
  5
9
330
0
100
AcDbSymbolTable
 70
     1
  0
APPID
  5
12
330
9
100
AcDbSymbolTableRecord
100
AcDbRegAppTableRecord
  2
ACAD
 70
     0
  0
ENDTAB
  0
TABLE
  2
DIMSTYLE
  5
A
330
0
100
AcDbSymbolTable
 70
     1
100
AcDbDimStyleTable
  0
DIMSTYLE
105
27
330
A
100
AcDbSymbolTableRecord
100
AcDbDimStyleTableRecord
  2
Standard
 70
     0
178
     0
340
11
  0
ENDTAB
  0
TABLE
  2
BLOCK_RECORD
  5
1
330
0
100
AcDbSymbolTable
 70
     9
  0
BLOCK_RECORD
  5
1F
330
1
100
AcDbSymbolTableRecord
100
AcDbBlockTableRecord
  2
*Model_Space
340
22
 70
     0
280
     1
281
     0
  0
BLOCK_RECORD
  5
1B
330
1
100
AcDbSymbolTableRecord
100
AcDbBlockTableRecord
  2
*Paper_Space
340
1E
 70
     0
280
     1
281
     0
  0
BLOCK_RECORD
  5
23
330
1
100
AcDbSymbolTableRecord
100
AcDbBlockTableRecord
  2
*Paper_Space0
340
26
 70
     0
280
     1
281
     0
  0
BLOCK_RECORD
  5
84
330
1
100
AcDbSymbolTableRecord
100
AcDbBlockTableRecord
  2
1_DFVE48DP1400_PART8_0_in_DFVE48DP1400_2
340
0
102
{BLKREFS
331
85
102
}
 70
     0
280
     1
281
     0
  0
BLOCK_RECORD
  5
B2
330
1
100
AcDbSymbolTableRecord
100
AcDbBlockTableRecord
  2
2_DFVE48DP1400_PART7_0_in_DFVE48DP1400_2
340
0
102
{BLKREFS
331
B3
102
}
 70
     0
280
     1
281
     0
  0
BLOCK_RECORD
  5
DE
330
1
100
AcDbSymbolTableRecord
100
AcDbBlockTableRecord
  2
3_DFVE48DP1400_PART6_0_in_DFVE48DP1400_2
340
0
102
{BLKREFS
331
DF
102
}
 70
     0
280
     1
281
     0
  0
BLOCK_RECORD
  5
10B
330
1
100
AcDbSymbolTableRecord
100
AcDbBlockTableRecord
  2
4_DFVE48DP1400_PART5_0_in_DFVE48DP1400_2
340
0
102
{BLKREFS
331
10C
102
}
 70
     0
280
     1
281
     0
  0
BLOCK_RECORD
  5
137
330
1
100
AcDbSymbolTableRecord
100
AcDbBlockTableRecord
  2
5_DFVE48DP1400_PART4_0_in_DFVE48DP1400_2
340
0
102
{BLKREFS
331
138
102
}
 70
     0
280
     1
281
     0
  0
BLOCK_RECORD
  5
163
330
1
100
AcDbSymbolTableRecord
100
AcDbBlockTableRecord
  2
6_DFVE48DP1400_PART3_0_in_DFVE48DP1400_2
340
0
102
{BLKREFS
331
164
102
}
 70
     0
280
     1
281
     0
  0
BLOCK_RECORD
  5
18F
330
1
100
AcDbSymbolTableRecord
100
AcDbBlockTableRecord
  2
7_DFVE48DP1400_PART2_0_in_DFVE48DP1400_2
340
0
102
{BLKREFS
331
190
102
}
 70
     0
280
     1
281
     0
  0
BLOCK_RECORD
  5
1BB
330
1
100
AcDbSymbolTableRecord
100
AcDbBlockTableRecord
  2
8_DFVE48DP1400_PART1_0_in_DFVE48DP1400_2
340
0
102
{BLKREFS
331
1BC
102
}
 70
     0
280
     1
281
     0
  0
ENDTAB
  0
ENDSEC
  0
SECTION
  2
BLOCKS
  0
BLOCK
  5
20
330
1F
100
AcDbEntity
  8
0
100
AcDbBlockBegin
  2
*Model_Space
 70
     2
 10
0.0
 20
0.0
 30
0.0
  3
*Model_Space
  1

  0
ENDBLK
  5
21
330
1F
100
AcDbEntity
  8
0
100
AcDbBlockEnd
  0
BLOCK
  5
1C
330
1B
100
AcDbEntity
 67
     1
  8
0
100
AcDbBlockBegin
  2
*Paper_Space
 70
     0
 10
0.0
 20
0.0
 30
0.0
  3
*Paper_Space
  1

  0
ENDBLK
  5
1D
330
1B
100
AcDbEntity
 67
     1
  8
0
100
AcDbBlockEnd
  0
BLOCK
  5
24
330
23
100
AcDbEntity
  8
0
100
AcDbBlockBegin
  2
*Paper_Space0
 70
     0
 10
0.0
 20
0.0
 30
0.0
  3
*Paper_Space0
  1

  0
ENDBLK
  5
25
330
23
100
AcDbEntity
  8
0
100
AcDbBlockEnd
  0
BLOCK
  5
86
330
84
100
AcDbEntity
  8
0
100
AcDbBlockBegin
  2
1_DFVE48DP1400_PART8_0_in_DFVE48DP1400_2
 70
     2
 10
0.0
 20
0.0
 30
0.0
  3
1_DFVE48DP1400_PART8_0_in_DFVE48DP1400_2
  1

  0
ATTDEF
  5
88
330
84
100
AcDbEntity
  8
AM_6
100
AcDbText
 10
14.97999999999973
 20
53.43749999999763
 30
0.0
 40
0.5
  1
DFVE48DP1400_PART8
100
AcDbAttributeDefinition
  3

  2
NB
 70
     8
280
     0
  0
ATTDEF
  5
89
330
84
100
AcDbEntity
  8
AM_6
100
AcDbText
 10
14.97999999999973
 20
52.93749999999763
 30
0.0
 40
0.5
  1

100
AcDbAttributeDefinition
  3

  2
NN
 70
     8
280
     0
  0
ATTDEF
  5
8A
330
84
100
AcDbEntity
  8
AM_6
100
AcDbText
 10
14.97999999999973
 20
52.43749999999763
 30
0.0
 40
0.5
  1

100
AcDbAttributeDefinition
  3

  2
NT
 70
     8
280
     0
  0
ATTDEF
  5
8B
330
84
100
AcDbEntity
  8
AM_6
100
AcDbText
 10
14.97999999999973
 20
51.93749999999763
 30
0.0
 40
0.5
  1
$PARTNUMBER._PART8
100
AcDbAttributeDefinition
  3

  2
NBSYN
 70
     8
280
     0
  0
ATTDEF
  5
8C
330
84
100
AcDbEntity
  8
AM_6
100
AcDbText
 10
14.97999999999973
 20
51.43749999999763
 30
0.0
 40
0.5
  1
DFVE48DP1400_PART8
100
AcDbAttributeDefinition
  3

  2
LINA
 70
     8
280
     0
  0
ATTDEF
  5
8D
330
84
100
AcDbEntity
  8
AM_6
100
AcDbText
 10
14.97999999999973
 20
50.93749999999763
 30
0.0
 40
0.5
  1
Daikin
100
AcDbAttributeDefinition
  3

  2
CATALOG
 70
     8
280
     0
  0
ATTDEF
  5
8E
330
84
100
AcDbEntity
  8
AM_6
100
AcDbText
 10
14.97999999999973
 20
50.43749999999763
 30
0.0
 40
0.5
  1
DFVE48DP1400
100
AcDbAttributeDefinition
  3

  2
PARTNUMBER
 70
     8
280
     0
  0
ATTDEF
  5
8F
330
84
100
AcDbEntity
  8
AM_6
100
AcDbText
 10
14.97999999999973
 20
49.93749999999763
 30
0.0
 40
0.5
  1
Multi-Position, Variable-Speed air handler
100
AcDbAttributeDefinition
  3

  2
DESCRIPTION
 70
     8
280
     0
  0
ATTDEF
  5
90
330
84
100
AcDbEntity
  8
AM_6
100
AcDbText
 10
14.97999999999973
 20
49.43749999999763
 30
0.0
 40
0.5
  1
21.000
100
AcDbAttributeDefinition
  3

  2
OVERALL_DEPTH
 70
     8
280
     0
  0
ATTDEF
  5
91
330
84
100
AcDbEntity
  8
AM_6
100
AcDbText
 10
14.97999999999973
 20
48.93749999999763
 30
0.0
 40
0.5
  1
53.500
100
AcDbAttributeDefinition
  3

  2
OVERALL_HEIGHT
 70
     8
280
     0
  0
ATTDEF
  5
92
330
84
100
AcDbEntity
  8
AM_6
100
AcDbText
 10
14.97999999999973
 20
48.43749999999763
 30
0.0
 40
0.5
  1
24.500
100
AcDbAttributeDefinition
  3

  2
OVERALL_WIDTH
 70
     8
280
     0
  0
ATTDEF
  5
93
330
84
100
AcDbEntity
  8
AM_6
100
AcDbText
 10
14.97999999999973
 20
47.93749999999763
 30
0.0
 40
0.5
  1
https://daikincomfort.com
100
AcDbAttributeDefinition
  3

  2
URL
 70
     8
280
     0
  0
ATTDEF
  5
94
330
84
100
AcDbEntity
  8
AM_6
100
AcDbText
 10
14.97999999999973
 20
47.43749999999763
 30
0.0
 40
0.5
  1
Download Revit Family (RFA)
100
AcDbAttributeDefinition
  3

  2
RFA_FAMILY
 70
     8
280
     0
  0
ATTDEF
  5
95
330
84
100
AcDbEntity
  8
AM_6
100
AcDbText
 10
14.97999999999973
 20
46.93749999999763
 30
0.0
 40
0.5
  1
daikin
100
AcDbAttributeDefinition
  3

  2
COMPANY
 70
     8
280
     0
  0
ATTDEF
  5
96
330
84
100
AcDbEntity
  8
AM_6
100
AcDbText
 10
14.97999999999973
 20
46.43749999999763
 30
0.0
 40
0.5
  1
{$CADENAS_DATA/23d-libs/daikin/unitary/air20handlers/2023/air_handling_unit-multi_position-daikin-dfve.prj},233 {VTYP=3D},{NB=DFVE48DP1400_PART8},{LINA=DFVE48DP1400_PART8},{NN=Air_Handling_Unit-Multi_Position-Daikin-DFVE_PART8},{NOPRJ=TRUE},{DATE=03
100
AcDbAttributeDefinition
  3

  2
PSOL_0
 70
     9
280
     0
  0
ATTDEF
  5
97
330
84
100
AcDbEntity
  8
AM_6
100
AcDbText
 10
14.97999999999973
 20
45.93749999999763
 30
0.0
 40
0.5
  1
26 19:23:45},{GEOMDATE=22.09.2025 12:59:40},{VERSION=},{LINEID=50},{WBVAR=},{WBNUMERIC=}  {NB=DFVE48DP1400_PART8},{LINA=DFVE48DP1400_PART8},{KT=DUMMY},{PARTNUMBERMAP09=4_ton_DFVE48DP1400},{PARTNUMBER=DFVE48DP1400},{DESCRIPTION=Multi-Position, Variab
100
AcDbAttributeDefinition
  3

  2
PSOL_1
 70
     9
280
     0
  0
ATTDEF
  5
98
330
84
100
AcDbEntity
  8
AM_6
100
AcDbText
 10
14.97999999999973
 20
45.43749999999763
 30
0.0
 40
0.5
  1
ed air handler},{OVERALL_DEPTH=21.000},{OVERALL_HEIGHT=53.500},{OVERALL_WIDTH=24.500},{URL=https://daikincomfort.com},{RFA_FAMILY=Download Revit Family (RFA)},{ORDERNO=4_ton_DFVE48DP1400},{AMBIENT_TEMPERATURE=0},{APPARENT_POWER=1495},{ASSEMBLY_CODE=
100
AcDbAttributeDefinition
  3

  2
PSOL_2
 70
     9
280
     0
  0
ATTDEF
  5
99
330
84
100
AcDbEntity
  8
AM_6
100
AcDbText
 10
14.97999999999973
 20
44.93749999999763
 30
0.0
 40
0.5
  1
00},{CATEGORY=Mechanical Equipment},{COIL_AIR_PRESSURE_DROP=0},{CONDENSATE_DRAIN_CONNECTION_DIAMETER=0.75},{CONDENSATE_DRAIN_CONNECTION_RADIUS=0.375},{CONDUIT_ANGLE=90},{CONDUIT_HORIZONTAL_OFFSET=-0.875},{CONDUIT_OFFSET=2.2265625},{CONDUIT_PLACEMENT
100
AcDbAttributeDefinition
  3

  2
PSOL_3
 70
     9
280
     0
  0
ATTDEF
  5
9A
330
84
100
AcDbEntity
  8
AM_6
100
AcDbText
 10
14.97999999999973
 20
44.43749999999763
 30
0.0
 40
0.5
  1
T=0.177083333333333},{CONDUIT_RADIUS=0.25},{CONDUIT_SIZE=0.5},{COOLING_ENTERING_DRY_BULB_TEMPERATURE=0},{COOLING_ENTERING_WET_BULB_TEMPERATURE=0},{COOLING_LEAVING_DRY_BULB_TEMPERATURE=0},{COOLING_LEAVING_WET_BULB_TEMPERATURE=0},{COST=0},{DEFAULT_ELE
100
AcDbAttributeDefinition
  3

  2
PSOL_4
 70
     9
280
     0
  0
ATTDEF
  5
9B
330
84
100
AcDbEntity
  8
AM_6
100
AcDbText
 10
14.97999999999973
 20
43.93749999999763
 30
0.0
 40
0.5
  1
=0},{DESIGN_RETURN_AIR_FLOW=0},{DESIGN_SUPPLY_AIR_FLOW=0},{DRAIN_CONNECTION_HORIZONTAL_OFFSET_1=0.3125},{DRAIN_CONNECTION_HORIZONTAL_OFFSET_2=0.447916666666667},{DRAIN_CONNECTION_VERTICAL_OFFSET_1=0.244791666666667},{DRAIN_CONNECTION_VERTICAL_OFFSET
100
AcDbAttributeDefinition
  3

  2
PSOL_5
 70
     9
280
     0
  0
ATTDEF
  5
9C
330
84
100
AcDbEntity
  8
AM_6
100
AcDbText
 10
14.97999999999973
 20
43.43749999999763
 30
0.0
 40
0.5
  1
35416666666667},{DRAIN_FLOW=0},{DUCT_ANGLE=0},{DUCT_CONNECTION_HORIZONTAL_OFFSET=2.04166666666667},{DUCT_CONNECTION_VERTICAL_OFFSET=4.23046875},{DUCT_OFFSET=2.2265625},{ENCLOSURE_HEIGHT=4.453125},{ENCLOSURE_WIDTH=2.04166666666667},{ENGWORKS_GLOBAL=h
100
AcDbAttributeDefinition
  3

  2
PSOL_6
 70
     9
280
     0
  0
ATTDEF
  5
9D
330
84
100
AcDbEntity
  8
AM_6
100
AcDbText
 10
14.97999999999973
 20
42.93749999999763
 30
0.0
 40
0.5
  1
www.ENGworksGlobal.com/},{FACE_VELOCITY__FPM_=0},{FAN_DRIVE=Direct Drive},{FAN_FULL_LOAD_AMPS=5.2},{FAN_HORSEPOWER=0.75},{FEET_PRESSURE_DROP=0},{FREQUENCY=60},{GAS_CONNECTION_HORIZONTAL_OFFSET=0.145},{GAS_CONNECTION_VERTICAL_OFFSET=1.79166666666667}
100
AcDbAttributeDefinition
  3

  2
PSOL_7
 70
     9
280
     0
  0
ATTDEF
  5
9E
330
84
100
AcDbEntity
  8
AM_6
100
AcDbText
 10
14.97999999999973
 20
42.43749999999763
 30
0.0
 40
0.5
  1
ING_ENTERING_DRY_BULB_TEMPERATURE=0},{HEATING_ENTERING_WET_BULB_TEMPERATURE=0},{HEATING_LEAVING_DRY_BULB_TEMPERATURE=0},{HEATING_LEAVING_WET_BULB_TEMPERATURE=0},{HORIZONTAL_DRAIN_HORIZONTAL_OFFSET_1=0.109375},{HORIZONTAL_DRAIN_HORIZONTAL_OFFSET_2=0.
100
AcDbAttributeDefinition
  3

  2
PSOL_8
 70
     9
280
     0
  0
ATTDEF
  5
9F
330
84
100
AcDbEntity
  8
AM_6
100
AcDbText
 10
14.97999999999973
 20
41.93749999999763
 30
0.0
 40
0.5
  1
HORIZONTAL_DRAIN_VERTICAL_OFFSET_1=0.848958333333333},{HORIZONTAL_DRAIN_VERTICAL_OFFSET_2=0.135416666666667},{LATENT_COOLING_CAPACITY=0},{LIQUID_CONNECTION_HORIZONTAL_OFFSET=0.2225},{LIQUID_CONNECTION_VERTICAL_OFFSET=1.52604166666667},{LOAD_SUB_CLAS
100
AcDbAttributeDefinition
  3

  2
PSOL_9
 70
     9
280
     0
  0
ATTDEF
  5
A0
330
84
100
AcDbEntity
  8
AM_6
100
AcDbText
 10
14.97999999999973
 20
41.43749999999763
 30
0.0
 40
0.5
  1
TION_MOTOR=1},{MANUFACTURER=Daikin},{MASSUNIT=1},{MAXIMUM_OVERCURRENT_PROTECTION=15},{MINIMUM_CIRCUIT_AMPS=6.5},{MODEL=DFVE48DP1400},{NOMINAL_COOLING_CAPACITY=48000},{NOMINAL_COOLING_CAPACITY__TONS_=4},{NOMINAL_HEATING_CAPACITY=0},{NUMBER_OF_POLES=1
100
AcDbAttributeDefinition
  3

  2
PSOL_10
 70
     9
280
     0
  0
ATTDEF
  5
A1
330
84
100
AcDbEntity
  8
AM_6
100
AcDbText
 10
14.97999999999973
 20
40.93749999999763
 30
0.0
 40
0.5
  1
ICLASS_NUMBER=23.75.35.14},{OMNICLASS_TITLE=Air Handling Units},{PARTTYPE=Normal},{PHASE=1},{PRODUCT_PAGE_URL=https://daikincomfort.com/products/heating-cooling/whole-house/air-handlers-coils/dfve},{REFRIGERANT_CHARGE=0},{REFRIGERANT_CHARGE_VALUE=0}
100
AcDbAttributeDefinition
  3

  2
PSOL_11
 70
     9
280
     0
  0
ATTDEF
  5
A2
330
84
100
AcDbEntity
  8
AM_6
100
AcDbText
 10
14.97999999999973
 20
40.43749999999763
 30
0.0
 40
0.5
  1
IGERANT_LIQUID_CONNECTION_DIAMETER=0.375},{REFRIGERANT_LIQUID_CONNECTION_HORIZONTAL_OFFSET=0.2225},{REFRIGERANT_LIQUID_CONNECTION_RADIUS=0.1875},{REFRIGERANT_LIQUID_CONNECTION_VERTICAL_OFFSET=1.52604166666667},{REFRIGERANT_SUCTION_GAS_CONNECTION_DIA
100
AcDbAttributeDefinition
  3

  2
PSOL_12
 70
     9
280
     0
  0
ATTDEF
  5
A3
330
84
100
AcDbEntity
  8
AM_6
100
AcDbText
 10
14.97999999999973
 20
39.93749999999763
 30
0.0
 40
0.5
  1
0.875},{REFRIGERANT_SUCTION_GAS_CONNECTION_HORIZONTAL_OFFSET=0.145},{REFRIGERANT_SUCTION_GAS_CONNECTION_RADIUS=0.4375},{REFRIGERANT_SUCTION_GAS_CONNECTION_VERTICAL_OFFSET=1.79166666666667},{REFRIGERANT_USED=R-410A},{RETURN_AIR_CONNECTION_HEIGHT=19.5
100
AcDbAttributeDefinition
  3

  2
PSOL_13
 70
     9
280
     0
  0
ATTDEF
  5
A4
330
84
100
AcDbEntity
  8
AM_6
100
AcDbText
 10
14.97999999999973
 20
39.43749999999763
 30
0.0
 40
0.5
  1
URN_AIR_CONNECTION_VERTICAL_OFFSET=0.8575},{RETURN_AIR_CONNECTION_WIDTH=21.1875},{RETURN_AIR_OUTLET_VERTICAL_OFFSET=0.045},{RETURN_AIR_PRESSURE_DROP=0},{SENSIBLE_COOLING_CAPACITY=0},{SERIES=DFVE},{SIDE_CONDUIT_CONNECTION=0},{SIDE_CONDUIT_HORIZONTAL_
100
AcDbAttributeDefinition
  3

  2
PSOL_14
 70
     9
280
     0
  0
ATTDEF
  5
A5
330
84
100
AcDbEntity
  8
AM_6
100
AcDbText
 10
14.97999999999973
 20
38.93749999999763
 30
0.0
 40
0.5
  1
=0.114583333333333},{SIDE_CONDUIT_HORIZONTAL_OFFSET_1=0.114583333333333},{SIDE_CONDUIT_HORIZONTAL_OFFSET_2=0.260416666666667},{SIDE_CONDUIT_HORIZONTAL_OFFSET_3=0.427083333333333},{SIDE_CONDUIT_HORIZONTAL_OFFSET_4=0.625},{SIDE_CONDUIT_VERTICAL_OFFSET
100
AcDbAttributeDefinition
  3

  2
PSOL_15
 70
     9
280
     0
  0
ATTDEF
  5
A6
330
84
100
AcDbEntity
  8
AM_6
100
AcDbText
 10
14.97999999999973
 20
38.43749999999763
 30
0.0
 40
0.5
  1
833333333333},{STANDARDS=AHRI Certified; ETL Listed},{SUPPLY_AIR_CONNECTION_HEIGHT=11.3},{SUPPLY_AIR_CONNECTION_VERTICAL_OFFSET=0.514166666666667},{SUPPLY_AIR_CONNECTION_WIDTH=23.3125},{SUPPLY_AIR_FLOW=1380},{SUPPLY_AIR_OUTLET_VERTICAL_OFFSET=0.0433
100
AcDbAttributeDefinition
  3

  2
PSOL_16
 70
     9
280
     0
  0
ATTDEF
  5
A7
330
84
100
AcDbEntity
  8
AM_6
100
AcDbText
 10
14.97999999999973
 20
37.93749999999763
 30
0.0
 40
0.5
  1
333333},{SUPPLY_AIR_PRESSURE_DROP=0},{TOP_CONDUIT_CONNECTION=1},{TOP_CONDUIT_HORIZONTAL_OFFSET=0.145833333333333},{TOP_CONDUIT_VERTICAL_OFFSET=0.177083333333333},{TOP_CONDUIT_VERTICAL_OFFSET_1=0.177083333333333},{TOP_CONDUIT_VERTICAL_OFFSET_2=0.3593
100
AcDbAttributeDefinition
  3

  2
PSOL_17
 70
     9
280
     0
  0
ATTDEF
  5
A8
330
84
100
AcDbEntity
  8
AM_6
100
AcDbText
 10
14.97999999999973
 20
37.43749999999763
 30
0.0
 40
0.5
  1
OP_CONDUIT_VERTICAL_OFFSET_3=0.510416666666667},{TOTAL_COOLING_CAPACITY=0},{TOTAL_HEATING_CAPACITY=0},{TOTAL_STATIC_PRESSURE=0},{UNIT_WEIGHT=150},{UNIT_WEIGHT_VALUE=150},{VERSION=1},{VERTICAL_DRAIN_HORIZONTAL_OFFSET_1=0.3125},{VERTICAL_DRAIN_HORIZON
100
AcDbAttributeDefinition
  3

  2
PSOL_18
 70
     9
280
     0
  0
ATTDEF
  5
A9
330
84
100
AcDbEntity
  8
AM_6
100
AcDbText
 10
14.97999999999973
 20
36.93749999999763
 30
0.0
 40
0.5
  1
FSET_2=0.135416666666667},{VERTICAL_DRAIN_VERTICAL_OFFSET_1=0.244791666666667},{VERTICAL_DRAIN_VERTICAL_OFFSET_2=0.135416666666667},{VOLTAGE=230},{VOLTAGE_COMMENTS=208 VAC - 230 VAC},{VAR___CONDUIT_PLACEMENT_SELECTOR=1},{VAR___UNIT_POSITION_CONFIGUR
100
AcDbAttributeDefinition
  3

  2
PSOL_19
 70
     9
280
     0
  0
ATTDEF
  5
AA
330
84
100
AcDbEntity
  8
AM_6
100
AcDbText
 10
14.97999999999973
 20
36.43749999999763
 30
0.0
 40
0.5
  1
SELECTOR=1},{VAR___CONDUIT_PLACEMENT_OPTION_1=1},{VAR___UPFLOW_OPTION=1},{VAR___CONDUIT_PLACEMENT_OPTION_2=0},{VAR___DOWNFLOW_OPTION=0},{VAR___CONDUIT_PLACEMENT_OPTION_3=0},{VAR___HORIZONTAL_LEFT_OPTION=0},{VAR___CONDUIT_PLACEMENT_OPTION_4___SIDE_ON
100
AcDbAttributeDefinition
  3

  2
PSOL_20
 70
     9
280
     0
  0
ATTDEF
  5
AB
330
84
100
AcDbEntity
  8
AM_6
100
AcDbText
 10
14.97999999999973
 20
35.93749999999763
 30
0.0
 40
0.5
  1
{VAR___HORIZONTAL_RIGHT_OPTION=0},{DEFAULTSORTATTR=1850},{RFA_FAMILY_=../../../_pool_/69/dd/air_handling_unit-multi_position-daikin-dfve.zip},{RFA_FAMILY_ENG=../../../_pool_/69/dd/air_handling_unit-multi_position-daikin-dfve.zip},{REVIT_FAMILY_DOWNL
100
AcDbAttributeDefinition
  3

  2
PSOL_21
 70
     9
280
     0
  0
ATTDEF
  5
AC
330
84
100
AcDbEntity
  8
AM_6
100
AcDbText
 10
14.97999999999973
 20
35.43749999999763
 30
0.0
 40
0.5
  1
/../../_pool_/69/dd/air_handling_unit-multi_position-daikin-dfve.zip},{PN=4_ton_DFVE48DP1400}
100
AcDbAttributeDefinition
  3

  2
PSOL_22
 70
     9
280
     0
  0
LINE
  5
AF
330
84
100
AcDbEntity
  8
AM_9
100
AcDbLine
 10
9.979999999999725
 20
26.71874999999752
 30
0.0
 11
-1.320000000000275
 21
26.71874999999752
 31
0.0
  0
LINE
  5
B0
330
84
100
AcDbEntity
  8
AM_9
100
AcDbLine
 10
9.979999999999725
 20
26.71874999999752
 30
0.0
 11
9.979999999999725
 21
53.43749999999763
 31
0.0
  0
LINE
  5
B1
330
84
100
AcDbEntity
  8
AM_9
100
AcDbLine
 10
-1.320000000000275
 20
53.43749999999756
 30
0.0
 11
-1.320000000000275
 21
26.71874999999752
 31
0.0
  0
ENDBLK
  5
87
330
84
100
AcDbEntity
  8
0
100
AcDbBlockEnd
  0
BLOCK
  5
B4
330
B2
100
AcDbEntity
  8
0
100
AcDbBlockBegin
  2
2_DFVE48DP1400_PART7_0_in_DFVE48DP1400_2
 70
     2
 10
0.0
 20
0.0
 30
0.0
  3
2_DFVE48DP1400_PART7_0_in_DFVE48DP1400_2
  1

  0
ATTDEF
  5
B6
330
B2
100
AcDbEntity
  8
AM_6
100
AcDbText
 10
14.45999999999973
 20
26.71874999999756
 30
0.0
 40
0.5
  1
DFVE48DP1400_PART7
100
AcDbAttributeDefinition
  3

  2
NB
 70
     8
280
     0
  0
ATTDEF
  5
B7
330
B2
100
AcDbEntity
  8
AM_6
100
AcDbText
 10
14.45999999999973
 20
26.21874999999756
 30
0.0
 40
0.5
  1

100
AcDbAttributeDefinition
  3

  2
NN
 70
     8
280
     0
  0
ATTDEF
  5
B8
330
B2
100
AcDbEntity
  8
AM_6
100
AcDbText
 10
14.45999999999973
 20
25.71874999999756
 30
0.0
 40
0.5
  1

100
AcDbAttributeDefinition
  3

  2
NT
 70
     8
280
     0
  0
ATTDEF
  5
B9
330
B2
100
AcDbEntity
  8
AM_6
100
AcDbText
 10
14.45999999999973
 20
25.21874999999756
 30
0.0
 40
0.5
  1
$PARTNUMBER._PART7
100
AcDbAttributeDefinition
  3

  2
NBSYN
 70
     8
280
     0
  0
ATTDEF
  5
BA
330
B2
100
AcDbEntity
  8
AM_6
100
AcDbText
 10
14.45999999999973
 20
24.71874999999756
 30
0.0
 40
0.5
  1
DFVE48DP1400_PART7
100
AcDbAttributeDefinition
  3

  2
LINA
 70
     8
280
     0
  0
ATTDEF
  5
BB
330
B2
100
AcDbEntity
  8
AM_6
100
AcDbText
 10
14.45999999999973
 20
24.21874999999756
 30
0.0
 40
0.5
  1
Daikin
100
AcDbAttributeDefinition
  3

  2
CATALOG
 70
     8
280
     0
  0
ATTDEF
  5
BC
330
B2
100
AcDbEntity
  8
AM_6
100
AcDbText
 10
14.45999999999973
 20
23.71874999999756
 30
0.0
 40
0.5
  1
DFVE48DP1400
100
AcDbAttributeDefinition
  3

  2
PARTNUMBER
 70
     8
280
     0
  0
ATTDEF
  5
BD
330
B2
100
AcDbEntity
  8
AM_6
100
AcDbText
 10
14.45999999999973
 20
23.21874999999756
 30
0.0
 40
0.5
  1
Multi-Position, Variable-Speed air handler
100
AcDbAttributeDefinition
  3

  2
DESCRIPTION
 70
     8
280
     0
  0
ATTDEF
  5
BE
330
B2
100
AcDbEntity
  8
AM_6
100
AcDbText
 10
14.45999999999973
 20
22.71874999999756
 30
0.0
 40
0.5
  1
21.000
100
AcDbAttributeDefinition
  3

  2
OVERALL_DEPTH
 70
     8
280
     0
  0
ATTDEF
  5
BF
330
B2
100
AcDbEntity
  8
AM_6
100
AcDbText
 10
14.45999999999973
 20
22.21874999999756
 30
0.0
 40
0.5
  1
53.500
100
AcDbAttributeDefinition
  3

  2
OVERALL_HEIGHT
 70
     8
280
     0
  0
ATTDEF
  5
C0
330
B2
100
AcDbEntity
  8
AM_6
100
AcDbText
 10
14.45999999999973
 20
21.71874999999756
 30
0.0
 40
0.5
  1
24.500
100
AcDbAttributeDefinition
  3

  2
OVERALL_WIDTH
 70
     8
280
     0
  0
ATTDEF
  5
C1
330
B2
100
AcDbEntity
  8
AM_6
100
AcDbText
 10
14.45999999999973
 20
21.21874999999756
 30
0.0
 40
0.5
  1
https://daikincomfort.com
100
AcDbAttributeDefinition
  3

  2
URL
 70
     8
280
     0
  0
ATTDEF
  5
C2
330
B2
100
AcDbEntity
  8
AM_6
100
AcDbText
 10
14.45999999999973
 20
20.71874999999756
 30
0.0
 40
0.5
  1
Download Revit Family (RFA)
100
AcDbAttributeDefinition
  3

  2
RFA_FAMILY
 70
     8
280
     0
  0
ATTDEF
  5
C3
330
B2
100
AcDbEntity
  8
AM_6
100
AcDbText
 10
14.45999999999973
 20
20.21874999999756
 30
0.0
 40
0.5
  1
daikin
100
AcDbAttributeDefinition
  3

  2
COMPANY
 70
     8
280
     0
  0
ATTDEF
  5
C4
330
B2
100
AcDbEntity
  8
AM_6
100
AcDbText
 10
14.45999999999973
 20
19.71874999999756
 30
0.0
 40
0.5
  1
{$CADENAS_DATA/23d-libs/daikin/unitary/air20handlers/2023/air_handling_unit-multi_position-daikin-dfve.prj},233 {VTYP=3D},{NB=DFVE48DP1400_PART7},{LINA=DFVE48DP1400_PART7},{NN=Air_Handling_Unit-Multi_Position-Daikin-DFVE_PART7},{NOPRJ=TRUE},{DATE=03
100
AcDbAttributeDefinition
  3

  2
PSOL_0
 70
     9
280
     0
  0
ATTDEF
  5
C5
330
B2
100
AcDbEntity
  8
AM_6
100
AcDbText
 10
14.45999999999973
 20
19.21874999999756
 30
0.0
 40
0.5
  1
26 19:23:45},{GEOMDATE=22.09.2025 12:59:40},{VERSION=},{LINEID=50},{WBVAR=},{WBNUMERIC=}  {NB=DFVE48DP1400_PART7},{LINA=DFVE48DP1400_PART7},{KT=DUMMY},{PARTNUMBERMAP09=4_ton_DFVE48DP1400},{PARTNUMBER=DFVE48DP1400},{DESCRIPTION=Multi-Position, Variab
100
AcDbAttributeDefinition
  3

  2
PSOL_1
 70
     9
280
     0
  0
ATTDEF
  5
C6
330
B2
100
AcDbEntity
  8
AM_6
100
AcDbText
 10
14.45999999999973
 20
18.71874999999756
 30
0.0
 40
0.5
  1
ed air handler},{OVERALL_DEPTH=21.000},{OVERALL_HEIGHT=53.500},{OVERALL_WIDTH=24.500},{URL=https://daikincomfort.com},{RFA_FAMILY=Download Revit Family (RFA)},{ORDERNO=4_ton_DFVE48DP1400},{AMBIENT_TEMPERATURE=0},{APPARENT_POWER=1495},{ASSEMBLY_CODE=
100
AcDbAttributeDefinition
  3

  2
PSOL_2
 70
     9
280
     0
  0
ATTDEF
  5
C7
330
B2
100
AcDbEntity
  8
AM_6
100
AcDbText
 10
14.45999999999973
 20
18.21874999999756
 30
0.0
 40
0.5
  1
00},{CATEGORY=Mechanical Equipment},{COIL_AIR_PRESSURE_DROP=0},{CONDENSATE_DRAIN_CONNECTION_DIAMETER=0.75},{CONDENSATE_DRAIN_CONNECTION_RADIUS=0.375},{CONDUIT_ANGLE=90},{CONDUIT_HORIZONTAL_OFFSET=-0.875},{CONDUIT_OFFSET=2.2265625},{CONDUIT_PLACEMENT
100
AcDbAttributeDefinition
  3

  2
PSOL_3
 70
     9
280
     0
  0
ATTDEF
  5
C8
330
B2
100
AcDbEntity
  8
AM_6
100
AcDbText
 10
14.45999999999973
 20
17.71874999999756
 30
0.0
 40
0.5
  1
T=0.177083333333333},{CONDUIT_RADIUS=0.25},{CONDUIT_SIZE=0.5},{COOLING_ENTERING_DRY_BULB_TEMPERATURE=0},{COOLING_ENTERING_WET_BULB_TEMPERATURE=0},{COOLING_LEAVING_DRY_BULB_TEMPERATURE=0},{COOLING_LEAVING_WET_BULB_TEMPERATURE=0},{COST=0},{DEFAULT_ELE
100
AcDbAttributeDefinition
  3

  2
PSOL_4
 70
     9
280
     0
  0
ATTDEF
  5
C9
330
B2
100
AcDbEntity
  8
AM_6
100
AcDbText
 10
14.45999999999973
 20
17.21874999999756
 30
0.0
 40
0.5
  1
=0},{DESIGN_RETURN_AIR_FLOW=0},{DESIGN_SUPPLY_AIR_FLOW=0},{DRAIN_CONNECTION_HORIZONTAL_OFFSET_1=0.3125},{DRAIN_CONNECTION_HORIZONTAL_OFFSET_2=0.447916666666667},{DRAIN_CONNECTION_VERTICAL_OFFSET_1=0.244791666666667},{DRAIN_CONNECTION_VERTICAL_OFFSET
100
AcDbAttributeDefinition
  3

  2
PSOL_5
 70
     9
280
     0
  0
ATTDEF
  5
CA
330
B2
100
AcDbEntity
  8
AM_6
100
AcDbText
 10
14.45999999999973
 20
16.71874999999756
 30
0.0
 40
0.5
  1
35416666666667},{DRAIN_FLOW=0},{DUCT_ANGLE=0},{DUCT_CONNECTION_HORIZONTAL_OFFSET=2.04166666666667},{DUCT_CONNECTION_VERTICAL_OFFSET=4.23046875},{DUCT_OFFSET=2.2265625},{ENCLOSURE_HEIGHT=4.453125},{ENCLOSURE_WIDTH=2.04166666666667},{ENGWORKS_GLOBAL=h
100
AcDbAttributeDefinition
  3

  2
PSOL_6
 70
     9
280
     0
  0
ATTDEF
  5
CB
330
B2
100
AcDbEntity
  8
AM_6
100
AcDbText
 10
14.45999999999973
 20
16.21874999999756
 30
0.0
 40
0.5
  1
www.ENGworksGlobal.com/},{FACE_VELOCITY__FPM_=0},{FAN_DRIVE=Direct Drive},{FAN_FULL_LOAD_AMPS=5.2},{FAN_HORSEPOWER=0.75},{FEET_PRESSURE_DROP=0},{FREQUENCY=60},{GAS_CONNECTION_HORIZONTAL_OFFSET=0.145},{GAS_CONNECTION_VERTICAL_OFFSET=1.79166666666667}
100
AcDbAttributeDefinition
  3

  2
PSOL_7
 70
     9
280
     0
  0
ATTDEF
  5
CC
330
B2
100
AcDbEntity
  8
AM_6
100
AcDbText
 10
14.45999999999973
 20
15.71874999999756
 30
0.0
 40
0.5
  1
ING_ENTERING_DRY_BULB_TEMPERATURE=0},{HEATING_ENTERING_WET_BULB_TEMPERATURE=0},{HEATING_LEAVING_DRY_BULB_TEMPERATURE=0},{HEATING_LEAVING_WET_BULB_TEMPERATURE=0},{HORIZONTAL_DRAIN_HORIZONTAL_OFFSET_1=0.109375},{HORIZONTAL_DRAIN_HORIZONTAL_OFFSET_2=0.
100
AcDbAttributeDefinition
  3

  2
PSOL_8
 70
     9
280
     0
  0
ATTDEF
  5
CD
330
B2
100
AcDbEntity
  8
AM_6
100
AcDbText
 10
14.45999999999973
 20
15.21874999999756
 30
0.0
 40
0.5
  1
HORIZONTAL_DRAIN_VERTICAL_OFFSET_1=0.848958333333333},{HORIZONTAL_DRAIN_VERTICAL_OFFSET_2=0.135416666666667},{LATENT_COOLING_CAPACITY=0},{LIQUID_CONNECTION_HORIZONTAL_OFFSET=0.2225},{LIQUID_CONNECTION_VERTICAL_OFFSET=1.52604166666667},{LOAD_SUB_CLAS
100
AcDbAttributeDefinition
  3

  2
PSOL_9
 70
     9
280
     0
  0
ATTDEF
  5
CE
330
B2
100
AcDbEntity
  8
AM_6
100
AcDbText
 10
14.45999999999973
 20
14.71874999999756
 30
0.0
 40
0.5
  1
TION_MOTOR=1},{MANUFACTURER=Daikin},{MASSUNIT=1},{MAXIMUM_OVERCURRENT_PROTECTION=15},{MINIMUM_CIRCUIT_AMPS=6.5},{MODEL=DFVE48DP1400},{NOMINAL_COOLING_CAPACITY=48000},{NOMINAL_COOLING_CAPACITY__TONS_=4},{NOMINAL_HEATING_CAPACITY=0},{NUMBER_OF_POLES=1
100
AcDbAttributeDefinition
  3

  2
PSOL_10
 70
     9
280
     0
  0
ATTDEF
  5
CF
330
B2
100
AcDbEntity
  8
AM_6
100
AcDbText
 10
14.45999999999973
 20
14.21874999999756
 30
0.0
 40
0.5
  1
ICLASS_NUMBER=23.75.35.14},{OMNICLASS_TITLE=Air Handling Units},{PARTTYPE=Normal},{PHASE=1},{PRODUCT_PAGE_URL=https://daikincomfort.com/products/heating-cooling/whole-house/air-handlers-coils/dfve},{REFRIGERANT_CHARGE=0},{REFRIGERANT_CHARGE_VALUE=0}
100
AcDbAttributeDefinition
  3

  2
PSOL_11
 70
     9
280
     0
  0
ATTDEF
  5
D0
330
B2
100
AcDbEntity
  8
AM_6
100
AcDbText
 10
14.45999999999973
 20
13.71874999999756
 30
0.0
 40
0.5
  1
IGERANT_LIQUID_CONNECTION_DIAMETER=0.375},{REFRIGERANT_LIQUID_CONNECTION_HORIZONTAL_OFFSET=0.2225},{REFRIGERANT_LIQUID_CONNECTION_RADIUS=0.1875},{REFRIGERANT_LIQUID_CONNECTION_VERTICAL_OFFSET=1.52604166666667},{REFRIGERANT_SUCTION_GAS_CONNECTION_DIA
100
AcDbAttributeDefinition
  3

  2
PSOL_12
 70
     9
280
     0
  0
ATTDEF
  5
D1
330
B2
100
AcDbEntity
  8
AM_6
100
AcDbText
 10
14.45999999999973
 20
13.21874999999756
 30
0.0
 40
0.5
  1
0.875},{REFRIGERANT_SUCTION_GAS_CONNECTION_HORIZONTAL_OFFSET=0.145},{REFRIGERANT_SUCTION_GAS_CONNECTION_RADIUS=0.4375},{REFRIGERANT_SUCTION_GAS_CONNECTION_VERTICAL_OFFSET=1.79166666666667},{REFRIGERANT_USED=R-410A},{RETURN_AIR_CONNECTION_HEIGHT=19.5
100
AcDbAttributeDefinition
  3

  2
PSOL_13
 70
     9
280
     0
  0
ATTDEF
  5
D2
330
B2
100
AcDbEntity
  8
AM_6
100
AcDbText
 10
14.45999999999973
 20
12.71874999999756
 30
0.0
 40
0.5
  1
URN_AIR_CONNECTION_VERTICAL_OFFSET=0.8575},{RETURN_AIR_CONNECTION_WIDTH=21.1875},{RETURN_AIR_OUTLET_VERTICAL_OFFSET=0.045},{RETURN_AIR_PRESSURE_DROP=0},{SENSIBLE_COOLING_CAPACITY=0},{SERIES=DFVE},{SIDE_CONDUIT_CONNECTION=0},{SIDE_CONDUIT_HORIZONTAL_
100
AcDbAttributeDefinition
  3

  2
PSOL_14
 70
     9
280
     0
  0
ATTDEF
  5
D3
330
B2
100
AcDbEntity
  8
AM_6
100
AcDbText
 10
14.45999999999973
 20
12.21874999999756
 30
0.0
 40
0.5
  1
=0.114583333333333},{SIDE_CONDUIT_HORIZONTAL_OFFSET_1=0.114583333333333},{SIDE_CONDUIT_HORIZONTAL_OFFSET_2=0.260416666666667},{SIDE_CONDUIT_HORIZONTAL_OFFSET_3=0.427083333333333},{SIDE_CONDUIT_HORIZONTAL_OFFSET_4=0.625},{SIDE_CONDUIT_VERTICAL_OFFSET
100
AcDbAttributeDefinition
  3

  2
PSOL_15
 70
     9
280
     0
  0
ATTDEF
  5
D4
330
B2
100
AcDbEntity
  8
AM_6
100
AcDbText
 10
14.45999999999973
 20
11.71874999999756
 30
0.0
 40
0.5
  1
833333333333},{STANDARDS=AHRI Certified; ETL Listed},{SUPPLY_AIR_CONNECTION_HEIGHT=11.3},{SUPPLY_AIR_CONNECTION_VERTICAL_OFFSET=0.514166666666667},{SUPPLY_AIR_CONNECTION_WIDTH=23.3125},{SUPPLY_AIR_FLOW=1380},{SUPPLY_AIR_OUTLET_VERTICAL_OFFSET=0.0433
100
AcDbAttributeDefinition
  3

  2
PSOL_16
 70
     9
280
     0
  0
ATTDEF
  5
D5
330
B2
100
AcDbEntity
  8
AM_6
100
AcDbText
 10
14.45999999999973
 20
11.21874999999756
 30
0.0
 40
0.5
  1
333333},{SUPPLY_AIR_PRESSURE_DROP=0},{TOP_CONDUIT_CONNECTION=1},{TOP_CONDUIT_HORIZONTAL_OFFSET=0.145833333333333},{TOP_CONDUIT_VERTICAL_OFFSET=0.177083333333333},{TOP_CONDUIT_VERTICAL_OFFSET_1=0.177083333333333},{TOP_CONDUIT_VERTICAL_OFFSET_2=0.3593
100
AcDbAttributeDefinition
  3

  2
PSOL_17
 70
     9
280
     0
  0
ATTDEF
  5
D6
330
B2
100
AcDbEntity
  8
AM_6
100
AcDbText
 10
14.45999999999973
 20
10.71874999999756
 30
0.0
 40
0.5
  1
OP_CONDUIT_VERTICAL_OFFSET_3=0.510416666666667},{TOTAL_COOLING_CAPACITY=0},{TOTAL_HEATING_CAPACITY=0},{TOTAL_STATIC_PRESSURE=0},{UNIT_WEIGHT=150},{UNIT_WEIGHT_VALUE=150},{VERSION=1},{VERTICAL_DRAIN_HORIZONTAL_OFFSET_1=0.3125},{VERTICAL_DRAIN_HORIZON
100
AcDbAttributeDefinition
  3

  2
PSOL_18
 70
     9
280
     0
  0
ATTDEF
  5
D7
330
B2
100
AcDbEntity
  8
AM_6
100
AcDbText
 10
14.45999999999973
 20
10.21874999999756
 30
0.0
 40
0.5
  1
FSET_2=0.135416666666667},{VERTICAL_DRAIN_VERTICAL_OFFSET_1=0.244791666666667},{VERTICAL_DRAIN_VERTICAL_OFFSET_2=0.135416666666667},{VOLTAGE=230},{VOLTAGE_COMMENTS=208 VAC - 230 VAC},{VAR___CONDUIT_PLACEMENT_SELECTOR=1},{VAR___UNIT_POSITION_CONFIGUR
100
AcDbAttributeDefinition
  3

  2
PSOL_19
 70
     9
280
     0
  0
ATTDEF
  5
D8
330
B2
100
AcDbEntity
  8
AM_6
100
AcDbText
 10
14.45999999999973
 20
9.718749999997556
 30
0.0
 40
0.5
  1
SELECTOR=1},{VAR___CONDUIT_PLACEMENT_OPTION_1=1},{VAR___UPFLOW_OPTION=1},{VAR___CONDUIT_PLACEMENT_OPTION_2=0},{VAR___DOWNFLOW_OPTION=0},{VAR___CONDUIT_PLACEMENT_OPTION_3=0},{VAR___HORIZONTAL_LEFT_OPTION=0},{VAR___CONDUIT_PLACEMENT_OPTION_4___SIDE_ON
100
AcDbAttributeDefinition
  3

  2
PSOL_20
 70
     9
280
     0
  0
ATTDEF
  5
D9
330
B2
100
AcDbEntity
  8
AM_6
100
AcDbText
 10
14.45999999999973
 20
9.218749999997556
 30
0.0
 40
0.5
  1
{VAR___HORIZONTAL_RIGHT_OPTION=0},{DEFAULTSORTATTR=1850},{RFA_FAMILY_=../../../_pool_/69/dd/air_handling_unit-multi_position-daikin-dfve.zip},{RFA_FAMILY_ENG=../../../_pool_/69/dd/air_handling_unit-multi_position-daikin-dfve.zip},{REVIT_FAMILY_DOWNL
100
AcDbAttributeDefinition
  3

  2
PSOL_21
 70
     9
280
     0
  0
ATTDEF
  5
DA
330
B2
100
AcDbEntity
  8
AM_6
100
AcDbText
 10
14.45999999999973
 20
8.718749999997556
 30
0.0
 40
0.5
  1
/../../_pool_/69/dd/air_handling_unit-multi_position-daikin-dfve.zip},{PN=4_ton_DFVE48DP1400}
100
AcDbAttributeDefinition
  3

  2
PSOL_22
 70
     9
280
     0
  0
LINE
  5
DB
330
B2
100
AcDbEntity
  8
AM_9
100
AcDbLine
 10
-10.04000000000027
 20
26.71874999999755
 30
0.0
 11
-1.320000000000275
 21
26.71874999999755
 31
0.0
  0
LINE
  5
DC
330
B2
100
AcDbEntity
  8
AM_9
100
AcDbLine
 10
-10.04000000000028
 20
-0.0000000000024484
 30
0.0
 11
-10.04000000000027
 21
26.71874999999755
 31
0.0
  0
LINE
  5
DD
330
B2
100
AcDbEntity
  8
AM_9
100
AcDbLine
 10
9.459999999999729
 20
-0.0000000000024484
 30
0.0
 11
9.459999999999726
 21
26.71874999999756
 31
0.0
  0
ENDBLK
  5
B5
330
B2
100
AcDbEntity
  8
0
100
AcDbBlockEnd
  0
BLOCK
  5
E0
330
DE
100
AcDbEntity
  8
0
100
AcDbBlockBegin
  2
3_DFVE48DP1400_PART6_0_in_DFVE48DP1400_2
 70
     2
 10
0.0
 20
0.0
 30
0.0
  3
3_DFVE48DP1400_PART6_0_in_DFVE48DP1400_2
  1

  0
ATTDEF
  5
E2
330
DE
100
AcDbEntity
  8
AM_6
100
AcDbText
 10
-3.124999999999053
 20
53.49999999999764
 30
0.0
 40
0.5
  1
DFVE48DP1400_PART6
100
AcDbAttributeDefinition
  3

  2
NB
 70
     8
280
     0
  0
ATTDEF
  5
E3
330
DE
100
AcDbEntity
  8
AM_6
100
AcDbText
 10
-3.124999999999053
 20
52.99999999999764
 30
0.0
 40
0.5
  1

100
AcDbAttributeDefinition
  3

  2
NN
 70
     8
280
     0
  0
ATTDEF
  5
E4
330
DE
100
AcDbEntity
  8
AM_6
100
AcDbText
 10
-3.124999999999053
 20
52.49999999999764
 30
0.0
 40
0.5
  1

100
AcDbAttributeDefinition
  3

  2
NT
 70
     8
280
     0
  0
ATTDEF
  5
E5
330
DE
100
AcDbEntity
  8
AM_6
100
AcDbText
 10
-3.124999999999053
 20
51.99999999999764
 30
0.0
 40
0.5
  1
$PARTNUMBER._PART6
100
AcDbAttributeDefinition
  3

  2
NBSYN
 70
     8
280
     0
  0
ATTDEF
  5
E6
330
DE
100
AcDbEntity
  8
AM_6
100
AcDbText
 10
-3.124999999999053
 20
51.49999999999764
 30
0.0
 40
0.5
  1
DFVE48DP1400_PART6
100
AcDbAttributeDefinition
  3

  2
LINA
 70
     8
280
     0
  0
ATTDEF
  5
E7
330
DE
100
AcDbEntity
  8
AM_6
100
AcDbText
 10
-3.124999999999053
 20
50.99999999999764
 30
0.0
 40
0.5
  1
Daikin
100
AcDbAttributeDefinition
  3

  2
CATALOG
 70
     8
280
     0
  0
ATTDEF
  5
E8
330
DE
100
AcDbEntity
  8
AM_6
100
AcDbText
 10
-3.124999999999053
 20
50.49999999999764
 30
0.0
 40
0.5
  1
DFVE48DP1400
100
AcDbAttributeDefinition
  3

  2
PARTNUMBER
 70
     8
280
     0
  0
ATTDEF
  5
E9
330
DE
100
AcDbEntity
  8
AM_6
100
AcDbText
 10
-3.124999999999053
 20
49.99999999999764
 30
0.0
 40
0.5
  1
Multi-Position, Variable-Speed air handler
100
AcDbAttributeDefinition
  3

  2
DESCRIPTION
 70
     8
280
     0
  0
ATTDEF
  5
EA
330
DE
100
AcDbEntity
  8
AM_6
100
AcDbText
 10
-3.124999999999053
 20
49.49999999999764
 30
0.0
 40
0.5
  1
21.000
100
AcDbAttributeDefinition
  3

  2
OVERALL_DEPTH
 70
     8
280
     0
  0
ATTDEF
  5
EB
330
DE
100
AcDbEntity
  8
AM_6
100
AcDbText
 10
-3.124999999999053
 20
48.99999999999764
 30
0.0
 40
0.5
  1
53.500
100
AcDbAttributeDefinition
  3

  2
OVERALL_HEIGHT
 70
     8
280
     0
  0
ATTDEF
  5
EC
330
DE
100
AcDbEntity
  8
AM_6
100
AcDbText
 10
-3.124999999999053
 20
48.49999999999764
 30
0.0
 40
0.5
  1
24.500
100
AcDbAttributeDefinition
  3

  2
OVERALL_WIDTH
 70
     8
280
     0
  0
ATTDEF
  5
ED
330
DE
100
AcDbEntity
  8
AM_6
100
AcDbText
 10
-3.124999999999053
 20
47.99999999999764
 30
0.0
 40
0.5
  1
https://daikincomfort.com
100
AcDbAttributeDefinition
  3

  2
URL
 70
     8
280
     0
  0
ATTDEF
  5
EE
330
DE
100
AcDbEntity
  8
AM_6
100
AcDbText
 10
-3.124999999999053
 20
47.49999999999764
 30
0.0
 40
0.5
  1
Download Revit Family (RFA)
100
AcDbAttributeDefinition
  3

  2
RFA_FAMILY
 70
     8
280
     0
  0
ATTDEF
  5
EF
330
DE
100
AcDbEntity
  8
AM_6
100
AcDbText
 10
-3.124999999999053
 20
46.99999999999764
 30
0.0
 40
0.5
  1
daikin
100
AcDbAttributeDefinition
  3

  2
COMPANY
 70
     8
280
     0
  0
ATTDEF
  5
F0
330
DE
100
AcDbEntity
  8
AM_6
100
AcDbText
 10
-3.124999999999053
 20
46.49999999999764
 30
0.0
 40
0.5
  1
{$CADENAS_DATA/23d-libs/daikin/unitary/air20handlers/2023/air_handling_unit-multi_position-daikin-dfve.prj},233 {VTYP=3D},{NB=DFVE48DP1400_PART6},{LINA=DFVE48DP1400_PART6},{NN=Air_Handling_Unit-Multi_Position-Daikin-DFVE_PART6},{NOPRJ=TRUE},{DATE=03
100
AcDbAttributeDefinition
  3

  2
PSOL_0
 70
     9
280
     0
  0
ATTDEF
  5
F1
330
DE
100
AcDbEntity
  8
AM_6
100
AcDbText
 10
-3.124999999999053
 20
45.99999999999764
 30
0.0
 40
0.5
  1
26 19:23:45},{GEOMDATE=22.09.2025 12:59:40},{VERSION=},{LINEID=50},{WBVAR=},{WBNUMERIC=}  {NB=DFVE48DP1400_PART6},{LINA=DFVE48DP1400_PART6},{KT=DUMMY},{PARTNUMBERMAP09=4_ton_DFVE48DP1400},{PARTNUMBER=DFVE48DP1400},{DESCRIPTION=Multi-Position, Variab
100
AcDbAttributeDefinition
  3

  2
PSOL_1
 70
     9
280
     0
  0
ATTDEF
  5
F2
330
DE
100
AcDbEntity
  8
AM_6
100
AcDbText
 10
-3.124999999999053
 20
45.49999999999764
 30
0.0
 40
0.5
  1
ed air handler},{OVERALL_DEPTH=21.000},{OVERALL_HEIGHT=53.500},{OVERALL_WIDTH=24.500},{URL=https://daikincomfort.com},{RFA_FAMILY=Download Revit Family (RFA)},{ORDERNO=4_ton_DFVE48DP1400},{AMBIENT_TEMPERATURE=0},{APPARENT_POWER=1495},{ASSEMBLY_CODE=
100
AcDbAttributeDefinition
  3

  2
PSOL_2
 70
     9
280
     0
  0
ATTDEF
  5
F3
330
DE
100
AcDbEntity
  8
AM_6
100
AcDbText
 10
-3.124999999999053
 20
44.99999999999764
 30
0.0
 40
0.5
  1
00},{CATEGORY=Mechanical Equipment},{COIL_AIR_PRESSURE_DROP=0},{CONDENSATE_DRAIN_CONNECTION_DIAMETER=0.75},{CONDENSATE_DRAIN_CONNECTION_RADIUS=0.375},{CONDUIT_ANGLE=90},{CONDUIT_HORIZONTAL_OFFSET=-0.875},{CONDUIT_OFFSET=2.2265625},{CONDUIT_PLACEMENT
100
AcDbAttributeDefinition
  3

  2
PSOL_3
 70
     9
280
     0
  0
ATTDEF
  5
F4
330
DE
100
AcDbEntity
  8
AM_6
100
AcDbText
 10
-3.124999999999053
 20
44.49999999999764
 30
0.0
 40
0.5
  1
T=0.177083333333333},{CONDUIT_RADIUS=0.25},{CONDUIT_SIZE=0.5},{COOLING_ENTERING_DRY_BULB_TEMPERATURE=0},{COOLING_ENTERING_WET_BULB_TEMPERATURE=0},{COOLING_LEAVING_DRY_BULB_TEMPERATURE=0},{COOLING_LEAVING_WET_BULB_TEMPERATURE=0},{COST=0},{DEFAULT_ELE
100
AcDbAttributeDefinition
  3

  2
PSOL_4
 70
     9
280
     0
  0
ATTDEF
  5
F5
330
DE
100
AcDbEntity
  8
AM_6
100
AcDbText
 10
-3.124999999999053
 20
43.99999999999764
 30
0.0
 40
0.5
  1
=0},{DESIGN_RETURN_AIR_FLOW=0},{DESIGN_SUPPLY_AIR_FLOW=0},{DRAIN_CONNECTION_HORIZONTAL_OFFSET_1=0.3125},{DRAIN_CONNECTION_HORIZONTAL_OFFSET_2=0.447916666666667},{DRAIN_CONNECTION_VERTICAL_OFFSET_1=0.244791666666667},{DRAIN_CONNECTION_VERTICAL_OFFSET
100
AcDbAttributeDefinition
  3

  2
PSOL_5
 70
     9
280
     0
  0
ATTDEF
  5
F6
330
DE
100
AcDbEntity
  8
AM_6
100
AcDbText
 10
-3.124999999999053
 20
43.49999999999764
 30
0.0
 40
0.5
  1
35416666666667},{DRAIN_FLOW=0},{DUCT_ANGLE=0},{DUCT_CONNECTION_HORIZONTAL_OFFSET=2.04166666666667},{DUCT_CONNECTION_VERTICAL_OFFSET=4.23046875},{DUCT_OFFSET=2.2265625},{ENCLOSURE_HEIGHT=4.453125},{ENCLOSURE_WIDTH=2.04166666666667},{ENGWORKS_GLOBAL=h
100
AcDbAttributeDefinition
  3

  2
PSOL_6
 70
     9
280
     0
  0
ATTDEF
  5
F7
330
DE
100
AcDbEntity
  8
AM_6
100
AcDbText
 10
-3.124999999999053
 20
42.99999999999764
 30
0.0
 40
0.5
  1
www.ENGworksGlobal.com/},{FACE_VELOCITY__FPM_=0},{FAN_DRIVE=Direct Drive},{FAN_FULL_LOAD_AMPS=5.2},{FAN_HORSEPOWER=0.75},{FEET_PRESSURE_DROP=0},{FREQUENCY=60},{GAS_CONNECTION_HORIZONTAL_OFFSET=0.145},{GAS_CONNECTION_VERTICAL_OFFSET=1.79166666666667}
100
AcDbAttributeDefinition
  3

  2
PSOL_7
 70
     9
280
     0
  0
ATTDEF
  5
F8
330
DE
100
AcDbEntity
  8
AM_6
100
AcDbText
 10
-3.124999999999053
 20
42.49999999999764
 30
0.0
 40
0.5
  1
ING_ENTERING_DRY_BULB_TEMPERATURE=0},{HEATING_ENTERING_WET_BULB_TEMPERATURE=0},{HEATING_LEAVING_DRY_BULB_TEMPERATURE=0},{HEATING_LEAVING_WET_BULB_TEMPERATURE=0},{HORIZONTAL_DRAIN_HORIZONTAL_OFFSET_1=0.109375},{HORIZONTAL_DRAIN_HORIZONTAL_OFFSET_2=0.
100
AcDbAttributeDefinition
  3

  2
PSOL_8
 70
     9
280
     0
  0
ATTDEF
  5
F9
330
DE
100
AcDbEntity
  8
AM_6
100
AcDbText
 10
-3.124999999999053
 20
41.99999999999764
 30
0.0
 40
0.5
  1
HORIZONTAL_DRAIN_VERTICAL_OFFSET_1=0.848958333333333},{HORIZONTAL_DRAIN_VERTICAL_OFFSET_2=0.135416666666667},{LATENT_COOLING_CAPACITY=0},{LIQUID_CONNECTION_HORIZONTAL_OFFSET=0.2225},{LIQUID_CONNECTION_VERTICAL_OFFSET=1.52604166666667},{LOAD_SUB_CLAS
100
AcDbAttributeDefinition
  3

  2
PSOL_9
 70
     9
280
     0
  0
ATTDEF
  5
FA
330
DE
100
AcDbEntity
  8
AM_6
100
AcDbText
 10
-3.124999999999053
 20
41.49999999999764
 30
0.0
 40
0.5
  1
TION_MOTOR=1},{MANUFACTURER=Daikin},{MASSUNIT=1},{MAXIMUM_OVERCURRENT_PROTECTION=15},{MINIMUM_CIRCUIT_AMPS=6.5},{MODEL=DFVE48DP1400},{NOMINAL_COOLING_CAPACITY=48000},{NOMINAL_COOLING_CAPACITY__TONS_=4},{NOMINAL_HEATING_CAPACITY=0},{NUMBER_OF_POLES=1
100
AcDbAttributeDefinition
  3

  2
PSOL_10
 70
     9
280
     0
  0
ATTDEF
  5
FB
330
DE
100
AcDbEntity
  8
AM_6
100
AcDbText
 10
-3.124999999999053
 20
40.99999999999764
 30
0.0
 40
0.5
  1
ICLASS_NUMBER=23.75.35.14},{OMNICLASS_TITLE=Air Handling Units},{PARTTYPE=Normal},{PHASE=1},{PRODUCT_PAGE_URL=https://daikincomfort.com/products/heating-cooling/whole-house/air-handlers-coils/dfve},{REFRIGERANT_CHARGE=0},{REFRIGERANT_CHARGE_VALUE=0}
100
AcDbAttributeDefinition
  3

  2
PSOL_11
 70
     9
280
     0
  0
ATTDEF
  5
FC
330
DE
100
AcDbEntity
  8
AM_6
100
AcDbText
 10
-3.124999999999053
 20
40.49999999999764
 30
0.0
 40
0.5
  1
IGERANT_LIQUID_CONNECTION_DIAMETER=0.375},{REFRIGERANT_LIQUID_CONNECTION_HORIZONTAL_OFFSET=0.2225},{REFRIGERANT_LIQUID_CONNECTION_RADIUS=0.1875},{REFRIGERANT_LIQUID_CONNECTION_VERTICAL_OFFSET=1.52604166666667},{REFRIGERANT_SUCTION_GAS_CONNECTION_DIA
100
AcDbAttributeDefinition
  3

  2
PSOL_12
 70
     9
280
     0
  0
ATTDEF
  5
FD
330
DE
100
AcDbEntity
  8
AM_6
100
AcDbText
 10
-3.124999999999053
 20
39.99999999999764
 30
0.0
 40
0.5
  1
0.875},{REFRIGERANT_SUCTION_GAS_CONNECTION_HORIZONTAL_OFFSET=0.145},{REFRIGERANT_SUCTION_GAS_CONNECTION_RADIUS=0.4375},{REFRIGERANT_SUCTION_GAS_CONNECTION_VERTICAL_OFFSET=1.79166666666667},{REFRIGERANT_USED=R-410A},{RETURN_AIR_CONNECTION_HEIGHT=19.5
100
AcDbAttributeDefinition
  3

  2
PSOL_13
 70
     9
280
     0
  0
ATTDEF
  5
FE
330
DE
100
AcDbEntity
  8
AM_6
100
AcDbText
 10
-3.124999999999053
 20
39.49999999999764
 30
0.0
 40
0.5
  1
URN_AIR_CONNECTION_VERTICAL_OFFSET=0.8575},{RETURN_AIR_CONNECTION_WIDTH=21.1875},{RETURN_AIR_OUTLET_VERTICAL_OFFSET=0.045},{RETURN_AIR_PRESSURE_DROP=0},{SENSIBLE_COOLING_CAPACITY=0},{SERIES=DFVE},{SIDE_CONDUIT_CONNECTION=0},{SIDE_CONDUIT_HORIZONTAL_
100
AcDbAttributeDefinition
  3

  2
PSOL_14
 70
     9
280
     0
  0
ATTDEF
  5
FF
330
DE
100
AcDbEntity
  8
AM_6
100
AcDbText
 10
-3.124999999999053
 20
38.99999999999764
 30
0.0
 40
0.5
  1
=0.114583333333333},{SIDE_CONDUIT_HORIZONTAL_OFFSET_1=0.114583333333333},{SIDE_CONDUIT_HORIZONTAL_OFFSET_2=0.260416666666667},{SIDE_CONDUIT_HORIZONTAL_OFFSET_3=0.427083333333333},{SIDE_CONDUIT_HORIZONTAL_OFFSET_4=0.625},{SIDE_CONDUIT_VERTICAL_OFFSET
100
AcDbAttributeDefinition
  3

  2
PSOL_15
 70
     9
280
     0
  0
ATTDEF
  5
100
330
DE
100
AcDbEntity
  8
AM_6
100
AcDbText
 10
-3.124999999999053
 20
38.49999999999764
 30
0.0
 40
0.5
  1
833333333333},{STANDARDS=AHRI Certified; ETL Listed},{SUPPLY_AIR_CONNECTION_HEIGHT=11.3},{SUPPLY_AIR_CONNECTION_VERTICAL_OFFSET=0.514166666666667},{SUPPLY_AIR_CONNECTION_WIDTH=23.3125},{SUPPLY_AIR_FLOW=1380},{SUPPLY_AIR_OUTLET_VERTICAL_OFFSET=0.0433
100
AcDbAttributeDefinition
  3

  2
PSOL_16
 70
     9
280
     0
  0
ATTDEF
  5
101
330
DE
100
AcDbEntity
  8
AM_6
100
AcDbText
 10
-3.124999999999053
 20
37.99999999999764
 30
0.0
 40
0.5
  1
333333},{SUPPLY_AIR_PRESSURE_DROP=0},{TOP_CONDUIT_CONNECTION=1},{TOP_CONDUIT_HORIZONTAL_OFFSET=0.145833333333333},{TOP_CONDUIT_VERTICAL_OFFSET=0.177083333333333},{TOP_CONDUIT_VERTICAL_OFFSET_1=0.177083333333333},{TOP_CONDUIT_VERTICAL_OFFSET_2=0.3593
100
AcDbAttributeDefinition
  3

  2
PSOL_17
 70
     9
280
     0
  0
ATTDEF
  5
102
330
DE
100
AcDbEntity
  8
AM_6
100
AcDbText
 10
-3.124999999999053
 20
37.49999999999764
 30
0.0
 40
0.5
  1
OP_CONDUIT_VERTICAL_OFFSET_3=0.510416666666667},{TOTAL_COOLING_CAPACITY=0},{TOTAL_HEATING_CAPACITY=0},{TOTAL_STATIC_PRESSURE=0},{UNIT_WEIGHT=150},{UNIT_WEIGHT_VALUE=150},{VERSION=1},{VERTICAL_DRAIN_HORIZONTAL_OFFSET_1=0.3125},{VERTICAL_DRAIN_HORIZON
100
AcDbAttributeDefinition
  3

  2
PSOL_18
 70
     9
280
     0
  0
ATTDEF
  5
103
330
DE
100
AcDbEntity
  8
AM_6
100
AcDbText
 10
-3.124999999999053
 20
36.99999999999764
 30
0.0
 40
0.5
  1
FSET_2=0.135416666666667},{VERTICAL_DRAIN_VERTICAL_OFFSET_1=0.244791666666667},{VERTICAL_DRAIN_VERTICAL_OFFSET_2=0.135416666666667},{VOLTAGE=230},{VOLTAGE_COMMENTS=208 VAC - 230 VAC},{VAR___CONDUIT_PLACEMENT_SELECTOR=1},{VAR___UNIT_POSITION_CONFIGUR
100
AcDbAttributeDefinition
  3

  2
PSOL_19
 70
     9
280
     0
  0
ATTDEF
  5
104
330
DE
100
AcDbEntity
  8
AM_6
100
AcDbText
 10
-3.124999999999053
 20
36.49999999999764
 30
0.0
 40
0.5
  1
SELECTOR=1},{VAR___CONDUIT_PLACEMENT_OPTION_1=1},{VAR___UPFLOW_OPTION=1},{VAR___CONDUIT_PLACEMENT_OPTION_2=0},{VAR___DOWNFLOW_OPTION=0},{VAR___CONDUIT_PLACEMENT_OPTION_3=0},{VAR___HORIZONTAL_LEFT_OPTION=0},{VAR___CONDUIT_PLACEMENT_OPTION_4___SIDE_ON
100
AcDbAttributeDefinition
  3

  2
PSOL_20
 70
     9
280
     0
  0
ATTDEF
  5
105
330
DE
100
AcDbEntity
  8
AM_6
100
AcDbText
 10
-3.124999999999053
 20
35.99999999999764
 30
0.0
 40
0.5
  1
{VAR___HORIZONTAL_RIGHT_OPTION=0},{DEFAULTSORTATTR=1850},{RFA_FAMILY_=../../../_pool_/69/dd/air_handling_unit-multi_position-daikin-dfve.zip},{RFA_FAMILY_ENG=../../../_pool_/69/dd/air_handling_unit-multi_position-daikin-dfve.zip},{REVIT_FAMILY_DOWNL
100
AcDbAttributeDefinition
  3

  2
PSOL_21
 70
     9
280
     0
  0
ATTDEF
  5
106
330
DE
100
AcDbEntity
  8
AM_6
100
AcDbText
 10
-3.124999999999053
 20
35.49999999999764
 30
0.0
 40
0.5
  1
/../../_pool_/69/dd/air_handling_unit-multi_position-daikin-dfve.zip},{PN=4_ton_DFVE48DP1400}
100
AcDbAttributeDefinition
  3

  2
PSOL_22
 70
     9
280
     0
  0
LINE
  5
108
330
DE
100
AcDbEntity
  8
AM_0
100
AcDbLine
 10
-8.124999999999053
 20
53.43749999999764
 30
0.0
 11
-8.124999999999053
 21
53.49999999999764
 31
0.0
  0
LINE
  5
109
330
DE
100
AcDbEntity
  8
AM_0
100
AcDbLine
 10
-8.624999999999053
 20
53.49999999999764
 30
0.0
 11
-8.624999999999053
 21
53.43749999999764
 31
0.0
  0
LINE
  5
10A
330
DE
100
AcDbEntity
  8
AM_0
100
AcDbLine
 10
-8.624999999999053
 20
53.49999999999764
 30
0.0
 11
-8.124999999999053
 21
53.49999999999764
 31
0.0
  0
ENDBLK
  5
E1
330
DE
100
AcDbEntity
  8
0
100
AcDbBlockEnd
  0
BLOCK
  5
10D
330
10B
100
AcDbEntity
  8
0
100
AcDbBlockBegin
  2
4_DFVE48DP1400_PART5_0_in_DFVE48DP1400_2
 70
     2
 10
0.0
 20
0.0
 30
0.0
  3
4_DFVE48DP1400_PART5_0_in_DFVE48DP1400_2
  1

  0
ATTDEF
  5
10F
330
10B
100
AcDbEntity
  8
AM_6
100
AcDbText
 10
-5.500000000000393
 20
21.93749999999744
 30
0.0
 40
0.5
  1
DFVE48DP1400_PART5
100
AcDbAttributeDefinition
  3

  2
NB
 70
     8
280
     0
  0
ATTDEF
  5
110
330
10B
100
AcDbEntity
  8
AM_6
100
AcDbText
 10
-5.500000000000393
 20
21.43749999999744
 30
0.0
 40
0.5
  1

100
AcDbAttributeDefinition
  3

  2
NN
 70
     8
280
     0
  0
ATTDEF
  5
111
330
10B
100
AcDbEntity
  8
AM_6
100
AcDbText
 10
-5.500000000000393
 20
20.93749999999744
 30
0.0
 40
0.5
  1

100
AcDbAttributeDefinition
  3

  2
NT
 70
     8
280
     0
  0
ATTDEF
  5
112
330
10B
100
AcDbEntity
  8
AM_6
100
AcDbText
 10
-5.500000000000393
 20
20.43749999999744
 30
0.0
 40
0.5
  1
$PARTNUMBER._PART5
100
AcDbAttributeDefinition
  3

  2
NBSYN
 70
     8
280
     0
  0
ATTDEF
  5
113
330
10B
100
AcDbEntity
  8
AM_6
100
AcDbText
 10
-5.500000000000393
 20
19.93749999999744
 30
0.0
 40
0.5
  1
DFVE48DP1400_PART5
100
AcDbAttributeDefinition
  3

  2
LINA
 70
     8
280
     0
  0
ATTDEF
  5
114
330
10B
100
AcDbEntity
  8
AM_6
100
AcDbText
 10
-5.500000000000393
 20
19.43749999999744
 30
0.0
 40
0.5
  1
Daikin
100
AcDbAttributeDefinition
  3

  2
CATALOG
 70
     8
280
     0
  0
ATTDEF
  5
115
330
10B
100
AcDbEntity
  8
AM_6
100
AcDbText
 10
-5.500000000000393
 20
18.93749999999744
 30
0.0
 40
0.5
  1
DFVE48DP1400
100
AcDbAttributeDefinition
  3

  2
PARTNUMBER
 70
     8
280
     0
  0
ATTDEF
  5
116
330
10B
100
AcDbEntity
  8
AM_6
100
AcDbText
 10
-5.500000000000393
 20
18.43749999999744
 30
0.0
 40
0.5
  1
Multi-Position, Variable-Speed air handler
100
AcDbAttributeDefinition
  3

  2
DESCRIPTION
 70
     8
280
     0
  0
ATTDEF
  5
117
330
10B
100
AcDbEntity
  8
AM_6
100
AcDbText
 10
-5.500000000000393
 20
17.93749999999744
 30
0.0
 40
0.5
  1
21.000
100
AcDbAttributeDefinition
  3

  2
OVERALL_DEPTH
 70
     8
280
     0
  0
ATTDEF
  5
118
330
10B
100
AcDbEntity
  8
AM_6
100
AcDbText
 10
-5.500000000000393
 20
17.43749999999744
 30
0.0
 40
0.5
  1
53.500
100
AcDbAttributeDefinition
  3

  2
OVERALL_HEIGHT
 70
     8
280
     0
  0
ATTDEF
  5
119
330
10B
100
AcDbEntity
  8
AM_6
100
AcDbText
 10
-5.500000000000393
 20
16.93749999999744
 30
0.0
 40
0.5
  1
24.500
100
AcDbAttributeDefinition
  3

  2
OVERALL_WIDTH
 70
     8
280
     0
  0
ATTDEF
  5
11A
330
10B
100
AcDbEntity
  8
AM_6
100
AcDbText
 10
-5.500000000000393
 20
16.43749999999744
 30
0.0
 40
0.5
  1
https://daikincomfort.com
100
AcDbAttributeDefinition
  3

  2
URL
 70
     8
280
     0
  0
ATTDEF
  5
11B
330
10B
100
AcDbEntity
  8
AM_6
100
AcDbText
 10
-5.500000000000393
 20
15.93749999999744
 30
0.0
 40
0.5
  1
Download Revit Family (RFA)
100
AcDbAttributeDefinition
  3

  2
RFA_FAMILY
 70
     8
280
     0
  0
ATTDEF
  5
11C
330
10B
100
AcDbEntity
  8
AM_6
100
AcDbText
 10
-5.500000000000393
 20
15.43749999999744
 30
0.0
 40
0.5
  1
daikin
100
AcDbAttributeDefinition
  3

  2
COMPANY
 70
     8
280
     0
  0
ATTDEF
  5
11D
330
10B
100
AcDbEntity
  8
AM_6
100
AcDbText
 10
-5.500000000000393
 20
14.93749999999744
 30
0.0
 40
0.5
  1
{$CADENAS_DATA/23d-libs/daikin/unitary/air20handlers/2023/air_handling_unit-multi_position-daikin-dfve.prj},233 {VTYP=3D},{NB=DFVE48DP1400_PART5},{LINA=DFVE48DP1400_PART5},{NN=Air_Handling_Unit-Multi_Position-Daikin-DFVE_PART5},{NOPRJ=TRUE},{DATE=03
100
AcDbAttributeDefinition
  3

  2
PSOL_0
 70
     9
280
     0
  0
ATTDEF
  5
11E
330
10B
100
AcDbEntity
  8
AM_6
100
AcDbText
 10
-5.500000000000393
 20
14.43749999999744
 30
0.0
 40
0.5
  1
26 19:23:45},{GEOMDATE=22.09.2025 12:59:40},{VERSION=},{LINEID=50},{WBVAR=},{WBNUMERIC=}  {NB=DFVE48DP1400_PART5},{LINA=DFVE48DP1400_PART5},{KT=DUMMY},{PARTNUMBERMAP09=4_ton_DFVE48DP1400},{PARTNUMBER=DFVE48DP1400},{DESCRIPTION=Multi-Position, Variab
100
AcDbAttributeDefinition
  3

  2
PSOL_1
 70
     9
280
     0
  0
ATTDEF
  5
11F
330
10B
100
AcDbEntity
  8
AM_6
100
AcDbText
 10
-5.500000000000393
 20
13.93749999999744
 30
0.0
 40
0.5
  1
ed air handler},{OVERALL_DEPTH=21.000},{OVERALL_HEIGHT=53.500},{OVERALL_WIDTH=24.500},{URL=https://daikincomfort.com},{RFA_FAMILY=Download Revit Family (RFA)},{ORDERNO=4_ton_DFVE48DP1400},{AMBIENT_TEMPERATURE=0},{APPARENT_POWER=1495},{ASSEMBLY_CODE=
100
AcDbAttributeDefinition
  3

  2
PSOL_2
 70
     9
280
     0
  0
ATTDEF
  5
120
330
10B
100
AcDbEntity
  8
AM_6
100
AcDbText
 10
-5.500000000000393
 20
13.43749999999744
 30
0.0
 40
0.5
  1
00},{CATEGORY=Mechanical Equipment},{COIL_AIR_PRESSURE_DROP=0},{CONDENSATE_DRAIN_CONNECTION_DIAMETER=0.75},{CONDENSATE_DRAIN_CONNECTION_RADIUS=0.375},{CONDUIT_ANGLE=90},{CONDUIT_HORIZONTAL_OFFSET=-0.875},{CONDUIT_OFFSET=2.2265625},{CONDUIT_PLACEMENT
100
AcDbAttributeDefinition
  3

  2
PSOL_3
 70
     9
280
     0
  0
ATTDEF
  5
121
330
10B
100
AcDbEntity
  8
AM_6
100
AcDbText
 10
-5.500000000000393
 20
12.93749999999744
 30
0.0
 40
0.5
  1
T=0.177083333333333},{CONDUIT_RADIUS=0.25},{CONDUIT_SIZE=0.5},{COOLING_ENTERING_DRY_BULB_TEMPERATURE=0},{COOLING_ENTERING_WET_BULB_TEMPERATURE=0},{COOLING_LEAVING_DRY_BULB_TEMPERATURE=0},{COOLING_LEAVING_WET_BULB_TEMPERATURE=0},{COST=0},{DEFAULT_ELE
100
AcDbAttributeDefinition
  3

  2
PSOL_4
 70
     9
280
     0
  0
ATTDEF
  5
122
330
10B
100
AcDbEntity
  8
AM_6
100
AcDbText
 10
-5.500000000000393
 20
12.43749999999744
 30
0.0
 40
0.5
  1
=0},{DESIGN_RETURN_AIR_FLOW=0},{DESIGN_SUPPLY_AIR_FLOW=0},{DRAIN_CONNECTION_HORIZONTAL_OFFSET_1=0.3125},{DRAIN_CONNECTION_HORIZONTAL_OFFSET_2=0.447916666666667},{DRAIN_CONNECTION_VERTICAL_OFFSET_1=0.244791666666667},{DRAIN_CONNECTION_VERTICAL_OFFSET
100
AcDbAttributeDefinition
  3

  2
PSOL_5
 70
     9
280
     0
  0
ATTDEF
  5
123
330
10B
100
AcDbEntity
  8
AM_6
100
AcDbText
 10
-5.500000000000393
 20
11.93749999999744
 30
0.0
 40
0.5
  1
35416666666667},{DRAIN_FLOW=0},{DUCT_ANGLE=0},{DUCT_CONNECTION_HORIZONTAL_OFFSET=2.04166666666667},{DUCT_CONNECTION_VERTICAL_OFFSET=4.23046875},{DUCT_OFFSET=2.2265625},{ENCLOSURE_HEIGHT=4.453125},{ENCLOSURE_WIDTH=2.04166666666667},{ENGWORKS_GLOBAL=h
100
AcDbAttributeDefinition
  3

  2
PSOL_6
 70
     9
280
     0
  0
ATTDEF
  5
124
330
10B
100
AcDbEntity
  8
AM_6
100
AcDbText
 10
-5.500000000000393
 20
11.43749999999744
 30
0.0
 40
0.5
  1
www.ENGworksGlobal.com/},{FACE_VELOCITY__FPM_=0},{FAN_DRIVE=Direct Drive},{FAN_FULL_LOAD_AMPS=5.2},{FAN_HORSEPOWER=0.75},{FEET_PRESSURE_DROP=0},{FREQUENCY=60},{GAS_CONNECTION_HORIZONTAL_OFFSET=0.145},{GAS_CONNECTION_VERTICAL_OFFSET=1.79166666666667}
100
AcDbAttributeDefinition
  3

  2
PSOL_7
 70
     9
280
     0
  0
ATTDEF
  5
125
330
10B
100
AcDbEntity
  8
AM_6
100
AcDbText
 10
-5.500000000000393
 20
10.93749999999744
 30
0.0
 40
0.5
  1
ING_ENTERING_DRY_BULB_TEMPERATURE=0},{HEATING_ENTERING_WET_BULB_TEMPERATURE=0},{HEATING_LEAVING_DRY_BULB_TEMPERATURE=0},{HEATING_LEAVING_WET_BULB_TEMPERATURE=0},{HORIZONTAL_DRAIN_HORIZONTAL_OFFSET_1=0.109375},{HORIZONTAL_DRAIN_HORIZONTAL_OFFSET_2=0.
100
AcDbAttributeDefinition
  3

  2
PSOL_8
 70
     9
280
     0
  0
ATTDEF
  5
126
330
10B
100
AcDbEntity
  8
AM_6
100
AcDbText
 10
-5.500000000000393
 20
10.43749999999744
 30
0.0
 40
0.5
  1
HORIZONTAL_DRAIN_VERTICAL_OFFSET_1=0.848958333333333},{HORIZONTAL_DRAIN_VERTICAL_OFFSET_2=0.135416666666667},{LATENT_COOLING_CAPACITY=0},{LIQUID_CONNECTION_HORIZONTAL_OFFSET=0.2225},{LIQUID_CONNECTION_VERTICAL_OFFSET=1.52604166666667},{LOAD_SUB_CLAS
100
AcDbAttributeDefinition
  3

  2
PSOL_9
 70
     9
280
     0
  0
ATTDEF
  5
127
330
10B
100
AcDbEntity
  8
AM_6
100
AcDbText
 10
-5.500000000000393
 20
9.937499999997438
 30
0.0
 40
0.5
  1
TION_MOTOR=1},{MANUFACTURER=Daikin},{MASSUNIT=1},{MAXIMUM_OVERCURRENT_PROTECTION=15},{MINIMUM_CIRCUIT_AMPS=6.5},{MODEL=DFVE48DP1400},{NOMINAL_COOLING_CAPACITY=48000},{NOMINAL_COOLING_CAPACITY__TONS_=4},{NOMINAL_HEATING_CAPACITY=0},{NUMBER_OF_POLES=1
100
AcDbAttributeDefinition
  3

  2
PSOL_10
 70
     9
280
     0
  0
ATTDEF
  5
128
330
10B
100
AcDbEntity
  8
AM_6
100
AcDbText
 10
-5.500000000000393
 20
9.437499999997438
 30
0.0
 40
0.5
  1
ICLASS_NUMBER=23.75.35.14},{OMNICLASS_TITLE=Air Handling Units},{PARTTYPE=Normal},{PHASE=1},{PRODUCT_PAGE_URL=https://daikincomfort.com/products/heating-cooling/whole-house/air-handlers-coils/dfve},{REFRIGERANT_CHARGE=0},{REFRIGERANT_CHARGE_VALUE=0}
100
AcDbAttributeDefinition
  3

  2
PSOL_11
 70
     9
280
     0
  0
ATTDEF
  5
129
330
10B
100
AcDbEntity
  8
AM_6
100
AcDbText
 10
-5.500000000000393
 20
8.937499999997438
 30
0.0
 40
0.5
  1
IGERANT_LIQUID_CONNECTION_DIAMETER=0.375},{REFRIGERANT_LIQUID_CONNECTION_HORIZONTAL_OFFSET=0.2225},{REFRIGERANT_LIQUID_CONNECTION_RADIUS=0.1875},{REFRIGERANT_LIQUID_CONNECTION_VERTICAL_OFFSET=1.52604166666667},{REFRIGERANT_SUCTION_GAS_CONNECTION_DIA
100
AcDbAttributeDefinition
  3

  2
PSOL_12
 70
     9
280
     0
  0
ATTDEF
  5
12A
330
10B
100
AcDbEntity
  8
AM_6
100
AcDbText
 10
-5.500000000000393
 20
8.437499999997438
 30
0.0
 40
0.5
  1
0.875},{REFRIGERANT_SUCTION_GAS_CONNECTION_HORIZONTAL_OFFSET=0.145},{REFRIGERANT_SUCTION_GAS_CONNECTION_RADIUS=0.4375},{REFRIGERANT_SUCTION_GAS_CONNECTION_VERTICAL_OFFSET=1.79166666666667},{REFRIGERANT_USED=R-410A},{RETURN_AIR_CONNECTION_HEIGHT=19.5
100
AcDbAttributeDefinition
  3

  2
PSOL_13
 70
     9
280
     0
  0
ATTDEF
  5
12B
330
10B
100
AcDbEntity
  8
AM_6
100
AcDbText
 10
-5.500000000000393
 20
7.937499999997438
 30
0.0
 40
0.5
  1
URN_AIR_CONNECTION_VERTICAL_OFFSET=0.8575},{RETURN_AIR_CONNECTION_WIDTH=21.1875},{RETURN_AIR_OUTLET_VERTICAL_OFFSET=0.045},{RETURN_AIR_PRESSURE_DROP=0},{SENSIBLE_COOLING_CAPACITY=0},{SERIES=DFVE},{SIDE_CONDUIT_CONNECTION=0},{SIDE_CONDUIT_HORIZONTAL_
100
AcDbAttributeDefinition
  3

  2
PSOL_14
 70
     9
280
     0
  0
ATTDEF
  5
12C
330
10B
100
AcDbEntity
  8
AM_6
100
AcDbText
 10
-5.500000000000393
 20
7.437499999997438
 30
0.0
 40
0.5
  1
=0.114583333333333},{SIDE_CONDUIT_HORIZONTAL_OFFSET_1=0.114583333333333},{SIDE_CONDUIT_HORIZONTAL_OFFSET_2=0.260416666666667},{SIDE_CONDUIT_HORIZONTAL_OFFSET_3=0.427083333333333},{SIDE_CONDUIT_HORIZONTAL_OFFSET_4=0.625},{SIDE_CONDUIT_VERTICAL_OFFSET
100
AcDbAttributeDefinition
  3

  2
PSOL_15
 70
     9
280
     0
  0
ATTDEF
  5
12D
330
10B
100
AcDbEntity
  8
AM_6
100
AcDbText
 10
-5.500000000000393
 20
6.937499999997438
 30
0.0
 40
0.5
  1
833333333333},{STANDARDS=AHRI Certified; ETL Listed},{SUPPLY_AIR_CONNECTION_HEIGHT=11.3},{SUPPLY_AIR_CONNECTION_VERTICAL_OFFSET=0.514166666666667},{SUPPLY_AIR_CONNECTION_WIDTH=23.3125},{SUPPLY_AIR_FLOW=1380},{SUPPLY_AIR_OUTLET_VERTICAL_OFFSET=0.0433
100
AcDbAttributeDefinition
  3

  2
PSOL_16
 70
     9
280
     0
  0
ATTDEF
  5
12E
330
10B
100
AcDbEntity
  8
AM_6
100
AcDbText
 10
-5.500000000000393
 20
6.437499999997438
 30
0.0
 40
0.5
  1
333333},{SUPPLY_AIR_PRESSURE_DROP=0},{TOP_CONDUIT_CONNECTION=1},{TOP_CONDUIT_HORIZONTAL_OFFSET=0.145833333333333},{TOP_CONDUIT_VERTICAL_OFFSET=0.177083333333333},{TOP_CONDUIT_VERTICAL_OFFSET_1=0.177083333333333},{TOP_CONDUIT_VERTICAL_OFFSET_2=0.3593
100
AcDbAttributeDefinition
  3

  2
PSOL_17
 70
     9
280
     0
  0
ATTDEF
  5
12F
330
10B
100
AcDbEntity
  8
AM_6
100
AcDbText
 10
-5.500000000000393
 20
5.937499999997438
 30
0.0
 40
0.5
  1
OP_CONDUIT_VERTICAL_OFFSET_3=0.510416666666667},{TOTAL_COOLING_CAPACITY=0},{TOTAL_HEATING_CAPACITY=0},{TOTAL_STATIC_PRESSURE=0},{UNIT_WEIGHT=150},{UNIT_WEIGHT_VALUE=150},{VERSION=1},{VERTICAL_DRAIN_HORIZONTAL_OFFSET_1=0.3125},{VERTICAL_DRAIN_HORIZON
100
AcDbAttributeDefinition
  3

  2
PSOL_18
 70
     9
280
     0
  0
ATTDEF
  5
130
330
10B
100
AcDbEntity
  8
AM_6
100
AcDbText
 10
-5.500000000000393
 20
5.437499999997438
 30
0.0
 40
0.5
  1
FSET_2=0.135416666666667},{VERTICAL_DRAIN_VERTICAL_OFFSET_1=0.244791666666667},{VERTICAL_DRAIN_VERTICAL_OFFSET_2=0.135416666666667},{VOLTAGE=230},{VOLTAGE_COMMENTS=208 VAC - 230 VAC},{VAR___CONDUIT_PLACEMENT_SELECTOR=1},{VAR___UNIT_POSITION_CONFIGUR
100
AcDbAttributeDefinition
  3

  2
PSOL_19
 70
     9
280
     0
  0
ATTDEF
  5
131
330
10B
100
AcDbEntity
  8
AM_6
100
AcDbText
 10
-5.500000000000393
 20
4.937499999997438
 30
0.0
 40
0.5
  1
SELECTOR=1},{VAR___CONDUIT_PLACEMENT_OPTION_1=1},{VAR___UPFLOW_OPTION=1},{VAR___CONDUIT_PLACEMENT_OPTION_2=0},{VAR___DOWNFLOW_OPTION=0},{VAR___CONDUIT_PLACEMENT_OPTION_3=0},{VAR___HORIZONTAL_LEFT_OPTION=0},{VAR___CONDUIT_PLACEMENT_OPTION_4___SIDE_ON
100
AcDbAttributeDefinition
  3

  2
PSOL_20
 70
     9
280
     0
  0
ATTDEF
  5
132
330
10B
100
AcDbEntity
  8
AM_6
100
AcDbText
 10
-5.500000000000393
 20
4.437499999997438
 30
0.0
 40
0.5
  1
{VAR___HORIZONTAL_RIGHT_OPTION=0},{DEFAULTSORTATTR=1850},{RFA_FAMILY_=../../../_pool_/69/dd/air_handling_unit-multi_position-daikin-dfve.zip},{RFA_FAMILY_ENG=../../../_pool_/69/dd/air_handling_unit-multi_position-daikin-dfve.zip},{REVIT_FAMILY_DOWNL
100
AcDbAttributeDefinition
  3

  2
PSOL_21
 70
     9
280
     0
  0
ATTDEF
  5
133
330
10B
100
AcDbEntity
  8
AM_6
100
AcDbText
 10
-5.500000000000393
 20
3.937499999997438
 30
0.0
 40
0.5
  1
/../../_pool_/69/dd/air_handling_unit-multi_position-daikin-dfve.zip},{PN=4_ton_DFVE48DP1400}
100
AcDbAttributeDefinition
  3

  2
PSOL_22
 70
     9
280
     0
  0
LINE
  5
134
330
10B
100
AcDbEntity
  8
AM_0
100
AcDbLine
 10
-10.56250000000024
 20
21.06249999999744
 30
0.0
 11
-10.56250000000024
 21
21.93749999999744
 31
0.0
  0
LINE
  5
135
330
10B
100
AcDbEntity
  8
AM_0
100
AcDbLine
 10
-10.50000000000039
 20
21.93749999999744
 30
0.0
 11
-10.56250000000024
 21
21.93749999999744
 31
0.0
  0
LINE
  5
136
330
10B
100
AcDbEntity
  8
AM_0
100
AcDbLine
 10
-10.56250000000024
 20
21.06249999999744
 30
0.0
 11
-10.50000000000039
 21
21.06249999999744
 31
0.0
  0
ENDBLK
  5
10E
330
10B
100
AcDbEntity
  8
0
100
AcDbBlockEnd
  0
BLOCK
  5
139
330
137
100
AcDbEntity
  8
0
100
AcDbBlockBegin
  2
5_DFVE48DP1400_PART4_0_in_DFVE48DP1400_2
 70
     2
 10
0.0
 20
0.0
 30
0.0
  3
5_DFVE48DP1400_PART4_0_in_DFVE48DP1400_2
  1

  0
ATTDEF
  5
13B
330
137
100
AcDbEntity
  8
AM_6
100
AcDbText
 10
-5.500000000000393
 20
18.49999999999744
 30
0.0
 40
0.5
  1
DFVE48DP1400_PART4
100
AcDbAttributeDefinition
  3

  2
NB
 70
     8
280
     0
  0
ATTDEF
  5
13C
330
137
100
AcDbEntity
  8
AM_6
100
AcDbText
 10
-5.500000000000393
 20
17.99999999999744
 30
0.0
 40
0.5
  1

100
AcDbAttributeDefinition
  3

  2
NN
 70
     8
280
     0
  0
ATTDEF
  5
13D
330
137
100
AcDbEntity
  8
AM_6
100
AcDbText
 10
-5.500000000000393
 20
17.49999999999744
 30
0.0
 40
0.5
  1

100
AcDbAttributeDefinition
  3

  2
NT
 70
     8
280
     0
  0
ATTDEF
  5
13E
330
137
100
AcDbEntity
  8
AM_6
100
AcDbText
 10
-5.500000000000393
 20
16.99999999999744
 30
0.0
 40
0.5
  1
$PARTNUMBER._PART4
100
AcDbAttributeDefinition
  3

  2
NBSYN
 70
     8
280
     0
  0
ATTDEF
  5
13F
330
137
100
AcDbEntity
  8
AM_6
100
AcDbText
 10
-5.500000000000393
 20
16.49999999999744
 30
0.0
 40
0.5
  1
DFVE48DP1400_PART4
100
AcDbAttributeDefinition
  3

  2
LINA
 70
     8
280
     0
  0
ATTDEF
  5
140
330
137
100
AcDbEntity
  8
AM_6
100
AcDbText
 10
-5.500000000000393
 20
15.99999999999744
 30
0.0
 40
0.5
  1
Daikin
100
AcDbAttributeDefinition
  3

  2
CATALOG
 70
     8
280
     0
  0
ATTDEF
  5
141
330
137
100
AcDbEntity
  8
AM_6
100
AcDbText
 10
-5.500000000000393
 20
15.49999999999744
 30
0.0
 40
0.5
  1
DFVE48DP1400
100
AcDbAttributeDefinition
  3

  2
PARTNUMBER
 70
     8
280
     0
  0
ATTDEF
  5
142
330
137
100
AcDbEntity
  8
AM_6
100
AcDbText
 10
-5.500000000000393
 20
14.99999999999744
 30
0.0
 40
0.5
  1
Multi-Position, Variable-Speed air handler
100
AcDbAttributeDefinition
  3

  2
DESCRIPTION
 70
     8
280
     0
  0
ATTDEF
  5
143
330
137
100
AcDbEntity
  8
AM_6
100
AcDbText
 10
-5.500000000000393
 20
14.49999999999744
 30
0.0
 40
0.5
  1
21.000
100
AcDbAttributeDefinition
  3

  2
OVERALL_DEPTH
 70
     8
280
     0
  0
ATTDEF
  5
144
330
137
100
AcDbEntity
  8
AM_6
100
AcDbText
 10
-5.500000000000393
 20
13.99999999999744
 30
0.0
 40
0.5
  1
53.500
100
AcDbAttributeDefinition
  3

  2
OVERALL_HEIGHT
 70
     8
280
     0
  0
ATTDEF
  5
145
330
137
100
AcDbEntity
  8
AM_6
100
AcDbText
 10
-5.500000000000393
 20
13.49999999999744
 30
0.0
 40
0.5
  1
24.500
100
AcDbAttributeDefinition
  3

  2
OVERALL_WIDTH
 70
     8
280
     0
  0
ATTDEF
  5
146
330
137
100
AcDbEntity
  8
AM_6
100
AcDbText
 10
-5.500000000000393
 20
12.99999999999744
 30
0.0
 40
0.5
  1
https://daikincomfort.com
100
AcDbAttributeDefinition
  3

  2
URL
 70
     8
280
     0
  0
ATTDEF
  5
147
330
137
100
AcDbEntity
  8
AM_6
100
AcDbText
 10
-5.500000000000393
 20
12.49999999999744
 30
0.0
 40
0.5
  1
Download Revit Family (RFA)
100
AcDbAttributeDefinition
  3

  2
RFA_FAMILY
 70
     8
280
     0
  0
ATTDEF
  5
148
330
137
100
AcDbEntity
  8
AM_6
100
AcDbText
 10
-5.500000000000393
 20
11.99999999999744
 30
0.0
 40
0.5
  1
daikin
100
AcDbAttributeDefinition
  3

  2
COMPANY
 70
     8
280
     0
  0
ATTDEF
  5
149
330
137
100
AcDbEntity
  8
AM_6
100
AcDbText
 10
-5.500000000000393
 20
11.49999999999744
 30
0.0
 40
0.5
  1
{$CADENAS_DATA/23d-libs/daikin/unitary/air20handlers/2023/air_handling_unit-multi_position-daikin-dfve.prj},233 {VTYP=3D},{NB=DFVE48DP1400_PART4},{LINA=DFVE48DP1400_PART4},{NN=Air_Handling_Unit-Multi_Position-Daikin-DFVE_PART4},{NOPRJ=TRUE},{DATE=03
100
AcDbAttributeDefinition
  3

  2
PSOL_0
 70
     9
280
     0
  0
ATTDEF
  5
14A
330
137
100
AcDbEntity
  8
AM_6
100
AcDbText
 10
-5.500000000000393
 20
10.99999999999744
 30
0.0
 40
0.5
  1
26 19:23:45},{GEOMDATE=22.09.2025 12:59:40},{VERSION=},{LINEID=50},{WBVAR=},{WBNUMERIC=}  {NB=DFVE48DP1400_PART4},{LINA=DFVE48DP1400_PART4},{KT=DUMMY},{PARTNUMBERMAP09=4_ton_DFVE48DP1400},{PARTNUMBER=DFVE48DP1400},{DESCRIPTION=Multi-Position, Variab
100
AcDbAttributeDefinition
  3

  2
PSOL_1
 70
     9
280
     0
  0
ATTDEF
  5
14B
330
137
100
AcDbEntity
  8
AM_6
100
AcDbText
 10
-5.500000000000393
 20
10.49999999999744
 30
0.0
 40
0.5
  1
ed air handler},{OVERALL_DEPTH=21.000},{OVERALL_HEIGHT=53.500},{OVERALL_WIDTH=24.500},{URL=https://daikincomfort.com},{RFA_FAMILY=Download Revit Family (RFA)},{ORDERNO=4_ton_DFVE48DP1400},{AMBIENT_TEMPERATURE=0},{APPARENT_POWER=1495},{ASSEMBLY_CODE=
100
AcDbAttributeDefinition
  3

  2
PSOL_2
 70
     9
280
     0
  0
ATTDEF
  5
14C
330
137
100
AcDbEntity
  8
AM_6
100
AcDbText
 10
-5.500000000000393
 20
9.999999999997442
 30
0.0
 40
0.5
  1
00},{CATEGORY=Mechanical Equipment},{COIL_AIR_PRESSURE_DROP=0},{CONDENSATE_DRAIN_CONNECTION_DIAMETER=0.75},{CONDENSATE_DRAIN_CONNECTION_RADIUS=0.375},{CONDUIT_ANGLE=90},{CONDUIT_HORIZONTAL_OFFSET=-0.875},{CONDUIT_OFFSET=2.2265625},{CONDUIT_PLACEMENT
100
AcDbAttributeDefinition
  3

  2
PSOL_3
 70
     9
280
     0
  0
ATTDEF
  5
14D
330
137
100
AcDbEntity
  8
AM_6
100
AcDbText
 10
-5.500000000000393
 20
9.499999999997442
 30
0.0
 40
0.5
  1
T=0.177083333333333},{CONDUIT_RADIUS=0.25},{CONDUIT_SIZE=0.5},{COOLING_ENTERING_DRY_BULB_TEMPERATURE=0},{COOLING_ENTERING_WET_BULB_TEMPERATURE=0},{COOLING_LEAVING_DRY_BULB_TEMPERATURE=0},{COOLING_LEAVING_WET_BULB_TEMPERATURE=0},{COST=0},{DEFAULT_ELE
100
AcDbAttributeDefinition
  3

  2
PSOL_4
 70
     9
280
     0
  0
ATTDEF
  5
14E
330
137
100
AcDbEntity
  8
AM_6
100
AcDbText
 10
-5.500000000000393
 20
8.999999999997442
 30
0.0
 40
0.5
  1
=0},{DESIGN_RETURN_AIR_FLOW=0},{DESIGN_SUPPLY_AIR_FLOW=0},{DRAIN_CONNECTION_HORIZONTAL_OFFSET_1=0.3125},{DRAIN_CONNECTION_HORIZONTAL_OFFSET_2=0.447916666666667},{DRAIN_CONNECTION_VERTICAL_OFFSET_1=0.244791666666667},{DRAIN_CONNECTION_VERTICAL_OFFSET
100
AcDbAttributeDefinition
  3

  2
PSOL_5
 70
     9
280
     0
  0
ATTDEF
  5
14F
330
137
100
AcDbEntity
  8
AM_6
100
AcDbText
 10
-5.500000000000393
 20
8.499999999997442
 30
0.0
 40
0.5
  1
35416666666667},{DRAIN_FLOW=0},{DUCT_ANGLE=0},{DUCT_CONNECTION_HORIZONTAL_OFFSET=2.04166666666667},{DUCT_CONNECTION_VERTICAL_OFFSET=4.23046875},{DUCT_OFFSET=2.2265625},{ENCLOSURE_HEIGHT=4.453125},{ENCLOSURE_WIDTH=2.04166666666667},{ENGWORKS_GLOBAL=h
100
AcDbAttributeDefinition
  3

  2
PSOL_6
 70
     9
280
     0
  0
ATTDEF
  5
150
330
137
100
AcDbEntity
  8
AM_6
100
AcDbText
 10
-5.500000000000393
 20
7.999999999997442
 30
0.0
 40
0.5
  1
www.ENGworksGlobal.com/},{FACE_VELOCITY__FPM_=0},{FAN_DRIVE=Direct Drive},{FAN_FULL_LOAD_AMPS=5.2},{FAN_HORSEPOWER=0.75},{FEET_PRESSURE_DROP=0},{FREQUENCY=60},{GAS_CONNECTION_HORIZONTAL_OFFSET=0.145},{GAS_CONNECTION_VERTICAL_OFFSET=1.79166666666667}
100
AcDbAttributeDefinition
  3

  2
PSOL_7
 70
     9
280
     0
  0
ATTDEF
  5
151
330
137
100
AcDbEntity
  8
AM_6
100
AcDbText
 10
-5.500000000000393
 20
7.499999999997442
 30
0.0
 40
0.5
  1
ING_ENTERING_DRY_BULB_TEMPERATURE=0},{HEATING_ENTERING_WET_BULB_TEMPERATURE=0},{HEATING_LEAVING_DRY_BULB_TEMPERATURE=0},{HEATING_LEAVING_WET_BULB_TEMPERATURE=0},{HORIZONTAL_DRAIN_HORIZONTAL_OFFSET_1=0.109375},{HORIZONTAL_DRAIN_HORIZONTAL_OFFSET_2=0.
100
AcDbAttributeDefinition
  3

  2
PSOL_8
 70
     9
280
     0
  0
ATTDEF
  5
152
330
137
100
AcDbEntity
  8
AM_6
100
AcDbText
 10
-5.500000000000393
 20
6.999999999997442
 30
0.0
 40
0.5
  1
HORIZONTAL_DRAIN_VERTICAL_OFFSET_1=0.848958333333333},{HORIZONTAL_DRAIN_VERTICAL_OFFSET_2=0.135416666666667},{LATENT_COOLING_CAPACITY=0},{LIQUID_CONNECTION_HORIZONTAL_OFFSET=0.2225},{LIQUID_CONNECTION_VERTICAL_OFFSET=1.52604166666667},{LOAD_SUB_CLAS
100
AcDbAttributeDefinition
  3

  2
PSOL_9
 70
     9
280
     0
  0
ATTDEF
  5
153
330
137
100
AcDbEntity
  8
AM_6
100
AcDbText
 10
-5.500000000000393
 20
6.499999999997442
 30
0.0
 40
0.5
  1
TION_MOTOR=1},{MANUFACTURER=Daikin},{MASSUNIT=1},{MAXIMUM_OVERCURRENT_PROTECTION=15},{MINIMUM_CIRCUIT_AMPS=6.5},{MODEL=DFVE48DP1400},{NOMINAL_COOLING_CAPACITY=48000},{NOMINAL_COOLING_CAPACITY__TONS_=4},{NOMINAL_HEATING_CAPACITY=0},{NUMBER_OF_POLES=1
100
AcDbAttributeDefinition
  3

  2
PSOL_10
 70
     9
280
     0
  0
ATTDEF
  5
154
330
137
100
AcDbEntity
  8
AM_6
100
AcDbText
 10
-5.500000000000393
 20
5.999999999997442
 30
0.0
 40
0.5
  1
ICLASS_NUMBER=23.75.35.14},{OMNICLASS_TITLE=Air Handling Units},{PARTTYPE=Normal},{PHASE=1},{PRODUCT_PAGE_URL=https://daikincomfort.com/products/heating-cooling/whole-house/air-handlers-coils/dfve},{REFRIGERANT_CHARGE=0},{REFRIGERANT_CHARGE_VALUE=0}
100
AcDbAttributeDefinition
  3

  2
PSOL_11
 70
     9
280
     0
  0
ATTDEF
  5
155
330
137
100
AcDbEntity
  8
AM_6
100
AcDbText
 10
-5.500000000000393
 20
5.499999999997442
 30
0.0
 40
0.5
  1
IGERANT_LIQUID_CONNECTION_DIAMETER=0.375},{REFRIGERANT_LIQUID_CONNECTION_HORIZONTAL_OFFSET=0.2225},{REFRIGERANT_LIQUID_CONNECTION_RADIUS=0.1875},{REFRIGERANT_LIQUID_CONNECTION_VERTICAL_OFFSET=1.52604166666667},{REFRIGERANT_SUCTION_GAS_CONNECTION_DIA
100
AcDbAttributeDefinition
  3

  2
PSOL_12
 70
     9
280
     0
  0
ATTDEF
  5
156
330
137
100
AcDbEntity
  8
AM_6
100
AcDbText
 10
-5.500000000000393
 20
4.999999999997442
 30
0.0
 40
0.5
  1
0.875},{REFRIGERANT_SUCTION_GAS_CONNECTION_HORIZONTAL_OFFSET=0.145},{REFRIGERANT_SUCTION_GAS_CONNECTION_RADIUS=0.4375},{REFRIGERANT_SUCTION_GAS_CONNECTION_VERTICAL_OFFSET=1.79166666666667},{REFRIGERANT_USED=R-410A},{RETURN_AIR_CONNECTION_HEIGHT=19.5
100
AcDbAttributeDefinition
  3

  2
PSOL_13
 70
     9
280
     0
  0
ATTDEF
  5
157
330
137
100
AcDbEntity
  8
AM_6
100
AcDbText
 10
-5.500000000000393
 20
4.499999999997442
 30
0.0
 40
0.5
  1
URN_AIR_CONNECTION_VERTICAL_OFFSET=0.8575},{RETURN_AIR_CONNECTION_WIDTH=21.1875},{RETURN_AIR_OUTLET_VERTICAL_OFFSET=0.045},{RETURN_AIR_PRESSURE_DROP=0},{SENSIBLE_COOLING_CAPACITY=0},{SERIES=DFVE},{SIDE_CONDUIT_CONNECTION=0},{SIDE_CONDUIT_HORIZONTAL_
100
AcDbAttributeDefinition
  3

  2
PSOL_14
 70
     9
280
     0
  0
ATTDEF
  5
158
330
137
100
AcDbEntity
  8
AM_6
100
AcDbText
 10
-5.500000000000393
 20
3.999999999997442
 30
0.0
 40
0.5
  1
=0.114583333333333},{SIDE_CONDUIT_HORIZONTAL_OFFSET_1=0.114583333333333},{SIDE_CONDUIT_HORIZONTAL_OFFSET_2=0.260416666666667},{SIDE_CONDUIT_HORIZONTAL_OFFSET_3=0.427083333333333},{SIDE_CONDUIT_HORIZONTAL_OFFSET_4=0.625},{SIDE_CONDUIT_VERTICAL_OFFSET
100
AcDbAttributeDefinition
  3

  2
PSOL_15
 70
     9
280
     0
  0
ATTDEF
  5
159
330
137
100
AcDbEntity
  8
AM_6
100
AcDbText
 10
-5.500000000000393
 20
3.499999999997442
 30
0.0
 40
0.5
  1
833333333333},{STANDARDS=AHRI Certified; ETL Listed},{SUPPLY_AIR_CONNECTION_HEIGHT=11.3},{SUPPLY_AIR_CONNECTION_VERTICAL_OFFSET=0.514166666666667},{SUPPLY_AIR_CONNECTION_WIDTH=23.3125},{SUPPLY_AIR_FLOW=1380},{SUPPLY_AIR_OUTLET_VERTICAL_OFFSET=0.0433
100
AcDbAttributeDefinition
  3

  2
PSOL_16
 70
     9
280
     0
  0
ATTDEF
  5
15A
330
137
100
AcDbEntity
  8
AM_6
100
AcDbText
 10
-5.500000000000393
 20
2.999999999997442
 30
0.0
 40
0.5
  1
333333},{SUPPLY_AIR_PRESSURE_DROP=0},{TOP_CONDUIT_CONNECTION=1},{TOP_CONDUIT_HORIZONTAL_OFFSET=0.145833333333333},{TOP_CONDUIT_VERTICAL_OFFSET=0.177083333333333},{TOP_CONDUIT_VERTICAL_OFFSET_1=0.177083333333333},{TOP_CONDUIT_VERTICAL_OFFSET_2=0.3593
100
AcDbAttributeDefinition
  3

  2
PSOL_17
 70
     9
280
     0
  0
ATTDEF
  5
15B
330
137
100
AcDbEntity
  8
AM_6
100
AcDbText
 10
-5.500000000000393
 20
2.499999999997442
 30
0.0
 40
0.5
  1
OP_CONDUIT_VERTICAL_OFFSET_3=0.510416666666667},{TOTAL_COOLING_CAPACITY=0},{TOTAL_HEATING_CAPACITY=0},{TOTAL_STATIC_PRESSURE=0},{UNIT_WEIGHT=150},{UNIT_WEIGHT_VALUE=150},{VERSION=1},{VERTICAL_DRAIN_HORIZONTAL_OFFSET_1=0.3125},{VERTICAL_DRAIN_HORIZON
100
AcDbAttributeDefinition
  3

  2
PSOL_18
 70
     9
280
     0
  0
ATTDEF
  5
15C
330
137
100
AcDbEntity
  8
AM_6
100
AcDbText
 10
-5.500000000000393
 20
1.999999999997442
 30
0.0
 40
0.5
  1
FSET_2=0.135416666666667},{VERTICAL_DRAIN_VERTICAL_OFFSET_1=0.244791666666667},{VERTICAL_DRAIN_VERTICAL_OFFSET_2=0.135416666666667},{VOLTAGE=230},{VOLTAGE_COMMENTS=208 VAC - 230 VAC},{VAR___CONDUIT_PLACEMENT_SELECTOR=1},{VAR___UNIT_POSITION_CONFIGUR
100
AcDbAttributeDefinition
  3

  2
PSOL_19
 70
     9
280
     0
  0
ATTDEF
  5
15D
330
137
100
AcDbEntity
  8
AM_6
100
AcDbText
 10
-5.500000000000393
 20
1.499999999997442
 30
0.0
 40
0.5
  1
SELECTOR=1},{VAR___CONDUIT_PLACEMENT_OPTION_1=1},{VAR___UPFLOW_OPTION=1},{VAR___CONDUIT_PLACEMENT_OPTION_2=0},{VAR___DOWNFLOW_OPTION=0},{VAR___CONDUIT_PLACEMENT_OPTION_3=0},{VAR___HORIZONTAL_LEFT_OPTION=0},{VAR___CONDUIT_PLACEMENT_OPTION_4___SIDE_ON
100
AcDbAttributeDefinition
  3

  2
PSOL_20
 70
     9
280
     0
  0
ATTDEF
  5
15E
330
137
100
AcDbEntity
  8
AM_6
100
AcDbText
 10
-5.500000000000393
 20
0.999999999997442
 30
0.0
 40
0.5
  1
{VAR___HORIZONTAL_RIGHT_OPTION=0},{DEFAULTSORTATTR=1850},{RFA_FAMILY_=../../../_pool_/69/dd/air_handling_unit-multi_position-daikin-dfve.zip},{RFA_FAMILY_ENG=../../../_pool_/69/dd/air_handling_unit-multi_position-daikin-dfve.zip},{REVIT_FAMILY_DOWNL
100
AcDbAttributeDefinition
  3

  2
PSOL_21
 70
     9
280
     0
  0
ATTDEF
  5
15F
330
137
100
AcDbEntity
  8
AM_6
100
AcDbText
 10
-5.500000000000393
 20
0.499999999997442
 30
0.0
 40
0.5
  1
/../../_pool_/69/dd/air_handling_unit-multi_position-daikin-dfve.zip},{PN=4_ton_DFVE48DP1400}
100
AcDbAttributeDefinition
  3

  2
PSOL_22
 70
     9
280
     0
  0
LINE
  5
160
330
137
100
AcDbEntity
  8
AM_0
100
AcDbLine
 10
-10.56250000000024
 20
18.12499999999744
 30
0.0
 11
-10.56250000000024
 21
18.49999999999744
 31
0.0
  0
LINE
  5
161
330
137
100
AcDbEntity
  8
AM_0
100
AcDbLine
 10
-10.50000000000039
 20
18.49999999999744
 30
0.0
 11
-10.56250000000024
 21
18.49999999999744
 31
0.0
  0
LINE
  5
162
330
137
100
AcDbEntity
  8
AM_0
100
AcDbLine
 10
-10.56250000000024
 20
18.12499999999744
 30
0.0
 11
-10.50000000000039
 21
18.12499999999744
 31
0.0
  0
ENDBLK
  5
13A
330
137
100
AcDbEntity
  8
0
100
AcDbBlockEnd
  0
BLOCK
  5
165
330
163
100
AcDbEntity
  8
0
100
AcDbBlockBegin
  2
6_DFVE48DP1400_PART3_0_in_DFVE48DP1400_2
 70
     2
 10
0.0
 20
0.0
 30
0.0
  3
6_DFVE48DP1400_PART3_0_in_DFVE48DP1400_2
  1

  0
ATTDEF
  5
167
330
163
100
AcDbEntity
  8
AM_6
100
AcDbText
 10
-5.500000000000393
 20
3.312499999997508
 30
0.0
 40
0.5
  1
DFVE48DP1400_PART3
100
AcDbAttributeDefinition
  3

  2
NB
 70
     8
280
     0
  0
ATTDEF
  5
168
330
163
100
AcDbEntity
  8
AM_6
100
AcDbText
 10
-5.500000000000393
 20
2.812499999997508
 30
0.0
 40
0.5
  1

100
AcDbAttributeDefinition
  3

  2
NN
 70
     8
280
     0
  0
ATTDEF
  5
169
330
163
100
AcDbEntity
  8
AM_6
100
AcDbText
 10
-5.500000000000393
 20
2.312499999997508
 30
0.0
 40
0.5
  1

100
AcDbAttributeDefinition
  3

  2
NT
 70
     8
280
     0
  0
ATTDEF
  5
16A
330
163
100
AcDbEntity
  8
AM_6
100
AcDbText
 10
-5.500000000000393
 20
1.812499999997508
 30
0.0
 40
0.5
  1
$PARTNUMBER._PART3
100
AcDbAttributeDefinition
  3

  2
NBSYN
 70
     8
280
     0
  0
ATTDEF
  5
16B
330
163
100
AcDbEntity
  8
AM_6
100
AcDbText
 10
-5.500000000000393
 20
1.312499999997508
 30
0.0
 40
0.5
  1
DFVE48DP1400_PART3
100
AcDbAttributeDefinition
  3

  2
LINA
 70
     8
280
     0
  0
ATTDEF
  5
16C
330
163
100
AcDbEntity
  8
AM_6
100
AcDbText
 10
-5.500000000000393
 20
0.8124999999975082
 30
0.0
 40
0.5
  1
Daikin
100
AcDbAttributeDefinition
  3

  2
CATALOG
 70
     8
280
     0
  0
ATTDEF
  5
16D
330
163
100
AcDbEntity
  8
AM_6
100
AcDbText
 10
-5.500000000000393
 20
0.3124999999975082
 30
0.0
 40
0.5
  1
DFVE48DP1400
100
AcDbAttributeDefinition
  3

  2
PARTNUMBER
 70
     8
280
     0
  0
ATTDEF
  5
16E
330
163
100
AcDbEntity
  8
AM_6
100
AcDbText
 10
-5.500000000000393
 20
-0.1875000000024918
 30
0.0
 40
0.5
  1
Multi-Position, Variable-Speed air handler
100
AcDbAttributeDefinition
  3

  2
DESCRIPTION
 70
     8
280
     0
  0
ATTDEF
  5
16F
330
163
100
AcDbEntity
  8
AM_6
100
AcDbText
 10
-5.500000000000393
 20
-0.6875000000024918
 30
0.0
 40
0.5
  1
21.000
100
AcDbAttributeDefinition
  3

  2
OVERALL_DEPTH
 70
     8
280
     0
  0
ATTDEF
  5
170
330
163
100
AcDbEntity
  8
AM_6
100
AcDbText
 10
-5.500000000000393
 20
-1.187500000002492
 30
0.0
 40
0.5
  1
53.500
100
AcDbAttributeDefinition
  3

  2
OVERALL_HEIGHT
 70
     8
280
     0
  0
ATTDEF
  5
171
330
163
100
AcDbEntity
  8
AM_6
100
AcDbText
 10
-5.500000000000393
 20
-1.687500000002492
 30
0.0
 40
0.5
  1
24.500
100
AcDbAttributeDefinition
  3

  2
OVERALL_WIDTH
 70
     8
280
     0
  0
ATTDEF
  5
172
330
163
100
AcDbEntity
  8
AM_6
100
AcDbText
 10
-5.500000000000393
 20
-2.187500000002492
 30
0.0
 40
0.5
  1
https://daikincomfort.com
100
AcDbAttributeDefinition
  3

  2
URL
 70
     8
280
     0
  0
ATTDEF
  5
173
330
163
100
AcDbEntity
  8
AM_6
100
AcDbText
 10
-5.500000000000393
 20
-2.687500000002492
 30
0.0
 40
0.5
  1
Download Revit Family (RFA)
100
AcDbAttributeDefinition
  3

  2
RFA_FAMILY
 70
     8
280
     0
  0
ATTDEF
  5
174
330
163
100
AcDbEntity
  8
AM_6
100
AcDbText
 10
-5.500000000000393
 20
-3.187500000002492
 30
0.0
 40
0.5
  1
daikin
100
AcDbAttributeDefinition
  3

  2
COMPANY
 70
     8
280
     0
  0
ATTDEF
  5
175
330
163
100
AcDbEntity
  8
AM_6
100
AcDbText
 10
-5.500000000000393
 20
-3.687500000002492
 30
0.0
 40
0.5
  1
{$CADENAS_DATA/23d-libs/daikin/unitary/air20handlers/2023/air_handling_unit-multi_position-daikin-dfve.prj},233 {VTYP=3D},{NB=DFVE48DP1400_PART3},{LINA=DFVE48DP1400_PART3},{NN=Air_Handling_Unit-Multi_Position-Daikin-DFVE_PART3},{NOPRJ=TRUE},{DATE=03
100
AcDbAttributeDefinition
  3

  2
PSOL_0
 70
     9
280
     0
  0
ATTDEF
  5
176
330
163
100
AcDbEntity
  8
AM_6
100
AcDbText
 10
-5.500000000000393
 20
-4.187500000002492
 30
0.0
 40
0.5
  1
26 19:23:45},{GEOMDATE=22.09.2025 12:59:40},{VERSION=},{LINEID=50},{WBVAR=},{WBNUMERIC=}  {NB=DFVE48DP1400_PART3},{LINA=DFVE48DP1400_PART3},{KT=DUMMY},{PARTNUMBERMAP09=4_ton_DFVE48DP1400},{PARTNUMBER=DFVE48DP1400},{DESCRIPTION=Multi-Position, Variab
100
AcDbAttributeDefinition
  3

  2
PSOL_1
 70
     9
280
     0
  0
ATTDEF
  5
177
330
163
100
AcDbEntity
  8
AM_6
100
AcDbText
 10
-5.500000000000393
 20
-4.687500000002492
 30
0.0
 40
0.5
  1
ed air handler},{OVERALL_DEPTH=21.000},{OVERALL_HEIGHT=53.500},{OVERALL_WIDTH=24.500},{URL=https://daikincomfort.com},{RFA_FAMILY=Download Revit Family (RFA)},{ORDERNO=4_ton_DFVE48DP1400},{AMBIENT_TEMPERATURE=0},{APPARENT_POWER=1495},{ASSEMBLY_CODE=
100
AcDbAttributeDefinition
  3

  2
PSOL_2
 70
     9
280
     0
  0
ATTDEF
  5
178
330
163
100
AcDbEntity
  8
AM_6
100
AcDbText
 10
-5.500000000000393
 20
-5.187500000002492
 30
0.0
 40
0.5
  1
00},{CATEGORY=Mechanical Equipment},{COIL_AIR_PRESSURE_DROP=0},{CONDENSATE_DRAIN_CONNECTION_DIAMETER=0.75},{CONDENSATE_DRAIN_CONNECTION_RADIUS=0.375},{CONDUIT_ANGLE=90},{CONDUIT_HORIZONTAL_OFFSET=-0.875},{CONDUIT_OFFSET=2.2265625},{CONDUIT_PLACEMENT
100
AcDbAttributeDefinition
  3

  2
PSOL_3
 70
     9
280
     0
  0
ATTDEF
  5
179
330
163
100
AcDbEntity
  8
AM_6
100
AcDbText
 10
-5.500000000000393
 20
-5.687500000002492
 30
0.0
 40
0.5
  1
T=0.177083333333333},{CONDUIT_RADIUS=0.25},{CONDUIT_SIZE=0.5},{COOLING_ENTERING_DRY_BULB_TEMPERATURE=0},{COOLING_ENTERING_WET_BULB_TEMPERATURE=0},{COOLING_LEAVING_DRY_BULB_TEMPERATURE=0},{COOLING_LEAVING_WET_BULB_TEMPERATURE=0},{COST=0},{DEFAULT_ELE
100
AcDbAttributeDefinition
  3

  2
PSOL_4
 70
     9
280
     0
  0
ATTDEF
  5
17A
330
163
100
AcDbEntity
  8
AM_6
100
AcDbText
 10
-5.500000000000393
 20
-6.187500000002492
 30
0.0
 40
0.5
  1
=0},{DESIGN_RETURN_AIR_FLOW=0},{DESIGN_SUPPLY_AIR_FLOW=0},{DRAIN_CONNECTION_HORIZONTAL_OFFSET_1=0.3125},{DRAIN_CONNECTION_HORIZONTAL_OFFSET_2=0.447916666666667},{DRAIN_CONNECTION_VERTICAL_OFFSET_1=0.244791666666667},{DRAIN_CONNECTION_VERTICAL_OFFSET
100
AcDbAttributeDefinition
  3

  2
PSOL_5
 70
     9
280
     0
  0
ATTDEF
  5
17B
330
163
100
AcDbEntity
  8
AM_6
100
AcDbText
 10
-5.500000000000393
 20
-6.687500000002492
 30
0.0
 40
0.5
  1
35416666666667},{DRAIN_FLOW=0},{DUCT_ANGLE=0},{DUCT_CONNECTION_HORIZONTAL_OFFSET=2.04166666666667},{DUCT_CONNECTION_VERTICAL_OFFSET=4.23046875},{DUCT_OFFSET=2.2265625},{ENCLOSURE_HEIGHT=4.453125},{ENCLOSURE_WIDTH=2.04166666666667},{ENGWORKS_GLOBAL=h
100
AcDbAttributeDefinition
  3

  2
PSOL_6
 70
     9
280
     0
  0
ATTDEF
  5
17C
330
163
100
AcDbEntity
  8
AM_6
100
AcDbText
 10
-5.500000000000393
 20
-7.187500000002492
 30
0.0
 40
0.5
  1
www.ENGworksGlobal.com/},{FACE_VELOCITY__FPM_=0},{FAN_DRIVE=Direct Drive},{FAN_FULL_LOAD_AMPS=5.2},{FAN_HORSEPOWER=0.75},{FEET_PRESSURE_DROP=0},{FREQUENCY=60},{GAS_CONNECTION_HORIZONTAL_OFFSET=0.145},{GAS_CONNECTION_VERTICAL_OFFSET=1.79166666666667}
100
AcDbAttributeDefinition
  3

  2
PSOL_7
 70
     9
280
     0
  0
ATTDEF
  5
17D
330
163
100
AcDbEntity
  8
AM_6
100
AcDbText
 10
-5.500000000000393
 20
-7.687500000002492
 30
0.0
 40
0.5
  1
ING_ENTERING_DRY_BULB_TEMPERATURE=0},{HEATING_ENTERING_WET_BULB_TEMPERATURE=0},{HEATING_LEAVING_DRY_BULB_TEMPERATURE=0},{HEATING_LEAVING_WET_BULB_TEMPERATURE=0},{HORIZONTAL_DRAIN_HORIZONTAL_OFFSET_1=0.109375},{HORIZONTAL_DRAIN_HORIZONTAL_OFFSET_2=0.
100
AcDbAttributeDefinition
  3

  2
PSOL_8
 70
     9
280
     0
  0
ATTDEF
  5
17E
330
163
100
AcDbEntity
  8
AM_6
100
AcDbText
 10
-5.500000000000393
 20
-8.187500000002492
 30
0.0
 40
0.5
  1
HORIZONTAL_DRAIN_VERTICAL_OFFSET_1=0.848958333333333},{HORIZONTAL_DRAIN_VERTICAL_OFFSET_2=0.135416666666667},{LATENT_COOLING_CAPACITY=0},{LIQUID_CONNECTION_HORIZONTAL_OFFSET=0.2225},{LIQUID_CONNECTION_VERTICAL_OFFSET=1.52604166666667},{LOAD_SUB_CLAS
100
AcDbAttributeDefinition
  3

  2
PSOL_9
 70
     9
280
     0
  0
ATTDEF
  5
17F
330
163
100
AcDbEntity
  8
AM_6
100
AcDbText
 10
-5.500000000000393
 20
-8.687500000002492
 30
0.0
 40
0.5
  1
TION_MOTOR=1},{MANUFACTURER=Daikin},{MASSUNIT=1},{MAXIMUM_OVERCURRENT_PROTECTION=15},{MINIMUM_CIRCUIT_AMPS=6.5},{MODEL=DFVE48DP1400},{NOMINAL_COOLING_CAPACITY=48000},{NOMINAL_COOLING_CAPACITY__TONS_=4},{NOMINAL_HEATING_CAPACITY=0},{NUMBER_OF_POLES=1
100
AcDbAttributeDefinition
  3

  2
PSOL_10
 70
     9
280
     0
  0
ATTDEF
  5
180
330
163
100
AcDbEntity
  8
AM_6
100
AcDbText
 10
-5.500000000000393
 20
-9.187500000002492
 30
0.0
 40
0.5
  1
ICLASS_NUMBER=23.75.35.14},{OMNICLASS_TITLE=Air Handling Units},{PARTTYPE=Normal},{PHASE=1},{PRODUCT_PAGE_URL=https://daikincomfort.com/products/heating-cooling/whole-house/air-handlers-coils/dfve},{REFRIGERANT_CHARGE=0},{REFRIGERANT_CHARGE_VALUE=0}
100
AcDbAttributeDefinition
  3

  2
PSOL_11
 70
     9
280
     0
  0
ATTDEF
  5
181
330
163
100
AcDbEntity
  8
AM_6
100
AcDbText
 10
-5.500000000000393
 20
-9.687500000002492
 30
0.0
 40
0.5
  1
IGERANT_LIQUID_CONNECTION_DIAMETER=0.375},{REFRIGERANT_LIQUID_CONNECTION_HORIZONTAL_OFFSET=0.2225},{REFRIGERANT_LIQUID_CONNECTION_RADIUS=0.1875},{REFRIGERANT_LIQUID_CONNECTION_VERTICAL_OFFSET=1.52604166666667},{REFRIGERANT_SUCTION_GAS_CONNECTION_DIA
100
AcDbAttributeDefinition
  3

  2
PSOL_12
 70
     9
280
     0
  0
ATTDEF
  5
182
330
163
100
AcDbEntity
  8
AM_6
100
AcDbText
 10
-5.500000000000393
 20
-10.18750000000249
 30
0.0
 40
0.5
  1
0.875},{REFRIGERANT_SUCTION_GAS_CONNECTION_HORIZONTAL_OFFSET=0.145},{REFRIGERANT_SUCTION_GAS_CONNECTION_RADIUS=0.4375},{REFRIGERANT_SUCTION_GAS_CONNECTION_VERTICAL_OFFSET=1.79166666666667},{REFRIGERANT_USED=R-410A},{RETURN_AIR_CONNECTION_HEIGHT=19.5
100
AcDbAttributeDefinition
  3

  2
PSOL_13
 70
     9
280
     0
  0
ATTDEF
  5
183
330
163
100
AcDbEntity
  8
AM_6
100
AcDbText
 10
-5.500000000000393
 20
-10.68750000000249
 30
0.0
 40
0.5
  1
URN_AIR_CONNECTION_VERTICAL_OFFSET=0.8575},{RETURN_AIR_CONNECTION_WIDTH=21.1875},{RETURN_AIR_OUTLET_VERTICAL_OFFSET=0.045},{RETURN_AIR_PRESSURE_DROP=0},{SENSIBLE_COOLING_CAPACITY=0},{SERIES=DFVE},{SIDE_CONDUIT_CONNECTION=0},{SIDE_CONDUIT_HORIZONTAL_
100
AcDbAttributeDefinition
  3

  2
PSOL_14
 70
     9
280
     0
  0
ATTDEF
  5
184
330
163
100
AcDbEntity
  8
AM_6
100
AcDbText
 10
-5.500000000000393
 20
-11.18750000000249
 30
0.0
 40
0.5
  1
=0.114583333333333},{SIDE_CONDUIT_HORIZONTAL_OFFSET_1=0.114583333333333},{SIDE_CONDUIT_HORIZONTAL_OFFSET_2=0.260416666666667},{SIDE_CONDUIT_HORIZONTAL_OFFSET_3=0.427083333333333},{SIDE_CONDUIT_HORIZONTAL_OFFSET_4=0.625},{SIDE_CONDUIT_VERTICAL_OFFSET
100
AcDbAttributeDefinition
  3

  2
PSOL_15
 70
     9
280
     0
  0
ATTDEF
  5
185
330
163
100
AcDbEntity
  8
AM_6
100
AcDbText
 10
-5.500000000000393
 20
-11.68750000000249
 30
0.0
 40
0.5
  1
833333333333},{STANDARDS=AHRI Certified; ETL Listed},{SUPPLY_AIR_CONNECTION_HEIGHT=11.3},{SUPPLY_AIR_CONNECTION_VERTICAL_OFFSET=0.514166666666667},{SUPPLY_AIR_CONNECTION_WIDTH=23.3125},{SUPPLY_AIR_FLOW=1380},{SUPPLY_AIR_OUTLET_VERTICAL_OFFSET=0.0433
100
AcDbAttributeDefinition
  3

  2
PSOL_16
 70
     9
280
     0
  0
ATTDEF
  5
186
330
163
100
AcDbEntity
  8
AM_6
100
AcDbText
 10
-5.500000000000393
 20
-12.18750000000249
 30
0.0
 40
0.5
  1
333333},{SUPPLY_AIR_PRESSURE_DROP=0},{TOP_CONDUIT_CONNECTION=1},{TOP_CONDUIT_HORIZONTAL_OFFSET=0.145833333333333},{TOP_CONDUIT_VERTICAL_OFFSET=0.177083333333333},{TOP_CONDUIT_VERTICAL_OFFSET_1=0.177083333333333},{TOP_CONDUIT_VERTICAL_OFFSET_2=0.3593
100
AcDbAttributeDefinition
  3

  2
PSOL_17
 70
     9
280
     0
  0
ATTDEF
  5
187
330
163
100
AcDbEntity
  8
AM_6
100
AcDbText
 10
-5.500000000000393
 20
-12.68750000000249
 30
0.0
 40
0.5
  1
OP_CONDUIT_VERTICAL_OFFSET_3=0.510416666666667},{TOTAL_COOLING_CAPACITY=0},{TOTAL_HEATING_CAPACITY=0},{TOTAL_STATIC_PRESSURE=0},{UNIT_WEIGHT=150},{UNIT_WEIGHT_VALUE=150},{VERSION=1},{VERTICAL_DRAIN_HORIZONTAL_OFFSET_1=0.3125},{VERTICAL_DRAIN_HORIZON
100
AcDbAttributeDefinition
  3

  2
PSOL_18
 70
     9
280
     0
  0
ATTDEF
  5
188
330
163
100
AcDbEntity
  8
AM_6
100
AcDbText
 10
-5.500000000000393
 20
-13.18750000000249
 30
0.0
 40
0.5
  1
FSET_2=0.135416666666667},{VERTICAL_DRAIN_VERTICAL_OFFSET_1=0.244791666666667},{VERTICAL_DRAIN_VERTICAL_OFFSET_2=0.135416666666667},{VOLTAGE=230},{VOLTAGE_COMMENTS=208 VAC - 230 VAC},{VAR___CONDUIT_PLACEMENT_SELECTOR=1},{VAR___UNIT_POSITION_CONFIGUR
100
AcDbAttributeDefinition
  3

  2
PSOL_19
 70
     9
280
     0
  0
ATTDEF
  5
189
330
163
100
AcDbEntity
  8
AM_6
100
AcDbText
 10
-5.500000000000393
 20
-13.68750000000249
 30
0.0
 40
0.5
  1
SELECTOR=1},{VAR___CONDUIT_PLACEMENT_OPTION_1=1},{VAR___UPFLOW_OPTION=1},{VAR___CONDUIT_PLACEMENT_OPTION_2=0},{VAR___DOWNFLOW_OPTION=0},{VAR___CONDUIT_PLACEMENT_OPTION_3=0},{VAR___HORIZONTAL_LEFT_OPTION=0},{VAR___CONDUIT_PLACEMENT_OPTION_4___SIDE_ON
100
AcDbAttributeDefinition
  3

  2
PSOL_20
 70
     9
280
     0
  0
ATTDEF
  5
18A
330
163
100
AcDbEntity
  8
AM_6
100
AcDbText
 10
-5.500000000000393
 20
-14.18750000000249
 30
0.0
 40
0.5
  1
{VAR___HORIZONTAL_RIGHT_OPTION=0},{DEFAULTSORTATTR=1850},{RFA_FAMILY_=../../../_pool_/69/dd/air_handling_unit-multi_position-daikin-dfve.zip},{RFA_FAMILY_ENG=../../../_pool_/69/dd/air_handling_unit-multi_position-daikin-dfve.zip},{REVIT_FAMILY_DOWNL
100
AcDbAttributeDefinition
  3

  2
PSOL_21
 70
     9
280
     0
  0
ATTDEF
  5
18B
330
163
100
AcDbEntity
  8
AM_6
100
AcDbText
 10
-5.500000000000393
 20
-14.68750000000249
 30
0.0
 40
0.5
  1
/../../_pool_/69/dd/air_handling_unit-multi_position-daikin-dfve.zip},{PN=4_ton_DFVE48DP1400}
100
AcDbAttributeDefinition
  3

  2
PSOL_22
 70
     9
280
     0
  0
LINE
  5
18C
330
163
100
AcDbEntity
  8
AM_0
100
AcDbLine
 10
-10.53125000000028
 20
2.562499999997508
 30
0.0
 11
-10.53125000000028
 21
3.312499999997508
 31
0.0
  0
LINE
  5
18D
330
163
100
AcDbEntity
  8
AM_0
100
AcDbLine
 10
-10.50000000000039
 20
3.312499999997508
 30
0.0
 11
-10.53125000000028
 21
3.312499999997508
 31
0.0
  0
LINE
  5
18E
330
163
100
AcDbEntity
  8
AM_0
100
AcDbLine
 10
-10.53125000000028
 20
2.562499999997508
 30
0.0
 11
-10.50000000000039
 21
2.562499999997508
 31
0.0
  0
ENDBLK
  5
166
330
163
100
AcDbEntity
  8
0
100
AcDbBlockEnd
  0
BLOCK
  5
191
330
18F
100
AcDbEntity
  8
0
100
AcDbBlockBegin
  2
7_DFVE48DP1400_PART2_0_in_DFVE48DP1400_2
 70
     2
 10
0.0
 20
0.0
 30
0.0
  3
7_DFVE48DP1400_PART2_0_in_DFVE48DP1400_2
  1

  0
ATTDEF
  5
193
330
18F
100
AcDbEntity
  8
AM_6
100
AcDbText
 10
-5.500000000000393
 20
1.999999999997504
 30
0.0
 40
0.5
  1
DFVE48DP1400_PART2
100
AcDbAttributeDefinition
  3

  2
NB
 70
     8
280
     0
  0
ATTDEF
  5
194
330
18F
100
AcDbEntity
  8
AM_6
100
AcDbText
 10
-5.500000000000393
 20
1.499999999997504
 30
0.0
 40
0.5
  1

100
AcDbAttributeDefinition
  3

  2
NN
 70
     8
280
     0
  0
ATTDEF
  5
195
330
18F
100
AcDbEntity
  8
AM_6
100
AcDbText
 10
-5.500000000000393
 20
0.999999999997504
 30
0.0
 40
0.5
  1

100
AcDbAttributeDefinition
  3

  2
NT
 70
     8
280
     0
  0
ATTDEF
  5
196
330
18F
100
AcDbEntity
  8
AM_6
100
AcDbText
 10
-5.500000000000393
 20
0.499999999997504
 30
0.0
 40
0.5
  1
$PARTNUMBER._PART2
100
AcDbAttributeDefinition
  3

  2
NBSYN
 70
     8
280
     0
  0
ATTDEF
  5
197
330
18F
100
AcDbEntity
  8
AM_6
100
AcDbText
 10
-5.500000000000393
 20
-0.000000000002496
 30
0.0
 40
0.5
  1
DFVE48DP1400_PART2
100
AcDbAttributeDefinition
  3

  2
LINA
 70
     8
280
     0
  0
ATTDEF
  5
198
330
18F
100
AcDbEntity
  8
AM_6
100
AcDbText
 10
-5.500000000000393
 20
-0.500000000002496
 30
0.0
 40
0.5
  1
Daikin
100
AcDbAttributeDefinition
  3

  2
CATALOG
 70
     8
280
     0
  0
ATTDEF
  5
199
330
18F
100
AcDbEntity
  8
AM_6
100
AcDbText
 10
-5.500000000000393
 20
-1.000000000002496
 30
0.0
 40
0.5
  1
DFVE48DP1400
100
AcDbAttributeDefinition
  3

  2
PARTNUMBER
 70
     8
280
     0
  0
ATTDEF
  5
19A
330
18F
100
AcDbEntity
  8
AM_6
100
AcDbText
 10
-5.500000000000393
 20
-1.500000000002496
 30
0.0
 40
0.5
  1
Multi-Position, Variable-Speed air handler
100
AcDbAttributeDefinition
  3

  2
DESCRIPTION
 70
     8
280
     0
  0
ATTDEF
  5
19B
330
18F
100
AcDbEntity
  8
AM_6
100
AcDbText
 10
-5.500000000000393
 20
-2.000000000002496
 30
0.0
 40
0.5
  1
21.000
100
AcDbAttributeDefinition
  3

  2
OVERALL_DEPTH
 70
     8
280
     0
  0
ATTDEF
  5
19C
330
18F
100
AcDbEntity
  8
AM_6
100
AcDbText
 10
-5.500000000000393
 20
-2.500000000002496
 30
0.0
 40
0.5
  1
53.500
100
AcDbAttributeDefinition
  3

  2
OVERALL_HEIGHT
 70
     8
280
     0
  0
ATTDEF
  5
19D
330
18F
100
AcDbEntity
  8
AM_6
100
AcDbText
 10
-5.500000000000393
 20
-3.000000000002496
 30
0.0
 40
0.5
  1
24.500
100
AcDbAttributeDefinition
  3

  2
OVERALL_WIDTH
 70
     8
280
     0
  0
ATTDEF
  5
19E
330
18F
100
AcDbEntity
  8
AM_6
100
AcDbText
 10
-5.500000000000393
 20
-3.500000000002496
 30
0.0
 40
0.5
  1
https://daikincomfort.com
100
AcDbAttributeDefinition
  3

  2
URL
 70
     8
280
     0
  0
ATTDEF
  5
19F
330
18F
100
AcDbEntity
  8
AM_6
100
AcDbText
 10
-5.500000000000393
 20
-4.000000000002496
 30
0.0
 40
0.5
  1
Download Revit Family (RFA)
100
AcDbAttributeDefinition
  3

  2
RFA_FAMILY
 70
     8
280
     0
  0
ATTDEF
  5
1A0
330
18F
100
AcDbEntity
  8
AM_6
100
AcDbText
 10
-5.500000000000393
 20
-4.500000000002496
 30
0.0
 40
0.5
  1
daikin
100
AcDbAttributeDefinition
  3

  2
COMPANY
 70
     8
280
     0
  0
ATTDEF
  5
1A1
330
18F
100
AcDbEntity
  8
AM_6
100
AcDbText
 10
-5.500000000000393
 20
-5.000000000002496
 30
0.0
 40
0.5
  1
{$CADENAS_DATA/23d-libs/daikin/unitary/air20handlers/2023/air_handling_unit-multi_position-daikin-dfve.prj},233 {VTYP=3D},{NB=DFVE48DP1400_PART2},{LINA=DFVE48DP1400_PART2},{NN=Air_Handling_Unit-Multi_Position-Daikin-DFVE_PART2},{NOPRJ=TRUE},{DATE=03
100
AcDbAttributeDefinition
  3

  2
PSOL_0
 70
     9
280
     0
  0
ATTDEF
  5
1A2
330
18F
100
AcDbEntity
  8
AM_6
100
AcDbText
 10
-5.500000000000393
 20
-5.500000000002496
 30
0.0
 40
0.5
  1
26 19:23:45},{GEOMDATE=22.09.2025 12:59:40},{VERSION=},{LINEID=50},{WBVAR=},{WBNUMERIC=}  {NB=DFVE48DP1400_PART2},{LINA=DFVE48DP1400_PART2},{KT=DUMMY},{PARTNUMBERMAP09=4_ton_DFVE48DP1400},{PARTNUMBER=DFVE48DP1400},{DESCRIPTION=Multi-Position, Variab
100
AcDbAttributeDefinition
  3

  2
PSOL_1
 70
     9
280
     0
  0
ATTDEF
  5
1A3
330
18F
100
AcDbEntity
  8
AM_6
100
AcDbText
 10
-5.500000000000393
 20
-6.000000000002496
 30
0.0
 40
0.5
  1
ed air handler},{OVERALL_DEPTH=21.000},{OVERALL_HEIGHT=53.500},{OVERALL_WIDTH=24.500},{URL=https://daikincomfort.com},{RFA_FAMILY=Download Revit Family (RFA)},{ORDERNO=4_ton_DFVE48DP1400},{AMBIENT_TEMPERATURE=0},{APPARENT_POWER=1495},{ASSEMBLY_CODE=
100
AcDbAttributeDefinition
  3

  2
PSOL_2
 70
     9
280
     0
  0
ATTDEF
  5
1A4
330
18F
100
AcDbEntity
  8
AM_6
100
AcDbText
 10
-5.500000000000393
 20
-6.500000000002496
 30
0.0
 40
0.5
  1
00},{CATEGORY=Mechanical Equipment},{COIL_AIR_PRESSURE_DROP=0},{CONDENSATE_DRAIN_CONNECTION_DIAMETER=0.75},{CONDENSATE_DRAIN_CONNECTION_RADIUS=0.375},{CONDUIT_ANGLE=90},{CONDUIT_HORIZONTAL_OFFSET=-0.875},{CONDUIT_OFFSET=2.2265625},{CONDUIT_PLACEMENT
100
AcDbAttributeDefinition
  3

  2
PSOL_3
 70
     9
280
     0
  0
ATTDEF
  5
1A5
330
18F
100
AcDbEntity
  8
AM_6
100
AcDbText
 10
-5.500000000000393
 20
-7.000000000002496
 30
0.0
 40
0.5
  1
T=0.177083333333333},{CONDUIT_RADIUS=0.25},{CONDUIT_SIZE=0.5},{COOLING_ENTERING_DRY_BULB_TEMPERATURE=0},{COOLING_ENTERING_WET_BULB_TEMPERATURE=0},{COOLING_LEAVING_DRY_BULB_TEMPERATURE=0},{COOLING_LEAVING_WET_BULB_TEMPERATURE=0},{COST=0},{DEFAULT_ELE
100
AcDbAttributeDefinition
  3

  2
PSOL_4
 70
     9
280
     0
  0
ATTDEF
  5
1A6
330
18F
100
AcDbEntity
  8
AM_6
100
AcDbText
 10
-5.500000000000393
 20
-7.500000000002496
 30
0.0
 40
0.5
  1
=0},{DESIGN_RETURN_AIR_FLOW=0},{DESIGN_SUPPLY_AIR_FLOW=0},{DRAIN_CONNECTION_HORIZONTAL_OFFSET_1=0.3125},{DRAIN_CONNECTION_HORIZONTAL_OFFSET_2=0.447916666666667},{DRAIN_CONNECTION_VERTICAL_OFFSET_1=0.244791666666667},{DRAIN_CONNECTION_VERTICAL_OFFSET
100
AcDbAttributeDefinition
  3

  2
PSOL_5
 70
     9
280
     0
  0
ATTDEF
  5
1A7
330
18F
100
AcDbEntity
  8
AM_6
100
AcDbText
 10
-5.500000000000393
 20
-8.000000000002496
 30
0.0
 40
0.5
  1
35416666666667},{DRAIN_FLOW=0},{DUCT_ANGLE=0},{DUCT_CONNECTION_HORIZONTAL_OFFSET=2.04166666666667},{DUCT_CONNECTION_VERTICAL_OFFSET=4.23046875},{DUCT_OFFSET=2.2265625},{ENCLOSURE_HEIGHT=4.453125},{ENCLOSURE_WIDTH=2.04166666666667},{ENGWORKS_GLOBAL=h
100
AcDbAttributeDefinition
  3

  2
PSOL_6
 70
     9
280
     0
  0
ATTDEF
  5
1A8
330
18F
100
AcDbEntity
  8
AM_6
100
AcDbText
 10
-5.500000000000393
 20
-8.500000000002496
 30
0.0
 40
0.5
  1
www.ENGworksGlobal.com/},{FACE_VELOCITY__FPM_=0},{FAN_DRIVE=Direct Drive},{FAN_FULL_LOAD_AMPS=5.2},{FAN_HORSEPOWER=0.75},{FEET_PRESSURE_DROP=0},{FREQUENCY=60},{GAS_CONNECTION_HORIZONTAL_OFFSET=0.145},{GAS_CONNECTION_VERTICAL_OFFSET=1.79166666666667}
100
AcDbAttributeDefinition
  3

  2
PSOL_7
 70
     9
280
     0
  0
ATTDEF
  5
1A9
330
18F
100
AcDbEntity
  8
AM_6
100
AcDbText
 10
-5.500000000000393
 20
-9.000000000002496
 30
0.0
 40
0.5
  1
ING_ENTERING_DRY_BULB_TEMPERATURE=0},{HEATING_ENTERING_WET_BULB_TEMPERATURE=0},{HEATING_LEAVING_DRY_BULB_TEMPERATURE=0},{HEATING_LEAVING_WET_BULB_TEMPERATURE=0},{HORIZONTAL_DRAIN_HORIZONTAL_OFFSET_1=0.109375},{HORIZONTAL_DRAIN_HORIZONTAL_OFFSET_2=0.
100
AcDbAttributeDefinition
  3

  2
PSOL_8
 70
     9
280
     0
  0
ATTDEF
  5
1AA
330
18F
100
AcDbEntity
  8
AM_6
100
AcDbText
 10
-5.500000000000393
 20
-9.500000000002496
 30
0.0
 40
0.5
  1
HORIZONTAL_DRAIN_VERTICAL_OFFSET_1=0.848958333333333},{HORIZONTAL_DRAIN_VERTICAL_OFFSET_2=0.135416666666667},{LATENT_COOLING_CAPACITY=0},{LIQUID_CONNECTION_HORIZONTAL_OFFSET=0.2225},{LIQUID_CONNECTION_VERTICAL_OFFSET=1.52604166666667},{LOAD_SUB_CLAS
100
AcDbAttributeDefinition
  3

  2
PSOL_9
 70
     9
280
     0
  0
ATTDEF
  5
1AB
330
18F
100
AcDbEntity
  8
AM_6
100
AcDbText
 10
-5.500000000000393
 20
-10.0000000000025
 30
0.0
 40
0.5
  1
TION_MOTOR=1},{MANUFACTURER=Daikin},{MASSUNIT=1},{MAXIMUM_OVERCURRENT_PROTECTION=15},{MINIMUM_CIRCUIT_AMPS=6.5},{MODEL=DFVE48DP1400},{NOMINAL_COOLING_CAPACITY=48000},{NOMINAL_COOLING_CAPACITY__TONS_=4},{NOMINAL_HEATING_CAPACITY=0},{NUMBER_OF_POLES=1
100
AcDbAttributeDefinition
  3

  2
PSOL_10
 70
     9
280
     0
  0
ATTDEF
  5
1AC
330
18F
100
AcDbEntity
  8
AM_6
100
AcDbText
 10
-5.500000000000393
 20
-10.5000000000025
 30
0.0
 40
0.5
  1
ICLASS_NUMBER=23.75.35.14},{OMNICLASS_TITLE=Air Handling Units},{PARTTYPE=Normal},{PHASE=1},{PRODUCT_PAGE_URL=https://daikincomfort.com/products/heating-cooling/whole-house/air-handlers-coils/dfve},{REFRIGERANT_CHARGE=0},{REFRIGERANT_CHARGE_VALUE=0}
100
AcDbAttributeDefinition
  3

  2
PSOL_11
 70
     9
280
     0
  0
ATTDEF
  5
1AD
330
18F
100
AcDbEntity
  8
AM_6
100
AcDbText
 10
-5.500000000000393
 20
-11.0000000000025
 30
0.0
 40
0.5
  1
IGERANT_LIQUID_CONNECTION_DIAMETER=0.375},{REFRIGERANT_LIQUID_CONNECTION_HORIZONTAL_OFFSET=0.2225},{REFRIGERANT_LIQUID_CONNECTION_RADIUS=0.1875},{REFRIGERANT_LIQUID_CONNECTION_VERTICAL_OFFSET=1.52604166666667},{REFRIGERANT_SUCTION_GAS_CONNECTION_DIA
100
AcDbAttributeDefinition
  3

  2
PSOL_12
 70
     9
280
     0
  0
ATTDEF
  5
1AE
330
18F
100
AcDbEntity
  8
AM_6
100
AcDbText
 10
-5.500000000000393
 20
-11.5000000000025
 30
0.0
 40
0.5
  1
0.875},{REFRIGERANT_SUCTION_GAS_CONNECTION_HORIZONTAL_OFFSET=0.145},{REFRIGERANT_SUCTION_GAS_CONNECTION_RADIUS=0.4375},{REFRIGERANT_SUCTION_GAS_CONNECTION_VERTICAL_OFFSET=1.79166666666667},{REFRIGERANT_USED=R-410A},{RETURN_AIR_CONNECTION_HEIGHT=19.5
100
AcDbAttributeDefinition
  3

  2
PSOL_13
 70
     9
280
     0
  0
ATTDEF
  5
1AF
330
18F
100
AcDbEntity
  8
AM_6
100
AcDbText
 10
-5.500000000000393
 20
-12.0000000000025
 30
0.0
 40
0.5
  1
URN_AIR_CONNECTION_VERTICAL_OFFSET=0.8575},{RETURN_AIR_CONNECTION_WIDTH=21.1875},{RETURN_AIR_OUTLET_VERTICAL_OFFSET=0.045},{RETURN_AIR_PRESSURE_DROP=0},{SENSIBLE_COOLING_CAPACITY=0},{SERIES=DFVE},{SIDE_CONDUIT_CONNECTION=0},{SIDE_CONDUIT_HORIZONTAL_
100
AcDbAttributeDefinition
  3

  2
PSOL_14
 70
     9
280
     0
  0
ATTDEF
  5
1B0
330
18F
100
AcDbEntity
  8
AM_6
100
AcDbText
 10
-5.500000000000393
 20
-12.5000000000025
 30
0.0
 40
0.5
  1
=0.114583333333333},{SIDE_CONDUIT_HORIZONTAL_OFFSET_1=0.114583333333333},{SIDE_CONDUIT_HORIZONTAL_OFFSET_2=0.260416666666667},{SIDE_CONDUIT_HORIZONTAL_OFFSET_3=0.427083333333333},{SIDE_CONDUIT_HORIZONTAL_OFFSET_4=0.625},{SIDE_CONDUIT_VERTICAL_OFFSET
100
AcDbAttributeDefinition
  3

  2
PSOL_15
 70
     9
280
     0
  0
ATTDEF
  5
1B1
330
18F
100
AcDbEntity
  8
AM_6
100
AcDbText
 10
-5.500000000000393
 20
-13.0000000000025
 30
0.0
 40
0.5
  1
833333333333},{STANDARDS=AHRI Certified; ETL Listed},{SUPPLY_AIR_CONNECTION_HEIGHT=11.3},{SUPPLY_AIR_CONNECTION_VERTICAL_OFFSET=0.514166666666667},{SUPPLY_AIR_CONNECTION_WIDTH=23.3125},{SUPPLY_AIR_FLOW=1380},{SUPPLY_AIR_OUTLET_VERTICAL_OFFSET=0.0433
100
AcDbAttributeDefinition
  3

  2
PSOL_16
 70
     9
280
     0
  0
ATTDEF
  5
1B2
330
18F
100
AcDbEntity
  8
AM_6
100
AcDbText
 10
-5.500000000000393
 20
-13.5000000000025
 30
0.0
 40
0.5
  1
333333},{SUPPLY_AIR_PRESSURE_DROP=0},{TOP_CONDUIT_CONNECTION=1},{TOP_CONDUIT_HORIZONTAL_OFFSET=0.145833333333333},{TOP_CONDUIT_VERTICAL_OFFSET=0.177083333333333},{TOP_CONDUIT_VERTICAL_OFFSET_1=0.177083333333333},{TOP_CONDUIT_VERTICAL_OFFSET_2=0.3593
100
AcDbAttributeDefinition
  3

  2
PSOL_17
 70
     9
280
     0
  0
ATTDEF
  5
1B3
330
18F
100
AcDbEntity
  8
AM_6
100
AcDbText
 10
-5.500000000000393
 20
-14.0000000000025
 30
0.0
 40
0.5
  1
OP_CONDUIT_VERTICAL_OFFSET_3=0.510416666666667},{TOTAL_COOLING_CAPACITY=0},{TOTAL_HEATING_CAPACITY=0},{TOTAL_STATIC_PRESSURE=0},{UNIT_WEIGHT=150},{UNIT_WEIGHT_VALUE=150},{VERSION=1},{VERTICAL_DRAIN_HORIZONTAL_OFFSET_1=0.3125},{VERTICAL_DRAIN_HORIZON
100
AcDbAttributeDefinition
  3

  2
PSOL_18
 70
     9
280
     0
  0
ATTDEF
  5
1B4
330
18F
100
AcDbEntity
  8
AM_6
100
AcDbText
 10
-5.500000000000393
 20
-14.5000000000025
 30
0.0
 40
0.5
  1
FSET_2=0.135416666666667},{VERTICAL_DRAIN_VERTICAL_OFFSET_1=0.244791666666667},{VERTICAL_DRAIN_VERTICAL_OFFSET_2=0.135416666666667},{VOLTAGE=230},{VOLTAGE_COMMENTS=208 VAC - 230 VAC},{VAR___CONDUIT_PLACEMENT_SELECTOR=1},{VAR___UNIT_POSITION_CONFIGUR
100
AcDbAttributeDefinition
  3

  2
PSOL_19
 70
     9
280
     0
  0
ATTDEF
  5
1B5
330
18F
100
AcDbEntity
  8
AM_6
100
AcDbText
 10
-5.500000000000393
 20
-15.0000000000025
 30
0.0
 40
0.5
  1
SELECTOR=1},{VAR___CONDUIT_PLACEMENT_OPTION_1=1},{VAR___UPFLOW_OPTION=1},{VAR___CONDUIT_PLACEMENT_OPTION_2=0},{VAR___DOWNFLOW_OPTION=0},{VAR___CONDUIT_PLACEMENT_OPTION_3=0},{VAR___HORIZONTAL_LEFT_OPTION=0},{VAR___CONDUIT_PLACEMENT_OPTION_4___SIDE_ON
100
AcDbAttributeDefinition
  3

  2
PSOL_20
 70
     9
280
     0
  0
ATTDEF
  5
1B6
330
18F
100
AcDbEntity
  8
AM_6
100
AcDbText
 10
-5.500000000000393
 20
-15.5000000000025
 30
0.0
 40
0.5
  1
{VAR___HORIZONTAL_RIGHT_OPTION=0},{DEFAULTSORTATTR=1850},{RFA_FAMILY_=../../../_pool_/69/dd/air_handling_unit-multi_position-daikin-dfve.zip},{RFA_FAMILY_ENG=../../../_pool_/69/dd/air_handling_unit-multi_position-daikin-dfve.zip},{REVIT_FAMILY_DOWNL
100
AcDbAttributeDefinition
  3

  2
PSOL_21
 70
     9
280
     0
  0
ATTDEF
  5
1B7
330
18F
100
AcDbEntity
  8
AM_6
100
AcDbText
 10
-5.500000000000393
 20
-16.00000000000249
 30
0.0
 40
0.5
  1
/../../_pool_/69/dd/air_handling_unit-multi_position-daikin-dfve.zip},{PN=4_ton_DFVE48DP1400}
100
AcDbAttributeDefinition
  3

  2
PSOL_22
 70
     9
280
     0
  0
LINE
  5
1B8
330
18F
100
AcDbEntity
  8
AM_0
100
AcDbLine
 10
-10.53125000000028
 20
1.249999999997504
 30
0.0
 11
-10.53125000000028
 21
1.999999999997504
 31
0.0
  0
LINE
  5
1B9
330
18F
100
AcDbEntity
  8
AM_0
100
AcDbLine
 10
-10.50000000000039
 20
1.999999999997504
 30
0.0
 11
-10.53125000000028
 21
1.999999999997504
 31
0.0
  0
LINE
  5
1BA
330
18F
100
AcDbEntity
  8
AM_0
100
AcDbLine
 10
-10.53125000000028
 20
1.249999999997504
 30
0.0
 11
-10.50000000000039
 21
1.249999999997504
 31
0.0
  0
ENDBLK
  5
192
330
18F
100
AcDbEntity
  8
0
100
AcDbBlockEnd
  0
BLOCK
  5
1BD
330
1BB
100
AcDbEntity
  8
0
100
AcDbBlockBegin
  2
8_DFVE48DP1400_PART1_0_in_DFVE48DP1400_2
 70
     2
 10
0.0
 20
0.0
 30
0.0
  3
8_DFVE48DP1400_PART1_0_in_DFVE48DP1400_2
  1

  0
ATTDEF
  5
1BF
330
1BB
100
AcDbEntity
  8
AM_6
100
AcDbText
 10
15.49999999999896
 20
53.43749999999766
 30
0.0
 40
0.5
  1
DFVE48DP1400_PART1
100
AcDbAttributeDefinition
  3

  2
NB
 70
     8
280
     0
  0
ATTDEF
  5
1C0
330
1BB
100
AcDbEntity
  8
AM_6
100
AcDbText
 10
15.49999999999896
 20
52.93749999999766
 30
0.0
 40
0.5
  1

100
AcDbAttributeDefinition
  3

  2
NN
 70
     8
280
     0
  0
ATTDEF
  5
1C1
330
1BB
100
AcDbEntity
  8
AM_6
100
AcDbText
 10
15.49999999999896
 20
52.43749999999766
 30
0.0
 40
0.5
  1

100
AcDbAttributeDefinition
  3

  2
NT
 70
     8
280
     0
  0
ATTDEF
  5
1C2
330
1BB
100
AcDbEntity
  8
AM_6
100
AcDbText
 10
15.49999999999896
 20
51.93749999999766
 30
0.0
 40
0.5
  1
$PARTNUMBER._PART1
100
AcDbAttributeDefinition
  3

  2
NBSYN
 70
     8
280
     0
  0
ATTDEF
  5
1C3
330
1BB
100
AcDbEntity
  8
AM_6
100
AcDbText
 10
15.49999999999896
 20
51.43749999999766
 30
0.0
 40
0.5
  1
DFVE48DP1400_PART1
100
AcDbAttributeDefinition
  3

  2
LINA
 70
     8
280
     0
  0
ATTDEF
  5
1C4
330
1BB
100
AcDbEntity
  8
AM_6
100
AcDbText
 10
15.49999999999896
 20
50.93749999999766
 30
0.0
 40
0.5
  1
Daikin
100
AcDbAttributeDefinition
  3

  2
CATALOG
 70
     8
280
     0
  0
ATTDEF
  5
1C5
330
1BB
100
AcDbEntity
  8
AM_6
100
AcDbText
 10
15.49999999999896
 20
50.43749999999766
 30
0.0
 40
0.5
  1
DFVE48DP1400
100
AcDbAttributeDefinition
  3

  2
PARTNUMBER
 70
     8
280
     0
  0
ATTDEF
  5
1C6
330
1BB
100
AcDbEntity
  8
AM_6
100
AcDbText
 10
15.49999999999896
 20
49.93749999999766
 30
0.0
 40
0.5
  1
Multi-Position, Variable-Speed air handler
100
AcDbAttributeDefinition
  3

  2
DESCRIPTION
 70
     8
280
     0
  0
ATTDEF
  5
1C7
330
1BB
100
AcDbEntity
  8
AM_6
100
AcDbText
 10
15.49999999999896
 20
49.43749999999766
 30
0.0
 40
0.5
  1
21.000
100
AcDbAttributeDefinition
  3

  2
OVERALL_DEPTH
 70
     8
280
     0
  0
ATTDEF
  5
1C8
330
1BB
100
AcDbEntity
  8
AM_6
100
AcDbText
 10
15.49999999999896
 20
48.93749999999766
 30
0.0
 40
0.5
  1
53.500
100
AcDbAttributeDefinition
  3

  2
OVERALL_HEIGHT
 70
     8
280
     0
  0
ATTDEF
  5
1C9
330
1BB
100
AcDbEntity
  8
AM_6
100
AcDbText
 10
15.49999999999896
 20
48.43749999999766
 30
0.0
 40
0.5
  1
24.500
100
AcDbAttributeDefinition
  3

  2
OVERALL_WIDTH
 70
     8
280
     0
  0
ATTDEF
  5
1CA
330
1BB
100
AcDbEntity
  8
AM_6
100
AcDbText
 10
15.49999999999896
 20
47.93749999999766
 30
0.0
 40
0.5
  1
https://daikincomfort.com
100
AcDbAttributeDefinition
  3

  2
URL
 70
     8
280
     0
  0
ATTDEF
  5
1CB
330
1BB
100
AcDbEntity
  8
AM_6
100
AcDbText
 10
15.49999999999896
 20
47.43749999999766
 30
0.0
 40
0.5
  1
Download Revit Family (RFA)
100
AcDbAttributeDefinition
  3

  2
RFA_FAMILY
 70
     8
280
     0
  0
ATTDEF
  5
1CC
330
1BB
100
AcDbEntity
  8
AM_6
100
AcDbText
 10
15.49999999999896
 20
46.93749999999766
 30
0.0
 40
0.5
  1
daikin
100
AcDbAttributeDefinition
  3

  2
COMPANY
 70
     8
280
     0
  0
ATTDEF
  5
1CD
330
1BB
100
AcDbEntity
  8
AM_6
100
AcDbText
 10
15.49999999999896
 20
46.43749999999766
 30
0.0
 40
0.5
  1
{$CADENAS_DATA/23d-libs/daikin/unitary/air20handlers/2023/air_handling_unit-multi_position-daikin-dfve.prj},233 {VTYP=3D},{NB=DFVE48DP1400_PART1},{LINA=DFVE48DP1400_PART1},{NN=Air_Handling_Unit-Multi_Position-Daikin-DFVE_PART1},{NOPRJ=TRUE},{DATE=03
100
AcDbAttributeDefinition
  3

  2
PSOL_0
 70
     9
280
     0
  0
ATTDEF
  5
1CE
330
1BB
100
AcDbEntity
  8
AM_6
100
AcDbText
 10
15.49999999999896
 20
45.93749999999766
 30
0.0
 40
0.5
  1
26 19:23:45},{GEOMDATE=22.09.2025 12:59:40},{VERSION=},{LINEID=50},{WBVAR=},{WBNUMERIC=}  {NB=DFVE48DP1400_PART1},{LINA=DFVE48DP1400_PART1},{KT=DUMMY},{PARTNUMBERMAP09=4_ton_DFVE48DP1400},{PARTNUMBER=DFVE48DP1400},{DESCRIPTION=Multi-Position, Variab
100
AcDbAttributeDefinition
  3

  2
PSOL_1
 70
     9
280
     0
  0
ATTDEF
  5
1CF
330
1BB
100
AcDbEntity
  8
AM_6
100
AcDbText
 10
15.49999999999896
 20
45.43749999999766
 30
0.0
 40
0.5
  1
ed air handler},{OVERALL_DEPTH=21.000},{OVERALL_HEIGHT=53.500},{OVERALL_WIDTH=24.500},{URL=https://daikincomfort.com},{RFA_FAMILY=Download Revit Family (RFA)},{ORDERNO=4_ton_DFVE48DP1400},{AMBIENT_TEMPERATURE=0},{APPARENT_POWER=1495},{ASSEMBLY_CODE=
100
AcDbAttributeDefinition
  3

  2
PSOL_2
 70
     9
280
     0
  0
ATTDEF
  5
1D0
330
1BB
100
AcDbEntity
  8
AM_6
100
AcDbText
 10
15.49999999999896
 20
44.93749999999766
 30
0.0
 40
0.5
  1
00},{CATEGORY=Mechanical Equipment},{COIL_AIR_PRESSURE_DROP=0},{CONDENSATE_DRAIN_CONNECTION_DIAMETER=0.75},{CONDENSATE_DRAIN_CONNECTION_RADIUS=0.375},{CONDUIT_ANGLE=90},{CONDUIT_HORIZONTAL_OFFSET=-0.875},{CONDUIT_OFFSET=2.2265625},{CONDUIT_PLACEMENT
100
AcDbAttributeDefinition
  3

  2
PSOL_3
 70
     9
280
     0
  0
ATTDEF
  5
1D1
330
1BB
100
AcDbEntity
  8
AM_6
100
AcDbText
 10
15.49999999999896
 20
44.43749999999766
 30
0.0
 40
0.5
  1
T=0.177083333333333},{CONDUIT_RADIUS=0.25},{CONDUIT_SIZE=0.5},{COOLING_ENTERING_DRY_BULB_TEMPERATURE=0},{COOLING_ENTERING_WET_BULB_TEMPERATURE=0},{COOLING_LEAVING_DRY_BULB_TEMPERATURE=0},{COOLING_LEAVING_WET_BULB_TEMPERATURE=0},{COST=0},{DEFAULT_ELE
100
AcDbAttributeDefinition
  3

  2
PSOL_4
 70
     9
280
     0
  0
ATTDEF
  5
1D2
330
1BB
100
AcDbEntity
  8
AM_6
100
AcDbText
 10
15.49999999999896
 20
43.93749999999766
 30
0.0
 40
0.5
  1
=0},{DESIGN_RETURN_AIR_FLOW=0},{DESIGN_SUPPLY_AIR_FLOW=0},{DRAIN_CONNECTION_HORIZONTAL_OFFSET_1=0.3125},{DRAIN_CONNECTION_HORIZONTAL_OFFSET_2=0.447916666666667},{DRAIN_CONNECTION_VERTICAL_OFFSET_1=0.244791666666667},{DRAIN_CONNECTION_VERTICAL_OFFSET
100
AcDbAttributeDefinition
  3

  2
PSOL_5
 70
     9
280
     0
  0
ATTDEF
  5
1D3
330
1BB
100
AcDbEntity
  8
AM_6
100
AcDbText
 10
15.49999999999896
 20
43.43749999999766
 30
0.0
 40
0.5
  1
35416666666667},{DRAIN_FLOW=0},{DUCT_ANGLE=0},{DUCT_CONNECTION_HORIZONTAL_OFFSET=2.04166666666667},{DUCT_CONNECTION_VERTICAL_OFFSET=4.23046875},{DUCT_OFFSET=2.2265625},{ENCLOSURE_HEIGHT=4.453125},{ENCLOSURE_WIDTH=2.04166666666667},{ENGWORKS_GLOBAL=h
100
AcDbAttributeDefinition
  3

  2
PSOL_6
 70
     9
280
     0
  0
ATTDEF
  5
1D4
330
1BB
100
AcDbEntity
  8
AM_6
100
AcDbText
 10
15.49999999999896
 20
42.93749999999766
 30
0.0
 40
0.5
  1
www.ENGworksGlobal.com/},{FACE_VELOCITY__FPM_=0},{FAN_DRIVE=Direct Drive},{FAN_FULL_LOAD_AMPS=5.2},{FAN_HORSEPOWER=0.75},{FEET_PRESSURE_DROP=0},{FREQUENCY=60},{GAS_CONNECTION_HORIZONTAL_OFFSET=0.145},{GAS_CONNECTION_VERTICAL_OFFSET=1.79166666666667}
100
AcDbAttributeDefinition
  3

  2
PSOL_7
 70
     9
280
     0
  0
ATTDEF
  5
1D5
330
1BB
100
AcDbEntity
  8
AM_6
100
AcDbText
 10
15.49999999999896
 20
42.43749999999766
 30
0.0
 40
0.5
  1
ING_ENTERING_DRY_BULB_TEMPERATURE=0},{HEATING_ENTERING_WET_BULB_TEMPERATURE=0},{HEATING_LEAVING_DRY_BULB_TEMPERATURE=0},{HEATING_LEAVING_WET_BULB_TEMPERATURE=0},{HORIZONTAL_DRAIN_HORIZONTAL_OFFSET_1=0.109375},{HORIZONTAL_DRAIN_HORIZONTAL_OFFSET_2=0.
100
AcDbAttributeDefinition
  3

  2
PSOL_8
 70
     9
280
     0
  0
ATTDEF
  5
1D6
330
1BB
100
AcDbEntity
  8
AM_6
100
AcDbText
 10
15.49999999999896
 20
41.93749999999766
 30
0.0
 40
0.5
  1
HORIZONTAL_DRAIN_VERTICAL_OFFSET_1=0.848958333333333},{HORIZONTAL_DRAIN_VERTICAL_OFFSET_2=0.135416666666667},{LATENT_COOLING_CAPACITY=0},{LIQUID_CONNECTION_HORIZONTAL_OFFSET=0.2225},{LIQUID_CONNECTION_VERTICAL_OFFSET=1.52604166666667},{LOAD_SUB_CLAS
100
AcDbAttributeDefinition
  3

  2
PSOL_9
 70
     9
280
     0
  0
ATTDEF
  5
1D7
330
1BB
100
AcDbEntity
  8
AM_6
100
AcDbText
 10
15.49999999999896
 20
41.43749999999766
 30
0.0
 40
0.5
  1
TION_MOTOR=1},{MANUFACTURER=Daikin},{MASSUNIT=1},{MAXIMUM_OVERCURRENT_PROTECTION=15},{MINIMUM_CIRCUIT_AMPS=6.5},{MODEL=DFVE48DP1400},{NOMINAL_COOLING_CAPACITY=48000},{NOMINAL_COOLING_CAPACITY__TONS_=4},{NOMINAL_HEATING_CAPACITY=0},{NUMBER_OF_POLES=1
100
AcDbAttributeDefinition
  3

  2
PSOL_10
 70
     9
280
     0
  0
ATTDEF
  5
1D8
330
1BB
100
AcDbEntity
  8
AM_6
100
AcDbText
 10
15.49999999999896
 20
40.93749999999766
 30
0.0
 40
0.5
  1
ICLASS_NUMBER=23.75.35.14},{OMNICLASS_TITLE=Air Handling Units},{PARTTYPE=Normal},{PHASE=1},{PRODUCT_PAGE_URL=https://daikincomfort.com/products/heating-cooling/whole-house/air-handlers-coils/dfve},{REFRIGERANT_CHARGE=0},{REFRIGERANT_CHARGE_VALUE=0}
100
AcDbAttributeDefinition
  3

  2
PSOL_11
 70
     9
280
     0
  0
ATTDEF
  5
1D9
330
1BB
100
AcDbEntity
  8
AM_6
100
AcDbText
 10
15.49999999999896
 20
40.43749999999766
 30
0.0
 40
0.5
  1
IGERANT_LIQUID_CONNECTION_DIAMETER=0.375},{REFRIGERANT_LIQUID_CONNECTION_HORIZONTAL_OFFSET=0.2225},{REFRIGERANT_LIQUID_CONNECTION_RADIUS=0.1875},{REFRIGERANT_LIQUID_CONNECTION_VERTICAL_OFFSET=1.52604166666667},{REFRIGERANT_SUCTION_GAS_CONNECTION_DIA
100
AcDbAttributeDefinition
  3

  2
PSOL_12
 70
     9
280
     0
  0
ATTDEF
  5
1DA
330
1BB
100
AcDbEntity
  8
AM_6
100
AcDbText
 10
15.49999999999896
 20
39.93749999999766
 30
0.0
 40
0.5
  1
0.875},{REFRIGERANT_SUCTION_GAS_CONNECTION_HORIZONTAL_OFFSET=0.145},{REFRIGERANT_SUCTION_GAS_CONNECTION_RADIUS=0.4375},{REFRIGERANT_SUCTION_GAS_CONNECTION_VERTICAL_OFFSET=1.79166666666667},{REFRIGERANT_USED=R-410A},{RETURN_AIR_CONNECTION_HEIGHT=19.5
100
AcDbAttributeDefinition
  3

  2
PSOL_13
 70
     9
280
     0
  0
ATTDEF
  5
1DB
330
1BB
100
AcDbEntity
  8
AM_6
100
AcDbText
 10
15.49999999999896
 20
39.43749999999766
 30
0.0
 40
0.5
  1
URN_AIR_CONNECTION_VERTICAL_OFFSET=0.8575},{RETURN_AIR_CONNECTION_WIDTH=21.1875},{RETURN_AIR_OUTLET_VERTICAL_OFFSET=0.045},{RETURN_AIR_PRESSURE_DROP=0},{SENSIBLE_COOLING_CAPACITY=0},{SERIES=DFVE},{SIDE_CONDUIT_CONNECTION=0},{SIDE_CONDUIT_HORIZONTAL_
100
AcDbAttributeDefinition
  3

  2
PSOL_14
 70
     9
280
     0
  0
ATTDEF
  5
1DC
330
1BB
100
AcDbEntity
  8
AM_6
100
AcDbText
 10
15.49999999999896
 20
38.93749999999766
 30
0.0
 40
0.5
  1
=0.114583333333333},{SIDE_CONDUIT_HORIZONTAL_OFFSET_1=0.114583333333333},{SIDE_CONDUIT_HORIZONTAL_OFFSET_2=0.260416666666667},{SIDE_CONDUIT_HORIZONTAL_OFFSET_3=0.427083333333333},{SIDE_CONDUIT_HORIZONTAL_OFFSET_4=0.625},{SIDE_CONDUIT_VERTICAL_OFFSET
100
AcDbAttributeDefinition
  3

  2
PSOL_15
 70
     9
280
     0
  0
ATTDEF
  5
1DD
330
1BB
100
AcDbEntity
  8
AM_6
100
AcDbText
 10
15.49999999999896
 20
38.43749999999766
 30
0.0
 40
0.5
  1
833333333333},{STANDARDS=AHRI Certified; ETL Listed},{SUPPLY_AIR_CONNECTION_HEIGHT=11.3},{SUPPLY_AIR_CONNECTION_VERTICAL_OFFSET=0.514166666666667},{SUPPLY_AIR_CONNECTION_WIDTH=23.3125},{SUPPLY_AIR_FLOW=1380},{SUPPLY_AIR_OUTLET_VERTICAL_OFFSET=0.0433
100
AcDbAttributeDefinition
  3

  2
PSOL_16
 70
     9
280
     0
  0
ATTDEF
  5
1DE
330
1BB
100
AcDbEntity
  8
AM_6
100
AcDbText
 10
15.49999999999896
 20
37.93749999999766
 30
0.0
 40
0.5
  1
333333},{SUPPLY_AIR_PRESSURE_DROP=0},{TOP_CONDUIT_CONNECTION=1},{TOP_CONDUIT_HORIZONTAL_OFFSET=0.145833333333333},{TOP_CONDUIT_VERTICAL_OFFSET=0.177083333333333},{TOP_CONDUIT_VERTICAL_OFFSET_1=0.177083333333333},{TOP_CONDUIT_VERTICAL_OFFSET_2=0.3593
100
AcDbAttributeDefinition
  3

  2
PSOL_17
 70
     9
280
     0
  0
ATTDEF
  5
1DF
330
1BB
100
AcDbEntity
  8
AM_6
100
AcDbText
 10
15.49999999999896
 20
37.43749999999766
 30
0.0
 40
0.5
  1
OP_CONDUIT_VERTICAL_OFFSET_3=0.510416666666667},{TOTAL_COOLING_CAPACITY=0},{TOTAL_HEATING_CAPACITY=0},{TOTAL_STATIC_PRESSURE=0},{UNIT_WEIGHT=150},{UNIT_WEIGHT_VALUE=150},{VERSION=1},{VERTICAL_DRAIN_HORIZONTAL_OFFSET_1=0.3125},{VERTICAL_DRAIN_HORIZON
100
AcDbAttributeDefinition
  3

  2
PSOL_18
 70
     9
280
     0
  0
ATTDEF
  5
1E0
330
1BB
100
AcDbEntity
  8
AM_6
100
AcDbText
 10
15.49999999999896
 20
36.93749999999766
 30
0.0
 40
0.5
  1
FSET_2=0.135416666666667},{VERTICAL_DRAIN_VERTICAL_OFFSET_1=0.244791666666667},{VERTICAL_DRAIN_VERTICAL_OFFSET_2=0.135416666666667},{VOLTAGE=230},{VOLTAGE_COMMENTS=208 VAC - 230 VAC},{VAR___CONDUIT_PLACEMENT_SELECTOR=1},{VAR___UNIT_POSITION_CONFIGUR
100
AcDbAttributeDefinition
  3

  2
PSOL_19
 70
     9
280
     0
  0
ATTDEF
  5
1E1
330
1BB
100
AcDbEntity
  8
AM_6
100
AcDbText
 10
15.49999999999896
 20
36.43749999999766
 30
0.0
 40
0.5
  1
SELECTOR=1},{VAR___CONDUIT_PLACEMENT_OPTION_1=1},{VAR___UPFLOW_OPTION=1},{VAR___CONDUIT_PLACEMENT_OPTION_2=0},{VAR___DOWNFLOW_OPTION=0},{VAR___CONDUIT_PLACEMENT_OPTION_3=0},{VAR___HORIZONTAL_LEFT_OPTION=0},{VAR___CONDUIT_PLACEMENT_OPTION_4___SIDE_ON
100
AcDbAttributeDefinition
  3

  2
PSOL_20
 70
     9
280
     0
  0
ATTDEF
  5
1E2
330
1BB
100
AcDbEntity
  8
AM_6
100
AcDbText
 10
15.49999999999896
 20
35.93749999999766
 30
0.0
 40
0.5
  1
{VAR___HORIZONTAL_RIGHT_OPTION=0},{DEFAULTSORTATTR=1850},{RFA_FAMILY_=../../../_pool_/69/dd/air_handling_unit-multi_position-daikin-dfve.zip},{RFA_FAMILY_ENG=../../../_pool_/69/dd/air_handling_unit-multi_position-daikin-dfve.zip},{REVIT_FAMILY_DOWNL
100
AcDbAttributeDefinition
  3

  2
PSOL_21
 70
     9
280
     0
  0
ATTDEF
  5
1E3
330
1BB
100
AcDbEntity
  8
AM_6
100
AcDbText
 10
15.49999999999896
 20
35.43749999999766
 30
0.0
 40
0.5
  1
/../../_pool_/69/dd/air_handling_unit-multi_position-daikin-dfve.zip},{PN=4_ton_DFVE48DP1400}
100
AcDbAttributeDefinition
  3

  2
PSOL_22
 70
     9
280
     0
  0
LINE
  5
1E4
330
1BB
100
AcDbEntity
  8
AM_9
100
AcDbLine
 10
-10.04000000000027
 20
1.335937499997394
 30
0.0
 11
-10.04000000000027
 21
-0.0000000000025797
 31
0.0
  0
LINE
  5
1E5
330
1BB
100
AcDbEntity
  8
AM_9
100
AcDbLine
 10
9.459999999999726
 20
1.335937499997457
 30
0.0
 11
9.459999999999726
 21
-0.0000000000025225
 31
0.0
  0
LINE
  5
1E6
330
1BB
100
AcDbEntity
  8
AM_9
100
AcDbLine
 10
-10.04000000000027
 20
1.335937499997394
 30
0.0
 11
9.459999999999726
 21
1.335937499997457
 31
0.0
  0
LINE
  5
1E7
330
1BB
100
AcDbEntity
  8
AM_9
100
AcDbLine
 10
-1.320000000000275
 20
52.10156249999763
 30
0.0
 11
-1.320000000000275
 21
53.43749999999763
 31
0.0
  0
LINE
  5
1E8
330
1BB
100
AcDbEntity
  8
AM_9
100
AcDbLine
 10
9.979999999999727
 20
52.10156249999763
 30
0.0
 11
-1.320000000000275
 21
52.10156249999763
 31
0.0
  0
LINE
  5
1E9
330
1BB
100
AcDbEntity
  8
AM_9
100
AcDbLine
 10
9.979999999999725
 20
53.43749999999763
 30
0.0
 11
9.979999999999727
 21
52.10156249999763
 31
0.0
  0
LINE
  5
1EA
330
1BB
100
AcDbEntity
  8
AM_0
100
AcDbLine
 10
-10.50000000000102
 20
-0.0000000000026059
 30
0.0
 11
-10.50000000000119
 21
53.43749999999763
 31
0.0
  0
LINE
  5
1EB
330
1BB
100
AcDbEntity
  8
AM_0
100
AcDbLine
 10
10.49999999999879
 20
53.43749999999766
 30
0.0
 11
10.49999999999896
 21
-0.0000000000025361
 31
0.0
  0
LINE
  5
1EC
330
1BB
100
AcDbEntity
  8
AM_0
100
AcDbLine
 10
10.49999999999896
 20
-0.0000000000025361
 30
0.0
 11
-10.50000000000102
 21
-0.0000000000026059
 31
0.0
  0
LINE
  5
1ED
330
1BB
100
AcDbEntity
  8
AM_0
100
AcDbLine
 10
10.49999999999879
 20
53.43749999999766
 30
0.0
 11
-10.50000000000119
 21
53.43749999999763
 31
0.0
  0
ENDBLK
  5
1BE
330
1BB
100
AcDbEntity
  8
0
100
AcDbBlockEnd
  0
ENDSEC
  0
SECTION
  2
ENTITIES
  0
ATTDEF
  5
5F
330
1F
100
AcDbEntity
  8
AM_6
100
AcDbText
 10
15.49999999999896
 20
53.49999999999764
 30
0.0
 40
0.5
  1
DFVE48DP1400
100
AcDbAttributeDefinition
  3

  2
NB
 70
     8
280
     0
  0
ATTDEF
  5
60
330
1F
100
AcDbEntity
  8
AM_6
100
AcDbText
 10
15.49999999999896
 20
52.99999999999764
 30
0.0
 40
0.5
  1
Air_Handling_Unit-Multi_Position-Daikin-DFVE
100
AcDbAttributeDefinition
  3

  2
NN
 70
     8
280
     0
  0
ATTDEF
  5
61
330
1F
100
AcDbEntity
  8
AM_6
100
AcDbText
 10
15.49999999999896
 20
52.49999999999764
 30
0.0
 40
0.5
  1

100
AcDbAttributeDefinition
  3

  2
NT
 70
     8
280
     0
  0
ATTDEF
  5
62
330
1F
100
AcDbEntity
  8
AM_6
100
AcDbText
 10
15.49999999999896
 20
51.99999999999764
 30
0.0
 40
0.5
  1
$PARTNUMBER.
100
AcDbAttributeDefinition
  3

  2
NBSYN
 70
     8
280
     0
  0
ATTDEF
  5
63
330
1F
100
AcDbEntity
  8
AM_6
100
AcDbText
 10
15.49999999999896
 20
51.49999999999764
 30
0.0
 40
0.5
  1
DFVE48DP1400
100
AcDbAttributeDefinition
  3

  2
LINA
 70
     8
280
     0
  0
ATTDEF
  5
64
330
1F
100
AcDbEntity
  8
AM_6
100
AcDbText
 10
15.49999999999896
 20
50.99999999999764
 30
0.0
 40
0.5
  1
Daikin
100
AcDbAttributeDefinition
  3

  2
CATALOG
 70
     8
280
     0
  0
ATTDEF
  5
65
330
1F
100
AcDbEntity
  8
AM_6
100
AcDbText
 10
15.49999999999896
 20
50.49999999999764
 30
0.0
 40
0.5
  1
DFVE48DP1400
100
AcDbAttributeDefinition
  3

  2
PARTNUMBER
 70
     8
280
     0
  0
ATTDEF
  5
66
330
1F
100
AcDbEntity
  8
AM_6
100
AcDbText
 10
15.49999999999896
 20
49.99999999999764
 30
0.0
 40
0.5
  1
Multi-Position, Variable-Speed air handler
100
AcDbAttributeDefinition
  3

  2
DESCRIPTION
 70
     8
280
     0
  0
ATTDEF
  5
67
330
1F
100
AcDbEntity
  8
AM_6
100
AcDbText
 10
15.49999999999896
 20
49.49999999999764
 30
0.0
 40
0.5
  1
21.000
100
AcDbAttributeDefinition
  3

  2
OVERALL_DEPTH
 70
     8
280
     0
  0
ATTDEF
  5
68
330
1F
100
AcDbEntity
  8
AM_6
100
AcDbText
 10
15.49999999999896
 20
48.99999999999764
 30
0.0
 40
0.5
  1
53.500
100
AcDbAttributeDefinition
  3

  2
OVERALL_HEIGHT
 70
     8
280
     0
  0
ATTDEF
  5
69
330
1F
100
AcDbEntity
  8
AM_6
100
AcDbText
 10
15.49999999999896
 20
48.49999999999764
 30
0.0
 40
0.5
  1
24.500
100
AcDbAttributeDefinition
  3

  2
OVERALL_WIDTH
 70
     8
280
     0
  0
ATTDEF
  5
6A
330
1F
100
AcDbEntity
  8
AM_6
100
AcDbText
 10
15.49999999999896
 20
47.99999999999764
 30
0.0
 40
0.5
  1
https://daikincomfort.com
100
AcDbAttributeDefinition
  3

  2
URL
 70
     8
280
     0
  0
ATTDEF
  5
6B
330
1F
100
AcDbEntity
  8
AM_6
100
AcDbText
 10
15.49999999999896
 20
47.49999999999764
 30
0.0
 40
0.5
  1
Download Revit Family (RFA)
100
AcDbAttributeDefinition
  3

  2
RFA_FAMILY
 70
     8
280
     0
  0
ATTDEF
  5
6C
330
1F
100
AcDbEntity
  8
AM_6
100
AcDbText
 10
15.49999999999896
 20
46.99999999999764
 30
0.0
 40
0.5
  1
daikin
100
AcDbAttributeDefinition
  3

  2
COMPANY
 70
     8
280
     0
  0
ATTDEF
  5
6D
330
1F
100
AcDbEntity
  8
AM_6
100
AcDbText
 10
15.49999999999896
 20
46.49999999999764
 30
0.0
 40
0.5
  1
{$CADENAS_DATA/23d-libs/daikin/unitary/air20handlers/2023/air_handling_unit-multi_position-daikin-dfve.prj},213 {STYP=ASS},{VTYP=3D},{NB=DFVE48DP1400},{LINA=DFVE48DP1400},{NN=Air_Handling_Unit-Multi_Position-Daikin-DFVE},{DATE=03.06.2026 19:23:45},{
100
AcDbAttributeDefinition
  3

  2
PSOL_0
 70
     9
280
     0
  0
ATTDEF
  5
6E
330
1F
100
AcDbEntity
  8
AM_6
100
AcDbText
 10
15.49999999999896
 20
45.99999999999764
 30
0.0
 40
0.5
  1
TE=22.09.2025 12:59:40},{VERSION=},{LINEID=50},{WBVAR=},{WBNUMERIC=}  {NB=DFVE48DP1400},{LINA=DFVE48DP1400},{KT=DUMMY},{PARTNUMBERMAP09=4_ton_DFVE48DP1400},{PARTNUMBER=DFVE48DP1400},{DESCRIPTION=Multi-Position, Variable-Speed air handler},{OVERALL_D
100
AcDbAttributeDefinition
  3

  2
PSOL_1
 70
     9
280
     0
  0
ATTDEF
  5
6F
330
1F
100
AcDbEntity
  8
AM_6
100
AcDbText
 10
15.49999999999896
 20
45.49999999999764
 30
0.0
 40
0.5
  1
1.000},{OVERALL_HEIGHT=53.500},{OVERALL_WIDTH=24.500},{URL=https://daikincomfort.com},{RFA_FAMILY=Download Revit Family (RFA)},{ORDERNO=4_ton_DFVE48DP1400},{AMBIENT_TEMPERATURE=0},{APPARENT_POWER=1495},{ASSEMBLY_CODE=D3040100},{CATEGORY=Mechanical E
100
AcDbAttributeDefinition
  3

  2
PSOL_2
 70
     9
280
     0
  0
ATTDEF
  5
70
330
1F
100
AcDbEntity
  8
AM_6
100
AcDbText
 10
15.49999999999896
 20
44.99999999999764
 30
0.0
 40
0.5
  1
nt},{COIL_AIR_PRESSURE_DROP=0},{CONDENSATE_DRAIN_CONNECTION_DIAMETER=0.75},{CONDENSATE_DRAIN_CONNECTION_RADIUS=0.375},{CONDUIT_ANGLE=90},{CONDUIT_HORIZONTAL_OFFSET=-0.875},{CONDUIT_OFFSET=2.2265625},{CONDUIT_PLACEMENT_OFFSET=0.177083333333333},{COND
100
AcDbAttributeDefinition
  3

  2
PSOL_3
 70
     9
280
     0
  0
ATTDEF
  5
71
330
1F
100
AcDbEntity
  8
AM_6
100
AcDbText
 10
15.49999999999896
 20
44.49999999999764
 30
0.0
 40
0.5
  1
DIUS=0.25},{CONDUIT_SIZE=0.5},{COOLING_ENTERING_DRY_BULB_TEMPERATURE=0},{COOLING_ENTERING_WET_BULB_TEMPERATURE=0},{COOLING_LEAVING_DRY_BULB_TEMPERATURE=0},{COOLING_LEAVING_WET_BULB_TEMPERATURE=0},{COST=0},{DEFAULT_ELEVATION=0},{DESIGN_RETURN_AIR_FLO
100
AcDbAttributeDefinition
  3

  2
PSOL_4
 70
     9
280
     0
  0
ATTDEF
  5
72
330
1F
100
AcDbEntity
  8
AM_6
100
AcDbText
 10
15.49999999999896
 20
43.99999999999764
 30
0.0
 40
0.5
  1
DESIGN_SUPPLY_AIR_FLOW=0},{DRAIN_CONNECTION_HORIZONTAL_OFFSET_1=0.3125},{DRAIN_CONNECTION_HORIZONTAL_OFFSET_2=0.447916666666667},{DRAIN_CONNECTION_VERTICAL_OFFSET_1=0.244791666666667},{DRAIN_CONNECTION_VERTICAL_OFFSET_2=0.135416666666667},{DRAIN_FLO
100
AcDbAttributeDefinition
  3

  2
PSOL_5
 70
     9
280
     0
  0
ATTDEF
  5
73
330
1F
100
AcDbEntity
  8
AM_6
100
AcDbText
 10
15.49999999999896
 20
43.49999999999764
 30
0.0
 40
0.5
  1
DUCT_ANGLE=0},{DUCT_CONNECTION_HORIZONTAL_OFFSET=2.04166666666667},{DUCT_CONNECTION_VERTICAL_OFFSET=4.23046875},{DUCT_OFFSET=2.2265625},{ENCLOSURE_HEIGHT=4.453125},{ENCLOSURE_WIDTH=2.04166666666667},{ENGWORKS_GLOBAL=http://www.ENGworksGlobal.com/},{
100
AcDbAttributeDefinition
  3

  2
PSOL_6
 70
     9
280
     0
  0
ATTDEF
  5
74
330
1F
100
AcDbEntity
  8
AM_6
100
AcDbText
 10
15.49999999999896
 20
42.99999999999764
 30
0.0
 40
0.5
  1
ELOCITY__FPM_=0},{FAN_DRIVE=Direct Drive},{FAN_FULL_LOAD_AMPS=5.2},{FAN_HORSEPOWER=0.75},{FEET_PRESSURE_DROP=0},{FREQUENCY=60},{GAS_CONNECTION_HORIZONTAL_OFFSET=0.145},{GAS_CONNECTION_VERTICAL_OFFSET=1.79166666666667},{HEATING_ENTERING_DRY_BULB_TEMP
100
AcDbAttributeDefinition
  3

  2
PSOL_7
 70
     9
280
     0
  0
ATTDEF
  5
75
330
1F
100
AcDbEntity
  8
AM_6
100
AcDbText
 10
15.49999999999896
 20
42.49999999999764
 30
0.0
 40
0.5
  1
E=0},{HEATING_ENTERING_WET_BULB_TEMPERATURE=0},{HEATING_LEAVING_DRY_BULB_TEMPERATURE=0},{HEATING_LEAVING_WET_BULB_TEMPERATURE=0},{HORIZONTAL_DRAIN_HORIZONTAL_OFFSET_1=0.109375},{HORIZONTAL_DRAIN_HORIZONTAL_OFFSET_2=0.375},{HORIZONTAL_DRAIN_VERTICAL_
100
AcDbAttributeDefinition
  3

  2
PSOL_8
 70
     9
280
     0
  0
ATTDEF
  5
76
330
1F
100
AcDbEntity
  8
AM_6
100
AcDbText
 10
15.49999999999896
 20
41.99999999999764
 30
0.0
 40
0.5
  1
_1=0.848958333333333},{HORIZONTAL_DRAIN_VERTICAL_OFFSET_2=0.135416666666667},{LATENT_COOLING_CAPACITY=0},{LIQUID_CONNECTION_HORIZONTAL_OFFSET=0.2225},{LIQUID_CONNECTION_VERTICAL_OFFSET=1.52604166666667},{LOAD_SUB_CLASSIFICATION_MOTOR=1},{MANUFACTURE
100
AcDbAttributeDefinition
  3

  2
PSOL_9
 70
     9
280
     0
  0
ATTDEF
  5
77
330
1F
100
AcDbEntity
  8
AM_6
100
AcDbText
 10
15.49999999999896
 20
41.49999999999764
 30
0.0
 40
0.5
  1
in},{MASSUNIT=1},{MAXIMUM_OVERCURRENT_PROTECTION=15},{MINIMUM_CIRCUIT_AMPS=6.5},{MODEL=DFVE48DP1400},{NOMINAL_COOLING_CAPACITY=48000},{NOMINAL_COOLING_CAPACITY__TONS_=4},{NOMINAL_HEATING_CAPACITY=0},{NUMBER_OF_POLES=1},{OMNICLASS_NUMBER=23.75.35.14}
100
AcDbAttributeDefinition
  3

  2
PSOL_10
 70
     9
280
     0
  0
ATTDEF
  5
78
330
1F
100
AcDbEntity
  8
AM_6
100
AcDbText
 10
15.49999999999896
 20
40.99999999999764
 30
0.0
 40
0.5
  1
CLASS_TITLE=Air Handling Units},{PARTTYPE=Normal},{PHASE=1},{PRODUCT_PAGE_URL=https://daikincomfort.com/products/heating-cooling/whole-house/air-handlers-coils/dfve},{REFRIGERANT_CHARGE=0},{REFRIGERANT_CHARGE_VALUE=0},{REFRIGERANT_LIQUID_CONNECTION_
100
AcDbAttributeDefinition
  3

  2
PSOL_11
 70
     9
280
     0
  0
ATTDEF
  5
79
330
1F
100
AcDbEntity
  8
AM_6
100
AcDbText
 10
15.49999999999896
 20
40.49999999999764
 30
0.0
 40
0.5
  1
ER=0.375},{REFRIGERANT_LIQUID_CONNECTION_HORIZONTAL_OFFSET=0.2225},{REFRIGERANT_LIQUID_CONNECTION_RADIUS=0.1875},{REFRIGERANT_LIQUID_CONNECTION_VERTICAL_OFFSET=1.52604166666667},{REFRIGERANT_SUCTION_GAS_CONNECTION_DIAMETER=0.875},{REFRIGERANT_SUCTIO
100
AcDbAttributeDefinition
  3

  2
PSOL_12
 70
     9
280
     0
  0
ATTDEF
  5
7A
330
1F
100
AcDbEntity
  8
AM_6
100
AcDbText
 10
15.49999999999896
 20
39.99999999999764
 30
0.0
 40
0.5
  1
CONNECTION_HORIZONTAL_OFFSET=0.145},{REFRIGERANT_SUCTION_GAS_CONNECTION_RADIUS=0.4375},{REFRIGERANT_SUCTION_GAS_CONNECTION_VERTICAL_OFFSET=1.79166666666667},{REFRIGERANT_USED=R-410A},{RETURN_AIR_CONNECTION_HEIGHT=19.5},{RETURN_AIR_CONNECTION_VERTICA
100
AcDbAttributeDefinition
  3

  2
PSOL_13
 70
     9
280
     0
  0
ATTDEF
  5
7B
330
1F
100
AcDbEntity
  8
AM_6
100
AcDbText
 10
15.49999999999896
 20
39.49999999999764
 30
0.0
 40
0.5
  1
ET=0.8575},{RETURN_AIR_CONNECTION_WIDTH=21.1875},{RETURN_AIR_OUTLET_VERTICAL_OFFSET=0.045},{RETURN_AIR_PRESSURE_DROP=0},{SENSIBLE_COOLING_CAPACITY=0},{SERIES=DFVE},{SIDE_CONDUIT_CONNECTION=0},{SIDE_CONDUIT_HORIZONTAL_OFFSET=0.114583333333333},{SIDE_
100
AcDbAttributeDefinition
  3

  2
PSOL_14
 70
     9
280
     0
  0
ATTDEF
  5
7C
330
1F
100
AcDbEntity
  8
AM_6
100
AcDbText
 10
15.49999999999896
 20
38.99999999999764
 30
0.0
 40
0.5
  1
T_HORIZONTAL_OFFSET_1=0.114583333333333},{SIDE_CONDUIT_HORIZONTAL_OFFSET_2=0.260416666666667},{SIDE_CONDUIT_HORIZONTAL_OFFSET_3=0.427083333333333},{SIDE_CONDUIT_HORIZONTAL_OFFSET_4=0.625},{SIDE_CONDUIT_VERTICAL_OFFSET=0.145833333333333},{STANDARDS=A
100
AcDbAttributeDefinition
  3

  2
PSOL_15
 70
     9
280
     0
  0
ATTDEF
  5
7D
330
1F
100
AcDbEntity
  8
AM_6
100
AcDbText
 10
15.49999999999896
 20
38.49999999999764
 30
0.0
 40
0.5
  1
rtified; ETL Listed},{SUPPLY_AIR_CONNECTION_HEIGHT=11.3},{SUPPLY_AIR_CONNECTION_VERTICAL_OFFSET=0.514166666666667},{SUPPLY_AIR_CONNECTION_WIDTH=23.3125},{SUPPLY_AIR_FLOW=1380},{SUPPLY_AIR_OUTLET_VERTICAL_OFFSET=0.0433333333333333},{SUPPLY_AIR_PRESSU
100
AcDbAttributeDefinition
  3

  2
PSOL_16
 70
     9
280
     0
  0
ATTDEF
  5
7E
330
1F
100
AcDbEntity
  8
AM_6
100
AcDbText
 10
15.49999999999896
 20
37.99999999999764
 30
0.0
 40
0.5
  1
P=0},{TOP_CONDUIT_CONNECTION=1},{TOP_CONDUIT_HORIZONTAL_OFFSET=0.145833333333333},{TOP_CONDUIT_VERTICAL_OFFSET=0.177083333333333},{TOP_CONDUIT_VERTICAL_OFFSET_1=0.177083333333333},{TOP_CONDUIT_VERTICAL_OFFSET_2=0.359375},{TOP_CONDUIT_VERTICAL_OFFSET
100
AcDbAttributeDefinition
  3

  2
PSOL_17
 70
     9
280
     0
  0
ATTDEF
  5
7F
330
1F
100
AcDbEntity
  8
AM_6
100
AcDbText
 10
15.49999999999896
 20
37.49999999999764
 30
0.0
 40
0.5
  1
10416666666667},{TOTAL_COOLING_CAPACITY=0},{TOTAL_HEATING_CAPACITY=0},{TOTAL_STATIC_PRESSURE=0},{UNIT_WEIGHT=150},{UNIT_WEIGHT_VALUE=150},{VERSION=1},{VERTICAL_DRAIN_HORIZONTAL_OFFSET_1=0.3125},{VERTICAL_DRAIN_HORIZONTAL_OFFSET_2=0.135416666666667},
100
AcDbAttributeDefinition
  3

  2
PSOL_18
 70
     9
280
     0
  0
ATTDEF
  5
80
330
1F
100
AcDbEntity
  8
AM_6
100
AcDbText
 10
15.49999999999896
 20
36.99999999999764
 30
0.0
 40
0.5
  1
CAL_DRAIN_VERTICAL_OFFSET_1=0.244791666666667},{VERTICAL_DRAIN_VERTICAL_OFFSET_2=0.135416666666667},{VOLTAGE=230},{VOLTAGE_COMMENTS=208 VAC - 230 VAC},{VAR___CONDUIT_PLACEMENT_SELECTOR=1},{VAR___UNIT_POSITION_CONFIGURATION_SELECTOR=1},{VAR___CONDUIT
100
AcDbAttributeDefinition
  3

  2
PSOL_19
 70
     9
280
     0
  0
ATTDEF
  5
81
330
1F
100
AcDbEntity
  8
AM_6
100
AcDbText
 10
15.49999999999896
 20
36.49999999999764
 30
0.0
 40
0.5
  1
MENT_OPTION_1=1},{VAR___UPFLOW_OPTION=1},{VAR___CONDUIT_PLACEMENT_OPTION_2=0},{VAR___DOWNFLOW_OPTION=0},{VAR___CONDUIT_PLACEMENT_OPTION_3=0},{VAR___HORIZONTAL_LEFT_OPTION=0},{VAR___CONDUIT_PLACEMENT_OPTION_4___SIDE_ONLY=0},{VAR___HORIZONTAL_RIGHT_OP
100
AcDbAttributeDefinition
  3

  2
PSOL_20
 70
     9
280
     0
  0
ATTDEF
  5
82
330
1F
100
AcDbEntity
  8
AM_6
100
AcDbText
 10
15.49999999999896
 20
35.99999999999764
 30
0.0
 40
0.5
  1
},{DEFAULTSORTATTR=1850},{RFA_FAMILY_=../../../_pool_/69/dd/air_handling_unit-multi_position-daikin-dfve.zip},{RFA_FAMILY_ENG=../../../_pool_/69/dd/air_handling_unit-multi_position-daikin-dfve.zip},{REVIT_FAMILY_DOWNLOAD=../../../_pool_/69/dd/air_ha
100
AcDbAttributeDefinition
  3

  2
PSOL_21
 70
     9
280
     0
  0
ATTDEF
  5
83
330
1F
100
AcDbEntity
  8
AM_6
100
AcDbText
 10
15.49999999999896
 20
35.49999999999764
 30
0.0
 40
0.5
  1
_unit-multi_position-daikin-dfve.zip},{PN=4_ton_DFVE48DP1400}
100
AcDbAttributeDefinition
  3

  2
PSOL_22
 70
     9
280
     0
  0
INSERT
  5
85
330
1F
100
AcDbEntity
  8
0
100
AcDbBlockReference
  2
1_DFVE48DP1400_PART8_0_in_DFVE48DP1400_2
 10
0.0
 20
0.0
 30
0.0
  0
INSERT
  5
B3
330
1F
100
AcDbEntity
  8
0
100
AcDbBlockReference
  2
2_DFVE48DP1400_PART7_0_in_DFVE48DP1400_2
 10
0.0
 20
0.0
 30
0.0
  0
INSERT
  5
DF
330
1F
100
AcDbEntity
  8
0
100
AcDbBlockReference
  2
3_DFVE48DP1400_PART6_0_in_DFVE48DP1400_2
 10
0.0
 20
0.0
 30
0.0
  0
INSERT
  5
10C
330
1F
100
AcDbEntity
  8
0
100
AcDbBlockReference
  2
4_DFVE48DP1400_PART5_0_in_DFVE48DP1400_2
 10
0.0
 20
0.0
 30
0.0
  0
INSERT
  5
138
330
1F
100
AcDbEntity
  8
0
100
AcDbBlockReference
  2
5_DFVE48DP1400_PART4_0_in_DFVE48DP1400_2
 10
0.0
 20
0.0
 30
0.0
  0
INSERT
  5
164
330
1F
100
AcDbEntity
  8
0
100
AcDbBlockReference
  2
6_DFVE48DP1400_PART3_0_in_DFVE48DP1400_2
 10
0.0
 20
0.0
 30
0.0
  0
INSERT
  5
190
330
1F
100
AcDbEntity
  8
0
100
AcDbBlockReference
  2
7_DFVE48DP1400_PART2_0_in_DFVE48DP1400_2
 10
0.0
 20
0.0
 30
0.0
  0
INSERT
  5
1BC
330
1F
100
AcDbEntity
  8
0
100
AcDbBlockReference
  2
8_DFVE48DP1400_PART1_0_in_DFVE48DP1400_2
 10
0.0
 20
0.0
 30
0.0
  0
ENDSEC
  0
SECTION
  2
OBJECTS
  0
DICTIONARY
  5
C
330
0
100
AcDbDictionary
281
     1
  3
ACAD_DETAILVIEWSTYLE
350
1F5
  3
ACAD_GROUP
350
D
  3
ACAD_LAYOUT
350
1A
  3
ACAD_MATERIAL
350
43
  3
ACAD_MLEADERSTYLE
350
5B
  3
ACAD_MLINESTYLE
350
17
  3
ACAD_PLOTSETTINGS
350
19
  3
ACAD_PLOTSTYLENAME
350
E
  3
ACAD_SCALELIST
350
47
  3
ACAD_SECTIONVIEWSTYLE
350
1F6
  3
ACAD_TABLESTYLE
350
59
  3
ACAD_VISUALSTYLE
350
2A
  3
ACDB_RECOMPOSE_DATA
350
1F2
  3
AcDbVariableDictionary
350
1EE
  0
SUN
  5
5D
330
29
100
AcDbSun
 90
        1
290
     0
 63
     7
421
 16777215
 40
1.0
291
     1
 91
  2455826
 92
 54000000
292
     0
 70
     2
 71
   256
280
     1
  0
DICTIONARY
  5
1F5
102
{ACAD_REACTORS
330
C
102
}
330
C
100
AcDbDictionary
281
     1
  0
DICTIONARY
  5
D
102
{ACAD_REACTORS
330
C
102
}
330
C
100
AcDbDictionary
281
     1
  0
DICTIONARY
  5
1A
102
{ACAD_REACTORS
330
C
102
}
330
C
100
AcDbDictionary
281
     1
  3
Layout1
350
1E
  3
Layout2
350
26
  3
Model
350
22
  0
DICTIONARY
  5
43
102
{ACAD_REACTORS
330
C
102
}
330
C
100
AcDbDictionary
281
     1
  3
ByBlock
350
45
  3
ByLayer
350
44
  3
Global
350
46
  0
DICTIONARY
  5
5B
102
{ACAD_REACTORS
330
C
102
}
330
C
100
AcDbDictionary
281
     1
  3
Standard
350
5C
  0
DICTIONARY
  5
17
102
{ACAD_REACTORS
330
C
102
}
330
C
100
AcDbDictionary
281
     1
  3
Standard
350
18
  0
DICTIONARY
  5
19
102
{ACAD_REACTORS
330
C
102
}
330
C
100
AcDbDictionary
281
     1
  0
ACDBDICTIONARYWDFLT
  5
E
102
{ACAD_REACTORS
330
C
102
}
330
C
100
AcDbDictionary
281
     1
  3
Normal
350
F
100
AcDbDictionaryWithDefault
340
F
  0
DICTIONARY
  5
47
102
{ACAD_REACTORS
330
C
102
}
330
C
100
AcDbDictionary
281
     1
  3
A0
350
48
  3
A1
350
49
  3
A2
350
4A
  3
A3
350
4B
  3
A4
350
4C
  3
A5
350
4D
  3
A6
350
4E
  3
A7
350
4F
  3
A8
350
50
  3
A9
350
51
  3
B1
350
52
  3
B2
350
53
  3
B3
350
54
  3
B4
350
55
  3
B5
350
56
  3
B6
350
57
  3
B7
350
58
  0
DICTIONARY
  5
1F6
102
{ACAD_REACTORS
330
C
102
}
330
C
100
AcDbDictionary
281
     1
  0
DICTIONARY
  5
59
102
{ACAD_REACTORS
330
C
102
}
330
C
100
AcDbDictionary
281
     1
  3
Standard
350
5A
  0
DICTIONARY
  5
2A
102
{ACAD_REACTORS
330
C
102
}
330
C
100
AcDbDictionary
281
     1
  3
2dWireframe
350
2F
  3
Basic
350
32
  3
Brighten
350
36
  3
ColorChange
350
3A
  3
Conceptual
350
34
  3
Dim
350
35
  3
EdgeColorOff
350
3D
  3
Facepattern
350
39
  3
Flat
350
2B
  3
FlatWithEdges
350
2C
  3
Gouraud
350
2D
  3
GouraudWithEdges
350
2E
  3
Hidden
350
31
  3
JitterOff
350
3B
  3
Linepattern
350
38
  3
OverhangOff
350
3C
  3
Realistic
350
33
  3
Shaded
350
42
  3
Shaded with edges
350
41
  3
Shades of Gray
350
3E
  3
Sketchy
350
3F
  3
Thicken
350
37
  3
Wireframe
350
30
  3
X-Ray
350
40
  0
XRECORD
  5
1F2
102
{ACAD_REACTORS
330
C
102
}
330
C
100
AcDbXrecord
280
     1
 90
        1
330
5A
  0
DICTIONARY
  5
1EE
102
{ACAD_REACTORS
330
C
102
}
330
C
100
AcDbDictionary
281
     1
  3
CANNOSCALE
350
1EF
  3
CMLEADERSTYLE
350
1F4
  3
CTABLESTYLE
350
1F3
  0
LAYOUT
  5
1E
102
{ACAD_REACTORS
330
1A
102
}
330
1A
100
AcDbPlotSettings
  1

  2
none_device
  4

  6

 40
0.0
 41
0.0
 42
0.0
 43
0.0
 44
0.0
 45
0.0
 46
0.0
 47
0.0
 48
0.0
 49
0.0
140
0.0
141
0.0
142
1.0
143
1.0
 70
   688
 72
     0
 73
     0
 74
     5
  7

 75
    16
 76
     0
 77
     2
 78
   300
147
1.0
148
0.0
149
0.0
100
AcDbLayout
  1
Layout1
 70
     1
 71
     1
 10
0.0
 20
0.0
 11
12.0
 21
9.0
 12
0.0
 22
0.0
 32
0.0
 14
1.000000000000000E+20
 24
1.000000000000000E+20
 34
1.000000000000000E+20
 15
-1.000000000000000E+20
 25
-1.000000000000000E+20
 35
-1.000000000000000E+20
146
0.0
 13
0.0
 23
0.0
 33
0.0
 16
1.0
 26
0.0
 36
0.0
 17
0.0
 27
1.0
 37
0.0
 76
     0
330
1B
  0
LAYOUT
  5
26
102
{ACAD_REACTORS
330
1A
102
}
330
1A
100
AcDbPlotSettings
  1

  2
none_device
  4

  6

 40
0.0
 41
0.0
 42
0.0
 43
0.0
 44
0.0
 45
0.0
 46
0.0
 47
0.0
 48
0.0
 49
0.0
140
0.0
141
0.0
142
1.0
143
1.0
 70
   688
 72
     0
 73
     0
 74
     5
  7

 75
    16
 76
     0
 77
     2
 78
   300
147
1.0
148
0.0
149
0.0
100
AcDbLayout
  1
Layout2
 70
     1
 71
     2
 10
0.0
 20
0.0
 11
0.0
 21
0.0
 12
0.0
 22
0.0
 32
0.0
 14
0.0
 24
0.0
 34
0.0
 15
0.0
 25
0.0
 35
0.0
146
0.0
 13
0.0
 23
0.0
 33
0.0
 16
1.0
 26
0.0
 36
0.0
 17
0.0
 27
1.0
 37
0.0
 76
     0
330
23
  0
LAYOUT
  5
22
102
{ACAD_REACTORS
330
1A
102
}
330
1A
100
AcDbPlotSettings
  1

  2
none_device
  4
Letter_(8.50_x_11.00_Inches)
  6

 40
6.35
 41
6.35
 42
6.35000508
 43
6.35000508
 44
215.9
 45
279.4
 46
0.0
 47
0.0
 48
0.0
 49
0.0
140
0.0
141
0.0
142
1.0
143
1.0
 70
  1712
 72
     0
 73
     0
 74
     0
  7

 75
     0
 76
     0
 77
     2
 78
   300
147
1.0
148
0.0
149
0.0
100
AcDbLayout
  1
Model
 70
     1
 71
     0
 10
0.0
 20
0.0
 11
12.0
 21
9.0
 12
0.0
 22
0.0
 32
0.0
 14
-10.56250000000024
 24
-0.0000000000026059
 34
0.0
 15
22.41694915254133
 25
54.0054237288112
 35
0.0
146
0.0
 13
0.0
 23
0.0
 33
0.0
 16
1.0
 26
0.0
 36
0.0
 17
0.0
 27
1.0
 37
0.0
 76
     0
330
1F
331
29
  0
MATERIAL
  5
45
102
{ACAD_REACTORS
330
43
102
}
330
43
100
AcDbMaterial
  1
ByBlock
 72
     1
 94
      127
  0
MATERIAL
  5
44
102
{ACAD_REACTORS
330
43
102
}
330
43
100
AcDbMaterial
  1
ByLayer
 72
     1
 94
      127
  0
MATERIAL
  5
46
102
{ACAD_REACTORS
330
43
102
}
330
43
100
AcDbMaterial
  1
Global
 72
     1
 94
      127
  0
MLEADERSTYLE
  5
5C
102
{ACAD_REACTORS
330
5B
102
}
330
5B
100
AcDbMLeaderStyle
179
     2
170
     2
171
     1
172
     0
 90
        2
 40
0.0
 41
0.0
173
     1
 91
-1056964608
340
14
 92
       -2
290
     1
 42
0.09
291
     1
 43
0.36
  3
Standard
341
0
 44
0.18
300

342
11
174
     1
178
     6
175
     1
176
     0
 93
-1056964608
 45
0.18
292
     0
297
     0
 46
0.18
343
0
 94
-1056964608
 47
1.0
 49
1.0
140
1.0
293
     1
141
0.0
294
     1
177
     0
142
1.0
295
     0
296
     0
143
0.125
271
     0
272
     9
273
     9
298
     0
  0
MLINESTYLE
  5
18
102
{ACAD_REACTORS
330
17
102
}
330
17
100
AcDbMlineStyle
  2
Standard
 70
     0
  3

 62
   256
 51
90.0
 52
90.0
 71
     2
 49
0.5
 62
   256
  6
BYLAYER
 49
-0.5
 62
   256
  6
BYLAYER
  0
ACDBPLACEHOLDER
  5
F
102
{ACAD_REACTORS
330
E
102
}
330
E
  0
SCALE
  5
48
102
{ACAD_REACTORS
330
47
102
}
330
47
100
AcDbScale
 70
     0
300
1:1
140
1.0
141
1.0
290
     1
  0
SCALE
  5
49
102
{ACAD_REACTORS
330
47
102
}
330
47
100
AcDbScale
 70
     0
300
1/128" = 1'-0"
140
0.0078125
141
12.0
290
     0
  0
SCALE
  5
4A
102
{ACAD_REACTORS
330
47
102
}
330
47
100
AcDbScale
 70
     0
300
1/64" = 1'-0"
140
0.015625
141
12.0
290
     0
  0
SCALE
  5
4B
102
{ACAD_REACTORS
330
47
102
}
330
47
100
AcDbScale
 70
     0
300
1/32" = 1'-0"
140
0.03125
141
12.0
290
     0
  0
SCALE
  5
4C
102
{ACAD_REACTORS
330
47
102
}
330
47
100
AcDbScale
 70
     0
300
1/16" = 1'-0"
140
0.0625
141
12.0
290
     0
  0
SCALE
  5
4D
102
{ACAD_REACTORS
330
47
102
}
330
47
100
AcDbScale
 70
     0
300
3/32" = 1'-0"
140
0.09375
141
12.0
290
     0
  0
SCALE
  5
4E
102
{ACAD_REACTORS
330
47
102
}
330
47
100
AcDbScale
 70
     0
300
1/8" = 1'-0"
140
0.125
141
12.0
290
     0
  0
SCALE
  5
4F
102
{ACAD_REACTORS
330
47
102
}
330
47
100
AcDbScale
 70
     0
300
3/16" = 1'-0"
140
0.1875
141
12.0
290
     0
  0
SCALE
  5
50
102
{ACAD_REACTORS
330
47
102
}
330
47
100
AcDbScale
 70
     0
300
1/4" = 1'-0"
140
0.25
141
12.0
290
     0
  0
SCALE
  5
51
102
{ACAD_REACTORS
330
47
102
}
330
47
100
AcDbScale
 70
     0
300
3/8" = 1'-0"
140
0.375
141
12.0
290
     0
  0
SCALE
  5
52
102
{ACAD_REACTORS
330
47
102
}
330
47
100
AcDbScale
 70
     0
300
1/2" = 1'-0"
140
0.5
141
12.0
290
     0
  0
SCALE
  5
53
102
{ACAD_REACTORS
330
47
102
}
330
47
100
AcDbScale
 70
     0
300
3/4" = 1'-0"
140
0.75
141
12.0
290
     0
  0
SCALE
  5
54
102
{ACAD_REACTORS
330
47
102
}
330
47
100
AcDbScale
 70
     0
300
1" = 1'-0"
140
1.0
141
12.0
290
     0
  0
SCALE
  5
55
102
{ACAD_REACTORS
330
47
102
}
330
47
100
AcDbScale
 70
     0
300
1-1/2" = 1'-0"
140
1.5
141
12.0
290
     0
  0
SCALE
  5
56
102
{ACAD_REACTORS
330
47
102
}
330
47
100
AcDbScale
 70
     0
300
3" = 1'-0"
140
3.0
141
12.0
290
     0
  0
SCALE
  5
57
102
{ACAD_REACTORS
330
47
102
}
330
47
100
AcDbScale
 70
     0
300
6" = 1'-0"
140
6.0
141
12.0
290
     0
  0
SCALE
  5
58
102
{ACAD_REACTORS
330
47
102
}
330
47
100
AcDbScale
 70
     0
300
1'-0" = 1'-0"
140
12.0
141
12.0
290
     0
  0
TABLESTYLE
  5
5A
102
{ACAD_REACTORS
330
59
102
}
102
{ACAD_XDICTIONARY
360
1F0
102
}
330
59
100
AcDbTableStyle
  3
Standard
 70
     0
 71
     0
 40
0.06
 41
0.06
280
     0
281
     0
  7
Standard
140
0.18
170
     2
 62
     0
 63
   257
283
     0
 90
        4
 91
        0
  1

274
    -2
284
     1
 64
     0
275
    -2
285
     1
 65
     0
276
    -2
286
     1
 66
     0
277
    -2
287
     1
 67
     0
278
    -2
288
     1
 68
     0
279
    -2
289
     1
 69
     0
  7
Standard
140
0.25
170
     5
 62
     0
 63
   257
283
     0
 90
        4
 91
        0
  1

274
    -2
284
     1
 64
     0
275
    -2
285
     1
 65
     0
276
    -2
286
     1
 66
     0
277
    -2
287
     1
 67
     0
278
    -2
288
     1
 68
     0
279
    -2
289
     1
 69
     0
  7
Standard
140
0.18
170
     5
 62
     0
 63
   257
283
     0
 90
        4
 91
        0
  1

274
    -2
284
     1
 64
     0
275
    -2
285
     1
 65
     0
276
    -2
286
     1
 66
     0
277
    -2
287
     1
 67
     0
278
    -2
288
     1
 68
     0
279
    -2
289
     1
 69
     0
  0
VISUALSTYLE
  5
2F
102
{ACAD_REACTORS
330
2A
102
}
330
2A
100
AcDbVisualStyle
  2
2dWireframe
 70
     4
177
     3
291
     0
 70
    58
 90
        0
176
     1
 90
        2
176
     1
 90
        0
176
     1
 90
        0
176
     1
 40
0.6
176
     1
 40
30.0
176
     1
 62
     7
420
 16777215
176
     1
 90
        1
176
     1
 90
        4
176
     1
 62
     7
176
     1
 62
   257
176
     1
 90
        1
176
     1
 90
        1
176
     1
 40
1.0
176
     1
 90
        0
176
     1
 62
   257
176
     1
 40
1.0
176
     1
 90
        1
176
     1
 90
        6
176
     1
 90
        2
176
     1
 62
     7
176
     1
 90
        5
176
     1
 90
        0
176
     1
 90
        0
176
     1
290
     0
176
     1
 90
        1
176
     1
 40
0.0
176
     1
 90
        0
176
     1
290
     1
176
     1
290
     1
176
     1
290
     0
176
     1
290
     0
176
     1
290
     0
176
     1
290
     0
176
     1
290
     0
176
     1
290
     0
176
     1
290
     0
176
     1
 90
       50
176
     1
 40
0.0
176
     1
 40
1.0
176
     1
 90
        0
176
     1
 62
    18
420
        0
176
     1
 90
       50
176
     1
 90
        3
176
     1
 62
     5
420
      255
176
     1
290
     0
176
     1
 90
       50
176
     1
 90
       50
176
     1
 90
       50
176
     1
290
     0
176
     1
 90
       50
176
     1
 62
   256
176
     0
 40
1.0
176
     0
 90
        2
176
     1
  1
strokes_ogs.tif
176
     1
290
     0
176
     1
 40
1.0
176
     1
 40
1.0
176
     1
  0
VISUALSTYLE
  5
32
102
{ACAD_REACTORS
330
2A
102
}
330
2A
100
AcDbVisualStyle
  2
Basic
 70
     7
177
     3
291
     1
 70
    58
 90
        1
176
     1
 90
        0
176
     1
 90
        1
176
     1
 90
        0
176
     1
 40
0.6
176
     1
 40
30.0
176
     1
 62
     7
420
 16777215
176
     1
 90
        0
176
     1
 90
        4
176
     1
 62
     7
176
     1
 62
   257
176
     1
 90
        1
176
     1
 90
        1
176
     1
 40
1.0
176
     1
 90
        8
176
     1
 62
     7
176
     1
 40
1.0
176
     1
 90
        1
176
     1
 90
        6
176
     1
 90
        2
176
     1
 62
     7
176
     1
 90
        5
176
     1
 90
        0
176
     1
 90
        0
176
     1
290
     0
176
     1
 90
        1
176
     1
 40
0.0
176
     1
 90
        0
176
     1
290
     0
176
     1
290
     1
176
     1
290
     1
176
     1
290
     0
176
     1
290
     0
176
     1
290
     0
176
     1
290
     0
176
     1
290
     0
176
     1
290
     0
176
     1
 90
       50
176
     1
 40
0.0
176
     1
 40
1.0
176
     1
 90
        0
176
     1
 62
    18
420
        0
176
     1
 90
       50
176
     1
 90
        3
176
     1
 62
     5
420
      255
176
     1
290
     0
176
     1
 90
       50
176
     1
 90
       50
176
     1
 90
       50
176
     1
290
     0
176
     1
 90
       50
176
     1
 62
   256
176
     0
 40
1.0
176
     0
 90
        2
176
     1
  1
strokes_ogs.tif
176
     1
290
     0
176
     1
 40
1.0
176
     1
 40
1.0
176
     1
  0
VISUALSTYLE
  5
36
102
{ACAD_REACTORS
330
2A
102
}
330
2A
100
AcDbVisualStyle
  2
Brighten
 70
    12
177
     3
291
     1
 70
    58
 90
        2
176
     1
 90
        2
176
     1
 90
        0
176
     1
 90
        0
176
     1
 40
0.6
176
     1
 40
30.0
176
     1
 62
     7
420
 16777215
176
     1
 90
        1
176
     1
 90
        4
176
     1
 62
     7
176
     1
 62
   257
176
     1
 90
        1
176
     1
 90
        1
176
     1
 40
1.0
176
     1
 90
        8
176
     1
 62
     7
176
     1
 40
1.0
176
     1
 90
        1
176
     1
 90
        6
176
     1
 90
        2
176
     1
 62
     7
176
     1
 90
        5
176
     1
 90
        0
176
     1
 90
        0
176
     1
290
     0
176
     1
 90
        1
176
     1
 40
50.0
176
     1
 90
        0
176
     1
290
     0
176
     1
290
     1
176
     1
290
     1
176
     1
290
     0
176
     1
290
     0
176
     1
290
     0
176
     1
290
     0
176
     1
290
     0
176
     1
290
     0
176
     1
 90
       50
176
     1
 40
0.0
176
     1
 40
1.0
176
     1
 90
        0
176
     1
 62
    18
420
        0
176
     1
 90
       50
176
     1
 90
        3
176
     1
 62
     5
420
      255
176
     1
290
     0
176
     1
 90
       50
176
     1
 90
       50
176
     1
 90
       50
176
     1
290
     0
176
     1
 90
       50
176
     1
 62
   256
176
     0
 40
1.0
176
     0
 90
        2
176
     1
  1
strokes_ogs.tif
176
     1
290
     0
176
     1
 40
1.0
176
     1
 40
1.0
176
     1
  0
VISUALSTYLE
  5
3A
102
{ACAD_REACTORS
330
2A
102
}
330
2A
100
AcDbVisualStyle
  2
ColorChange
 70
    16
177
     3
291
     1
 70
    58
 90
        2
176
     1
 90
        2
176
     1
 90
        3
176
     1
 90
        0
176
     1
 40
0.6
176
     1
 40
30.0
176
     1
 62
     8
420
  8421504
176
     1
 90
        1
176
     1
 90
        4
176
     1
 62
     7
176
     1
 62
   257
176
     1
 90
        1
176
     1
 90
        1
176
     1
 40
1.0
176
     1
 90
        8
176
     1
 62
     8
420
  8421504
176
     1
 40
1.0
176
     1
 90
        1
176
     1
 90
        6
176
     1
 90
        2
176
     1
 62
     7
176
     1
 90
        5
176
     1
 90
        0
176
     1
 90
        0
176
     1
290
     0
176
     1
 90
        1
176
     1
 40
0.0
176
     1
 90
        0
176
     1
290
     0
176
     1
290
     1
176
     1
290
     1
176
     1
290
     0
176
     1
290
     0
176
     1
290
     0
176
     1
290
     0
176
     1
290
     0
176
     1
290
     0
176
     1
 90
       50
176
     1
 40
0.0
176
     1
 40
1.0
176
     1
 90
        0
176
     1
 62
    18
420
        0
176
     1
 90
       50
176
     1
 90
        3
176
     1
 62
     5
420
      255
176
     1
290
     0
176
     1
 90
       50
176
     1
 90
       50
176
     1
 90
       50
176
     1
290
     0
176
     1
 90
       50
176
     1
 62
   256
176
     0
 40
1.0
176
     0
 90
        2
176
     1
  1
strokes_ogs.tif
176
     1
290
     0
176
     1
 40
1.0
176
     1
 40
1.0
176
     1
  0
VISUALSTYLE
  5
34
102
{ACAD_REACTORS
330
2A
102
}
330
2A
100
AcDbVisualStyle
  2
Conceptual
 70
     9
177
     3
291
     0
 70
    58
 90
        3
176
     1
 90
        2
176
     1
 90
        0
176
     1
 90
        0
176
     1
 40
0.6
176
     1
 40
30.0
176
     1
 62
     7
420
 16777215
176
     1
 90
        2
176
     1
 90
        2
176
     1
 62
     7
176
     1
 62
   257
176
     1
 90
        1
176
     1
 90
        1
176
     1
 40
179.0
176
     1
 90
        8
176
     1
 62
     7
176
     1
 40
1.0
176
     1
 90
        1
176
     1
 90
        6
176
     1
 90
        2
176
     1
 62
     7
176
     1
 90
        3
176
     1
 90
        0
176
     1
 90
        0
176
     1
290
     0
176
     1
 90
        1
176
     1
 40
0.0
176
     1
 90
        0
176
     1
290
     0
176
     1
290
     1
176
     1
290
     1
176
     1
290
     0
176
     1
290
     0
176
     1
290
     0
176
     1
290
     0
176
     1
290
     0
176
     1
290
     0
176
     1
 90
       50
176
     1
 40
0.0
176
     1
 40
1.0
176
     1
 90
        0
176
     1
 62
    18
420
        0
176
     1
 90
       50
176
     1
 90
        3
176
     1
 62
     5
420
      255
176
     1
290
     0
176
     1
 90
       50
176
     1
 90
       50
176
     1
 90
       50
176
     1
290
     0
176
     1
 90
       50
176
     1
 62
   256
176
     0
 40
1.0
176
     0
 90
        2
176
     1
  1
strokes_ogs.tif
176
     1
290
     0
176
     1
 40
1.0
176
     1
 40
1.0
176
     1
  0
VISUALSTYLE
  5
35
102
{ACAD_REACTORS
330
2A
102
}
330
2A
100
AcDbVisualStyle
  2
Dim
 70
    11
177
     3
291
     1
 70
    58
 90
        2
176
     1
 90
        2
176
     1
 90
        0
176
     1
 90
        0
176
     1
 40
0.6
176
     1
 40
30.0
176
     1
 62
     7
420
 16777215
176
     1
 90
        1
176
     1
 90
        4
176
     1
 62
     7
176
     1
 62
   257
176
     1
 90
        1
176
     1
 90
        1
176
     1
 40
1.0
176
     1
 90
        8
176
     1
 62
     7
176
     1
 40
1.0
176
     1
 90
        1
176
     1
 90
        6
176
     1
 90
        2
176
     1
 62
     7
176
     1
 90
        5
176
     1
 90
        0
176
     1
 90
        0
176
     1
290
     0
176
     1
 90
        1
176
     1
 40
-50.0
176
     1
 90
        0
176
     1
290
     0
176
     1
290
     1
176
     1
290
     1
176
     1
290
     0
176
     1
290
     0
176
     1
290
     0
176
     1
290
     0
176
     1
290
     0
176
     1
290
     0
176
     1
 90
       50
176
     1
 40
0.0
176
     1
 40
1.0
176
     1
 90
        0
176
     1
 62
    18
420
        0
176
     1
 90
       50
176
     1
 90
        3
176
     1
 62
     5
420
      255
176
     1
290
     0
176
     1
 90
       50
176
     1
 90
       50
176
     1
 90
       50
176
     1
290
     0
176
     1
 90
       50
176
     1
 62
   256
176
     0
 40
1.0
176
     0
 90
        2
176
     1
  1
strokes_ogs.tif
176
     1
290
     0
176
     1
 40
1.0
176
     1
 40
1.0
176
     1
  0
VISUALSTYLE
  5
3D
102
{ACAD_REACTORS
330
2A
102
}
330
2A
100
AcDbVisualStyle
  2
EdgeColorOff
 70
    22
177
     3
291
     1
 70
    58
 90
        2
176
     0
 90
        2
176
     0
 90
        0
176
     0
 90
        0
176
     0
 40
0.6
176
     0
 40
30.0
176
     0
 62
     7
420
 16777215
176
     0
 90
        1
176
     0
 90
        4
176
     0
 62
     7
176
     0
 62
   257
176
     0
 90
        1
176
     0
 90
        1
176
     0
 40
1.0
176
     0
 90
        8
176
     2
 62
     7
176
     0
 40
1.0
176
     0
 90
        1
176
     0
 90
        6
176
     0
 90
        2
176
     0
 62
     7
176
     0
 90
        5
176
     0
 90
        0
176
     0
 90
        0
176
     0
290
     0
176
     0
 90
        1
176
     0
 40
0.0
176
     0
 90
        0
176
     0
290
     0
176
     0
290
     1
176
     0
290
     1
176
     0
290
     0
176
     0
290
     0
176
     0
290
     0
176
     0
290
     0
176
     0
290
     0
176
     0
290
     0
176
     0
 90
       50
176
     0
 40
0.0
176
     0
 40
1.0
176
     0
 90
        0
176
     0
 62
    18
420
        0
176
     0
 90
       50
176
     0
 90
        3
176
     0
 62
     5
420
      255
176
     0
290
     0
176
     0
 90
       50
176
     0
 90
       50
176
     0
 90
       50
176
     0
290
     0
176
     0
 90
       50
176
     0
 62
   256
176
     0
 40
1.0
176
     0
 90
        2
176
     0
  1
strokes_ogs.tif
176
     0
290
     0
176
     0
 40
1.0
176
     0
 40
1.0
176
     0
  0
VISUALSTYLE
  5
39
102
{ACAD_REACTORS
330
2A
102
}
330
2A
100
AcDbVisualStyle
  2
Facepattern
 70
    15
177
     3
291
     1
 70
    58
 90
        2
176
     1
 90
        2
176
     1
 90
        0
176
     1
 90
        0
176
     1
 40
0.6
176
     1
 40
30.0
176
     1
 62
     7
420
 16777215
176
     1
 90
        1
176
     1
 90
        4
176
     1
 62
     7
176
     1
 62
   257
176
     1
 90
        1
176
     1
 90
        1
176
     1
 40
1.0
176
     1
 90
        8
176
     1
 62
     7
176
     1
 40
1.0
176
     1
 90
        1
176
     1
 90
        6
176
     1
 90
        2
176
     1
 62
     7
176
     1
 90
        5
176
     1
 90
        0
176
     1
 90
        0
176
     1
290
     0
176
     1
 90
        1
176
     1
 40
0.0
176
     1
 90
        0
176
     1
290
     0
176
     1
290
     1
176
     1
290
     1
176
     1
290
     0
176
     1
290
     0
176
     1
290
     0
176
     1
290
     0
176
     1
290
     0
176
     1
290
     0
176
     1
 90
       50
176
     1
 40
0.0
176
     1
 40
1.0
176
     1
 90
        0
176
     1
 62
    18
420
        0
176
     1
 90
       50
176
     1
 90
        3
176
     1
 62
     5
420
      255
176
     1
290
     0
176
     1
 90
       50
176
     1
 90
       50
176
     1
 90
       50
176
     1
290
     0
176
     1
 90
       50
176
     1
 62
   256
176
     0
 40
1.0
176
     0
 90
        2
176
     1
  1
strokes_ogs.tif
176
     1
290
     0
176
     1
 40
1.0
176
     1
 40
1.0
176
     1
  0
VISUALSTYLE
  5
2B
102
{ACAD_REACTORS
330
2A
102
}
330
2A
100
AcDbVisualStyle
  2
Flat
 70
     0
177
     3
291
     1
 70
    58
 90
        2
176
     1
 90
        1
176
     1
 90
        1
176
     1
 90
        2
176
     1
 40
0.6
176
     1
 40
30.0
176
     1
 62
     7
420
 16777215
176
     1
 90
        0
176
     1
 90
        0
176
     1
 62
     7
176
     1
 62
   257
176
     1
 90
        1
176
     1
 90
        1
176
     1
 40
1.0
176
     1
 90
        8
176
     1
 62
     7
176
     1
 40
1.0
176
     1
 90
        1
176
     1
 90
        6
176
     1
 90
        2
176
     1
 62
     7
176
     1
 90
        5
176
     1
 90
        0
176
     1
 90
        0
176
     1
290
     0
176
     1
 90
       13
176
     1
 40
0.0
176
     1
 90
        0
176
     1
290
     0
176
     1
290
     1
176
     1
290
     1
176
     1
290
     0
176
     1
290
     0
176
     1
290
     0
176
     1
290
     0
176
     1
290
     0
176
     1
290
     0
176
     1
 90
       50
176
     1
 40
0.0
176
     1
 40
1.0
176
     1
 90
        0
176
     1
 62
    18
420
        0
176
     1
 90
       50
176
     1
 90
        3
176
     1
 62
     5
420
      255
176
     1
290
     0
176
     1
 90
       50
176
     1
 90
       50
176
     1
 90
       50
176
     1
290
     0
176
     1
 90
       50
176
     1
 62
   256
176
     0
 40
1.0
176
     0
 90
        2
176
     1
  1
strokes_ogs.tif
176
     1
290
     0
176
     1
 40
1.0
176
     1
 40
1.0
176
     1
  0
VISUALSTYLE
  5
2C
102
{ACAD_REACTORS
330
2A
102
}
330
2A
100
AcDbVisualStyle
  2
FlatWithEdges
 70
     1
177
     3
291
     1
 70
    58
 90
        2
176
     1
 90
        1
176
     1
 90
        1
176
     1
 90
        2
176
     1
 40
0.6
176
     1
 40
30.0
176
     1
 62
     7
420
 16777215
176
     1
 90
        1
176
     1
 90
        0
176
     1
 62
     7
176
     1
 62
   257
176
     1
 90
        1
176
     1
 90
        1
176
     1
 40
1.0
176
     1
 90
        0
176
     1
 62
   257
176
     1
 40
1.0
176
     1
 90
        1
176
     1
 90
        6
176
     1
 90
        2
176
     1
 62
     7
176
     1
 90
        5
176
     1
 90
        0
176
     1
 90
        0
176
     1
290
     0
176
     1
 90
       13
176
     1
 40
0.0
176
     1
 90
        0
176
     1
290
     0
176
     1
290
     1
176
     1
290
     1
176
     1
290
     0
176
     1
290
     0
176
     1
290
     0
176
     1
290
     0
176
     1
290
     0
176
     1
290
     0
176
     1
 90
       50
176
     1
 40
0.0
176
     1
 40
1.0
176
     1
 90
        0
176
     1
 62
    18
420
        0
176
     1
 90
       50
176
     1
 90
        3
176
     1
 62
     5
420
      255
176
     1
290
     0
176
     1
 90
       50
176
     1
 90
       50
176
     1
 90
       50
176
     1
290
     0
176
     1
 90
       50
176
     1
 62
   256
176
     0
 40
1.0
176
     0
 90
        2
176
     1
  1
strokes_ogs.tif
176
     1
290
     0
176
     1
 40
1.0
176
     1
 40
1.0
176
     1
  0
VISUALSTYLE
  5
2D
102
{ACAD_REACTORS
330
2A
102
}
330
2A
100
AcDbVisualStyle
  2
Gouraud
 70
     2
177
     3
291
     1
 70
    58
 90
        2
176
     1
 90
        2
176
     1
 90
        1
176
     1
 90
        2
176
     1
 40
0.6
176
     1
 40
30.0
176
     1
 62
     7
420
 16777215
176
     1
 90
        0
176
     1
 90
        0
176
     1
 62
     7
176
     1
 62
   257
176
     1
 90
        1
176
     1
 90
        1
176
     1
 40
1.0
176
     1
 90
        0
176
     1
 62
     7
176
     1
 40
1.0
176
     1
 90
        1
176
     1
 90
        6
176
     1
 90
        2
176
     1
 62
     7
176
     1
 90
        5
176
     1
 90
        0
176
     1
 90
        0
176
     1
290
     0
176
     1
 90
       13
176
     1
 40
0.0
176
     1
 90
        0
176
     1
290
     0
176
     1
290
     1
176
     1
290
     1
176
     1
290
     0
176
     1
290
     0
176
     1
290
     0
176
     1
290
     0
176
     1
290
     0
176
     1
290
     0
176
     1
 90
       50
176
     1
 40
0.0
176
     1
 40
1.0
176
     1
 90
        0
176
     1
 62
    18
420
        0
176
     1
 90
       50
176
     1
 90
        3
176
     1
 62
     5
420
      255
176
     1
290
     0
176
     1
 90
       50
176
     1
 90
       50
176
     1
 90
       50
176
     1
290
     0
176
     1
 90
       50
176
     1
 62
   256
176
     0
 40
1.0
176
     0
 90
        2
176
     1
  1
strokes_ogs.tif
176
     1
290
     0
176
     1
 40
1.0
176
     1
 40
1.0
176
     1
  0
VISUALSTYLE
  5
2E
102
{ACAD_REACTORS
330
2A
102
}
330
2A
100
AcDbVisualStyle
  2
GouraudWithEdges
 70
     3
177
     3
291
     1
 70
    58
 90
        2
176
     1
 90
        2
176
     1
 90
        1
176
     1
 90
        2
176
     1
 40
0.6
176
     1
 40
30.0
176
     1
 62
     7
420
 16777215
176
     1
 90
        1
176
     1
 90
        0
176
     1
 62
     7
176
     1
 62
   257
176
     1
 90
        1
176
     1
 90
        1
176
     1
 40
1.0
176
     1
 90
        0
176
     1
 62
   257
176
     1
 40
1.0
176
     1
 90
        1
176
     1
 90
        6
176
     1
 90
        2
176
     1
 62
     7
176
     1
 90
        5
176
     1
 90
        0
176
     1
 90
        0
176
     1
290
     0
176
     1
 90
       13
176
     1
 40
0.0
176
     1
 90
        0
176
     1
290
     0
176
     1
290
     1
176
     1
290
     1
176
     1
290
     0
176
     1
290
     0
176
     1
290
     0
176
     1
290
     0
176
     1
290
     0
176
     1
290
     0
176
     1
 90
       50
176
     1
 40
0.0
176
     1
 40
1.0
176
     1
 90
        0
176
     1
 62
    18
420
        0
176
     1
 90
       50
176
     1
 90
        3
176
     1
 62
     5
420
      255
176
     1
290
     0
176
     1
 90
       50
176
     1
 90
       50
176
     1
 90
       50
176
     1
290
     0
176
     1
 90
       50
176
     1
 62
   256
176
     0
 40
1.0
176
     0
 90
        2
176
     1
  1
strokes_ogs.tif
176
     1
290
     0
176
     1
 40
1.0
176
     1
 40
1.0
176
     1
  0
VISUALSTYLE
  5
31
102
{ACAD_REACTORS
330
2A
102
}
330
2A
100
AcDbVisualStyle
  2
Hidden
 70
     6
177
     3
291
     0
 70
    58
 90
        1
176
     1
 90
        2
176
     1
 90
        2
176
     1
 90
        0
176
     1
 40
0.6
176
     1
 40
30.0
176
     1
 62
     7
420
 16777215
176
     1
 90
        2
176
     1
 90
        2
176
     1
 62
     7
176
     1
 62
   257
176
     1
 90
        2
176
     1
 90
        1
176
     1
 40
40.0
176
     1
 90
        0
176
     1
 62
   257
176
     1
 40
1.0
176
     1
 90
        1
176
     1
 90
        6
176
     1
 90
        2
176
     1
 62
     7
176
     1
 90
        3
176
     1
 90
        0
176
     1
 90
        0
176
     1
290
     0
176
     1
 90
        1
176
     1
 40
0.0
176
     1
 90
        0
176
     1
290
     0
176
     1
290
     1
176
     1
290
     1
176
     1
290
     0
176
     1
290
     0
176
     1
290
     0
176
     1
290
     0
176
     1
290
     0
176
     1
290
     0
176
     1
 90
       50
176
     1
 40
0.0
176
     1
 40
1.0
176
     1
 90
        0
176
     1
 62
    18
420
        0
176
     1
 90
       50
176
     1
 90
        3
176
     1
 62
     5
420
      255
176
     1
290
     0
176
     1
 90
       50
176
     1
 90
       50
176
     1
 90
       50
176
     1
290
     0
176
     1
 90
       50
176
     1
 62
   256
176
     0
 40
1.0
176
     0
 90
        2
176
     1
  1
strokes_ogs.tif
176
     1
290
     0
176
     1
 40
1.0
176
     1
 40
1.0
176
     1
  0
VISUALSTYLE
  5
3B
102
{ACAD_REACTORS
330
2A
102
}
330
2A
100
AcDbVisualStyle
  2
JitterOff
 70
    20
177
     3
291
     1
 70
    58
 90
        2
176
     0
 90
        2
176
     0
 90
        0
176
     0
 90
        0
176
     0
 40
0.6
176
     0
 40
30.0
176
     0
 62
     7
420
 16777215
176
     0
 90
        1
176
     0
 90
        4
176
     0
 62
     7
176
     0
 62
   257
176
     0
 90
        1
176
     0
 90
        1
176
     0
 40
1.0
176
     0
 90
       10
176
     2
 62
     7
176
     0
 40
1.0
176
     0
 90
        1
176
     0
 90
        6
176
     0
 90
        2
176
     0
 62
     7
176
     0
 90
        5
176
     0
 90
        0
176
     0
 90
        0
176
     0
290
     0
176
     0
 90
        1
176
     0
 40
0.0
176
     0
 90
        0
176
     0
290
     0
176
     0
290
     1
176
     0
290
     1
176
     0
290
     0
176
     0
290
     0
176
     0
290
     0
176
     0
290
     0
176
     0
290
     0
176
     0
290
     0
176
     0
 90
       50
176
     0
 40
0.0
176
     0
 40
1.0
176
     0
 90
        0
176
     0
 62
    18
420
        0
176
     0
 90
       50
176
     0
 90
        3
176
     0
 62
     5
420
      255
176
     0
290
     0
176
     0
 90
       50
176
     0
 90
       50
176
     0
 90
       50
176
     0
290
     0
176
     0
 90
       50
176
     0
 62
   256
176
     0
 40
1.0
176
     0
 90
        2
176
     0
  1
strokes_ogs.tif
176
     0
290
     0
176
     0
 40
1.0
176
     0
 40
1.0
176
     0
  0
VISUALSTYLE
  5
38
102
{ACAD_REACTORS
330
2A
102
}
330
2A
100
AcDbVisualStyle
  2
Linepattern
 70
    14
177
     3
291
     1
 70
    58
 90
        2
176
     1
 90
        2
176
     1
 90
        0
176
     1
 90
        0
176
     1
 40
0.6
176
     1
 40
30.0
176
     1
 62
     7
420
 16777215
176
     1
 90
        1
176
     1
 90
        4
176
     1
 62
     7
176
     1
 62
   257
176
     1
 90
        7
176
     1
 90
        7
176
     1
 40
1.0
176
     1
 90
        8
176
     1
 62
     7
176
     1
 40
1.0
176
     1
 90
        1
176
     1
 90
        6
176
     1
 90
        2
176
     1
 62
     7
176
     1
 90
        5
176
     1
 90
        0
176
     1
 90
        0
176
     1
290
     0
176
     1
 90
        1
176
     1
 40
0.0
176
     1
 90
        0
176
     1
290
     0
176
     1
290
     1
176
     1
290
     1
176
     1
290
     0
176
     1
290
     0
176
     1
290
     0
176
     1
290
     0
176
     1
290
     0
176
     1
290
     0
176
     1
 90
       50
176
     1
 40
0.0
176
     1
 40
1.0
176
     1
 90
        0
176
     1
 62
    18
420
        0
176
     1
 90
       50
176
     1
 90
        3
176
     1
 62
     5
420
      255
176
     1
290
     0
176
     1
 90
       50
176
     1
 90
       50
176
     1
 90
       50
176
     1
290
     0
176
     1
 90
       50
176
     1
 62
   256
176
     0
 40
1.0
176
     0
 90
        2
176
     1
  1
strokes_ogs.tif
176
     1
290
     0
176
     1
 40
1.0
176
     1
 40
1.0
176
     1
  0
VISUALSTYLE
  5
3C
102
{ACAD_REACTORS
330
2A
102
}
330
2A
100
AcDbVisualStyle
  2
OverhangOff
 70
    21
177
     3
291
     1
 70
    58
 90
        2
176
     0
 90
        2
176
     0
 90
        0
176
     0
 90
        0
176
     0
 40
0.6
176
     0
 40
30.0
176
     0
 62
     7
420
 16777215
176
     0
 90
        1
176
     0
 90
        4
176
     0
 62
     7
176
     0
 62
   257
176
     0
 90
        1
176
     0
 90
        1
176
     0
 40
1.0
176
     0
 90
        9
176
     2
 62
     7
176
     0
 40
1.0
176
     0
 90
        1
176
     0
 90
        6
176
     0
 90
        2
176
     0
 62
     7
176
     0
 90
        5
176
     0
 90
        0
176
     0
 90
        0
176
     0
290
     0
176
     0
 90
        1
176
     0
 40
0.0
176
     0
 90
        0
176
     0
290
     0
176
     0
290
     1
176
     0
290
     1
176
     0
290
     0
176
     0
290
     0
176
     0
290
     0
176
     0
290
     0
176
     0
290
     0
176
     0
290
     0
176
     0
 90
       50
176
     0
 40
0.0
176
     0
 40
1.0
176
     0
 90
        0
176
     0
 62
    18
420
        0
176
     0
 90
       50
176
     0
 90
        3
176
     0
 62
     5
420
      255
176
     0
290
     0
176
     0
 90
       50
176
     0
 90
       50
176
     0
 90
       50
176
     0
290
     0
176
     0
 90
       50
176
     0
 62
   256
176
     0
 40
1.0
176
     0
 90
        2
176
     0
  1
strokes_ogs.tif
176
     0
290
     0
176
     0
 40
1.0
176
     0
 40
1.0
176
     0
  0
VISUALSTYLE
  5
33
102
{ACAD_REACTORS
330
2A
102
}
330
2A
100
AcDbVisualStyle
  2
Realistic
 70
     8
177
     3
291
     0
 70
    58
 90
        2
176
     1
 90
        3
176
     1
 90
        0
176
     1
 90
        2
176
     1
 40
0.6
176
     1
 40
30.0
176
     1
 62
     7
420
 16777215
176
     1
 90
        0
176
     1
 90
        0
176
     1
 62
     7
176
     1
 62
   257
176
     1
 90
        1
176
     1
 90
        1
176
     1
 40
1.0
176
     1
 90
        8
176
     1
 62
   257
176
     1
 40
1.0
176
     1
 90
        1
176
     1
 90
        6
176
     1
 90
        2
176
     1
 62
     7
176
     1
 90
        3
176
     1
 90
        0
176
     1
 90
        0
176
     1
290
     0
176
     1
 90
       13
176
     1
 40
0.0
176
     1
 90
        0
176
     1
290
     0
176
     1
290
     1
176
     1
290
     1
176
     1
290
     0
176
     1
290
     0
176
     1
290
     0
176
     1
290
     0
176
     1
290
     0
176
     1
290
     0
176
     1
 90
       50
176
     1
 40
0.0
176
     1
 40
1.0
176
     1
 90
        0
176
     1
 62
    18
420
        0
176
     1
 90
       50
176
     1
 90
        3
176
     1
 62
     5
420
      255
176
     1
290
     0
176
     1
 90
       50
176
     1
 90
       50
176
     1
 90
       50
176
     1
290
     0
176
     1
 90
       50
176
     1
 62
   256
176
     0
 40
1.0
176
     0
 90
        2
176
     1
  1
strokes_ogs.tif
176
     1
290
     0
176
     1
 40
1.0
176
     1
 40
1.0
176
     1
  0
VISUALSTYLE
  5
42
102
{ACAD_REACTORS
330
2A
102
}
330
2A
100
AcDbVisualStyle
  2
Shaded
 70
    27
177
     3
291
     0
 70
    58
 90
        2
176
     1
 90
        2
176
     1
 90
        1
176
     1
 90
        2
176
     1
 40
0.6
176
     1
 40
30.0
176
     1
 62
     7
420
 16777215
176
     1
 90
        0
176
     1
 90
        4
176
     1
 62
     7
176
     1
 62
   257
176
     1
 90
        1
176
     1
 90
        1
176
     1
 40
1.0
176
     1
 90
        8
176
     1
 62
   257
176
     1
 40
1.0
176
     1
 90
        1
176
     1
 90
        6
176
     1
 90
        2
176
     1
 62
     8
420
  7895160
176
     1
 90
        3
176
     1
 90
        0
176
     1
 90
        0
176
     1
290
     0
176
     1
 90
        5
176
     1
 40
0.0
176
     1
 90
        0
176
     1
290
     0
176
     1
290
     1
176
     1
290
     1
176
     1
290
     0
176
     1
290
     0
176
     1
290
     0
176
     1
290
     0
176
     1
290
     0
176
     1
290
     0
176
     1
 90
       50
176
     1
 40
0.0
176
     1
 40
1.0
176
     1
 90
        0
176
     1
 62
    18
420
        0
176
     1
 90
       50
176
     1
 90
        3
176
     1
 62
     5
420
      255
176
     1
290
     0
176
     1
 90
       50
176
     1
 90
       50
176
     1
 90
       50
176
     1
290
     0
176
     1
 90
       50
176
     1
 62
   256
176
     0
 40
1.0
176
     0
 90
        2
176
     1
  1
strokes_ogs.tif
176
     1
290
     0
176
     1
 40
1.0
176
     1
 40
1.0
176
     1
  0
VISUALSTYLE
  5
41
102
{ACAD_REACTORS
330
2A
102
}
330
2A
100
AcDbVisualStyle
  2
Shaded with edges
 70
    26
177
     3
291
     0
 70
    58
 90
        2
176
     1
 90
        2
176
     1
 90
        1
176
     1
 90
        2
176
     1
 40
0.6
176
     1
 40
30.0
176
     1
 62
     7
420
 16777215
176
     1
 90
        1
176
     1
 90
       10
176
     1
 62
     7
176
     1
 62
   257
176
     1
 90
        2
176
     1
 90
        1
176
     1
 40
1.0
176
     1
 90
        8
176
     1
 62
   257
176
     1
 40
1.0
176
     1
 90
        1
176
     1
 90
        6
176
     1
 90
        2
176
     1
 62
     7
176
     1
 90
        3
176
     1
 90
        0
176
     1
 90
        0
176
     1
290
     0
176
     1
 90
        5
176
     1
 40
0.0
176
     1
 90
        0
176
     1
290
     0
176
     1
290
     1
176
     1
290
     1
176
     1
290
     0
176
     1
290
     0
176
     1
290
     0
176
     1
290
     0
176
     1
290
     0
176
     1
290
     0
176
     1
 90
       50
176
     1
 40
0.0
176
     1
 40
1.0
176
     1
 90
        0
176
     1
 62
    18
420
        0
176
     1
 90
       50
176
     1
 90
        3
176
     1
 62
     5
420
      255
176
     1
290
     0
176
     1
 90
       50
176
     1
 90
       50
176
     1
 90
       50
176
     1
290
     0
176
     1
 90
       50
176
     1
 62
   256
176
     0
 40
1.0
176
     0
 90
        2
176
     1
  1
strokes_ogs.tif
176
     1
290
     0
176
     1
 40
1.0
176
     1
 40
1.0
176
     1
  0
VISUALSTYLE
  5
3E
102
{ACAD_REACTORS
330
2A
102
}
330
2A
100
AcDbVisualStyle
  2
Shades of Gray
 70
    23
177
     3
291
     0
 70
    58
 90
        2
176
     1
 90
        2
176
     1
 90
        3
176
     1
 90
        0
176
     1
 40
0.6
176
     1
 40
30.0
176
     1
 62
     7
420
 16777215
176
     1
 90
        2
176
     1
 90
        2
176
     1
 62
     7
176
     1
 62
     7
176
     1
 90
        1
176
     1
 90
        1
176
     1
 40
40.0
176
     1
 90
        8
176
     1
 62
     7
176
     1
 40
1.0
176
     1
 90
        1
176
     1
 90
        6
176
     1
 90
        2
176
     1
 62
     7
176
     1
 90
        3
176
     1
 90
        0
176
     1
 90
        0
176
     1
290
     0
176
     1
 90
        1
176
     1
 40
0.0
176
     1
 90
        0
176
     1
290
     0
176
     1
290
     1
176
     1
290
     1
176
     1
290
     0
176
     1
290
     0
176
     1
290
     0
176
     1
290
     0
176
     1
290
     0
176
     1
290
     0
176
     1
 90
       50
176
     1
 40
0.0
176
     1
 40
1.0
176
     1
 90
        0
176
     1
 62
    18
420
        0
176
     1
 90
       50
176
     1
 90
        3
176
     1
 62
     5
420
      255
176
     1
290
     0
176
     1
 90
       50
176
     1
 90
       50
176
     1
 90
       50
176
     1
290
     0
176
     1
 90
       50
176
     1
 62
   256
176
     0
 40
1.0
176
     0
 90
        2
176
     1
  1
strokes_ogs.tif
176
     1
290
     0
176
     1
 40
1.0
176
     1
 40
1.0
176
     1
  0
VISUALSTYLE
  5
3F
102
{ACAD_REACTORS
330
2A
102
}
330
2A
100
AcDbVisualStyle
  2
Sketchy
 70
    24
177
     3
291
     0
 70
    58
 90
        1
176
     1
 90
        2
176
     1
 90
        2
176
     1
 90
        0
176
     1
 40
0.6
176
     1
 40
30.0
176
     1
 62
     7
420
 16777215
176
     1
 90
        2
176
     1
 90
        2
176
     1
 62
     7
176
     1
 62
     7
176
     1
 90
        1
176
     1
 90
        1
176
     1
 40
40.0
176
     1
 90
       11
176
     1
 62
     7
176
     1
 40
1.0
176
     1
 90
        1
176
     1
 90
        6
176
     1
 90
        2
176
     1
 62
     7
176
     1
 90
        6
176
     1
 90
        0
176
     1
 90
        0
176
     1
290
     0
176
     1
 90
        1
176
     1
 40
0.0
176
     1
 90
        0
176
     1
290
     0
176
     1
290
     1
176
     1
290
     1
176
     1
290
     0
176
     1
290
     0
176
     1
290
     0
176
     1
290
     0
176
     1
290
     0
176
     1
290
     0
176
     1
 90
       50
176
     1
 40
0.0
176
     1
 40
1.0
176
     1
 90
        0
176
     1
 62
    18
420
        0
176
     1
 90
       50
176
     1
 90
        3
176
     1
 62
     5
420
      255
176
     1
290
     0
176
     1
 90
       50
176
     1
 90
       50
176
     1
 90
       50
176
     1
290
     0
176
     1
 90
       50
176
     1
 62
   256
176
     0
 40
1.0
176
     0
 90
        2
176
     1
  1
strokes_ogs.tif
176
     1
290
     0
176
     1
 40
1.0
176
     1
 40
1.0
176
     1
  0
VISUALSTYLE
  5
37
102
{ACAD_REACTORS
330
2A
102
}
330
2A
100
AcDbVisualStyle
  2
Thicken
 70
    13
177
     3
291
     1
 70
    58
 90
        2
176
     1
 90
        2
176
     1
 90
        0
176
     1
 90
        0
176
     1
 40
0.6
176
     1
 40
30.0
176
     1
 62
     7
420
 16777215
176
     1
 90
        1
176
     1
 90
        4
176
     1
 62
     7
176
     1
 62
   257
176
     1
 90
        1
176
     1
 90
        1
176
     1
 40
1.0
176
     1
 90
       12
176
     1
 62
     7
176
     1
 40
1.0
176
     1
 90
        1
176
     1
 90
        6
176
     1
 90
        2
176
     1
 62
     7
176
     1
 90
        5
176
     1
 90
        0
176
     1
 90
        0
176
     1
290
     0
176
     1
 90
        1
176
     1
 40
0.0
176
     1
 90
        0
176
     1
290
     0
176
     1
290
     1
176
     1
290
     1
176
     1
290
     0
176
     1
290
     0
176
     1
290
     0
176
     1
290
     0
176
     1
290
     0
176
     1
290
     0
176
     1
 90
       50
176
     1
 40
0.0
176
     1
 40
1.0
176
     1
 90
        0
176
     1
 62
    18
420
        0
176
     1
 90
       50
176
     1
 90
        3
176
     1
 62
     5
420
      255
176
     1
290
     0
176
     1
 90
       50
176
     1
 90
       50
176
     1
 90
       50
176
     1
290
     0
176
     1
 90
       50
176
     1
 62
   256
176
     0
 40
1.0
176
     0
 90
        2
176
     1
  1
strokes_ogs.tif
176
     1
290
     0
176
     1
 40
1.0
176
     1
 40
1.0
176
     1
  0
VISUALSTYLE
  5
30
102
{ACAD_REACTORS
330
2A
102
}
330
2A
100
AcDbVisualStyle
  2
Wireframe
 70
     5
177
     3
291
     0
 70
    58
 90
        0
176
     1
 90
        2
176
     1
 90
        0
176
     1
 90
        0
176
     1
 40
0.6
176
     1
 40
30.0
176
     1
 62
     7
420
 16777215
176
     1
 90
        1
176
     1
 90
        4
176
     1
 62
     7
176
     1
 62
   257
176
     1
 90
        1
176
     1
 90
        1
176
     1
 40
1.0
176
     1
 90
        0
176
     1
 62
   257
176
     1
 40
1.0
176
     1
 90
        1
176
     1
 90
        6
176
     1
 90
        2
176
     1
 62
     7
176
     1
 90
        3
176
     1
 90
        0
176
     1
 90
        0
176
     1
290
     0
176
     1
 90
        1
176
     1
 40
0.0
176
     1
 90
        0
176
     1
290
     0
176
     1
290
     1
176
     1
290
     1
176
     1
290
     0
176
     1
290
     0
176
     1
290
     0
176
     1
290
     0
176
     1
290
     0
176
     1
290
     0
176
     1
 90
       50
176
     1
 40
0.0
176
     1
 40
1.0
176
     1
 90
        0
176
     1
 62
    18
420
        0
176
     1
 90
       50
176
     1
 90
        3
176
     1
 62
     5
420
      255
176
     1
290
     0
176
     1
 90
       50
176
     1
 90
       50
176
     1
 90
       50
176
     1
290
     0
176
     1
 90
       50
176
     1
 62
   256
176
     0
 40
1.0
176
     0
 90
        2
176
     1
  1
strokes_ogs.tif
176
     1
290
     0
176
     1
 40
1.0
176
     1
 40
1.0
176
     1
  0
VISUALSTYLE
  5
40
102
{ACAD_REACTORS
330
2A
102
}
330
2A
100
AcDbVisualStyle
  2
X-Ray
 70
    25
177
     3
291
     0
 70
    58
 90
        2
176
     1
 90
        2
176
     1
 90
        1
176
     1
 90
        1
176
     1
 40
0.5
176
     1
 40
30.0
176
     1
 62
     7
420
 16777215
176
     1
 90
        1
176
     1
 90
        0
176
     1
 62
     7
176
     1
 62
   257
176
     1
 90
        1
176
     1
 90
        1
176
     1
 40
1.0
176
     1
 90
        8
176
     1
 62
     7
176
     1
 40
1.0
176
     1
 90
        1
176
     1
 90
        6
176
     1
 90
        2
176
     1
 62
     7
176
     1
 90
        3
176
     1
 90
        0
176
     1
 90
        0
176
     1
290
     0
176
     1
 90
       13
176
     1
 40
0.0
176
     1
 90
        0
176
     1
290
     0
176
     1
290
     1
176
     1
290
     1
176
     1
290
     0
176
     1
290
     0
176
     1
290
     0
176
     1
290
     0
176
     1
290
     0
176
     1
290
     0
176
     1
 90
       50
176
     1
 40
0.0
176
     1
 40
1.0
176
     1
 90
        0
176
     1
 62
    18
420
        0
176
     1
 90
       50
176
     1
 90
        3
176
     1
 62
     5
420
      255
176
     1
290
     0
176
     1
 90
       50
176
     1
 90
       50
176
     1
 90
       50
176
     1
290
     0
176
     1
 90
       50
176
     1
 62
   256
176
     0
 40
1.0
176
     0
 90
        2
176
     1
  1
strokes_ogs.tif
176
     1
290
     0
176
     1
 40
1.0
176
     1
 40
1.0
176
     1
  0
DICTIONARYVAR
  5
1EF
102
{ACAD_REACTORS
330
1EE
102
}
330
1EE
100
DictionaryVariables
280
     0
  1
1:1
  0
DICTIONARYVAR
  5
1F4
102
{ACAD_REACTORS
330
1EE
102
}
330
1EE
100
DictionaryVariables
280
     0
  1
Standard
  0
DICTIONARYVAR
  5
1F3
102
{ACAD_REACTORS
330
1EE
102
}
330
1EE
100
DictionaryVariables
280
     0
  1
Standard
  0
DICTIONARY
  5
1F0
330
5A
100
AcDbDictionary
280
     1
281
     1
  3
ACAD_ROUNDTRIP_2008_TABLESTYLE_CELLSTYLEMAP
360
1F1
  0
CELLSTYLEMAP
  5
1F1
102
{ACAD_REACTORS
330
1F0
102
}
330
1F0
100
AcDbCellStyleMap
 90
        3
300
CELLSTYLE
  1
TABLEFORMAT_BEGIN
 90
        5
170
     1
 91
        0
 92
    32768
 62
   257
 93
        1
300
CONTENTFORMAT
  1
CONTENTFORMAT_BEGIN
 90
        0
 91
        0
 92
        4
 93
        0
300

 40
0.0
140
1.0
 94
        5
 62
     0
340
11
144
0.25
309
CONTENTFORMAT_END
171
     1
301
MARGIN
  1
CELLMARGIN_BEGIN
 40
0.06
 40
0.06
 40
0.06
 40
0.06
 40
0.06
 40
0.06
309
CELLMARGIN_END
 94
        6
 95
        1
302
GRIDFORMAT
  1
GRIDFORMAT_BEGIN
 90
        0
 91
        1
 62
     0
 92
       -2
340
14
 93
        0
 40
0.045
309
GRIDFORMAT_END
 95
        2
302
GRIDFORMAT
  1
GRIDFORMAT_BEGIN
 90
        0
 91
        1
 62
     0
 92
       -2
340
14
 93
        0
 40
0.045
309
GRIDFORMAT_END
 95
        4
302
GRIDFORMAT
  1
GRIDFORMAT_BEGIN
 90
        0
 91
        1
 62
     0
 92
       -2
340
14
 93
        0
 40
0.045
309
GRIDFORMAT_END
 95
        8
302
GRIDFORMAT
  1
GRIDFORMAT_BEGIN
 90
        0
 91
        1
 62
     0
 92
       -2
340
14
 93
        0
 40
0.045
309
GRIDFORMAT_END
 95
       16
302
GRIDFORMAT
  1
GRIDFORMAT_BEGIN
 90
        0
 91
        1
 62
     0
 92
       -2
340
14
 93
        0
 40
0.045
309
GRIDFORMAT_END
 95
       32
302
GRIDFORMAT
  1
GRIDFORMAT_BEGIN
 90
        0
 91
        1
 62
     0
 92
       -2
340
14
 93
        0
 40
0.045
309
GRIDFORMAT_END
309
TABLEFORMAT_END
  1
CELLSTYLE_BEGIN
 90
        1
 91
        1
300
_TITLE
309
CELLSTYLE_END
300
CELLSTYLE
  1
TABLEFORMAT_BEGIN
 90
        5
170
     1
 91
        0
 92
        0
 62
   257
 93
        1
300
CONTENTFORMAT
  1
CONTENTFORMAT_BEGIN
 90
        0
 91
        0
 92
        4
 93
        0
300

 40
0.0
140
1.0
 94
        5
 62
     0
340
11
144
0.18
309
CONTENTFORMAT_END
171
     1
301
MARGIN
  1
CELLMARGIN_BEGIN
 40
0.06
 40
0.06
 40
0.06
 40
0.06
 40
0.06
 40
0.06
309
CELLMARGIN_END
 94
        6
 95
        1
302
GRIDFORMAT
  1
GRIDFORMAT_BEGIN
 90
        0
 91
        1
 62
     0
 92
       -2
340
14
 93
        0
 40
0.045
309
GRIDFORMAT_END
 95
        2
302
GRIDFORMAT
  1
GRIDFORMAT_BEGIN
 90
        0
 91
        1
 62
     0
 92
       -2
340
14
 93
        0
 40
0.045
309
GRIDFORMAT_END
 95
        4
302
GRIDFORMAT
  1
GRIDFORMAT_BEGIN
 90
        0
 91
        1
 62
     0
 92
       -2
340
14
 93
        0
 40
0.045
309
GRIDFORMAT_END
 95
        8
302
GRIDFORMAT
  1
GRIDFORMAT_BEGIN
 90
        0
 91
        1
 62
     0
 92
       -2
340
14
 93
        0
 40
0.045
309
GRIDFORMAT_END
 95
       16
302
GRIDFORMAT
  1
GRIDFORMAT_BEGIN
 90
        0
 91
        1
 62
     0
 92
       -2
340
14
 93
        0
 40
0.045
309
GRIDFORMAT_END
 95
       32
302
GRIDFORMAT
  1
GRIDFORMAT_BEGIN
 90
        0
 91
        1
 62
     0
 92
       -2
340
14
 93
        0
 40
0.045
309
GRIDFORMAT_END
309
TABLEFORMAT_END
  1
CELLSTYLE_BEGIN
 90
        2
 91
        1
300
_HEADER
309
CELLSTYLE_END
300
CELLSTYLE
  1
TABLEFORMAT_BEGIN
 90
        5
170
     1
 91
        0
 92
        0
 62
   257
 93
        1
300
CONTENTFORMAT
  1
CONTENTFORMAT_BEGIN
 90
        0
 91
        0
 92
        4
 93
        0
300

 40
0.0
140
1.0
 94
        2
 62
     0
340
11
144
0.18
309
CONTENTFORMAT_END
171
     1
301
MARGIN
  1
CELLMARGIN_BEGIN
 40
0.06
 40
0.06
 40
0.06
 40
0.06
 40
0.06
 40
0.06
309
CELLMARGIN_END
 94
        6
 95
        1
302
GRIDFORMAT
  1
GRIDFORMAT_BEGIN
 90
        0
 91
        1
 62
     0
 92
       -2
340
14
 93
        0
 40
0.045
309
GRIDFORMAT_END
 95
        2
302
GRIDFORMAT
  1
GRIDFORMAT_BEGIN
 90
        0
 91
        1
 62
     0
 92
       -2
340
14
 93
        0
 40
0.045
309
GRIDFORMAT_END
 95
        4
302
GRIDFORMAT
  1
GRIDFORMAT_BEGIN
 90
        0
 91
        1
 62
     0
 92
       -2
340
14
 93
        0
 40
0.045
309
GRIDFORMAT_END
 95
        8
302
GRIDFORMAT
  1
GRIDFORMAT_BEGIN
 90
        0
 91
        1
 62
     0
 92
       -2
340
14
 93
        0
 40
0.045
309
GRIDFORMAT_END
 95
       16
302
GRIDFORMAT
  1
GRIDFORMAT_BEGIN
 90
        0
 91
        1
 62
     0
 92
       -2
340
14
 93
        0
 40
0.045
309
GRIDFORMAT_END
 95
       32
302
GRIDFORMAT
  1
GRIDFORMAT_BEGIN
 90
        0
 91
        1
 62
     0
 92
       -2
340
14
 93
        0
 40
0.045
309
GRIDFORMAT_END
309
TABLEFORMAT_END
  1
CELLSTYLE_BEGIN
 90
        3
 91
        2
300
_DATA
309
CELLSTYLE_END
  0
ENDSEC
  0
EOF
