  0
SECTION
  2
HEADER
  9
$ACADVER
  1
AC1027
  9
$ACADMAINTVER
 70
   105
  9
$DWGCODEPAGE
  3
ANSI_1252
  9
$COMMENTS
  1
File was created by Cadenas
  9
$LASTSAVEDBY
  1
psService
  9
$CUSTOMPROPERTYTAG
  1
NB
  9
$CUSTOMPROPERTY
  1
DHH_Heat_Pump-Daikin-DHH0364D000001S-300
  9
$CUSTOMPROPERTYTAG
  1
NN
  9
$CUSTOMPROPERTY
  1
(R32) DHH Series 3 - 6 Tons Heat Pump R32
  9
$CUSTOMPROPERTYTAG
  1
NT
  9
$CUSTOMPROPERTY
  1

  9
$CUSTOMPROPERTYTAG
  1
NBSYN
  9
$CUSTOMPROPERTY
  1
DHH_Heat_Pump-Daikin-$PN.-$LOG.
  9
$CUSTOMPROPERTYTAG
  1
LINA
  9
$CUSTOMPROPERTY
  1
DHH_Heat_Pump-Daikin-DHH0364D000001S
  9
$CUSTOMPROPERTYTAG
  1
CATALOG
  9
$CUSTOMPROPERTY
  1
Daikin
  9
$CUSTOMPROPERTYTAG
  1
PN
  9
$CUSTOMPROPERTY
  1
DHH0364D000001S
  9
$CUSTOMPROPERTYTAG
  1
LOG
  9
$CUSTOMPROPERTY
  1
300
  9
$CUSTOMPROPERTYTAG
  1
DES
  9
$CUSTOMPROPERTY
  1
DHH 3 Ton Light Commercial Packaged Heat Pump R32
  9
$CUSTOMPROPERTYTAG
  1
OD
  9
$CUSTOMPROPERTY
  1
48.310
  9
$CUSTOMPROPERTYTAG
  1
OH
  9
$CUSTOMPROPERTY
  1
43.500
  9
$CUSTOMPROPERTYTAG
  1
OW
  9
$CUSTOMPROPERTY
  1
74.000
  9
$CUSTOMPROPERTYTAG
  1
URL
  9
$CUSTOMPROPERTY
  1
https://daikincomfort.com
  9
$CUSTOMPROPERTYTAG
  1
RFAFAMILY
  9
$CUSTOMPROPERTY
  1
Download Revit Family (RFA)
  9
$CUSTOMPROPERTYTAG
  1
COMPANY
  9
$CUSTOMPROPERTY
  1
daikin
  9
$REQUIREDVERSIONS
160
                 0
  9
$INSBASE
 10
0.0
 20
0.0
 30
0.0
  9
$EXTMIN
 10
-40.7
 20
-36.15974644935737
 30
0.0
  9
$EXTMAX
 10
49.95525423728814
 20
27.07702372881356
 30
0.0
  9
$LIMMIN
 10
0.0
 20
0.0
  9
$LIMMAX
 10
12.0
 20
9.0
  9
$ORTHOMODE
 70
     0
  9
$REGENMODE
 70
     1
  9
$FILLMODE
 70
     1
  9
$QTEXTMODE
 70
     0
  9
$MIRRTEXT
 70
     1
  9
$LTSCALE
 40
1.0
  9
$ATTMODE
 70
     1
  9
$TEXTSIZE
 40
0.2
  9
$TRACEWID
 40
0.05
  9
$TEXTSTYLE
  7
Standard
  9
$CLAYER
  8
0
  9
$CELTYPE
  6
ByLayer
  9
$CECOLOR
 62
   256
  9
$CELTSCALE
 40
1.0
  9
$DISPSILH
 70
     0
  9
$DIMSCALE
 40
1.0
  9
$DIMASZ
 40
0.18
  9
$DIMEXO
 40
0.0625
  9
$DIMDLI
 40
0.38
  9
$DIMRND
 40
0.0
  9
$DIMDLE
 40
0.0
  9
$DIMEXE
 40
0.18
  9
$DIMTP
 40
0.0
  9
$DIMTM
 40
0.0
  9
$DIMTXT
 40
0.18
  9
$DIMCEN
 40
0.09
  9
$DIMTSZ
 40
0.0
  9
$DIMTOL
 70
     0
  9
$DIMLIM
 70
     0
  9
$DIMTIH
 70
     1
  9
$DIMTOH
 70
     1
  9
$DIMSE1
 70
     0
  9
$DIMSE2
 70
     0
  9
$DIMTAD
 70
     0
  9
$DIMZIN
 70
     0
  9
$DIMBLK
  1

  9
$DIMASO
 70
     1
  9
$DIMSHO
 70
     1
  9
$DIMPOST
  1

  9
$DIMAPOST
  1

  9
$DIMALT
 70
     0
  9
$DIMALTD
 70
     2
  9
$DIMALTF
 40
25.4
  9
$DIMLFAC
 40
1.0
  9
$DIMTOFL
 70
     0
  9
$DIMTVP
 40
0.0
  9
$DIMTIX
 70
     0
  9
$DIMSOXD
 70
     0
  9
$DIMSAH
 70
     0
  9
$DIMBLK1
  1

  9
$DIMBLK2
  1

  9
$DIMSTYLE
  2
Standard
  9
$DIMCLRD
 70
     0
  9
$DIMCLRE
 70
     0
  9
$DIMCLRT
 70
     0
  9
$DIMTFAC
 40
1.0
  9
$DIMGAP
 40
0.09
  9
$DIMJUST
 70
     0
  9
$DIMSD1
 70
     0
  9
$DIMSD2
 70
     0
  9
$DIMTOLJ
 70
     1
  9
$DIMTZIN
 70
     0
  9
$DIMALTZ
 70
     0
  9
$DIMALTTZ
 70
     0
  9
$DIMUPT
 70
     0
  9
$DIMDEC
 70
     4
  9
$DIMTDEC
 70
     4
  9
$DIMALTU
 70
     2
  9
$DIMALTTD
 70
     2
  9
$DIMTXSTY
  7
Standard
  9
$DIMAUNIT
 70
     0
  9
$DIMADEC
 70
     0
  9
$DIMALTRND
 40
0.0
  9
$DIMAZIN
 70
     0
  9
$DIMDSEP
 70
    46
  9
$DIMATFIT
 70
     3
  9
$DIMFRAC
 70
     0
  9
$DIMLDRBLK
  1

  9
$DIMLUNIT
 70
     2
  9
$DIMLWD
 70
    -2
  9
$DIMLWE
 70
    -2
  9
$DIMTMOVE
 70
     0
  9
$DIMFXL
 40
1.0
  9
$DIMFXLON
 70
     0
  9
$DIMJOGANG
 40
0.7853981633974483
  9
$DIMTFILL
 70
     0
  9
$DIMTFILLCLR
 70
     0
  9
$DIMARCSYM
 70
     0
  9
$DIMLTYPE
  6

  9
$DIMLTEX1
  6

  9
$DIMLTEX2
  6

  9
$DIMTXTDIRECTION
 70
     0
  9
$LUNITS
 70
     2
  9
$LUPREC
 70
     4
  9
$SKETCHINC
 40
0.1
  9
$FILLETRAD
 40
0.0
  9
$AUNITS
 70
     0
  9
$AUPREC
 70
     0
  9
$MENU
  1
.
  9
$ELEVATION
 40
0.0
  9
$PELEVATION
 40
0.0
  9
$THICKNESS
 40
0.0
  9
$LIMCHECK
 70
     0
  9
$CHAMFERA
 40
0.0
  9
$CHAMFERB
 40
0.0
  9
$CHAMFERC
 40
0.0
  9
$CHAMFERD
 40
0.0
  9
$SKPOLY
 70
     0
  9
$TDCREATE
 40
2461307.527282049
  9
$TDUCREATE
 40
2461307.443948716
  9
$TDUPDATE
 40
2461307.527282778
  9
$TDUUPDATE
 40
2461307.443949444
  9
$TDINDWG
 40
0.0000000116
  9
$TDUSRTIMER
 40
0.0000000116
  9
$USRTIMER
 70
     1
  9
$ANGBASE
 50
0.0
  9
$ANGDIR
 70
     0
  9
$PDMODE
 70
     0
  9
$PDSIZE
 40
0.0
  9
$PLINEWID
 40
0.0
  9
$SPLFRAME
 70
     0
  9
$SPLINETYPE
 70
     6
  9
$SPLINESEGS
 70
     8
  9
$HANDSEED
  5
38F
  9
$SURFTAB1
 70
     6
  9
$SURFTAB2
 70
     6
  9
$SURFTYPE
 70
     6
  9
$SURFU
 70
     6
  9
$SURFV
 70
     6
  9
$UCSBASE
  2

  9
$UCSNAME
  2

  9
$UCSORG
 10
0.0
 20
0.0
 30
0.0
  9
$UCSXDIR
 10
1.0
 20
0.0
 30
0.0
  9
$UCSYDIR
 10
0.0
 20
1.0
 30
0.0
  9
$UCSORTHOREF
  2

  9
$UCSORTHOVIEW
 70
     0
  9
$UCSORGTOP
 10
0.0
 20
0.0
 30
0.0
  9
$UCSORGBOTTOM
 10
0.0
 20
0.0
 30
0.0
  9
$UCSORGLEFT
 10
0.0
 20
0.0
 30
0.0
  9
$UCSORGRIGHT
 10
0.0
 20
0.0
 30
0.0
  9
$UCSORGFRONT
 10
0.0
 20
0.0
 30
0.0
  9
$UCSORGBACK
 10
0.0
 20
0.0
 30
0.0
  9
$PUCSBASE
  2

  9
$PUCSNAME
  2

  9
$PUCSORG
 10
0.0
 20
0.0
 30
0.0
  9
$PUCSXDIR
 10
1.0
 20
0.0
 30
0.0
  9
$PUCSYDIR
 10
0.0
 20
1.0
 30
0.0
  9
$PUCSORTHOREF
  2

  9
$PUCSORTHOVIEW
 70
     0
  9
$PUCSORGTOP
 10
0.0
 20
0.0
 30
0.0
  9
$PUCSORGBOTTOM
 10
0.0
 20
0.0
 30
0.0
  9
$PUCSORGLEFT
 10
0.0
 20
0.0
 30
0.0
  9
$PUCSORGRIGHT
 10
0.0
 20
0.0
 30
0.0
  9
$PUCSORGFRONT
 10
0.0
 20
0.0
 30
0.0
  9
$PUCSORGBACK
 10
0.0
 20
0.0
 30
0.0
  9
$USERI1
 70
     0
  9
$USERI2
 70
     0
  9
$USERI3
 70
     0
  9
$USERI4
 70
     0
  9
$USERI5
 70
     0
  9
$USERR1
 40
0.0
  9
$USERR2
 40
0.0
  9
$USERR3
 40
0.0
  9
$USERR4
 40
0.0
  9
$USERR5
 40
0.0
  9
$WORLDVIEW
 70
     1
  9
$SHADEDGE
 70
     3
  9
$SHADEDIF
 70
    70
  9
$TILEMODE
 70
     1
  9
$MAXACTVP
 70
    64
  9
$PINSBASE
 10
0.0
 20
0.0
 30
0.0
  9
$PLIMCHECK
 70
     0
  9
$PEXTMIN
 10
1.000000000000000E+20
 20
1.000000000000000E+20
 30
1.000000000000000E+20
  9
$PEXTMAX
 10
-1.000000000000000E+20
 20
-1.000000000000000E+20
 30
-1.000000000000000E+20
  9
$PLIMMIN
 10
0.0
 20
0.0
  9
$PLIMMAX
 10
12.0
 20
9.0
  9
$UNITMODE
 70
     0
  9
$VISRETAIN
 70
     1
  9
$PLINEGEN
 70
     0
  9
$PSLTSCALE
 70
     1
  9
$TREEDEPTH
 70
  3020
  9
$CMLSTYLE
  2
Standard
  9
$CMLJUST
 70
     0
  9
$CMLSCALE
 40
1.0
  9
$PROXYGRAPHICS
 70
     1
  9
$MEASUREMENT
 70
     0
  9
$CELWEIGHT
370
    -1
  9
$ENDCAPS
280
     0
  9
$JOINSTYLE
280
     0
  9
$LWDISPLAY
290
     0
  9
$INSUNITS
 70
     1
  9
$HYPERLINKBASE
  1

  9
$STYLESHEET
  1

  9
$XEDIT
290
     1
  9
$CEPSNTYPE
380
     0
  9
$PSTYLEMODE
290
     1
  9
$FINGERPRINTGUID
  2
{ac910cae-51d5-452e-9b9c-9167ff7cd805}
  9
$VERSIONGUID
  2
{FAEB1C32-E019-11D5-929B-00C0DF256EC4}
  9
$EXTNAMES
290
     1
  9
$PSVPSCALE
 40
0.0
  9
$OLESTARTUP
290
     0
  9
$SORTENTS
280
   127
  9
$INDEXCTL
280
     0
  9
$HIDETEXT
280
     1
  9
$XCLIPFRAME
280
     2
  9
$HALOGAP
280
     0
  9
$OBSCOLOR
 70
   257
  9
$OBSLTYPE
280
     0
  9
$INTERSECTIONDISPLAY
280
     0
  9
$INTERSECTIONCOLOR
 70
   257
  9
$DIMASSOC
280
     2
  9
$PROJECTNAME
  1

  9
$CAMERADISPLAY
290
     0
  9
$LENSLENGTH
 40
50.0
  9
$CAMERAHEIGHT
 40
0.0
  9
$STEPSPERSEC
 40
2.0
  9
$STEPSIZE
 40
6.0
  9
$3DDWFPREC
 40
2.0
  9
$PSOLWIDTH
 40
0.25
  9
$PSOLHEIGHT
 40
4.0
  9
$LOFTANG1
 40
1.570796326794897
  9
$LOFTANG2
 40
1.570796326794897
  9
$LOFTMAG1
 40
0.0
  9
$LOFTMAG2
 40
0.0
  9
$LOFTPARAM
 70
     7
  9
$LOFTNORMALS
280
     1
  9
$LATITUDE
 40
37.795
  9
$LONGITUDE
 40
-122.394
  9
$NORTHDIRECTION
 40
0.0
  9
$TIMEZONE
 70
 -8000
  9
$LIGHTGLYPHDISPLAY
280
     1
  9
$TILEMODELIGHTSYNCH
280
     1
  9
$CMATERIAL
347
44
  9
$SOLIDHIST
280
     0
  9
$SHOWHIST
280
     1
  9
$DWFFRAME
280
     2
  9
$DGNFRAME
280
     2
  9
$REALWORLDSCALE
290
     1
  9
$INTERFERECOLOR
 62
   256
  9
$CSHADOW
280
     0
  9
$SHADOWPLANELOCATION
 40
0.0
  0
ENDSEC
  0
SECTION
  2
CLASSES
  0
CLASS
  1
ACDBDICTIONARYWDFLT
  2
AcDbDictionaryWithDefault
  3
ObjectDBX Classes
 90
        0
 91
        3
280
     0
281
     0
  0
CLASS
  1
VISUALSTYLE
  2
AcDbVisualStyle
  3
ObjectDBX Classes
 90
     4095
 91
        3
280
     0
281
     0
  0
CLASS
  1
MATERIAL
  2
AcDbMaterial
  3
ObjectDBX Classes
 90
     1153
 91
        3
280
     0
281
     0
  0
CLASS
  1
SCALE
  2
AcDbScale
  3
ObjectDBX Classes
 90
     1153
 91
        3
280
     0
281
     0
  0
CLASS
  1
TABLESTYLE
  2
AcDbTableStyle
  3
ObjectDBX Classes
 90
     4095
 91
        3
280
     0
281
     0
  0
CLASS
  1
MLEADERSTYLE
  2
AcDbMLeaderStyle
  3
ACDB_MLEADERSTYLE_CLASS
 90
     4095
 91
        3
280
     0
281
     0
  0
CLASS
  1
SUN
  2
AcDbSun
  3
SCENEOE
 90
     1153
 91
        3
280
     0
281
     0
  0
CLASS
  1
DICTIONARYVAR
  2
AcDbDictionaryVar
  3
ObjectDBX Classes
 90
        0
 91
        3
280
     0
281
     0
  0
CLASS
  1
CELLSTYLEMAP
  2
AcDbCellStyleMap
  3
ObjectDBX Classes
 90
     1152
 91
        3
280
     0
281
     0
  0
ENDSEC
  0
SECTION
  2
TABLES
  0
TABLE
  2
VPORT
  5
8
330
0
100
AcDbSymbolTable
 70
     1
  0
VPORT
  5
29
330
8
100
AcDbSymbolTableRecord
100
AcDbViewportTableRecord
  2
*Active
 70
     0
 10
0.0
 20
0.0
 11
1.0
 21
1.0
 12
4.666779661016943
 22
-5.004920682305801
 13
0.0
 23
0.0
 14
0.5
 24
0.5
 15
0.5
 25
0.5
 16
0.0
 26
0.0
 36
1.0
 17
0.0
 27
0.0
 37
0.0
 40
65.64701744614113
 41
1.409785761925956
 42
50.0
 43
0.0
 44
0.0
 50
0.0
 51
0.0
 71
     0
 72
   100
 73
     1
 74
     3
 75
     0
 76
     0
 77
     0
 78
     0
281
     0
 65
     1
110
0.0
120
0.0
130
0.0
111
1.0
121
0.0
131
0.0
112
0.0
122
1.0
132
0.0
 79
     0
146
0.0
348
2F
 60
     3
 61
     5
292
     1
282
     1
141
0.0
142
0.0
 63
   250
361
5D
  0
ENDTAB
  0
TABLE
  2
LTYPE
  5
5
330
0
100
AcDbSymbolTable
 70
     3
  0
LTYPE
  5
14
330
5
100
AcDbSymbolTableRecord
100
AcDbLinetypeTableRecord
  2
ByBlock
 70
     0
  3

 72
    65
 73
     0
 40
0.0
  0
LTYPE
  5
15
330
5
100
AcDbSymbolTableRecord
100
AcDbLinetypeTableRecord
  2
ByLayer
 70
     0
  3

 72
    65
 73
     0
 40
0.0
  0
LTYPE
  5
16
330
5
100
AcDbSymbolTableRecord
100
AcDbLinetypeTableRecord
  2
Continuous
 70
     0
  3
Solid line
 72
    65
 73
     0
 40
0.0
  0
LTYPE
  5
73
330
5
100
AcDbSymbolTableRecord
100
AcDbLinetypeTableRecord
  2
Dashed
 70
     0
  3

 72
    65
 73
     2
 40
2.0
 49
1.0
 74
     0
 49
-1.0
 74
     0
  0
LTYPE
  5
333
330
5
100
AcDbSymbolTableRecord
100
AcDbLinetypeTableRecord
  2
Center
 70
     0
  3

 72
    65
 73
     4
 40
1.5
 49
0.45
 74
     0
 49
-0.5
 74
     0
 49
0.05
 74
     0
 49
-0.5
 74
     0
  0
ENDTAB
  0
TABLE
  2
LAYER
  5
2
330
0
100
AcDbSymbolTable
 70
     9
  0
LAYER
  5
10
330
2
100
AcDbSymbolTableRecord
100
AcDbLayerTableRecord
  2
0
 70
     0
 62
     7
  6
Continuous
370
    -3
390
F
347
46
348
0
  0
LAYER
  5
5E
330
2
100
AcDbSymbolTableRecord
100
AcDbLayerTableRecord
  2
AM_6
 70
     0
 62
    -2
  6
Continuous
370
    35
390
F
347
46
348
0
  0
LAYER
  5
74
330
2
100
AcDbSymbolTableRecord
100
AcDbLayerTableRecord
  2
AM_9
 70
     0
 62
     6
  6
Dashed
370
    25
390
F
347
46
348
0
  0
LAYER
  5
BD
330
2
100
AcDbSymbolTableRecord
100
AcDbLayerTableRecord
  2
AM_0
 70
     0
 62
     7
  6
Continuous
370
    50
390
F
347
46
348
0
  0
LAYER
  5
C4
330
2
100
AcDbSymbolTableRecord
100
AcDbLayerTableRecord
  2
AM_4
 70
     0
 62
     3
  6
Continuous
370
    25
390
F
347
46
348
0
  0
LAYER
  5
334
330
2
100
AcDbSymbolTableRecord
100
AcDbLayerTableRecord
  2
AM_7
 70
     0
 62
     7
  6
Center
370
    25
390
F
347
46
348
0
  0
LAYER
  5
35A
330
2
100
AcDbSymbolTableRecord
100
AcDbLayerTableRecord
  2
AM_5
 70
     0
 62
     3
  6
Continuous
370
    25
390
F
347
46
348
0
  0
LAYER
  5
35C
330
2
100
AcDbSymbolTableRecord
100
AcDbLayerTableRecord
  2
Defpoints
 70
     0
 62
     7
  6
Continuous
290
     0
370
    -3
390
F
347
46
348
0
  0
LAYER
  5
378
330
2
100
AcDbSymbolTableRecord
100
AcDbLayerTableRecord
  2
2d ConnectionPoints
 70
     0
 62
     7
  6
Continuous
370
    50
390
F
347
46
348
0
  0
ENDTAB
  0
TABLE
  2
STYLE
  5
3
330
0
100
AcDbSymbolTable
 70
     1
  0
STYLE
  5
11
330
3
100
AcDbSymbolTableRecord
100
AcDbTextStyleTableRecord
  2
Standard
 70
     0
 40
0.0
 41
1.0
 50
0.0
 71
     0
 42
0.2
  3
txt
  4

  0
ENDTAB
  0
TABLE
  2
VIEW
  5
6
330
0
100
AcDbSymbolTable
 70
     0
  0
ENDTAB
  0
TABLE
  2
UCS
  5
7
330
0
100
AcDbSymbolTable
 70
     0
  0
ENDTAB
  0
TABLE
  2
APPID
  5
9
330
0
100
AcDbSymbolTable
 70
     1
  0
APPID
  5
12
330
9
100
AcDbSymbolTableRecord
100
AcDbRegAppTableRecord
  2
ACAD
 70
     0
  0
ENDTAB
  0
TABLE
  2
DIMSTYLE
  5
A
330
0
100
AcDbSymbolTable
 70
     1
100
AcDbDimStyleTable
  0
DIMSTYLE
105
27
102
{ACAD_REACTORS
330
35B
330
36A
102
}
330
A
100
AcDbSymbolTableRecord
100
AcDbDimStyleTableRecord
  2
Standard
 70
     0
178
     0
340
11
  0
ENDTAB
  0
TABLE
  2
BLOCK_RECORD
  5
1
330
0
100
AcDbSymbolTable
 70
     3
  0
BLOCK_RECORD
  5
1F
330
1
100
AcDbSymbolTableRecord
100
AcDbBlockTableRecord
  2
*Model_Space
340
22
 70
     0
280
     1
281
     0
  0
BLOCK_RECORD
  5
1B
330
1
100
AcDbSymbolTableRecord
100
AcDbBlockTableRecord
  2
*Paper_Space
340
1E
 70
     0
280
     1
281
     0
  0
BLOCK_RECORD
  5
23
330
1
100
AcDbSymbolTableRecord
100
AcDbBlockTableRecord
  2
*Paper_Space0
340
26
 70
     0
280
     1
281
     0
  0
BLOCK_RECORD
  5
35D
330
1
100
AcDbSymbolTableRecord
100
AcDbBlockTableRecord
  2
*D1
340
0
 70
     0
280
     1
281
     0
  0
BLOCK_RECORD
  5
36B
330
1
100
AcDbSymbolTableRecord
100
AcDbBlockTableRecord
  2
*D2
340
0
 70
     0
280
     1
281
     0
  0
ENDTAB
  0
ENDSEC
  0
SECTION
  2
BLOCKS
  0
BLOCK
  5
20
330
1F
100
AcDbEntity
  8
0
100
AcDbBlockBegin
  2
*Model_Space
 70
     2
 10
0.0
 20
0.0
 30
0.0
  3
*Model_Space
  1

  0
ENDBLK
  5
21
330
1F
100
AcDbEntity
  8
0
100
AcDbBlockEnd
  0
BLOCK
  5
1C
330
1B
100
AcDbEntity
 67
     1
  8
0
100
AcDbBlockBegin
  2
*Paper_Space
 70
     0
 10
0.0
 20
0.0
 30
0.0
  3
*Paper_Space
  1

  0
ENDBLK
  5
1D
330
1B
100
AcDbEntity
 67
     1
  8
0
100
AcDbBlockEnd
  0
BLOCK
  5
24
330
23
100
AcDbEntity
  8
0
100
AcDbBlockBegin
  2
*Paper_Space0
 70
     0
 10
0.0
 20
0.0
 30
0.0
  3
*Paper_Space0
  1

  0
ENDBLK
  5
25
330
23
100
AcDbEntity
  8
0
100
AcDbBlockEnd
  0
BLOCK
  5
35E
330
35D
100
AcDbEntity
  8
0
100
AcDbBlockBegin
  2
*D1
 70
     1
 10
0.0
 20
0.0
 30
0.0
  3
*D1
  1

  0
LINE
  5
360
330
35D
100
AcDbEntity
  8
AM_5
 62
     0
370
    -2
100
AcDbLine
 10
-37.0
 20
0.0
 30
0.0
 11
-37.0
 21
-35.15500068664551
 31
0.0
  0
LINE
  5
361
330
35D
100
AcDbEntity
  8
AM_5
 62
     0
370
    -2
100
AcDbLine
 10
37.0
 20
0.0
 30
0.0
 11
37.0
 21
-35.15500068664551
 31
0.0
  0
LINE
  5
362
330
35D
100
AcDbEntity
  8
AM_5
 62
     0
370
    -2
100
AcDbLine
 10
-35.0
 20
-35.15500068664551
 30
0.0
 11
-4.611525423728814
 21
-35.15500068664551
 31
0.0
  0
LINE
  5
363
330
35D
100
AcDbEntity
  8
AM_5
 62
     0
370
    -2
100
AcDbLine
 10
35.0
 20
-35.15500068664551
 30
0.0
 11
4.611525423728814
 21
-35.15500068664551
 31
0.0
  0
SOLID
  5
364
330
35D
100
AcDbEntity
  8
AM_5
 62
     0
100
AcDbTrace
 10
-35.0
 20
-34.82166735331217
 30
0.0
 11
-35.0
 21
-35.48833401997884
 31
0.0
 12
-37.0
 22
-35.15500068664551
 32
0.0
 13
-37.0
 23
-35.15500068664551
 33
0.0
  0
SOLID
  5
365
330
35D
100
AcDbEntity
  8
AM_5
 62
     0
100
AcDbTrace
 10
35.0
 20
-35.48833401997884
 30
0.0
 11
35.0
 21
-34.82166735331217
 31
0.0
 12
37.0
 22
-35.15500068664551
 32
0.0
 13
37.0
 23
-35.15500068664551
 33
0.0
  0
MTEXT
  5
366
330
35D
100
AcDbEntity
  8
AM_5
 62
     0
100
AcDbMText
 10
0.0
 20
-35.15500068664551
 30
0.0
 40
2.0
 41
0.0
 46
0.0
 71
     5
 72
     1
  1
\A1;74 in
 73
     1
 44
1.0
  0
POINT
  5
367
330
35D
100
AcDbEntity
  8
Defpoints
 62
     0
100
AcDbPoint
 10
-37.0
 20
0.0
 30
0.0
  0
POINT
  5
368
330
35D
100
AcDbEntity
  8
Defpoints
 62
     0
100
AcDbPoint
 10
37.0
 20
0.0
 30
0.0
  0
POINT
  5
369
330
35D
100
AcDbEntity
  8
Defpoints
 62
     0
100
AcDbPoint
 10
37.0
 20
-35.15500068664551
 30
0.0
  0
ENDBLK
  5
35F
330
35D
100
AcDbEntity
  8
0
100
AcDbBlockEnd
  0
BLOCK
  5
36C
330
36B
100
AcDbEntity
  8
0
100
AcDbBlockBegin
  2
*D2
 70
     1
 10
0.0
 20
0.0
 30
0.0
  3
*D2
  1

  0
LINE
  5
36E
330
36B
100
AcDbEntity
  8
AM_5
 62
     0
370
    -2
100
AcDbLine
 10
0.0
 20
-24.155
 30
0.0
 11
48.0
 21
-24.155
 31
0.0
  0
LINE
  5
36F
330
36B
100
AcDbEntity
  8
AM_5
 62
     0
370
    -2
100
AcDbLine
 10
0.0
 20
24.155
 30
0.0
 11
48.0
 21
24.155
 31
0.0
  0
LINE
  5
370
330
36B
100
AcDbEntity
  8
AM_5
 62
     0
370
    -2
100
AcDbLine
 10
48.0
 20
-22.155
 30
0.0
 11
48.0
 21
-6.63457627118644
 31
0.0
  0
LINE
  5
371
330
36B
100
AcDbEntity
  8
AM_5
 62
     0
370
    -2
100
AcDbLine
 10
48.0
 20
22.155
 30
0.0
 11
48.0
 21
6.63457627118644
 31
0.0
  0
SOLID
  5
372
330
36B
100
AcDbEntity
  8
AM_5
 62
     0
100
AcDbTrace
 10
47.66666666666666
 20
-22.155
 30
0.0
 11
48.33333333333334
 21
-22.155
 31
0.0
 12
48.0
 22
-24.155
 32
0.0
 13
48.0
 23
-24.155
 33
0.0
  0
SOLID
  5
373
330
36B
100
AcDbEntity
  8
AM_5
 62
     0
100
AcDbTrace
 10
48.33333333333334
 20
22.155
 30
0.0
 11
47.66666666666666
 21
22.155
 31
0.0
 12
48.0
 22
24.155
 32
0.0
 13
48.0
 23
24.155
 33
0.0
  0
MTEXT
  5
374
330
36B
100
AcDbEntity
  8
AM_5
 62
     0
100
AcDbMText
 10
48.0
 20
0.0
 30
0.0
 40
2.0
 41
0.0
 46
0.0
 71
     5
 72
     1
  1
\A1;48.31 in
 11
6.123233995736766E-17
 21
1.0
 31
0.0
 73
     1
 44
1.0
  0
POINT
  5
375
330
36B
100
AcDbEntity
  8
Defpoints
 62
     0
100
AcDbPoint
 10
0.0
 20
-24.155
 30
0.0
  0
POINT
  5
376
330
36B
100
AcDbEntity
  8
Defpoints
 62
     0
100
AcDbPoint
 10
0.0
 20
24.155
 30
0.0
  0
POINT
  5
377
330
36B
100
AcDbEntity
  8
Defpoints
 62
     0
100
AcDbPoint
 10
48.0
 20
24.155
 30
0.0
  0
ENDBLK
  5
36D
330
36B
100
AcDbEntity
  8
0
100
AcDbBlockEnd
  0
ENDSEC
  0
SECTION
  2
ENTITIES
  0
ATTDEF
  5
5F
330
1F
100
AcDbEntity
  8
AM_6
100
AcDbText
 10
45.7
 20
26.5716
 30
0.0
 40
0.5
  1
DHH_Heat_Pump-Daikin-DHH0364D000001S-300
100
AcDbAttributeDefinition
  3

  2
NB
 70
     8
280
     0
  0
ATTDEF
  5
60
330
1F
100
AcDbEntity
  8
AM_6
100
AcDbText
 10
45.7
 20
26.0716
 30
0.0
 40
0.5
  1
(R32) DHH Series 3 - 6 Tons Heat Pump R32
100
AcDbAttributeDefinition
  3

  2
NN
 70
     8
280
     0
  0
ATTDEF
  5
61
330
1F
100
AcDbEntity
  8
AM_6
100
AcDbText
 10
45.7
 20
25.5716
 30
0.0
 40
0.5
  1

100
AcDbAttributeDefinition
  3

  2
NT
 70
     8
280
     0
  0
ATTDEF
  5
62
330
1F
100
AcDbEntity
  8
AM_6
100
AcDbText
 10
45.7
 20
25.0716
 30
0.0
 40
0.5
  1
DHH_Heat_Pump-Daikin-$PN.-$LOG.
100
AcDbAttributeDefinition
  3

  2
NBSYN
 70
     8
280
     0
  0
ATTDEF
  5
63
330
1F
100
AcDbEntity
  8
AM_6
100
AcDbText
 10
45.7
 20
24.5716
 30
0.0
 40
0.5
  1
DHH_Heat_Pump-Daikin-DHH0364D000001S
100
AcDbAttributeDefinition
  3

  2
LINA
 70
     8
280
     0
  0
ATTDEF
  5
64
330
1F
100
AcDbEntity
  8
AM_6
100
AcDbText
 10
45.7
 20
24.0716
 30
0.0
 40
0.5
  1
Daikin
100
AcDbAttributeDefinition
  3

  2
CATALOG
 70
     8
280
     0
  0
ATTDEF
  5
65
330
1F
100
AcDbEntity
  8
AM_6
100
AcDbText
 10
45.7
 20
23.5716
 30
0.0
 40
0.5
  1
DHH0364D000001S
100
AcDbAttributeDefinition
  3

  2
PN
 70
     8
280
     0
  0
ATTDEF
  5
66
330
1F
100
AcDbEntity
  8
AM_6
100
AcDbText
 10
45.7
 20
23.0716
 30
0.0
 40
0.5
  1
300
100
AcDbAttributeDefinition
  3

  2
LOG
 70
     8
280
     0
  0
ATTDEF
  5
67
330
1F
100
AcDbEntity
  8
AM_6
100
AcDbText
 10
45.7
 20
22.5716
 30
0.0
 40
0.5
  1
DHH 3 Ton Light Commercial Packaged Heat Pump R32
100
AcDbAttributeDefinition
  3

  2
DES
 70
     8
280
     0
  0
ATTDEF
  5
68
330
1F
100
AcDbEntity
  8
AM_6
100
AcDbText
 10
45.7
 20
22.0716
 30
0.0
 40
0.5
  1
48.310
100
AcDbAttributeDefinition
  3

  2
OD
 70
     8
280
     0
  0
ATTDEF
  5
69
330
1F
100
AcDbEntity
  8
AM_6
100
AcDbText
 10
45.7
 20
21.5716
 30
0.0
 40
0.5
  1
43.500
100
AcDbAttributeDefinition
  3

  2
OH
 70
     8
280
     0
  0
ATTDEF
  5
6A
330
1F
100
AcDbEntity
  8
AM_6
100
AcDbText
 10
45.7
 20
21.0716
 30
0.0
 40
0.5
  1
74.000
100
AcDbAttributeDefinition
  3

  2
OW
 70
     8
280
     0
  0
ATTDEF
  5
6B
330
1F
100
AcDbEntity
  8
AM_6
100
AcDbText
 10
45.7
 20
20.5716
 30
0.0
 40
0.5
  1
https://daikincomfort.com
100
AcDbAttributeDefinition
  3

  2
URL
 70
     8
280
     0
  0
ATTDEF
  5
6C
330
1F
100
AcDbEntity
  8
AM_6
100
AcDbText
 10
45.7
 20
20.0716
 30
0.0
 40
0.5
  1
Download Revit Family (RFA)
100
AcDbAttributeDefinition
  3

  2
RFAFAMILY
 70
     8
280
     0
  0
ATTDEF
  5
6D
330
1F
100
AcDbEntity
  8
AM_6
100
AcDbText
 10
45.7
 20
19.5716
 30
0.0
 40
0.5
  1
daikin
100
AcDbAttributeDefinition
  3

  2
COMPANY
 70
     8
280
     0
  0
ATTDEF
  5
6E
330
1F
100
AcDbEntity
  8
AM_6
100
AcDbText
 10
45.7
 20
19.0716
 30
0.0
 40
0.5
  1
{$CADENAS_DATA/23d-libs/daikin/light20commercial20rooftop20package20units/heat20pump/dhh_heat_pump.prj},257 {VTYP=3D},{NB=DHH_Heat_Pump-Daikin-DHH0364D000001S-300},{LINA=DHH_Heat_Pump-Daikin-DHH0364D000001S},{NN=(R32) DHH Series 3 - 6 Tons Heat Pump
100
AcDbAttributeDefinition
  3

  2
PSOL_0
 70
     9
280
     0
  0
ATTDEF
  5
6F
330
1F
100
AcDbEntity
  8
AM_6
100
AcDbText
 10
45.7
 20
18.5716
 30
0.0
 40
0.5
  1
{DATE=06.08.2026 14:33:36},{GEOMDATE=03.07.2025 13:00:41},{VERSION=},{LINEID=80},{WBVAR=LOG},{WBNUMERIC=LOG}  {NB=DHH_Heat_Pump-Daikin-DHH0364D000001S-300},{LINA=DHH_Heat_Pump-Daikin-DHH0364D000001S},{KT=DUMMY},{PN=DHH0364D000001S},{LOG=300},{DES=DH
100
AcDbAttributeDefinition
  3

  2
PSOL_1
 70
     9
280
     0
  0
ATTDEF
  5
70
330
1F
100
AcDbEntity
  8
AM_6
100
AcDbText
 10
45.7
 20
18.0716
 30
0.0
 40
0.5
  1
n Light Commercial Packaged Heat Pump R32},{W=74},{D=48.31},{H=43.50},{W12=37.000},{D12=24.155},{H12=21.750},{PNH=DHH036},{F=60 Hz},{P=3},{V=460.0},{VC=460 VAC},{MCA=8.200},{MOP=15},{RLD=0.000},{RSG=0.000},{RHD=0.000},{UW=0.595 kip},{UWV=595.00},{OD
100
AcDbAttributeDefinition
  3

  2
PSOL_2
 70
     9
280
     0
  0
ATTDEF
  5
71
330
1F
100
AcDbEntity
  8
AM_6
100
AcDbText
 10
45.7
 20
17.5716
 30
0.0
 40
0.5
  1
0},{OH=43.500},{OW=74.000},{CT=Scroll},{RU=R-32},{RC=180 oz.},{SPL=75 dB},{EER=NA},{IEER=NA},{COP17=NA},{COP47=NA},{EER2=13},{HSPF2=7.400},{SEER2=16.4},{NCC=35000 Btu/h},{NCC2=3 Tons},{NHC=34200 Btu/h},{M=Daikin},{MODEL=DHH036},{URL=https://daikinco
100
AcDbAttributeDefinition
  3

  2
PSOL_3
 70
     9
280
     0
  0
ATTDEF
  5
72
330
1F
100
AcDbEntity
  8
AM_6
100
AcDbText
 10
45.7
 20
17.0716
 30
0.0
 40
0.5
  1
com},{RACH=25.000},{RACW=11.000},{SACH=17.000},{SACW=12.000},{CAL=3772.000},{NOP=3},{NPT=20},{RFAFAMILY=Download Revit Family (RFA)},{RFAFAMILYPATH=../../light20commercial20rooftop20package20units/heat20pump/dhh_series3_6_tons_heat_pump_r32.rfa}
100
AcDbAttributeDefinition
  3

  2
PSOL_4
 70
     9
280
     0
  0
LINE
  5
75
330
1F
100
AcDbEntity
  8
AM_9
100
AcDbLine
 10
35.063
 20
21.75
 30
0.0
 11
-34.7055
 21
21.75
 31
0.0
  0
LINE
  5
76
330
1F
100
AcDbEntity
  8
AM_9
100
AcDbLine
 10
34.7055
 20
-21.75
 30
0.0
 11
34.7055
 21
21.75
 31
0.0
  0
LINE
  5
77
330
1F
100
AcDbEntity
  8
AM_9
100
AcDbLine
 10
-34.7055
 20
-21.75
 30
0.0
 11
35.063
 21
-21.75
 31
0.0
  0
LINE
  5
78
330
1F
100
AcDbEntity
  8
AM_9
100
AcDbLine
 10
-34.7055
 20
21.75
 30
0.0
 11
-34.7055
 21
-21.75
 31
0.0
  0
LINE
  5
79
330
1F
100
AcDbEntity
  8
AM_9
100
AcDbLine
 10
-7.402
 20
-22.09005382386916
 30
0.0
 11
-13.152
 21
-22.09005382386916
 31
0.0
  0
LINE
  5
7A
330
1F
100
AcDbEntity
  8
AM_9
100
AcDbLine
 10
13.152
 20
-22.09005382386916
 30
0.0
 11
7.401999999999999
 21
-22.09005382386916
 31
0.0
  0
LINE
  5
7B
330
1F
100
AcDbEntity
  8
AM_9
100
AcDbLine
 10
13.152
 20
22.09005382386915
 30
0.0
 11
7.401999999999999
 21
22.09005382386915
 31
0.0
  0
LINE
  5
7C
330
1F
100
AcDbEntity
  8
AM_9
100
AcDbLine
 10
-7.402
 20
22.09005382386915
 30
0.0
 11
-13.152
 21
22.09005382386915
 31
0.0
  0
LINE
  5
7D
330
1F
100
AcDbEntity
  8
AM_9
100
AcDbLine
 10
13.152
 20
-22.15510764773832
 30
0.0
 11
7.401999999999999
 21
-22.15510764773832
 31
0.0
  0
LINE
  5
7E
330
1F
100
AcDbEntity
  8
AM_9
100
AcDbLine
 10
-7.402
 20
-22.15510764773832
 30
0.0
 11
-13.152
 21
-22.15510764773832
 31
0.0
  0
LINE
  5
7F
330
1F
100
AcDbEntity
  8
AM_9
100
AcDbLine
 10
13.152
 20
22.15510764773832
 30
0.0
 11
7.401999999999999
 21
22.15510764773832
 31
0.0
  0
LINE
  5
80
330
1F
100
AcDbEntity
  8
AM_9
100
AcDbLine
 10
-7.402
 20
22.15510764773832
 30
0.0
 11
-13.152
 21
22.15510764773832
 31
0.0
  0
LINE
  5
81
330
1F
100
AcDbEntity
  8
AM_9
100
AcDbLine
 10
-7.402
 20
-24.052
 30
0.0
 11
-13.152
 21
-24.052
 31
0.0
  0
LINE
  5
82
330
1F
100
AcDbEntity
  8
AM_9
100
AcDbLine
 10
13.152
 20
-24.052
 30
0.0
 11
7.401999999999999
 21
-24.052
 31
0.0
  0
LINE
  5
83
330
1F
100
AcDbEntity
  8
AM_9
100
AcDbLine
 10
13.152
 20
24.052
 30
0.0
 11
7.401999999999999
 21
24.052
 31
0.0
  0
LINE
  5
84
330
1F
100
AcDbEntity
  8
AM_9
100
AcDbLine
 10
-7.402
 20
24.052
 30
0.0
 11
-13.152
 21
24.052
 31
0.0
  0
LINE
  5
85
330
1F
100
AcDbEntity
  8
AM_9
100
AcDbLine
 10
-14.0
 20
24.098
 30
0.0
 11
-14.0
 21
23.578
 31
0.0
  0
LINE
  5
86
330
1F
100
AcDbEntity
  8
AM_9
100
AcDbLine
 10
-14.25
 20
24.098
 30
0.0
 11
-14.25
 21
23.578
 31
0.0
  0
LINE
  5
87
330
1F
100
AcDbEntity
  8
AM_9
100
AcDbLine
 10
-14.0
 20
-23.578
 30
0.0
 11
-14.0
 21
-24.098
 31
0.0
  0
LINE
  5
88
330
1F
100
AcDbEntity
  8
AM_9
100
AcDbLine
 10
-14.25
 20
-23.578
 30
0.0
 11
-14.25
 21
-24.098
 31
0.0
  0
LINE
  5
89
330
1F
100
AcDbEntity
  8
AM_9
100
AcDbLine
 10
-37.0
 20
-7.5
 30
0.0
 11
-36.4755
 21
-7.5
 31
0.0
  0
LINE
  5
8A
330
1F
100
AcDbEntity
  8
AM_9
100
AcDbLine
 10
-37.0
 20
-7.249999999999999
 30
0.0
 11
-36.4755
 21
-7.249999999999999
 31
0.0
  0
LINE
  5
8B
330
1F
100
AcDbEntity
  8
AM_9
100
AcDbLine
 10
-6.5
 20
24.098
 30
0.0
 11
-6.5
 21
23.578
 31
0.0
  0
LINE
  5
8C
330
1F
100
AcDbEntity
  8
AM_9
100
AcDbLine
 10
-6.25
 20
24.098
 30
0.0
 11
-6.25
 21
23.578
 31
0.0
  0
LINE
  5
8D
330
1F
100
AcDbEntity
  8
AM_9
100
AcDbLine
 10
-37.0
 20
5.5
 30
0.0
 11
-36.4755
 21
5.5
 31
0.0
  0
LINE
  5
8E
330
1F
100
AcDbEntity
  8
AM_9
100
AcDbLine
 10
-37.0
 20
5.250000000000001
 30
0.0
 11
-36.4755
 21
5.250000000000001
 31
0.0
  0
LINE
  5
8F
330
1F
100
AcDbEntity
  8
AM_9
100
AcDbLine
 10
-37.0
 20
-15.0
 30
0.0
 11
-36.4755
 21
-15.0
 31
0.0
  0
LINE
  5
90
330
1F
100
AcDbEntity
  8
AM_9
100
AcDbLine
 10
-37.0
 20
-15.25
 30
0.0
 11
-36.4755
 21
-15.25
 31
0.0
  0
LINE
  5
91
330
1F
100
AcDbEntity
  8
AM_9
100
AcDbLine
 10
-6.5
 20
-23.578
 30
0.0
 11
-6.5
 21
-24.098
 31
0.0
  0
LINE
  5
92
330
1F
100
AcDbEntity
  8
AM_9
100
AcDbLine
 10
-6.25
 20
-23.578
 30
0.0
 11
-6.25
 21
-24.098
 31
0.0
  0
LINE
  5
93
330
1F
100
AcDbEntity
  8
AM_9
100
AcDbLine
 10
-37.0
 20
13.0
 30
0.0
 11
-36.4755
 21
13.0
 31
0.0
  0
LINE
  5
94
330
1F
100
AcDbEntity
  8
AM_9
100
AcDbLine
 10
-37.0
 20
13.25
 30
0.0
 11
-36.4755
 21
13.25
 31
0.0
  0
LINE
  5
95
330
1F
100
AcDbEntity
  8
AM_9
100
AcDbLine
 10
14.0
 20
-23.578
 30
0.0
 11
14.0
 21
-24.098
 31
0.0
  0
LINE
  5
96
330
1F
100
AcDbEntity
  8
AM_9
100
AcDbLine
 10
14.25
 20
-23.578
 30
0.0
 11
14.25
 21
-24.098
 31
0.0
  0
LINE
  5
97
330
1F
100
AcDbEntity
  8
AM_9
100
AcDbLine
 10
6.5
 20
-23.578
 30
0.0
 11
6.5
 21
-24.098
 31
0.0
  0
LINE
  5
98
330
1F
100
AcDbEntity
  8
AM_9
100
AcDbLine
 10
6.25
 20
-23.578
 30
0.0
 11
6.25
 21
-24.098
 31
0.0
  0
LINE
  5
99
330
1F
100
AcDbEntity
  8
AM_9
100
AcDbLine
 10
14.0
 20
24.098
 30
0.0
 11
14.0
 21
23.578
 31
0.0
  0
LINE
  5
9A
330
1F
100
AcDbEntity
  8
AM_9
100
AcDbLine
 10
14.25
 20
24.098
 30
0.0
 11
14.25
 21
23.578
 31
0.0
  0
LINE
  5
9B
330
1F
100
AcDbEntity
  8
AM_9
100
AcDbLine
 10
6.5
 20
24.098
 30
0.0
 11
6.5
 21
23.578
 31
0.0
  0
LINE
  5
9C
330
1F
100
AcDbEntity
  8
AM_9
100
AcDbLine
 10
6.25
 20
24.098
 30
0.0
 11
6.25
 21
23.578
 31
0.0
  0
LINE
  5
9D
330
1F
100
AcDbEntity
  8
AM_9
100
AcDbLine
 10
-33.938
 20
24.098
 30
0.0
 11
-33.938
 21
23.578
 31
0.0
  0
LINE
  5
9E
330
1F
100
AcDbEntity
  8
AM_9
100
AcDbLine
 10
-31.93800000000001
 20
23.578
 30
0.0
 11
-31.93800000000001
 21
24.098
 31
0.0
  0
LINE
  5
9F
330
1F
100
AcDbEntity
  8
AM_9
100
AcDbLine
 10
-33.938
 20
-23.578
 30
0.0
 11
-33.938
 21
-24.098
 31
0.0
  0
LINE
  5
A0
330
1F
100
AcDbEntity
  8
AM_9
100
AcDbLine
 10
-31.93800000000001
 20
-24.098
 30
0.0
 11
-31.93800000000001
 21
-23.578
 31
0.0
  0
LINE
  5
A1
330
1F
100
AcDbEntity
  8
AM_9
100
AcDbLine
 10
28.938
 20
24.098
 30
0.0
 11
28.938
 21
23.578
 31
0.0
  0
LINE
  5
A2
330
1F
100
AcDbEntity
  8
AM_9
100
AcDbLine
 10
30.938
 20
23.578
 30
0.0
 11
30.938
 21
24.098
 31
0.0
  0
LINE
  5
A3
330
1F
100
AcDbEntity
  8
AM_9
100
AcDbLine
 10
31.93800000000001
 20
-23.578
 30
0.0
 11
31.93800000000001
 21
-24.098
 31
0.0
  0
LINE
  5
A4
330
1F
100
AcDbEntity
  8
AM_9
100
AcDbLine
 10
33.938
 20
-24.098
 30
0.0
 11
33.938
 21
-23.578
 31
0.0
  0
LINE
  5
A5
330
1F
100
AcDbEntity
  8
AM_9
100
AcDbLine
 10
-30.938
 20
24.098
 30
0.0
 11
-30.938
 21
23.578
 31
0.0
  0
LINE
  5
A6
330
1F
100
AcDbEntity
  8
AM_9
100
AcDbLine
 10
-28.938
 20
23.578
 30
0.0
 11
-28.938
 21
24.098
 31
0.0
  0
LINE
  5
A7
330
1F
100
AcDbEntity
  8
AM_9
100
AcDbLine
 10
37.0
 20
-16.04
 30
0.0
 11
36.4755
 21
-16.04
 31
0.0
  0
LINE
  5
A8
330
1F
100
AcDbEntity
  8
AM_9
100
AcDbLine
 10
36.4755
 20
-18.04
 30
0.0
 11
37.0
 21
-18.04
 31
0.0
  0
LINE
  5
A9
330
1F
100
AcDbEntity
  8
AM_9
100
AcDbLine
 10
-36.4755
 20
-16.04
 30
0.0
 11
-37.0
 21
-16.04
 31
0.0
  0
LINE
  5
AA
330
1F
100
AcDbEntity
  8
AM_9
100
AcDbLine
 10
-37.0
 20
-18.04
 30
0.0
 11
-36.4755
 21
-18.04
 31
0.0
  0
LINE
  5
AB
330
1F
100
AcDbEntity
  8
AM_9
100
AcDbLine
 10
-36.4755
 20
-19.04
 30
0.0
 11
-37.0
 21
-19.04
 31
0.0
  0
LINE
  5
AC
330
1F
100
AcDbEntity
  8
AM_9
100
AcDbLine
 10
-37.0
 20
-21.04
 30
0.0
 11
-36.4755
 21
-21.04
 31
0.0
  0
LINE
  5
AD
330
1F
100
AcDbEntity
  8
AM_9
100
AcDbLine
 10
-30.938
 20
-23.578
 30
0.0
 11
-30.938
 21
-24.098
 31
0.0
  0
LINE
  5
AE
330
1F
100
AcDbEntity
  8
AM_9
100
AcDbLine
 10
-28.938
 20
-24.098
 30
0.0
 11
-28.938
 21
-23.578
 31
0.0
  0
LINE
  5
AF
330
1F
100
AcDbEntity
  8
AM_9
100
AcDbLine
 10
37.0
 20
-19.04
 30
0.0
 11
36.4755
 21
-19.04
 31
0.0
  0
LINE
  5
B0
330
1F
100
AcDbEntity
  8
AM_9
100
AcDbLine
 10
36.4755
 20
-21.04
 30
0.0
 11
37.0
 21
-21.04
 31
0.0
  0
LINE
  5
B1
330
1F
100
AcDbEntity
  8
AM_9
100
AcDbLine
 10
28.938
 20
-23.578
 30
0.0
 11
28.938
 21
-24.098
 31
0.0
  0
LINE
  5
B2
330
1F
100
AcDbEntity
  8
AM_9
100
AcDbLine
 10
30.938
 20
-24.098
 30
0.0
 11
30.938
 21
-23.578
 31
0.0
  0
LINE
  5
B3
330
1F
100
AcDbEntity
  8
AM_9
100
AcDbLine
 10
37.0
 20
21.04
 30
0.0
 11
36.4755
 21
21.04
 31
0.0
  0
LINE
  5
B4
330
1F
100
AcDbEntity
  8
AM_9
100
AcDbLine
 10
36.4755
 20
19.04
 30
0.0
 11
37.0
 21
19.04
 31
0.0
  0
LINE
  5
B5
330
1F
100
AcDbEntity
  8
AM_9
100
AcDbLine
 10
31.93800000000001
 20
24.098
 30
0.0
 11
31.93800000000001
 21
23.578
 31
0.0
  0
LINE
  5
B6
330
1F
100
AcDbEntity
  8
AM_9
100
AcDbLine
 10
33.938
 20
23.578
 30
0.0
 11
33.938
 21
24.098
 31
0.0
  0
LINE
  5
B7
330
1F
100
AcDbEntity
  8
AM_9
100
AcDbLine
 10
-36.4755
 20
21.04
 30
0.0
 11
-37.0
 21
21.04
 31
0.0
  0
LINE
  5
B8
330
1F
100
AcDbEntity
  8
AM_9
100
AcDbLine
 10
-37.0
 20
19.04
 30
0.0
 11
-36.4755
 21
19.04
 31
0.0
  0
LINE
  5
B9
330
1F
100
AcDbEntity
  8
AM_9
100
AcDbLine
 10
37.0
 20
18.04
 30
0.0
 11
36.4755
 21
18.04
 31
0.0
  0
LINE
  5
BA
330
1F
100
AcDbEntity
  8
AM_9
100
AcDbLine
 10
36.4755
 20
16.04
 30
0.0
 11
37.0
 21
16.04
 31
0.0
  0
LINE
  5
BB
330
1F
100
AcDbEntity
  8
AM_9
100
AcDbLine
 10
-36.4755
 20
18.04
 30
0.0
 11
-37.0
 21
18.04
 31
0.0
  0
LINE
  5
BC
330
1F
100
AcDbEntity
  8
AM_9
100
AcDbLine
 10
-37.0
 20
16.04
 30
0.0
 11
-36.4755
 21
16.04
 31
0.0
  0
LINE
  5
BE
330
1F
100
AcDbEntity
  8
AM_0
100
AcDbLine
 10
-37.01
 20
4.75
 30
0.0
 11
-37.0
 21
4.75
 31
0.0
  0
LINE
  5
BF
330
1F
100
AcDbEntity
  8
AM_0
100
AcDbLine
 10
-37.01
 20
4.75
 30
0.0
 11
-37.01
 21
-1.25
 31
0.0
  0
LINE
  5
C0
330
1F
100
AcDbEntity
  8
AM_0
100
AcDbLine
 10
-37.01
 20
-1.25
 30
0.0
 11
-37.0
 21
-1.25
 31
0.0
  0
LINE
  5
C1
330
1F
100
AcDbEntity
  8
AM_0
100
AcDbLine
 10
-37.01
 20
-1.75
 30
0.0
 11
-37.01
 21
-6.75
 31
0.0
  0
LINE
  5
C2
330
1F
100
AcDbEntity
  8
AM_0
100
AcDbLine
 10
-37.01
 20
-6.75
 30
0.0
 11
-37.0
 21
-6.75
 31
0.0
  0
LINE
  5
C3
330
1F
100
AcDbEntity
  8
AM_0
100
AcDbLine
 10
-37.01
 20
-1.75
 30
0.0
 11
-37.0
 21
-1.75
 31
0.0
  0
LINE
  5
C5
330
1F
100
AcDbEntity
  8
AM_4
100
AcDbLine
 10
-37.01
 20
4.5
 30
0.0
 11
-37.0
 21
4.5
 31
0.0
  0
LINE
  5
C6
330
1F
100
AcDbEntity
  8
AM_4
100
AcDbLine
 10
-37.01
 20
-1.0
 30
0.0
 11
-37.0
 21
-1.0
 31
0.0
  0
LINE
  5
C7
330
1F
100
AcDbEntity
  8
AM_9
100
AcDbLine
 10
-7.402
 20
24.144
 30
0.0
 11
-13.152
 21
24.144
 31
0.0
  0
LINE
  5
C8
330
1F
100
AcDbEntity
  8
AM_9
100
AcDbLine
 10
-7.402
 20
24.144
 30
0.0
 11
-7.402
 21
-24.144
 31
0.0
  0
LINE
  5
C9
330
1F
100
AcDbEntity
  8
AM_9
100
AcDbLine
 10
-7.402
 20
-24.144
 30
0.0
 11
-13.152
 21
-24.144
 31
0.0
  0
LINE
  5
CA
330
1F
100
AcDbEntity
  8
AM_9
100
AcDbLine
 10
-1.25
 20
24.128
 30
0.0
 11
-1.25
 21
24.098
 31
0.0
  0
LINE
  5
CB
330
1F
100
AcDbEntity
  8
AM_9
100
AcDbLine
 10
-1.25
 20
24.128
 30
0.0
 11
1.25
 21
24.128
 31
0.0
  0
LINE
  5
CC
330
1F
100
AcDbEntity
  8
AM_9
100
AcDbLine
 10
1.25
 20
24.128
 30
0.0
 11
1.25
 21
24.098
 31
0.0
  0
LINE
  5
CD
330
1F
100
AcDbEntity
  8
AM_9
100
AcDbLine
 10
13.152
 20
24.144
 30
0.0
 11
7.401999999999999
 21
24.144
 31
0.0
  0
LINE
  5
CE
330
1F
100
AcDbEntity
  8
AM_9
100
AcDbLine
 10
1.25
 20
-24.098
 30
0.0
 11
1.25
 21
-24.128
 31
0.0
  0
LINE
  5
CF
330
1F
100
AcDbEntity
  8
AM_9
100
AcDbLine
 10
-1.25
 20
-24.098
 30
0.0
 11
-1.25
 21
-24.128
 31
0.0
  0
LINE
  5
D0
330
1F
100
AcDbEntity
  8
AM_9
100
AcDbLine
 10
-1.25
 20
-24.128
 30
0.0
 11
1.25
 21
-24.128
 31
0.0
  0
LINE
  5
D1
330
1F
100
AcDbEntity
  8
AM_9
100
AcDbLine
 10
13.152
 20
24.144
 30
0.0
 11
13.152
 21
-24.144
 31
0.0
  0
LINE
  5
D2
330
1F
100
AcDbEntity
  8
AM_9
100
AcDbLine
 10
7.401999999999999
 20
24.144
 30
0.0
 11
7.401999999999999
 21
-24.144
 31
0.0
  0
LINE
  5
D3
330
1F
100
AcDbEntity
  8
AM_9
100
AcDbLine
 10
13.152
 20
-24.144
 30
0.0
 11
7.401999999999999
 21
-24.144
 31
0.0
  0
LINE
  5
D4
330
1F
100
AcDbEntity
  8
AM_9
100
AcDbLine
 10
13.152
 20
21.15447308806543
 30
0.0
 11
7.401999999999999
 21
21.15447308806543
 31
0.0
  0
LINE
  5
D5
330
1F
100
AcDbEntity
  8
AM_9
100
AcDbLine
 10
-7.402
 20
21.15447308806543
 30
0.0
 11
-13.152
 21
21.15447308806543
 31
0.0
  0
LINE
  5
D6
330
1F
100
AcDbEntity
  8
AM_9
100
AcDbLine
 10
-7.402
 20
-21.15447308806542
 30
0.0
 11
-13.152
 21
-21.15447308806542
 31
0.0
  0
LINE
  5
D7
330
1F
100
AcDbEntity
  8
AM_9
100
AcDbLine
 10
13.152
 20
-21.15447308806542
 30
0.0
 11
7.401999999999999
 21
-21.15447308806542
 31
0.0
  0
LINE
  5
D8
330
1F
100
AcDbEntity
  8
AM_9
100
AcDbLine
 10
-7.402
 20
-21.12194617613083
 30
0.0
 11
-13.152
 21
-21.12194617613083
 31
0.0
  0
LINE
  5
D9
330
1F
100
AcDbEntity
  8
AM_9
100
AcDbLine
 10
13.152
 20
-21.12194617613083
 30
0.0
 11
7.401999999999999
 21
-21.12194617613083
 31
0.0
  0
LINE
  5
DA
330
1F
100
AcDbEntity
  8
AM_9
100
AcDbLine
 10
13.152
 20
21.20605382386916
 30
0.0
 11
7.401999999999999
 21
21.20605382386916
 31
0.0
  0
LINE
  5
DB
330
1F
100
AcDbEntity
  8
AM_9
100
AcDbLine
 10
13.152
 20
22.12258073580373
 30
0.0
 11
7.401999999999999
 21
22.12258073580373
 31
0.0
  0
LINE
  5
DC
330
1F
100
AcDbEntity
  8
AM_9
100
AcDbLine
 10
13.152
 20
21.12194617613083
 30
0.0
 11
7.401999999999999
 21
21.12194617613083
 31
0.0
  0
LINE
  5
DD
330
1F
100
AcDbEntity
  8
AM_9
100
AcDbLine
 10
-7.402
 20
21.12194617613083
 30
0.0
 11
-13.152
 21
21.12194617613083
 31
0.0
  0
LINE
  5
DE
330
1F
100
AcDbEntity
  8
AM_9
100
AcDbLine
 10
-7.402
 20
21.20605382386916
 30
0.0
 11
-13.152
 21
21.20605382386916
 31
0.0
  0
LINE
  5
DF
330
1F
100
AcDbEntity
  8
AM_9
100
AcDbLine
 10
-7.402
 20
22.12258073580373
 30
0.0
 11
-13.152
 21
22.12258073580373
 31
0.0
  0
LINE
  5
E0
330
1F
100
AcDbEntity
  8
AM_9
100
AcDbLine
 10
-7.402
 20
-21.20605382386916
 30
0.0
 11
-13.152
 21
-21.20605382386916
 31
0.0
  0
LINE
  5
E1
330
1F
100
AcDbEntity
  8
AM_9
100
AcDbLine
 10
-7.402
 20
-22.12258073580374
 30
0.0
 11
-13.152
 21
-22.12258073580374
 31
0.0
  0
LINE
  5
E2
330
1F
100
AcDbEntity
  8
AM_9
100
AcDbLine
 10
13.152
 20
-21.20605382386916
 30
0.0
 11
7.401999999999999
 21
-21.20605382386916
 31
0.0
  0
LINE
  5
E3
330
1F
100
AcDbEntity
  8
AM_9
100
AcDbLine
 10
13.152
 20
-22.12258073580374
 30
0.0
 11
7.401999999999999
 21
-22.12258073580374
 31
0.0
  0
LINE
  5
E4
330
1F
100
AcDbEntity
  8
AM_9
100
AcDbLine
 10
-7.402
 20
19.186
 30
0.0
 11
-13.152
 21
19.186
 31
0.0
  0
LINE
  5
E5
330
1F
100
AcDbEntity
  8
AM_9
100
AcDbLine
 10
13.152
 20
-19.186
 30
0.0
 11
7.401999999999999
 21
-19.186
 31
0.0
  0
LINE
  5
E6
330
1F
100
AcDbEntity
  8
AM_9
100
AcDbLine
 10
13.152
 20
19.186
 30
0.0
 11
7.401999999999999
 21
19.186
 31
0.0
  0
LINE
  5
E7
330
1F
100
AcDbEntity
  8
AM_9
100
AcDbLine
 10
-7.402
 20
-19.186
 30
0.0
 11
-13.152
 21
-19.186
 31
0.0
  0
LINE
  5
E8
330
1F
100
AcDbEntity
  8
AM_9
100
AcDbLine
 10
-34.7055
 20
24.098
 30
0.0
 11
34.7055
 21
24.098
 31
0.0
  0
LINE
  5
E9
330
1F
100
AcDbEntity
  8
AM_9
100
AcDbLine
 10
-34.7055
 20
24.155
 30
0.0
 11
-34.7055
 21
24.098
 31
0.0
  0
LINE
  5
EA
330
1F
100
AcDbEntity
  8
AM_9
100
AcDbLine
 10
34.7055
 20
24.155
 30
0.0
 11
34.7055
 21
24.098
 31
0.0
  0
LINE
  5
EB
330
1F
100
AcDbEntity
  8
AM_9
100
AcDbLine
 10
-34.7055
 20
-24.155
 30
0.0
 11
-34.7055
 21
-24.098
 31
0.0
  0
LINE
  5
EC
330
1F
100
AcDbEntity
  8
AM_9
100
AcDbLine
 10
34.7055
 20
-24.155
 30
0.0
 11
34.7055
 21
-24.098
 31
0.0
  0
LINE
  5
ED
330
1F
100
AcDbEntity
  8
AM_9
100
AcDbLine
 10
-34.7055
 20
-24.098
 30
0.0
 11
34.7055
 21
-24.098
 31
0.0
  0
LINE
  5
EE
330
1F
100
AcDbEntity
  8
AM_9
100
AcDbLine
 10
13.152
 20
-21.273
 30
0.0
 11
7.401999999999999
 21
-21.273
 31
0.0
  0
LINE
  5
EF
330
1F
100
AcDbEntity
  8
AM_9
100
AcDbLine
 10
13.152
 20
21.273
 30
0.0
 11
7.401999999999999
 21
21.273
 31
0.0
  0
LINE
  5
F0
330
1F
100
AcDbEntity
  8
AM_9
100
AcDbLine
 10
-7.402
 20
21.273
 30
0.0
 11
-13.152
 21
21.273
 31
0.0
  0
LINE
  5
F1
330
1F
100
AcDbEntity
  8
AM_9
100
AcDbLine
 10
-7.402
 20
-21.273
 30
0.0
 11
-13.152
 21
-21.273
 31
0.0
  0
LINE
  5
F2
330
1F
100
AcDbEntity
  8
AM_9
100
AcDbLine
 10
-13.152
 20
24.144
 30
0.0
 11
-13.152
 21
-24.144
 31
0.0
  0
LINE
  5
F3
330
1F
100
AcDbEntity
  8
AM_0
100
AcDbLine
 10
-5.7955
 20
24.155
 30
0.0
 11
-37.0
 21
24.155
 31
0.0
  0
LINE
  5
F4
330
1F
100
AcDbEntity
  8
AM_9
100
AcDbLine
 10
34.19750000000001
 20
24.155
 30
0.0
 11
-5.7955
 21
24.155
 31
0.0
  0
LINE
  5
F5
330
1F
100
AcDbEntity
  8
AM_0
100
AcDbLine
 10
37.0
 20
24.155
 30
0.0
 11
34.19750000000001
 21
24.155
 31
0.0
  0
LINE
  5
F6
330
1F
100
AcDbEntity
  8
AM_0
100
AcDbLine
 10
-37.0
 20
24.155
 30
0.0
 11
-37.0
 21
-24.155
 31
0.0
  0
LINE
  5
F7
330
1F
100
AcDbEntity
  8
AM_0
100
AcDbLine
 10
-37.0
 20
-24.155
 30
0.0
 11
37.0
 21
-24.155
 31
0.0
  0
LINE
  5
F8
330
1F
100
AcDbEntity
  8
AM_0
100
AcDbLine
 10
37.0
 20
-24.155
 30
0.0
 11
37.0
 21
24.155
 31
0.0
  0
LINE
  5
F9
330
1F
100
AcDbEntity
  8
AM_9
100
AcDbLine
 10
-6.167999999999996
 20
21.75
 30
0.0
 11
-6.168
 21
-21.75
 31
0.0
  0
LINE
  5
FA
330
1F
100
AcDbEntity
  8
AM_9
100
AcDbLine
 10
35.063
 20
-21.75
 30
0.0
 11
35.063
 21
21.75
 31
0.0
  0
LINE
  5
FB
330
1F
100
AcDbEntity
  8
AM_9
100
AcDbLine
 10
36.4755
 20
23.578
 30
0.0
 11
-36.4755
 21
23.578
 31
0.0
  0
LINE
  5
FC
330
1F
100
AcDbEntity
  8
AM_9
100
AcDbLine
 10
36.4755
 20
-23.578
 30
0.0
 11
36.4755
 21
23.578
 31
0.0
  0
LINE
  5
FD
330
1F
100
AcDbEntity
  8
AM_9
100
AcDbLine
 10
-36.4755
 20
23.578
 30
0.0
 11
-36.4755
 21
-23.578
 31
0.0
  0
LINE
  5
FE
330
1F
100
AcDbEntity
  8
AM_9
100
AcDbLine
 10
-36.4755
 20
-23.578
 30
0.0
 11
36.4755
 21
-23.578
 31
0.0
  0
CIRCLE
  5
FF
330
1F
100
AcDbEntity
  8
AM_9
100
AcDbCircle
 10
17.504
 20
3.67
 30
0.0
 40
0.84
  0
CIRCLE
  5
100
330
1F
100
AcDbEntity
  8
AM_9
100
AcDbCircle
 10
17.504
 20
3.67
 30
0.0
 40
1.25
  0
LINE
  5
101
330
1F
100
AcDbEntity
  8
AM_9
100
AcDbLine
 10
36.61250000000001
 20
23.7815
 30
0.0
 11
-36.646
 21
23.7815
 31
0.0
  0
LINE
  5
102
330
1F
100
AcDbEntity
  8
AM_9
100
AcDbLine
 10
-36.646
 20
23.7815
 30
0.0
 11
-36.646
 21
14.9915
 31
0.0
  0
LINE
  5
103
330
1F
100
AcDbEntity
  8
AM_9
100
AcDbLine
 10
-9.050000000000002
 20
-16.62
 30
0.0
 11
-9.05
 21
-12.12
 31
0.0
  0
ARC
  5
104
330
1F
100
AcDbEntity
  8
AM_9
100
AcDbCircle
 10
-10.55
 20
-16.62
 30
0.0
 40
1.499999999999998
100
AcDbArc
 50
180.0000000000002
 51
359.9999999999998
  0
CIRCLE
  5
105
330
1F
100
AcDbEntity
  8
AM_9
100
AcDbCircle
 10
-10.55
 20
-13.59
 30
0.0
 40
0.0822860863086819
  0
CIRCLE
  5
106
330
1F
100
AcDbEntity
  8
AM_9
100
AcDbCircle
 10
-10.55
 20
-16.59
 30
0.0
 40
0.0822860863086843
  0
LINE
  5
107
330
1F
100
AcDbEntity
  8
AM_9
100
AcDbLine
 10
-12.05
 20
-12.12
 30
0.0
 11
-12.05
 21
-16.62
 31
0.0
  0
CIRCLE
  5
108
330
1F
100
AcDbEntity
  8
AM_9
100
AcDbCircle
 10
-10.55
 20
-12.09
 30
0.0
 40
0.0822860863086819
  0
ARC
  5
109
330
1F
100
AcDbEntity
  8
AM_9
100
AcDbCircle
 10
-10.55
 20
-12.12
 30
0.0
 40
1.5
100
AcDbArc
 50
0.0000000000001357
 51
179.9999999999998
  0
LINE
  5
10A
330
1F
100
AcDbEntity
  8
AM_9
100
AcDbLine
 10
-30.85599999999999
 20
-20.853
 30
0.0
 11
-22.661
 21
-20.853
 31
0.0
  0
ARC
  5
10B
330
1F
100
AcDbEntity
  8
AM_9
100
AcDbCircle
 10
-19.97499999999999
 20
-12.485
 30
0.0
 40
1.279
100
AcDbArc
 50
180.0
 51
269.9999999999998
  0
ARC
  5
10C
330
1F
100
AcDbEntity
  8
AM_9
100
AcDbCircle
 10
-22.661
 20
-11.28000000000001
 30
0.0
 40
1.407000000000007
100
AcDbArc
 50
0.000000000000217
 51
89.99999999999986
  0
LINE
  5
10D
330
1F
100
AcDbEntity
  8
AM_9
100
AcDbLine
 10
-22.661
 20
-9.873000000000001
 30
0.0
 11
-30.85599999999999
 21
-9.873000000000001
 31
0.0
  0
ARC
  5
10E
330
1F
100
AcDbEntity
  8
AM_9
100
AcDbCircle
 10
-30.85599999999999
 20
-11.251
 30
0.0
 40
1.378000000000004
100
AcDbArc
 50
90.00000000000016
 51
179.9999999999998
  0
LINE
  5
10F
330
1F
100
AcDbEntity
  8
AM_9
100
AcDbLine
 10
-32.23399999999999
 20
-11.251
 30
0.0
 11
-32.23399999999999
 21
-19.475
 31
0.0
  0
ARC
  5
110
330
1F
100
AcDbEntity
  8
AM_9
100
AcDbCircle
 10
-22.66099999999999
 20
-19.44599999999999
 30
0.0
 40
1.407000000000004
100
AcDbArc
 50
269.9999999999999
 51
359.9999999999997
  0
ARC
  5
111
330
1F
100
AcDbEntity
  8
AM_9
100
AcDbCircle
 10
-30.856
 20
-19.475
 30
0.0
 40
1.377999999999997
100
AcDbArc
 50
180.0
 51
270.0000000000001
  0
LINE
  5
112
330
1F
100
AcDbEntity
  8
AM_9
100
AcDbLine
 10
-17.613
 20
-13.764
 30
0.0
 11
-19.975
 21
-13.764
 31
0.0
  0
ARC
  5
113
330
1F
100
AcDbEntity
  8
AM_9
100
AcDbCircle
 10
-17.61300000000001
 20
-15.17100000000001
 30
0.0
 40
1.407000000000007
100
AcDbArc
 50
0.0000000000002893
 51
89.99999999999972
  0
LINE
  5
114
330
1F
100
AcDbEntity
  8
AM_9
100
AcDbLine
 10
-19.975
 20
-16.962
 30
0.0
 11
-17.613
 21
-16.962
 31
0.0
  0
LINE
  5
115
330
1F
100
AcDbEntity
  8
AM_9
100
AcDbLine
 10
-21.25399999999999
 20
-12.485
 30
0.0
 11
-21.25399999999999
 21
-11.28
 31
0.0
  0
LINE
  5
116
330
1F
100
AcDbEntity
  8
AM_9
100
AcDbLine
 10
-16.206
 20
-15.555
 30
0.0
 11
-16.206
 21
-15.171
 31
0.0
  0
LINE
  5
117
330
1F
100
AcDbEntity
  8
AM_9
100
AcDbLine
 10
-21.25399999999999
 20
-19.446
 30
0.0
 11
-21.25399999999999
 21
-18.241
 31
0.0
  0
ARC
  5
118
330
1F
100
AcDbEntity
  8
AM_9
100
AcDbCircle
 10
-19.97500000000001
 20
-18.24099999999999
 30
0.0
 40
1.278999999999989
100
AcDbArc
 50
89.99999999999953
 51
180.0000000000004
  0
ARC
  5
119
330
1F
100
AcDbEntity
  8
AM_9
100
AcDbCircle
 10
-17.613
 20
-15.555
 30
0.0
 40
1.407000000000004
100
AcDbArc
 50
270.0000000000001
 51
359.9999999999998
  0
LINE
  5
11A
330
1F
100
AcDbEntity
  8
AM_9
100
AcDbLine
 10
31.493
 20
9.963000000000003
 30
0.0
 11
31.493
 21
14.969
 31
0.0
  0
ARC
  5
11B
330
1F
100
AcDbEntity
  8
AM_9
100
AcDbCircle
 10
9.490000000000002
 20
9.963000000000001
 30
0.0
 40
2.997000000000003
100
AcDbArc
 50
180.0
 51
269.9999999999999
  0
LINE
  5
11C
330
1F
100
AcDbEntity
  8
AM_9
100
AcDbLine
 10
6.492999999999999
 20
14.969
 30
0.0
 11
6.492999999999999
 21
9.963000000000001
 31
0.0
  0
LINE
  5
11D
330
1F
100
AcDbEntity
  8
AM_9
100
AcDbLine
 10
28.496
 20
17.966
 30
0.0
 11
9.490000000000002
 21
17.966
 31
0.0
  0
ARC
  5
11E
330
1F
100
AcDbEntity
  8
AM_9
100
AcDbCircle
 10
9.489999999999991
 20
14.96900000000001
 30
0.0
 40
2.996999999999995
100
AcDbArc
 50
89.99999999999982
 51
180.0000000000001
  0
ARC
  5
11F
330
1F
100
AcDbEntity
  8
AM_9
100
AcDbCircle
 10
28.496
 20
14.969
 30
0.0
 40
2.997
100
AcDbArc
 50
359.9999999999999
 51
90.0
  0
ARC
  5
120
330
1F
100
AcDbEntity
  8
AM_9
100
AcDbCircle
 10
28.496
 20
9.963000000000005
 30
0.0
 40
2.997000000000003
100
AcDbArc
 50
270.0000000000001
 51
359.9999999999999
  0
LINE
  5
121
330
1F
100
AcDbEntity
  8
AM_9
100
AcDbLine
 10
9.49
 20
6.966000000000001
 30
0.0
 11
28.496
 21
6.966000000000001
 31
0.0
  0
LINE
  5
122
330
1F
100
AcDbEntity
  8
AM_9
100
AcDbLine
 10
31.946
 20
-13.288
 30
0.0
 11
31.946
 21
-2.281999999999999
 31
0.0
  0
LINE
  5
123
330
1F
100
AcDbEntity
  8
AM_9
100
AcDbLine
 10
28.949
 20
0.7150000000000004
 30
0.0
 11
22.943
 21
0.715
 31
0.0
  0
LINE
  5
124
330
1F
100
AcDbEntity
  8
AM_9
100
AcDbLine
 10
19.946
 20
-2.282
 30
0.0
 11
19.946
 21
-13.288
 31
0.0
  0
ARC
  5
125
330
1F
100
AcDbEntity
  8
AM_9
100
AcDbCircle
 10
22.94299999999999
 20
-13.28800000000001
 30
0.0
 40
2.996999999999993
100
AcDbArc
 50
179.9999999999998
 51
270.0000000000001
  0
LINE
  5
126
330
1F
100
AcDbEntity
  8
AM_9
100
AcDbLine
 10
22.943
 20
-16.285
 30
0.0
 11
28.949
 21
-16.285
 31
0.0
  0
ARC
  5
127
330
1F
100
AcDbEntity
  8
AM_9
100
AcDbCircle
 10
28.94900000000001
 20
-13.28800000000001
 30
0.0
 40
2.996999999999991
100
AcDbArc
 50
269.9999999999998
 51
0.0000000000001019
  0
ARC
  5
128
330
1F
100
AcDbEntity
  8
AM_9
100
AcDbCircle
 10
22.943
 20
-2.281999999999998
 30
0.0
 40
2.996999999999998
100
AcDbArc
 50
90.0
 51
180.0
  0
ARC
  5
129
330
1F
100
AcDbEntity
  8
AM_9
100
AcDbCircle
 10
28.94900000000001
 20
-2.281999999999996
 30
0.0
 40
2.996999999999996
100
AcDbArc
 50
359.9999999999999
 51
90.00000000000016
  0
LINE
  5
12A
330
1F
100
AcDbEntity
  8
AM_9
100
AcDbLine
 10
-36.566
 20
-15.994
 30
0.0
 11
-36.646
 21
-15.994
 31
0.0
  0
LINE
  5
12B
330
1F
100
AcDbEntity
  8
AM_9
100
AcDbLine
 10
-36.646
 20
-16.494
 30
0.0
 11
-36.566
 21
-16.494
 31
0.0
  0
LINE
  5
12C
330
1F
100
AcDbEntity
  8
AM_9
100
AcDbLine
 10
-1.504
 20
-23.8615
 30
0.0
 11
-1.504
 21
-23.7815
 31
0.0
  0
LINE
  5
12D
330
1F
100
AcDbEntity
  8
AM_9
100
AcDbLine
 10
1.496
 20
-23.8615
 30
0.0
 11
1.496
 21
-23.7815
 31
0.0
  0
LINE
  5
12E
330
1F
100
AcDbEntity
  8
AM_9
100
AcDbLine
 10
36.696
 20
6.594
 30
0.0
 11
36.646
 21
6.593999999999999
 31
0.0
  0
LINE
  5
12F
330
1F
100
AcDbEntity
  8
AM_9
100
AcDbLine
 10
36.696
 20
1.594000000000001
 30
0.0
 11
36.646
 21
1.594
 31
0.0
  0
LINE
  5
130
330
1F
100
AcDbEntity
  8
AM_9
100
AcDbLine
 10
36.696
 20
6.594
 30
0.0
 11
36.696
 21
1.594000000000001
 31
0.0
  0
LINE
  5
131
330
1F
100
AcDbEntity
  8
AM_9
100
AcDbLine
 10
35.646
 20
3.215
 30
0.0
 11
36.646
 21
3.215
 31
0.0
  0
LINE
  5
132
330
1F
100
AcDbEntity
  8
AM_9
100
AcDbLine
 10
36.646
 20
4.125
 30
0.0
 11
35.646
 21
4.125
 31
0.0
  0
LINE
  5
133
330
1F
100
AcDbEntity
  8
AM_9
100
AcDbLine
 10
35.646
 20
4.125
 30
0.0
 11
35.646
 21
3.215
 31
0.0
  0
LINE
  5
134
330
1F
100
AcDbEntity
  8
AM_9
100
AcDbLine
 10
-36.566
 20
-17.978
 30
0.0
 11
-36.646
 21
-17.978
 31
0.0
  0
LINE
  5
135
330
1F
100
AcDbEntity
  8
AM_9
100
AcDbLine
 10
-36.646
 20
-18.196
 30
0.0
 11
-36.566
 21
-18.196
 31
0.0
  0
LINE
  5
136
330
1F
100
AcDbEntity
  8
AM_9
100
AcDbLine
 10
-36.566
 20
-17.978
 30
0.0
 11
-36.566
 21
-18.196
 31
0.0
  0
LINE
  5
137
330
1F
100
AcDbEntity
  8
AM_9
100
AcDbLine
 10
-36.566
 20
-14.041
 30
0.0
 11
-36.646
 21
-14.041
 31
0.0
  0
LINE
  5
138
330
1F
100
AcDbEntity
  8
AM_9
100
AcDbLine
 10
-36.646
 20
-14.259
 30
0.0
 11
-36.566
 21
-14.259
 31
0.0
  0
LINE
  5
139
330
1F
100
AcDbEntity
  8
AM_9
100
AcDbLine
 10
-36.566
 20
-14.041
 30
0.0
 11
-36.566
 21
-14.259
 31
0.0
  0
LINE
  5
13A
330
1F
100
AcDbEntity
  8
AM_9
100
AcDbLine
 10
36.605
 20
3.045
 30
0.0
 11
36.646
 21
3.045
 31
0.0
  0
LINE
  5
13B
330
1F
100
AcDbEntity
  8
AM_9
100
AcDbLine
 10
36.646
 20
4.295
 30
0.0
 11
36.605
 21
4.295
 31
0.0
  0
LINE
  5
13C
330
1F
100
AcDbEntity
  8
AM_9
100
AcDbLine
 10
36.605
 20
2.669999999999999
 30
0.0
 11
36.646
 21
2.669999999999999
 31
0.0
  0
LINE
  5
13D
330
1F
100
AcDbEntity
  8
AM_9
100
AcDbLine
 10
36.646
 20
4.67
 30
0.0
 11
36.605
 21
4.67
 31
0.0
  0
LINE
  5
13E
330
1F
100
AcDbEntity
  8
AM_9
100
AcDbLine
 10
36.605
 20
4.67
 30
0.0
 11
36.605
 21
2.669999999999999
 31
0.0
  0
LINE
  5
13F
330
1F
100
AcDbEntity
  8
AM_9
100
AcDbLine
 10
-36.606
 20
-17.31
 30
0.0
 11
-36.646
 21
-17.31
 31
0.0
  0
LINE
  5
140
330
1F
100
AcDbEntity
  8
AM_9
100
AcDbLine
 10
-36.606
 20
-14.93
 30
0.0
 11
-36.646
 21
-14.93
 31
0.0
  0
LINE
  5
141
330
1F
100
AcDbEntity
  8
AM_9
100
AcDbLine
 10
-36.606
 20
-14.87
 30
0.0
 11
-36.646
 21
-14.87
 31
0.0
  0
LINE
  5
142
330
1F
100
AcDbEntity
  8
AM_9
100
AcDbLine
 10
-36.606
 20
-17.37
 30
0.0
 11
-36.646
 21
-17.37
 31
0.0
  0
LINE
  5
143
330
1F
100
AcDbEntity
  8
AM_9
100
AcDbLine
 10
-36.606
 20
-13.12
 30
0.0
 11
-36.606
 21
-17.37
 31
0.0
  0
LINE
  5
144
330
1F
100
AcDbEntity
  8
AM_9
100
AcDbLine
 10
19.996
 20
-23.8615
 30
0.0
 11
19.996
 21
-23.7815
 31
0.0
  0
LINE
  5
145
330
1F
100
AcDbEntity
  8
AM_9
100
AcDbLine
 10
26.996
 20
-23.8615
 30
0.0
 11
26.996
 21
-23.7815
 31
0.0
  0
LINE
  5
146
330
1F
100
AcDbEntity
  8
AM_9
100
AcDbLine
 10
36.696
 20
5.902000000000001
 30
0.0
 11
36.646
 21
5.902000000000001
 31
0.0
  0
LINE
  5
147
330
1F
100
AcDbEntity
  8
AM_9
100
AcDbLine
 10
36.696
 20
2.902000000000001
 30
0.0
 11
36.646
 21
2.901999999999999
 31
0.0
  0
LINE
  5
148
330
1F
100
AcDbEntity
  8
AM_9
100
AcDbLine
 10
32.308
 20
23.8615
 30
0.0
 11
32.308
 21
23.7815
 31
0.0
  0
LINE
  5
149
330
1F
100
AcDbEntity
  8
AM_9
100
AcDbLine
 10
25.308
 20
23.8615
 30
0.0
 11
32.308
 21
23.8615
 31
0.0
  0
LINE
  5
14A
330
1F
100
AcDbEntity
  8
AM_9
100
AcDbLine
 10
25.308
 20
23.8615
 30
0.0
 11
25.30799999999999
 21
23.7815
 31
0.0
  0
LINE
  5
14B
330
1F
100
AcDbEntity
  8
AM_9
100
AcDbLine
 10
36.8555
 20
-17.126
 30
0.0
 11
36.707
 21
-17.126
 31
0.0
  0
LINE
  5
14C
330
1F
100
AcDbEntity
  8
AM_0
100
AcDbLine
 10
36.89
 20
-17.126
 30
0.0
 11
36.8555
 21
-17.126
 31
0.0
  0
ARC
  5
14D
330
1F
100
AcDbEntity
  8
AM_9
100
AcDbCircle
 10
36.70699999999987
 20
-17.09300000000021
 30
0.0
 40
0.0669999999997919
100
AcDbArc
 50
204.432697679342
 51
270.0000000001154
  0
LINE
  5
14E
330
1F
100
AcDbEntity
  8
AM_0
100
AcDbLine
 10
36.8555
 20
-17.16
 30
0.0
 11
36.89
 21
-17.16
 31
0.0
  0
LINE
  5
14F
330
1F
100
AcDbEntity
  8
AM_9
100
AcDbLine
 10
36.707
 20
-17.16
 30
0.0
 11
36.8555
 21
-17.16
 31
0.0
  0
LINE
  5
150
330
1F
100
AcDbEntity
  8
AM_0
100
AcDbLine
 10
36.89
 20
-17.16
 30
0.0
 11
36.89
 21
-17.126
 31
0.0
  0
ARC
  5
151
330
1F
100
AcDbEntity
  8
AM_9
100
AcDbCircle
 10
36.70700000000001
 20
-17.09299999999999
 30
0.0
 40
0.0330000000000073
100
AcDbArc
 50
187.3051784180126
 51
269.9999999999877
  0
LINE
  5
152
330
1F
100
AcDbEntity
  8
AM_9
100
AcDbLine
 10
36.674
 20
-17.1
 30
0.0
 11
36.674
 21
0.9029999999999986
 31
0.0
  0
ARC
  5
153
330
1F
100
AcDbEntity
  8
AM_9
100
AcDbCircle
 10
36.70700000000001
 20
0.9029999999999928
 30
0.0
 40
0.0330000000000085
100
AcDbArc
 50
90.00000000001235
 51
179.99999999999
  0
LINE
  5
154
330
1F
100
AcDbEntity
  8
AM_0
100
AcDbLine
 10
36.8555
 20
0.9359999999999993
 30
0.0
 11
36.89
 21
0.9359999999999988
 31
0.0
  0
LINE
  5
155
330
1F
100
AcDbEntity
  8
AM_9
100
AcDbLine
 10
36.707
 20
0.9360000000000013
 30
0.0
 11
36.8555
 21
0.9359999999999993
 31
0.0
  0
LINE
  5
156
330
1F
100
AcDbEntity
  8
AM_0
100
AcDbLine
 10
36.89
 20
0.9359999999999988
 30
0.0
 11
36.89
 21
0.9699999999999988
 31
0.0
  0
LINE
  5
157
330
1F
100
AcDbEntity
  8
AM_9
100
AcDbLine
 10
36.8555
 20
0.969999999999999
 30
0.0
 11
36.707
 21
0.9699999999999988
 31
0.0
  0
LINE
  5
158
330
1F
100
AcDbEntity
  8
AM_0
100
AcDbLine
 10
36.89
 20
0.9699999999999988
 30
0.0
 11
36.8555
 21
0.969999999999999
 31
0.0
  0
ARC
  5
159
330
1F
100
AcDbEntity
  8
AM_9
100
AcDbCircle
 10
36.707
 20
0.9029999999999959
 30
0.0
 40
0.0670000000000028
100
AcDbArc
 50
90.0
 51
155.5673023205433
  0
LINE
  5
15A
330
1F
100
AcDbEntity
  8
AM_9
100
AcDbLine
 10
36.81
 20
13.098
 30
0.0
 11
36.76600000000001
 21
13.098
 31
0.0
  0
LINE
  5
15B
330
1F
100
AcDbEntity
  8
AM_9
100
AcDbLine
 10
36.81
 20
17.098
 30
0.0
 11
36.81
 21
13.098
 31
0.0
  0
LINE
  5
15C
330
1F
100
AcDbEntity
  8
AM_9
100
AcDbLine
 10
36.81
 20
17.098
 30
0.0
 11
36.76600000000001
 21
17.098
 31
0.0
  0
LINE
  5
15D
330
1F
100
AcDbEntity
  8
AM_9
100
AcDbLine
 10
36.704
 20
0.9000000000000019
 30
0.0
 11
36.704
 21
-17.1
 31
0.0
  0
LWPOLYLINE
  5
15E
330
1F
100
AcDbEntity
  8
AM_9
100
AcDbPolyline
 90
        3
 70
     0
 43
0.0
 10
36.674
 20
-17.093
 10
36.67400041245109
 20
-17.09316498971146
 10
36.67426786250536
 20
-17.0971960904461
  0
LINE
  5
15F
330
1F
100
AcDbEntity
  8
AM_9
100
AcDbLine
 10
36.67426786250536
 20
-17.0971960904461
 30
0.0
 11
36.67426786250536
 21
-17.1
 31
0.0
  0
LINE
  5
160
330
1F
100
AcDbEntity
  8
AM_0
100
AcDbLine
 10
36.89
 20
0.9000000000000019
 30
0.0
 11
36.89
 21
-17.1
 31
0.0
  0
LINE
  5
161
330
1F
100
AcDbEntity
  8
AM_0
100
AcDbLine
 10
36.8555
 20
-17.1
 30
0.0
 11
36.89
 21
-17.1
 31
0.0
  0
LINE
  5
162
330
1F
100
AcDbEntity
  8
AM_9
100
AcDbLine
 10
36.646
 20
-17.1
 30
0.0
 11
36.8555
 21
-17.1
 31
0.0
  0
LINE
  5
163
330
1F
100
AcDbEntity
  8
AM_0
100
AcDbLine
 10
36.8555
 20
0.9000000000000016
 30
0.0
 11
36.89
 21
0.9000000000000019
 31
0.0
  0
LINE
  5
164
330
1F
100
AcDbEntity
  8
AM_9
100
AcDbLine
 10
36.646
 20
0.8999999999999997
 30
0.0
 11
36.8555
 21
0.9000000000000016
 31
0.0
  0
LINE
  5
165
330
1F
100
AcDbEntity
  8
AM_9
100
AcDbLine
 10
-4.609999999999999
 20
-23.8615
 30
0.0
 11
-4.609999999999999
 21
-23.7815
 31
0.0
  0
LINE
  5
166
330
1F
100
AcDbEntity
  8
AM_9
100
AcDbLine
 10
-4.609999999999999
 20
-23.8615
 30
0.0
 11
33.02
 21
-23.8615
 31
0.0
  0
LINE
  5
167
330
1F
100
AcDbEntity
  8
AM_9
100
AcDbLine
 10
33.02
 20
-23.8615
 30
0.0
 11
33.02
 21
-23.7815
 31
0.0
  0
LINE
  5
168
330
1F
100
AcDbEntity
  8
AM_9
100
AcDbLine
 10
-36.566
 20
-15.684
 30
0.0
 11
-36.646
 21
-15.684
 31
0.0
  0
LINE
  5
169
330
1F
100
AcDbEntity
  8
AM_9
100
AcDbLine
 10
-36.646
 20
-16.804
 30
0.0
 11
-36.566
 21
-16.804
 31
0.0
  0
LINE
  5
16A
330
1F
100
AcDbEntity
  8
AM_9
100
AcDbLine
 10
-36.566
 20
-15.684
 30
0.0
 11
-36.566
 21
-16.804
 31
0.0
  0
LINE
  5
16B
330
1F
100
AcDbEntity
  8
AM_9
100
AcDbLine
 10
-20.96
 20
-23.6815
 30
0.0
 11
-20.96
 21
-23.7815
 31
0.0
  0
LINE
  5
16C
330
1F
100
AcDbEntity
  8
AM_9
100
AcDbLine
 10
-16.66
 20
-23.6815
 30
0.0
 11
-16.66
 21
-23.7815
 31
0.0
  0
LINE
  5
16D
330
1F
100
AcDbEntity
  8
AM_9
100
AcDbLine
 10
-30.5
 20
-23.6815
 30
0.0
 11
-30.5
 21
-23.7815
 31
0.0
  0
LINE
  5
16E
330
1F
100
AcDbEntity
  8
AM_9
100
AcDbLine
 10
-26.2
 20
-23.6815
 30
0.0
 11
-26.2
 21
-23.7815
 31
0.0
  0
LINE
  5
16F
330
1F
100
AcDbEntity
  8
AM_9
100
AcDbLine
 10
-16.19
 20
-23.6815
 30
0.0
 11
-16.19
 21
-23.7815
 31
0.0
  0
LINE
  5
170
330
1F
100
AcDbEntity
  8
AM_9
100
AcDbLine
 10
-11.89
 20
-23.6815
 30
0.0
 11
-11.89
 21
-23.7815
 31
0.0
  0
LINE
  5
171
330
1F
100
AcDbEntity
  8
AM_9
100
AcDbLine
 10
-21.43
 20
-23.6815
 30
0.0
 11
-21.43
 21
-23.7815
 31
0.0
  0
LINE
  5
172
330
1F
100
AcDbEntity
  8
AM_9
100
AcDbLine
 10
-25.73
 20
-23.6815
 30
0.0
 11
-25.73
 21
-23.7815
 31
0.0
  0
LINE
  5
173
330
1F
100
AcDbEntity
  8
AM_9
100
AcDbLine
 10
-26.28085736893198
 20
-23.6815
 30
0.0
 11
-26.28085736893198
 21
-23.7815
 31
0.0
  0
LINE
  5
174
330
1F
100
AcDbEntity
  8
AM_9
100
AcDbLine
 10
-30.5
 20
-23.6815
 30
0.0
 11
-26.2
 21
-23.6815
 31
0.0
  0
LINE
  5
175
330
1F
100
AcDbEntity
  8
AM_9
100
AcDbLine
 10
-30.41914263106802
 20
-23.6815
 30
0.0
 11
-30.41914263106802
 21
-23.7815
 31
0.0
  0
LINE
  5
176
330
1F
100
AcDbEntity
  8
AM_9
100
AcDbLine
 10
-25.64914263106802
 20
-23.6815
 30
0.0
 11
-25.64914263106802
 21
-23.7815
 31
0.0
  0
LINE
  5
177
330
1F
100
AcDbEntity
  8
AM_9
100
AcDbLine
 10
-25.73
 20
-23.6815
 30
0.0
 11
-21.43
 21
-23.6815
 31
0.0
  0
LINE
  5
178
330
1F
100
AcDbEntity
  8
AM_9
100
AcDbLine
 10
-21.51085736893198
 20
-23.6815
 30
0.0
 11
-21.51085736893198
 21
-23.7815
 31
0.0
  0
LINE
  5
179
330
1F
100
AcDbEntity
  8
AM_9
100
AcDbLine
 10
-16.74085736893198
 20
-23.6815
 30
0.0
 11
-16.74085736893198
 21
-23.7815
 31
0.0
  0
LINE
  5
17A
330
1F
100
AcDbEntity
  8
AM_9
100
AcDbLine
 10
-20.96
 20
-23.6815
 30
0.0
 11
-16.66
 21
-23.6815
 31
0.0
  0
LINE
  5
17B
330
1F
100
AcDbEntity
  8
AM_9
100
AcDbLine
 10
-20.87914263106802
 20
-23.6815
 30
0.0
 11
-20.87914263106802
 21
-23.7815
 31
0.0
  0
LINE
  5
17C
330
1F
100
AcDbEntity
  8
AM_9
100
AcDbLine
 10
-11.97085736893198
 20
-23.6815
 30
0.0
 11
-11.97085736893198
 21
-23.7815
 31
0.0
  0
LINE
  5
17D
330
1F
100
AcDbEntity
  8
AM_9
100
AcDbLine
 10
-16.19
 20
-23.6815
 30
0.0
 11
-11.89
 21
-23.6815
 31
0.0
  0
LINE
  5
17E
330
1F
100
AcDbEntity
  8
AM_9
100
AcDbLine
 10
-16.10914263106802
 20
-23.6815
 30
0.0
 11
-16.10914263106802
 21
-23.7815
 31
0.0
  0
LINE
  5
17F
330
1F
100
AcDbEntity
  8
AM_9
100
AcDbLine
 10
-30.22595746581021
 20
-23.6815
 30
0.0
 11
-30.22595746581021
 21
-23.7815
 31
0.0
  0
LINE
  5
180
330
1F
100
AcDbEntity
  8
AM_9
100
AcDbLine
 10
-26.4740425341898
 20
-23.6815
 30
0.0
 11
-26.4740425341898
 21
-23.7815
 31
0.0
  0
LINE
  5
181
330
1F
100
AcDbEntity
  8
AM_9
100
AcDbLine
 10
-12.16404253418979
 20
-23.6815
 30
0.0
 11
-12.16404253418979
 21
-23.7815
 31
0.0
  0
LINE
  5
182
330
1F
100
AcDbEntity
  8
AM_9
100
AcDbLine
 10
-25.45595746581021
 20
-23.6815
 30
0.0
 11
-25.45595746581021
 21
-23.7815
 31
0.0
  0
LINE
  5
183
330
1F
100
AcDbEntity
  8
AM_9
100
AcDbLine
 10
-16.9340425341898
 20
-23.6815
 30
0.0
 11
-16.9340425341898
 21
-23.7815
 31
0.0
  0
LINE
  5
184
330
1F
100
AcDbEntity
  8
AM_9
100
AcDbLine
 10
-20.68595746581021
 20
-23.6815
 30
0.0
 11
-20.68595746581021
 21
-23.7815
 31
0.0
  0
LINE
  5
185
330
1F
100
AcDbEntity
  8
AM_9
100
AcDbLine
 10
-15.91595746581021
 20
-23.6815
 30
0.0
 11
-15.91595746581021
 21
-23.7815
 31
0.0
  0
LINE
  5
186
330
1F
100
AcDbEntity
  8
AM_9
100
AcDbLine
 10
-21.7040425341898
 20
-23.6815
 30
0.0
 11
-21.7040425341898
 21
-23.7815
 31
0.0
  0
LINE
  5
187
330
1F
100
AcDbEntity
  8
AM_9
100
AcDbLine
 10
-36.566
 20
-6.000429847769194
 30
0.0
 11
-36.646
 21
-6.000429847769194
 31
0.0
  0
LINE
  5
188
330
1F
100
AcDbEntity
  8
AM_9
100
AcDbLine
 10
-36.566
 20
-2.425570152230806
 30
0.0
 11
-36.646
 21
-2.425570152230806
 31
0.0
  0
LINE
  5
189
330
1F
100
AcDbEntity
  8
AM_9
100
AcDbLine
 10
22.527
 20
-23.8615
 30
0.0
 11
22.527
 21
-23.7815
 31
0.0
  0
LINE
  5
18A
330
1F
100
AcDbEntity
  8
AM_9
100
AcDbLine
 10
22.587
 20
-23.8615
 30
0.0
 11
22.587
 21
-23.7815
 31
0.0
  0
LINE
  5
18B
330
1F
100
AcDbEntity
  8
AM_9
100
AcDbLine
 10
27.467
 20
-23.8615
 30
0.0
 11
27.467
 21
-23.7815
 31
0.0
  0
LINE
  5
18C
330
1F
100
AcDbEntity
  8
AM_9
100
AcDbLine
 10
27.527
 20
-23.8615
 30
0.0
 11
27.527
 21
-23.7815
 31
0.0
  0
LINE
  5
18D
330
1F
100
AcDbEntity
  8
AM_9
100
AcDbLine
 10
-29.114
 20
-23.8615
 30
0.0
 11
-29.114
 21
-23.7815
 31
0.0
  0
LINE
  5
18E
330
1F
100
AcDbEntity
  8
AM_9
100
AcDbLine
 10
-32.114
 20
-23.8615
 30
0.0
 11
-32.114
 21
-23.7815
 31
0.0
  0
LINE
  5
18F
330
1F
100
AcDbEntity
  8
AM_9
100
AcDbLine
 10
-33.864
 20
-23.8615
 30
0.0
 11
-29.114
 21
-23.8615
 31
0.0
  0
LINE
  5
190
330
1F
100
AcDbEntity
  8
AM_9
100
AcDbLine
 10
34.19750000000001
 20
24.22043455417639
 30
0.0
 11
-5.795500000000002
 21
24.22043455417639
 31
0.0
  0
LINE
  5
191
330
1F
100
AcDbEntity
  8
AM_9
100
AcDbLine
 10
34.19750000000001
 20
23.78940030493303
 30
0.0
 11
-5.795500000000002
 21
23.78940030493303
 31
0.0
  0
LINE
  5
192
330
1F
100
AcDbEntity
  8
AM_0
100
AcDbLine
 10
-5.795500000000002
 20
24.22923440170988
 30
0.0
 11
-5.795500000000002
 21
24.0405
 31
0.0
  0
LINE
  5
193
330
1F
100
AcDbEntity
  8
AM_0
100
AcDbLine
 10
34.19750000000001
 20
24.22923440170988
 30
0.0
 11
34.19750000000001
 21
24.0405
 31
0.0
  0
LINE
  5
194
330
1F
100
AcDbEntity
  8
AM_0
100
AcDbLine
 10
34.19750000000001
 20
24.22923440170988
 30
0.0
 11
-5.795500000000002
 21
24.22923440170988
 31
0.0
  0
LINE
  5
195
330
1F
100
AcDbEntity
  8
AM_9
100
AcDbLine
 10
34.19750000000001
 20
23.7815
 30
0.0
 11
34.19750000000001
 21
24.0405
 31
0.0
  0
LINE
  5
196
330
1F
100
AcDbEntity
  8
AM_9
100
AcDbLine
 10
34.19750000000001
 20
23.79820015246651
 30
0.0
 11
-5.795500000000002
 21
23.79820015246651
 31
0.0
  0
LINE
  5
197
330
1F
100
AcDbEntity
  8
AM_9
100
AcDbLine
 10
-5.795500000000002
 20
23.7815
 30
0.0
 11
-5.795500000000002
 21
24.0405
 31
0.0
  0
LINE
  5
198
330
1F
100
AcDbEntity
  8
AM_9
100
AcDbLine
 10
18.089
 20
-23.8615
 30
0.0
 11
18.089
 21
-23.7815
 31
0.0
  0
LINE
  5
199
330
1F
100
AcDbEntity
  8
AM_9
100
AcDbLine
 10
15.089
 20
-23.8615
 30
0.0
 11
15.089
 21
-23.7815
 31
0.0
  0
LINE
  5
19A
330
1F
100
AcDbEntity
  8
AM_9
100
AcDbLine
 10
2.364
 20
23.8615
 30
0.0
 11
2.364000000000001
 21
23.7815
 31
0.0
  0
LINE
  5
19B
330
1F
100
AcDbEntity
  8
AM_9
100
AcDbLine
 10
5.364
 20
23.8615
 30
0.0
 11
5.363999999999999
 21
23.7815
 31
0.0
  0
LINE
  5
19C
330
1F
100
AcDbEntity
  8
AM_9
100
AcDbLine
 10
2.364
 20
23.8615
 30
0.0
 11
5.364
 21
23.8615
 31
0.0
  0
LINE
  5
19D
330
1F
100
AcDbEntity
  8
AM_9
100
AcDbLine
 10
36.76600000000001
 20
7.280999999999999
 30
0.0
 11
36.646
 21
7.280999999999997
 31
0.0
  0
LINE
  5
19E
330
1F
100
AcDbEntity
  8
AM_9
100
AcDbLine
 10
36.76600000000001
 20
19.281
 30
0.0
 11
36.76600000000001
 21
7.280999999999999
 31
0.0
  0
LINE
  5
19F
330
1F
100
AcDbEntity
  8
AM_9
100
AcDbLine
 10
36.76600000000001
 20
19.281
 30
0.0
 11
36.646
 21
19.28100000000001
 31
0.0
  0
LINE
  5
1A0
330
1F
100
AcDbEntity
  8
AM_9
100
AcDbLine
 10
-9.996
 20
-23.8615
 30
0.0
 11
-9.996
 21
-23.7815
 31
0.0
  0
LINE
  5
1A1
330
1F
100
AcDbEntity
  8
AM_9
100
AcDbLine
 10
-15.996
 20
-23.8615
 30
0.0
 11
-15.996
 21
-23.7815
 31
0.0
  0
LINE
  5
1A2
330
1F
100
AcDbEntity
  8
AM_9
100
AcDbLine
 10
-15.996
 20
-23.8615
 30
0.0
 11
-9.996
 21
-23.8615
 31
0.0
  0
LINE
  5
1A3
330
1F
100
AcDbEntity
  8
AM_9
100
AcDbLine
 10
-36.606
 20
-13.18
 30
0.0
 11
-36.646
 21
-13.18
 31
0.0
  0
LINE
  5
1A4
330
1F
100
AcDbEntity
  8
AM_9
100
AcDbLine
 10
-36.606
 20
-17.06
 30
0.0
 11
-36.646
 21
-17.06
 31
0.0
  0
LINE
  5
1A5
330
1F
100
AcDbEntity
  8
AM_9
100
AcDbLine
 10
-36.606
 20
-17.12
 30
0.0
 11
-36.646
 21
-17.12
 31
0.0
  0
LINE
  5
1A6
330
1F
100
AcDbEntity
  8
AM_9
100
AcDbLine
 10
-36.606
 20
-13.12
 30
0.0
 11
-36.646
 21
-13.12
 31
0.0
  0
LINE
  5
1A7
330
1F
100
AcDbEntity
  8
AM_9
100
AcDbLine
 10
-36.566
 20
-17.302
 30
0.0
 11
-36.646
 21
-17.302
 31
0.0
  0
LINE
  5
1A8
330
1F
100
AcDbEntity
  8
AM_9
100
AcDbLine
 10
-36.646
 20
-17.43
 30
0.0
 11
-36.566
 21
-17.43
 31
0.0
  0
LINE
  5
1A9
330
1F
100
AcDbEntity
  8
AM_9
100
AcDbLine
 10
-36.566
 20
-17.302
 30
0.0
 11
-36.566
 21
-17.43
 31
0.0
  0
LINE
  5
1AA
330
1F
100
AcDbEntity
  8
AM_9
100
AcDbLine
 10
-36.566
 20
-12.802
 30
0.0
 11
-36.646
 21
-12.802
 31
0.0
  0
LINE
  5
1AB
330
1F
100
AcDbEntity
  8
AM_9
100
AcDbLine
 10
-36.646
 20
-12.93
 30
0.0
 11
-36.566
 21
-12.93
 31
0.0
  0
LINE
  5
1AC
330
1F
100
AcDbEntity
  8
AM_9
100
AcDbLine
 10
-36.566
 20
-12.802
 30
0.0
 11
-36.566
 21
-12.93
 31
0.0
  0
LINE
  5
1AD
330
1F
100
AcDbEntity
  8
AM_9
100
AcDbLine
 10
-36.566
 20
-18.266
 30
0.0
 11
-36.646
 21
-18.266
 31
0.0
  0
LINE
  5
1AE
330
1F
100
AcDbEntity
  8
AM_9
100
AcDbLine
 10
-36.646
 20
-18.484
 30
0.0
 11
-36.566
 21
-18.484
 31
0.0
  0
LINE
  5
1AF
330
1F
100
AcDbEntity
  8
AM_9
100
AcDbLine
 10
-36.566
 20
-18.266
 30
0.0
 11
-36.566
 21
-18.484
 31
0.0
  0
LINE
  5
1B0
330
1F
100
AcDbEntity
  8
AM_9
100
AcDbLine
 10
-36.566
 20
-11.748
 30
0.0
 11
-36.646
 21
-11.748
 31
0.0
  0
LINE
  5
1B1
330
1F
100
AcDbEntity
  8
AM_9
100
AcDbLine
 10
-36.646
 20
-11.966
 30
0.0
 11
-36.566
 21
-11.966
 31
0.0
  0
LINE
  5
1B2
330
1F
100
AcDbEntity
  8
AM_9
100
AcDbLine
 10
-36.566
 20
-11.748
 30
0.0
 11
-36.566
 21
-11.966
 31
0.0
  0
LINE
  5
1B3
330
1F
100
AcDbEntity
  8
AM_9
100
AcDbLine
 10
-33.864
 20
-23.8615
 30
0.0
 11
-33.864
 21
-23.7815
 31
0.0
  0
LINE
  5
1B4
330
1F
100
AcDbEntity
  8
AM_9
100
AcDbLine
 10
-30.864
 20
-23.8615
 30
0.0
 11
-30.864
 21
-23.7815
 31
0.0
  0
LINE
  5
1B5
330
1F
100
AcDbEntity
  8
AM_9
100
AcDbLine
 10
-36.566
 20
-2.048
 30
0.0
 11
-36.646
 21
-2.048
 31
0.0
  0
LINE
  5
1B6
330
1F
100
AcDbEntity
  8
AM_9
100
AcDbLine
 10
-36.566
 20
-6.378000000000001
 30
0.0
 11
-36.646
 21
-6.378000000000001
 31
0.0
  0
LINE
  5
1B7
330
1F
100
AcDbEntity
  8
AM_9
100
AcDbLine
 10
-36.566
 20
-6.290207595655916
 30
0.0
 11
-36.646
 21
-6.290207595655916
 31
0.0
  0
LINE
  5
1B8
330
1F
100
AcDbEntity
  8
AM_9
100
AcDbLine
 10
-36.566
 20
-2.135792404344086
 30
0.0
 11
-36.646
 21
-2.135792404344086
 31
0.0
  0
LINE
  5
1B9
330
1F
100
AcDbEntity
  8
AM_9
100
AcDbLine
 10
-36.566
 20
-6.38
 30
0.0
 11
-36.646
 21
-6.38
 31
0.0
  0
LINE
  5
1BA
330
1F
100
AcDbEntity
  8
AM_9
100
AcDbLine
 10
-36.566
 20
-6.166261087286966
 30
0.0
 11
-36.646
 21
-6.166261087286966
 31
0.0
  0
LINE
  5
1BB
330
1F
100
AcDbEntity
  8
AM_9
100
AcDbLine
 10
-36.566
 20
-2.05
 30
0.0
 11
-36.646
 21
-2.05
 31
0.0
  0
LINE
  5
1BC
330
1F
100
AcDbEntity
  8
AM_9
100
AcDbLine
 10
-36.646
 20
-2.259738912713035
 30
0.0
 11
-36.566
 21
-2.259738912713035
 31
0.0
  0
LINE
  5
1BD
330
1F
100
AcDbEntity
  8
AM_9
100
AcDbLine
 10
-36.566
 20
-11.142
 30
0.0
 11
-36.646
 21
-11.142
 31
0.0
  0
LINE
  5
1BE
330
1F
100
AcDbEntity
  8
AM_9
100
AcDbLine
 10
-36.566
 20
-10.93026108728697
 30
0.0
 11
-36.646
 21
-10.93026108728697
 31
0.0
  0
LINE
  5
1BF
330
1F
100
AcDbEntity
  8
AM_9
100
AcDbLine
 10
-36.566
 20
-6.812
 30
0.0
 11
-36.646
 21
-6.812
 31
0.0
  0
LINE
  5
1C0
330
1F
100
AcDbEntity
  8
AM_9
100
AcDbLine
 10
-36.646
 20
-7.023738912713035
 30
0.0
 11
-36.566
 21
-7.023738912713035
 31
0.0
  0
LINE
  5
1C1
330
1F
100
AcDbEntity
  8
AM_9
100
AcDbLine
 10
-36.566
 20
-6.292207595655915
 30
0.0
 11
-36.646
 21
-6.292207595655915
 31
0.0
  0
LINE
  5
1C2
330
1F
100
AcDbEntity
  8
AM_9
100
AcDbLine
 10
-36.566
 20
-2.048
 30
0.0
 11
-36.566
 21
-6.38
 31
0.0
  0
LINE
  5
1C3
330
1F
100
AcDbEntity
  8
AM_9
100
AcDbLine
 10
-36.566
 20
-6.899792404344087
 30
0.0
 11
-36.646
 21
-6.899792404344087
 31
0.0
  0
LINE
  5
1C4
330
1F
100
AcDbEntity
  8
AM_9
100
AcDbLine
 10
-36.566
 20
-2.137792404344085
 30
0.0
 11
-36.646
 21
-2.137792404344085
 31
0.0
  0
LINE
  5
1C5
330
1F
100
AcDbEntity
  8
AM_9
100
AcDbLine
 10
-36.566
 20
-11.05420759565592
 30
0.0
 11
-36.646
 21
-11.05420759565592
 31
0.0
  0
LINE
  5
1C6
330
1F
100
AcDbEntity
  8
AM_9
100
AcDbLine
 10
-36.566
 20
-6.812
 30
0.0
 11
-36.566
 21
-11.142
 31
0.0
  0
LINE
  5
1C7
330
1F
100
AcDbEntity
  8
AM_9
100
AcDbLine
 10
-36.566
 20
-7.189570152230806
 30
0.0
 11
-36.646
 21
-7.189570152230806
 31
0.0
  0
LINE
  5
1C8
330
1F
100
AcDbEntity
  8
AM_9
100
AcDbLine
 10
-36.566
 20
-2.427570152230806
 30
0.0
 11
-36.646
 21
-2.427570152230806
 31
0.0
  0
LINE
  5
1C9
330
1F
100
AcDbEntity
  8
AM_9
100
AcDbLine
 10
-36.566
 20
-6.002429847769193
 30
0.0
 11
-36.646
 21
-6.002429847769193
 31
0.0
  0
LINE
  5
1CA
330
1F
100
AcDbEntity
  8
AM_9
100
AcDbLine
 10
-36.566
 20
-10.76442984776919
 30
0.0
 11
-36.646
 21
-10.76442984776919
 31
0.0
  0
LINE
  5
1CB
330
1F
100
AcDbEntity
  8
AM_9
100
AcDbLine
 10
36.61
 20
-24.00797308806542
 30
0.0
 11
-36.61
 21
-24.00797308806542
 31
0.0
  0
LINE
  5
1CC
330
1F
100
AcDbEntity
  8
AM_9
100
AcDbLine
 10
36.61
 20
24.00797308806542
 30
0.0
 11
-36.61
 21
24.00797308806542
 31
0.0
  0
LINE
  5
1CD
330
1F
100
AcDbEntity
  8
AM_9
100
AcDbLine
 10
-36.82297308806542
 20
23.795
 30
0.0
 11
-36.82297308806542
 21
-23.795
 31
0.0
  0
LINE
  5
1CE
330
1F
100
AcDbEntity
  8
AM_9
100
AcDbLine
 10
36.82297308806542
 20
23.795
 30
0.0
 11
36.82297308806542
 21
-23.795
 31
0.0
  0
LINE
  5
1CF
330
1F
100
AcDbEntity
  8
AM_9
100
AcDbLine
 10
-34.4
 20
-23.7015
 30
0.0
 11
-34.4
 21
-23.7815
 31
0.0
  0
LINE
  5
1D0
330
1F
100
AcDbEntity
  8
AM_9
100
AcDbLine
 10
-8.31
 20
-23.7015
 30
0.0
 11
-8.31
 21
-23.7815
 31
0.0
  0
LINE
  5
1D1
330
1F
100
AcDbEntity
  8
AM_9
100
AcDbLine
 10
-34.46
 20
-23.7015
 30
0.0
 11
-8.31
 21
-23.7015
 31
0.0
  0
LINE
  5
1D2
330
1F
100
AcDbEntity
  8
AM_9
100
AcDbLine
 10
-34.46
 20
-23.7015
 30
0.0
 11
-34.46
 21
-23.7815
 31
0.0
  0
LINE
  5
1D3
330
1F
100
AcDbEntity
  8
AM_9
100
AcDbLine
 10
-8.370000000000001
 20
-23.7015
 30
0.0
 11
-8.370000000000001
 21
-23.7815
 31
0.0
  0
LINE
  5
1D4
330
1F
100
AcDbEntity
  8
AM_9
100
AcDbLine
 10
-5.92
 20
-23.7015
 30
0.0
 11
-5.92
 21
-23.7815
 31
0.0
  0
LINE
  5
1D5
330
1F
100
AcDbEntity
  8
AM_9
100
AcDbLine
 10
-5.86
 20
-23.7015
 30
0.0
 11
-5.86
 21
-23.7815
 31
0.0
  0
LINE
  5
1D6
330
1F
100
AcDbEntity
  8
AM_9
100
AcDbLine
 10
34.33000000000001
 20
-23.7015
 30
0.0
 11
34.33000000000001
 21
-23.7815
 31
0.0
  0
LINE
  5
1D7
330
1F
100
AcDbEntity
  8
AM_9
100
AcDbLine
 10
-5.92
 20
-23.7015
 30
0.0
 11
-5.86
 21
-23.7015
 31
0.0
  0
LINE
  5
1D8
330
1F
100
AcDbEntity
  8
AM_9
100
AcDbLine
 10
34.27
 20
-23.7015
 30
0.0
 11
34.33000000000001
 21
-23.7015
 31
0.0
  0
LINE
  5
1D9
330
1F
100
AcDbEntity
  8
AM_9
100
AcDbLine
 10
34.27
 20
-23.7015
 30
0.0
 11
34.27
 21
-23.7815
 31
0.0
  0
LINE
  5
1DA
330
1F
100
AcDbEntity
  8
AM_0
100
AcDbLine
 10
36.61
 20
24.0405
 30
0.0
 11
-36.61
 21
24.0405
 31
0.0
  0
LINE
  5
1DB
330
1F
100
AcDbEntity
  8
AM_0
100
AcDbLine
 10
36.8555
 20
23.795
 30
0.0
 11
36.8555
 21
-23.795
 31
0.0
  0
LINE
  5
1DC
330
1F
100
AcDbEntity
  8
AM_0
100
AcDbLine
 10
-36.8555
 20
23.795
 30
0.0
 11
-36.8555
 21
-23.795
 31
0.0
  0
LINE
  5
1DD
330
1F
100
AcDbEntity
  8
AM_0
100
AcDbLine
 10
36.61
 20
-24.0405
 30
0.0
 11
-36.61
 21
-24.0405
 31
0.0
  0
LINE
  5
1DE
330
1F
100
AcDbEntity
  8
AM_9
100
AcDbLine
 10
36.61
 20
23.81244617613083
 30
0.0
 11
-36.61
 21
23.81244617613083
 31
0.0
  0
LINE
  5
1DF
330
1F
100
AcDbEntity
  8
AM_9
100
AcDbLine
 10
-33.03700000000001
 20
23.70799999999999
 30
0.0
 11
-33.03700000000001
 21
23.674
 31
0.0
  0
LINE
  5
1E0
330
1F
100
AcDbEntity
  8
AM_9
100
AcDbLine
 10
-35.98
 20
20.703
 30
0.0
 11
-36.599
 21
20.703
 31
0.0
  0
LINE
  5
1E1
330
1F
100
AcDbEntity
  8
AM_9
100
AcDbLine
 10
-33.03700000000001
 20
23.674
 30
0.0
 11
-33.62800000000001
 21
23.674
 31
0.0
  0
LINE
  5
1E2
330
1F
100
AcDbEntity
  8
AM_9
100
AcDbLine
 10
-33.66200000000001
 20
23.708
 30
0.0
 11
-33.03700000000001
 21
23.70799999999999
 31
0.0
  0
LINE
  5
1E3
330
1F
100
AcDbEntity
  8
AM_9
100
AcDbLine
 10
-36.6125
 20
20.737
 30
0.0
 11
-36.014
 21
20.737
 31
0.0
  0
LINE
  5
1E4
330
1F
100
AcDbEntity
  8
AM_9
100
AcDbLine
 10
-36.014
 20
21.42300000000001
 30
0.0
 11
-36.6125
 21
21.42300000000001
 31
0.0
  0
LINE
  5
1E5
330
1F
100
AcDbEntity
  8
AM_9
100
AcDbLine
 10
-36.014
 20
20.737
 30
0.0
 11
-36.014
 21
21.42300000000001
 31
0.0
  0
LINE
  5
1E6
330
1F
100
AcDbEntity
  8
AM_9
100
AcDbLine
 10
-36.62744617613082
 20
21.42300000000001
 30
0.0
 11
-36.62744617613082
 21
20.737
 31
0.0
  0
LINE
  5
1E7
330
1F
100
AcDbEntity
  8
AM_9
100
AcDbLine
 10
-36.599
 20
20.11199999999999
 30
0.0
 11
-36.6125
 21
20.11199999999999
 31
0.0
  0
LINE
  5
1E8
330
1F
100
AcDbEntity
  8
AM_9
100
AcDbLine
 10
36.61
 20
-23.81244617613084
 30
0.0
 11
-36.61
 21
-23.81244617613084
 31
0.0
  0
LINE
  5
1E9
330
1F
100
AcDbEntity
  8
AM_9
100
AcDbLine
 10
36.62744617613084
 20
-23.7815
 30
0.0
 11
36.62744617613084
 21
-23.795
 31
0.0
  0
LINE
  5
1EA
330
1F
100
AcDbEntity
  8
AM_9
100
AcDbLine
 10
-36.62744617613084
 20
-23.7815
 30
0.0
 11
-36.62744617613082
 21
-23.795
 31
0.0
  0
LINE
  5
1EB
330
1F
100
AcDbEntity
  8
AM_9
100
AcDbLine
 10
-36.61249999999999
 20
-23.7815
 30
0.0
 11
36.6125
 21
-23.7815
 31
0.0
  0
LINE
  5
1EC
330
1F
100
AcDbEntity
  8
AM_9
100
AcDbLine
 10
-36.62744617613082
 20
23.795
 30
0.0
 11
-36.62744617613084
 21
23.708
 31
0.0
  0
LINE
  5
1ED
330
1F
100
AcDbEntity
  8
AM_9
100
AcDbLine
 10
-36.62744617613082
 20
20.112
 30
0.0
 11
-36.62744617613082
 21
15.56231694021794
 31
0.0
  0
LINE
  5
1EE
330
1F
100
AcDbEntity
  8
AM_9
100
AcDbLine
 10
-36.599
 20
20.703
 30
0.0
 11
-36.599
 21
20.11199999999999
 31
0.0
  0
LINE
  5
1EF
330
1F
100
AcDbEntity
  8
AM_9
100
AcDbLine
 10
-36.6125
 20
23.708
 30
0.0
 11
-34.348
 21
23.70799999999999
 31
0.0
  0
LINE
  5
1F0
330
1F
100
AcDbEntity
  8
AM_9
100
AcDbLine
 10
-33.662
 20
23.089
 30
0.0
 11
-33.66200000000001
 21
23.708
 31
0.0
  0
LINE
  5
1F1
330
1F
100
AcDbEntity
  8
AM_9
100
AcDbLine
 10
-34.38200000000001
 20
23.055
 30
0.0
 11
-34.38200000000001
 21
23.674
 31
0.0
  0
ARC
  5
1F2
330
1F
100
AcDbEntity
  8
AM_9
100
AcDbCircle
 10
-27.856
 20
14.9915
 30
0.0
 40
8.790000000000003
100
AcDbArc
 50
90.00000000000009
 51
174.9961576000708
  0
LINE
  5
1F3
330
1F
100
AcDbEntity
  8
AM_9
100
AcDbLine
 10
-36.599
 20
21.45699999999999
 30
0.0
 11
-35.98
 21
21.457
 31
0.0
  0
LINE
  5
1F4
330
1F
100
AcDbEntity
  8
AM_9
100
AcDbLine
 10
-34.348
 20
23.70799999999999
 30
0.0
 11
-34.34800000000001
 21
23.089
 31
0.0
  0
LINE
  5
1F5
330
1F
100
AcDbEntity
  8
AM_9
100
AcDbLine
 10
-33.62800000000001
 20
23.674
 30
0.0
 11
-33.628
 21
23.05499999999999
 31
0.0
  0
LINE
  5
1F6
330
1F
100
AcDbEntity
  8
AM_9
100
AcDbLine
 10
-36.599
 20
23.674
 30
0.0
 11
-36.599
 21
21.45699999999999
 31
0.0
  0
LINE
  5
1F7
330
1F
100
AcDbEntity
  8
AM_9
100
AcDbLine
 10
-34.38200000000001
 20
23.674
 30
0.0
 11
-36.599
 21
23.674
 31
0.0
  0
LINE
  5
1F8
330
1F
100
AcDbEntity
  8
AM_9
100
AcDbLine
 10
-33.628
 20
23.05499999999999
 30
0.0
 11
-34.38200000000001
 21
23.055
 31
0.0
  0
LINE
  5
1F9
330
1F
100
AcDbEntity
  8
AM_9
100
AcDbLine
 10
-35.98
 20
21.457
 30
0.0
 11
-35.98
 21
20.703
 31
0.0
  0
LINE
  5
1FA
330
1F
100
AcDbEntity
  8
AM_9
100
AcDbLine
 10
-34.34800000000001
 20
23.089
 30
0.0
 11
-33.662
 21
23.089
 31
0.0
  0
LINE
  5
1FB
330
1F
100
AcDbEntity
  8
AM_9
100
AcDbLine
 10
36.62744617613084
 20
23.795
 30
0.0
 11
36.62744617613084
 21
23.7815
 31
0.0
  0
LINE
  5
1FC
330
1F
100
AcDbEntity
  8
AM_4
100
AcDbLine
 10
36.70245836943965
 20
23.795
 30
0.0
 11
36.70245836943965
 21
-23.795
 31
0.0
  0
LINE
  5
1FD
330
1F
100
AcDbEntity
  8
AM_4
100
AcDbLine
 10
-36.70245836943966
 20
23.795
 30
0.0
 11
-36.70245836943966
 21
-23.795
 31
0.0
  0
LINE
  5
1FE
330
1F
100
AcDbEntity
  8
AM_4
100
AcDbLine
 10
36.61
 20
23.88745836943966
 30
0.0
 11
-36.61
 21
23.88745836943966
 31
0.0
  0
LINE
  5
1FF
330
1F
100
AcDbEntity
  8
AM_4
100
AcDbLine
 10
36.61
 20
-23.88745836943966
 30
0.0
 11
-36.61
 21
-23.88745836943966
 31
0.0
  0
LINE
  5
200
330
1F
100
AcDbEntity
  8
AM_9
100
AcDbLine
 10
34.263
 20
23.7015
 30
0.0
 11
34.263
 21
23.7815
 31
0.0
  0
LINE
  5
201
330
1F
100
AcDbEntity
  8
AM_9
100
AcDbLine
 10
-5.925
 20
23.7015
 30
0.0
 11
-5.925
 21
23.7815
 31
0.0
  0
LINE
  5
202
330
1F
100
AcDbEntity
  8
AM_9
100
AcDbLine
 10
-5.865
 20
23.7015
 30
0.0
 11
-5.865
 21
23.7815
 31
0.0
  0
LINE
  5
203
330
1F
100
AcDbEntity
  8
AM_9
100
AcDbLine
 10
-5.925
 20
23.7015
 30
0.0
 11
34.323
 21
23.7015
 31
0.0
  0
LINE
  5
204
330
1F
100
AcDbEntity
  8
AM_9
100
AcDbLine
 10
34.323
 20
23.7015
 30
0.0
 11
34.323
 21
23.7815
 31
0.0
  0
LINE
  5
205
330
1F
100
AcDbEntity
  8
AM_0
100
AcDbLine
 10
-36.6925
 20
23.795
 30
0.0
 11
-36.6925
 21
-23.795
 31
0.0
  0
LINE
  5
206
330
1F
100
AcDbEntity
  8
AM_0
100
AcDbLine
 10
36.69250000000001
 20
23.795
 30
0.0
 11
36.69250000000001
 21
-23.795
 31
0.0
  0
LINE
  5
207
330
1F
100
AcDbEntity
  8
AM_0
100
AcDbLine
 10
36.61
 20
23.8775
 30
0.0
 11
-36.61
 21
23.8775
 31
0.0
  0
LINE
  5
208
330
1F
100
AcDbEntity
  8
AM_0
100
AcDbLine
 10
36.61
 20
-23.8775
 30
0.0
 11
-36.61
 21
-23.8775
 31
0.0
  0
LINE
  5
209
330
1F
100
AcDbEntity
  8
AM_0
100
AcDbLine
 10
-36.646
 20
-23.7815
 30
0.0
 11
-36.6125
 21
-23.7815
 31
0.0
  0
LINE
  5
20A
330
1F
100
AcDbEntity
  8
AM_0
100
AcDbLine
 10
36.6125
 20
-23.7815
 30
0.0
 11
36.646
 21
-23.7815
 31
0.0
  0
LINE
  5
20B
330
1F
100
AcDbEntity
  8
AM_0
100
AcDbLine
 10
-36.633
 20
21.42300000000001
 30
0.0
 11
-36.6125
 21
21.42300000000001
 31
0.0
  0
LINE
  5
20C
330
1F
100
AcDbEntity
  8
AM_4
100
AcDbLine
 10
-36.6125
 20
21.42300000000001
 30
0.0
 11
-36.6125
 21
20.737
 31
0.0
  0
LINE
  5
20D
330
1F
100
AcDbEntity
  8
AM_0
100
AcDbLine
 10
-36.6125
 20
20.737
 30
0.0
 11
-36.633
 21
20.737
 31
0.0
  0
LINE
  5
20E
330
1F
100
AcDbEntity
  8
AM_0
100
AcDbLine
 10
-36.633
 20
20.737
 30
0.0
 11
-36.633
 21
20.112
 31
0.0
  0
LINE
  5
20F
330
1F
100
AcDbEntity
  8
AM_0
100
AcDbLine
 10
-36.633
 20
20.112
 30
0.0
 11
-36.6125
 21
20.112
 31
0.0
  0
LINE
  5
210
330
1F
100
AcDbEntity
  8
AM_4
100
AcDbLine
 10
-36.6125
 20
20.112
 30
0.0
 11
-36.6125
 21
15.75818621351896
 31
0.0
  0
ARC
  5
211
330
1F
100
AcDbEntity
  8
AM_0
100
AcDbCircle
 10
-27.85600000000121
 20
14.99150000000004
 30
0.0
 40
8.789999999998788
100
AcDbArc
 50
174.9961576000704
 51
180.0000000000002
  0
LINE
  5
212
330
1F
100
AcDbEntity
  8
AM_0
100
AcDbLine
 10
-36.646
 20
14.9915
 30
0.0
 11
-36.646
 21
-23.7815
 31
0.0
  0
LINE
  5
213
330
1F
100
AcDbEntity
  8
AM_4
100
AcDbLine
 10
-36.6125
 20
-23.7815
 30
0.0
 11
-36.6125
 21
-23.795
 31
0.0
  0
LINE
  5
214
330
1F
100
AcDbEntity
  8
AM_0
100
AcDbLine
 10
-36.8555
 20
-23.795
 30
0.0
 11
-36.61
 21
-23.795
 31
0.0
  0
LINE
  5
215
330
1F
100
AcDbEntity
  8
AM_0
100
AcDbLine
 10
-36.61
 20
-23.795
 30
0.0
 11
-36.61
 21
-24.0405
 31
0.0
  0
LINE
  5
216
330
1F
100
AcDbEntity
  8
AM_4
100
AcDbLine
 10
36.61
 20
-23.7975
 30
0.0
 11
-36.61
 21
-23.7975
 31
0.0
  0
LINE
  5
217
330
1F
100
AcDbEntity
  8
AM_0
100
AcDbLine
 10
36.61
 20
-23.79499999999999
 30
0.0
 11
36.61
 21
-24.0405
 31
0.0
  0
LINE
  5
218
330
1F
100
AcDbEntity
  8
AM_0
100
AcDbLine
 10
36.61
 20
-23.79499999999999
 30
0.0
 11
36.8555
 21
-23.795
 31
0.0
  0
LINE
  5
219
330
1F
100
AcDbEntity
  8
AM_4
100
AcDbLine
 10
36.6125
 20
-23.7815
 30
0.0
 11
36.6125
 21
-23.795
 31
0.0
  0
LINE
  5
21A
330
1F
100
AcDbEntity
  8
AM_0
100
AcDbLine
 10
36.646
 20
-23.7815
 30
0.0
 11
36.646
 21
23.7815
 31
0.0
  0
LINE
  5
21B
330
1F
100
AcDbEntity
  8
AM_0
100
AcDbLine
 10
36.646
 20
23.7815
 30
0.0
 11
36.6125
 21
23.7815
 31
0.0
  0
LINE
  5
21C
330
1F
100
AcDbEntity
  8
AM_4
100
AcDbLine
 10
36.6125
 20
23.795
 30
0.0
 11
36.6125
 21
23.7815
 31
0.0
  0
LINE
  5
21D
330
1F
100
AcDbEntity
  8
AM_0
100
AcDbLine
 10
36.61
 20
23.795
 30
0.0
 11
36.8555
 21
23.795
 31
0.0
  0
LINE
  5
21E
330
1F
100
AcDbEntity
  8
AM_0
100
AcDbLine
 10
36.61
 20
24.0405
 30
0.0
 11
36.61
 21
23.795
 31
0.0
  0
LINE
  5
21F
330
1F
100
AcDbEntity
  8
AM_4
100
AcDbLine
 10
36.61
 20
23.7975
 30
0.0
 11
-36.61
 21
23.7975
 31
0.0
  0
LINE
  5
220
330
1F
100
AcDbEntity
  8
AM_0
100
AcDbLine
 10
-36.61
 20
24.0405
 30
0.0
 11
-36.61
 21
23.795
 31
0.0
  0
LINE
  5
221
330
1F
100
AcDbEntity
  8
AM_0
100
AcDbLine
 10
-36.8555
 20
23.795
 30
0.0
 11
-36.61
 21
23.795
 31
0.0
  0
LINE
  5
222
330
1F
100
AcDbEntity
  8
AM_4
100
AcDbLine
 10
-36.6125
 20
23.795
 30
0.0
 11
-36.6125
 21
23.708
 31
0.0
  0
LINE
  5
223
330
1F
100
AcDbEntity
  8
AM_0
100
AcDbLine
 10
-36.6125
 20
23.708
 30
0.0
 11
-36.633
 21
23.708
 31
0.0
  0
LINE
  5
224
330
1F
100
AcDbEntity
  8
AM_0
100
AcDbLine
 10
-36.633
 20
23.708
 30
0.0
 11
-36.633
 21
21.42300000000001
 31
0.0
  0
ARC
  5
225
330
1F
100
AcDbEntity
  8
AM_0
100
AcDbCircle
 10
-21.04999999999987
 20
7.808999999999859
 30
0.0
 40
11.72800000000017
100
AcDbArc
 50
105.764585234343
 51
164.235414765657
  0
ARC
  5
226
330
1F
100
AcDbEntity
  8
AM_0
100
AcDbCircle
 10
-21.04999999999998
 20
7.808999999999987
 30
0.0
 40
11.84800000000002
100
AcDbArc
 50
105.7568408393208
 51
164.2431591606793
  0
ARC
  5
227
330
1F
100
AcDbEntity
  8
AM_0
100
AcDbCircle
 10
-21.05
 20
7.808999999999992
 30
0.0
 40
11.72800000000002
100
AcDbArc
 50
165.7645852343426
 51
224.2354147656575
  0
ARC
  5
228
330
1F
100
AcDbEntity
  8
AM_0
100
AcDbCircle
 10
-21.04999999999989
 20
7.809000000000047
 30
0.0
 40
11.84800000000009
100
AcDbArc
 50
165.7568408393211
 51
224.2431591606791
  0
ARC
  5
229
330
1F
100
AcDbEntity
  8
AM_0
100
AcDbCircle
 10
-21.05000000000004
 20
7.808999999999834
 30
0.0
 40
11.72800000000015
100
AcDbArc
 50
45.764585234343
 51
104.2354147656571
  0
ARC
  5
22A
330
1F
100
AcDbEntity
  8
AM_0
100
AcDbCircle
 10
-21.04999999999999
 20
7.809000000000081
 30
0.0
 40
11.84799999999994
100
AcDbArc
 50
45.75684083932049
 51
104.2431591606794
  0
ARC
  5
22B
330
1F
100
AcDbEntity
  8
AM_0
100
AcDbCircle
 10
-21.05
 20
7.809000000000006
 30
0.0
 40
11.72800000000003
100
AcDbArc
 50
285.7645852343426
 51
344.2354147656574
  0
ARC
  5
22C
330
1F
100
AcDbEntity
  8
AM_0
100
AcDbCircle
 10
-21.04999999999998
 20
7.808999999999996
 30
0.0
 40
11.84799999999999
100
AcDbArc
 50
285.7568408393206
 51
344.2431591606793
  0
ARC
  5
22D
330
1F
100
AcDbEntity
  8
AM_0
100
AcDbCircle
 10
-21.04999999999999
 20
7.809000000000019
 30
0.0
 40
11.72800000000004
100
AcDbArc
 50
225.7645852343426
 51
284.2354147656574
  0
ARC
  5
22E
330
1F
100
AcDbEntity
  8
AM_0
100
AcDbCircle
 10
-21.05
 20
7.809000000000001
 30
0.0
 40
11.84800000000001
100
AcDbArc
 50
225.7568408393207
 51
284.2431591606792
  0
ARC
  5
22F
330
1F
100
AcDbEntity
  8
AM_0
100
AcDbCircle
 10
-21.05000000000001
 20
7.808999999999995
 30
0.0
 40
11.848
100
AcDbArc
 50
345.7568408393208
 51
44.24315916067926
  0
ARC
  5
230
330
1F
100
AcDbEntity
  8
AM_0
100
AcDbCircle
 10
-21.05000000000005
 20
7.808999999999998
 30
0.0
 40
11.72800000000004
100
AcDbArc
 50
345.7645852343426
 51
44.23541476565725
  0
ARC
  5
231
330
1F
100
AcDbEntity
  8
AM_0
100
AcDbCircle
 10
-21.04999999999999
 20
7.809000000000002
 30
0.0
 40
11.30099999999999
100
AcDbArc
 50
345.7934763402783
 51
44.20652365972173
  0
ARC
  5
232
330
1F
100
AcDbEntity
  8
AM_0
100
AcDbCircle
 10
-21.04999999999992
 20
7.808999999999997
 30
0.0
 40
11.18099999999995
100
AcDbArc
 50
345.8019928725073
 51
44.19800712749294
  0
ARC
  5
233
330
1F
100
AcDbEntity
  8
AM_0
100
AcDbCircle
 10
-21.05
 20
7.809000000000106
 30
0.0
 40
11.30099999999992
100
AcDbArc
 50
45.79347634027793
 51
104.2065236597219
  0
ARC
  5
234
330
1F
100
AcDbEntity
  8
AM_0
100
AcDbCircle
 10
-21.05
 20
7.809000000000022
 30
0.0
 40
11.18099999999998
100
AcDbArc
 50
45.8019928725073
 51
104.1980071274927
  0
ARC
  5
235
330
1F
100
AcDbEntity
  8
AM_0
100
AcDbCircle
 10
-21.04999999999998
 20
7.808999999999978
 30
0.0
 40
11.30100000000003
100
AcDbArc
 50
105.7934763402784
 51
164.2065236597217
  0
ARC
  5
236
330
1F
100
AcDbEntity
  8
AM_0
100
AcDbCircle
 10
-21.04999999999987
 20
7.808999999999855
 30
0.0
 40
11.18100000000017
100
AcDbArc
 50
105.8019928725078
 51
164.1980071274921
  0
ARC
  5
237
330
1F
100
AcDbEntity
  8
AM_0
100
AcDbCircle
 10
-21.05000000000002
 20
7.808999999999996
 30
0.0
 40
11.18099999999996
100
AcDbArc
 50
165.8019928725074
 51
224.1980071274927
  0
ARC
  5
238
330
1F
100
AcDbEntity
  8
AM_0
100
AcDbCircle
 10
-21.04999999999996
 20
7.809000000000008
 30
0.0
 40
11.30100000000005
100
AcDbArc
 50
165.7934763402784
 51
224.2065236597216
  0
ARC
  5
239
330
1F
100
AcDbEntity
  8
AM_0
100
AcDbCircle
 10
-21.05
 20
7.809000000000003
 30
0.0
 40
11.18100000000003
100
AcDbArc
 50
225.8019928725074
 51
284.1980071274926
  0
ARC
  5
23A
330
1F
100
AcDbEntity
  8
AM_0
100
AcDbCircle
 10
-21.04999999999999
 20
7.809000000000081
 30
0.0
 40
11.30100000000006
100
AcDbArc
 50
225.7934763402786
 51
284.2065236597216
  0
ARC
  5
23B
330
1F
100
AcDbEntity
  8
AM_0
100
AcDbCircle
 10
-21.05
 20
7.80900000000001
 30
0.0
 40
11.18100000000001
100
AcDbArc
 50
285.8019928725075
 51
344.1980071274925
  0
ARC
  5
23C
330
1F
100
AcDbEntity
  8
AM_0
100
AcDbCircle
 10
-21.04999999999988
 20
7.808999999999938
 30
0.0
 40
11.30099999999991
100
AcDbArc
 50
285.7934763402778
 51
344.2065236597218
  0
ARC
  5
23D
330
1F
100
AcDbEntity
  8
AM_0
100
AcDbCircle
 10
-21.04999999999997
 20
7.809000000000124
 30
0.0
 40
10.61099999999989
100
AcDbArc
 50
45.8450772419422
 51
104.1549227580578
  0
ARC
  5
23E
330
1F
100
AcDbEntity
  8
AM_0
100
AcDbCircle
 10
-21.05
 20
7.809000000000049
 30
0.0
 40
10.73099999999996
100
AcDbArc
 50
45.83562644514582
 51
104.1643735548541
  0
ARC
  5
23F
330
1F
100
AcDbEntity
  8
AM_0
100
AcDbCircle
 10
-21.05000000000001
 20
7.809000000000002
 30
0.0
 40
10.61100000000001
100
AcDbArc
 50
165.8450772419426
 51
224.1549227580575
  0
ARC
  5
240
330
1F
100
AcDbEntity
  8
AM_0
100
AcDbCircle
 10
-21.04999999999997
 20
7.80900000000002
 30
0.0
 40
10.73100000000002
100
AcDbArc
 50
165.8356264451462
 51
224.164373554854
  0
ARC
  5
241
330
1F
100
AcDbEntity
  8
AM_0
100
AcDbCircle
 10
-21.05000000000006
 20
7.808999999999997
 30
0.0
 40
10.61100000000005
100
AcDbArc
 50
345.8450772419427
 51
44.15492275805722
  0
ARC
  5
242
330
1F
100
AcDbEntity
  8
AM_0
100
AcDbCircle
 10
-21.04999999999999
 20
7.809000000000003
 30
0.0
 40
10.73099999999999
100
AcDbArc
 50
345.835626445146
 51
44.16437355485404
  0
ARC
  5
243
330
1F
100
AcDbEntity
  8
AM_0
100
AcDbCircle
 10
-21.05
 20
7.808999999999985
 30
0.0
 40
10.61099999999998
100
AcDbArc
 50
225.8450772419425
 51
284.1549227580575
  0
ARC
  5
244
330
1F
100
AcDbEntity
  8
AM_0
100
AcDbCircle
 10
-21.04999999999999
 20
7.808999999999983
 30
0.0
 40
10.73099999999999
100
AcDbArc
 50
225.8356264451459
 51
284.164373554854
  0
ARC
  5
245
330
1F
100
AcDbEntity
  8
AM_0
100
AcDbCircle
 10
-21.05
 20
7.808999999999994
 30
0.0
 40
10.731
100
AcDbArc
 50
105.835626445146
 51
164.164373554854
  0
ARC
  5
246
330
1F
100
AcDbEntity
  8
AM_0
100
AcDbCircle
 10
-21.0499999999999
 20
7.808999999999905
 30
0.0
 40
10.61100000000012
100
AcDbArc
 50
105.8450772419429
 51
164.1549227580571
  0
ARC
  5
247
330
1F
100
AcDbEntity
  8
AM_0
100
AcDbCircle
 10
-21.05000000000001
 20
7.809000000000013
 30
0.0
 40
10.61100000000002
100
AcDbArc
 50
285.8450772419426
 51
344.1549227580574
  0
ARC
  5
248
330
1F
100
AcDbEntity
  8
AM_0
100
AcDbCircle
 10
-21.05000000000007
 20
7.809000000000051
 30
0.0
 40
10.73100000000007
100
AcDbArc
 50
285.8356264451463
 51
344.1643735548539
  0
ARC
  5
249
330
1F
100
AcDbEntity
  8
AM_0
100
AcDbCircle
 10
-21.04999999999999
 20
7.809000000000002
 30
0.0
 40
10.05400000000002
100
AcDbArc
 50
165.8918989098923
 51
224.1081010901078
  0
ARC
  5
24A
330
1F
100
AcDbEntity
  8
AM_0
100
AcDbCircle
 10
-21.04999999999998
 20
7.809000000000005
 30
0.0
 40
10.17400000000002
100
AcDbArc
 50
165.8813783316954
 51
224.1186216683047
  0
ARC
  5
24B
330
1F
100
AcDbEntity
  8
AM_0
100
AcDbCircle
 10
-21.04999999999997
 20
7.809000000000102
 30
0.0
 40
10.05399999999991
100
AcDbArc
 50
45.89189890989192
 51
104.1081010901081
  0
ARC
  5
24C
330
1F
100
AcDbEntity
  8
AM_0
100
AcDbCircle
 10
-21.05
 20
7.809000000000058
 30
0.0
 40
10.17399999999996
100
AcDbArc
 50
45.88137833169508
 51
104.1186216683048
  0
ARC
  5
24D
330
1F
100
AcDbEntity
  8
AM_0
100
AcDbCircle
 10
-21.04999999999999
 20
7.809000000000035
 30
0.0
 40
10.05400000000004
100
AcDbArc
 50
225.8918989098923
 51
284.1081010901077
  0
ARC
  5
24E
330
1F
100
AcDbEntity
  8
AM_0
100
AcDbCircle
 10
-21.05
 20
7.808999999999922
 30
0.0
 40
10.17399999999995
100
AcDbArc
 50
225.881378331695
 51
284.1186216683047
  0
ARC
  5
24F
330
1F
100
AcDbEntity
  8
AM_0
100
AcDbCircle
 10
-21.05
 20
7.809000000000003
 30
0.0
 40
10.05399999999999
100
AcDbArc
 50
285.8918989098922
 51
344.1081010901078
  0
ARC
  5
250
330
1F
100
AcDbEntity
  8
AM_0
100
AcDbCircle
 10
-21.04999999999995
 20
7.808999999999974
 30
0.0
 40
10.17399999999996
100
AcDbArc
 50
285.881378331695
 51
344.1186216683047
  0
ARC
  5
251
330
1F
100
AcDbEntity
  8
AM_0
100
AcDbCircle
 10
-21.05000000000001
 20
7.808999999999994
 30
0.0
 40
10.17400000000004
100
AcDbArc
 50
345.8813783316953
 51
44.11862166830468
  0
ARC
  5
252
330
1F
100
AcDbEntity
  8
AM_0
100
AcDbCircle
 10
-21.05000000000002
 20
7.809000000000001
 30
0.0
 40
10.05400000000001
100
AcDbArc
 50
345.8918989098922
 51
44.10810109010771
  0
ARC
  5
253
330
1F
100
AcDbEntity
  8
AM_0
100
AcDbCircle
 10
-21.04999999999988
 20
7.808999999999862
 30
0.0
 40
10.05400000000016
100
AcDbArc
 50
105.8918989098927
 51
164.1081010901073
  0
ARC
  5
254
330
1F
100
AcDbEntity
  8
AM_0
100
AcDbCircle
 10
-21.04999999999993
 20
7.808999999999946
 30
0.0
 40
10.17400000000008
100
AcDbArc
 50
105.8813783316957
 51
164.1186216683045
  0
ARC
  5
255
330
1F
100
AcDbEntity
  8
AM_0
100
AcDbCircle
 10
-21.05000000000001
 20
7.809000000000005
 30
0.0
 40
9.615999999999993
100
AcDbArc
 50
105.9325275984081
 51
164.067472401592
  0
ARC
  5
256
330
1F
100
AcDbEntity
  8
AM_0
100
AcDbCircle
 10
-21.05000000000006
 20
7.809000000000057
 30
0.0
 40
9.49599999999993
100
AcDbArc
 50
105.9443129166438
 51
164.0556870833563
  0
ARC
  5
257
330
1F
100
AcDbEntity
  8
AM_0
100
AcDbCircle
 10
-21.04999999999999
 20
7.808999999999997
 30
0.0
 40
9.496000000000002
100
AcDbArc
 50
225.944312916644
 51
284.055687083356
  0
ARC
  5
258
330
1F
100
AcDbEntity
  8
AM_0
100
AcDbCircle
 10
-21.05
 20
7.808999999999994
 30
0.0
 40
9.61599999999999
100
AcDbArc
 50
225.932527598408
 51
284.0674724015919
  0
ARC
  5
259
330
1F
100
AcDbEntity
  8
AM_0
100
AcDbCircle
 10
-21.05000000000002
 20
7.808999999999997
 30
0.0
 40
9.495999999999968
100
AcDbArc
 50
165.944312916644
 51
224.0556870833562
  0
ARC
  5
25A
330
1F
100
AcDbEntity
  8
AM_0
100
AcDbCircle
 10
-21.04999999999998
 20
7.809000000000007
 30
0.0
 40
9.616000000000028
100
AcDbArc
 50
165.9325275984082
 51
224.0674724015919
  0
ARC
  5
25B
330
1F
100
AcDbEntity
  8
AM_0
100
AcDbCircle
 10
-21.05
 20
7.809000000000003
 30
0.0
 40
9.495999999999993
100
AcDbArc
 50
285.944312916644
 51
344.055687083356
  0
ARC
  5
25C
330
1F
100
AcDbEntity
  8
AM_0
100
AcDbCircle
 10
-21.04999999999999
 20
7.808999999999999
 30
0.0
 40
9.615999999999996
100
AcDbArc
 50
285.9325275984081
 51
344.067472401592
  0
ARC
  5
25D
330
1F
100
AcDbEntity
  8
AM_0
100
AcDbCircle
 10
-21.05000000000009
 20
7.808999999999997
 30
0.0
 40
9.496000000000068
100
AcDbArc
 50
345.9443129166441
 51
44.05568708335569
  0
ARC
  5
25E
330
1F
100
AcDbEntity
  8
AM_0
100
AcDbCircle
 10
-21.05000000000001
 20
7.808999999999996
 30
0.0
 40
9.616000000000023
100
AcDbArc
 50
345.9325275984081
 51
44.06747240159192
  0
ARC
  5
25F
330
1F
100
AcDbEntity
  8
AM_0
100
AcDbCircle
 10
-21.04999999999999
 20
7.809000000000054
 30
0.0
 40
9.615999999999953
100
AcDbArc
 50
45.93252759840789
 51
104.067472401592
  0
ARC
  5
260
330
1F
100
AcDbEntity
  8
AM_0
100
AcDbCircle
 10
-21.05000000000001
 20
7.808999999999981
 30
0.0
 40
9.496000000000018
100
AcDbArc
 50
45.94431291664401
 51
104.0556870833559
  0
ARC
  5
261
330
1F
100
AcDbEntity
  8
AM_0
100
AcDbCircle
 10
-21.04999999999999
 20
7.809000000000015
 30
0.0
 40
8.939000000000007
100
AcDbArc
 50
226.0031600438452
 51
283.9968399561548
  0
ARC
  5
262
330
1F
100
AcDbEntity
  8
AM_0
100
AcDbCircle
 10
-21.04999999999999
 20
7.808999999999965
 30
0.0
 40
9.058999999999976
100
AcDbArc
 50
225.9898703580141
 51
284.0101296419855
  0
ARC
  5
263
330
1F
100
AcDbEntity
  8
AM_0
100
AcDbCircle
 10
-21.05000000000001
 20
7.809000000000002
 30
0.0
 40
9.058999999999985
100
AcDbArc
 50
345.9898703580144
 51
44.01012964198558
  0
ARC
  5
264
330
1F
100
AcDbEntity
  8
AM_0
100
AcDbCircle
 10
-21.05000000000011
 20
7.80899999999999
 30
0.0
 40
8.93900000000009
100
AcDbArc
 50
346.0031600438454
 51
43.99683995615442
  0
ARC
  5
265
330
1F
100
AcDbEntity
  8
AM_0
100
AcDbCircle
 10
-21.04999999999999
 20
7.808999999999998
 30
0.0
 40
8.939
100
AcDbArc
 50
166.0031600438452
 51
223.9968399561548
  0
ARC
  5
266
330
1F
100
AcDbEntity
  8
AM_0
100
AcDbCircle
 10
-21.04999999999992
 20
7.809000000000051
 30
0.0
 40
9.059000000000065
100
AcDbArc
 50
165.9898703580148
 51
224.0101296419855
  0
ARC
  5
267
330
1F
100
AcDbEntity
  8
AM_0
100
AcDbCircle
 10
-21.04999999999999
 20
7.808999999999992
 30
0.0
 40
8.93899999999998
100
AcDbArc
 50
286.0031600438451
 51
343.9968399561549
  0
ARC
  5
268
330
1F
100
AcDbEntity
  8
AM_0
100
AcDbCircle
 10
-21.05000000000005
 20
7.809000000000034
 30
0.0
 40
9.059000000000045
100
AcDbArc
 50
285.9898703580146
 51
344.0101296419855
  0
ARC
  5
269
330
1F
100
AcDbEntity
  8
AM_0
100
AcDbCircle
 10
-21.04999999999998
 20
7.809000000000105
 30
0.0
 40
8.93899999999991
100
AcDbArc
 50
46.00316004384475
 51
103.9968399561551
  0
ARC
  5
26A
330
1F
100
AcDbEntity
  8
AM_0
100
AcDbCircle
 10
-21.05
 20
7.809000000000008
 30
0.0
 40
9.05899999999999
100
AcDbArc
 50
45.98987035801434
 51
104.0101296419857
  0
ARC
  5
26B
330
1F
100
AcDbEntity
  8
AM_0
100
AcDbCircle
 10
-21.04999999999996
 20
7.808999999999977
 30
0.0
 40
9.059000000000035
100
AcDbArc
 50
105.9898703580146
 51
164.0101296419856
  0
ARC
  5
26C
330
1F
100
AcDbEntity
  8
AM_0
100
AcDbCircle
 10
-21.04999999999982
 20
7.808999999999827
 30
0.0
 40
8.939000000000219
100
AcDbArc
 50
106.0031600438459
 51
163.9968399561542
  0
ARC
  5
26D
330
1F
100
AcDbEntity
  8
AM_0
100
AcDbCircle
 10
-21.05000000000002
 20
7.808999999999993
 30
0.0
 40
8.380999999999984
100
AcDbArc
 50
166.0699571265438
 51
223.9300428734562
  0
ARC
  5
26E
330
1F
100
AcDbEntity
  8
AM_0
100
AcDbCircle
 10
-21.04999999999995
 20
7.809000000000032
 30
0.0
 40
8.501000000000044
100
AcDbArc
 50
166.0548519074396
 51
223.9451480925607
  0
ARC
  5
26F
330
1F
100
AcDbEntity
  8
AM_0
100
AcDbCircle
 10
-21.05
 20
7.809000000000005
 30
0.0
 40
8.381000000000004
100
AcDbArc
 50
226.0699571265439
 51
283.9300428734561
  0
ARC
  5
270
330
1F
100
AcDbEntity
  8
AM_0
100
AcDbCircle
 10
-21.05
 20
7.808999999999977
 30
0.0
 40
8.500999999999985
100
AcDbArc
 50
226.0548519074391
 51
283.9451480925608
  0
ARC
  5
271
330
1F
100
AcDbEntity
  8
AM_0
100
AcDbCircle
 10
-21.05
 20
7.809000000000077
 30
0.0
 40
8.500999999999943
100
AcDbArc
 50
46.05485190743889
 51
103.9451480925609
  0
ARC
  5
272
330
1F
100
AcDbEntity
  8
AM_0
100
AcDbCircle
 10
-21.05
 20
7.808999999999985
 30
0.0
 40
8.381000000000014
100
AcDbArc
 50
46.06995712654395
 51
103.9300428734562
  0
ARC
  5
273
330
1F
100
AcDbEntity
  8
AM_0
100
AcDbCircle
 10
-21.0499999999999
 20
7.808999999999936
 30
0.0
 40
8.50100000000009
100
AcDbArc
 50
106.0548519074397
 51
163.9451480925605
  0
ARC
  5
274
330
1F
100
AcDbEntity
  8
AM_0
100
AcDbCircle
 10
-21.04999999999984
 20
7.808999999999845
 30
0.0
 40
8.381000000000192
100
AcDbArc
 50
106.0699571265446
 51
163.9300428734555
  0
ARC
  5
275
330
1F
100
AcDbEntity
  8
AM_0
100
AcDbCircle
 10
-21.05
 20
7.809000000000001
 30
0.0
 40
8.380999999999988
100
AcDbArc
 50
286.0699571265438
 51
343.9300428734562
  0
ARC
  5
276
330
1F
100
AcDbEntity
  8
AM_0
100
AcDbCircle
 10
-21.05000000000002
 20
7.809000000000021
 30
0.0
 40
8.501000000000026
100
AcDbArc
 50
286.0548519074393
 51
343.9451480925607
  0
ARC
  5
277
330
1F
100
AcDbEntity
  8
AM_0
100
AcDbCircle
 10
-21.05
 20
7.808999999999998
 30
0.0
 40
8.50100000000002
100
AcDbArc
 50
346.0548519074392
 51
43.94514809256076
  0
ARC
  5
278
330
1F
100
AcDbEntity
  8
AM_0
100
AcDbCircle
 10
-21.05000000000003
 20
7.809000000000005
 30
0.0
 40
8.38100000000002
100
AcDbArc
 50
346.0699571265439
 51
43.93004287345598
  0
ARC
  5
279
330
1F
100
AcDbEntity
  8
AM_0
100
AcDbCircle
 10
-21.04999999999995
 20
7.808999999999997
 30
0.0
 40
7.822999999999971
100
AcDbArc
 50
346.1462850176653
 51
43.85371498233495
  0
ARC
  5
27A
330
1F
100
AcDbEntity
  8
AM_0
100
AcDbCircle
 10
-21.05
 20
7.809000000000003
 30
0.0
 40
7.943000000000001
100
AcDbArc
 50
346.1289650952826
 51
43.87103490471736
  0
ARC
  5
27B
330
1F
100
AcDbEntity
  8
AM_0
100
AcDbCircle
 10
-21.05
 20
7.809000000000003
 30
0.0
 40
7.823000000000005
100
AcDbArc
 50
286.1462850176653
 51
343.8537149823347
  0
ARC
  5
27C
330
1F
100
AcDbEntity
  8
AM_0
100
AcDbCircle
 10
-21.04999999999999
 20
7.808999999999998
 30
0.0
 40
7.942999999999991
100
AcDbArc
 50
286.1289650952825
 51
343.8710349047174
  0
ARC
  5
27D
330
1F
100
AcDbEntity
  8
AM_0
100
AcDbCircle
 10
-21.05
 20
7.809000000000003
 30
0.0
 40
7.823000000000014
100
AcDbArc
 50
226.1462850176653
 51
283.8537149823347
  0
ARC
  5
27E
330
1F
100
AcDbEntity
  8
AM_0
100
AcDbCircle
 10
-21.05
 20
7.809000000000041
 30
0.0
 40
7.943000000000029
100
AcDbArc
 50
226.1289650952828
 51
283.8710349047172
  0
ARC
  5
27F
330
1F
100
AcDbEntity
  8
AM_0
100
AcDbCircle
 10
-21.04999999999999
 20
7.808999999999999
 30
0.0
 40
7.823000000000016
100
AcDbArc
 50
166.1462850176653
 51
223.8537149823347
  0
ARC
  5
280
330
1F
100
AcDbEntity
  8
AM_0
100
AcDbCircle
 10
-21.04999999999996
 20
7.809000000000016
 30
0.0
 40
7.943000000000032
100
AcDbArc
 50
166.1289650952828
 51
223.8710349047173
  0
ARC
  5
281
330
1F
100
AcDbEntity
  8
AM_0
100
AcDbCircle
 10
-21.04999999999999
 20
7.809000000000045
 30
0.0
 40
7.942999999999963
100
AcDbArc
 50
46.12896509528245
 51
103.8710349047175
  0
ARC
  5
282
330
1F
100
AcDbEntity
  8
AM_0
100
AcDbCircle
 10
-21.04999999999998
 20
7.809000000000066
 30
0.0
 40
7.822999999999936
100
AcDbArc
 50
46.14628501766506
 51
103.853714982335
  0
ARC
  5
283
330
1F
100
AcDbEntity
  8
AM_0
100
AcDbCircle
 10
-21.04999999999995
 20
7.808999999999945
 30
0.0
 40
7.823000000000067
100
AcDbArc
 50
106.1462850176656
 51
163.8537149823345
  0
ARC
  5
284
330
1F
100
AcDbEntity
  8
AM_0
100
AcDbCircle
 10
-21.04999999999989
 20
7.808999999999934
 30
0.0
 40
7.943000000000097
100
AcDbArc
 50
106.1289650952833
 51
163.8710349047172
  0
ARC
  5
285
330
1F
100
AcDbEntity
  8
AM_0
100
AcDbCircle
 10
-21.04999999999997
 20
7.808999999999997
 30
0.0
 40
7.265999999999984
100
AcDbArc
 50
346.2341705123089
 51
43.76582948769127
  0
ARC
  5
286
330
1F
100
AcDbEntity
  8
AM_0
100
AcDbCircle
 10
-21.04999999999998
 20
7.809000000000001
 30
0.0
 40
7.385999999999985
100
AcDbArc
 50
346.2141159745611
 51
43.78588402543891
  0
ARC
  5
287
330
1F
100
AcDbEntity
  8
AM_0
100
AcDbCircle
 10
-21.05
 20
7.809000000000005
 30
0.0
 40
7.265999999999996
100
AcDbArc
 50
106.2341705123089
 51
163.7658294876912
  0
ARC
  5
288
330
1F
100
AcDbEntity
  8
AM_0
100
AcDbCircle
 10
-21.05000000000005
 20
7.809000000000028
 30
0.0
 40
7.385999999999957
100
AcDbArc
 50
106.2141159745609
 51
163.7858840254389
  0
ARC
  5
289
330
1F
100
AcDbEntity
  8
AM_0
100
AcDbCircle
 10
-21.04999999999996
 20
7.80900000000017
 30
0.0
 40
7.265999999999847
100
AcDbArc
 50
46.2341705123082
 51
103.7658294876917
  0
ARC
  5
28A
330
1F
100
AcDbEntity
  8
AM_0
100
AcDbCircle
 10
-21.05
 20
7.809000000000021
 30
0.0
 40
7.385999999999982
100
AcDbArc
 50
46.21411597456108
 51
103.7858840254388
  0
ARC
  5
28B
330
1F
100
AcDbEntity
  8
AM_0
100
AcDbCircle
 10
-21.05
 20
7.808999999999982
 30
0.0
 40
7.26599999999999
100
AcDbArc
 50
226.2341705123088
 51
283.7658294876911
  0
ARC
  5
28C
330
1F
100
AcDbEntity
  8
AM_0
100
AcDbCircle
 10
-21.05
 20
7.808999999999979
 30
0.0
 40
7.385999999999983
100
AcDbArc
 50
226.2141159745611
 51
283.7858840254389
  0
ARC
  5
28D
330
1F
100
AcDbEntity
  8
AM_0
100
AcDbCircle
 10
-21.05000000000001
 20
7.809000000000008
 30
0.0
 40
7.265999999999989
100
AcDbArc
 50
286.234170512309
 51
343.7658294876911
  0
ARC
  5
28E
330
1F
100
AcDbEntity
  8
AM_0
100
AcDbCircle
 10
-21.04999999999993
 20
7.80899999999996
 30
0.0
 40
7.385999999999941
100
AcDbArc
 50
286.2141159745607
 51
343.7858840254389
  0
ARC
  5
28F
330
1F
100
AcDbEntity
  8
AM_0
100
AcDbCircle
 10
-21.05
 20
7.808999999999996
 30
0.0
 40
7.265999999999975
100
AcDbArc
 50
166.2341705123089
 51
223.7658294876911
  0
ARC
  5
290
330
1F
100
AcDbEntity
  8
AM_0
100
AcDbCircle
 10
-21.05000000000003
 20
7.808999999999975
 30
0.0
 40
7.385999999999983
100
AcDbArc
 50
166.214115974561
 51
223.7858840254388
  0
ARC
  5
291
330
1F
100
AcDbEntity
  8
AM_0
100
AcDbCircle
 10
-21.05000000000008
 20
7.809000000000076
 30
0.0
 40
6.707999999999902
100
AcDbArc
 50
106.3368519884169
 51
163.6631480115831
  0
ARC
  5
292
330
1F
100
AcDbEntity
  8
AM_0
100
AcDbCircle
 10
-21.05
 20
7.808999999999996
 30
0.0
 40
6.828000000000004
100
AcDbArc
 50
106.3133530731994
 51
163.6866469268006
  0
ARC
  5
293
330
1F
100
AcDbEntity
  8
AM_0
100
AcDbCircle
 10
-21.05
 20
7.809000000000045
 30
0.0
 40
6.827999999999968
100
AcDbArc
 50
46.31335307319914
 51
103.6866469268007
  0
ARC
  5
294
330
1F
100
AcDbEntity
  8
AM_0
100
AcDbCircle
 10
-21.04999999999999
 20
7.809000000000039
 30
0.0
 40
6.707999999999966
100
AcDbArc
 50
46.33685198841712
 51
103.6631480115828
  0
ARC
  5
295
330
1F
100
AcDbEntity
  8
AM_0
100
AcDbCircle
 10
-21.05
 20
7.809
 30
0.0
 40
6.82800000000001
100
AcDbArc
 50
346.3133530731994
 51
43.68664692680061
  0
ARC
  5
296
330
1F
100
AcDbEntity
  8
AM_0
100
AcDbCircle
 10
-21.05
 20
7.809000000000002
 30
0.0
 40
6.708000000000006
100
AcDbArc
 50
346.3368519884173
 51
43.66314801158264
  0
ARC
  5
297
330
1F
100
AcDbEntity
  8
AM_0
100
AcDbCircle
 10
-21.04999999999997
 20
7.809000000000007
 30
0.0
 40
6.707999999999999
100
AcDbArc
 50
166.3368519884175
 51
223.6631480115825
  0
ARC
  5
298
330
1F
100
AcDbEntity
  8
AM_0
100
AcDbCircle
 10
-21.05000000000007
 20
7.808999999999953
 30
0.0
 40
6.827999999999941
100
AcDbArc
 50
166.3133530731989
 51
223.6866469268007
  0
ARC
  5
299
330
1F
100
AcDbEntity
  8
AM_0
100
AcDbCircle
 10
-21.04999999999998
 20
7.808999999999989
 30
0.0
 40
6.707999999999973
100
AcDbArc
 50
286.3368519884172
 51
343.6631480115827
  0
ARC
  5
29A
330
1F
100
AcDbEntity
  8
AM_0
100
AcDbCircle
 10
-21.04999999999988
 20
7.808999999999931
 30
0.0
 40
6.827999999999898
100
AcDbArc
 50
286.3133530731985
 51
343.6866469268009
  0
ARC
  5
29B
330
1F
100
AcDbEntity
  8
AM_0
100
AcDbCircle
 10
-21.05
 20
7.808999999999998
 30
0.0
 40
6.707999999999994
100
AcDbArc
 50
226.3368519884173
 51
283.6631480115827
  0
ARC
  5
29C
330
1F
100
AcDbEntity
  8
AM_0
100
AcDbCircle
 10
-21.05
 20
7.809000000000039
 30
0.0
 40
6.828000000000031
100
AcDbArc
 50
226.3133530731996
 51
283.6866469268005
  0
ARC
  5
29D
330
1F
100
AcDbEntity
  8
AM_0
100
AcDbCircle
 10
-21.04999999999999
 20
7.808999999999995
 30
0.0
 40
6.149999999999976
100
AcDbArc
 50
286.4581719557934
 51
343.5418280442066
  0
ARC
  5
29E
330
1F
100
AcDbEntity
  8
AM_0
100
AcDbCircle
 10
-21.05000000000002
 20
7.809000000000019
 30
0.0
 40
6.270000000000023
100
AcDbArc
 50
286.430258503744
 51
343.5697414962561
  0
ARC
  5
29F
330
1F
100
AcDbEntity
  8
AM_0
100
AcDbCircle
 10
-21.04999999999998
 20
7.809
 30
0.0
 40
6.150000000000028
100
AcDbArc
 50
166.4581719557935
 51
223.5418280442064
  0
ARC
  5
2A0
330
1F
100
AcDbEntity
  8
AM_0
100
AcDbCircle
 10
-21.05000000000015
 20
7.808999999999912
 30
0.0
 40
6.269999999999873
100
AcDbArc
 50
166.4302585037427
 51
223.5697414962565
  0
ARC
  5
2A1
330
1F
100
AcDbEntity
  8
AM_0
100
AcDbCircle
 10
-21.05000000000003
 20
7.808999999999994
 30
0.0
 40
6.15000000000003
100
AcDbArc
 50
346.4581719557936
 51
43.54182804420637
  0
ARC
  5
2A2
330
1F
100
AcDbEntity
  8
AM_0
100
AcDbCircle
 10
-21.05000000000002
 20
7.808999999999996
 30
0.0
 40
6.269999999999993
100
AcDbArc
 50
346.4302585037439
 51
43.56974149625609
  0
ARC
  5
2A3
330
1F
100
AcDbEntity
  8
AM_0
100
AcDbCircle
 10
-21.04999999999993
 20
7.808999999999949
 30
0.0
 40
6.270000000000072
100
AcDbArc
 50
106.4302585037444
 51
163.569741496256
  0
ARC
  5
2A4
330
1F
100
AcDbEntity
  8
AM_0
100
AcDbCircle
 10
-21.05000000000008
 20
7.809000000000075
 30
0.0
 40
6.149999999999905
100
AcDbArc
 50
106.458171955793
 51
163.541828044207
  0
ARC
  5
2A5
330
1F
100
AcDbEntity
  8
AM_0
100
AcDbCircle
 10
-21.05
 20
7.808999999999994
 30
0.0
 40
6.150000000000008
100
AcDbArc
 50
226.4581719557934
 51
283.5418280442066
  0
ARC
  5
2A6
330
1F
100
AcDbEntity
  8
AM_0
100
AcDbCircle
 10
-21.05
 20
7.808999999999966
 30
0.0
 40
6.269999999999977
100
AcDbArc
 50
226.4302585037436
 51
283.5697414962562
  0
ARC
  5
2A7
330
1F
100
AcDbEntity
  8
AM_0
100
AcDbCircle
 10
-21.04999999999999
 20
7.809000000000022
 30
0.0
 40
6.269999999999982
100
AcDbArc
 50
46.43025850374372
 51
103.5697414962563
  0
ARC
  5
2A8
330
1F
100
AcDbEntity
  8
AM_0
100
AcDbCircle
 10
-21.04999999999998
 20
7.809000000000051
 30
0.0
 40
6.149999999999953
100
AcDbArc
 50
46.45817195579326
 51
103.5418280442068
  0
ARC
  5
2A9
330
1F
100
AcDbEntity
  8
AM_0
100
AcDbCircle
 10
-21.04999999999998
 20
7.809000000000003
 30
0.0
 40
5.592000000000019
100
AcDbArc
 50
166.60371252323
 51
223.39628747677
  0
ARC
  5
2AA
330
1F
100
AcDbEntity
  8
AM_0
100
AcDbCircle
 10
-21.05
 20
7.808999999999995
 30
0.0
 40
5.712999999999998
100
AcDbArc
 50
166.5697376751754
 51
223.4302623248245
  0
ARC
  5
2AB
330
1F
100
AcDbEntity
  8
AM_0
100
AcDbCircle
 10
-21.05
 20
7.808999999999996
 30
0.0
 40
5.592000000000015
100
AcDbArc
 50
286.6037125232298
 51
343.3962874767702
  0
ARC
  5
2AC
330
1F
100
AcDbEntity
  8
AM_0
100
AcDbCircle
 10
-21.04999999999995
 20
7.808999999999964
 30
0.0
 40
5.71299999999995
100
AcDbArc
 50
286.569737675175
 51
343.4302623248247
  0
ARC
  5
2AD
330
1F
100
AcDbEntity
  8
AM_0
100
AcDbCircle
 10
-21.04999999999999
 20
7.809000000000001
 30
0.0
 40
5.712999999999991
100
AcDbArc
 50
346.5697376751755
 51
43.4302623248246
  0
ARC
  5
2AE
330
1F
100
AcDbEntity
  8
AM_0
100
AcDbCircle
 10
-21.04999999999997
 20
7.808999999999997
 30
0.0
 40
5.591999999999981
100
AcDbArc
 50
346.6037125232298
 51
43.39628747677037
  0
ARC
  5
2AF
330
1F
100
AcDbEntity
  8
AM_0
100
AcDbCircle
 10
-21.05
 20
7.809000000000003
 30
0.0
 40
5.592000000000009
100
AcDbArc
 50
226.6037125232299
 51
283.3962874767701
  0
ARC
  5
2B0
330
1F
100
AcDbEntity
  8
AM_0
100
AcDbCircle
 10
-21.05
 20
7.809000000000026
 30
0.0
 40
5.713000000000019
100
AcDbArc
 50
226.5697376751757
 51
283.4302623248244
  0
ARC
  5
2B1
330
1F
100
AcDbEntity
  8
AM_0
100
AcDbCircle
 10
-21.05
 20
7.808999999999981
 30
0.0
 40
5.713000000000014
100
AcDbArc
 50
46.56973767517558
 51
103.4302623248245
  0
ARC
  5
2B2
330
1F
100
AcDbEntity
  8
AM_0
100
AcDbCircle
 10
-21.05
 20
7.808999999999987
 30
0.0
 40
5.59200000000001
100
AcDbArc
 50
46.60371252322993
 51
103.3962874767701
  0
ARC
  5
2B3
330
1F
100
AcDbEntity
  8
AM_0
100
AcDbCircle
 10
-21.04999999999994
 20
7.808999999999974
 30
0.0
 40
5.713000000000044
100
AcDbArc
 50
106.569737675176
 51
163.4302623248245
  0
ARC
  5
2B4
330
1F
100
AcDbEntity
  8
AM_0
100
AcDbCircle
 10
-21.04999999999987
 20
7.808999999999859
 30
0.0
 40
5.592000000000172
100
AcDbArc
 50
106.6037125232308
 51
163.3962874767692
  0
ARC
  5
2B5
330
1F
100
AcDbEntity
  8
AM_0
100
AcDbCircle
 10
-21.05
 20
7.808999999999997
 30
0.0
 40
5.034999999999997
100
AcDbArc
 50
286.7811785401907
 51
343.2188214598092
  0
ARC
  5
2B6
330
1F
100
AcDbEntity
  8
AM_0
100
AcDbCircle
 10
-21.05
 20
7.809000000000003
 30
0.0
 40
5.155000000000004
100
AcDbArc
 50
286.7397027072421
 51
343.2602972927578
  0
ARC
  5
2B7
330
1F
100
AcDbEntity
  8
AM_0
100
AcDbCircle
 10
-21.05000000000005
 20
7.80900000000005
 30
0.0
 40
5.034999999999941
100
AcDbArc
 50
106.7811785401904
 51
163.2188214598096
  0
ARC
  5
2B8
330
1F
100
AcDbEntity
  8
AM_0
100
AcDbCircle
 10
-21.05000000000014
 20
7.809000000000085
 30
0.0
 40
5.154999999999879
100
AcDbArc
 50
106.739702707241
 51
163.2602972927584
  0
ARC
  5
2B9
330
1F
100
AcDbEntity
  8
AM_0
100
AcDbCircle
 10
-21.04999999999998
 20
7.809000000000004
 30
0.0
 40
5.035000000000021
100
AcDbArc
 50
166.7811785401909
 51
223.218821459809
  0
ARC
  5
2BA
330
1F
100
AcDbEntity
  8
AM_0
100
AcDbCircle
 10
-21.04999999999992
 20
7.809000000000037
 30
0.0
 40
5.155000000000077
100
AcDbArc
 50
166.7397027072428
 51
223.2602972927575
  0
ARC
  5
2BB
330
1F
100
AcDbEntity
  8
AM_0
100
AcDbCircle
 10
-21.05000000000001
 20
7.808999999999997
 30
0.0
 40
5.035000000000001
100
AcDbArc
 50
46.78117854019074
 51
103.2188214598092
  0
ARC
  5
2BC
330
1F
100
AcDbEntity
  8
AM_0
100
AcDbCircle
 10
-21.05
 20
7.809000000000043
 30
0.0
 40
5.154999999999967
100
AcDbArc
 50
46.73970270724185
 51
103.260297292758
  0
ARC
  5
2BD
330
1F
100
AcDbEntity
  8
AM_0
100
AcDbCircle
 10
-21.05000000000001
 20
7.808999999999999
 30
0.0
 40
5.155000000000021
100
AcDbArc
 50
346.7397027072421
 51
43.26029729275781
  0
ARC
  5
2BE
330
1F
100
AcDbEntity
  8
AM_0
100
AcDbCircle
 10
-21.05
 20
7.808999999999994
 30
0.0
 40
5.035000000000008
100
AcDbArc
 50
346.7811785401909
 51
43.21882145980926
  0
ARC
  5
2BF
330
1F
100
AcDbEntity
  8
AM_0
100
AcDbCircle
 10
-21.05
 20
7.808999999999985
 30
0.0
 40
5.034999999999987
100
AcDbArc
 50
226.7811785401907
 51
283.2188214598093
  0
ARC
  5
2C0
330
1F
100
AcDbEntity
  8
AM_0
100
AcDbCircle
 10
-21.05
 20
7.809000000000016
 30
0.0
 40
5.155000000000012
100
AcDbArc
 50
226.7397027072423
 51
283.2602972927577
  0
ARC
  5
2C1
330
1F
100
AcDbEntity
  8
AM_0
100
AcDbCircle
 10
-21.05000000000003
 20
7.808999999999991
 30
0.0
 40
4.608000000000044
100
AcDbArc
 50
346.9462921439786
 51
43.05370785602142
  0
ARC
  5
2C2
330
1F
100
AcDbEntity
  8
AM_0
100
AcDbCircle
 10
-21.05000000000002
 20
7.808999999999995
 30
0.0
 40
4.488000000000016
100
AcDbArc
 50
346.9983528774318
 51
43.00164712256812
  0
ARC
  5
2C3
330
1F
100
AcDbEntity
  8
AM_0
100
AcDbCircle
 10
-21.05000000000007
 20
7.809000000000032
 30
0.0
 40
4.607999999999945
100
AcDbArc
 50
106.9462921439777
 51
163.0537078560217
  0
ARC
  5
2C4
330
1F
100
AcDbEntity
  8
AM_0
100
AcDbCircle
 10
-21.04999999999995
 20
7.808999999999964
 30
0.0
 40
4.488000000000052
100
AcDbArc
 50
106.9983528774322
 51
163.001647122568
  0
ARC
  5
2C5
330
1F
100
AcDbEntity
  8
AM_0
100
AcDbCircle
 10
-21.04999999999997
 20
7.809000000000007
 30
0.0
 40
4.488000000000026
100
AcDbArc
 50
166.998352877432
 51
223.0016471225679
  0
ARC
  5
2C6
330
1F
100
AcDbEntity
  8
AM_0
100
AcDbCircle
 10
-21.04999999999997
 20
7.809000000000019
 30
0.0
 40
4.608000000000031
100
AcDbArc
 50
166.9462921439788
 51
223.0537078560214
  0
ARC
  5
2C7
330
1F
100
AcDbEntity
  8
AM_0
100
AcDbCircle
 10
-21.05
 20
7.808999999999974
 30
0.0
 40
4.487999999999962
100
AcDbArc
 50
226.9983528774316
 51
283.0016471225683
  0
ARC
  5
2C8
330
1F
100
AcDbEntity
  8
AM_0
100
AcDbCircle
 10
-21.05
 20
7.80900000000004
 30
0.0
 40
4.608000000000028
100
AcDbArc
 50
226.9462921439788
 51
283.0537078560214
  0
ARC
  5
2C9
330
1F
100
AcDbEntity
  8
AM_0
100
AcDbCircle
 10
-21.05
 20
7.809000000000002
 30
0.0
 40
4.488000000000024
100
AcDbArc
 50
286.9983528774318
 51
343.0016471225682
  0
ARC
  5
2CA
330
1F
100
AcDbEntity
  8
AM_0
100
AcDbCircle
 10
-21.05000000000001
 20
7.809000000000015
 30
0.0
 40
4.608000000000016
100
AcDbArc
 50
286.9462921439785
 51
343.0537078560215
  0
ARC
  5
2CB
330
1F
100
AcDbEntity
  8
AM_0
100
AcDbCircle
 10
-21.05
 20
7.808999999999976
 30
0.0
 40
4.608000000000018
100
AcDbArc
 50
46.94629214397862
 51
103.0537078560215
  0
ARC
  5
2CC
330
1F
100
AcDbEntity
  8
AM_0
100
AcDbCircle
 10
-21.04999999999993
 20
7.809000000000278
 30
0.0
 40
4.487999999999743
100
AcDbArc
 50
46.99835287743006
 51
103.00164712257
  0
ARC
  5
2CD
330
1F
100
AcDbEntity
  8
AM_0
100
AcDbCircle
 10
-21.05000000000005
 20
7.809000000000054
 30
0.0
 40
3.918999999999934
100
AcDbArc
 50
107.2886385364267
 51
162.7113614635733
  0
ARC
  5
2CE
330
1F
100
AcDbEntity
  8
AM_0
100
AcDbCircle
 10
-21.04999999999996
 20
7.808999999999971
 30
0.0
 40
4.039000000000041
100
AcDbArc
 50
107.2206077546184
 51
162.7793922453816
  0
ARC
  5
2CF
330
1F
100
AcDbEntity
  8
AM_0
100
AcDbCircle
 10
-21.05
 20
7.808999999999999
 30
0.0
 40
3.919000000000004
100
AcDbArc
 50
47.28863853642719
 51
102.7113614635727
  0
ARC
  5
2D0
330
1F
100
AcDbEntity
  8
AM_0
100
AcDbCircle
 10
-21.04999999999999
 20
7.809000000000044
 30
0.0
 40
4.03899999999996
100
AcDbArc
 50
47.22060775461777
 51
102.7793922453821
  0
ARC
  5
2D1
330
1F
100
AcDbEntity
  8
AM_0
100
AcDbCircle
 10
-21.04999999999999
 20
7.809000000000011
 30
0.0
 40
3.919000000000016
100
AcDbArc
 50
227.2886385364273
 51
282.7113614635726
  0
ARC
  5
2D2
330
1F
100
AcDbEntity
  8
AM_0
100
AcDbCircle
 10
-21.05
 20
7.809000000000032
 30
0.0
 40
4.039000000000026
100
AcDbArc
 50
227.2206077546184
 51
282.7793922453817
  0
ARC
  5
2D3
330
1F
100
AcDbEntity
  8
AM_0
100
AcDbCircle
 10
-21.05000000000001
 20
7.808999999999999
 30
0.0
 40
4.03900000000001
100
AcDbArc
 50
347.2206077546181
 51
42.77939224538176
  0
ARC
  5
2D4
330
1F
100
AcDbEntity
  8
AM_0
100
AcDbCircle
 10
-21.04999999999994
 20
7.808999999999998
 30
0.0
 40
3.918999999999958
100
AcDbArc
 50
347.288638536427
 51
42.71136146357333
  0
ARC
  5
2D5
330
1F
100
AcDbEntity
  8
AM_0
100
AcDbCircle
 10
-21.05000000000006
 20
7.809000000000092
 30
0.0
 40
3.919000000000082
100
AcDbArc
 50
287.2886385364276
 51
342.7113614635717
  0
ARC
  5
2D6
330
1F
100
AcDbEntity
  8
AM_0
100
AcDbCircle
 10
-21.05000000000003
 20
7.809000000000028
 30
0.0
 40
4.039000000000035
100
AcDbArc
 50
287.2206077546185
 51
342.7793922453816
  0
ARC
  5
2D7
330
1F
100
AcDbEntity
  8
AM_0
100
AcDbCircle
 10
-21.05
 20
7.808999999999997
 30
0.0
 40
3.918999999999978
100
AcDbArc
 50
167.2886385364272
 51
222.7113614635728
  0
ARC
  5
2D8
330
1F
100
AcDbEntity
  8
AM_0
100
AcDbCircle
 10
-21.04999999999997
 20
7.809000000000024
 30
0.0
 40
4.039000000000022
100
AcDbArc
 50
167.2206077546186
 51
222.7793922453818
  0
ARC
  5
2D9
330
1F
100
AcDbEntity
  8
AM_0
100
AcDbCircle
 10
-21.05000000000007
 20
7.809000000000067
 30
0.0
 40
3.473999999999916
100
AcDbArc
 50
107.5819876637137
 51
162.4180123362863
  0
ARC
  5
2DA
330
1F
100
AcDbEntity
  8
AM_0
100
AcDbCircle
 10
-21.05000000000008
 20
7.809000000000031
 30
0.0
 40
3.584999999999946
100
AcDbArc
 50
107.5019916076179
 51
162.4980083923812
  0
ARC
  5
2DB
330
1F
100
AcDbEntity
  8
AM_0
100
AcDbCircle
 10
-21.05000000000002
 20
7.808999999999997
 30
0.0
 40
3.474000000000019
100
AcDbArc
 50
347.5819876637146
 51
42.41801233628532
  0
ARC
  5
2DC
330
1F
100
AcDbEntity
  8
AM_0
100
AcDbCircle
 10
-21.05000000000003
 20
7.808999999999987
 30
0.0
 40
3.585000000000038
100
AcDbArc
 50
347.5019916076192
 51
42.49800839238088
  0
ARC
  5
2DD
330
1F
100
AcDbEntity
  8
AM_0
100
AcDbCircle
 10
-21.05000000000001
 20
7.808999999999989
 30
0.0
 40
3.474000000000009
100
AcDbArc
 50
167.5819876637143
 51
222.4180123362854
  0
ARC
  5
2DE
330
1F
100
AcDbEntity
  8
AM_0
100
AcDbCircle
 10
-21.04999999999993
 20
7.809000000000037
 30
0.0
 40
3.585000000000066
100
AcDbArc
 50
167.5019916076198
 51
222.4980083923807
  0
ARC
  5
2DF
330
1F
100
AcDbEntity
  8
AM_0
100
AcDbCircle
 10
-21.05
 20
7.809000000000009
 30
0.0
 40
3.473999999999978
100
AcDbArc
 50
287.5819876637144
 51
342.4180123362854
  0
ARC
  5
2E0
330
1F
100
AcDbEntity
  8
AM_0
100
AcDbCircle
 10
-21.04999999999997
 20
7.80899999999999
 30
0.0
 40
3.584999999999979
100
AcDbArc
 50
287.5019916076185
 51
342.4980083923811
  0
ARC
  5
2E1
330
1F
100
AcDbEntity
  8
AM_0
100
AcDbCircle
 10
-21.05
 20
7.808999999999996
 30
0.0
 40
3.473999999999982
100
AcDbArc
 50
227.5819876637145
 51
282.4180123362855
  0
ARC
  5
2E2
330
1F
100
AcDbEntity
  8
AM_0
100
AcDbCircle
 10
-21.05
 20
7.80899999999991
 30
0.0
 40
3.584999999999936
100
AcDbArc
 50
227.501991607618
 51
282.4980083923813
  0
ARC
  5
2E3
330
1F
100
AcDbEntity
  8
AM_0
100
AcDbCircle
 10
-21.04999999999999
 20
7.809000000000067
 30
0.0
 40
3.473999999999943
100
AcDbArc
 50
47.58198766371387
 51
102.4180123362861
  0
ARC
  5
2E4
330
1F
100
AcDbEntity
  8
AM_0
100
AcDbCircle
 10
-21.05
 20
7.809000000000058
 30
0.0
 40
3.584999999999961
100
AcDbArc
 50
47.5019916076182
 51
102.4980083923813
  0
LINE
  5
2E5
330
1F
100
AcDbEntity
  8
AM_0
100
AcDbLine
 10
-8.59826851871476
 20
4.634589327454613
 30
0.0
 11
-17.81343848789798
 21
7.103786678812789
 31
0.0
  0
LINE
  5
2E6
330
1F
100
AcDbEntity
  8
AM_0
100
AcDbLine
 10
-17.89444884901507
 20
6.801451895184307
 30
0.0
 11
-8.679278879831848
 21
4.332254543826132
 31
0.0
  0
ARC
  5
2E7
330
1F
100
AcDbEntity
  8
AM_0
100
AcDbCircle
 10
-21.05000000002794
 20
7.80900000000746
 30
0.0
 40
12.85000000002891
100
AcDbArc
 50
344.30217811835
 51
345.6978218816502
  0
LINE
  5
2E8
330
1F
100
AcDbEntity
  8
AM_0
100
AcDbLine
 10
-17.57325454382613
 20
-4.561721120168151
 30
0.0
 11
-20.04245189518431
 21
4.653448849015071
 31
0.0
  0
LINE
  5
2E9
330
1F
100
AcDbEntity
  8
AM_0
100
AcDbLine
 10
-20.34478667881279
 20
4.572438487897982
 30
0.0
 11
-17.87558932745461
 21
-4.64273148128524
 31
0.0
  0
ARC
  5
2EA
330
1F
100
AcDbEntity
  8
AM_0
100
AcDbCircle
 10
-21.05000000000922
 20
7.809000000034635
 30
0.0
 40
12.85000000003584
100
AcDbArc
 50
284.30217811835
 51
285.6978218816494
  0
LINE
  5
2EB
330
1F
100
AcDbEntity
  8
AM_0
100
AcDbLine
 10
-12.07501397488863
 20
17.00531044762276
 30
0.0
 11
-18.82098659271367
 21
10.25933782979772
 31
0.0
  0
LINE
  5
2EC
330
1F
100
AcDbEntity
  8
AM_0
100
AcDbLine
 10
-18.59966217020228
 20
10.03801340728633
 30
0.0
 11
-11.85368955237724
 21
16.78398602511137
 31
0.0
  0
ARC
  5
2ED
330
1F
100
AcDbEntity
  8
AM_0
100
AcDbCircle
 10
-21.0499999999773
 20
7.809000000022708
 30
0.0
 40
12.84999999996789
100
AcDbArc
 50
44.30217811834665
 51
45.69782188165333
  0
LINE
  5
2EE
330
1F
100
AcDbEntity
  8
AM_0
100
AcDbLine
 10
-24.52674545617387
 20
20.17972112016815
 30
0.0
 11
-22.05754810481569
 21
10.96455115098493
 31
0.0
  0
LINE
  5
2EF
330
1F
100
AcDbEntity
  8
AM_0
100
AcDbLine
 10
-21.75521332118721
 20
11.04556151210202
 30
0.0
 11
-24.22441067254539
 21
20.26073148128524
 31
0.0
  0
ARC
  5
2F0
330
1F
100
AcDbEntity
  8
AM_0
100
AcDbCircle
 10
-21.05000000000463
 20
7.809000000017452
 30
0.0
 40
12.84999999998194
100
AcDbArc
 50
104.3021781183476
 51
105.6978218816528
  0
LINE
  5
2F1
330
1F
100
AcDbEntity
  8
AM_0
100
AcDbLine
 10
-30.02498602511137
 20
-1.387310447622763
 30
0.0
 11
-23.27901340728633
 21
5.358662170202278
 31
0.0
  0
LINE
  5
2F2
330
1F
100
AcDbEntity
  8
AM_0
100
AcDbLine
 10
-23.50033782979772
 20
5.579986592713673
 30
0.0
 11
-30.24631044762276
 21
-1.165986025111375
 31
0.0
  0
ARC
  5
2F3
330
1F
100
AcDbEntity
  8
AM_0
100
AcDbCircle
 10
-21.05000000001071
 20
7.808999999989436
 30
0.0
 40
12.84999999998496
100
AcDbArc
 50
224.3021781183481
 51
225.6978218816529
  0
LINE
  5
2F4
330
1F
100
AcDbEntity
  8
AM_0
100
AcDbLine
 10
-24.20555115098493
 20
8.816548104815691
 30
0.0
 11
-33.42072112016815
 21
11.28574545617386
 31
0.0
  0
LINE
  5
2F5
330
1F
100
AcDbEntity
  8
AM_0
100
AcDbLine
 10
-33.50173148128523
 20
10.98341067254538
 30
0.0
 11
-24.28656151210201
 21
8.514213321187206
 31
0.0
  0
ARC
  5
2F6
330
1F
100
AcDbEntity
  8
AM_0
100
AcDbCircle
 10
-21.04999999998386
 20
7.808999999995982
 30
0.0
 40
12.85000000001663
100
AcDbArc
 50
164.3021781183507
 51
165.697821881652
  0
ARC
  5
2F7
330
1F
100
AcDbEntity
  8
AM_0
100
AcDbCircle
 10
-23.742
 20
7.809000000000001
 30
0.0
 40
0.375
100
AcDbArc
 50
90.0
 51
270.0
  0
LINE
  5
2F8
330
1F
100
AcDbEntity
  8
AM_0
100
AcDbLine
 10
-23.742
 20
8.184000000000001
 30
0.0
 11
-23.246
 21
8.184000000000001
 31
0.0
  0
ARC
  5
2F9
330
1F
100
AcDbEntity
  8
AM_0
100
AcDbCircle
 10
-23.246
 20
7.809000000000001
 30
0.0
 40
0.3750000000000009
100
AcDbArc
 50
270.0
 51
90.0
  0
LINE
  5
2FA
330
1F
100
AcDbEntity
  8
AM_0
100
AcDbLine
 10
-23.246
 20
7.434
 30
0.0
 11
-23.742
 21
7.434
 31
0.0
  0
ARC
  5
2FB
330
1F
100
AcDbEntity
  8
AM_0
100
AcDbCircle
 10
-18.854
 20
7.809000000000001
 30
0.0
 40
0.375
100
AcDbArc
 50
90.0
 51
270.0
  0
LINE
  5
2FC
330
1F
100
AcDbEntity
  8
AM_0
100
AcDbLine
 10
-18.854
 20
8.184000000000001
 30
0.0
 11
-18.358
 21
8.184000000000001
 31
0.0
  0
ARC
  5
2FD
330
1F
100
AcDbEntity
  8
AM_0
100
AcDbCircle
 10
-18.358
 20
7.809000000000001
 30
0.0
 40
0.3750000000000009
100
AcDbArc
 50
270.0
 51
90.0
  0
LINE
  5
2FE
330
1F
100
AcDbEntity
  8
AM_0
100
AcDbLine
 10
-18.358
 20
7.434
 30
0.0
 11
-18.854
 21
7.434
 31
0.0
  0
LINE
  5
2FF
330
1F
100
AcDbEntity
  8
AM_0
100
AcDbLine
 10
-21.425
 20
5.117000000000001
 30
0.0
 11
-21.425
 21
5.613
 31
0.0
  0
ARC
  5
300
330
1F
100
AcDbEntity
  8
AM_0
100
AcDbCircle
 10
-21.05
 20
5.613
 30
0.0
 40
0.375
100
AcDbArc
 50
0.0
 51
180.0
  0
LINE
  5
301
330
1F
100
AcDbEntity
  8
AM_0
100
AcDbLine
 10
-20.675
 20
5.613
 30
0.0
 11
-20.675
 21
5.117000000000001
 31
0.0
  0
ARC
  5
302
330
1F
100
AcDbEntity
  8
AM_0
100
AcDbCircle
 10
-21.05
 20
5.117000000000001
 30
0.0
 40
0.375
100
AcDbArc
 50
180.0
 51
0.0
  0
ARC
  5
303
330
1F
100
AcDbEntity
  8
AM_0
100
AcDbCircle
 10
-21.05
 20
10.005
 30
0.0
 40
0.375
100
AcDbArc
 50
179.9999999999995
 51
0.0000000000005428
  0
LINE
  5
304
330
1F
100
AcDbEntity
  8
AM_0
100
AcDbLine
 10
-21.425
 20
10.005
 30
0.0
 11
-21.425
 21
10.501
 31
0.0
  0
ARC
  5
305
330
1F
100
AcDbEntity
  8
AM_0
100
AcDbCircle
 10
-21.05
 20
10.501
 30
0.0
 40
0.375
100
AcDbArc
 50
0.0
 51
180.0
  0
LINE
  5
306
330
1F
100
AcDbEntity
  8
AM_0
100
AcDbLine
 10
-20.675
 20
10.501
 30
0.0
 11
-20.675
 21
10.005
 31
0.0
  0
LINE
  5
307
330
1F
100
AcDbEntity
  8
AM_0
100
AcDbLine
 10
-22.30398522414074
 20
8.075542787628368
 30
0.0
 11
-22.3636522277855
 21
8.08822540076825
 31
0.0
  0
ARC
  5
308
330
1F
100
AcDbEntity
  8
AM_0
100
AcDbCircle
 10
-21.04999999999999
 20
7.808999999999993
 30
0.0
 40
1.343000000000009
100
AcDbArc
 50
104.0000000000002
 51
167.9999999999998
  0
LINE
  5
309
330
1F
100
AcDbEntity
  8
AM_0
100
AcDbLine
 10
-21.37490110579035
 20
9.112107160388664
 30
0.0
 11
-21.36014387015878
 21
9.052919121085827
 31
0.0
  0
ARC
  5
30A
330
1F
100
AcDbEntity
  8
AM_0
100
AcDbCircle
 10
-21.04999999999998
 20
7.808999999999982
 30
0.0
 40
1.282000000000022
100
AcDbArc
 50
104.0000000000007
 51
167.9999999999993
  0
ARC
  5
30B
330
1F
100
AcDbEntity
  8
AM_0
100
AcDbCircle
 10
-21.04999999999999
 20
7.809000000000007
 30
0.0
 40
1.343000000000009
100
AcDbArc
 50
194.0000000000003
 51
257.9999999999999
  0
LINE
  5
30C
330
1F
100
AcDbEntity
  8
AM_0
100
AcDbLine
 10
-22.35310716038866
 20
7.484098894209644
 30
0.0
 11
-22.29391912108582
 21
7.498856129841224
 31
0.0
  0
ARC
  5
30D
330
1F
100
AcDbEntity
  8
AM_0
100
AcDbCircle
 10
-21.05000000000002
 20
7.808999999999978
 30
0.0
 40
1.281999999999971
100
AcDbArc
 50
193.9999999999994
 51
258.0000000000007
  0
LINE
  5
30E
330
1F
100
AcDbEntity
  8
AM_0
100
AcDbLine
 10
-21.31654278762837
 20
6.555014775859262
 30
0.0
 11
-21.32922540076825
 21
6.495347772214499
 31
0.0
  0
ARC
  5
30F
330
1F
100
AcDbEntity
  8
AM_0
100
AcDbCircle
 10
-21.05000000000001
 20
7.809
 30
0.0
 40
2.969000000000003
100
AcDbArc
 50
284.0000000000002
 51
348.0
  0
LINE
  5
310
330
1F
100
AcDbEntity
  8
AM_0
100
AcDbLine
 10
-18.14587977342133
 20
7.191710189962072
 30
0.0
 11
-18.08523462217584
 21
7.178819665131369
 31
0.0
  0
ARC
  5
311
330
1F
100
AcDbEntity
  8
AM_0
100
AcDbCircle
 10
-21.05
 20
7.808999999999996
 30
0.0
 40
3.030999999999995
100
AcDbArc
 50
284.0
 51
348.0
  0
LINE
  5
312
330
1F
100
AcDbEntity
  8
AM_0
100
AcDbLine
 10
-20.31673473443741
 20
4.868033653657456
 30
0.0
 11
-20.33173389196459
 21
4.928191988686566
 31
0.0
  0
ARC
  5
313
330
1F
100
AcDbEntity
  8
AM_0
100
AcDbCircle
 10
-21.04999999999999
 20
7.809000000000011
 30
0.0
 40
2.968999999999991
100
AcDbArc
 50
13.99999999999985
 51
78.0000000000001
  0
LINE
  5
314
330
1F
100
AcDbEntity
  8
AM_0
100
AcDbLine
 10
-20.43271018996207
 20
10.71312022657867
 30
0.0
 11
-20.41981966513137
 21
10.77376537782417
 31
0.0
  0
ARC
  5
315
330
1F
100
AcDbEntity
  8
AM_0
100
AcDbCircle
 10
-21.04999999999999
 20
7.809000000000008
 30
0.0
 40
3.030999999999992
100
AcDbArc
 50
13.99999999999991
 51
78.00000000000009
  0
LINE
  5
316
330
1F
100
AcDbEntity
  8
AM_0
100
AcDbLine
 10
-18.10903365365746
 20
8.542265265562595
 30
0.0
 11
-18.16919198868657
 21
8.527266108035414
 31
0.0
  0
ARC
  5
317
330
1F
100
AcDbEntity
  8
AM_0
100
AcDbCircle
 10
-21.05000000000457
 20
7.809000000001222
 30
0.0
 40
3.562859374995276
100
AcDbArc
 50
162.482450319572
 51
167.5175496804279
  0
ARC
  5
318
330
1F
100
AcDbEntity
  8
AM_0
100
AcDbCircle
 10
-21.05
 20
7.808999999999992
 30
0.0
 40
3.312499999999993
100
AcDbArc
 50
167.7079633718115
 51
222.2920366281883
  0
ARC
  5
319
330
1F
100
AcDbEntity
  8
AM_0
100
AcDbCircle
 10
-21.05000000000058
 20
7.808999999999418
 30
0.0
 40
3.562859374999186
100
AcDbArc
 50
222.4824503195748
 51
227.5175496804252
  0
ARC
  5
31A
330
1F
100
AcDbEntity
  8
AM_0
100
AcDbCircle
 10
-21.05
 20
7.809000000000018
 30
0.0
 40
3.312500000000015
100
AcDbArc
 50
227.7079633718118
 51
282.2920366281883
  0
ARC
  5
31B
330
1F
100
AcDbEntity
  8
AM_0
100
AcDbCircle
 10
-21.04999999999994
 20
7.808999999999755
 30
0.0
 40
3.562859374999757
100
AcDbArc
 50
282.4824503195753
 51
287.5175496804247
  0
ARC
  5
31C
330
1F
100
AcDbEntity
  8
AM_0
100
AcDbCircle
 10
-21.04999999999999
 20
7.808999999999989
 30
0.0
 40
3.312499999999985
100
AcDbArc
 50
287.7079633718114
 51
342.2920366281885
  0
ARC
  5
31D
330
1F
100
AcDbEntity
  8
AM_0
100
AcDbCircle
 10
-21.0500000000006
 20
7.809000000000122
 30
0.0
 40
3.562859375000621
100
AcDbArc
 50
342.4824503195764
 51
347.5175496804247
  0
ARC
  5
31E
330
1F
100
AcDbEntity
  8
AM_0
100
AcDbCircle
 10
-21.05
 20
7.808999999999995
 30
0.0
 40
3.312500000000005
100
AcDbArc
 50
347.7079633718117
 51
42.29203662818841
  0
ARC
  5
31F
330
1F
100
AcDbEntity
  8
AM_0
100
AcDbCircle
 10
-21.05000000000115
 20
7.80899999999877
 30
0.0
 40
3.56285937500169
100
AcDbArc
 50
42.48245031957754
 51
47.51754968042426
  0
ARC
  5
320
330
1F
100
AcDbEntity
  8
AM_0
100
AcDbCircle
 10
-21.05
 20
7.808999999999974
 30
0.0
 40
3.312500000000023
100
AcDbArc
 50
47.70796337181185
 51
102.2920366281883
  0
ARC
  5
321
330
1F
100
AcDbEntity
  8
AM_0
100
AcDbCircle
 10
-21.04999999999914
 20
7.808999999996892
 30
0.0
 40
3.562859375003231
100
AcDbArc
 50
102.4824503195781
 51
107.5175496804226
  0
ARC
  5
322
330
1F
100
AcDbEntity
  8
AM_0
100
AcDbCircle
 10
-21.05
 20
7.808999999999997
 30
0.0
 40
3.3125
100
AcDbArc
 50
107.7079633718115
 51
162.2920366281884
  0
ARC
  5
323
330
1F
100
AcDbEntity
  8
AM_0
100
AcDbCircle
 10
-21.04999999999997
 20
7.809000000000029
 30
0.0
 40
3.031000000000034
100
AcDbArc
 50
194.0000000000003
 51
257.9999999999995
  0
LINE
  5
324
330
1F
100
AcDbEntity
  8
AM_0
100
AcDbLine
 10
-23.99096634634255
 20
7.075734734437408
 30
0.0
 11
-23.93080801131343
 21
7.090733891964586
 31
0.0
  0
ARC
  5
325
330
1F
100
AcDbEntity
  8
AM_0
100
AcDbCircle
 10
-21.05
 20
7.808999999999999
 30
0.0
 40
2.968999999999997
100
AcDbArc
 50
193.9999999999999
 51
258.0000000000001
  0
LINE
  5
326
330
1F
100
AcDbEntity
  8
AM_0
100
AcDbLine
 10
-21.66728981003793
 20
4.904879773421333
 30
0.0
 11
-21.68018033486863
 21
4.844234622175836
 31
0.0
  0
LINE
  5
327
330
1F
100
AcDbEntity
  8
AM_0
100
AcDbLine
 10
-23.95412022657867
 20
8.426289810037927
 30
0.0
 11
-24.01476537782417
 21
8.439180334868627
 31
0.0
  0
ARC
  5
328
330
1F
100
AcDbEntity
  8
AM_0
100
AcDbCircle
 10
-21.04999999999999
 20
7.808999999999987
 30
0.0
 40
3.031000000000017
100
AcDbArc
 50
104.0000000000002
 51
167.9999999999998
  0
LINE
  5
329
330
1F
100
AcDbEntity
  8
AM_0
100
AcDbLine
 10
-21.78326526556259
 20
10.74996634634255
 30
0.0
 11
-21.76826610803541
 21
10.68980801131343
 31
0.0
  0
ARC
  5
32A
330
1F
100
AcDbEntity
  8
AM_0
100
AcDbCircle
 10
-21.05000000000002
 20
7.809000000000018
 30
0.0
 40
2.968999999999979
100
AcDbArc
 50
103.9999999999997
 51
168.0000000000003
  0
ARC
  5
32B
330
1F
100
AcDbEntity
  8
AM_0
100
AcDbCircle
 10
-21.04999999999998
 20
7.809000000000012
 30
0.0
 40
1.28199999999998
100
AcDbArc
 50
13.99999999999979
 51
78.00000000000068
  0
LINE
  5
32C
330
1F
100
AcDbEntity
  8
AM_0
100
AcDbLine
 10
-20.78345721237163
 20
9.06298522414074
 30
0.0
 11
-20.77077459923175
 21
9.122652227785498
 31
0.0
  0
ARC
  5
32D
330
1F
100
AcDbEntity
  8
AM_0
100
AcDbCircle
 10
-21.04999999999999
 20
7.809000000000004
 30
0.0
 40
1.342999999999989
100
AcDbArc
 50
14.00000000000005
 51
78.00000000000053
  0
LINE
  5
32E
330
1F
100
AcDbEntity
  8
AM_0
100
AcDbLine
 10
-19.74689283961134
 20
8.133901105790356
 30
0.0
 11
-19.80608087891417
 21
8.119143870158776
 31
0.0
  0
ARC
  5
32F
330
1F
100
AcDbEntity
  8
AM_0
100
AcDbCircle
 10
-21.05
 20
7.80899999999999
 30
0.0
 40
1.28199999999999
100
AcDbArc
 50
284.0000000000002
 51
348.0000000000005
  0
LINE
  5
330
330
1F
100
AcDbEntity
  8
AM_0
100
AcDbLine
 10
-19.79601477585927
 20
7.542457212371635
 30
0.0
 11
-19.7363477722145
 21
7.529774599231749
 31
0.0
  0
ARC
  5
331
330
1F
100
AcDbEntity
  8
AM_0
100
AcDbCircle
 10
-21.05
 20
7.808999999999999
 30
0.0
 40
1.342999999999996
100
AcDbArc
 50
284.0
 51
348.0
  0
LINE
  5
332
330
1F
100
AcDbEntity
  8
AM_0
100
AcDbLine
 10
-20.72509889420965
 20
6.50589283961134
 30
0.0
 11
-20.73985612984123
 21
6.565080878914173
 31
0.0
  0
LINE
  5
335
330
1F
100
AcDbEntity
  8
AM_7
100
AcDbLine
 10
16.1915
 20
3.67
 30
0.0
 11
18.8165
 21
3.67
 31
0.0
  0
LINE
  5
336
330
1F
100
AcDbEntity
  8
AM_7
100
AcDbLine
 10
17.504
 20
2.3575
 30
0.0
 11
17.504
 21
4.9825
 31
0.0
  0
LINE
  5
337
330
1F
100
AcDbEntity
  8
AM_7
100
AcDbLine
 10
-10.63640039062411
 20
-13.59
 30
0.0
 11
-10.46359960937588
 21
-13.59
 31
0.0
  0
LINE
  5
338
330
1F
100
AcDbEntity
  8
AM_7
100
AcDbLine
 10
-10.63640039062412
 20
-16.59
 30
0.0
 11
-10.46359960937588
 21
-16.59
 31
0.0
  0
LINE
  5
339
330
1F
100
AcDbEntity
  8
AM_7
100
AcDbLine
 10
-10.63640039062411
 20
-12.09
 30
0.0
 11
-10.46359960937588
 21
-12.09
 31
0.0
  0
LINE
  5
33A
330
1F
100
AcDbEntity
  8
AM_7
100
AcDbLine
 10
36.696
 20
3.670000000000001
 30
0.0
 11
35.596
 21
3.670000000000001
 31
0.0
  0
LINE
  5
33B
330
1F
100
AcDbEntity
  8
AM_7
100
AcDbLine
 10
-36.65
 20
-11.857
 30
0.0
 11
-36.562
 21
-11.857
 31
0.0
  0
LINE
  5
33C
330
1F
100
AcDbEntity
  8
AM_7
100
AcDbLine
 10
-36.65
 20
-18.375
 30
0.0
 11
-36.562
 21
-18.375
 31
0.0
  0
LINE
  5
33D
330
1F
100
AcDbEntity
  8
AM_7
100
AcDbLine
 10
-36.65
 20
-12.866
 30
0.0
 11
-36.562
 21
-12.866
 31
0.0
  0
LINE
  5
33E
330
1F
100
AcDbEntity
  8
AM_7
100
AcDbLine
 10
-36.65
 20
-17.366
 30
0.0
 11
-36.562
 21
-17.366
 31
0.0
  0
LINE
  5
33F
330
1F
100
AcDbEntity
  8
AM_7
100
AcDbLine
 10
-36.65
 20
-14.15
 30
0.0
 11
-36.562
 21
-14.15
 31
0.0
  0
LINE
  5
340
330
1F
100
AcDbEntity
  8
AM_7
100
AcDbLine
 10
-36.65
 20
-18.087
 30
0.0
 11
-36.562
 21
-18.087
 31
0.0
  0
LINE
  5
341
330
1F
100
AcDbEntity
  8
AM_7
100
AcDbLine
 10
-36.65
 20
-16.244
 30
0.0
 11
-36.562
 21
-16.244
 31
0.0
  0
LINE
  5
342
330
1F
100
AcDbEntity
  8
AM_7
100
AcDbLine
 10
-32.938
 20
-26.5716
 30
0.0
 11
-32.938
 21
26.5716
 31
0.0
  0
LINE
  5
343
330
1F
100
AcDbEntity
  8
AM_7
100
AcDbLine
 10
-29.938
 20
-26.5716
 30
0.0
 11
-29.938
 21
26.5716
 31
0.0
  0
LINE
  5
344
330
1F
100
AcDbEntity
  8
AM_7
100
AcDbLine
 10
32.938
 20
-26.5716
 30
0.0
 11
32.938
 21
26.5716
 31
0.0
  0
LINE
  5
345
330
1F
100
AcDbEntity
  8
AM_7
100
AcDbLine
 10
29.938
 20
-26.5716
 30
0.0
 11
29.938
 21
26.5716
 31
0.0
  0
LINE
  5
346
330
1F
100
AcDbEntity
  8
AM_7
100
AcDbLine
 10
-40.7
 20
-20.04
 30
0.0
 11
40.7
 21
-20.04
 31
0.0
  0
LINE
  5
347
330
1F
100
AcDbEntity
  8
AM_7
100
AcDbLine
 10
-40.7
 20
-17.04
 30
0.0
 11
40.7
 21
-17.04
 31
0.0
  0
LINE
  5
348
330
1F
100
AcDbEntity
  8
AM_7
100
AcDbLine
 10
-40.7
 20
20.04
 30
0.0
 11
40.7
 21
20.04
 31
0.0
  0
LINE
  5
349
330
1F
100
AcDbEntity
  8
AM_7
100
AcDbLine
 10
-40.7
 20
17.04
 30
0.0
 11
40.7
 21
17.04
 31
0.0
  0
LINE
  5
34A
330
1F
100
AcDbEntity
  8
AM_7
100
AcDbLine
 10
-12.125
 20
-16.62
 30
0.0
 11
-8.975000000000005
 21
-16.62
 31
0.0
  0
LINE
  5
34B
330
1F
100
AcDbEntity
  8
AM_7
100
AcDbLine
 10
-10.55
 20
-18.195
 30
0.0
 11
-10.55
 21
-15.045
 31
0.0
  0
LINE
  5
34C
330
1F
100
AcDbEntity
  8
AM_7
100
AcDbLine
 10
-12.125
 20
-12.12
 30
0.0
 11
-8.974999999999998
 21
-12.12
 31
0.0
  0
LINE
  5
34D
330
1F
100
AcDbEntity
  8
AM_7
100
AcDbLine
 10
-10.55
 20
-13.695
 30
0.0
 11
-10.55
 21
-10.545
 31
0.0
  0
LINE
  5
34E
330
1F
100
AcDbEntity
  8
AM_7
100
AcDbLine
 10
-24.13575
 20
7.809
 30
0.0
 11
-22.85225
 21
7.809
 31
0.0
  0
LINE
  5
34F
330
1F
100
AcDbEntity
  8
AM_7
100
AcDbLine
 10
-23.742
 20
7.41525
 30
0.0
 11
-23.742
 21
8.20275
 31
0.0
  0
LINE
  5
350
330
1F
100
AcDbEntity
  8
AM_7
100
AcDbLine
 10
-23.246
 20
7.41525
 30
0.0
 11
-23.246
 21
8.20275
 31
0.0
  0
LINE
  5
351
330
1F
100
AcDbEntity
  8
AM_7
100
AcDbLine
 10
-19.24775
 20
7.809
 30
0.0
 11
-17.96425
 21
7.809
 31
0.0
  0
LINE
  5
352
330
1F
100
AcDbEntity
  8
AM_7
100
AcDbLine
 10
-18.854
 20
7.41525
 30
0.0
 11
-18.854
 21
8.20275
 31
0.0
  0
LINE
  5
353
330
1F
100
AcDbEntity
  8
AM_7
100
AcDbLine
 10
-18.358
 20
7.41525
 30
0.0
 11
-18.358
 21
8.20275
 31
0.0
  0
LINE
  5
354
330
1F
100
AcDbEntity
  8
AM_7
100
AcDbLine
 10
-21.44375
 20
5.612999999999999
 30
0.0
 11
-20.65625
 21
5.612999999999999
 31
0.0
  0
LINE
  5
355
330
1F
100
AcDbEntity
  8
AM_7
100
AcDbLine
 10
-21.05
 20
4.723250000000001
 30
0.0
 11
-21.05
 21
6.006749999999999
 31
0.0
  0
LINE
  5
356
330
1F
100
AcDbEntity
  8
AM_7
100
AcDbLine
 10
-21.44375
 20
5.117000000000002
 30
0.0
 11
-20.65625
 21
5.117000000000002
 31
0.0
  0
LINE
  5
357
330
1F
100
AcDbEntity
  8
AM_7
100
AcDbLine
 10
-21.44375
 20
10.005
 30
0.0
 11
-20.65625
 21
10.005
 31
0.0
  0
LINE
  5
358
330
1F
100
AcDbEntity
  8
AM_7
100
AcDbLine
 10
-21.05
 20
9.611249999999998
 30
0.0
 11
-21.05
 21
10.89475
 31
0.0
  0
LINE
  5
359
330
1F
100
AcDbEntity
  8
AM_7
100
AcDbLine
 10
-21.44375
 20
10.501
 30
0.0
 11
-20.65625
 21
10.501
 31
0.0
  0
DIMENSION
  5
35B
330
1F
100
AcDbEntity
  8
AM_5
100
AcDbDimension
280
     0
  2
*D1
 10
37.0
 20
-35.15500068664551
 30
0.0
 11
0.0
 21
-35.15500068664551
 31
0.0
 70
   160
  1
74 in
 71
     5
 42
74.0
 73
     0
 74
     0
 75
     0
  3
Standard
100
AcDbAlignedDimension
 13
-37.0
 23
0.0
 33
0.0
 14
37.0
 24
0.0
 34
0.0
100
AcDbRotatedDimension
1001
ACAD
1000
DSTYLE
1002
{
1070
   147
1040
0.6
1070
    42
1040
0.0
1070
    44
1040
0.0
1070
    41
1040
2.0
1070
   140
1040
2.0
1002
}
  0
DIMENSION
  5
36A
330
1F
100
AcDbEntity
  8
AM_5
100
AcDbDimension
280
     0
  2
*D2
 10
48.0
 20
24.155
 30
0.0
 11
48.0
 21
0.0
 31
0.0
 70
   160
  1
48.31 in
 71
     5
 42
48.31
 73
     0
 74
     0
 75
     0
 53
90.0
  3
Standard
100
AcDbAlignedDimension
 13
0.0
 23
-24.155
 33
0.0
 14
0.0
 24
24.155
 34
0.0
 50
90.0
100
AcDbRotatedDimension
1001
ACAD
1000
DSTYLE
1002
{
1070
   147
1040
0.6
1070
    42
1040
0.0
1070
    44
1040
0.0
1070
    41
1040
2.0
1070
   140
1040
2.0
1002
}
  0
POINT
  5
379
330
1F
100
AcDbEntity
  8
2d ConnectionPoints
100
AcDbPoint
 10
0.0
 20
0.0
 30
0.0
  0
POINT
  5
37A
330
1F
100
AcDbEntity
  8
2d ConnectionPoints
100
AcDbPoint
 10
0.0
 20
23.781
 30
0.0
  0
POINT
  5
37B
330
1F
100
AcDbEntity
  8
2d ConnectionPoints
100
AcDbPoint
 10
0.0
 20
-23.781
 30
0.0
  0
POINT
  5
37C
330
1F
100
AcDbEntity
  8
2d ConnectionPoints
100
AcDbPoint
 10
-36.646
 20
0.0000000000000013
 30
0.0
  0
POINT
  5
37D
330
1F
100
AcDbEntity
  8
2d ConnectionPoints
100
AcDbPoint
 10
36.646
 20
0.0000000000000013
 30
0.0
  0
POINT
  5
37E
330
1F
100
AcDbEntity
  8
2d ConnectionPoints
100
AcDbPoint
 10
0.0
 20
0.0000000000000027
 30
0.0
  0
POINT
  5
37F
330
1F
100
AcDbEntity
  8
2d ConnectionPoints
100
AcDbPoint
 10
17.5
 20
3.625
 30
0.0
  0
POINT
  5
380
330
1F
100
AcDbEntity
  8
2d ConnectionPoints
100
AcDbPoint
 10
36.605
 20
3.670000000000001
 30
0.0
  0
POINT
  5
381
330
1F
100
AcDbEntity
  8
2d ConnectionPoints
100
AcDbPoint
 10
0.0
 20
0.0000000000000027
 30
0.0
  0
POINT
  5
382
330
1F
100
AcDbEntity
  8
2d ConnectionPoints
100
AcDbPoint
 10
36.766
 20
13.281
 30
0.0
  0
POINT
  5
383
330
1F
100
AcDbEntity
  8
2d ConnectionPoints
100
AcDbPoint
 10
19.49
 20
12.469
 30
0.0
  0
POINT
  5
384
330
1F
100
AcDbEntity
  8
2d ConnectionPoints
100
AcDbPoint
 10
36.674
 20
-8.100000000000001
 30
0.0
  0
POINT
  5
385
330
1F
100
AcDbEntity
  8
2d ConnectionPoints
100
AcDbPoint
 10
25.949
 20
-7.788
 30
0.0
  0
ENDSEC
  0
SECTION
  2
OBJECTS
  0
DICTIONARY
  5
C
330
0
100
AcDbDictionary
281
     1
  3
ACAD_DETAILVIEWSTYLE
350
38D
  3
ACAD_GROUP
350
D
  3
ACAD_LAYOUT
350
1A
  3
ACAD_MATERIAL
350
43
  3
ACAD_MLEADERSTYLE
350
5B
  3
ACAD_MLINESTYLE
350
17
  3
ACAD_PLOTSETTINGS
350
19
  3
ACAD_PLOTSTYLENAME
350
E
  3
ACAD_SCALELIST
350
47
  3
ACAD_SECTIONVIEWSTYLE
350
38E
  3
ACAD_TABLESTYLE
350
59
  3
ACAD_VISUALSTYLE
350
2A
  3
ACDB_RECOMPOSE_DATA
350
38A
  3
AcDbVariableDictionary
350
386
  0
SUN
  5
5D
330
29
100
AcDbSun
 90
        1
290
     0
 63
     7
421
 16777215
 40
1.0
291
     1
 91
  2455826
 92
 54000000
292
     0
 70
     2
 71
   256
280
     1
  0
DICTIONARY
  5
38D
102
{ACAD_REACTORS
330
C
102
}
330
C
100
AcDbDictionary
281
     1
  0
DICTIONARY
  5
D
102
{ACAD_REACTORS
330
C
102
}
330
C
100
AcDbDictionary
281
     1
  0
DICTIONARY
  5
1A
102
{ACAD_REACTORS
330
C
102
}
330
C
100
AcDbDictionary
281
     1
  3
Layout1
350
1E
  3
Layout2
350
26
  3
Model
350
22
  0
DICTIONARY
  5
43
102
{ACAD_REACTORS
330
C
102
}
330
C
100
AcDbDictionary
281
     1
  3
ByBlock
350
45
  3
ByLayer
350
44
  3
Global
350
46
  0
DICTIONARY
  5
5B
102
{ACAD_REACTORS
330
C
102
}
330
C
100
AcDbDictionary
281
     1
  3
Standard
350
5C
  0
DICTIONARY
  5
17
102
{ACAD_REACTORS
330
C
102
}
330
C
100
AcDbDictionary
281
     1
  3
Standard
350
18
  0
DICTIONARY
  5
19
102
{ACAD_REACTORS
330
C
102
}
330
C
100
AcDbDictionary
281
     1
  0
ACDBDICTIONARYWDFLT
  5
E
102
{ACAD_REACTORS
330
C
102
}
330
C
100
AcDbDictionary
281
     1
  3
Normal
350
F
100
AcDbDictionaryWithDefault
340
F
  0
DICTIONARY
  5
47
102
{ACAD_REACTORS
330
C
102
}
330
C
100
AcDbDictionary
281
     1
  3
A0
350
48
  3
A1
350
49
  3
A2
350
4A
  3
A3
350
4B
  3
A4
350
4C
  3
A5
350
4D
  3
A6
350
4E
  3
A7
350
4F
  3
A8
350
50
  3
A9
350
51
  3
B1
350
52
  3
B2
350
53
  3
B3
350
54
  3
B4
350
55
  3
B5
350
56
  3
B6
350
57
  3
B7
350
58
  0
DICTIONARY
  5
38E
102
{ACAD_REACTORS
330
C
102
}
330
C
100
AcDbDictionary
281
     1
  0
DICTIONARY
  5
59
102
{ACAD_REACTORS
330
C
102
}
330
C
100
AcDbDictionary
281
     1
  3
Standard
350
5A
  0
DICTIONARY
  5
2A
102
{ACAD_REACTORS
330
C
102
}
330
C
100
AcDbDictionary
281
     1
  3
2dWireframe
350
2F
  3
Basic
350
32
  3
Brighten
350
36
  3
ColorChange
350
3A
  3
Conceptual
350
34
  3
Dim
350
35
  3
EdgeColorOff
350
3D
  3
Facepattern
350
39
  3
Flat
350
2B
  3
FlatWithEdges
350
2C
  3
Gouraud
350
2D
  3
GouraudWithEdges
350
2E
  3
Hidden
350
31
  3
JitterOff
350
3B
  3
Linepattern
350
38
  3
OverhangOff
350
3C
  3
Realistic
350
33
  3
Shaded
350
42
  3
Shaded with edges
350
41
  3
Shades of Gray
350
3E
  3
Sketchy
350
3F
  3
Thicken
350
37
  3
Wireframe
350
30
  3
X-Ray
350
40
  0
XRECORD
  5
38A
102
{ACAD_REACTORS
330
C
102
}
330
C
100
AcDbXrecord
280
     1
 90
        1
330
5A
  0
DICTIONARY
  5
386
102
{ACAD_REACTORS
330
C
102
}
330
C
100
AcDbDictionary
281
     1
  3
CANNOSCALE
350
387
  3
CMLEADERSTYLE
350
38C
  3
CTABLESTYLE
350
38B
  0
LAYOUT
  5
1E
102
{ACAD_REACTORS
330
1A
102
}
330
1A
100
AcDbPlotSettings
  1

  2
none_device
  4

  6

 40
0.0
 41
0.0
 42
0.0
 43
0.0
 44
0.0
 45
0.0
 46
0.0
 47
0.0
 48
0.0
 49
0.0
140
0.0
141
0.0
142
1.0
143
1.0
 70
   688
 72
     0
 73
     0
 74
     5
  7

 75
    16
 76
     0
 77
     2
 78
   300
147
1.0
148
0.0
149
0.0
100
AcDbLayout
  1
Layout1
 70
     1
 71
     1
 10
0.0
 20
0.0
 11
12.0
 21
9.0
 12
0.0
 22
0.0
 32
0.0
 14
1.000000000000000E+20
 24
1.000000000000000E+20
 34
1.000000000000000E+20
 15
-1.000000000000000E+20
 25
-1.000000000000000E+20
 35
-1.000000000000000E+20
146
0.0
 13
0.0
 23
0.0
 33
0.0
 16
1.0
 26
0.0
 36
0.0
 17
0.0
 27
1.0
 37
0.0
 76
     0
330
1B
  0
LAYOUT
  5
26
102
{ACAD_REACTORS
330
1A
102
}
330
1A
100
AcDbPlotSettings
  1

  2
none_device
  4

  6

 40
0.0
 41
0.0
 42
0.0
 43
0.0
 44
0.0
 45
0.0
 46
0.0
 47
0.0
 48
0.0
 49
0.0
140
0.0
141
0.0
142
1.0
143
1.0
 70
   688
 72
     0
 73
     0
 74
     5
  7

 75
    16
 76
     0
 77
     2
 78
   300
147
1.0
148
0.0
149
0.0
100
AcDbLayout
  1
Layout2
 70
     1
 71
     2
 10
0.0
 20
0.0
 11
0.0
 21
0.0
 12
0.0
 22
0.0
 32
0.0
 14
0.0
 24
0.0
 34
0.0
 15
0.0
 25
0.0
 35
0.0
146
0.0
 13
0.0
 23
0.0
 33
0.0
 16
1.0
 26
0.0
 36
0.0
 17
0.0
 27
1.0
 37
0.0
 76
     0
330
23
  0
LAYOUT
  5
22
102
{ACAD_REACTORS
330
1A
102
}
330
1A
100
AcDbPlotSettings
  1

  2
none_device
  4
Letter_(8.50_x_11.00_Inches)
  6

 40
6.35
 41
6.35
 42
6.35000508
 43
6.35000508
 44
215.9
 45
279.4
 46
0.0
 47
0.0
 48
0.0
 49
0.0
140
0.0
141
0.0
142
1.0
143
1.0
 70
  1712
 72
     0
 73
     0
 74
     0
  7

 75
     0
 76
     0
 77
     2
 78
   300
147
1.0
148
0.0
149
0.0
100
AcDbLayout
  1
Model
 70
     1
 71
     0
 10
0.0
 20
0.0
 11
12.0
 21
9.0
 12
0.0
 22
0.0
 32
0.0
 14
-40.7
 24
-36.15974644935737
 34
0.0
 15
49.95525423728814
 25
27.07702372881356
 35
0.0
146
0.0
 13
0.0
 23
0.0
 33
0.0
 16
1.0
 26
0.0
 36
0.0
 17
0.0
 27
1.0
 37
0.0
 76
     0
330
1F
331
29
  0
MATERIAL
  5
45
102
{ACAD_REACTORS
330
43
102
}
330
43
100
AcDbMaterial
  1
ByBlock
 72
     1
 94
      127
  0
MATERIAL
  5
44
102
{ACAD_REACTORS
330
43
102
}
330
43
100
AcDbMaterial
  1
ByLayer
 72
     1
 94
      127
  0
MATERIAL
  5
46
102
{ACAD_REACTORS
330
43
102
}
330
43
100
AcDbMaterial
  1
Global
 72
     1
 94
      127
  0
MLEADERSTYLE
  5
5C
102
{ACAD_REACTORS
330
5B
102
}
330
5B
100
AcDbMLeaderStyle
179
     2
170
     2
171
     1
172
     0
 90
        2
 40
0.0
 41
0.0
173
     1
 91
-1056964608
340
14
 92
       -2
290
     1
 42
0.09
291
     1
 43
0.36
  3
Standard
341
0
 44
0.18
300

342
11
174
     1
178
     6
175
     1
176
     0
 93
-1056964608
 45
0.18
292
     0
297
     0
 46
0.18
343
0
 94
-1056964608
 47
1.0
 49
1.0
140
1.0
293
     1
141
0.0
294
     1
177
     0
142
1.0
295
     0
296
     0
143
0.125
271
     0
272
     9
273
     9
298
     0
  0
MLINESTYLE
  5
18
102
{ACAD_REACTORS
330
17
102
}
330
17
100
AcDbMlineStyle
  2
Standard
 70
     0
  3

 62
   256
 51
90.0
 52
90.0
 71
     2
 49
0.5
 62
   256
  6
BYLAYER
 49
-0.5
 62
   256
  6
BYLAYER
  0
ACDBPLACEHOLDER
  5
F
102
{ACAD_REACTORS
330
E
102
}
330
E
  0
SCALE
  5
48
102
{ACAD_REACTORS
330
47
102
}
330
47
100
AcDbScale
 70
     0
300
1:1
140
1.0
141
1.0
290
     1
  0
SCALE
  5
49
102
{ACAD_REACTORS
330
47
102
}
330
47
100
AcDbScale
 70
     0
300
1/128" = 1'-0"
140
0.0078125
141
12.0
290
     0
  0
SCALE
  5
4A
102
{ACAD_REACTORS
330
47
102
}
330
47
100
AcDbScale
 70
     0
300
1/64" = 1'-0"
140
0.015625
141
12.0
290
     0
  0
SCALE
  5
4B
102
{ACAD_REACTORS
330
47
102
}
330
47
100
AcDbScale
 70
     0
300
1/32" = 1'-0"
140
0.03125
141
12.0
290
     0
  0
SCALE
  5
4C
102
{ACAD_REACTORS
330
47
102
}
330
47
100
AcDbScale
 70
     0
300
1/16" = 1'-0"
140
0.0625
141
12.0
290
     0
  0
SCALE
  5
4D
102
{ACAD_REACTORS
330
47
102
}
330
47
100
AcDbScale
 70
     0
300
3/32" = 1'-0"
140
0.09375
141
12.0
290
     0
  0
SCALE
  5
4E
102
{ACAD_REACTORS
330
47
102
}
330
47
100
AcDbScale
 70
     0
300
1/8" = 1'-0"
140
0.125
141
12.0
290
     0
  0
SCALE
  5
4F
102
{ACAD_REACTORS
330
47
102
}
330
47
100
AcDbScale
 70
     0
300
3/16" = 1'-0"
140
0.1875
141
12.0
290
     0
  0
SCALE
  5
50
102
{ACAD_REACTORS
330
47
102
}
330
47
100
AcDbScale
 70
     0
300
1/4" = 1'-0"
140
0.25
141
12.0
290
     0
  0
SCALE
  5
51
102
{ACAD_REACTORS
330
47
102
}
330
47
100
AcDbScale
 70
     0
300
3/8" = 1'-0"
140
0.375
141
12.0
290
     0
  0
SCALE
  5
52
102
{ACAD_REACTORS
330
47
102
}
330
47
100
AcDbScale
 70
     0
300
1/2" = 1'-0"
140
0.5
141
12.0
290
     0
  0
SCALE
  5
53
102
{ACAD_REACTORS
330
47
102
}
330
47
100
AcDbScale
 70
     0
300
3/4" = 1'-0"
140
0.75
141
12.0
290
     0
  0
SCALE
  5
54
102
{ACAD_REACTORS
330
47
102
}
330
47
100
AcDbScale
 70
     0
300
1" = 1'-0"
140
1.0
141
12.0
290
     0
  0
SCALE
  5
55
102
{ACAD_REACTORS
330
47
102
}
330
47
100
AcDbScale
 70
     0
300
1-1/2" = 1'-0"
140
1.5
141
12.0
290
     0
  0
SCALE
  5
56
102
{ACAD_REACTORS
330
47
102
}
330
47
100
AcDbScale
 70
     0
300
3" = 1'-0"
140
3.0
141
12.0
290
     0
  0
SCALE
  5
57
102
{ACAD_REACTORS
330
47
102
}
330
47
100
AcDbScale
 70
     0
300
6" = 1'-0"
140
6.0
141
12.0
290
     0
  0
SCALE
  5
58
102
{ACAD_REACTORS
330
47
102
}
330
47
100
AcDbScale
 70
     0
300
1'-0" = 1'-0"
140
12.0
141
12.0
290
     0
  0
TABLESTYLE
  5
5A
102
{ACAD_REACTORS
330
59
102
}
102
{ACAD_XDICTIONARY
360
388
102
}
330
59
100
AcDbTableStyle
  3
Standard
 70
     0
 71
     0
 40
0.06
 41
0.06
280
     0
281
     0
  7
Standard
140
0.18
170
     2
 62
     0
 63
   257
283
     0
 90
        4
 91
        0
  1

274
    -2
284
     1
 64
     0
275
    -2
285
     1
 65
     0
276
    -2
286
     1
 66
     0
277
    -2
287
     1
 67
     0
278
    -2
288
     1
 68
     0
279
    -2
289
     1
 69
     0
  7
Standard
140
0.25
170
     5
 62
     0
 63
   257
283
     0
 90
        4
 91
        0
  1

274
    -2
284
     1
 64
     0
275
    -2
285
     1
 65
     0
276
    -2
286
     1
 66
     0
277
    -2
287
     1
 67
     0
278
    -2
288
     1
 68
     0
279
    -2
289
     1
 69
     0
  7
Standard
140
0.18
170
     5
 62
     0
 63
   257
283
     0
 90
        4
 91
        0
  1

274
    -2
284
     1
 64
     0
275
    -2
285
     1
 65
     0
276
    -2
286
     1
 66
     0
277
    -2
287
     1
 67
     0
278
    -2
288
     1
 68
     0
279
    -2
289
     1
 69
     0
  0
VISUALSTYLE
  5
2F
102
{ACAD_REACTORS
330
2A
102
}
330
2A
100
AcDbVisualStyle
  2
2dWireframe
 70
     4
177
     3
291
     0
 70
    58
 90
        0
176
     1
 90
        2
176
     1
 90
        0
176
     1
 90
        0
176
     1
 40
0.6
176
     1
 40
30.0
176
     1
 62
     7
420
 16777215
176
     1
 90
        1
176
     1
 90
        4
176
     1
 62
     7
176
     1
 62
   257
176
     1
 90
        1
176
     1
 90
        1
176
     1
 40
1.0
176
     1
 90
        0
176
     1
 62
   257
176
     1
 40
1.0
176
     1
 90
        1
176
     1
 90
        6
176
     1
 90
        2
176
     1
 62
     7
176
     1
 90
        5
176
     1
 90
        0
176
     1
 90
        0
176
     1
290
     0
176
     1
 90
        1
176
     1
 40
0.0
176
     1
 90
        0
176
     1
290
     1
176
     1
290
     1
176
     1
290
     0
176
     1
290
     0
176
     1
290
     0
176
     1
290
     0
176
     1
290
     0
176
     1
290
     0
176
     1
290
     0
176
     1
 90
       50
176
     1
 40
0.0
176
     1
 40
1.0
176
     1
 90
        0
176
     1
 62
    18
420
        0
176
     1
 90
       50
176
     1
 90
        3
176
     1
 62
     5
420
      255
176
     1
290
     0
176
     1
 90
       50
176
     1
 90
       50
176
     1
 90
       50
176
     1
290
     0
176
     1
 90
       50
176
     1
 62
   256
176
     0
 40
1.0
176
     0
 90
        2
176
     1
  1
strokes_ogs.tif
176
     1
290
     0
176
     1
 40
1.0
176
     1
 40
1.0
176
     1
  0
VISUALSTYLE
  5
32
102
{ACAD_REACTORS
330
2A
102
}
330
2A
100
AcDbVisualStyle
  2
Basic
 70
     7
177
     3
291
     1
 70
    58
 90
        1
176
     1
 90
        0
176
     1
 90
        1
176
     1
 90
        0
176
     1
 40
0.6
176
     1
 40
30.0
176
     1
 62
     7
420
 16777215
176
     1
 90
        0
176
     1
 90
        4
176
     1
 62
     7
176
     1
 62
   257
176
     1
 90
        1
176
     1
 90
        1
176
     1
 40
1.0
176
     1
 90
        8
176
     1
 62
     7
176
     1
 40
1.0
176
     1
 90
        1
176
     1
 90
        6
176
     1
 90
        2
176
     1
 62
     7
176
     1
 90
        5
176
     1
 90
        0
176
     1
 90
        0
176
     1
290
     0
176
     1
 90
        1
176
     1
 40
0.0
176
     1
 90
        0
176
     1
290
     0
176
     1
290
     1
176
     1
290
     1
176
     1
290
     0
176
     1
290
     0
176
     1
290
     0
176
     1
290
     0
176
     1
290
     0
176
     1
290
     0
176
     1
 90
       50
176
     1
 40
0.0
176
     1
 40
1.0
176
     1
 90
        0
176
     1
 62
    18
420
        0
176
     1
 90
       50
176
     1
 90
        3
176
     1
 62
     5
420
      255
176
     1
290
     0
176
     1
 90
       50
176
     1
 90
       50
176
     1
 90
       50
176
     1
290
     0
176
     1
 90
       50
176
     1
 62
   256
176
     0
 40
1.0
176
     0
 90
        2
176
     1
  1
strokes_ogs.tif
176
     1
290
     0
176
     1
 40
1.0
176
     1
 40
1.0
176
     1
  0
VISUALSTYLE
  5
36
102
{ACAD_REACTORS
330
2A
102
}
330
2A
100
AcDbVisualStyle
  2
Brighten
 70
    12
177
     3
291
     1
 70
    58
 90
        2
176
     1
 90
        2
176
     1
 90
        0
176
     1
 90
        0
176
     1
 40
0.6
176
     1
 40
30.0
176
     1
 62
     7
420
 16777215
176
     1
 90
        1
176
     1
 90
        4
176
     1
 62
     7
176
     1
 62
   257
176
     1
 90
        1
176
     1
 90
        1
176
     1
 40
1.0
176
     1
 90
        8
176
     1
 62
     7
176
     1
 40
1.0
176
     1
 90
        1
176
     1
 90
        6
176
     1
 90
        2
176
     1
 62
     7
176
     1
 90
        5
176
     1
 90
        0
176
     1
 90
        0
176
     1
290
     0
176
     1
 90
        1
176
     1
 40
50.0
176
     1
 90
        0
176
     1
290
     0
176
     1
290
     1
176
     1
290
     1
176
     1
290
     0
176
     1
290
     0
176
     1
290
     0
176
     1
290
     0
176
     1
290
     0
176
     1
290
     0
176
     1
 90
       50
176
     1
 40
0.0
176
     1
 40
1.0
176
     1
 90
        0
176
     1
 62
    18
420
        0
176
     1
 90
       50
176
     1
 90
        3
176
     1
 62
     5
420
      255
176
     1
290
     0
176
     1
 90
       50
176
     1
 90
       50
176
     1
 90
       50
176
     1
290
     0
176
     1
 90
       50
176
     1
 62
   256
176
     0
 40
1.0
176
     0
 90
        2
176
     1
  1
strokes_ogs.tif
176
     1
290
     0
176
     1
 40
1.0
176
     1
 40
1.0
176
     1
  0
VISUALSTYLE
  5
3A
102
{ACAD_REACTORS
330
2A
102
}
330
2A
100
AcDbVisualStyle
  2
ColorChange
 70
    16
177
     3
291
     1
 70
    58
 90
        2
176
     1
 90
        2
176
     1
 90
        3
176
     1
 90
        0
176
     1
 40
0.6
176
     1
 40
30.0
176
     1
 62
     8
420
  8421504
176
     1
 90
        1
176
     1
 90
        4
176
     1
 62
     7
176
     1
 62
   257
176
     1
 90
        1
176
     1
 90
        1
176
     1
 40
1.0
176
     1
 90
        8
176
     1
 62
     8
420
  8421504
176
     1
 40
1.0
176
     1
 90
        1
176
     1
 90
        6
176
     1
 90
        2
176
     1
 62
     7
176
     1
 90
        5
176
     1
 90
        0
176
     1
 90
        0
176
     1
290
     0
176
     1
 90
        1
176
     1
 40
0.0
176
     1
 90
        0
176
     1
290
     0
176
     1
290
     1
176
     1
290
     1
176
     1
290
     0
176
     1
290
     0
176
     1
290
     0
176
     1
290
     0
176
     1
290
     0
176
     1
290
     0
176
     1
 90
       50
176
     1
 40
0.0
176
     1
 40
1.0
176
     1
 90
        0
176
     1
 62
    18
420
        0
176
     1
 90
       50
176
     1
 90
        3
176
     1
 62
     5
420
      255
176
     1
290
     0
176
     1
 90
       50
176
     1
 90
       50
176
     1
 90
       50
176
     1
290
     0
176
     1
 90
       50
176
     1
 62
   256
176
     0
 40
1.0
176
     0
 90
        2
176
     1
  1
strokes_ogs.tif
176
     1
290
     0
176
     1
 40
1.0
176
     1
 40
1.0
176
     1
  0
VISUALSTYLE
  5
34
102
{ACAD_REACTORS
330
2A
102
}
330
2A
100
AcDbVisualStyle
  2
Conceptual
 70
     9
177
     3
291
     0
 70
    58
 90
        3
176
     1
 90
        2
176
     1
 90
        0
176
     1
 90
        0
176
     1
 40
0.6
176
     1
 40
30.0
176
     1
 62
     7
420
 16777215
176
     1
 90
        2
176
     1
 90
        2
176
     1
 62
     7
176
     1
 62
   257
176
     1
 90
        1
176
     1
 90
        1
176
     1
 40
179.0
176
     1
 90
        8
176
     1
 62
     7
176
     1
 40
1.0
176
     1
 90
        1
176
     1
 90
        6
176
     1
 90
        2
176
     1
 62
     7
176
     1
 90
        3
176
     1
 90
        0
176
     1
 90
        0
176
     1
290
     0
176
     1
 90
        1
176
     1
 40
0.0
176
     1
 90
        0
176
     1
290
     0
176
     1
290
     1
176
     1
290
     1
176
     1
290
     0
176
     1
290
     0
176
     1
290
     0
176
     1
290
     0
176
     1
290
     0
176
     1
290
     0
176
     1
 90
       50
176
     1
 40
0.0
176
     1
 40
1.0
176
     1
 90
        0
176
     1
 62
    18
420
        0
176
     1
 90
       50
176
     1
 90
        3
176
     1
 62
     5
420
      255
176
     1
290
     0
176
     1
 90
       50
176
     1
 90
       50
176
     1
 90
       50
176
     1
290
     0
176
     1
 90
       50
176
     1
 62
   256
176
     0
 40
1.0
176
     0
 90
        2
176
     1
  1
strokes_ogs.tif
176
     1
290
     0
176
     1
 40
1.0
176
     1
 40
1.0
176
     1
  0
VISUALSTYLE
  5
35
102
{ACAD_REACTORS
330
2A
102
}
330
2A
100
AcDbVisualStyle
  2
Dim
 70
    11
177
     3
291
     1
 70
    58
 90
        2
176
     1
 90
        2
176
     1
 90
        0
176
     1
 90
        0
176
     1
 40
0.6
176
     1
 40
30.0
176
     1
 62
     7
420
 16777215
176
     1
 90
        1
176
     1
 90
        4
176
     1
 62
     7
176
     1
 62
   257
176
     1
 90
        1
176
     1
 90
        1
176
     1
 40
1.0
176
     1
 90
        8
176
     1
 62
     7
176
     1
 40
1.0
176
     1
 90
        1
176
     1
 90
        6
176
     1
 90
        2
176
     1
 62
     7
176
     1
 90
        5
176
     1
 90
        0
176
     1
 90
        0
176
     1
290
     0
176
     1
 90
        1
176
     1
 40
-50.0
176
     1
 90
        0
176
     1
290
     0
176
     1
290
     1
176
     1
290
     1
176
     1
290
     0
176
     1
290
     0
176
     1
290
     0
176
     1
290
     0
176
     1
290
     0
176
     1
290
     0
176
     1
 90
       50
176
     1
 40
0.0
176
     1
 40
1.0
176
     1
 90
        0
176
     1
 62
    18
420
        0
176
     1
 90
       50
176
     1
 90
        3
176
     1
 62
     5
420
      255
176
     1
290
     0
176
     1
 90
       50
176
     1
 90
       50
176
     1
 90
       50
176
     1
290
     0
176
     1
 90
       50
176
     1
 62
   256
176
     0
 40
1.0
176
     0
 90
        2
176
     1
  1
strokes_ogs.tif
176
     1
290
     0
176
     1
 40
1.0
176
     1
 40
1.0
176
     1
  0
VISUALSTYLE
  5
3D
102
{ACAD_REACTORS
330
2A
102
}
330
2A
100
AcDbVisualStyle
  2
EdgeColorOff
 70
    22
177
     3
291
     1
 70
    58
 90
        2
176
     0
 90
        2
176
     0
 90
        0
176
     0
 90
        0
176
     0
 40
0.6
176
     0
 40
30.0
176
     0
 62
     7
420
 16777215
176
     0
 90
        1
176
     0
 90
        4
176
     0
 62
     7
176
     0
 62
   257
176
     0
 90
        1
176
     0
 90
        1
176
     0
 40
1.0
176
     0
 90
        8
176
     2
 62
     7
176
     0
 40
1.0
176
     0
 90
        1
176
     0
 90
        6
176
     0
 90
        2
176
     0
 62
     7
176
     0
 90
        5
176
     0
 90
        0
176
     0
 90
        0
176
     0
290
     0
176
     0
 90
        1
176
     0
 40
0.0
176
     0
 90
        0
176
     0
290
     0
176
     0
290
     1
176
     0
290
     1
176
     0
290
     0
176
     0
290
     0
176
     0
290
     0
176
     0
290
     0
176
     0
290
     0
176
     0
290
     0
176
     0
 90
       50
176
     0
 40
0.0
176
     0
 40
1.0
176
     0
 90
        0
176
     0
 62
    18
420
        0
176
     0
 90
       50
176
     0
 90
        3
176
     0
 62
     5
420
      255
176
     0
290
     0
176
     0
 90
       50
176
     0
 90
       50
176
     0
 90
       50
176
     0
290
     0
176
     0
 90
       50
176
     0
 62
   256
176
     0
 40
1.0
176
     0
 90
        2
176
     0
  1
strokes_ogs.tif
176
     0
290
     0
176
     0
 40
1.0
176
     0
 40
1.0
176
     0
  0
VISUALSTYLE
  5
39
102
{ACAD_REACTORS
330
2A
102
}
330
2A
100
AcDbVisualStyle
  2
Facepattern
 70
    15
177
     3
291
     1
 70
    58
 90
        2
176
     1
 90
        2
176
     1
 90
        0
176
     1
 90
        0
176
     1
 40
0.6
176
     1
 40
30.0
176
     1
 62
     7
420
 16777215
176
     1
 90
        1
176
     1
 90
        4
176
     1
 62
     7
176
     1
 62
   257
176
     1
 90
        1
176
     1
 90
        1
176
     1
 40
1.0
176
     1
 90
        8
176
     1
 62
     7
176
     1
 40
1.0
176
     1
 90
        1
176
     1
 90
        6
176
     1
 90
        2
176
     1
 62
     7
176
     1
 90
        5
176
     1
 90
        0
176
     1
 90
        0
176
     1
290
     0
176
     1
 90
        1
176
     1
 40
0.0
176
     1
 90
        0
176
     1
290
     0
176
     1
290
     1
176
     1
290
     1
176
     1
290
     0
176
     1
290
     0
176
     1
290
     0
176
     1
290
     0
176
     1
290
     0
176
     1
290
     0
176
     1
 90
       50
176
     1
 40
0.0
176
     1
 40
1.0
176
     1
 90
        0
176
     1
 62
    18
420
        0
176
     1
 90
       50
176
     1
 90
        3
176
     1
 62
     5
420
      255
176
     1
290
     0
176
     1
 90
       50
176
     1
 90
       50
176
     1
 90
       50
176
     1
290
     0
176
     1
 90
       50
176
     1
 62
   256
176
     0
 40
1.0
176
     0
 90
        2
176
     1
  1
strokes_ogs.tif
176
     1
290
     0
176
     1
 40
1.0
176
     1
 40
1.0
176
     1
  0
VISUALSTYLE
  5
2B
102
{ACAD_REACTORS
330
2A
102
}
330
2A
100
AcDbVisualStyle
  2
Flat
 70
     0
177
     3
291
     1
 70
    58
 90
        2
176
     1
 90
        1
176
     1
 90
        1
176
     1
 90
        2
176
     1
 40
0.6
176
     1
 40
30.0
176
     1
 62
     7
420
 16777215
176
     1
 90
        0
176
     1
 90
        0
176
     1
 62
     7
176
     1
 62
   257
176
     1
 90
        1
176
     1
 90
        1
176
     1
 40
1.0
176
     1
 90
        8
176
     1
 62
     7
176
     1
 40
1.0
176
     1
 90
        1
176
     1
 90
        6
176
     1
 90
        2
176
     1
 62
     7
176
     1
 90
        5
176
     1
 90
        0
176
     1
 90
        0
176
     1
290
     0
176
     1
 90
       13
176
     1
 40
0.0
176
     1
 90
        0
176
     1
290
     0
176
     1
290
     1
176
     1
290
     1
176
     1
290
     0
176
     1
290
     0
176
     1
290
     0
176
     1
290
     0
176
     1
290
     0
176
     1
290
     0
176
     1
 90
       50
176
     1
 40
0.0
176
     1
 40
1.0
176
     1
 90
        0
176
     1
 62
    18
420
        0
176
     1
 90
       50
176
     1
 90
        3
176
     1
 62
     5
420
      255
176
     1
290
     0
176
     1
 90
       50
176
     1
 90
       50
176
     1
 90
       50
176
     1
290
     0
176
     1
 90
       50
176
     1
 62
   256
176
     0
 40
1.0
176
     0
 90
        2
176
     1
  1
strokes_ogs.tif
176
     1
290
     0
176
     1
 40
1.0
176
     1
 40
1.0
176
     1
  0
VISUALSTYLE
  5
2C
102
{ACAD_REACTORS
330
2A
102
}
330
2A
100
AcDbVisualStyle
  2
FlatWithEdges
 70
     1
177
     3
291
     1
 70
    58
 90
        2
176
     1
 90
        1
176
     1
 90
        1
176
     1
 90
        2
176
     1
 40
0.6
176
     1
 40
30.0
176
     1
 62
     7
420
 16777215
176
     1
 90
        1
176
     1
 90
        0
176
     1
 62
     7
176
     1
 62
   257
176
     1
 90
        1
176
     1
 90
        1
176
     1
 40
1.0
176
     1
 90
        0
176
     1
 62
   257
176
     1
 40
1.0
176
     1
 90
        1
176
     1
 90
        6
176
     1
 90
        2
176
     1
 62
     7
176
     1
 90
        5
176
     1
 90
        0
176
     1
 90
        0
176
     1
290
     0
176
     1
 90
       13
176
     1
 40
0.0
176
     1
 90
        0
176
     1
290
     0
176
     1
290
     1
176
     1
290
     1
176
     1
290
     0
176
     1
290
     0
176
     1
290
     0
176
     1
290
     0
176
     1
290
     0
176
     1
290
     0
176
     1
 90
       50
176
     1
 40
0.0
176
     1
 40
1.0
176
     1
 90
        0
176
     1
 62
    18
420
        0
176
     1
 90
       50
176
     1
 90
        3
176
     1
 62
     5
420
      255
176
     1
290
     0
176
     1
 90
       50
176
     1
 90
       50
176
     1
 90
       50
176
     1
290
     0
176
     1
 90
       50
176
     1
 62
   256
176
     0
 40
1.0
176
     0
 90
        2
176
     1
  1
strokes_ogs.tif
176
     1
290
     0
176
     1
 40
1.0
176
     1
 40
1.0
176
     1
  0
VISUALSTYLE
  5
2D
102
{ACAD_REACTORS
330
2A
102
}
330
2A
100
AcDbVisualStyle
  2
Gouraud
 70
     2
177
     3
291
     1
 70
    58
 90
        2
176
     1
 90
        2
176
     1
 90
        1
176
     1
 90
        2
176
     1
 40
0.6
176
     1
 40
30.0
176
     1
 62
     7
420
 16777215
176
     1
 90
        0
176
     1
 90
        0
176
     1
 62
     7
176
     1
 62
   257
176
     1
 90
        1
176
     1
 90
        1
176
     1
 40
1.0
176
     1
 90
        0
176
     1
 62
     7
176
     1
 40
1.0
176
     1
 90
        1
176
     1
 90
        6
176
     1
 90
        2
176
     1
 62
     7
176
     1
 90
        5
176
     1
 90
        0
176
     1
 90
        0
176
     1
290
     0
176
     1
 90
       13
176
     1
 40
0.0
176
     1
 90
        0
176
     1
290
     0
176
     1
290
     1
176
     1
290
     1
176
     1
290
     0
176
     1
290
     0
176
     1
290
     0
176
     1
290
     0
176
     1
290
     0
176
     1
290
     0
176
     1
 90
       50
176
     1
 40
0.0
176
     1
 40
1.0
176
     1
 90
        0
176
     1
 62
    18
420
        0
176
     1
 90
       50
176
     1
 90
        3
176
     1
 62
     5
420
      255
176
     1
290
     0
176
     1
 90
       50
176
     1
 90
       50
176
     1
 90
       50
176
     1
290
     0
176
     1
 90
       50
176
     1
 62
   256
176
     0
 40
1.0
176
     0
 90
        2
176
     1
  1
strokes_ogs.tif
176
     1
290
     0
176
     1
 40
1.0
176
     1
 40
1.0
176
     1
  0
VISUALSTYLE
  5
2E
102
{ACAD_REACTORS
330
2A
102
}
330
2A
100
AcDbVisualStyle
  2
GouraudWithEdges
 70
     3
177
     3
291
     1
 70
    58
 90
        2
176
     1
 90
        2
176
     1
 90
        1
176
     1
 90
        2
176
     1
 40
0.6
176
     1
 40
30.0
176
     1
 62
     7
420
 16777215
176
     1
 90
        1
176
     1
 90
        0
176
     1
 62
     7
176
     1
 62
   257
176
     1
 90
        1
176
     1
 90
        1
176
     1
 40
1.0
176
     1
 90
        0
176
     1
 62
   257
176
     1
 40
1.0
176
     1
 90
        1
176
     1
 90
        6
176
     1
 90
        2
176
     1
 62
     7
176
     1
 90
        5
176
     1
 90
        0
176
     1
 90
        0
176
     1
290
     0
176
     1
 90
       13
176
     1
 40
0.0
176
     1
 90
        0
176
     1
290
     0
176
     1
290
     1
176
     1
290
     1
176
     1
290
     0
176
     1
290
     0
176
     1
290
     0
176
     1
290
     0
176
     1
290
     0
176
     1
290
     0
176
     1
 90
       50
176
     1
 40
0.0
176
     1
 40
1.0
176
     1
 90
        0
176
     1
 62
    18
420
        0
176
     1
 90
       50
176
     1
 90
        3
176
     1
 62
     5
420
      255
176
     1
290
     0
176
     1
 90
       50
176
     1
 90
       50
176
     1
 90
       50
176
     1
290
     0
176
     1
 90
       50
176
     1
 62
   256
176
     0
 40
1.0
176
     0
 90
        2
176
     1
  1
strokes_ogs.tif
176
     1
290
     0
176
     1
 40
1.0
176
     1
 40
1.0
176
     1
  0
VISUALSTYLE
  5
31
102
{ACAD_REACTORS
330
2A
102
}
330
2A
100
AcDbVisualStyle
  2
Hidden
 70
     6
177
     3
291
     0
 70
    58
 90
        1
176
     1
 90
        2
176
     1
 90
        2
176
     1
 90
        0
176
     1
 40
0.6
176
     1
 40
30.0
176
     1
 62
     7
420
 16777215
176
     1
 90
        2
176
     1
 90
        2
176
     1
 62
     7
176
     1
 62
   257
176
     1
 90
        2
176
     1
 90
        1
176
     1
 40
40.0
176
     1
 90
        0
176
     1
 62
   257
176
     1
 40
1.0
176
     1
 90
        1
176
     1
 90
        6
176
     1
 90
        2
176
     1
 62
     7
176
     1
 90
        3
176
     1
 90
        0
176
     1
 90
        0
176
     1
290
     0
176
     1
 90
        1
176
     1
 40
0.0
176
     1
 90
        0
176
     1
290
     0
176
     1
290
     1
176
     1
290
     1
176
     1
290
     0
176
     1
290
     0
176
     1
290
     0
176
     1
290
     0
176
     1
290
     0
176
     1
290
     0
176
     1
 90
       50
176
     1
 40
0.0
176
     1
 40
1.0
176
     1
 90
        0
176
     1
 62
    18
420
        0
176
     1
 90
       50
176
     1
 90
        3
176
     1
 62
     5
420
      255
176
     1
290
     0
176
     1
 90
       50
176
     1
 90
       50
176
     1
 90
       50
176
     1
290
     0
176
     1
 90
       50
176
     1
 62
   256
176
     0
 40
1.0
176
     0
 90
        2
176
     1
  1
strokes_ogs.tif
176
     1
290
     0
176
     1
 40
1.0
176
     1
 40
1.0
176
     1
  0
VISUALSTYLE
  5
3B
102
{ACAD_REACTORS
330
2A
102
}
330
2A
100
AcDbVisualStyle
  2
JitterOff
 70
    20
177
     3
291
     1
 70
    58
 90
        2
176
     0
 90
        2
176
     0
 90
        0
176
     0
 90
        0
176
     0
 40
0.6
176
     0
 40
30.0
176
     0
 62
     7
420
 16777215
176
     0
 90
        1
176
     0
 90
        4
176
     0
 62
     7
176
     0
 62
   257
176
     0
 90
        1
176
     0
 90
        1
176
     0
 40
1.0
176
     0
 90
       10
176
     2
 62
     7
176
     0
 40
1.0
176
     0
 90
        1
176
     0
 90
        6
176
     0
 90
        2
176
     0
 62
     7
176
     0
 90
        5
176
     0
 90
        0
176
     0
 90
        0
176
     0
290
     0
176
     0
 90
        1
176
     0
 40
0.0
176
     0
 90
        0
176
     0
290
     0
176
     0
290
     1
176
     0
290
     1
176
     0
290
     0
176
     0
290
     0
176
     0
290
     0
176
     0
290
     0
176
     0
290
     0
176
     0
290
     0
176
     0
 90
       50
176
     0
 40
0.0
176
     0
 40
1.0
176
     0
 90
        0
176
     0
 62
    18
420
        0
176
     0
 90
       50
176
     0
 90
        3
176
     0
 62
     5
420
      255
176
     0
290
     0
176
     0
 90
       50
176
     0
 90
       50
176
     0
 90
       50
176
     0
290
     0
176
     0
 90
       50
176
     0
 62
   256
176
     0
 40
1.0
176
     0
 90
        2
176
     0
  1
strokes_ogs.tif
176
     0
290
     0
176
     0
 40
1.0
176
     0
 40
1.0
176
     0
  0
VISUALSTYLE
  5
38
102
{ACAD_REACTORS
330
2A
102
}
330
2A
100
AcDbVisualStyle
  2
Linepattern
 70
    14
177
     3
291
     1
 70
    58
 90
        2
176
     1
 90
        2
176
     1
 90
        0
176
     1
 90
        0
176
     1
 40
0.6
176
     1
 40
30.0
176
     1
 62
     7
420
 16777215
176
     1
 90
        1
176
     1
 90
        4
176
     1
 62
     7
176
     1
 62
   257
176
     1
 90
        7
176
     1
 90
        7
176
     1
 40
1.0
176
     1
 90
        8
176
     1
 62
     7
176
     1
 40
1.0
176
     1
 90
        1
176
     1
 90
        6
176
     1
 90
        2
176
     1
 62
     7
176
     1
 90
        5
176
     1
 90
        0
176
     1
 90
        0
176
     1
290
     0
176
     1
 90
        1
176
     1
 40
0.0
176
     1
 90
        0
176
     1
290
     0
176
     1
290
     1
176
     1
290
     1
176
     1
290
     0
176
     1
290
     0
176
     1
290
     0
176
     1
290
     0
176
     1
290
     0
176
     1
290
     0
176
     1
 90
       50
176
     1
 40
0.0
176
     1
 40
1.0
176
     1
 90
        0
176
     1
 62
    18
420
        0
176
     1
 90
       50
176
     1
 90
        3
176
     1
 62
     5
420
      255
176
     1
290
     0
176
     1
 90
       50
176
     1
 90
       50
176
     1
 90
       50
176
     1
290
     0
176
     1
 90
       50
176
     1
 62
   256
176
     0
 40
1.0
176
     0
 90
        2
176
     1
  1
strokes_ogs.tif
176
     1
290
     0
176
     1
 40
1.0
176
     1
 40
1.0
176
     1
  0
VISUALSTYLE
  5
3C
102
{ACAD_REACTORS
330
2A
102
}
330
2A
100
AcDbVisualStyle
  2
OverhangOff
 70
    21
177
     3
291
     1
 70
    58
 90
        2
176
     0
 90
        2
176
     0
 90
        0
176
     0
 90
        0
176
     0
 40
0.6
176
     0
 40
30.0
176
     0
 62
     7
420
 16777215
176
     0
 90
        1
176
     0
 90
        4
176
     0
 62
     7
176
     0
 62
   257
176
     0
 90
        1
176
     0
 90
        1
176
     0
 40
1.0
176
     0
 90
        9
176
     2
 62
     7
176
     0
 40
1.0
176
     0
 90
        1
176
     0
 90
        6
176
     0
 90
        2
176
     0
 62
     7
176
     0
 90
        5
176
     0
 90
        0
176
     0
 90
        0
176
     0
290
     0
176
     0
 90
        1
176
     0
 40
0.0
176
     0
 90
        0
176
     0
290
     0
176
     0
290
     1
176
     0
290
     1
176
     0
290
     0
176
     0
290
     0
176
     0
290
     0
176
     0
290
     0
176
     0
290
     0
176
     0
290
     0
176
     0
 90
       50
176
     0
 40
0.0
176
     0
 40
1.0
176
     0
 90
        0
176
     0
 62
    18
420
        0
176
     0
 90
       50
176
     0
 90
        3
176
     0
 62
     5
420
      255
176
     0
290
     0
176
     0
 90
       50
176
     0
 90
       50
176
     0
 90
       50
176
     0
290
     0
176
     0
 90
       50
176
     0
 62
   256
176
     0
 40
1.0
176
     0
 90
        2
176
     0
  1
strokes_ogs.tif
176
     0
290
     0
176
     0
 40
1.0
176
     0
 40
1.0
176
     0
  0
VISUALSTYLE
  5
33
102
{ACAD_REACTORS
330
2A
102
}
330
2A
100
AcDbVisualStyle
  2
Realistic
 70
     8
177
     3
291
     0
 70
    58
 90
        2
176
     1
 90
        3
176
     1
 90
        0
176
     1
 90
        2
176
     1
 40
0.6
176
     1
 40
30.0
176
     1
 62
     7
420
 16777215
176
     1
 90
        0
176
     1
 90
        0
176
     1
 62
     7
176
     1
 62
   257
176
     1
 90
        1
176
     1
 90
        1
176
     1
 40
1.0
176
     1
 90
        8
176
     1
 62
   257
176
     1
 40
1.0
176
     1
 90
        1
176
     1
 90
        6
176
     1
 90
        2
176
     1
 62
     7
176
     1
 90
        3
176
     1
 90
        0
176
     1
 90
        0
176
     1
290
     0
176
     1
 90
       13
176
     1
 40
0.0
176
     1
 90
        0
176
     1
290
     0
176
     1
290
     1
176
     1
290
     1
176
     1
290
     0
176
     1
290
     0
176
     1
290
     0
176
     1
290
     0
176
     1
290
     0
176
     1
290
     0
176
     1
 90
       50
176
     1
 40
0.0
176
     1
 40
1.0
176
     1
 90
        0
176
     1
 62
    18
420
        0
176
     1
 90
       50
176
     1
 90
        3
176
     1
 62
     5
420
      255
176
     1
290
     0
176
     1
 90
       50
176
     1
 90
       50
176
     1
 90
       50
176
     1
290
     0
176
     1
 90
       50
176
     1
 62
   256
176
     0
 40
1.0
176
     0
 90
        2
176
     1
  1
strokes_ogs.tif
176
     1
290
     0
176
     1
 40
1.0
176
     1
 40
1.0
176
     1
  0
VISUALSTYLE
  5
42
102
{ACAD_REACTORS
330
2A
102
}
330
2A
100
AcDbVisualStyle
  2
Shaded
 70
    27
177
     3
291
     0
 70
    58
 90
        2
176
     1
 90
        2
176
     1
 90
        1
176
     1
 90
        2
176
     1
 40
0.6
176
     1
 40
30.0
176
     1
 62
     7
420
 16777215
176
     1
 90
        0
176
     1
 90
        4
176
     1
 62
     7
176
     1
 62
   257
176
     1
 90
        1
176
     1
 90
        1
176
     1
 40
1.0
176
     1
 90
        8
176
     1
 62
   257
176
     1
 40
1.0
176
     1
 90
        1
176
     1
 90
        6
176
     1
 90
        2
176
     1
 62
     8
420
  7895160
176
     1
 90
        3
176
     1
 90
        0
176
     1
 90
        0
176
     1
290
     0
176
     1
 90
        5
176
     1
 40
0.0
176
     1
 90
        0
176
     1
290
     0
176
     1
290
     1
176
     1
290
     1
176
     1
290
     0
176
     1
290
     0
176
     1
290
     0
176
     1
290
     0
176
     1
290
     0
176
     1
290
     0
176
     1
 90
       50
176
     1
 40
0.0
176
     1
 40
1.0
176
     1
 90
        0
176
     1
 62
    18
420
        0
176
     1
 90
       50
176
     1
 90
        3
176
     1
 62
     5
420
      255
176
     1
290
     0
176
     1
 90
       50
176
     1
 90
       50
176
     1
 90
       50
176
     1
290
     0
176
     1
 90
       50
176
     1
 62
   256
176
     0
 40
1.0
176
     0
 90
        2
176
     1
  1
strokes_ogs.tif
176
     1
290
     0
176
     1
 40
1.0
176
     1
 40
1.0
176
     1
  0
VISUALSTYLE
  5
41
102
{ACAD_REACTORS
330
2A
102
}
330
2A
100
AcDbVisualStyle
  2
Shaded with edges
 70
    26
177
     3
291
     0
 70
    58
 90
        2
176
     1
 90
        2
176
     1
 90
        1
176
     1
 90
        2
176
     1
 40
0.6
176
     1
 40
30.0
176
     1
 62
     7
420
 16777215
176
     1
 90
        1
176
     1
 90
       10
176
     1
 62
     7
176
     1
 62
   257
176
     1
 90
        2
176
     1
 90
        1
176
     1
 40
1.0
176
     1
 90
        8
176
     1
 62
   257
176
     1
 40
1.0
176
     1
 90
        1
176
     1
 90
        6
176
     1
 90
        2
176
     1
 62
     7
176
     1
 90
        3
176
     1
 90
        0
176
     1
 90
        0
176
     1
290
     0
176
     1
 90
        5
176
     1
 40
0.0
176
     1
 90
        0
176
     1
290
     0
176
     1
290
     1
176
     1
290
     1
176
     1
290
     0
176
     1
290
     0
176
     1
290
     0
176
     1
290
     0
176
     1
290
     0
176
     1
290
     0
176
     1
 90
       50
176
     1
 40
0.0
176
     1
 40
1.0
176
     1
 90
        0
176
     1
 62
    18
420
        0
176
     1
 90
       50
176
     1
 90
        3
176
     1
 62
     5
420
      255
176
     1
290
     0
176
     1
 90
       50
176
     1
 90
       50
176
     1
 90
       50
176
     1
290
     0
176
     1
 90
       50
176
     1
 62
   256
176
     0
 40
1.0
176
     0
 90
        2
176
     1
  1
strokes_ogs.tif
176
     1
290
     0
176
     1
 40
1.0
176
     1
 40
1.0
176
     1
  0
VISUALSTYLE
  5
3E
102
{ACAD_REACTORS
330
2A
102
}
330
2A
100
AcDbVisualStyle
  2
Shades of Gray
 70
    23
177
     3
291
     0
 70
    58
 90
        2
176
     1
 90
        2
176
     1
 90
        3
176
     1
 90
        0
176
     1
 40
0.6
176
     1
 40
30.0
176
     1
 62
     7
420
 16777215
176
     1
 90
        2
176
     1
 90
        2
176
     1
 62
     7
176
     1
 62
     7
176
     1
 90
        1
176
     1
 90
        1
176
     1
 40
40.0
176
     1
 90
        8
176
     1
 62
     7
176
     1
 40
1.0
176
     1
 90
        1
176
     1
 90
        6
176
     1
 90
        2
176
     1
 62
     7
176
     1
 90
        3
176
     1
 90
        0
176
     1
 90
        0
176
     1
290
     0
176
     1
 90
        1
176
     1
 40
0.0
176
     1
 90
        0
176
     1
290
     0
176
     1
290
     1
176
     1
290
     1
176
     1
290
     0
176
     1
290
     0
176
     1
290
     0
176
     1
290
     0
176
     1
290
     0
176
     1
290
     0
176
     1
 90
       50
176
     1
 40
0.0
176
     1
 40
1.0
176
     1
 90
        0
176
     1
 62
    18
420
        0
176
     1
 90
       50
176
     1
 90
        3
176
     1
 62
     5
420
      255
176
     1
290
     0
176
     1
 90
       50
176
     1
 90
       50
176
     1
 90
       50
176
     1
290
     0
176
     1
 90
       50
176
     1
 62
   256
176
     0
 40
1.0
176
     0
 90
        2
176
     1
  1
strokes_ogs.tif
176
     1
290
     0
176
     1
 40
1.0
176
     1
 40
1.0
176
     1
  0
VISUALSTYLE
  5
3F
102
{ACAD_REACTORS
330
2A
102
}
330
2A
100
AcDbVisualStyle
  2
Sketchy
 70
    24
177
     3
291
     0
 70
    58
 90
        1
176
     1
 90
        2
176
     1
 90
        2
176
     1
 90
        0
176
     1
 40
0.6
176
     1
 40
30.0
176
     1
 62
     7
420
 16777215
176
     1
 90
        2
176
     1
 90
        2
176
     1
 62
     7
176
     1
 62
     7
176
     1
 90
        1
176
     1
 90
        1
176
     1
 40
40.0
176
     1
 90
       11
176
     1
 62
     7
176
     1
 40
1.0
176
     1
 90
        1
176
     1
 90
        6
176
     1
 90
        2
176
     1
 62
     7
176
     1
 90
        6
176
     1
 90
        0
176
     1
 90
        0
176
     1
290
     0
176
     1
 90
        1
176
     1
 40
0.0
176
     1
 90
        0
176
     1
290
     0
176
     1
290
     1
176
     1
290
     1
176
     1
290
     0
176
     1
290
     0
176
     1
290
     0
176
     1
290
     0
176
     1
290
     0
176
     1
290
     0
176
     1
 90
       50
176
     1
 40
0.0
176
     1
 40
1.0
176
     1
 90
        0
176
     1
 62
    18
420
        0
176
     1
 90
       50
176
     1
 90
        3
176
     1
 62
     5
420
      255
176
     1
290
     0
176
     1
 90
       50
176
     1
 90
       50
176
     1
 90
       50
176
     1
290
     0
176
     1
 90
       50
176
     1
 62
   256
176
     0
 40
1.0
176
     0
 90
        2
176
     1
  1
strokes_ogs.tif
176
     1
290
     0
176
     1
 40
1.0
176
     1
 40
1.0
176
     1
  0
VISUALSTYLE
  5
37
102
{ACAD_REACTORS
330
2A
102
}
330
2A
100
AcDbVisualStyle
  2
Thicken
 70
    13
177
     3
291
     1
 70
    58
 90
        2
176
     1
 90
        2
176
     1
 90
        0
176
     1
 90
        0
176
     1
 40
0.6
176
     1
 40
30.0
176
     1
 62
     7
420
 16777215
176
     1
 90
        1
176
     1
 90
        4
176
     1
 62
     7
176
     1
 62
   257
176
     1
 90
        1
176
     1
 90
        1
176
     1
 40
1.0
176
     1
 90
       12
176
     1
 62
     7
176
     1
 40
1.0
176
     1
 90
        1
176
     1
 90
        6
176
     1
 90
        2
176
     1
 62
     7
176
     1
 90
        5
176
     1
 90
        0
176
     1
 90
        0
176
     1
290
     0
176
     1
 90
        1
176
     1
 40
0.0
176
     1
 90
        0
176
     1
290
     0
176
     1
290
     1
176
     1
290
     1
176
     1
290
     0
176
     1
290
     0
176
     1
290
     0
176
     1
290
     0
176
     1
290
     0
176
     1
290
     0
176
     1
 90
       50
176
     1
 40
0.0
176
     1
 40
1.0
176
     1
 90
        0
176
     1
 62
    18
420
        0
176
     1
 90
       50
176
     1
 90
        3
176
     1
 62
     5
420
      255
176
     1
290
     0
176
     1
 90
       50
176
     1
 90
       50
176
     1
 90
       50
176
     1
290
     0
176
     1
 90
       50
176
     1
 62
   256
176
     0
 40
1.0
176
     0
 90
        2
176
     1
  1
strokes_ogs.tif
176
     1
290
     0
176
     1
 40
1.0
176
     1
 40
1.0
176
     1
  0
VISUALSTYLE
  5
30
102
{ACAD_REACTORS
330
2A
102
}
330
2A
100
AcDbVisualStyle
  2
Wireframe
 70
     5
177
     3
291
     0
 70
    58
 90
        0
176
     1
 90
        2
176
     1
 90
        0
176
     1
 90
        0
176
     1
 40
0.6
176
     1
 40
30.0
176
     1
 62
     7
420
 16777215
176
     1
 90
        1
176
     1
 90
        4
176
     1
 62
     7
176
     1
 62
   257
176
     1
 90
        1
176
     1
 90
        1
176
     1
 40
1.0
176
     1
 90
        0
176
     1
 62
   257
176
     1
 40
1.0
176
     1
 90
        1
176
     1
 90
        6
176
     1
 90
        2
176
     1
 62
     7
176
     1
 90
        3
176
     1
 90
        0
176
     1
 90
        0
176
     1
290
     0
176
     1
 90
        1
176
     1
 40
0.0
176
     1
 90
        0
176
     1
290
     0
176
     1
290
     1
176
     1
290
     1
176
     1
290
     0
176
     1
290
     0
176
     1
290
     0
176
     1
290
     0
176
     1
290
     0
176
     1
290
     0
176
     1
 90
       50
176
     1
 40
0.0
176
     1
 40
1.0
176
     1
 90
        0
176
     1
 62
    18
420
        0
176
     1
 90
       50
176
     1
 90
        3
176
     1
 62
     5
420
      255
176
     1
290
     0
176
     1
 90
       50
176
     1
 90
       50
176
     1
 90
       50
176
     1
290
     0
176
     1
 90
       50
176
     1
 62
   256
176
     0
 40
1.0
176
     0
 90
        2
176
     1
  1
strokes_ogs.tif
176
     1
290
     0
176
     1
 40
1.0
176
     1
 40
1.0
176
     1
  0
VISUALSTYLE
  5
40
102
{ACAD_REACTORS
330
2A
102
}
330
2A
100
AcDbVisualStyle
  2
X-Ray
 70
    25
177
     3
291
     0
 70
    58
 90
        2
176
     1
 90
        2
176
     1
 90
        1
176
     1
 90
        1
176
     1
 40
0.5
176
     1
 40
30.0
176
     1
 62
     7
420
 16777215
176
     1
 90
        1
176
     1
 90
        0
176
     1
 62
     7
176
     1
 62
   257
176
     1
 90
        1
176
     1
 90
        1
176
     1
 40
1.0
176
     1
 90
        8
176
     1
 62
     7
176
     1
 40
1.0
176
     1
 90
        1
176
     1
 90
        6
176
     1
 90
        2
176
     1
 62
     7
176
     1
 90
        3
176
     1
 90
        0
176
     1
 90
        0
176
     1
290
     0
176
     1
 90
       13
176
     1
 40
0.0
176
     1
 90
        0
176
     1
290
     0
176
     1
290
     1
176
     1
290
     1
176
     1
290
     0
176
     1
290
     0
176
     1
290
     0
176
     1
290
     0
176
     1
290
     0
176
     1
290
     0
176
     1
 90
       50
176
     1
 40
0.0
176
     1
 40
1.0
176
     1
 90
        0
176
     1
 62
    18
420
        0
176
     1
 90
       50
176
     1
 90
        3
176
     1
 62
     5
420
      255
176
     1
290
     0
176
     1
 90
       50
176
     1
 90
       50
176
     1
 90
       50
176
     1
290
     0
176
     1
 90
       50
176
     1
 62
   256
176
     0
 40
1.0
176
     0
 90
        2
176
     1
  1
strokes_ogs.tif
176
     1
290
     0
176
     1
 40
1.0
176
     1
 40
1.0
176
     1
  0
DICTIONARYVAR
  5
387
102
{ACAD_REACTORS
330
386
102
}
330
386
100
DictionaryVariables
280
     0
  1
1:1
  0
DICTIONARYVAR
  5
38C
102
{ACAD_REACTORS
330
386
102
}
330
386
100
DictionaryVariables
280
     0
  1
Standard
  0
DICTIONARYVAR
  5
38B
102
{ACAD_REACTORS
330
386
102
}
330
386
100
DictionaryVariables
280
     0
  1
Standard
  0
DICTIONARY
  5
388
330
5A
100
AcDbDictionary
280
     1
281
     1
  3
ACAD_ROUNDTRIP_2008_TABLESTYLE_CELLSTYLEMAP
360
389
  0
CELLSTYLEMAP
  5
389
102
{ACAD_REACTORS
330
388
102
}
330
388
100
AcDbCellStyleMap
 90
        3
300
CELLSTYLE
  1
TABLEFORMAT_BEGIN
 90
        5
170
     1
 91
        0
 92
    32768
 62
   257
 93
        1
300
CONTENTFORMAT
  1
CONTENTFORMAT_BEGIN
 90
        0
 91
        0
 92
        4
 93
        0
300

 40
0.0
140
1.0
 94
        5
 62
     0
340
11
144
0.25
309
CONTENTFORMAT_END
171
     1
301
MARGIN
  1
CELLMARGIN_BEGIN
 40
0.06
 40
0.06
 40
0.06
 40
0.06
 40
0.06
 40
0.06
309
CELLMARGIN_END
 94
        6
 95
        1
302
GRIDFORMAT
  1
GRIDFORMAT_BEGIN
 90
        0
 91
        1
 62
     0
 92
       -2
340
14
 93
        0
 40
0.045
309
GRIDFORMAT_END
 95
        2
302
GRIDFORMAT
  1
GRIDFORMAT_BEGIN
 90
        0
 91
        1
 62
     0
 92
       -2
340
14
 93
        0
 40
0.045
309
GRIDFORMAT_END
 95
        4
302
GRIDFORMAT
  1
GRIDFORMAT_BEGIN
 90
        0
 91
        1
 62
     0
 92
       -2
340
14
 93
        0
 40
0.045
309
GRIDFORMAT_END
 95
        8
302
GRIDFORMAT
  1
GRIDFORMAT_BEGIN
 90
        0
 91
        1
 62
     0
 92
       -2
340
14
 93
        0
 40
0.045
309
GRIDFORMAT_END
 95
       16
302
GRIDFORMAT
  1
GRIDFORMAT_BEGIN
 90
        0
 91
        1
 62
     0
 92
       -2
340
14
 93
        0
 40
0.045
309
GRIDFORMAT_END
 95
       32
302
GRIDFORMAT
  1
GRIDFORMAT_BEGIN
 90
        0
 91
        1
 62
     0
 92
       -2
340
14
 93
        0
 40
0.045
309
GRIDFORMAT_END
309
TABLEFORMAT_END
  1
CELLSTYLE_BEGIN
 90
        1
 91
        1
300
_TITLE
309
CELLSTYLE_END
300
CELLSTYLE
  1
TABLEFORMAT_BEGIN
 90
        5
170
     1
 91
        0
 92
        0
 62
   257
 93
        1
300
CONTENTFORMAT
  1
CONTENTFORMAT_BEGIN
 90
        0
 91
        0
 92
        4
 93
        0
300

 40
0.0
140
1.0
 94
        5
 62
     0
340
11
144
0.18
309
CONTENTFORMAT_END
171
     1
301
MARGIN
  1
CELLMARGIN_BEGIN
 40
0.06
 40
0.06
 40
0.06
 40
0.06
 40
0.06
 40
0.06
309
CELLMARGIN_END
 94
        6
 95
        1
302
GRIDFORMAT
  1
GRIDFORMAT_BEGIN
 90
        0
 91
        1
 62
     0
 92
       -2
340
14
 93
        0
 40
0.045
309
GRIDFORMAT_END
 95
        2
302
GRIDFORMAT
  1
GRIDFORMAT_BEGIN
 90
        0
 91
        1
 62
     0
 92
       -2
340
14
 93
        0
 40
0.045
309
GRIDFORMAT_END
 95
        4
302
GRIDFORMAT
  1
GRIDFORMAT_BEGIN
 90
        0
 91
        1
 62
     0
 92
       -2
340
14
 93
        0
 40
0.045
309
GRIDFORMAT_END
 95
        8
302
GRIDFORMAT
  1
GRIDFORMAT_BEGIN
 90
        0
 91
        1
 62
     0
 92
       -2
340
14
 93
        0
 40
0.045
309
GRIDFORMAT_END
 95
       16
302
GRIDFORMAT
  1
GRIDFORMAT_BEGIN
 90
        0
 91
        1
 62
     0
 92
       -2
340
14
 93
        0
 40
0.045
309
GRIDFORMAT_END
 95
       32
302
GRIDFORMAT
  1
GRIDFORMAT_BEGIN
 90
        0
 91
        1
 62
     0
 92
       -2
340
14
 93
        0
 40
0.045
309
GRIDFORMAT_END
309
TABLEFORMAT_END
  1
CELLSTYLE_BEGIN
 90
        2
 91
        1
300
_HEADER
309
CELLSTYLE_END
300
CELLSTYLE
  1
TABLEFORMAT_BEGIN
 90
        5
170
     1
 91
        0
 92
        0
 62
   257
 93
        1
300
CONTENTFORMAT
  1
CONTENTFORMAT_BEGIN
 90
        0
 91
        0
 92
        4
 93
        0
300

 40
0.0
140
1.0
 94
        2
 62
     0
340
11
144
0.18
309
CONTENTFORMAT_END
171
     1
301
MARGIN
  1
CELLMARGIN_BEGIN
 40
0.06
 40
0.06
 40
0.06
 40
0.06
 40
0.06
 40
0.06
309
CELLMARGIN_END
 94
        6
 95
        1
302
GRIDFORMAT
  1
GRIDFORMAT_BEGIN
 90
        0
 91
        1
 62
     0
 92
       -2
340
14
 93
        0
 40
0.045
309
GRIDFORMAT_END
 95
        2
302
GRIDFORMAT
  1
GRIDFORMAT_BEGIN
 90
        0
 91
        1
 62
     0
 92
       -2
340
14
 93
        0
 40
0.045
309
GRIDFORMAT_END
 95
        4
302
GRIDFORMAT
  1
GRIDFORMAT_BEGIN
 90
        0
 91
        1
 62
     0
 92
       -2
340
14
 93
        0
 40
0.045
309
GRIDFORMAT_END
 95
        8
302
GRIDFORMAT
  1
GRIDFORMAT_BEGIN
 90
        0
 91
        1
 62
     0
 92
       -2
340
14
 93
        0
 40
0.045
309
GRIDFORMAT_END
 95
       16
302
GRIDFORMAT
  1
GRIDFORMAT_BEGIN
 90
        0
 91
        1
 62
     0
 92
       -2
340
14
 93
        0
 40
0.045
309
GRIDFORMAT_END
 95
       32
302
GRIDFORMAT
  1
GRIDFORMAT_BEGIN
 90
        0
 91
        1
 62
     0
 92
       -2
340
14
 93
        0
 40
0.045
309
GRIDFORMAT_END
309
TABLEFORMAT_END
  1
CELLSTYLE_BEGIN
 90
        3
 91
        2
300
_DATA
309
CELLSTYLE_END
  0
ENDSEC
  0
EOF
