  0
SECTION
  2
HEADER
  9
$ACADVER
  1
AC1027
  9
$ACADMAINTVER
 70
   105
  9
$DWGCODEPAGE
  3
ANSI_1252
  9
$COMMENTS
  1
File was created by Cadenas
  9
$LASTSAVEDBY
  1
psService
  9
$CUSTOMPROPERTYTAG
  1
NB
  9
$CUSTOMPROPERTY
  1
FCA18AAVJU-BYCQ54GEFU
  9
$CUSTOMPROPERTYTAG
  1
NN
  9
$CUSTOMPROPERTY
  1
(R32) Cassette Sky-Air Daikin FCA
  9
$CUSTOMPROPERTYTAG
  1
NT
  9
$CUSTOMPROPERTY
  1

  9
$CUSTOMPROPERTYTAG
  1
NBSYN
  9
$CUSTOMPROPERTY
  1
$PARTNUMBER.
  9
$CUSTOMPROPERTYTAG
  1
LINA
  9
$CUSTOMPROPERTY
  1
FCA18AAVJU-BYCQ54GEFU
  9
$CUSTOMPROPERTYTAG
  1
CATALOG
  9
$CUSTOMPROPERTY
  1
Daikin
  9
$CUSTOMPROPERTYTAG
  1
PARTNUMBER
  9
$CUSTOMPROPERTY
  1
FCA18AAVJU-BYCQ54GEFU
  9
$CUSTOMPROPERTYTAG
  1
DESCRIPTION
  9
$CUSTOMPROPERTY
  1
Air Conditioner Ducted Round Flow Cassette
  9
$CUSTOMPROPERTYTAG
  1
OVERALL_DEPTH
  9
$CUSTOMPROPERTY
  1
33.0625
  9
$CUSTOMPROPERTYTAG
  1
OVERALL_HEIGHT
  9
$CUSTOMPROPERTY
  1
9.6875
  9
$CUSTOMPROPERTYTAG
  1
OVERALL_WIDTH
  9
$CUSTOMPROPERTY
  1
33.0625
  9
$CUSTOMPROPERTYTAG
  1
URL
  9
$CUSTOMPROPERTY
  1
https://daikincomfort.com/
  9
$CUSTOMPROPERTYTAG
  1
RFA_FAMILY
  9
$CUSTOMPROPERTY
  1
Download Revit Family (RFA)
  9
$CUSTOMPROPERTYTAG
  1
COMPANY
  9
$CUSTOMPROPERTY
  1
daikin
  9
$REQUIREDVERSIONS
160
                 0
  9
$INSBASE
 10
0.0
 20
0.0
 30
0.0
  9
$EXTMIN
 10
-474.6625038084816
 20
-41.2750000726536
 30
0.0
  9
$EXTMAX
 10
486.5797614082836
 20
256.0929237287166
 30
0.0
  9
$LIMMIN
 10
0.0
 20
0.0
  9
$LIMMAX
 10
420.0
 20
297.0
  9
$ORTHOMODE
 70
     0
  9
$REGENMODE
 70
     1
  9
$FILLMODE
 70
     1
  9
$QTEXTMODE
 70
     0
  9
$MIRRTEXT
 70
     1
  9
$LTSCALE
 40
1.0
  9
$ATTMODE
 70
     1
  9
$TEXTSIZE
 40
2.5
  9
$TRACEWID
 40
1.0
  9
$TEXTSTYLE
  7
Standard
  9
$CLAYER
  8
0
  9
$CELTYPE
  6
ByLayer
  9
$CECOLOR
 62
   256
  9
$CELTSCALE
 40
1.0
  9
$DISPSILH
 70
     0
  9
$DIMSCALE
 40
1.0
  9
$DIMASZ
 40
2.5
  9
$DIMEXO
 40
0.625
  9
$DIMDLI
 40
3.75
  9
$DIMRND
 40
0.0
  9
$DIMDLE
 40
0.0
  9
$DIMEXE
 40
1.25
  9
$DIMTP
 40
0.0
  9
$DIMTM
 40
0.0
  9
$DIMTXT
 40
2.5
  9
$DIMCEN
 40
2.5
  9
$DIMTSZ
 40
0.0
  9
$DIMTOL
 70
     0
  9
$DIMLIM
 70
     0
  9
$DIMTIH
 70
     0
  9
$DIMTOH
 70
     0
  9
$DIMSE1
 70
     0
  9
$DIMSE2
 70
     0
  9
$DIMTAD
 70
     1
  9
$DIMZIN
 70
     8
  9
$DIMBLK
  1

  9
$DIMASO
 70
     1
  9
$DIMSHO
 70
     1
  9
$DIMPOST
  1

  9
$DIMAPOST
  1

  9
$DIMALT
 70
     0
  9
$DIMALTD
 70
     3
  9
$DIMALTF
 40
0.03937007874016
  9
$DIMLFAC
 40
1.0
  9
$DIMTOFL
 70
     1
  9
$DIMTVP
 40
0.0
  9
$DIMTIX
 70
     0
  9
$DIMSOXD
 70
     0
  9
$DIMSAH
 70
     0
  9
$DIMBLK1
  1

  9
$DIMBLK2
  1

  9
$DIMSTYLE
  2
ISO-25
  9
$DIMCLRD
 70
     0
  9
$DIMCLRE
 70
     0
  9
$DIMCLRT
 70
     0
  9
$DIMTFAC
 40
1.0
  9
$DIMGAP
 40
0.625
  9
$DIMJUST
 70
     0
  9
$DIMSD1
 70
     0
  9
$DIMSD2
 70
     0
  9
$DIMTOLJ
 70
     0
  9
$DIMTZIN
 70
     8
  9
$DIMALTZ
 70
     0
  9
$DIMALTTZ
 70
     0
  9
$DIMUPT
 70
     0
  9
$DIMDEC
 70
     2
  9
$DIMTDEC
 70
     2
  9
$DIMALTU
 70
     2
  9
$DIMALTTD
 70
     3
  9
$DIMTXSTY
  7
Standard
  9
$DIMAUNIT
 70
     0
  9
$DIMADEC
 70
     0
  9
$DIMALTRND
 40
0.0
  9
$DIMAZIN
 70
     0
  9
$DIMDSEP
 70
    44
  9
$DIMATFIT
 70
     3
  9
$DIMFRAC
 70
     0
  9
$DIMLDRBLK
  1

  9
$DIMLUNIT
 70
     2
  9
$DIMLWD
 70
    -2
  9
$DIMLWE
 70
    -2
  9
$DIMTMOVE
 70
     0
  9
$DIMFXL
 40
1.0
  9
$DIMFXLON
 70
     0
  9
$DIMJOGANG
 40
0.7853981633974483
  9
$DIMTFILL
 70
     0
  9
$DIMTFILLCLR
 70
     0
  9
$DIMARCSYM
 70
     0
  9
$DIMLTYPE
  6

  9
$DIMLTEX1
  6

  9
$DIMLTEX2
  6

  9
$DIMTXTDIRECTION
 70
     0
  9
$LUNITS
 70
     2
  9
$LUPREC
 70
     4
  9
$SKETCHINC
 40
1.0
  9
$FILLETRAD
 40
0.0
  9
$AUNITS
 70
     0
  9
$AUPREC
 70
     0
  9
$MENU
  1
.
  9
$ELEVATION
 40
0.0
  9
$PELEVATION
 40
0.0
  9
$THICKNESS
 40
0.0
  9
$LIMCHECK
 70
     0
  9
$CHAMFERA
 40
0.0
  9
$CHAMFERB
 40
0.0
  9
$CHAMFERC
 40
0.0
  9
$CHAMFERD
 40
0.0
  9
$SKPOLY
 70
     0
  9
$TDCREATE
 40
2461206.705456748
  9
$TDUCREATE
 40
2461206.622123414
  9
$TDUPDATE
 40
2461206.705456933
  9
$TDUUPDATE
 40
2461206.6221236
  9
$TDINDWG
 40
0.0000000116
  9
$TDUSRTIMER
 40
0.0000000116
  9
$USRTIMER
 70
     1
  9
$ANGBASE
 50
0.0
  9
$ANGDIR
 70
     0
  9
$PDMODE
 70
     0
  9
$PDSIZE
 40
0.0
  9
$PLINEWID
 40
0.0
  9
$SPLFRAME
 70
     0
  9
$SPLINETYPE
 70
     6
  9
$SPLINESEGS
 70
     8
  9
$HANDSEED
  5
1F6
  9
$SURFTAB1
 70
     6
  9
$SURFTAB2
 70
     6
  9
$SURFTYPE
 70
     6
  9
$SURFU
 70
     6
  9
$SURFV
 70
     6
  9
$UCSBASE
  2

  9
$UCSNAME
  2

  9
$UCSORG
 10
0.0
 20
0.0
 30
0.0
  9
$UCSXDIR
 10
1.0
 20
0.0
 30
0.0
  9
$UCSYDIR
 10
0.0
 20
1.0
 30
0.0
  9
$UCSORTHOREF
  2

  9
$UCSORTHOVIEW
 70
     0
  9
$UCSORGTOP
 10
0.0
 20
0.0
 30
0.0
  9
$UCSORGBOTTOM
 10
0.0
 20
0.0
 30
0.0
  9
$UCSORGLEFT
 10
0.0
 20
0.0
 30
0.0
  9
$UCSORGRIGHT
 10
0.0
 20
0.0
 30
0.0
  9
$UCSORGFRONT
 10
0.0
 20
0.0
 30
0.0
  9
$UCSORGBACK
 10
0.0
 20
0.0
 30
0.0
  9
$PUCSBASE
  2

  9
$PUCSNAME
  2

  9
$PUCSORG
 10
0.0
 20
0.0
 30
0.0
  9
$PUCSXDIR
 10
1.0
 20
0.0
 30
0.0
  9
$PUCSYDIR
 10
0.0
 20
1.0
 30
0.0
  9
$PUCSORTHOREF
  2

  9
$PUCSORTHOVIEW
 70
     0
  9
$PUCSORGTOP
 10
0.0
 20
0.0
 30
0.0
  9
$PUCSORGBOTTOM
 10
0.0
 20
0.0
 30
0.0
  9
$PUCSORGLEFT
 10
0.0
 20
0.0
 30
0.0
  9
$PUCSORGRIGHT
 10
0.0
 20
0.0
 30
0.0
  9
$PUCSORGFRONT
 10
0.0
 20
0.0
 30
0.0
  9
$PUCSORGBACK
 10
0.0
 20
0.0
 30
0.0
  9
$USERI1
 70
     0
  9
$USERI2
 70
     0
  9
$USERI3
 70
     0
  9
$USERI4
 70
     0
  9
$USERI5
 70
     0
  9
$USERR1
 40
0.0
  9
$USERR2
 40
0.0
  9
$USERR3
 40
0.0
  9
$USERR4
 40
0.0
  9
$USERR5
 40
0.0
  9
$WORLDVIEW
 70
     1
  9
$SHADEDGE
 70
     3
  9
$SHADEDIF
 70
    70
  9
$TILEMODE
 70
     1
  9
$MAXACTVP
 70
    64
  9
$PINSBASE
 10
0.0
 20
0.0
 30
0.0
  9
$PLIMCHECK
 70
     0
  9
$PEXTMIN
 10
1.000000000000000E+20
 20
1.000000000000000E+20
 30
1.000000000000000E+20
  9
$PEXTMAX
 10
-1.000000000000000E+20
 20
-1.000000000000000E+20
 30
-1.000000000000000E+20
  9
$PLIMMIN
 10
0.0
 20
0.0
  9
$PLIMMAX
 10
420.0
 20
297.0
  9
$UNITMODE
 70
     0
  9
$VISRETAIN
 70
     1
  9
$PLINEGEN
 70
     0
  9
$PSLTSCALE
 70
     1
  9
$TREEDEPTH
 70
  3020
  9
$CMLSTYLE
  2
Standard
  9
$CMLJUST
 70
     0
  9
$CMLSCALE
 40
20.0
  9
$PROXYGRAPHICS
 70
     1
  9
$MEASUREMENT
 70
     1
  9
$CELWEIGHT
370
    -1
  9
$ENDCAPS
280
     0
  9
$JOINSTYLE
280
     0
  9
$LWDISPLAY
290
     0
  9
$INSUNITS
 70
     4
  9
$HYPERLINKBASE
  1

  9
$STYLESHEET
  1

  9
$XEDIT
290
     1
  9
$CEPSNTYPE
380
     0
  9
$PSTYLEMODE
290
     1
  9
$FINGERPRINTGUID
  2
{6c2d5a2f-8be1-4cd4-9793-8d274f0102c2}
  9
$VERSIONGUID
  2
{FAEB1C32-E019-11D5-929B-00C0DF256EC4}
  9
$EXTNAMES
290
     1
  9
$PSVPSCALE
 40
0.0
  9
$OLESTARTUP
290
     0
  9
$SORTENTS
280
   127
  9
$INDEXCTL
280
     0
  9
$HIDETEXT
280
     1
  9
$XCLIPFRAME
280
     2
  9
$HALOGAP
280
     0
  9
$OBSCOLOR
 70
   257
  9
$OBSLTYPE
280
     0
  9
$INTERSECTIONDISPLAY
280
     0
  9
$INTERSECTIONCOLOR
 70
   257
  9
$DIMASSOC
280
     2
  9
$PROJECTNAME
  1

  9
$CAMERADISPLAY
290
     0
  9
$LENSLENGTH
 40
50.0
  9
$CAMERAHEIGHT
 40
0.0
  9
$STEPSPERSEC
 40
2.0
  9
$STEPSIZE
 40
6.0
  9
$3DDWFPREC
 40
2.0
  9
$PSOLWIDTH
 40
5.0
  9
$PSOLHEIGHT
 40
80.0
  9
$LOFTANG1
 40
1.570796326794897
  9
$LOFTANG2
 40
1.570796326794897
  9
$LOFTMAG1
 40
0.0
  9
$LOFTMAG2
 40
0.0
  9
$LOFTPARAM
 70
     7
  9
$LOFTNORMALS
280
     1
  9
$LATITUDE
 40
37.795
  9
$LONGITUDE
 40
-122.394
  9
$NORTHDIRECTION
 40
0.0
  9
$TIMEZONE
 70
 -8000
  9
$LIGHTGLYPHDISPLAY
280
     1
  9
$TILEMODELIGHTSYNCH
280
     1
  9
$CMATERIAL
347
44
  9
$SOLIDHIST
280
     0
  9
$SHOWHIST
280
     1
  9
$DWFFRAME
280
     2
  9
$DGNFRAME
280
     2
  9
$REALWORLDSCALE
290
     1
  9
$INTERFERECOLOR
 62
   256
  9
$CSHADOW
280
     0
  9
$SHADOWPLANELOCATION
 40
0.0
  0
ENDSEC
  0
SECTION
  2
CLASSES
  0
CLASS
  1
ACDBDICTIONARYWDFLT
  2
AcDbDictionaryWithDefault
  3
ObjectDBX Classes
 90
        0
 91
        3
280
     0
281
     0
  0
CLASS
  1
VISUALSTYLE
  2
AcDbVisualStyle
  3
ObjectDBX Classes
 90
     4095
 91
        3
280
     0
281
     0
  0
CLASS
  1
MATERIAL
  2
AcDbMaterial
  3
ObjectDBX Classes
 90
     1153
 91
        3
280
     0
281
     0
  0
CLASS
  1
SCALE
  2
AcDbScale
  3
ObjectDBX Classes
 90
     1153
 91
        3
280
     0
281
     0
  0
CLASS
  1
TABLESTYLE
  2
AcDbTableStyle
  3
ObjectDBX Classes
 90
     4095
 91
        3
280
     0
281
     0
  0
CLASS
  1
MLEADERSTYLE
  2
AcDbMLeaderStyle
  3
ACDB_MLEADERSTYLE_CLASS
 90
     4095
 91
        3
280
     0
281
     0
  0
CLASS
  1
SUN
  2
AcDbSun
  3
SCENEOE
 90
     1153
 91
        3
280
     0
281
     0
  0
CLASS
  1
DICTIONARYVAR
  2
AcDbDictionaryVar
  3
ObjectDBX Classes
 90
        0
 91
        3
280
     0
281
     0
  0
CLASS
  1
CELLSTYLEMAP
  2
AcDbCellStyleMap
  3
ObjectDBX Classes
 90
     1152
 91
        3
280
     0
281
     0
  0
ENDSEC
  0
SECTION
  2
TABLES
  0
TABLE
  2
VPORT
  5
8
330
0
100
AcDbSymbolTable
 70
     1
  0
VPORT
  5
29
330
8
100
AcDbSymbolTableRecord
100
AcDbViewportTableRecord
  2
*Active
 70
     0
 10
0.0
 20
0.0
 11
1.0
 21
1.0
 12
6.000323715155162
 22
107.4579448788789
 13
0.0
 23
0.0
 14
10.0
 24
10.0
 15
10.0
 25
10.0
 16
0.0
 26
0.0
 36
1.0
 17
0.0
 27
0.0
 37
0.0
 40
303.4152077011264
 41
3.231717274745483
 42
50.0
 43
0.0
 44
0.0
 50
0.0
 51
0.0
 71
     0
 72
   100
 73
     1
 74
     3
 75
     0
 76
     0
 77
     0
 78
     0
281
     0
 65
     1
110
0.0
120
0.0
130
0.0
111
1.0
121
0.0
131
0.0
112
0.0
122
1.0
132
0.0
 79
     0
146
0.0
348
2F
 60
     3
 61
     5
292
     1
282
     1
141
0.0
142
0.0
 63
   250
361
5D
  0
ENDTAB
  0
TABLE
  2
LTYPE
  5
5
330
0
100
AcDbSymbolTable
 70
     3
  0
LTYPE
  5
14
330
5
100
AcDbSymbolTableRecord
100
AcDbLinetypeTableRecord
  2
ByBlock
 70
     0
  3

 72
    65
 73
     0
 40
0.0
  0
LTYPE
  5
15
330
5
100
AcDbSymbolTableRecord
100
AcDbLinetypeTableRecord
  2
ByLayer
 70
     0
  3

 72
    65
 73
     0
 40
0.0
  0
LTYPE
  5
16
330
5
100
AcDbSymbolTableRecord
100
AcDbLinetypeTableRecord
  2
Continuous
 70
     0
  3
Solid line
 72
    65
 73
     0
 40
0.0
  0
LTYPE
  5
A7
330
5
100
AcDbSymbolTableRecord
100
AcDbLinetypeTableRecord
  2
Center
 70
     0
  3

 72
    65
 73
     4
 40
1.5
 49
0.45
 74
     0
 49
-0.5
 74
     0
 49
0.05
 74
     0
 49
-0.5
 74
     0
  0
LTYPE
  5
125
330
5
100
AcDbSymbolTableRecord
100
AcDbLinetypeTableRecord
  2
Dashed
 70
     0
  3

 72
    65
 73
     2
 40
2.0
 49
1.0
 74
     0
 49
-1.0
 74
     0
  0
ENDTAB
  0
TABLE
  2
LAYER
  5
2
330
0
100
AcDbSymbolTable
 70
     5
  0
LAYER
  5
10
330
2
100
AcDbSymbolTableRecord
100
AcDbLayerTableRecord
  2
0
 70
     0
 62
     7
  6
Continuous
370
    -3
390
F
347
46
348
0
  0
LAYER
  5
5E
330
2
100
AcDbSymbolTableRecord
100
AcDbLayerTableRecord
  2
AM_6
 70
     0
 62
    -2
  6
Continuous
370
    35
390
F
347
46
348
0
  0
LAYER
  5
A8
330
2
100
AcDbSymbolTableRecord
100
AcDbLayerTableRecord
  2
AM_7
 70
     0
 62
     7
  6
Center
370
    25
390
F
347
46
348
0
  0
LAYER
  5
AB
330
2
100
AcDbSymbolTableRecord
100
AcDbLayerTableRecord
  2
AM_0
 70
     0
 62
     7
  6
Continuous
370
    50
390
F
347
46
348
0
  0
LAYER
  5
126
330
2
100
AcDbSymbolTableRecord
100
AcDbLayerTableRecord
  2
AM_9
 70
     0
 62
     6
  6
Dashed
370
    25
390
F
347
46
348
0
  0
ENDTAB
  0
TABLE
  2
STYLE
  5
3
330
0
100
AcDbSymbolTable
 70
     1
  0
STYLE
  5
11
330
3
100
AcDbSymbolTableRecord
100
AcDbTextStyleTableRecord
  2
Standard
 70
     0
 40
0.0
 41
1.0
 50
0.0
 71
     0
 42
2.5
  3
txt
  4

  0
ENDTAB
  0
TABLE
  2
VIEW
  5
6
330
0
100
AcDbSymbolTable
 70
     0
  0
ENDTAB
  0
TABLE
  2
UCS
  5
7
330
0
100
AcDbSymbolTable
 70
     0
  0
ENDTAB
  0
TABLE
  2
APPID
  5
9
330
0
100
AcDbSymbolTable
 70
     1
  0
APPID
  5
12
330
9
100
AcDbSymbolTableRecord
100
AcDbRegAppTableRecord
  2
ACAD
 70
     0
  0
ENDTAB
  0
TABLE
  2
DIMSTYLE
  5
A
330
0
100
AcDbSymbolTable
 70
     1
100
AcDbDimStyleTable
  0
DIMSTYLE
105
27
330
A
100
AcDbSymbolTableRecord
100
AcDbDimStyleTableRecord
  2
ISO-25
 70
     0
 41
2.5
 42
0.625
 43
3.75
 44
1.25
 73
     0
 74
     0
 77
     1
 78
     8
140
2.5
141
2.5
143
0.03937007874016
147
0.625
171
     3
172
     1
178
     0
271
     2
272
     2
274
     3
278
    44
283
     0
284
     8
340
11
  0
ENDTAB
  0
TABLE
  2
BLOCK_RECORD
  5
1
330
0
100
AcDbSymbolTable
 70
     8
  0
BLOCK_RECORD
  5
1F
330
1
100
AcDbSymbolTableRecord
100
AcDbBlockTableRecord
  2
*Model_Space
340
22
 70
     0
280
     1
281
     0
  0
BLOCK_RECORD
  5
1B
330
1
100
AcDbSymbolTableRecord
100
AcDbBlockTableRecord
  2
*Paper_Space
340
1E
 70
     0
280
     1
281
     0
  0
BLOCK_RECORD
  5
23
330
1
100
AcDbSymbolTableRecord
100
AcDbBlockTableRecord
  2
*Paper_Space0
340
26
 70
     0
280
     1
281
     0
  0
BLOCK_RECORD
  5
81
330
1
100
AcDbSymbolTableRecord
100
AcDbBlockTableRecord
  2
1_FCA18AAVJU_BYCQ54GEFU_PART7_0_in_FCA18AAVJU_BYCQ54GEFU_2
340
0
102
{BLKREFS
331
82
102
}
 70
     0
280
     1
281
     0
  0
BLOCK_RECORD
  5
AD
330
1
100
AcDbSymbolTableRecord
100
AcDbBlockTableRecord
  2
2_FCA18AAVJU_BYCQ54GEFU_PART6_0_in_FCA18AAVJU_BYCQ54GEFU_2
340
0
102
{BLKREFS
331
AE
102
}
 70
     0
280
     1
281
     0
  0
BLOCK_RECORD
  5
D6
330
1
100
AcDbSymbolTableRecord
100
AcDbBlockTableRecord
  2
3_FCA18AAVJU_BYCQ54GEFU_PART5_0_in_FCA18AAVJU_BYCQ54GEFU_2
340
0
102
{BLKREFS
331
D7
102
}
 70
     0
280
     1
281
     0
  0
BLOCK_RECORD
  5
FF
330
1
100
AcDbSymbolTableRecord
100
AcDbBlockTableRecord
  2
4_FCA18AAVJU_BYCQ54GEFU_PART4_0_in_FCA18AAVJU_BYCQ54GEFU_2
340
0
102
{BLKREFS
331
100
102
}
 70
     0
280
     1
281
     0
  0
BLOCK_RECORD
  5
140
330
1
100
AcDbSymbolTableRecord
100
AcDbBlockTableRecord
  2
5_FCA18AAVJU_BYCQ54GEFU_PART3_0_in_FCA18AAVJU_BYCQ54GEFU_2
340
0
102
{BLKREFS
331
141
102
}
 70
     0
280
     1
281
     0
  0
BLOCK_RECORD
  5
16D
330
1
100
AcDbSymbolTableRecord
100
AcDbBlockTableRecord
  2
6_FCA18AAVJU_BYCQ54GEFU_PART2_0_in_FCA18AAVJU_BYCQ54GEFU_2
340
0
102
{BLKREFS
331
16E
102
}
 70
     0
280
     1
281
     0
  0
BLOCK_RECORD
  5
1C2
330
1
100
AcDbSymbolTableRecord
100
AcDbBlockTableRecord
  2
7_FCA18AAVJU_BYCQ54GEFU_PART1_0_in_FCA18AAVJU_BYCQ54GEFU_2
340
0
102
{BLKREFS
331
1C3
102
}
 70
     0
280
     1
281
     0
  0
ENDTAB
  0
ENDSEC
  0
SECTION
  2
BLOCKS
  0
BLOCK
  5
20
330
1F
100
AcDbEntity
  8
0
100
AcDbBlockBegin
  2
*Model_Space
 70
     2
 10
0.0
 20
0.0
 30
0.0
  3
*Model_Space
  1

  0
ENDBLK
  5
21
330
1F
100
AcDbEntity
  8
0
100
AcDbBlockEnd
  0
BLOCK
  5
1C
330
1B
100
AcDbEntity
 67
     1
  8
0
100
AcDbBlockBegin
  2
*Paper_Space
 70
     0
 10
0.0
 20
0.0
 30
0.0
  3
*Paper_Space
  1

  0
ENDBLK
  5
1D
330
1B
100
AcDbEntity
 67
     1
  8
0
100
AcDbBlockEnd
  0
BLOCK
  5
24
330
23
100
AcDbEntity
  8
0
100
AcDbBlockBegin
  2
*Paper_Space0
 70
     0
 10
0.0
 20
0.0
 30
0.0
  3
*Paper_Space0
  1

  0
ENDBLK
  5
25
330
23
100
AcDbEntity
  8
0
100
AcDbBlockEnd
  0
BLOCK
  5
83
330
81
100
AcDbEntity
  8
0
100
AcDbBlockBegin
  2
1_FCA18AAVJU_BYCQ54GEFU_PART7_0_in_FCA18AAVJU_BYCQ54GEFU_2
 70
     2
 10
0.0
 20
0.0
 30
0.0
  3
1_FCA18AAVJU_BYCQ54GEFU_PART7_0_in_FCA18AAVJU_BYCQ54GEFU_2
  1

  0
ATTDEF
  5
85
330
81
100
AcDbEntity
  8
AM_6
100
AcDbText
 10
-318.056250000021
 20
194.46874999998
 30
0.0
 40
0.5
  1
FCA18AAVJU-BYCQ54GEFU_PART7
100
AcDbAttributeDefinition
  3

  2
NB
 70
     8
280
     0
  0
ATTDEF
  5
86
330
81
100
AcDbEntity
  8
AM_6
100
AcDbText
 10
-318.056250000021
 20
193.96874999998
 30
0.0
 40
0.5
  1

100
AcDbAttributeDefinition
  3

  2
NN
 70
     8
280
     0
  0
ATTDEF
  5
87
330
81
100
AcDbEntity
  8
AM_6
100
AcDbText
 10
-318.056250000021
 20
193.46874999998
 30
0.0
 40
0.5
  1

100
AcDbAttributeDefinition
  3

  2
NT
 70
     8
280
     0
  0
ATTDEF
  5
88
330
81
100
AcDbEntity
  8
AM_6
100
AcDbText
 10
-318.056250000021
 20
192.96874999998
 30
0.0
 40
0.5
  1
$PARTNUMBER._PART7
100
AcDbAttributeDefinition
  3

  2
NBSYN
 70
     8
280
     0
  0
ATTDEF
  5
89
330
81
100
AcDbEntity
  8
AM_6
100
AcDbText
 10
-318.056250000021
 20
192.46874999998
 30
0.0
 40
0.5
  1
FCA18AAVJU-BYCQ54GEFU_PART7
100
AcDbAttributeDefinition
  3

  2
LINA
 70
     8
280
     0
  0
ATTDEF
  5
8A
330
81
100
AcDbEntity
  8
AM_6
100
AcDbText
 10
-318.056250000021
 20
191.96874999998
 30
0.0
 40
0.5
  1
Daikin
100
AcDbAttributeDefinition
  3

  2
CATALOG
 70
     8
280
     0
  0
ATTDEF
  5
8B
330
81
100
AcDbEntity
  8
AM_6
100
AcDbText
 10
-318.056250000021
 20
191.46874999998
 30
0.0
 40
0.5
  1
FCA18AAVJU-BYCQ54GEFU
100
AcDbAttributeDefinition
  3

  2
PARTNUMBER
 70
     8
280
     0
  0
ATTDEF
  5
8C
330
81
100
AcDbEntity
  8
AM_6
100
AcDbText
 10
-318.056250000021
 20
190.96874999998
 30
0.0
 40
0.5
  1
Air Conditioner Ducted Round Flow Cassette
100
AcDbAttributeDefinition
  3

  2
DESCRIPTION
 70
     8
280
     0
  0
ATTDEF
  5
8D
330
81
100
AcDbEntity
  8
AM_6
100
AcDbText
 10
-318.056250000021
 20
190.46874999998
 30
0.0
 40
0.5
  1
33.0625
100
AcDbAttributeDefinition
  3

  2
OVERALL_DEPTH
 70
     8
280
     0
  0
ATTDEF
  5
8E
330
81
100
AcDbEntity
  8
AM_6
100
AcDbText
 10
-318.056250000021
 20
189.96874999998
 30
0.0
 40
0.5
  1
9.6875
100
AcDbAttributeDefinition
  3

  2
OVERALL_HEIGHT
 70
     8
280
     0
  0
ATTDEF
  5
8F
330
81
100
AcDbEntity
  8
AM_6
100
AcDbText
 10
-318.056250000021
 20
189.46874999998
 30
0.0
 40
0.5
  1
33.0625
100
AcDbAttributeDefinition
  3

  2
OVERALL_WIDTH
 70
     8
280
     0
  0
ATTDEF
  5
90
330
81
100
AcDbEntity
  8
AM_6
100
AcDbText
 10
-318.056250000021
 20
188.96874999998
 30
0.0
 40
0.5
  1
https://daikincomfort.com/
100
AcDbAttributeDefinition
  3

  2
URL
 70
     8
280
     0
  0
ATTDEF
  5
91
330
81
100
AcDbEntity
  8
AM_6
100
AcDbText
 10
-318.056250000021
 20
188.46874999998
 30
0.0
 40
0.5
  1
Download Revit Family (RFA)
100
AcDbAttributeDefinition
  3

  2
RFA_FAMILY
 70
     8
280
     0
  0
ATTDEF
  5
92
330
81
100
AcDbEntity
  8
AM_6
100
AcDbText
 10
-318.056250000021
 20
187.96874999998
 30
0.0
 40
0.5
  1
daikin
100
AcDbAttributeDefinition
  3

  2
COMPANY
 70
     8
280
     0
  0
ATTDEF
  5
93
330
81
100
AcDbEntity
  8
AM_6
100
AcDbText
 10
-318.056250000021
 20
187.46874999998
 30
0.0
 40
0.5
  1
{$CADENAS_DATA/23d-libs/daikin/sky-air/sky-air20indoor20units/air_conditioner-indoor-daikin-fca.prj},240 {VTYP=3D},{NB=FCA18AAVJU-BYCQ54GEFU_PART7},{LINA=FCA18AAVJU-BYCQ54GEFU_PART7},{NN=(R32) Cassette Sky-Air Daikin FCA_PART7},{NOPRJ=TRUE},{DATE=03
100
AcDbAttributeDefinition
  3

  2
PSOL_0
 70
     9
280
     0
  0
ATTDEF
  5
94
330
81
100
AcDbEntity
  8
AM_6
100
AcDbText
 10
-318.056250000021
 20
186.96874999998
 30
0.0
 40
0.5
  1
26 19:23:42},{GEOMDATE=23.09.2025 06:26:16},{VERSION=},{LINEID=10},{WBVAR=},{WBNUMERIC=}  {NB=FCA18AAVJU-BYCQ54GEFU_PART7},{LINA=FCA18AAVJU-BYCQ54GEFU_PART7},{KT=DUMMY},{PARTNUMBER=FCA18AAVJU-BYCQ54GEFU},{PARTNUMBERMAP09=1.5Ton_FCA18AAVJU-BYCQ54GEFU
100
AcDbAttributeDefinition
  3

  2
PSOL_1
 70
     9
280
     0
  0
ATTDEF
  5
95
330
81
100
AcDbEntity
  8
AM_6
100
AcDbText
 10
-318.056250000021
 20
186.46874999998
 30
0.0
 40
0.5
  1
UAL_RETURN_AIR_FLOW=742},{ACTUAL_SUPPLY_AIR_FLOW=742},{AMBIENT_TEMPERATURE=0},{APPARENT_POWER=120},{ASSEMBLY_CODE=D3090},{BRANCH_DUCT_CENTER_OFFSET=0},{BRANCH_DUCT_DEPTH=0.00833333333333333},{BRANCH_DUCT_HEIGHT=0.3125},{BRANCH_DUCT_HORIZONTAL_OFFSET
100
AcDbAttributeDefinition
  3

  2
PSOL_2
 70
     9
280
     0
  0
ATTDEF
  5
96
330
81
100
AcDbEntity
  8
AM_6
100
AcDbText
 10
-318.056250000021
 20
185.96874999998
 30
0.0
 40
0.5
  1
041666666667},{BRANCH_DUCT_LEFT_CENTER_OFFSET=0.0677083333333333},{BRANCH_DUCT_POSITION_ANGLE=0},{BRANCH_DUCT_REFERENCE_LENGTH=1.37760416666667},{BRANCH_DUCT_RIGHT_CENTER_OFFSET=0.0833333333333333},{BRANCH_DUCT_WIDTH=1.14583333333333},{CATEGORY=Mech
100
AcDbAttributeDefinition
  3

  2
PSOL_3
 70
     9
280
     0
  0
ATTDEF
  5
97
330
81
100
AcDbEntity
  8
AM_6
100
AcDbText
 10
-318.056250000021
 20
185.46874999998
 30
0.0
 40
0.5
  1
 Equipment},{CEILING_OPENING_SPACE_DEPTH=2.98958333333333},{CEILING_OPENING_SPACE_WIDTH=2.98958333333333},{CLEARANCE_PRIMARY_OFFSET=5},{CLEARANCE_SECONDARY_OFFSET=0.65625},{CLEARANCE_VISIBILITY=1},{COIL_AIR_PRESSURE_DROP=0},{CONDENSATE_DRAIN_CONNECT
100
AcDbAttributeDefinition
  3

  2
PSOL_4
 70
     9
280
     0
  0
ATTDEF
  5
98
330
81
100
AcDbEntity
  8
AM_6
100
AcDbText
 10
-318.056250000021
 20
184.96874999998
 30
0.0
 40
0.5
  1
AMETER=1.25},{CONDENSATE_DRAIN_PIPE_HORIZONTAL_OFFSET=0.583333333333333},{CONDENSATE_DRAIN_PIPE_LENGTH=1.38016666666667},{CONDENSATE_DRAIN_PIPE_RADIUS=0.0520833333333333},{CONDENSATE_DRAIN_PIPE_VERTICAL_OFFSET=1.11458333333333},{COOLING_ENTERING_DRY
100
AcDbAttributeDefinition
  3

  2
PSOL_5
 70
     9
280
     0
  0
ATTDEF
  5
99
330
81
100
AcDbEntity
  8
AM_6
100
AcDbText
 10
-318.056250000021
 20
184.46874999998
 30
0.0
 40
0.5
  1
TEMPERATURE=0},{COOLING_ENTERING_WET_BULB_TEMPERATURE=0},{COOLING_LEAVING_DRY_BULB_TEMPERATURE=0},{COOLING_LEAVING_WET_BULB_TEMPERATURE=0},{COST=0},{DECORATION_PANEL_COVER_HEIGHT=0.135416666666667},{DECORATION_PANEL_DEPTH=3.11458333333333},{DECORATI
100
AcDbAttributeDefinition
  3

  2
PSOL_6
 70
     9
280
     0
  0
ATTDEF
  5
9A
330
81
100
AcDbEntity
  8
AM_6
100
AcDbText
 10
-318.056250000021
 20
183.96874999998
 30
0.0
 40
0.5
  1
EL_INSIDE_HEIGHT=0.03125},{DECORATION_PANEL_OVERALL_HEIGHT=0.166666666666667},{DECORATION_PANEL_WEIGHT=12},{DECORATION_PANEL_WIDTH=3.11458333333333},{DEFAULT_ELEVATION=4},{DESCRIPTION=Air Conditioner Ducted Round Flow Cassette},{DESIGN_BRANCH_DUCT_S
100
AcDbAttributeDefinition
  3

  2
PSOL_7
 70
     9
280
     0
  0
ATTDEF
  5
9B
330
81
100
AcDbEntity
  8
AM_6
100
AcDbText
 10
-318.056250000021
 20
183.46874999998
 30
0.0
 40
0.5
  1
AIR_FLOW=0},{DESIGN_FRESH_AIR_FLOW=0},{DESIGN_RETURN_AIR_FLOW=742},{DESIGN_SUPPLY_AIR_FLOW=742},{DRAIN_FLOW=0},{ENCLOSURE_DEPTH=2.75520833333333},{ENCLOSURE_FLANGE_OFFSET=2.33333333333333},{ENCLOSURE_HEIGHT=0.807291666666667},{ENCLOSURE_WIDTH=2.7552
100
AcDbAttributeDefinition
  3

  2
PSOL_8
 70
     9
280
     0
  0
ATTDEF
  5
9C
330
81
100
AcDbEntity
  8
AM_6
100
AcDbText
 10
-318.056250000021
 20
182.96874999998
 30
0.0
 40
0.5
  1
3333},{FACE_VELOCITY__FPM_=0},{FAN_TYPE=Turbo fan},{FEET_PRESSURE_DROP=0},{FREQUENCY=60},{FRESH_AIR_INTAKE=0},{FRESH_AIR_INTAKE_RADIUS=0.0625},{GAS_PIPE_HORIZONTAL_OFFSET=0.541666666666667},{GAS_PIPE_LENGTH=1.38016666666667},{GAS_PIPE_RADIUS=0.02604
100
AcDbAttributeDefinition
  3

  2
PSOL_9
 70
     9
280
     0
  0
ATTDEF
  5
9D
330
81
100
AcDbEntity
  8
AM_6
100
AcDbText
 10
-318.056250000021
 20
182.46874999998
 30
0.0
 40
0.5
  1
66667},{GAS_PIPE_VERTICAL_OFFSET=1.08333333333333},{HEAT_EXCHANGER_TYPE=Cross Fin Coil},{HEATING_ENTERING_DRY_BULB_TEMPERATURE=0},{HEATING_ENTERING_WET_BULB_TEMPERATURE=0},{HEATING_LEAVING_DRY_BULB_TEMPERATURE=0},{HEATING_LEAVING_WET_BULB_TEMPERATUR
100
AcDbAttributeDefinition
  3

  2
PSOL_10
 70
     9
280
     0
  0
ATTDEF
  5
9E
330
81
100
AcDbEntity
  8
AM_6
100
AcDbText
 10
-318.056250000021
 20
181.96874999998
 30
0.0
 40
0.5
  1
KNOCK_HOLE_OFFSET=0.00833333333333333},{KNOCK_HOLE_RADIUS=0.164},{LATENT_COOLING_CAPACITY=0},{LIQUID_PIPE_HORIZONTAL_OFFSET=0.411458333333333},{LIQUID_PIPE_LENGTH=1.38016666666667},{LIQUID_PIPE_RADIUS=0.015625},{LIQUID_PIPE_VERTICAL_OFFSET=0.9166666
100
AcDbAttributeDefinition
  3

  2
PSOL_11
 70
     9
280
     0
  0
ATTDEF
  5
9F
330
81
100
AcDbEntity
  8
AM_6
100
AcDbText
 10
-318.056250000021
 20
181.46874999998
 30
0.0
 40
0.5
  1
67},{LOAD_SUB_CLASSIFICATION_MOTOR=1},{MANUFACTURER=Daikin},{MASSUNIT=1},{MAXIMUM_AIR_FLOW=742},{MAXIMUM_OVERCURRENT_PROTECTION=15},{MEDIAN_AIR_FLOW=618},{MINIMUM_AIR_FLOW=477},{MINIMUM_CIRCUIT_AMPS=0.5},{MINIMUM_FLOOR_CLEARANCE=8.33333333333333},{M
100
AcDbAttributeDefinition
  3

  2
PSOL_12
 70
     9
280
     0
  0
ATTDEF
  5
A0
330
81
100
AcDbEntity
  8
AM_6
100
AcDbText
 10
-318.056250000021
 20
180.96874999998
 30
0.0
 40
0.5
  1
_OBSTACLE_CLEARANCE=5},{MODEL=FCA18AAVJU-BYCQ54GEFU},{NO_OBSTACLES_BELOW_UNIT=1},{NOMINAL_COOLING_CAPACITY=18000},{NOMINAL_COOLING_CAPACITY__TONS_=1.5},{NOMINAL_HEATING_CAPACITY=20000},{NUMBER_OF_POLES=2},{OBSTACLES_BELOW_UNIT=0},{OMNICLASS_NUMBER=2
100
AcDbAttributeDefinition
  3

  2
PSOL_13
 70
     9
280
     0
  0
ATTDEF
  5
A1
330
81
100
AcDbEntity
  8
AM_6
100
AcDbText
 10
-318.056250000021
 20
180.46874999998
 30
0.0
 40
0.5
  1
3.11.15.11},{OUT_AIR_INTAKE_H_OFFSET=0.598958333333333},{OUT_AIR_INTAKE_V_OFFSET=0.697916666666667},{OVERALL_DEPTH=33.0625},{OVERALL_HEIGHT=9.6875},{OVERALL_WIDTH=33.0625},{PARTTYPE=Normal},{PHASE=1},{REFRIGERANT_LIQUID_CONNECTION_DIAMETER=0.375},{R
100
AcDbAttributeDefinition
  3

  2
PSOL_14
 70
     9
280
     0
  0
ATTDEF
  5
A2
330
81
100
AcDbEntity
  8
AM_6
100
AcDbText
 10
-318.056250000021
 20
179.96874999998
 30
0.0
 40
0.5
  1
RANT_SUCTION_GAS_CONNECTION_DIAMETER=0.625},{REFRIGERANT_USED=R-32},{RETURN_AIR_PRESSURE_DROP=0},{SENSIBLE_COOLING_CAPACITY=0},{SERIES=SkyAir},{SUPPLY_AIR_CONNECTION_HEIGHT=0.0625},{SUPPLY_AIR_CONNECTION_WIDTH=0.0625},{SUPPLY_AIR_PRESSURE_DROP=0},{S
100
AcDbAttributeDefinition
  3

  2
PSOL_15
 70
     9
280
     0
  0
ATTDEF
  5
A3
330
81
100
AcDbEntity
  8
AM_6
100
AcDbText
 10
-318.056250000021
 20
179.46874999998
 30
0.0
 40
0.5
  1
PERFORMANCE_EER2=14},{SYSTEM_PERFORMANCE_HSPF2=9.2},{SYSTEM_PERFORMANCE_SEER2=19.5},{TOTAL_COOLING_CAPACITY=0},{TOTAL_HEATING_CAPACITY=0},{TOTAL_STATIC_PRESSURE=0},{UNIT_HEIGHT_CLEARANCE=8.33333333333333},{UNIT_WEIGHT=51},{URL=https://daikincomfort.
100
AcDbAttributeDefinition
  3

  2
PSOL_16
 70
     9
280
     0
  0
ATTDEF
  5
A4
330
81
100
AcDbEntity
  8
AM_6
100
AcDbText
 10
-318.056250000021
 20
178.96874999998
 30
0.0
 40
0.5
  1
{VERSION=1},{VOLTAGE=240},{VOLTAGE_COMMENTS=208 VAC - 230 VAC},{VAR__NO_BRANCH_DUCT=1},{VAR__BRANCH_DUCT_SELECTOR=0},{VAR__FAN_SPEED_SELECTOR=3},{VAR__BRANCH_DUCT_FRONT_OPENING=0},{VAR__L____LOW_FAN_SPEED=477},{VAR__BRANCH_DUCT_RIGHT_OPENING=0},{VAR
100
AcDbAttributeDefinition
  3

  2
PSOL_17
 70
     9
280
     0
  0
ATTDEF
  5
A5
330
81
100
AcDbEntity
  8
AM_6
100
AcDbText
 10
-318.056250000021
 20
178.46874999998
 30
0.0
 40
0.5
  1
MEDIUM_SPEED=618},{VAR__BRANCH_DUCT_BACK_OPENING=0},{VAR__H___HIGH_FAN_SPEED=742},{VAR__BRANCH_DUCT_LEFT_OPENING=0},{RFA_FAMILY=Download Revit Family (RFA)},{DEFAULTSORTATTR=60},{RFA_FAMILY_=../../_pool_/be/62/air_conditioner-indoor-daikin-fca.zip},
100
AcDbAttributeDefinition
  3

  2
PSOL_18
 70
     9
280
     0
  0
ATTDEF
  5
A6
330
81
100
AcDbEntity
  8
AM_6
100
AcDbText
 10
-318.056250000021
 20
177.96874999998
 30
0.0
 40
0.5
  1
AMILY_ENG=../../_pool_/be/62/air_conditioner-indoor-daikin-fca.zip},{REVIT_FAMILY_DOWNLOAD=../../_pool_/be/62/air_conditioner-indoor-daikin-fca.zip}
100
AcDbAttributeDefinition
  3

  2
PSOL_19
 70
     9
280
     0
  0
LINE
  5
A9
330
81
100
AcDbEntity
  8
AM_7
100
AcDbLine
 10
-356.393750000021
 20
177.79999999998
 30
0.0
 11
-323.056250000021
 21
177.79999999998
 31
0.0
  0
LINE
  5
AA
330
81
100
AcDbEntity
  8
AM_7
100
AcDbLine
 10
-339.725000000021
 20
161.13124999998
 30
0.0
 11
-339.725000000021
 21
194.46874999998
 31
0.0
  0
CIRCLE
  5
AC
330
81
100
AcDbEntity
  8
AM_0
100
AcDbCircle
 10
-339.725000000021
 20
177.79999999998
 30
0.0
 40
15.875
  0
ENDBLK
  5
84
330
81
100
AcDbEntity
  8
0
100
AcDbBlockEnd
  0
BLOCK
  5
AF
330
AD
100
AcDbEntity
  8
0
100
AcDbBlockBegin
  2
2_FCA18AAVJU_BYCQ54GEFU_PART6_0_in_FCA18AAVJU_BYCQ54GEFU_2
 70
     2
 10
0.0
 20
0.0
 30
0.0
  3
2_FCA18AAVJU_BYCQ54GEFU_PART6_0_in_FCA18AAVJU_BYCQ54GEFU_2
  1

  0
ATTDEF
  5
B1
330
AD
100
AcDbEntity
  8
AM_6
100
AcDbText
 10
289.400624999988
 20
130.413124999941
 30
0.0
 40
0.5
  1
FCA18AAVJU-BYCQ54GEFU_PART6
100
AcDbAttributeDefinition
  3

  2
NB
 70
     8
280
     0
  0
ATTDEF
  5
B2
330
AD
100
AcDbEntity
  8
AM_6
100
AcDbText
 10
289.400624999988
 20
129.913124999941
 30
0.0
 40
0.5
  1

100
AcDbAttributeDefinition
  3

  2
NN
 70
     8
280
     0
  0
ATTDEF
  5
B3
330
AD
100
AcDbEntity
  8
AM_6
100
AcDbText
 10
289.400624999988
 20
129.413124999941
 30
0.0
 40
0.5
  1

100
AcDbAttributeDefinition
  3

  2
NT
 70
     8
280
     0
  0
ATTDEF
  5
B4
330
AD
100
AcDbEntity
  8
AM_6
100
AcDbText
 10
289.400624999988
 20
128.913124999941
 30
0.0
 40
0.5
  1
$PARTNUMBER._PART6
100
AcDbAttributeDefinition
  3

  2
NBSYN
 70
     8
280
     0
  0
ATTDEF
  5
B5
330
AD
100
AcDbEntity
  8
AM_6
100
AcDbText
 10
289.400624999988
 20
128.413124999941
 30
0.0
 40
0.5
  1
FCA18AAVJU-BYCQ54GEFU_PART6
100
AcDbAttributeDefinition
  3

  2
LINA
 70
     8
280
     0
  0
ATTDEF
  5
B6
330
AD
100
AcDbEntity
  8
AM_6
100
AcDbText
 10
289.400624999988
 20
127.913124999941
 30
0.0
 40
0.5
  1
Daikin
100
AcDbAttributeDefinition
  3

  2
CATALOG
 70
     8
280
     0
  0
ATTDEF
  5
B7
330
AD
100
AcDbEntity
  8
AM_6
100
AcDbText
 10
289.400624999988
 20
127.413124999941
 30
0.0
 40
0.5
  1
FCA18AAVJU-BYCQ54GEFU
100
AcDbAttributeDefinition
  3

  2
PARTNUMBER
 70
     8
280
     0
  0
ATTDEF
  5
B8
330
AD
100
AcDbEntity
  8
AM_6
100
AcDbText
 10
289.400624999988
 20
126.913124999941
 30
0.0
 40
0.5
  1
Air Conditioner Ducted Round Flow Cassette
100
AcDbAttributeDefinition
  3

  2
DESCRIPTION
 70
     8
280
     0
  0
ATTDEF
  5
B9
330
AD
100
AcDbEntity
  8
AM_6
100
AcDbText
 10
289.400624999988
 20
126.413124999941
 30
0.0
 40
0.5
  1
33.0625
100
AcDbAttributeDefinition
  3

  2
OVERALL_DEPTH
 70
     8
280
     0
  0
ATTDEF
  5
BA
330
AD
100
AcDbEntity
  8
AM_6
100
AcDbText
 10
289.400624999988
 20
125.913124999941
 30
0.0
 40
0.5
  1
9.6875
100
AcDbAttributeDefinition
  3

  2
OVERALL_HEIGHT
 70
     8
280
     0
  0
ATTDEF
  5
BB
330
AD
100
AcDbEntity
  8
AM_6
100
AcDbText
 10
289.400624999988
 20
125.413124999941
 30
0.0
 40
0.5
  1
33.0625
100
AcDbAttributeDefinition
  3

  2
OVERALL_WIDTH
 70
     8
280
     0
  0
ATTDEF
  5
BC
330
AD
100
AcDbEntity
  8
AM_6
100
AcDbText
 10
289.400624999988
 20
124.913124999941
 30
0.0
 40
0.5
  1
https://daikincomfort.com/
100
AcDbAttributeDefinition
  3

  2
URL
 70
     8
280
     0
  0
ATTDEF
  5
BD
330
AD
100
AcDbEntity
  8
AM_6
100
AcDbText
 10
289.400624999988
 20
124.413124999941
 30
0.0
 40
0.5
  1
Download Revit Family (RFA)
100
AcDbAttributeDefinition
  3

  2
RFA_FAMILY
 70
     8
280
     0
  0
ATTDEF
  5
BE
330
AD
100
AcDbEntity
  8
AM_6
100
AcDbText
 10
289.400624999988
 20
123.913124999941
 30
0.0
 40
0.5
  1
daikin
100
AcDbAttributeDefinition
  3

  2
COMPANY
 70
     8
280
     0
  0
ATTDEF
  5
BF
330
AD
100
AcDbEntity
  8
AM_6
100
AcDbText
 10
289.400624999988
 20
123.413124999941
 30
0.0
 40
0.5
  1
{$CADENAS_DATA/23d-libs/daikin/sky-air/sky-air20indoor20units/air_conditioner-indoor-daikin-fca.prj},240 {VTYP=3D},{NB=FCA18AAVJU-BYCQ54GEFU_PART6},{LINA=FCA18AAVJU-BYCQ54GEFU_PART6},{NN=(R32) Cassette Sky-Air Daikin FCA_PART6},{NOPRJ=TRUE},{DATE=03
100
AcDbAttributeDefinition
  3

  2
PSOL_0
 70
     9
280
     0
  0
ATTDEF
  5
C0
330
AD
100
AcDbEntity
  8
AM_6
100
AcDbText
 10
289.400624999988
 20
122.913124999941
 30
0.0
 40
0.5
  1
26 19:23:42},{GEOMDATE=23.09.2025 06:26:16},{VERSION=},{LINEID=10},{WBVAR=},{WBNUMERIC=}  {NB=FCA18AAVJU-BYCQ54GEFU_PART6},{LINA=FCA18AAVJU-BYCQ54GEFU_PART6},{KT=DUMMY},{PARTNUMBER=FCA18AAVJU-BYCQ54GEFU},{PARTNUMBERMAP09=1.5Ton_FCA18AAVJU-BYCQ54GEFU
100
AcDbAttributeDefinition
  3

  2
PSOL_1
 70
     9
280
     0
  0
ATTDEF
  5
C1
330
AD
100
AcDbEntity
  8
AM_6
100
AcDbText
 10
289.400624999988
 20
122.413124999941
 30
0.0
 40
0.5
  1
UAL_RETURN_AIR_FLOW=742},{ACTUAL_SUPPLY_AIR_FLOW=742},{AMBIENT_TEMPERATURE=0},{APPARENT_POWER=120},{ASSEMBLY_CODE=D3090},{BRANCH_DUCT_CENTER_OFFSET=0},{BRANCH_DUCT_DEPTH=0.00833333333333333},{BRANCH_DUCT_HEIGHT=0.3125},{BRANCH_DUCT_HORIZONTAL_OFFSET
100
AcDbAttributeDefinition
  3

  2
PSOL_2
 70
     9
280
     0
  0
ATTDEF
  5
C2
330
AD
100
AcDbEntity
  8
AM_6
100
AcDbText
 10
289.400624999988
 20
121.913124999941
 30
0.0
 40
0.5
  1
041666666667},{BRANCH_DUCT_LEFT_CENTER_OFFSET=0.0677083333333333},{BRANCH_DUCT_POSITION_ANGLE=0},{BRANCH_DUCT_REFERENCE_LENGTH=1.37760416666667},{BRANCH_DUCT_RIGHT_CENTER_OFFSET=0.0833333333333333},{BRANCH_DUCT_WIDTH=1.14583333333333},{CATEGORY=Mech
100
AcDbAttributeDefinition
  3

  2
PSOL_3
 70
     9
280
     0
  0
ATTDEF
  5
C3
330
AD
100
AcDbEntity
  8
AM_6
100
AcDbText
 10
289.400624999988
 20
121.413124999941
 30
0.0
 40
0.5
  1
 Equipment},{CEILING_OPENING_SPACE_DEPTH=2.98958333333333},{CEILING_OPENING_SPACE_WIDTH=2.98958333333333},{CLEARANCE_PRIMARY_OFFSET=5},{CLEARANCE_SECONDARY_OFFSET=0.65625},{CLEARANCE_VISIBILITY=1},{COIL_AIR_PRESSURE_DROP=0},{CONDENSATE_DRAIN_CONNECT
100
AcDbAttributeDefinition
  3

  2
PSOL_4
 70
     9
280
     0
  0
ATTDEF
  5
C4
330
AD
100
AcDbEntity
  8
AM_6
100
AcDbText
 10
289.400624999988
 20
120.913124999941
 30
0.0
 40
0.5
  1
AMETER=1.25},{CONDENSATE_DRAIN_PIPE_HORIZONTAL_OFFSET=0.583333333333333},{CONDENSATE_DRAIN_PIPE_LENGTH=1.38016666666667},{CONDENSATE_DRAIN_PIPE_RADIUS=0.0520833333333333},{CONDENSATE_DRAIN_PIPE_VERTICAL_OFFSET=1.11458333333333},{COOLING_ENTERING_DRY
100
AcDbAttributeDefinition
  3

  2
PSOL_5
 70
     9
280
     0
  0
ATTDEF
  5
C5
330
AD
100
AcDbEntity
  8
AM_6
100
AcDbText
 10
289.400624999988
 20
120.413124999941
 30
0.0
 40
0.5
  1
TEMPERATURE=0},{COOLING_ENTERING_WET_BULB_TEMPERATURE=0},{COOLING_LEAVING_DRY_BULB_TEMPERATURE=0},{COOLING_LEAVING_WET_BULB_TEMPERATURE=0},{COST=0},{DECORATION_PANEL_COVER_HEIGHT=0.135416666666667},{DECORATION_PANEL_DEPTH=3.11458333333333},{DECORATI
100
AcDbAttributeDefinition
  3

  2
PSOL_6
 70
     9
280
     0
  0
ATTDEF
  5
C6
330
AD
100
AcDbEntity
  8
AM_6
100
AcDbText
 10
289.400624999988
 20
119.913124999941
 30
0.0
 40
0.5
  1
EL_INSIDE_HEIGHT=0.03125},{DECORATION_PANEL_OVERALL_HEIGHT=0.166666666666667},{DECORATION_PANEL_WEIGHT=12},{DECORATION_PANEL_WIDTH=3.11458333333333},{DEFAULT_ELEVATION=4},{DESCRIPTION=Air Conditioner Ducted Round Flow Cassette},{DESIGN_BRANCH_DUCT_S
100
AcDbAttributeDefinition
  3

  2
PSOL_7
 70
     9
280
     0
  0
ATTDEF
  5
C7
330
AD
100
AcDbEntity
  8
AM_6
100
AcDbText
 10
289.400624999988
 20
119.413124999941
 30
0.0
 40
0.5
  1
AIR_FLOW=0},{DESIGN_FRESH_AIR_FLOW=0},{DESIGN_RETURN_AIR_FLOW=742},{DESIGN_SUPPLY_AIR_FLOW=742},{DRAIN_FLOW=0},{ENCLOSURE_DEPTH=2.75520833333333},{ENCLOSURE_FLANGE_OFFSET=2.33333333333333},{ENCLOSURE_HEIGHT=0.807291666666667},{ENCLOSURE_WIDTH=2.7552
100
AcDbAttributeDefinition
  3

  2
PSOL_8
 70
     9
280
     0
  0
ATTDEF
  5
C8
330
AD
100
AcDbEntity
  8
AM_6
100
AcDbText
 10
289.400624999988
 20
118.913124999941
 30
0.0
 40
0.5
  1
3333},{FACE_VELOCITY__FPM_=0},{FAN_TYPE=Turbo fan},{FEET_PRESSURE_DROP=0},{FREQUENCY=60},{FRESH_AIR_INTAKE=0},{FRESH_AIR_INTAKE_RADIUS=0.0625},{GAS_PIPE_HORIZONTAL_OFFSET=0.541666666666667},{GAS_PIPE_LENGTH=1.38016666666667},{GAS_PIPE_RADIUS=0.02604
100
AcDbAttributeDefinition
  3

  2
PSOL_9
 70
     9
280
     0
  0
ATTDEF
  5
C9
330
AD
100
AcDbEntity
  8
AM_6
100
AcDbText
 10
289.400624999988
 20
118.413124999941
 30
0.0
 40
0.5
  1
66667},{GAS_PIPE_VERTICAL_OFFSET=1.08333333333333},{HEAT_EXCHANGER_TYPE=Cross Fin Coil},{HEATING_ENTERING_DRY_BULB_TEMPERATURE=0},{HEATING_ENTERING_WET_BULB_TEMPERATURE=0},{HEATING_LEAVING_DRY_BULB_TEMPERATURE=0},{HEATING_LEAVING_WET_BULB_TEMPERATUR
100
AcDbAttributeDefinition
  3

  2
PSOL_10
 70
     9
280
     0
  0
ATTDEF
  5
CA
330
AD
100
AcDbEntity
  8
AM_6
100
AcDbText
 10
289.400624999988
 20
117.913124999941
 30
0.0
 40
0.5
  1
KNOCK_HOLE_OFFSET=0.00833333333333333},{KNOCK_HOLE_RADIUS=0.164},{LATENT_COOLING_CAPACITY=0},{LIQUID_PIPE_HORIZONTAL_OFFSET=0.411458333333333},{LIQUID_PIPE_LENGTH=1.38016666666667},{LIQUID_PIPE_RADIUS=0.015625},{LIQUID_PIPE_VERTICAL_OFFSET=0.9166666
100
AcDbAttributeDefinition
  3

  2
PSOL_11
 70
     9
280
     0
  0
ATTDEF
  5
CB
330
AD
100
AcDbEntity
  8
AM_6
100
AcDbText
 10
289.400624999988
 20
117.413124999941
 30
0.0
 40
0.5
  1
67},{LOAD_SUB_CLASSIFICATION_MOTOR=1},{MANUFACTURER=Daikin},{MASSUNIT=1},{MAXIMUM_AIR_FLOW=742},{MAXIMUM_OVERCURRENT_PROTECTION=15},{MEDIAN_AIR_FLOW=618},{MINIMUM_AIR_FLOW=477},{MINIMUM_CIRCUIT_AMPS=0.5},{MINIMUM_FLOOR_CLEARANCE=8.33333333333333},{M
100
AcDbAttributeDefinition
  3

  2
PSOL_12
 70
     9
280
     0
  0
ATTDEF
  5
CC
330
AD
100
AcDbEntity
  8
AM_6
100
AcDbText
 10
289.400624999988
 20
116.913124999941
 30
0.0
 40
0.5
  1
_OBSTACLE_CLEARANCE=5},{MODEL=FCA18AAVJU-BYCQ54GEFU},{NO_OBSTACLES_BELOW_UNIT=1},{NOMINAL_COOLING_CAPACITY=18000},{NOMINAL_COOLING_CAPACITY__TONS_=1.5},{NOMINAL_HEATING_CAPACITY=20000},{NUMBER_OF_POLES=2},{OBSTACLES_BELOW_UNIT=0},{OMNICLASS_NUMBER=2
100
AcDbAttributeDefinition
  3

  2
PSOL_13
 70
     9
280
     0
  0
ATTDEF
  5
CD
330
AD
100
AcDbEntity
  8
AM_6
100
AcDbText
 10
289.400624999988
 20
116.413124999941
 30
0.0
 40
0.5
  1
3.11.15.11},{OUT_AIR_INTAKE_H_OFFSET=0.598958333333333},{OUT_AIR_INTAKE_V_OFFSET=0.697916666666667},{OVERALL_DEPTH=33.0625},{OVERALL_HEIGHT=9.6875},{OVERALL_WIDTH=33.0625},{PARTTYPE=Normal},{PHASE=1},{REFRIGERANT_LIQUID_CONNECTION_DIAMETER=0.375},{R
100
AcDbAttributeDefinition
  3

  2
PSOL_14
 70
     9
280
     0
  0
ATTDEF
  5
CE
330
AD
100
AcDbEntity
  8
AM_6
100
AcDbText
 10
289.400624999988
 20
115.913124999941
 30
0.0
 40
0.5
  1
RANT_SUCTION_GAS_CONNECTION_DIAMETER=0.625},{REFRIGERANT_USED=R-32},{RETURN_AIR_PRESSURE_DROP=0},{SENSIBLE_COOLING_CAPACITY=0},{SERIES=SkyAir},{SUPPLY_AIR_CONNECTION_HEIGHT=0.0625},{SUPPLY_AIR_CONNECTION_WIDTH=0.0625},{SUPPLY_AIR_PRESSURE_DROP=0},{S
100
AcDbAttributeDefinition
  3

  2
PSOL_15
 70
     9
280
     0
  0
ATTDEF
  5
CF
330
AD
100
AcDbEntity
  8
AM_6
100
AcDbText
 10
289.400624999988
 20
115.413124999941
 30
0.0
 40
0.5
  1
PERFORMANCE_EER2=14},{SYSTEM_PERFORMANCE_HSPF2=9.2},{SYSTEM_PERFORMANCE_SEER2=19.5},{TOTAL_COOLING_CAPACITY=0},{TOTAL_HEATING_CAPACITY=0},{TOTAL_STATIC_PRESSURE=0},{UNIT_HEIGHT_CLEARANCE=8.33333333333333},{UNIT_WEIGHT=51},{URL=https://daikincomfort.
100
AcDbAttributeDefinition
  3

  2
PSOL_16
 70
     9
280
     0
  0
ATTDEF
  5
D0
330
AD
100
AcDbEntity
  8
AM_6
100
AcDbText
 10
289.400624999988
 20
114.913124999941
 30
0.0
 40
0.5
  1
{VERSION=1},{VOLTAGE=240},{VOLTAGE_COMMENTS=208 VAC - 230 VAC},{VAR__NO_BRANCH_DUCT=1},{VAR__BRANCH_DUCT_SELECTOR=0},{VAR__FAN_SPEED_SELECTOR=3},{VAR__BRANCH_DUCT_FRONT_OPENING=0},{VAR__L____LOW_FAN_SPEED=477},{VAR__BRANCH_DUCT_RIGHT_OPENING=0},{VAR
100
AcDbAttributeDefinition
  3

  2
PSOL_17
 70
     9
280
     0
  0
ATTDEF
  5
D1
330
AD
100
AcDbEntity
  8
AM_6
100
AcDbText
 10
289.400624999988
 20
114.413124999941
 30
0.0
 40
0.5
  1
MEDIUM_SPEED=618},{VAR__BRANCH_DUCT_BACK_OPENING=0},{VAR__H___HIGH_FAN_SPEED=742},{VAR__BRANCH_DUCT_LEFT_OPENING=0},{RFA_FAMILY=Download Revit Family (RFA)},{DEFAULTSORTATTR=60},{RFA_FAMILY_=../../_pool_/be/62/air_conditioner-indoor-daikin-fca.zip},
100
AcDbAttributeDefinition
  3

  2
PSOL_18
 70
     9
280
     0
  0
ATTDEF
  5
D2
330
AD
100
AcDbEntity
  8
AM_6
100
AcDbText
 10
289.400624999988
 20
113.913124999941
 30
0.0
 40
0.5
  1
AMILY_ENG=../../_pool_/be/62/air_conditioner-indoor-daikin-fca.zip},{REVIT_FAMILY_DOWNLOAD=../../_pool_/be/62/air_conditioner-indoor-daikin-fca.zip}
100
AcDbAttributeDefinition
  3

  2
PSOL_19
 70
     9
280
     0
  0
LINE
  5
D3
330
AD
100
AcDbEntity
  8
AM_7
100
AcDbLine
 10
274.399374999988
 20
125.412499999941
 30
0.0
 11
284.400624999988
 21
125.412499999941
 31
0.0
  0
LINE
  5
D4
330
AD
100
AcDbEntity
  8
AM_7
100
AcDbLine
 10
279.399999999988
 20
120.411874999941
 30
0.0
 11
279.399999999988
 21
130.413124999941
 31
0.0
  0
CIRCLE
  5
D5
330
AD
100
AcDbEntity
  8
AM_0
100
AcDbCircle
 10
279.399999999988
 20
125.412499999941
 30
0.0
 40
4.7625
  0
ENDBLK
  5
B0
330
AD
100
AcDbEntity
  8
0
100
AcDbBlockEnd
  0
BLOCK
  5
D8
330
D6
100
AcDbEntity
  8
0
100
AcDbBlockBegin
  2
3_FCA18AAVJU_BYCQ54GEFU_PART5_0_in_FCA18AAVJU_BYCQ54GEFU_2
 70
     2
 10
0.0
 20
0.0
 30
0.0
  3
3_FCA18AAVJU_BYCQ54GEFU_PART5_0_in_FCA18AAVJU_BYCQ54GEFU_2
  1

  0
ATTDEF
  5
DA
330
D6
100
AcDbEntity
  8
AM_6
100
AcDbText
 10
343.534374999988
 20
173.434374999921
 30
0.0
 40
0.5
  1
FCA18AAVJU-BYCQ54GEFU_PART5
100
AcDbAttributeDefinition
  3

  2
NB
 70
     8
280
     0
  0
ATTDEF
  5
DB
330
D6
100
AcDbEntity
  8
AM_6
100
AcDbText
 10
343.534374999988
 20
172.934374999921
 30
0.0
 40
0.5
  1

100
AcDbAttributeDefinition
  3

  2
NN
 70
     8
280
     0
  0
ATTDEF
  5
DC
330
D6
100
AcDbEntity
  8
AM_6
100
AcDbText
 10
343.534374999988
 20
172.434374999921
 30
0.0
 40
0.5
  1

100
AcDbAttributeDefinition
  3

  2
NT
 70
     8
280
     0
  0
ATTDEF
  5
DD
330
D6
100
AcDbEntity
  8
AM_6
100
AcDbText
 10
343.534374999988
 20
171.934374999921
 30
0.0
 40
0.5
  1
$PARTNUMBER._PART5
100
AcDbAttributeDefinition
  3

  2
NBSYN
 70
     8
280
     0
  0
ATTDEF
  5
DE
330
D6
100
AcDbEntity
  8
AM_6
100
AcDbText
 10
343.534374999988
 20
171.434374999921
 30
0.0
 40
0.5
  1
FCA18AAVJU-BYCQ54GEFU_PART5
100
AcDbAttributeDefinition
  3

  2
LINA
 70
     8
280
     0
  0
ATTDEF
  5
DF
330
D6
100
AcDbEntity
  8
AM_6
100
AcDbText
 10
343.534374999988
 20
170.934374999921
 30
0.0
 40
0.5
  1
Daikin
100
AcDbAttributeDefinition
  3

  2
CATALOG
 70
     8
280
     0
  0
ATTDEF
  5
E0
330
D6
100
AcDbEntity
  8
AM_6
100
AcDbText
 10
343.534374999988
 20
170.434374999921
 30
0.0
 40
0.5
  1
FCA18AAVJU-BYCQ54GEFU
100
AcDbAttributeDefinition
  3

  2
PARTNUMBER
 70
     8
280
     0
  0
ATTDEF
  5
E1
330
D6
100
AcDbEntity
  8
AM_6
100
AcDbText
 10
343.534374999988
 20
169.934374999921
 30
0.0
 40
0.5
  1
Air Conditioner Ducted Round Flow Cassette
100
AcDbAttributeDefinition
  3

  2
DESCRIPTION
 70
     8
280
     0
  0
ATTDEF
  5
E2
330
D6
100
AcDbEntity
  8
AM_6
100
AcDbText
 10
343.534374999988
 20
169.434374999921
 30
0.0
 40
0.5
  1
33.0625
100
AcDbAttributeDefinition
  3

  2
OVERALL_DEPTH
 70
     8
280
     0
  0
ATTDEF
  5
E3
330
D6
100
AcDbEntity
  8
AM_6
100
AcDbText
 10
343.534374999988
 20
168.934374999921
 30
0.0
 40
0.5
  1
9.6875
100
AcDbAttributeDefinition
  3

  2
OVERALL_HEIGHT
 70
     8
280
     0
  0
ATTDEF
  5
E4
330
D6
100
AcDbEntity
  8
AM_6
100
AcDbText
 10
343.534374999988
 20
168.434374999921
 30
0.0
 40
0.5
  1
33.0625
100
AcDbAttributeDefinition
  3

  2
OVERALL_WIDTH
 70
     8
280
     0
  0
ATTDEF
  5
E5
330
D6
100
AcDbEntity
  8
AM_6
100
AcDbText
 10
343.534374999988
 20
167.934374999921
 30
0.0
 40
0.5
  1
https://daikincomfort.com/
100
AcDbAttributeDefinition
  3

  2
URL
 70
     8
280
     0
  0
ATTDEF
  5
E6
330
D6
100
AcDbEntity
  8
AM_6
100
AcDbText
 10
343.534374999988
 20
167.434374999921
 30
0.0
 40
0.5
  1
Download Revit Family (RFA)
100
AcDbAttributeDefinition
  3

  2
RFA_FAMILY
 70
     8
280
     0
  0
ATTDEF
  5
E7
330
D6
100
AcDbEntity
  8
AM_6
100
AcDbText
 10
343.534374999988
 20
166.934374999921
 30
0.0
 40
0.5
  1
daikin
100
AcDbAttributeDefinition
  3

  2
COMPANY
 70
     8
280
     0
  0
ATTDEF
  5
E8
330
D6
100
AcDbEntity
  8
AM_6
100
AcDbText
 10
343.534374999988
 20
166.434374999921
 30
0.0
 40
0.5
  1
{$CADENAS_DATA/23d-libs/daikin/sky-air/sky-air20indoor20units/air_conditioner-indoor-daikin-fca.prj},240 {VTYP=3D},{NB=FCA18AAVJU-BYCQ54GEFU_PART5},{LINA=FCA18AAVJU-BYCQ54GEFU_PART5},{NN=(R32) Cassette Sky-Air Daikin FCA_PART5},{NOPRJ=TRUE},{DATE=03
100
AcDbAttributeDefinition
  3

  2
PSOL_0
 70
     9
280
     0
  0
ATTDEF
  5
E9
330
D6
100
AcDbEntity
  8
AM_6
100
AcDbText
 10
343.534374999988
 20
165.934374999921
 30
0.0
 40
0.5
  1
26 19:23:42},{GEOMDATE=23.09.2025 06:26:16},{VERSION=},{LINEID=10},{WBVAR=},{WBNUMERIC=}  {NB=FCA18AAVJU-BYCQ54GEFU_PART5},{LINA=FCA18AAVJU-BYCQ54GEFU_PART5},{KT=DUMMY},{PARTNUMBER=FCA18AAVJU-BYCQ54GEFU},{PARTNUMBERMAP09=1.5Ton_FCA18AAVJU-BYCQ54GEFU
100
AcDbAttributeDefinition
  3

  2
PSOL_1
 70
     9
280
     0
  0
ATTDEF
  5
EA
330
D6
100
AcDbEntity
  8
AM_6
100
AcDbText
 10
343.534374999988
 20
165.434374999921
 30
0.0
 40
0.5
  1
UAL_RETURN_AIR_FLOW=742},{ACTUAL_SUPPLY_AIR_FLOW=742},{AMBIENT_TEMPERATURE=0},{APPARENT_POWER=120},{ASSEMBLY_CODE=D3090},{BRANCH_DUCT_CENTER_OFFSET=0},{BRANCH_DUCT_DEPTH=0.00833333333333333},{BRANCH_DUCT_HEIGHT=0.3125},{BRANCH_DUCT_HORIZONTAL_OFFSET
100
AcDbAttributeDefinition
  3

  2
PSOL_2
 70
     9
280
     0
  0
ATTDEF
  5
EB
330
D6
100
AcDbEntity
  8
AM_6
100
AcDbText
 10
343.534374999988
 20
164.934374999921
 30
0.0
 40
0.5
  1
041666666667},{BRANCH_DUCT_LEFT_CENTER_OFFSET=0.0677083333333333},{BRANCH_DUCT_POSITION_ANGLE=0},{BRANCH_DUCT_REFERENCE_LENGTH=1.37760416666667},{BRANCH_DUCT_RIGHT_CENTER_OFFSET=0.0833333333333333},{BRANCH_DUCT_WIDTH=1.14583333333333},{CATEGORY=Mech
100
AcDbAttributeDefinition
  3

  2
PSOL_3
 70
     9
280
     0
  0
ATTDEF
  5
EC
330
D6
100
AcDbEntity
  8
AM_6
100
AcDbText
 10
343.534374999988
 20
164.434374999921
 30
0.0
 40
0.5
  1
 Equipment},{CEILING_OPENING_SPACE_DEPTH=2.98958333333333},{CEILING_OPENING_SPACE_WIDTH=2.98958333333333},{CLEARANCE_PRIMARY_OFFSET=5},{CLEARANCE_SECONDARY_OFFSET=0.65625},{CLEARANCE_VISIBILITY=1},{COIL_AIR_PRESSURE_DROP=0},{CONDENSATE_DRAIN_CONNECT
100
AcDbAttributeDefinition
  3

  2
PSOL_4
 70
     9
280
     0
  0
ATTDEF
  5
ED
330
D6
100
AcDbEntity
  8
AM_6
100
AcDbText
 10
343.534374999988
 20
163.934374999921
 30
0.0
 40
0.5
  1
AMETER=1.25},{CONDENSATE_DRAIN_PIPE_HORIZONTAL_OFFSET=0.583333333333333},{CONDENSATE_DRAIN_PIPE_LENGTH=1.38016666666667},{CONDENSATE_DRAIN_PIPE_RADIUS=0.0520833333333333},{CONDENSATE_DRAIN_PIPE_VERTICAL_OFFSET=1.11458333333333},{COOLING_ENTERING_DRY
100
AcDbAttributeDefinition
  3

  2
PSOL_5
 70
     9
280
     0
  0
ATTDEF
  5
EE
330
D6
100
AcDbEntity
  8
AM_6
100
AcDbText
 10
343.534374999988
 20
163.434374999921
 30
0.0
 40
0.5
  1
TEMPERATURE=0},{COOLING_ENTERING_WET_BULB_TEMPERATURE=0},{COOLING_LEAVING_DRY_BULB_TEMPERATURE=0},{COOLING_LEAVING_WET_BULB_TEMPERATURE=0},{COST=0},{DECORATION_PANEL_COVER_HEIGHT=0.135416666666667},{DECORATION_PANEL_DEPTH=3.11458333333333},{DECORATI
100
AcDbAttributeDefinition
  3

  2
PSOL_6
 70
     9
280
     0
  0
ATTDEF
  5
EF
330
D6
100
AcDbEntity
  8
AM_6
100
AcDbText
 10
343.534374999988
 20
162.934374999921
 30
0.0
 40
0.5
  1
EL_INSIDE_HEIGHT=0.03125},{DECORATION_PANEL_OVERALL_HEIGHT=0.166666666666667},{DECORATION_PANEL_WEIGHT=12},{DECORATION_PANEL_WIDTH=3.11458333333333},{DEFAULT_ELEVATION=4},{DESCRIPTION=Air Conditioner Ducted Round Flow Cassette},{DESIGN_BRANCH_DUCT_S
100
AcDbAttributeDefinition
  3

  2
PSOL_7
 70
     9
280
     0
  0
ATTDEF
  5
F0
330
D6
100
AcDbEntity
  8
AM_6
100
AcDbText
 10
343.534374999988
 20
162.434374999921
 30
0.0
 40
0.5
  1
AIR_FLOW=0},{DESIGN_FRESH_AIR_FLOW=0},{DESIGN_RETURN_AIR_FLOW=742},{DESIGN_SUPPLY_AIR_FLOW=742},{DRAIN_FLOW=0},{ENCLOSURE_DEPTH=2.75520833333333},{ENCLOSURE_FLANGE_OFFSET=2.33333333333333},{ENCLOSURE_HEIGHT=0.807291666666667},{ENCLOSURE_WIDTH=2.7552
100
AcDbAttributeDefinition
  3

  2
PSOL_8
 70
     9
280
     0
  0
ATTDEF
  5
F1
330
D6
100
AcDbEntity
  8
AM_6
100
AcDbText
 10
343.534374999988
 20
161.934374999921
 30
0.0
 40
0.5
  1
3333},{FACE_VELOCITY__FPM_=0},{FAN_TYPE=Turbo fan},{FEET_PRESSURE_DROP=0},{FREQUENCY=60},{FRESH_AIR_INTAKE=0},{FRESH_AIR_INTAKE_RADIUS=0.0625},{GAS_PIPE_HORIZONTAL_OFFSET=0.541666666666667},{GAS_PIPE_LENGTH=1.38016666666667},{GAS_PIPE_RADIUS=0.02604
100
AcDbAttributeDefinition
  3

  2
PSOL_9
 70
     9
280
     0
  0
ATTDEF
  5
F2
330
D6
100
AcDbEntity
  8
AM_6
100
AcDbText
 10
343.534374999988
 20
161.434374999921
 30
0.0
 40
0.5
  1
66667},{GAS_PIPE_VERTICAL_OFFSET=1.08333333333333},{HEAT_EXCHANGER_TYPE=Cross Fin Coil},{HEATING_ENTERING_DRY_BULB_TEMPERATURE=0},{HEATING_ENTERING_WET_BULB_TEMPERATURE=0},{HEATING_LEAVING_DRY_BULB_TEMPERATURE=0},{HEATING_LEAVING_WET_BULB_TEMPERATUR
100
AcDbAttributeDefinition
  3

  2
PSOL_10
 70
     9
280
     0
  0
ATTDEF
  5
F3
330
D6
100
AcDbEntity
  8
AM_6
100
AcDbText
 10
343.534374999988
 20
160.934374999921
 30
0.0
 40
0.5
  1
KNOCK_HOLE_OFFSET=0.00833333333333333},{KNOCK_HOLE_RADIUS=0.164},{LATENT_COOLING_CAPACITY=0},{LIQUID_PIPE_HORIZONTAL_OFFSET=0.411458333333333},{LIQUID_PIPE_LENGTH=1.38016666666667},{LIQUID_PIPE_RADIUS=0.015625},{LIQUID_PIPE_VERTICAL_OFFSET=0.9166666
100
AcDbAttributeDefinition
  3

  2
PSOL_11
 70
     9
280
     0
  0
ATTDEF
  5
F4
330
D6
100
AcDbEntity
  8
AM_6
100
AcDbText
 10
343.534374999988
 20
160.434374999921
 30
0.0
 40
0.5
  1
67},{LOAD_SUB_CLASSIFICATION_MOTOR=1},{MANUFACTURER=Daikin},{MASSUNIT=1},{MAXIMUM_AIR_FLOW=742},{MAXIMUM_OVERCURRENT_PROTECTION=15},{MEDIAN_AIR_FLOW=618},{MINIMUM_AIR_FLOW=477},{MINIMUM_CIRCUIT_AMPS=0.5},{MINIMUM_FLOOR_CLEARANCE=8.33333333333333},{M
100
AcDbAttributeDefinition
  3

  2
PSOL_12
 70
     9
280
     0
  0
ATTDEF
  5
F5
330
D6
100
AcDbEntity
  8
AM_6
100
AcDbText
 10
343.534374999988
 20
159.934374999921
 30
0.0
 40
0.5
  1
_OBSTACLE_CLEARANCE=5},{MODEL=FCA18AAVJU-BYCQ54GEFU},{NO_OBSTACLES_BELOW_UNIT=1},{NOMINAL_COOLING_CAPACITY=18000},{NOMINAL_COOLING_CAPACITY__TONS_=1.5},{NOMINAL_HEATING_CAPACITY=20000},{NUMBER_OF_POLES=2},{OBSTACLES_BELOW_UNIT=0},{OMNICLASS_NUMBER=2
100
AcDbAttributeDefinition
  3

  2
PSOL_13
 70
     9
280
     0
  0
ATTDEF
  5
F6
330
D6
100
AcDbEntity
  8
AM_6
100
AcDbText
 10
343.534374999988
 20
159.434374999921
 30
0.0
 40
0.5
  1
3.11.15.11},{OUT_AIR_INTAKE_H_OFFSET=0.598958333333333},{OUT_AIR_INTAKE_V_OFFSET=0.697916666666667},{OVERALL_DEPTH=33.0625},{OVERALL_HEIGHT=9.6875},{OVERALL_WIDTH=33.0625},{PARTTYPE=Normal},{PHASE=1},{REFRIGERANT_LIQUID_CONNECTION_DIAMETER=0.375},{R
100
AcDbAttributeDefinition
  3

  2
PSOL_14
 70
     9
280
     0
  0
ATTDEF
  5
F7
330
D6
100
AcDbEntity
  8
AM_6
100
AcDbText
 10
343.534374999988
 20
158.934374999921
 30
0.0
 40
0.5
  1
RANT_SUCTION_GAS_CONNECTION_DIAMETER=0.625},{REFRIGERANT_USED=R-32},{RETURN_AIR_PRESSURE_DROP=0},{SENSIBLE_COOLING_CAPACITY=0},{SERIES=SkyAir},{SUPPLY_AIR_CONNECTION_HEIGHT=0.0625},{SUPPLY_AIR_CONNECTION_WIDTH=0.0625},{SUPPLY_AIR_PRESSURE_DROP=0},{S
100
AcDbAttributeDefinition
  3

  2
PSOL_15
 70
     9
280
     0
  0
ATTDEF
  5
F8
330
D6
100
AcDbEntity
  8
AM_6
100
AcDbText
 10
343.534374999988
 20
158.434374999921
 30
0.0
 40
0.5
  1
PERFORMANCE_EER2=14},{SYSTEM_PERFORMANCE_HSPF2=9.2},{SYSTEM_PERFORMANCE_SEER2=19.5},{TOTAL_COOLING_CAPACITY=0},{TOTAL_HEATING_CAPACITY=0},{TOTAL_STATIC_PRESSURE=0},{UNIT_HEIGHT_CLEARANCE=8.33333333333333},{UNIT_WEIGHT=51},{URL=https://daikincomfort.
100
AcDbAttributeDefinition
  3

  2
PSOL_16
 70
     9
280
     0
  0
ATTDEF
  5
F9
330
D6
100
AcDbEntity
  8
AM_6
100
AcDbText
 10
343.534374999988
 20
157.934374999921
 30
0.0
 40
0.5
  1
{VERSION=1},{VOLTAGE=240},{VOLTAGE_COMMENTS=208 VAC - 230 VAC},{VAR__NO_BRANCH_DUCT=1},{VAR__BRANCH_DUCT_SELECTOR=0},{VAR__FAN_SPEED_SELECTOR=3},{VAR__BRANCH_DUCT_FRONT_OPENING=0},{VAR__L____LOW_FAN_SPEED=477},{VAR__BRANCH_DUCT_RIGHT_OPENING=0},{VAR
100
AcDbAttributeDefinition
  3

  2
PSOL_17
 70
     9
280
     0
  0
ATTDEF
  5
FA
330
D6
100
AcDbEntity
  8
AM_6
100
AcDbText
 10
343.534374999988
 20
157.434374999921
 30
0.0
 40
0.5
  1
MEDIUM_SPEED=618},{VAR__BRANCH_DUCT_BACK_OPENING=0},{VAR__H___HIGH_FAN_SPEED=742},{VAR__BRANCH_DUCT_LEFT_OPENING=0},{RFA_FAMILY=Download Revit Family (RFA)},{DEFAULTSORTATTR=60},{RFA_FAMILY_=../../_pool_/be/62/air_conditioner-indoor-daikin-fca.zip},
100
AcDbAttributeDefinition
  3

  2
PSOL_18
 70
     9
280
     0
  0
ATTDEF
  5
FB
330
D6
100
AcDbEntity
  8
AM_6
100
AcDbText
 10
343.534374999988
 20
156.934374999921
 30
0.0
 40
0.5
  1
AMILY_ENG=../../_pool_/be/62/air_conditioner-indoor-daikin-fca.zip},{REVIT_FAMILY_DOWNLOAD=../../_pool_/be/62/air_conditioner-indoor-daikin-fca.zip}
100
AcDbAttributeDefinition
  3

  2
PSOL_19
 70
     9
280
     0
  0
LINE
  5
FC
330
D6
100
AcDbEntity
  8
AM_7
100
AcDbLine
 10
321.865624999988
 20
165.099999999921
 30
0.0
 11
338.534374999988
 21
165.099999999921
 31
0.0
  0
LINE
  5
FD
330
D6
100
AcDbEntity
  8
AM_7
100
AcDbLine
 10
330.199999999988
 20
156.765624999921
 30
0.0
 11
330.199999999988
 21
173.434374999921
 31
0.0
  0
CIRCLE
  5
FE
330
D6
100
AcDbEntity
  8
AM_0
100
AcDbCircle
 10
330.199999999988
 20
165.099999999921
 30
0.0
 40
7.9375
  0
ENDBLK
  5
D9
330
D6
100
AcDbEntity
  8
0
100
AcDbBlockEnd
  0
BLOCK
  5
101
330
FF
100
AcDbEntity
  8
0
100
AcDbBlockBegin
  2
4_FCA18AAVJU_BYCQ54GEFU_PART4_0_in_FCA18AAVJU_BYCQ54GEFU_2
 70
     2
 10
0.0
 20
0.0
 30
0.0
  3
4_FCA18AAVJU_BYCQ54GEFU_PART4_0_in_FCA18AAVJU_BYCQ54GEFU_2
  1

  0
ATTDEF
  5
103
330
FF
100
AcDbEntity
  8
AM_6
100
AcDbText
 10
424.8937500000172
 20
255.587499999903
 30
0.0
 40
0.5
  1
FCA18AAVJU-BYCQ54GEFU_PART4
100
AcDbAttributeDefinition
  3

  2
NB
 70
     8
280
     0
  0
ATTDEF
  5
104
330
FF
100
AcDbEntity
  8
AM_6
100
AcDbText
 10
424.8937500000172
 20
255.087499999903
 30
0.0
 40
0.5
  1

100
AcDbAttributeDefinition
  3

  2
NN
 70
     8
280
     0
  0
ATTDEF
  5
105
330
FF
100
AcDbEntity
  8
AM_6
100
AcDbText
 10
424.8937500000172
 20
254.587499999903
 30
0.0
 40
0.5
  1

100
AcDbAttributeDefinition
  3

  2
NT
 70
     8
280
     0
  0
ATTDEF
  5
106
330
FF
100
AcDbEntity
  8
AM_6
100
AcDbText
 10
424.8937500000172
 20
254.087499999903
 30
0.0
 40
0.5
  1
$PARTNUMBER._PART4
100
AcDbAttributeDefinition
  3

  2
NBSYN
 70
     8
280
     0
  0
ATTDEF
  5
107
330
FF
100
AcDbEntity
  8
AM_6
100
AcDbText
 10
424.8937500000172
 20
253.587499999903
 30
0.0
 40
0.5
  1
FCA18AAVJU-BYCQ54GEFU_PART4
100
AcDbAttributeDefinition
  3

  2
LINA
 70
     8
280
     0
  0
ATTDEF
  5
108
330
FF
100
AcDbEntity
  8
AM_6
100
AcDbText
 10
424.8937500000172
 20
253.087499999903
 30
0.0
 40
0.5
  1
Daikin
100
AcDbAttributeDefinition
  3

  2
CATALOG
 70
     8
280
     0
  0
ATTDEF
  5
109
330
FF
100
AcDbEntity
  8
AM_6
100
AcDbText
 10
424.8937500000172
 20
252.587499999903
 30
0.0
 40
0.5
  1
FCA18AAVJU-BYCQ54GEFU
100
AcDbAttributeDefinition
  3

  2
PARTNUMBER
 70
     8
280
     0
  0
ATTDEF
  5
10A
330
FF
100
AcDbEntity
  8
AM_6
100
AcDbText
 10
424.8937500000172
 20
252.087499999903
 30
0.0
 40
0.5
  1
Air Conditioner Ducted Round Flow Cassette
100
AcDbAttributeDefinition
  3

  2
DESCRIPTION
 70
     8
280
     0
  0
ATTDEF
  5
10B
330
FF
100
AcDbEntity
  8
AM_6
100
AcDbText
 10
424.8937500000172
 20
251.587499999903
 30
0.0
 40
0.5
  1
33.0625
100
AcDbAttributeDefinition
  3

  2
OVERALL_DEPTH
 70
     8
280
     0
  0
ATTDEF
  5
10C
330
FF
100
AcDbEntity
  8
AM_6
100
AcDbText
 10
424.8937500000172
 20
251.087499999903
 30
0.0
 40
0.5
  1
9.6875
100
AcDbAttributeDefinition
  3

  2
OVERALL_HEIGHT
 70
     8
280
     0
  0
ATTDEF
  5
10D
330
FF
100
AcDbEntity
  8
AM_6
100
AcDbText
 10
424.8937500000172
 20
250.587499999903
 30
0.0
 40
0.5
  1
33.0625
100
AcDbAttributeDefinition
  3

  2
OVERALL_WIDTH
 70
     8
280
     0
  0
ATTDEF
  5
10E
330
FF
100
AcDbEntity
  8
AM_6
100
AcDbText
 10
424.8937500000172
 20
250.087499999903
 30
0.0
 40
0.5
  1
https://daikincomfort.com/
100
AcDbAttributeDefinition
  3

  2
URL
 70
     8
280
     0
  0
ATTDEF
  5
10F
330
FF
100
AcDbEntity
  8
AM_6
100
AcDbText
 10
424.8937500000172
 20
249.587499999903
 30
0.0
 40
0.5
  1
Download Revit Family (RFA)
100
AcDbAttributeDefinition
  3

  2
RFA_FAMILY
 70
     8
280
     0
  0
ATTDEF
  5
110
330
FF
100
AcDbEntity
  8
AM_6
100
AcDbText
 10
424.8937500000172
 20
249.087499999903
 30
0.0
 40
0.5
  1
daikin
100
AcDbAttributeDefinition
  3

  2
COMPANY
 70
     8
280
     0
  0
ATTDEF
  5
111
330
FF
100
AcDbEntity
  8
AM_6
100
AcDbText
 10
424.8937500000172
 20
248.587499999903
 30
0.0
 40
0.5
  1
{$CADENAS_DATA/23d-libs/daikin/sky-air/sky-air20indoor20units/air_conditioner-indoor-daikin-fca.prj},240 {VTYP=3D},{NB=FCA18AAVJU-BYCQ54GEFU_PART4},{LINA=FCA18AAVJU-BYCQ54GEFU_PART4},{NN=(R32) Cassette Sky-Air Daikin FCA_PART4},{NOPRJ=TRUE},{DATE=03
100
AcDbAttributeDefinition
  3

  2
PSOL_0
 70
     9
280
     0
  0
ATTDEF
  5
112
330
FF
100
AcDbEntity
  8
AM_6
100
AcDbText
 10
424.8937500000172
 20
248.087499999903
 30
0.0
 40
0.5
  1
26 19:23:42},{GEOMDATE=23.09.2025 06:26:16},{VERSION=},{LINEID=10},{WBVAR=},{WBNUMERIC=}  {NB=FCA18AAVJU-BYCQ54GEFU_PART4},{LINA=FCA18AAVJU-BYCQ54GEFU_PART4},{KT=DUMMY},{PARTNUMBER=FCA18AAVJU-BYCQ54GEFU},{PARTNUMBERMAP09=1.5Ton_FCA18AAVJU-BYCQ54GEFU
100
AcDbAttributeDefinition
  3

  2
PSOL_1
 70
     9
280
     0
  0
ATTDEF
  5
113
330
FF
100
AcDbEntity
  8
AM_6
100
AcDbText
 10
424.8937500000172
 20
247.587499999903
 30
0.0
 40
0.5
  1
UAL_RETURN_AIR_FLOW=742},{ACTUAL_SUPPLY_AIR_FLOW=742},{AMBIENT_TEMPERATURE=0},{APPARENT_POWER=120},{ASSEMBLY_CODE=D3090},{BRANCH_DUCT_CENTER_OFFSET=0},{BRANCH_DUCT_DEPTH=0.00833333333333333},{BRANCH_DUCT_HEIGHT=0.3125},{BRANCH_DUCT_HORIZONTAL_OFFSET
100
AcDbAttributeDefinition
  3

  2
PSOL_2
 70
     9
280
     0
  0
ATTDEF
  5
114
330
FF
100
AcDbEntity
  8
AM_6
100
AcDbText
 10
424.8937500000172
 20
247.087499999903
 30
0.0
 40
0.5
  1
041666666667},{BRANCH_DUCT_LEFT_CENTER_OFFSET=0.0677083333333333},{BRANCH_DUCT_POSITION_ANGLE=0},{BRANCH_DUCT_REFERENCE_LENGTH=1.37760416666667},{BRANCH_DUCT_RIGHT_CENTER_OFFSET=0.0833333333333333},{BRANCH_DUCT_WIDTH=1.14583333333333},{CATEGORY=Mech
100
AcDbAttributeDefinition
  3

  2
PSOL_3
 70
     9
280
     0
  0
ATTDEF
  5
115
330
FF
100
AcDbEntity
  8
AM_6
100
AcDbText
 10
424.8937500000172
 20
246.587499999903
 30
0.0
 40
0.5
  1
 Equipment},{CEILING_OPENING_SPACE_DEPTH=2.98958333333333},{CEILING_OPENING_SPACE_WIDTH=2.98958333333333},{CLEARANCE_PRIMARY_OFFSET=5},{CLEARANCE_SECONDARY_OFFSET=0.65625},{CLEARANCE_VISIBILITY=1},{COIL_AIR_PRESSURE_DROP=0},{CONDENSATE_DRAIN_CONNECT
100
AcDbAttributeDefinition
  3

  2
PSOL_4
 70
     9
280
     0
  0
ATTDEF
  5
116
330
FF
100
AcDbEntity
  8
AM_6
100
AcDbText
 10
424.8937500000172
 20
246.087499999903
 30
0.0
 40
0.5
  1
AMETER=1.25},{CONDENSATE_DRAIN_PIPE_HORIZONTAL_OFFSET=0.583333333333333},{CONDENSATE_DRAIN_PIPE_LENGTH=1.38016666666667},{CONDENSATE_DRAIN_PIPE_RADIUS=0.0520833333333333},{CONDENSATE_DRAIN_PIPE_VERTICAL_OFFSET=1.11458333333333},{COOLING_ENTERING_DRY
100
AcDbAttributeDefinition
  3

  2
PSOL_5
 70
     9
280
     0
  0
ATTDEF
  5
117
330
FF
100
AcDbEntity
  8
AM_6
100
AcDbText
 10
424.8937500000172
 20
245.587499999903
 30
0.0
 40
0.5
  1
TEMPERATURE=0},{COOLING_ENTERING_WET_BULB_TEMPERATURE=0},{COOLING_LEAVING_DRY_BULB_TEMPERATURE=0},{COOLING_LEAVING_WET_BULB_TEMPERATURE=0},{COST=0},{DECORATION_PANEL_COVER_HEIGHT=0.135416666666667},{DECORATION_PANEL_DEPTH=3.11458333333333},{DECORATI
100
AcDbAttributeDefinition
  3

  2
PSOL_6
 70
     9
280
     0
  0
ATTDEF
  5
118
330
FF
100
AcDbEntity
  8
AM_6
100
AcDbText
 10
424.8937500000172
 20
245.087499999903
 30
0.0
 40
0.5
  1
EL_INSIDE_HEIGHT=0.03125},{DECORATION_PANEL_OVERALL_HEIGHT=0.166666666666667},{DECORATION_PANEL_WEIGHT=12},{DECORATION_PANEL_WIDTH=3.11458333333333},{DEFAULT_ELEVATION=4},{DESCRIPTION=Air Conditioner Ducted Round Flow Cassette},{DESIGN_BRANCH_DUCT_S
100
AcDbAttributeDefinition
  3

  2
PSOL_7
 70
     9
280
     0
  0
ATTDEF
  5
119
330
FF
100
AcDbEntity
  8
AM_6
100
AcDbText
 10
424.8937500000172
 20
244.587499999903
 30
0.0
 40
0.5
  1
AIR_FLOW=0},{DESIGN_FRESH_AIR_FLOW=0},{DESIGN_RETURN_AIR_FLOW=742},{DESIGN_SUPPLY_AIR_FLOW=742},{DRAIN_FLOW=0},{ENCLOSURE_DEPTH=2.75520833333333},{ENCLOSURE_FLANGE_OFFSET=2.33333333333333},{ENCLOSURE_HEIGHT=0.807291666666667},{ENCLOSURE_WIDTH=2.7552
100
AcDbAttributeDefinition
  3

  2
PSOL_8
 70
     9
280
     0
  0
ATTDEF
  5
11A
330
FF
100
AcDbEntity
  8
AM_6
100
AcDbText
 10
424.8937500000172
 20
244.087499999903
 30
0.0
 40
0.5
  1
3333},{FACE_VELOCITY__FPM_=0},{FAN_TYPE=Turbo fan},{FEET_PRESSURE_DROP=0},{FREQUENCY=60},{FRESH_AIR_INTAKE=0},{FRESH_AIR_INTAKE_RADIUS=0.0625},{GAS_PIPE_HORIZONTAL_OFFSET=0.541666666666667},{GAS_PIPE_LENGTH=1.38016666666667},{GAS_PIPE_RADIUS=0.02604
100
AcDbAttributeDefinition
  3

  2
PSOL_9
 70
     9
280
     0
  0
ATTDEF
  5
11B
330
FF
100
AcDbEntity
  8
AM_6
100
AcDbText
 10
424.8937500000172
 20
243.587499999903
 30
0.0
 40
0.5
  1
66667},{GAS_PIPE_VERTICAL_OFFSET=1.08333333333333},{HEAT_EXCHANGER_TYPE=Cross Fin Coil},{HEATING_ENTERING_DRY_BULB_TEMPERATURE=0},{HEATING_ENTERING_WET_BULB_TEMPERATURE=0},{HEATING_LEAVING_DRY_BULB_TEMPERATURE=0},{HEATING_LEAVING_WET_BULB_TEMPERATUR
100
AcDbAttributeDefinition
  3

  2
PSOL_10
 70
     9
280
     0
  0
ATTDEF
  5
11C
330
FF
100
AcDbEntity
  8
AM_6
100
AcDbText
 10
424.8937500000172
 20
243.087499999903
 30
0.0
 40
0.5
  1
KNOCK_HOLE_OFFSET=0.00833333333333333},{KNOCK_HOLE_RADIUS=0.164},{LATENT_COOLING_CAPACITY=0},{LIQUID_PIPE_HORIZONTAL_OFFSET=0.411458333333333},{LIQUID_PIPE_LENGTH=1.38016666666667},{LIQUID_PIPE_RADIUS=0.015625},{LIQUID_PIPE_VERTICAL_OFFSET=0.9166666
100
AcDbAttributeDefinition
  3

  2
PSOL_11
 70
     9
280
     0
  0
ATTDEF
  5
11D
330
FF
100
AcDbEntity
  8
AM_6
100
AcDbText
 10
424.8937500000172
 20
242.587499999903
 30
0.0
 40
0.5
  1
67},{LOAD_SUB_CLASSIFICATION_MOTOR=1},{MANUFACTURER=Daikin},{MASSUNIT=1},{MAXIMUM_AIR_FLOW=742},{MAXIMUM_OVERCURRENT_PROTECTION=15},{MEDIAN_AIR_FLOW=618},{MINIMUM_AIR_FLOW=477},{MINIMUM_CIRCUIT_AMPS=0.5},{MINIMUM_FLOOR_CLEARANCE=8.33333333333333},{M
100
AcDbAttributeDefinition
  3

  2
PSOL_12
 70
     9
280
     0
  0
ATTDEF
  5
11E
330
FF
100
AcDbEntity
  8
AM_6
100
AcDbText
 10
424.8937500000172
 20
242.087499999903
 30
0.0
 40
0.5
  1
_OBSTACLE_CLEARANCE=5},{MODEL=FCA18AAVJU-BYCQ54GEFU},{NO_OBSTACLES_BELOW_UNIT=1},{NOMINAL_COOLING_CAPACITY=18000},{NOMINAL_COOLING_CAPACITY__TONS_=1.5},{NOMINAL_HEATING_CAPACITY=20000},{NUMBER_OF_POLES=2},{OBSTACLES_BELOW_UNIT=0},{OMNICLASS_NUMBER=2
100
AcDbAttributeDefinition
  3

  2
PSOL_13
 70
     9
280
     0
  0
ATTDEF
  5
11F
330
FF
100
AcDbEntity
  8
AM_6
100
AcDbText
 10
424.8937500000172
 20
241.587499999903
 30
0.0
 40
0.5
  1
3.11.15.11},{OUT_AIR_INTAKE_H_OFFSET=0.598958333333333},{OUT_AIR_INTAKE_V_OFFSET=0.697916666666667},{OVERALL_DEPTH=33.0625},{OVERALL_HEIGHT=9.6875},{OVERALL_WIDTH=33.0625},{PARTTYPE=Normal},{PHASE=1},{REFRIGERANT_LIQUID_CONNECTION_DIAMETER=0.375},{R
100
AcDbAttributeDefinition
  3

  2
PSOL_14
 70
     9
280
     0
  0
ATTDEF
  5
120
330
FF
100
AcDbEntity
  8
AM_6
100
AcDbText
 10
424.8937500000172
 20
241.087499999903
 30
0.0
 40
0.5
  1
RANT_SUCTION_GAS_CONNECTION_DIAMETER=0.625},{REFRIGERANT_USED=R-32},{RETURN_AIR_PRESSURE_DROP=0},{SENSIBLE_COOLING_CAPACITY=0},{SERIES=SkyAir},{SUPPLY_AIR_CONNECTION_HEIGHT=0.0625},{SUPPLY_AIR_CONNECTION_WIDTH=0.0625},{SUPPLY_AIR_PRESSURE_DROP=0},{S
100
AcDbAttributeDefinition
  3

  2
PSOL_15
 70
     9
280
     0
  0
ATTDEF
  5
121
330
FF
100
AcDbEntity
  8
AM_6
100
AcDbText
 10
424.8937500000172
 20
240.587499999903
 30
0.0
 40
0.5
  1
PERFORMANCE_EER2=14},{SYSTEM_PERFORMANCE_HSPF2=9.2},{SYSTEM_PERFORMANCE_SEER2=19.5},{TOTAL_COOLING_CAPACITY=0},{TOTAL_HEATING_CAPACITY=0},{TOTAL_STATIC_PRESSURE=0},{UNIT_HEIGHT_CLEARANCE=8.33333333333333},{UNIT_WEIGHT=51},{URL=https://daikincomfort.
100
AcDbAttributeDefinition
  3

  2
PSOL_16
 70
     9
280
     0
  0
ATTDEF
  5
122
330
FF
100
AcDbEntity
  8
AM_6
100
AcDbText
 10
424.8937500000172
 20
240.087499999903
 30
0.0
 40
0.5
  1
{VERSION=1},{VOLTAGE=240},{VOLTAGE_COMMENTS=208 VAC - 230 VAC},{VAR__NO_BRANCH_DUCT=1},{VAR__BRANCH_DUCT_SELECTOR=0},{VAR__FAN_SPEED_SELECTOR=3},{VAR__BRANCH_DUCT_FRONT_OPENING=0},{VAR__L____LOW_FAN_SPEED=477},{VAR__BRANCH_DUCT_RIGHT_OPENING=0},{VAR
100
AcDbAttributeDefinition
  3

  2
PSOL_17
 70
     9
280
     0
  0
ATTDEF
  5
123
330
FF
100
AcDbEntity
  8
AM_6
100
AcDbText
 10
424.8937500000172
 20
239.587499999903
 30
0.0
 40
0.5
  1
MEDIUM_SPEED=618},{VAR__BRANCH_DUCT_BACK_OPENING=0},{VAR__H___HIGH_FAN_SPEED=742},{VAR__BRANCH_DUCT_LEFT_OPENING=0},{RFA_FAMILY=Download Revit Family (RFA)},{DEFAULTSORTATTR=60},{RFA_FAMILY_=../../_pool_/be/62/air_conditioner-indoor-daikin-fca.zip},
100
AcDbAttributeDefinition
  3

  2
PSOL_18
 70
     9
280
     0
  0
ATTDEF
  5
124
330
FF
100
AcDbEntity
  8
AM_6
100
AcDbText
 10
424.8937500000172
 20
239.087499999903
 30
0.0
 40
0.5
  1
AMILY_ENG=../../_pool_/be/62/air_conditioner-indoor-daikin-fca.zip},{REVIT_FAMILY_DOWNLOAD=../../_pool_/be/62/air_conditioner-indoor-daikin-fca.zip}
100
AcDbAttributeDefinition
  3

  2
PSOL_19
 70
     9
280
     0
  0
LINE
  5
127
330
FF
100
AcDbEntity
  8
AM_9
100
AcDbLine
 10
291.3062500000056
 20
255.5874999998932
 30
0.0
 11
291.306250000003
 21
9.524999999929578
 31
0.0
  0
LINE
  5
128
330
FF
100
AcDbEntity
  8
AM_9
100
AcDbLine
 10
-200.02500000001
 20
112.71249999993
 30
0.0
 11
-200.02500000001
 21
207.96249999993
 31
0.0
  0
LINE
  5
129
330
FF
100
AcDbEntity
  8
AM_9
100
AcDbLine
 10
149.22499999999
 20
207.96249999993
 30
0.0
 11
149.22499999999
 21
112.71249999993
 31
0.0
  0
CIRCLE
  5
12A
330
FF
100
AcDbEntity
  8
AM_9
100
AcDbCircle
 10
212.724999999991
 20
182.562500000001
 30
0.0
 40
49.9872
  0
LINE
  5
12B
330
FF
100
AcDbEntity
  8
AM_9
100
AcDbLine
 10
417.353749999992
 20
112.71249999993
 30
0.0
 11
417.353749999992
 21
207.96249999993
 31
0.0
  0
LINE
  5
12C
330
FF
100
AcDbEntity
  8
AM_9
100
AcDbLine
 10
419.8937500000152
 20
207.96249999993
 30
0.0
 11
417.353749999992
 21
207.96249999993
 31
0.0
  0
LINE
  5
12D
330
FF
100
AcDbEntity
  8
AM_9
100
AcDbLine
 10
417.353749999992
 20
112.71249999993
 30
0.0
 11
419.8937500000141
 21
112.71249999993
 31
0.0
  0
LINE
  5
12E
330
FF
100
AcDbEntity
  8
AM_9
100
AcDbLine
 10
-419.8937499999975
 20
112.71249999993
 30
0.0
 11
-417.353750000008
 21
112.71249999993
 31
0.0
  0
LINE
  5
12F
330
FF
100
AcDbEntity
  8
AM_9
100
AcDbLine
 10
-417.353750000008
 20
112.71249999993
 30
0.0
 11
-417.3537500000079
 21
207.96249999993
 31
0.0
  0
LINE
  5
130
330
FF
100
AcDbEntity
  8
AM_9
100
AcDbLine
 10
-417.3537500000079
 20
207.96249999993
 30
0.0
 11
-419.8937499999964
 21
207.96249999993
 31
0.0
  0
LINE
  5
131
330
FF
100
AcDbEntity
  8
AM_9
100
AcDbLine
 10
279.4000000000156
 20
120.649999999941
 30
0.0
 11
279.4000000000157
 21
130.174999999941
 31
0.0
  0
LINE
  5
132
330
FF
100
AcDbEntity
  8
AM_7
100
AcDbLine
 10
160.238439999991
 20
182.562500000001
 30
0.0
 11
265.211559999991
 21
182.562500000001
 31
0.0
  0
LINE
  5
133
330
FF
100
AcDbEntity
  8
AM_7
100
AcDbLine
 10
212.724999999991
 20
130.075940000001
 30
0.0
 11
212.724999999991
 21
235.049060000001
 31
0.0
  0
LINE
  5
134
330
FF
100
AcDbEntity
  8
AM_0
100
AcDbLine
 10
419.8937500000172
 20
255.5874999998921
 30
0.0
 11
419.893750000014
 21
9.5249999999278
 31
0.0
  0
LINE
  5
135
330
FF
100
AcDbEntity
  8
AM_0
100
AcDbLine
 10
279.4000000000157
 20
130.174999999941
 30
0.0
 11
279.4000000000172
 21
255.5874999998937
 31
0.0
  0
LINE
  5
136
330
FF
100
AcDbEntity
  8
AM_0
100
AcDbLine
 10
279.4000000000141
 20
9.524999999929742
 30
0.0
 11
279.4000000000156
 21
120.649999999941
 31
0.0
  0
LINE
  5
137
330
FF
100
AcDbEntity
  8
AM_0
100
AcDbLine
 10
419.893750000014
 20
9.5249999999278
 30
0.0
 11
-419.8937499999971
 21
9.524999999939409
 31
0.0
  0
LINE
  5
138
330
FF
100
AcDbEntity
  8
AM_0
100
AcDbLine
 10
-419.8937499999939
 20
255.587499999903
 30
0.0
 11
419.8937500000172
 21
255.5874999998921
 31
0.0
  0
LINE
  5
139
330
FF
100
AcDbEntity
  8
AM_0
100
AcDbLine
 10
-419.8937499999939
 20
255.587499999903
 30
0.0
 11
-419.8937499999971
 21
9.524999999939409
 31
0.0
  0
LINE
  5
13A
330
FF
100
AcDbEntity
  8
AM_0
100
AcDbLine
 10
215.1062500000167
 20
255.587499999894
 30
0.0
 11
215.1062500000135
 21
9.52499999993063
 31
0.0
  0
LINE
  5
13B
330
FF
100
AcDbEntity
  8
AM_0
100
AcDbLine
 10
-291.3062499999938
 20
255.587499999901
 30
0.0
 11
-291.306249999997
 21
9.524999999937632
 31
0.0
  0
LINE
  5
13C
330
FF
100
AcDbEntity
  8
AM_0
100
AcDbLine
 10
153.987499999993
 20
112.71249999993
 30
0.0
 11
-195.262500000007
 21
112.71249999993
 31
0.0
  0
LINE
  5
13D
330
FF
100
AcDbEntity
  8
AM_0
100
AcDbLine
 10
-195.262500000007
 20
112.71249999993
 30
0.0
 11
-195.262500000007
 21
207.96249999993
 31
0.0
  0
LINE
  5
13E
330
FF
100
AcDbEntity
  8
AM_0
100
AcDbLine
 10
-195.262500000007
 20
207.96249999993
 30
0.0
 11
153.987499999993
 21
207.96249999993
 31
0.0
  0
LINE
  5
13F
330
FF
100
AcDbEntity
  8
AM_0
100
AcDbLine
 10
153.987499999993
 20
207.96249999993
 30
0.0
 11
153.987499999993
 21
112.71249999993
 31
0.0
  0
ENDBLK
  5
102
330
FF
100
AcDbEntity
  8
0
100
AcDbBlockEnd
  0
BLOCK
  5
142
330
140
100
AcDbEntity
  8
0
100
AcDbBlockBegin
  2
5_FCA18AAVJU_BYCQ54GEFU_PART3_0_in_FCA18AAVJU_BYCQ54GEFU_2
 70
     2
 10
0.0
 20
0.0
 30
0.0
  3
5_FCA18AAVJU_BYCQ54GEFU_PART3_0_in_FCA18AAVJU_BYCQ54GEFU_2
  1

  0
ATTDEF
  5
144
330
140
100
AcDbEntity
  8
AM_6
100
AcDbText
 10
424.893750000013
 20
9.524999999939089
 30
0.0
 40
0.5
  1
FCA18AAVJU-BYCQ54GEFU_PART3
100
AcDbAttributeDefinition
  3

  2
NB
 70
     8
280
     0
  0
ATTDEF
  5
145
330
140
100
AcDbEntity
  8
AM_6
100
AcDbText
 10
424.893750000013
 20
9.024999999939089
 30
0.0
 40
0.5
  1

100
AcDbAttributeDefinition
  3

  2
NN
 70
     8
280
     0
  0
ATTDEF
  5
146
330
140
100
AcDbEntity
  8
AM_6
100
AcDbText
 10
424.893750000013
 20
8.524999999939089
 30
0.0
 40
0.5
  1

100
AcDbAttributeDefinition
  3

  2
NT
 70
     8
280
     0
  0
ATTDEF
  5
147
330
140
100
AcDbEntity
  8
AM_6
100
AcDbText
 10
424.893750000013
 20
8.024999999939089
 30
0.0
 40
0.5
  1
$PARTNUMBER._PART3
100
AcDbAttributeDefinition
  3

  2
NBSYN
 70
     8
280
     0
  0
ATTDEF
  5
148
330
140
100
AcDbEntity
  8
AM_6
100
AcDbText
 10
424.893750000013
 20
7.524999999939089
 30
0.0
 40
0.5
  1
FCA18AAVJU-BYCQ54GEFU_PART3
100
AcDbAttributeDefinition
  3

  2
LINA
 70
     8
280
     0
  0
ATTDEF
  5
149
330
140
100
AcDbEntity
  8
AM_6
100
AcDbText
 10
424.893750000013
 20
7.024999999939089
 30
0.0
 40
0.5
  1
Daikin
100
AcDbAttributeDefinition
  3

  2
CATALOG
 70
     8
280
     0
  0
ATTDEF
  5
14A
330
140
100
AcDbEntity
  8
AM_6
100
AcDbText
 10
424.893750000013
 20
6.524999999939089
 30
0.0
 40
0.5
  1
FCA18AAVJU-BYCQ54GEFU
100
AcDbAttributeDefinition
  3

  2
PARTNUMBER
 70
     8
280
     0
  0
ATTDEF
  5
14B
330
140
100
AcDbEntity
  8
AM_6
100
AcDbText
 10
424.893750000013
 20
6.024999999939089
 30
0.0
 40
0.5
  1
Air Conditioner Ducted Round Flow Cassette
100
AcDbAttributeDefinition
  3

  2
DESCRIPTION
 70
     8
280
     0
  0
ATTDEF
  5
14C
330
140
100
AcDbEntity
  8
AM_6
100
AcDbText
 10
424.893750000013
 20
5.524999999939089
 30
0.0
 40
0.5
  1
33.0625
100
AcDbAttributeDefinition
  3

  2
OVERALL_DEPTH
 70
     8
280
     0
  0
ATTDEF
  5
14D
330
140
100
AcDbEntity
  8
AM_6
100
AcDbText
 10
424.893750000013
 20
5.024999999939089
 30
0.0
 40
0.5
  1
9.6875
100
AcDbAttributeDefinition
  3

  2
OVERALL_HEIGHT
 70
     8
280
     0
  0
ATTDEF
  5
14E
330
140
100
AcDbEntity
  8
AM_6
100
AcDbText
 10
424.893750000013
 20
4.524999999939089
 30
0.0
 40
0.5
  1
33.0625
100
AcDbAttributeDefinition
  3

  2
OVERALL_WIDTH
 70
     8
280
     0
  0
ATTDEF
  5
14F
330
140
100
AcDbEntity
  8
AM_6
100
AcDbText
 10
424.893750000013
 20
4.024999999939089
 30
0.0
 40
0.5
  1
https://daikincomfort.com/
100
AcDbAttributeDefinition
  3

  2
URL
 70
     8
280
     0
  0
ATTDEF
  5
150
330
140
100
AcDbEntity
  8
AM_6
100
AcDbText
 10
424.893750000013
 20
3.524999999939089
 30
0.0
 40
0.5
  1
Download Revit Family (RFA)
100
AcDbAttributeDefinition
  3

  2
RFA_FAMILY
 70
     8
280
     0
  0
ATTDEF
  5
151
330
140
100
AcDbEntity
  8
AM_6
100
AcDbText
 10
424.893750000013
 20
3.024999999939089
 30
0.0
 40
0.5
  1
daikin
100
AcDbAttributeDefinition
  3

  2
COMPANY
 70
     8
280
     0
  0
ATTDEF
  5
152
330
140
100
AcDbEntity
  8
AM_6
100
AcDbText
 10
424.893750000013
 20
2.524999999939089
 30
0.0
 40
0.5
  1
{$CADENAS_DATA/23d-libs/daikin/sky-air/sky-air20indoor20units/air_conditioner-indoor-daikin-fca.prj},240 {VTYP=3D},{NB=FCA18AAVJU-BYCQ54GEFU_PART3},{LINA=FCA18AAVJU-BYCQ54GEFU_PART3},{NN=(R32) Cassette Sky-Air Daikin FCA_PART3},{NOPRJ=TRUE},{DATE=03
100
AcDbAttributeDefinition
  3

  2
PSOL_0
 70
     9
280
     0
  0
ATTDEF
  5
153
330
140
100
AcDbEntity
  8
AM_6
100
AcDbText
 10
424.893750000013
 20
2.024999999939089
 30
0.0
 40
0.5
  1
26 19:23:42},{GEOMDATE=23.09.2025 06:26:16},{VERSION=},{LINEID=10},{WBVAR=},{WBNUMERIC=}  {NB=FCA18AAVJU-BYCQ54GEFU_PART3},{LINA=FCA18AAVJU-BYCQ54GEFU_PART3},{KT=DUMMY},{PARTNUMBER=FCA18AAVJU-BYCQ54GEFU},{PARTNUMBERMAP09=1.5Ton_FCA18AAVJU-BYCQ54GEFU
100
AcDbAttributeDefinition
  3

  2
PSOL_1
 70
     9
280
     0
  0
ATTDEF
  5
154
330
140
100
AcDbEntity
  8
AM_6
100
AcDbText
 10
424.893750000013
 20
1.524999999939089
 30
0.0
 40
0.5
  1
UAL_RETURN_AIR_FLOW=742},{ACTUAL_SUPPLY_AIR_FLOW=742},{AMBIENT_TEMPERATURE=0},{APPARENT_POWER=120},{ASSEMBLY_CODE=D3090},{BRANCH_DUCT_CENTER_OFFSET=0},{BRANCH_DUCT_DEPTH=0.00833333333333333},{BRANCH_DUCT_HEIGHT=0.3125},{BRANCH_DUCT_HORIZONTAL_OFFSET
100
AcDbAttributeDefinition
  3

  2
PSOL_2
 70
     9
280
     0
  0
ATTDEF
  5
155
330
140
100
AcDbEntity
  8
AM_6
100
AcDbText
 10
424.893750000013
 20
1.024999999939089
 30
0.0
 40
0.5
  1
041666666667},{BRANCH_DUCT_LEFT_CENTER_OFFSET=0.0677083333333333},{BRANCH_DUCT_POSITION_ANGLE=0},{BRANCH_DUCT_REFERENCE_LENGTH=1.37760416666667},{BRANCH_DUCT_RIGHT_CENTER_OFFSET=0.0833333333333333},{BRANCH_DUCT_WIDTH=1.14583333333333},{CATEGORY=Mech
100
AcDbAttributeDefinition
  3

  2
PSOL_3
 70
     9
280
     0
  0
ATTDEF
  5
156
330
140
100
AcDbEntity
  8
AM_6
100
AcDbText
 10
424.893750000013
 20
0.5249999999390891
 30
0.0
 40
0.5
  1
 Equipment},{CEILING_OPENING_SPACE_DEPTH=2.98958333333333},{CEILING_OPENING_SPACE_WIDTH=2.98958333333333},{CLEARANCE_PRIMARY_OFFSET=5},{CLEARANCE_SECONDARY_OFFSET=0.65625},{CLEARANCE_VISIBILITY=1},{COIL_AIR_PRESSURE_DROP=0},{CONDENSATE_DRAIN_CONNECT
100
AcDbAttributeDefinition
  3

  2
PSOL_4
 70
     9
280
     0
  0
ATTDEF
  5
157
330
140
100
AcDbEntity
  8
AM_6
100
AcDbText
 10
424.893750000013
 20
0.0249999999390891
 30
0.0
 40
0.5
  1
AMETER=1.25},{CONDENSATE_DRAIN_PIPE_HORIZONTAL_OFFSET=0.583333333333333},{CONDENSATE_DRAIN_PIPE_LENGTH=1.38016666666667},{CONDENSATE_DRAIN_PIPE_RADIUS=0.0520833333333333},{CONDENSATE_DRAIN_PIPE_VERTICAL_OFFSET=1.11458333333333},{COOLING_ENTERING_DRY
100
AcDbAttributeDefinition
  3

  2
PSOL_5
 70
     9
280
     0
  0
ATTDEF
  5
158
330
140
100
AcDbEntity
  8
AM_6
100
AcDbText
 10
424.893750000013
 20
-0.4750000000609109
 30
0.0
 40
0.5
  1
TEMPERATURE=0},{COOLING_ENTERING_WET_BULB_TEMPERATURE=0},{COOLING_LEAVING_DRY_BULB_TEMPERATURE=0},{COOLING_LEAVING_WET_BULB_TEMPERATURE=0},{COST=0},{DECORATION_PANEL_COVER_HEIGHT=0.135416666666667},{DECORATION_PANEL_DEPTH=3.11458333333333},{DECORATI
100
AcDbAttributeDefinition
  3

  2
PSOL_6
 70
     9
280
     0
  0
ATTDEF
  5
159
330
140
100
AcDbEntity
  8
AM_6
100
AcDbText
 10
424.893750000013
 20
-0.9750000000609109
 30
0.0
 40
0.5
  1
EL_INSIDE_HEIGHT=0.03125},{DECORATION_PANEL_OVERALL_HEIGHT=0.166666666666667},{DECORATION_PANEL_WEIGHT=12},{DECORATION_PANEL_WIDTH=3.11458333333333},{DEFAULT_ELEVATION=4},{DESCRIPTION=Air Conditioner Ducted Round Flow Cassette},{DESIGN_BRANCH_DUCT_S
100
AcDbAttributeDefinition
  3

  2
PSOL_7
 70
     9
280
     0
  0
ATTDEF
  5
15A
330
140
100
AcDbEntity
  8
AM_6
100
AcDbText
 10
424.893750000013
 20
-1.475000000060911
 30
0.0
 40
0.5
  1
AIR_FLOW=0},{DESIGN_FRESH_AIR_FLOW=0},{DESIGN_RETURN_AIR_FLOW=742},{DESIGN_SUPPLY_AIR_FLOW=742},{DRAIN_FLOW=0},{ENCLOSURE_DEPTH=2.75520833333333},{ENCLOSURE_FLANGE_OFFSET=2.33333333333333},{ENCLOSURE_HEIGHT=0.807291666666667},{ENCLOSURE_WIDTH=2.7552
100
AcDbAttributeDefinition
  3

  2
PSOL_8
 70
     9
280
     0
  0
ATTDEF
  5
15B
330
140
100
AcDbEntity
  8
AM_6
100
AcDbText
 10
424.893750000013
 20
-1.975000000060911
 30
0.0
 40
0.5
  1
3333},{FACE_VELOCITY__FPM_=0},{FAN_TYPE=Turbo fan},{FEET_PRESSURE_DROP=0},{FREQUENCY=60},{FRESH_AIR_INTAKE=0},{FRESH_AIR_INTAKE_RADIUS=0.0625},{GAS_PIPE_HORIZONTAL_OFFSET=0.541666666666667},{GAS_PIPE_LENGTH=1.38016666666667},{GAS_PIPE_RADIUS=0.02604
100
AcDbAttributeDefinition
  3

  2
PSOL_9
 70
     9
280
     0
  0
ATTDEF
  5
15C
330
140
100
AcDbEntity
  8
AM_6
100
AcDbText
 10
424.893750000013
 20
-2.475000000060911
 30
0.0
 40
0.5
  1
66667},{GAS_PIPE_VERTICAL_OFFSET=1.08333333333333},{HEAT_EXCHANGER_TYPE=Cross Fin Coil},{HEATING_ENTERING_DRY_BULB_TEMPERATURE=0},{HEATING_ENTERING_WET_BULB_TEMPERATURE=0},{HEATING_LEAVING_DRY_BULB_TEMPERATURE=0},{HEATING_LEAVING_WET_BULB_TEMPERATUR
100
AcDbAttributeDefinition
  3

  2
PSOL_10
 70
     9
280
     0
  0
ATTDEF
  5
15D
330
140
100
AcDbEntity
  8
AM_6
100
AcDbText
 10
424.893750000013
 20
-2.975000000060911
 30
0.0
 40
0.5
  1
KNOCK_HOLE_OFFSET=0.00833333333333333},{KNOCK_HOLE_RADIUS=0.164},{LATENT_COOLING_CAPACITY=0},{LIQUID_PIPE_HORIZONTAL_OFFSET=0.411458333333333},{LIQUID_PIPE_LENGTH=1.38016666666667},{LIQUID_PIPE_RADIUS=0.015625},{LIQUID_PIPE_VERTICAL_OFFSET=0.9166666
100
AcDbAttributeDefinition
  3

  2
PSOL_11
 70
     9
280
     0
  0
ATTDEF
  5
15E
330
140
100
AcDbEntity
  8
AM_6
100
AcDbText
 10
424.893750000013
 20
-3.475000000060911
 30
0.0
 40
0.5
  1
67},{LOAD_SUB_CLASSIFICATION_MOTOR=1},{MANUFACTURER=Daikin},{MASSUNIT=1},{MAXIMUM_AIR_FLOW=742},{MAXIMUM_OVERCURRENT_PROTECTION=15},{MEDIAN_AIR_FLOW=618},{MINIMUM_AIR_FLOW=477},{MINIMUM_CIRCUIT_AMPS=0.5},{MINIMUM_FLOOR_CLEARANCE=8.33333333333333},{M
100
AcDbAttributeDefinition
  3

  2
PSOL_12
 70
     9
280
     0
  0
ATTDEF
  5
15F
330
140
100
AcDbEntity
  8
AM_6
100
AcDbText
 10
424.893750000013
 20
-3.975000000060911
 30
0.0
 40
0.5
  1
_OBSTACLE_CLEARANCE=5},{MODEL=FCA18AAVJU-BYCQ54GEFU},{NO_OBSTACLES_BELOW_UNIT=1},{NOMINAL_COOLING_CAPACITY=18000},{NOMINAL_COOLING_CAPACITY__TONS_=1.5},{NOMINAL_HEATING_CAPACITY=20000},{NUMBER_OF_POLES=2},{OBSTACLES_BELOW_UNIT=0},{OMNICLASS_NUMBER=2
100
AcDbAttributeDefinition
  3

  2
PSOL_13
 70
     9
280
     0
  0
ATTDEF
  5
160
330
140
100
AcDbEntity
  8
AM_6
100
AcDbText
 10
424.893750000013
 20
-4.475000000060911
 30
0.0
 40
0.5
  1
3.11.15.11},{OUT_AIR_INTAKE_H_OFFSET=0.598958333333333},{OUT_AIR_INTAKE_V_OFFSET=0.697916666666667},{OVERALL_DEPTH=33.0625},{OVERALL_HEIGHT=9.6875},{OVERALL_WIDTH=33.0625},{PARTTYPE=Normal},{PHASE=1},{REFRIGERANT_LIQUID_CONNECTION_DIAMETER=0.375},{R
100
AcDbAttributeDefinition
  3

  2
PSOL_14
 70
     9
280
     0
  0
ATTDEF
  5
161
330
140
100
AcDbEntity
  8
AM_6
100
AcDbText
 10
424.893750000013
 20
-4.975000000060911
 30
0.0
 40
0.5
  1
RANT_SUCTION_GAS_CONNECTION_DIAMETER=0.625},{REFRIGERANT_USED=R-32},{RETURN_AIR_PRESSURE_DROP=0},{SENSIBLE_COOLING_CAPACITY=0},{SERIES=SkyAir},{SUPPLY_AIR_CONNECTION_HEIGHT=0.0625},{SUPPLY_AIR_CONNECTION_WIDTH=0.0625},{SUPPLY_AIR_PRESSURE_DROP=0},{S
100
AcDbAttributeDefinition
  3

  2
PSOL_15
 70
     9
280
     0
  0
ATTDEF
  5
162
330
140
100
AcDbEntity
  8
AM_6
100
AcDbText
 10
424.893750000013
 20
-5.475000000060911
 30
0.0
 40
0.5
  1
PERFORMANCE_EER2=14},{SYSTEM_PERFORMANCE_HSPF2=9.2},{SYSTEM_PERFORMANCE_SEER2=19.5},{TOTAL_COOLING_CAPACITY=0},{TOTAL_HEATING_CAPACITY=0},{TOTAL_STATIC_PRESSURE=0},{UNIT_HEIGHT_CLEARANCE=8.33333333333333},{UNIT_WEIGHT=51},{URL=https://daikincomfort.
100
AcDbAttributeDefinition
  3

  2
PSOL_16
 70
     9
280
     0
  0
ATTDEF
  5
163
330
140
100
AcDbEntity
  8
AM_6
100
AcDbText
 10
424.893750000013
 20
-5.975000000060911
 30
0.0
 40
0.5
  1
{VERSION=1},{VOLTAGE=240},{VOLTAGE_COMMENTS=208 VAC - 230 VAC},{VAR__NO_BRANCH_DUCT=1},{VAR__BRANCH_DUCT_SELECTOR=0},{VAR__FAN_SPEED_SELECTOR=3},{VAR__BRANCH_DUCT_FRONT_OPENING=0},{VAR__L____LOW_FAN_SPEED=477},{VAR__BRANCH_DUCT_RIGHT_OPENING=0},{VAR
100
AcDbAttributeDefinition
  3

  2
PSOL_17
 70
     9
280
     0
  0
ATTDEF
  5
164
330
140
100
AcDbEntity
  8
AM_6
100
AcDbText
 10
424.893750000013
 20
-6.475000000060911
 30
0.0
 40
0.5
  1
MEDIUM_SPEED=618},{VAR__BRANCH_DUCT_BACK_OPENING=0},{VAR__H___HIGH_FAN_SPEED=742},{VAR__BRANCH_DUCT_LEFT_OPENING=0},{RFA_FAMILY=Download Revit Family (RFA)},{DEFAULTSORTATTR=60},{RFA_FAMILY_=../../_pool_/be/62/air_conditioner-indoor-daikin-fca.zip},
100
AcDbAttributeDefinition
  3

  2
PSOL_18
 70
     9
280
     0
  0
ATTDEF
  5
165
330
140
100
AcDbEntity
  8
AM_6
100
AcDbText
 10
424.893750000013
 20
-6.975000000060911
 30
0.0
 40
0.5
  1
AMILY_ENG=../../_pool_/be/62/air_conditioner-indoor-daikin-fca.zip},{REVIT_FAMILY_DOWNLOAD=../../_pool_/be/62/air_conditioner-indoor-daikin-fca.zip}
100
AcDbAttributeDefinition
  3

  2
PSOL_19
 70
     9
280
     0
  0
LINE
  5
166
330
140
100
AcDbEntity
  8
AM_9
100
AcDbLine
 10
291.306250000003
 20
0.0000000000073096
 30
0.0
 11
291.3062500000035
 21
9.524999999939089
 31
0.0
  0
LINE
  5
167
330
140
100
AcDbEntity
  8
AM_0
100
AcDbLine
 10
419.893750000013
 20
9.524999999939089
 30
0.0
 11
419.893750000013
 21
0.0000000000073096
 31
0.0
  0
LINE
  5
168
330
140
100
AcDbEntity
  8
AM_0
100
AcDbLine
 10
279.4000000000133
 20
0.0000000000073096
 30
0.0
 11
279.4000000000128
 21
9.524999999939089
 31
0.0
  0
LINE
  5
169
330
140
100
AcDbEntity
  8
AM_0
100
AcDbLine
 10
-419.8937499999971
 20
9.524999999939089
 30
0.0
 11
419.893750000013
 21
9.524999999939089
 31
0.0
  0
LINE
  5
16A
330
140
100
AcDbEntity
  8
AM_0
100
AcDbLine
 10
-419.8937499999971
 20
0.0000000000073096
 30
0.0
 11
-419.8937499999971
 21
9.524999999939089
 31
0.0
  0
LINE
  5
16B
330
140
100
AcDbEntity
  8
AM_0
100
AcDbLine
 10
-291.3062499999976
 20
0.0000000000073096
 30
0.0
 11
-291.3062499999978
 21
9.524999999939089
 31
0.0
  0
LINE
  5
16C
330
140
100
AcDbEntity
  8
AM_0
100
AcDbLine
 10
215.1062500000133
 20
0.0000000000073096
 30
0.0
 11
215.1062500000135
 21
9.524999999939089
 31
0.0
  0
ENDBLK
  5
143
330
140
100
AcDbEntity
  8
0
100
AcDbBlockEnd
  0
BLOCK
  5
16F
330
16D
100
AcDbEntity
  8
0
100
AcDbBlockBegin
  2
6_FCA18AAVJU_BYCQ54GEFU_PART2_0_in_FCA18AAVJU_BYCQ54GEFU_2
 70
     2
 10
0.0
 20
0.0
 30
0.0
  3
6_FCA18AAVJU_BYCQ54GEFU_PART2_0_in_FCA18AAVJU_BYCQ54GEFU_2
  1

  0
ATTDEF
  5
171
330
16D
100
AcDbEntity
  8
AM_6
100
AcDbText
 10
479.6628122557412
 20
0.0000000000084335
 30
0.0
 40
0.5
  1
FCA18AAVJU-BYCQ54GEFU_PART2
100
AcDbAttributeDefinition
  3

  2
NB
 70
     8
280
     0
  0
ATTDEF
  5
172
330
16D
100
AcDbEntity
  8
AM_6
100
AcDbText
 10
479.6628122557412
 20
-0.4999999999915665
 30
0.0
 40
0.5
  1

100
AcDbAttributeDefinition
  3

  2
NN
 70
     8
280
     0
  0
ATTDEF
  5
173
330
16D
100
AcDbEntity
  8
AM_6
100
AcDbText
 10
479.6628122557412
 20
-0.9999999999915665
 30
0.0
 40
0.5
  1

100
AcDbAttributeDefinition
  3

  2
NT
 70
     8
280
     0
  0
ATTDEF
  5
174
330
16D
100
AcDbEntity
  8
AM_6
100
AcDbText
 10
479.6628122557412
 20
-1.499999999991567
 30
0.0
 40
0.5
  1
$PARTNUMBER._PART2
100
AcDbAttributeDefinition
  3

  2
NBSYN
 70
     8
280
     0
  0
ATTDEF
  5
175
330
16D
100
AcDbEntity
  8
AM_6
100
AcDbText
 10
479.6628122557412
 20
-1.999999999991567
 30
0.0
 40
0.5
  1
FCA18AAVJU-BYCQ54GEFU_PART2
100
AcDbAttributeDefinition
  3

  2
LINA
 70
     8
280
     0
  0
ATTDEF
  5
176
330
16D
100
AcDbEntity
  8
AM_6
100
AcDbText
 10
479.6628122557412
 20
-2.499999999991567
 30
0.0
 40
0.5
  1
Daikin
100
AcDbAttributeDefinition
  3

  2
CATALOG
 70
     8
280
     0
  0
ATTDEF
  5
177
330
16D
100
AcDbEntity
  8
AM_6
100
AcDbText
 10
479.6628122557412
 20
-2.999999999991567
 30
0.0
 40
0.5
  1
FCA18AAVJU-BYCQ54GEFU
100
AcDbAttributeDefinition
  3

  2
PARTNUMBER
 70
     8
280
     0
  0
ATTDEF
  5
178
330
16D
100
AcDbEntity
  8
AM_6
100
AcDbText
 10
479.6628122557412
 20
-3.499999999991567
 30
0.0
 40
0.5
  1
Air Conditioner Ducted Round Flow Cassette
100
AcDbAttributeDefinition
  3

  2
DESCRIPTION
 70
     8
280
     0
  0
ATTDEF
  5
179
330
16D
100
AcDbEntity
  8
AM_6
100
AcDbText
 10
479.6628122557412
 20
-3.999999999991567
 30
0.0
 40
0.5
  1
33.0625
100
AcDbAttributeDefinition
  3

  2
OVERALL_DEPTH
 70
     8
280
     0
  0
ATTDEF
  5
17A
330
16D
100
AcDbEntity
  8
AM_6
100
AcDbText
 10
479.6628122557412
 20
-4.499999999991567
 30
0.0
 40
0.5
  1
9.6875
100
AcDbAttributeDefinition
  3

  2
OVERALL_HEIGHT
 70
     8
280
     0
  0
ATTDEF
  5
17B
330
16D
100
AcDbEntity
  8
AM_6
100
AcDbText
 10
479.6628122557412
 20
-4.999999999991567
 30
0.0
 40
0.5
  1
33.0625
100
AcDbAttributeDefinition
  3

  2
OVERALL_WIDTH
 70
     8
280
     0
  0
ATTDEF
  5
17C
330
16D
100
AcDbEntity
  8
AM_6
100
AcDbText
 10
479.6628122557412
 20
-5.499999999991567
 30
0.0
 40
0.5
  1
https://daikincomfort.com/
100
AcDbAttributeDefinition
  3

  2
URL
 70
     8
280
     0
  0
ATTDEF
  5
17D
330
16D
100
AcDbEntity
  8
AM_6
100
AcDbText
 10
479.6628122557412
 20
-5.999999999991567
 30
0.0
 40
0.5
  1
Download Revit Family (RFA)
100
AcDbAttributeDefinition
  3

  2
RFA_FAMILY
 70
     8
280
     0
  0
ATTDEF
  5
17E
330
16D
100
AcDbEntity
  8
AM_6
100
AcDbText
 10
479.6628122557412
 20
-6.499999999991567
 30
0.0
 40
0.5
  1
daikin
100
AcDbAttributeDefinition
  3

  2
COMPANY
 70
     8
280
     0
  0
ATTDEF
  5
17F
330
16D
100
AcDbEntity
  8
AM_6
100
AcDbText
 10
479.6628122557412
 20
-6.999999999991567
 30
0.0
 40
0.5
  1
{$CADENAS_DATA/23d-libs/daikin/sky-air/sky-air20indoor20units/air_conditioner-indoor-daikin-fca.prj},240 {VTYP=3D},{NB=FCA18AAVJU-BYCQ54GEFU_PART2},{LINA=FCA18AAVJU-BYCQ54GEFU_PART2},{NN=(R32) Cassette Sky-Air Daikin FCA_PART2},{NOPRJ=TRUE},{DATE=03
100
AcDbAttributeDefinition
  3

  2
PSOL_0
 70
     9
280
     0
  0
ATTDEF
  5
180
330
16D
100
AcDbEntity
  8
AM_6
100
AcDbText
 10
479.6628122557412
 20
-7.499999999991567
 30
0.0
 40
0.5
  1
26 19:23:42},{GEOMDATE=23.09.2025 06:26:16},{VERSION=},{LINEID=10},{WBVAR=},{WBNUMERIC=}  {NB=FCA18AAVJU-BYCQ54GEFU_PART2},{LINA=FCA18AAVJU-BYCQ54GEFU_PART2},{KT=DUMMY},{PARTNUMBER=FCA18AAVJU-BYCQ54GEFU},{PARTNUMBERMAP09=1.5Ton_FCA18AAVJU-BYCQ54GEFU
100
AcDbAttributeDefinition
  3

  2
PSOL_1
 70
     9
280
     0
  0
ATTDEF
  5
181
330
16D
100
AcDbEntity
  8
AM_6
100
AcDbText
 10
479.6628122557412
 20
-7.999999999991567
 30
0.0
 40
0.5
  1
UAL_RETURN_AIR_FLOW=742},{ACTUAL_SUPPLY_AIR_FLOW=742},{AMBIENT_TEMPERATURE=0},{APPARENT_POWER=120},{ASSEMBLY_CODE=D3090},{BRANCH_DUCT_CENTER_OFFSET=0},{BRANCH_DUCT_DEPTH=0.00833333333333333},{BRANCH_DUCT_HEIGHT=0.3125},{BRANCH_DUCT_HORIZONTAL_OFFSET
100
AcDbAttributeDefinition
  3

  2
PSOL_2
 70
     9
280
     0
  0
ATTDEF
  5
182
330
16D
100
AcDbEntity
  8
AM_6
100
AcDbText
 10
479.6628122557412
 20
-8.499999999991566
 30
0.0
 40
0.5
  1
041666666667},{BRANCH_DUCT_LEFT_CENTER_OFFSET=0.0677083333333333},{BRANCH_DUCT_POSITION_ANGLE=0},{BRANCH_DUCT_REFERENCE_LENGTH=1.37760416666667},{BRANCH_DUCT_RIGHT_CENTER_OFFSET=0.0833333333333333},{BRANCH_DUCT_WIDTH=1.14583333333333},{CATEGORY=Mech
100
AcDbAttributeDefinition
  3

  2
PSOL_3
 70
     9
280
     0
  0
ATTDEF
  5
183
330
16D
100
AcDbEntity
  8
AM_6
100
AcDbText
 10
479.6628122557412
 20
-8.999999999991566
 30
0.0
 40
0.5
  1
 Equipment},{CEILING_OPENING_SPACE_DEPTH=2.98958333333333},{CEILING_OPENING_SPACE_WIDTH=2.98958333333333},{CLEARANCE_PRIMARY_OFFSET=5},{CLEARANCE_SECONDARY_OFFSET=0.65625},{CLEARANCE_VISIBILITY=1},{COIL_AIR_PRESSURE_DROP=0},{CONDENSATE_DRAIN_CONNECT
100
AcDbAttributeDefinition
  3

  2
PSOL_4
 70
     9
280
     0
  0
ATTDEF
  5
184
330
16D
100
AcDbEntity
  8
AM_6
100
AcDbText
 10
479.6628122557412
 20
-9.499999999991566
 30
0.0
 40
0.5
  1
AMETER=1.25},{CONDENSATE_DRAIN_PIPE_HORIZONTAL_OFFSET=0.583333333333333},{CONDENSATE_DRAIN_PIPE_LENGTH=1.38016666666667},{CONDENSATE_DRAIN_PIPE_RADIUS=0.0520833333333333},{CONDENSATE_DRAIN_PIPE_VERTICAL_OFFSET=1.11458333333333},{COOLING_ENTERING_DRY
100
AcDbAttributeDefinition
  3

  2
PSOL_5
 70
     9
280
     0
  0
ATTDEF
  5
185
330
16D
100
AcDbEntity
  8
AM_6
100
AcDbText
 10
479.6628122557412
 20
-9.999999999991566
 30
0.0
 40
0.5
  1
TEMPERATURE=0},{COOLING_ENTERING_WET_BULB_TEMPERATURE=0},{COOLING_LEAVING_DRY_BULB_TEMPERATURE=0},{COOLING_LEAVING_WET_BULB_TEMPERATURE=0},{COST=0},{DECORATION_PANEL_COVER_HEIGHT=0.135416666666667},{DECORATION_PANEL_DEPTH=3.11458333333333},{DECORATI
100
AcDbAttributeDefinition
  3

  2
PSOL_6
 70
     9
280
     0
  0
ATTDEF
  5
186
330
16D
100
AcDbEntity
  8
AM_6
100
AcDbText
 10
479.6628122557412
 20
-10.49999999999157
 30
0.0
 40
0.5
  1
EL_INSIDE_HEIGHT=0.03125},{DECORATION_PANEL_OVERALL_HEIGHT=0.166666666666667},{DECORATION_PANEL_WEIGHT=12},{DECORATION_PANEL_WIDTH=3.11458333333333},{DEFAULT_ELEVATION=4},{DESCRIPTION=Air Conditioner Ducted Round Flow Cassette},{DESIGN_BRANCH_DUCT_S
100
AcDbAttributeDefinition
  3

  2
PSOL_7
 70
     9
280
     0
  0
ATTDEF
  5
187
330
16D
100
AcDbEntity
  8
AM_6
100
AcDbText
 10
479.6628122557412
 20
-10.99999999999157
 30
0.0
 40
0.5
  1
AIR_FLOW=0},{DESIGN_FRESH_AIR_FLOW=0},{DESIGN_RETURN_AIR_FLOW=742},{DESIGN_SUPPLY_AIR_FLOW=742},{DRAIN_FLOW=0},{ENCLOSURE_DEPTH=2.75520833333333},{ENCLOSURE_FLANGE_OFFSET=2.33333333333333},{ENCLOSURE_HEIGHT=0.807291666666667},{ENCLOSURE_WIDTH=2.7552
100
AcDbAttributeDefinition
  3

  2
PSOL_8
 70
     9
280
     0
  0
ATTDEF
  5
188
330
16D
100
AcDbEntity
  8
AM_6
100
AcDbText
 10
479.6628122557412
 20
-11.49999999999157
 30
0.0
 40
0.5
  1
3333},{FACE_VELOCITY__FPM_=0},{FAN_TYPE=Turbo fan},{FEET_PRESSURE_DROP=0},{FREQUENCY=60},{FRESH_AIR_INTAKE=0},{FRESH_AIR_INTAKE_RADIUS=0.0625},{GAS_PIPE_HORIZONTAL_OFFSET=0.541666666666667},{GAS_PIPE_LENGTH=1.38016666666667},{GAS_PIPE_RADIUS=0.02604
100
AcDbAttributeDefinition
  3

  2
PSOL_9
 70
     9
280
     0
  0
ATTDEF
  5
189
330
16D
100
AcDbEntity
  8
AM_6
100
AcDbText
 10
479.6628122557412
 20
-11.99999999999157
 30
0.0
 40
0.5
  1
66667},{GAS_PIPE_VERTICAL_OFFSET=1.08333333333333},{HEAT_EXCHANGER_TYPE=Cross Fin Coil},{HEATING_ENTERING_DRY_BULB_TEMPERATURE=0},{HEATING_ENTERING_WET_BULB_TEMPERATURE=0},{HEATING_LEAVING_DRY_BULB_TEMPERATURE=0},{HEATING_LEAVING_WET_BULB_TEMPERATUR
100
AcDbAttributeDefinition
  3

  2
PSOL_10
 70
     9
280
     0
  0
ATTDEF
  5
18A
330
16D
100
AcDbEntity
  8
AM_6
100
AcDbText
 10
479.6628122557412
 20
-12.49999999999157
 30
0.0
 40
0.5
  1
KNOCK_HOLE_OFFSET=0.00833333333333333},{KNOCK_HOLE_RADIUS=0.164},{LATENT_COOLING_CAPACITY=0},{LIQUID_PIPE_HORIZONTAL_OFFSET=0.411458333333333},{LIQUID_PIPE_LENGTH=1.38016666666667},{LIQUID_PIPE_RADIUS=0.015625},{LIQUID_PIPE_VERTICAL_OFFSET=0.9166666
100
AcDbAttributeDefinition
  3

  2
PSOL_11
 70
     9
280
     0
  0
ATTDEF
  5
18B
330
16D
100
AcDbEntity
  8
AM_6
100
AcDbText
 10
479.6628122557412
 20
-12.99999999999157
 30
0.0
 40
0.5
  1
67},{LOAD_SUB_CLASSIFICATION_MOTOR=1},{MANUFACTURER=Daikin},{MASSUNIT=1},{MAXIMUM_AIR_FLOW=742},{MAXIMUM_OVERCURRENT_PROTECTION=15},{MEDIAN_AIR_FLOW=618},{MINIMUM_AIR_FLOW=477},{MINIMUM_CIRCUIT_AMPS=0.5},{MINIMUM_FLOOR_CLEARANCE=8.33333333333333},{M
100
AcDbAttributeDefinition
  3

  2
PSOL_12
 70
     9
280
     0
  0
ATTDEF
  5
18C
330
16D
100
AcDbEntity
  8
AM_6
100
AcDbText
 10
479.6628122557412
 20
-13.49999999999157
 30
0.0
 40
0.5
  1
_OBSTACLE_CLEARANCE=5},{MODEL=FCA18AAVJU-BYCQ54GEFU},{NO_OBSTACLES_BELOW_UNIT=1},{NOMINAL_COOLING_CAPACITY=18000},{NOMINAL_COOLING_CAPACITY__TONS_=1.5},{NOMINAL_HEATING_CAPACITY=20000},{NUMBER_OF_POLES=2},{OBSTACLES_BELOW_UNIT=0},{OMNICLASS_NUMBER=2
100
AcDbAttributeDefinition
  3

  2
PSOL_13
 70
     9
280
     0
  0
ATTDEF
  5
18D
330
16D
100
AcDbEntity
  8
AM_6
100
AcDbText
 10
479.6628122557412
 20
-13.99999999999157
 30
0.0
 40
0.5
  1
3.11.15.11},{OUT_AIR_INTAKE_H_OFFSET=0.598958333333333},{OUT_AIR_INTAKE_V_OFFSET=0.697916666666667},{OVERALL_DEPTH=33.0625},{OVERALL_HEIGHT=9.6875},{OVERALL_WIDTH=33.0625},{PARTTYPE=Normal},{PHASE=1},{REFRIGERANT_LIQUID_CONNECTION_DIAMETER=0.375},{R
100
AcDbAttributeDefinition
  3

  2
PSOL_14
 70
     9
280
     0
  0
ATTDEF
  5
18E
330
16D
100
AcDbEntity
  8
AM_6
100
AcDbText
 10
479.6628122557412
 20
-14.49999999999157
 30
0.0
 40
0.5
  1
RANT_SUCTION_GAS_CONNECTION_DIAMETER=0.625},{REFRIGERANT_USED=R-32},{RETURN_AIR_PRESSURE_DROP=0},{SENSIBLE_COOLING_CAPACITY=0},{SERIES=SkyAir},{SUPPLY_AIR_CONNECTION_HEIGHT=0.0625},{SUPPLY_AIR_CONNECTION_WIDTH=0.0625},{SUPPLY_AIR_PRESSURE_DROP=0},{S
100
AcDbAttributeDefinition
  3

  2
PSOL_15
 70
     9
280
     0
  0
ATTDEF
  5
18F
330
16D
100
AcDbEntity
  8
AM_6
100
AcDbText
 10
479.6628122557412
 20
-14.99999999999157
 30
0.0
 40
0.5
  1
PERFORMANCE_EER2=14},{SYSTEM_PERFORMANCE_HSPF2=9.2},{SYSTEM_PERFORMANCE_SEER2=19.5},{TOTAL_COOLING_CAPACITY=0},{TOTAL_HEATING_CAPACITY=0},{TOTAL_STATIC_PRESSURE=0},{UNIT_HEIGHT_CLEARANCE=8.33333333333333},{UNIT_WEIGHT=51},{URL=https://daikincomfort.
100
AcDbAttributeDefinition
  3

  2
PSOL_16
 70
     9
280
     0
  0
ATTDEF
  5
190
330
16D
100
AcDbEntity
  8
AM_6
100
AcDbText
 10
479.6628122557412
 20
-15.49999999999157
 30
0.0
 40
0.5
  1
{VERSION=1},{VOLTAGE=240},{VOLTAGE_COMMENTS=208 VAC - 230 VAC},{VAR__NO_BRANCH_DUCT=1},{VAR__BRANCH_DUCT_SELECTOR=0},{VAR__FAN_SPEED_SELECTOR=3},{VAR__BRANCH_DUCT_FRONT_OPENING=0},{VAR__L____LOW_FAN_SPEED=477},{VAR__BRANCH_DUCT_RIGHT_OPENING=0},{VAR
100
AcDbAttributeDefinition
  3

  2
PSOL_17
 70
     9
280
     0
  0
ATTDEF
  5
191
330
16D
100
AcDbEntity
  8
AM_6
100
AcDbText
 10
479.6628122557412
 20
-15.99999999999157
 30
0.0
 40
0.5
  1
MEDIUM_SPEED=618},{VAR__BRANCH_DUCT_BACK_OPENING=0},{VAR__H___HIGH_FAN_SPEED=742},{VAR__BRANCH_DUCT_LEFT_OPENING=0},{RFA_FAMILY=Download Revit Family (RFA)},{DEFAULTSORTATTR=60},{RFA_FAMILY_=../../_pool_/be/62/air_conditioner-indoor-daikin-fca.zip},
100
AcDbAttributeDefinition
  3

  2
PSOL_18
 70
     9
280
     0
  0
ATTDEF
  5
192
330
16D
100
AcDbEntity
  8
AM_6
100
AcDbText
 10
479.6628122557412
 20
-16.49999999999157
 30
0.0
 40
0.5
  1
AMILY_ENG=../../_pool_/be/62/air_conditioner-indoor-daikin-fca.zip},{REVIT_FAMILY_DOWNLOAD=../../_pool_/be/62/air_conditioner-indoor-daikin-fca.zip}
100
AcDbAttributeDefinition
  3

  2
PSOL_19
 70
     9
280
     0
  0
LINE
  5
193
330
16D
100
AcDbEntity
  8
AM_9
100
AcDbLine
 10
-205.1330729074474
 20
-34.66458902932914
 30
0.0
 11
-248.2587084604409
 21
-33.97603942765839
 31
0.0
  0
LINE
  5
194
330
16D
100
AcDbEntity
  8
AM_9
100
AcDbLine
 10
205.1360366574417
 20
-34.66454725390551
 30
0.0
 11
-205.1330729074474
 21
-34.66458902932914
 31
0.0
  0
LINE
  5
195
330
16D
100
AcDbEntity
  8
AM_9
100
AcDbLine
 10
248.2586737499007
 20
-33.97604004967601
 30
0.0
 11
205.1360366574417
 21
-34.66454725390551
 31
0.0
  0
LWPOLYLINE
  5
196
330
16D
100
AcDbEntity
  8
AM_9
100
AcDbPolyline
 90
        9
 70
     0
 43
0.0
 10
-60.60980637157122
 20
-6.645275072110657
 10
-60.72310945746865
 20
-9.679167901989624
 10
-60.82518272846112
 20
-13.20909230009311
 10
-60.91442370848458
 20
-17.17963102247552
 10
-60.98943137910275
 20
-21.5284495009824
 10
-61.0490281744789
 20
-26.18727445060289
 10
-61.09227846829845
 20
-31.08296571035462
 10
-61.1185032624272
 20
-36.13866449057915
 10
-61.12729084668474
 20
-41.2750000000013
  0
LWPOLYLINE
  5
197
330
16D
100
AcDbEntity
  8
AM_9
100
AcDbPolyline
 90
        9
 70
     0
 43
0.0
 10
-60.60980636833008
 20
-41.2750000000402
 10
-60.60101878406145
 20
-36.1386644908573
 10
-60.5747939899223
 20
-31.08296571092023
 10
-60.5315436960931
 20
-26.18727445149317
 10
-60.47194690071118
 20
-21.52844950222314
 10
-60.39693923008809
 20
-17.179631024081
 10
-60.30769825006061
 20
-13.20909230206629
 10
-60.20562497906688
 20
-9.679167904322577
 10
-60.09232189317087
 20
-6.645275074785268
  0
LWPOLYLINE
  5
198
330
16D
100
AcDbEntity
  8
AM_9
100
AcDbPolyline
 90
       13
 70
     0
 43
0.0
 10
242.6444523204705
 20
-41.2750000000003
 10
242.6360607457225
 20
-37.86752754189214
 10
242.6110258529087
 20
-34.4835622221124
 10
242.5680609560954
 20
-31.05050808644573
 10
242.5081261597084
 20
-27.69212444418931
 10
242.4341098467347
 20
-24.52379852959468
 10
242.3452779139873
 20
-21.47095486490044
 10
242.2391878832838
 20
-18.47265063305101
 10
242.1192682803455
 20
-15.64068000980356
 10
241.9935095645291
 20
-13.12350321704778
 10
241.857360645414
 20
-10.79159747832703
 10
241.7078043622777
 20
-8.605019435122738
 10
241.5498232270548
 20
-6.645274999571467
  0
LWPOLYLINE
  5
199
330
16D
100
AcDbEntity
  8
AM_9
100
AcDbPolyline
 90
        6
 70
     0
 43
0.0
 10
-248.2586554246906
 20
-33.97603978939741
 10
-246.8079693202874
 20
-37.1416341570412
 10
-245.3890869441678
 20
-39.41564621909801
 10
-244.0024593749998
 20
-40.80006313275927
 10
-242.6718489947619
 20
-41.27479721455679
 10
-242.6444538544128
 20
-41.27500000067776
  0
LWPOLYLINE
  5
19A
330
16D
100
AcDbEntity
  8
AM_9
100
AcDbPolyline
 90
        6
 70
     0
 43
0.0
 10
248.2586533017319
 20
-33.97604508168745
 10
246.8079677574381
 20
-37.14163715872879
 10
245.3890859285536
 20
-39.41564757169055
 10
244.0024589066936
 20
-40.80006347496045
 10
242.6718490132277
 20
-41.27479721455665
 10
242.6444523204705
 20
-41.2750000000003
  0
ARC
  5
19B
330
16D
100
AcDbEntity
  8
AM_9
100
AcDbCircle
 10
347.2220964586597
 20
-41.27499999987299
 30
0.0
 40
41.07405355978307
100
AcDbArc
 50
359.9999999997344
 51
57.46942845386234
  0
ARC
  5
19C
330
16D
100
AcDbEntity
  8
AM_9
100
AcDbCircle
 10
-347.2220964585197
 20
-41.27499999977321
 30
0.0
 40
41.07405355979873
100
AcDbArc
 50
122.5305715466713
 51
180.0000000003978
  0
LWPOLYLINE
  5
19D
330
16D
100
AcDbEntity
  8
AM_9
100
AcDbPolyline
 90
       13
 70
     0
 43
0.0
 10
-394.9344166418034
 20
-41.27499997407676
 10
-394.7926405066463
 20
-37.86732878068985
 10
-394.3692710245908
 20
-34.48316537114438
 10
-393.641682827357
 20
-31.04991125816641
 10
-392.6243706750723
 20
-27.69133074213457
 10
-391.364344243427
 20
-24.52281555211757
 10
-389.846470305226
 20
-21.46979084113079
 10
-388.0255026082773
 20
-18.47130812683749
 10
-385.9559753588173
 20
-15.63917798990291
 10
-383.7730109923074
 20
-13.12246598272204
 10
-381.3937847882106
 20
-10.79096058431938
 10
-378.7602353971924
 20
-8.60473952596874
 10
-375.9543075591414
 20
-6.64527499801301
  0
ARC
  5
19E
330
16D
100
AcDbEntity
  8
AM_9
100
AcDbCircle
 10
-366.2085964586548
 20
-41.27499998882108
 30
0.0
 40
41.07405355982295
100
AcDbArc
 50
122.5305715751328
 51
179.9999999423841
  0
LWPOLYLINE
  5
19F
330
16D
100
AcDbEntity
  8
AM_9
100
AcDbPolyline
 90
       13
 70
     0
 43
0.0
 10
375.9543075630212
 20
-6.645275000761035
 10
378.7515729368469
 20
-8.598135379638453
 10
381.377612332844
 20
-10.77636018992794
 10
383.8813758592013
 20
-13.23814664886392
 10
386.1663239807251
 20
-15.90483183626075
 10
388.1604518380014
 20
-18.67480944103034
 10
389.918291068203
 20
-21.60089962209453
 10
391.4668616010399
 20
-24.75440913926636
 10
392.7409425406826
 20
-28.02883289290423
 10
393.6842771889531
 20
-31.21694293642255
 10
394.3672299873908
 20
-34.47099720238432
 10
394.7921266999232
 20
-37.86118096616165
 10
394.9344166407862
 20
-41.27499999703349
  0
LINE
  5
1A0
330
16D
100
AcDbEntity
  8
AM_9
100
AcDbLine
 10
-388.29615003604
 20
-6.645275000000492
 30
0.0
 11
388.2961500117026
 21
-6.645275000000492
 31
0.0
  0
ARC
  5
1A1
330
16D
100
AcDbEntity
  8
AM_9
100
AcDbCircle
 10
366.2085964586602
 20
-41.27500000429583
 30
0.0
 40
41.07405355977937
100
AcDbArc
 50
0.0000000144586362
 51
57.4694284651043
  0
LINE
  5
1A2
330
16D
100
AcDbEntity
  8
AM_9
100
AcDbLine
 10
254.4190999999926
 20
-34.62972500003151
 30
0.0
 11
-254.4191000000086
 21
-34.62972500003151
 31
0.0
  0
LINE
  5
1A3
330
16D
100
AcDbEntity
  8
AM_9
100
AcDbLine
 10
216.446099999993
 20
-41.27500000006579
 30
0.0
 11
216.4460999999931
 21
-34.62972500003151
 31
0.0
  0
LINE
  5
1A4
330
16D
100
AcDbEntity
  8
AM_9
100
AcDbLine
 10
254.4190999999926
 20
-41.27500000006607
 30
0.0
 11
254.4190999999926
 21
-34.62972500003151
 31
0.0
  0
LINE
  5
1A5
330
16D
100
AcDbEntity
  8
AM_9
100
AcDbLine
 10
-216.4461000000099
 20
-41.2750000000603
 30
0.0
 11
-216.4461000000099
 21
-34.62972500003151
 31
0.0
  0
LINE
  5
1A6
330
16D
100
AcDbEntity
  8
AM_9
100
AcDbLine
 10
-254.4191000000085
 20
-41.27500000006
 30
0.0
 11
-254.4191000000086
 21
-34.62972500003151
 31
0.0
  0
LWPOLYLINE
  5
1A7
330
16D
100
AcDbEntity
  8
AM_9
100
AcDbPolyline
 90
        4
 70
     0
 43
0.0
 10
-359.4619246923974
 20
-8.368989366460077
 10
-359.7650792185908
 20
-8.5979080197843
 10
-362.3919878460553
 20
-10.77591065957781
 10
-363.445541090721
 20
-11.76022066773146
  0
LINE
  5
1A8
330
16D
100
AcDbEntity
  8
AM_9
100
AcDbLine
 10
-356.9669344824399
 20
-6.645274999977143
 30
0.0
 11
-358.9908184854926
 21
-8.022327997057094
 31
0.0
  0
LWPOLYLINE
  5
1A9
330
16D
100
AcDbEntity
  8
AM_9
100
AcDbPolyline
 90
        7
 70
     0
 43
0.0
 10
-363.445541090721
 20
-11.76022066773146
 10
-364.8966166148973
 20
-13.23748194738311
 10
-367.1823969779211
 20
-15.90398557119783
 10
-369.177298190836
 20
-18.67384339431075
 10
-370.9358501407251
 20
-21.59986080084528
 10
-372.4850855921942
 20
-24.75336798554623
 10
-372.9127960732792
 20
-25.76263610309759
  0
LWPOLYLINE
  5
1AA
330
16D
100
AcDbEntity
  8
AM_9
100
AcDbPolyline
 90
        6
 70
     0
 43
0.0
 10
-372.9127960732792
 20
-25.76263610309759
 10
-373.7597355870906
 20
-28.02783969632874
 10
-374.7035317319018
 20
-31.21612877802247
 10
-375.3868256607583
 20
-34.47039802080802
 10
-375.8119431141843
 20
-37.86087420733296
 10
-375.9543075627789
 20
-41.27500000006013
  0
ARC
  5
1AB
330
16D
100
AcDbEntity
  8
AM_9
100
AcDbCircle
 10
-334.8808714597043
 20
-41.27500000000356
 30
0.0
 40
41.07405355978705
100
AcDbArc
 50
122.5305715460476
 51
134.0455353252477
  0
LWPOLYLINE
  5
1AC
330
16D
100
AcDbEntity
  8
AM_9
100
AcDbPolyline
 90
        6
 70
     0
 43
0.0
 10
375.9543075617321
 20
-41.27500000006122
 10
375.8125223569336
 20
-37.86780279001891
 10
375.3891266308725
 20
-34.48411149786573
 10
374.6614941239193
 20
-31.05133439038487
 10
373.6441241595351
 20
-27.69322299566891
 10
373.1753621734221
 20
-26.42270835882996
  0
LWPOLYLINE
  5
1AD
330
16D
100
AcDbEntity
  8
AM_9
100
AcDbPolyline
 90
        7
 70
     0
 43
0.0
 10
373.1753621734221
 20
-26.42270835882996
 10
372.3840352863337
 20
-24.52515743548522
 10
370.8660959338335
 20
-21.47256333242798
 10
369.0450695097308
 20
-18.47450487150791
 10
366.9754919730552
 20
-15.64275675077981
 10
364.7911471915327
 20
-13.12492762945868
 10
363.3935585395714
 20
-11.71000510384466
  0
LINE
  5
1AE
330
16D
100
AcDbEntity
  8
AM_9
100
AcDbLine
 10
357.5890530409842
 20
-7.049920896516878
 30
0.0
 11
356.9669344814157
 21
-6.645275000000341
 31
0.0
  0
LINE
  5
1AF
330
16D
100
AcDbEntity
  8
AM_9
100
AcDbLine
 10
363.3935585395714
 20
-11.71000510384466
 30
0.0
 11
363.2748626727652
 21
-11.59600386912039
 31
0.0
  0
ARC
  5
1B0
330
16D
100
AcDbEntity
  8
AM_9
100
AcDbCircle
 10
334.8808714586634
 20
-41.27499999999738
 30
0.0
 40
41.07405355977877
100
AcDbArc
 50
46.04897255743399
 51
57.46942845395549
  0
LWPOLYLINE
  5
1B1
330
16D
100
AcDbEntity
  8
AM_9
100
AcDbPolyline
 90
       13
 70
     0
 43
0.0
 10
-240.5595179471623
 20
-6.645275002343966
 10
-240.6970541608001
 20
-8.597988028542822
 10
-240.827690175234
 20
-10.77606712893612
 10
-240.9535686390658
 20
-13.23771043407666
 10
-241.0695392424327
 20
-15.9042703085584
 10
-241.1715779126314
 20
-18.67415646254777
 10
-241.2621519632885
 20
-21.6001804340263
 10
-241.3424165247886
 20
-24.75366053048294
 10
-241.4087840456516
 20
-28.02808205124211
 10
-241.4581100786993
 20
-31.21633650515038
 10
-241.4939219193322
 20
-34.47055772847757
 10
-241.5162411226597
 20
-37.86095679443879
 10
-241.5237248336231
 20
-41.27500000006339
  0
LWPOLYLINE
  5
1B2
330
16D
100
AcDbEntity
  8
AM_9
100
AcDbPolyline
 90
       13
 70
     0
 43
0.0
 10
240.5595178864778
 20
-6.645275000000346
 10
240.6970540033289
 20
-8.59798802615313
 10
240.8276900158698
 20
-10.77606712884783
 10
240.9535684779798
 20
-13.2377104339593
 10
241.069539079789
 20
-15.90427030841776
 10
241.1715777486428
 20
-18.67415646239397
 10
241.2621517981223
 20
-21.60018043386737
 10
241.3424163585877
 20
-24.75366053033114
 10
241.4087838786035
 20
-28.02808205110601
 10
241.4581099110246
 20
-31.21633650520989
 10
241.4939217512034
 20
-34.47055772874415
 10
241.5162409542534
 20
-37.86095679494206
 10
241.5237246648755
 20
-41.27500000006339
  0
LWPOLYLINE
  5
1B3
330
16D
100
AcDbEntity
  8
AM_9
100
AcDbPolyline
 90
       13
 70
     0
 43
0.0
 10
-242.550733531588
 20
-41.27500000000029
 10
-242.5428575957995
 20
-37.86714287871929
 10
-242.5193610674952
 20
-34.48279420204415
 10
-242.4790364990523
 20
-31.04935304753037
 10
-242.4227852031603
 20
-27.69058840399782
 10
-242.3533181800643
 20
-24.5218962249963
 10
-242.2699469273368
 20
-21.46870220857991
 10
-242.1703793059238
 20
-18.47005258974982
 10
-242.0578340383483
 20
-15.63777322696987
 10
-241.9398690393529
 20
-13.1214960994459
 10
-241.8121643721976
 20
-10.79036517655018
 10
-241.6718925018467
 20
-8.604477941650876
 10
-241.523724840505
 20
-6.645274998893146
  0
LWPOLYLINE
  5
1B4
330
16D
100
AcDbEntity
  8
AM_9
100
AcDbPolyline
 90
       13
 70
     0
 43
0.0
 10
242.5507333519283
 20
-41.2750000726536
 10
242.5428574136149
 20
-37.86714287881751
 10
242.5193608855825
 20
-34.48279420220983
 10
242.4790363176002
 20
-31.04935304776394
 10
242.422785022354
 20
-27.69058840429799
 10
242.35331800006
 20
-24.52189622536032
 10
242.2699467483026
 20
-21.46870220900477
 10
242.170379128062
 20
-18.47005259023437
 10
242.0578338618262
 20
-15.63777322750746
 10
241.9398688642475
 20
-13.12149609997662
 10
241.8121641986464
 20
-10.79036517707151
 10
241.6718923300287
 20
-8.604477942159935
 10
241.5237247197816
 20
-6.645274998899538
  0
LINE
  5
1B5
330
16D
100
AcDbEntity
  8
AM_0
100
AcDbLine
 10
-407.2826500184861
 20
-41.27499994751756
 30
0.0
 11
407.2826500184568
 21
-41.27499999393076
 31
0.0
  0
ARC
  5
1B6
330
16D
100
AcDbEntity
  8
AM_0
100
AcDbCircle
 10
-407.2826506153516
 20
486.1702245439647
 30
0.0
 40
527.4452245169849
100
AcDbArc
 50
262.6605845307892
 51
270.0000000641849
  0
ARC
  5
1B7
330
16D
100
AcDbEntity
  8
AM_0
100
AcDbCircle
 10
407.2826500184476
 20
486.170230737246
 30
0.0
 40
527.445230736022
100
AcDbArc
 50
270.000000000001
 51
277.3394868954689
  0
LWPOLYLINE
  5
1B8
330
16D
100
AcDbEntity
  8
AM_0
100
AcDbPolyline
 90
        6
 70
     0
 43
0.0
 10
-474.6625038084816
 20
-35.20201060781616
 10
-455.0077791106443
 20
-37.83641767280293
 10
-435.2659771021786
 20
-39.72830147823846
 10
-415.3510548191496
 20
-40.87904414128816
 10
-395.4041277394416
 20
-41.27479064029954
 10
-394.9344166418034
 20
-41.27499997407676
  0
LWPOLYLINE
  5
1B9
330
16D
100
AcDbEntity
  8
AM_0
100
AcDbPolyline
 90
        6
 70
     0
 43
0.0
 10
-247.8204945597853
 20
-33.97815480167365
 10
-246.4586532531039
 20
-37.14231753696929
 10
-245.1269004405017
 20
-39.41551449979351
 10
-243.8248119997535
 20
-40.79970528447573
 10
-242.5773511480512
 20
-41.27478389916598
 10
-242.550733531588
 20
-41.27500000000029
  0
LWPOLYLINE
  5
1BA
330
16D
100
AcDbEntity
  8
AM_0
100
AcDbPolyline
 90
        6
 70
     0
 43
0.0
 10
394.9344166407862
 20
-41.27499999703349
 10
395.4041275683489
 20
-41.27479064042639
 10
415.2374116777449
 20
-40.88344373217455
 10
435.0392096934629
 20
-39.74567504716607
 10
454.8948145736603
 20
-37.84938062737351
 10
474.6625012752559
 20
-35.20201099589204
  0
LWPOLYLINE
  5
1BB
330
16D
100
AcDbEntity
  8
AM_0
100
AcDbPolyline
 90
        6
 70
     0
 43
0.0
 10
247.8204962275669
 20
-33.97814979910778
 10
246.4586544344382
 20
-37.14231469950822
 10
245.1269011474307
 20
-39.41551322112654
 10
243.8248123556044
 20
-40.79970496092363
 10
242.5773509513213
 20
-41.27478389916909
 10
242.5507333519283
 20
-41.2750000726536
  0
LINE
  5
1BC
330
16D
100
AcDbEntity
  8
AM_0
100
AcDbLine
 10
-474.6624999999939
 20
0.0000000000084335
 30
0.0
 11
474.66250000001
 21
-0.0000000000046938
 31
0.0
  0
LINE
  5
1BD
330
16D
100
AcDbEntity
  8
AM_0
100
AcDbLine
 10
-474.662499999994
 20
-36.95349004243594
 30
0.0
 11
-474.6624999999939
 21
0.0000000000084335
 31
0.0
  0
LWPOLYLINE
  5
1BE
330
16D
100
AcDbEntity
  8
AM_0
100
AcDbPolyline
 90
       12
 70
     0
 43
0.0
 10
-474.662499999994
 20
-8.922691403710974
 10
-460.9382078206422
 20
-12.27487120523652
 10
-447.1469383830577
 20
-15.3401702519843
 10
-433.2737058697838
 20
-18.13111365823321
 10
-419.3487745647219
 20
-20.65187589296076
 10
-405.3180770881391
 20
-22.921806410051
 10
-391.2489739595925
 20
-24.94058942459463
 10
-362.9858692916029
 20
-28.27580282039478
 10
-334.3042033186511
 20
-30.77633514192372
 10
-305.5436111375075
 20
-32.50327889812426
 10
-276.6967550002341
 20
-33.54896201160688
 10
-247.8205155168854
 20
-33.97815026066538
  0
LWPOLYLINE
  5
1BF
330
16D
100
AcDbEntity
  8
AM_0
100
AcDbPolyline
 90
        7
 70
     0
 43
0.0
 10
-247.8205154562057
 20
-33.97815002741559
 10
-185.8802520834951
 20
-34.86194520247796
 10
-123.9351624645548
 20
-35.45888776169598
 10
-0.0325861469857064
 20
-35.91594045007774
 10
123.8939805318436
 20
-35.45919757155932
 10
185.8583444290156
 20
-34.86220460659248
 10
247.8205491570424
 20
-33.97814946033966
  0
LWPOLYLINE
  5
1C0
330
16D
100
AcDbEntity
  8
AM_0
100
AcDbPolyline
 90
       12
 70
     0
 43
0.0
 10
247.8205491709756
 20
-33.97815010658271
 10
276.188454496718
 20
-33.56170308051063
 10
304.5535846171141
 20
-32.55006254460896
 10
332.9314948612978
 20
-30.87566285424287
 10
361.2741561476461
 20
-28.44886047385996
 10
389.7785230108892
 20
-25.13729478176165
 10
404.0011565809999
 20
-23.12147727447437
 10
418.18516443377
 20
-20.85023466432516
 10
432.3807687896739
 20
-18.30103714659937
 10
446.523155388821
 20
-15.47185343268056
 10
460.627750044434
 20
-12.34716153317958
 10
474.6624999776386
 20
-8.92269140780817
  0
LINE
  5
1C1
330
16D
100
AcDbEntity
  8
AM_0
100
AcDbLine
 10
474.66250000001
 20
-36.95349004268255
 30
0.0
 11
474.66250000001
 21
-0.0000000000046938
 31
0.0
  0
ENDBLK
  5
170
330
16D
100
AcDbEntity
  8
0
100
AcDbBlockEnd
  0
BLOCK
  5
1C4
330
1C2
100
AcDbEntity
  8
0
100
AcDbBlockBegin
  2
7_FCA18AAVJU_BYCQ54GEFU_PART1_0_in_FCA18AAVJU_BYCQ54GEFU_2
 70
     2
 10
0.0
 20
0.0
 30
0.0
  3
7_FCA18AAVJU_BYCQ54GEFU_PART1_0_in_FCA18AAVJU_BYCQ54GEFU_2
  1

  0
ATTDEF
  5
1C6
330
1C2
100
AcDbEntity
  8
AM_6
100
AcDbText
 10
4.999999999996499
 20
207.962500000003
 30
0.0
 40
0.5
  1
FCA18AAVJU-BYCQ54GEFU_PART1
100
AcDbAttributeDefinition
  3

  2
NB
 70
     8
280
     0
  0
ATTDEF
  5
1C7
330
1C2
100
AcDbEntity
  8
AM_6
100
AcDbText
 10
4.999999999996499
 20
207.462500000003
 30
0.0
 40
0.5
  1

100
AcDbAttributeDefinition
  3

  2
NN
 70
     8
280
     0
  0
ATTDEF
  5
1C8
330
1C2
100
AcDbEntity
  8
AM_6
100
AcDbText
 10
4.999999999996499
 20
206.962500000003
 30
0.0
 40
0.5
  1

100
AcDbAttributeDefinition
  3

  2
NT
 70
     8
280
     0
  0
ATTDEF
  5
1C9
330
1C2
100
AcDbEntity
  8
AM_6
100
AcDbText
 10
4.999999999996499
 20
206.462500000003
 30
0.0
 40
0.5
  1
$PARTNUMBER._PART1
100
AcDbAttributeDefinition
  3

  2
NBSYN
 70
     8
280
     0
  0
ATTDEF
  5
1CA
330
1C2
100
AcDbEntity
  8
AM_6
100
AcDbText
 10
4.999999999996499
 20
205.962500000003
 30
0.0
 40
0.5
  1
FCA18AAVJU-BYCQ54GEFU_PART1
100
AcDbAttributeDefinition
  3

  2
LINA
 70
     8
280
     0
  0
ATTDEF
  5
1CB
330
1C2
100
AcDbEntity
  8
AM_6
100
AcDbText
 10
4.999999999996499
 20
205.462500000003
 30
0.0
 40
0.5
  1
Daikin
100
AcDbAttributeDefinition
  3

  2
CATALOG
 70
     8
280
     0
  0
ATTDEF
  5
1CC
330
1C2
100
AcDbEntity
  8
AM_6
100
AcDbText
 10
4.999999999996499
 20
204.962500000003
 30
0.0
 40
0.5
  1
FCA18AAVJU-BYCQ54GEFU
100
AcDbAttributeDefinition
  3

  2
PARTNUMBER
 70
     8
280
     0
  0
ATTDEF
  5
1CD
330
1C2
100
AcDbEntity
  8
AM_6
100
AcDbText
 10
4.999999999996499
 20
204.462500000003
 30
0.0
 40
0.5
  1
Air Conditioner Ducted Round Flow Cassette
100
AcDbAttributeDefinition
  3

  2
DESCRIPTION
 70
     8
280
     0
  0
ATTDEF
  5
1CE
330
1C2
100
AcDbEntity
  8
AM_6
100
AcDbText
 10
4.999999999996499
 20
203.962500000003
 30
0.0
 40
0.5
  1
33.0625
100
AcDbAttributeDefinition
  3

  2
OVERALL_DEPTH
 70
     8
280
     0
  0
ATTDEF
  5
1CF
330
1C2
100
AcDbEntity
  8
AM_6
100
AcDbText
 10
4.999999999996499
 20
203.462500000003
 30
0.0
 40
0.5
  1
9.6875
100
AcDbAttributeDefinition
  3

  2
OVERALL_HEIGHT
 70
     8
280
     0
  0
ATTDEF
  5
1D0
330
1C2
100
AcDbEntity
  8
AM_6
100
AcDbText
 10
4.999999999996499
 20
202.962500000003
 30
0.0
 40
0.5
  1
33.0625
100
AcDbAttributeDefinition
  3

  2
OVERALL_WIDTH
 70
     8
280
     0
  0
ATTDEF
  5
1D1
330
1C2
100
AcDbEntity
  8
AM_6
100
AcDbText
 10
4.999999999996499
 20
202.462500000003
 30
0.0
 40
0.5
  1
https://daikincomfort.com/
100
AcDbAttributeDefinition
  3

  2
URL
 70
     8
280
     0
  0
ATTDEF
  5
1D2
330
1C2
100
AcDbEntity
  8
AM_6
100
AcDbText
 10
4.999999999996499
 20
201.962500000003
 30
0.0
 40
0.5
  1
Download Revit Family (RFA)
100
AcDbAttributeDefinition
  3

  2
RFA_FAMILY
 70
     8
280
     0
  0
ATTDEF
  5
1D3
330
1C2
100
AcDbEntity
  8
AM_6
100
AcDbText
 10
4.999999999996499
 20
201.462500000003
 30
0.0
 40
0.5
  1
daikin
100
AcDbAttributeDefinition
  3

  2
COMPANY
 70
     8
280
     0
  0
ATTDEF
  5
1D4
330
1C2
100
AcDbEntity
  8
AM_6
100
AcDbText
 10
4.999999999996499
 20
200.962500000003
 30
0.0
 40
0.5
  1
{$CADENAS_DATA/23d-libs/daikin/sky-air/sky-air20indoor20units/air_conditioner-indoor-daikin-fca.prj},240 {VTYP=3D},{NB=FCA18AAVJU-BYCQ54GEFU_PART1},{LINA=FCA18AAVJU-BYCQ54GEFU_PART1},{NN=(R32) Cassette Sky-Air Daikin FCA_PART1},{NOPRJ=TRUE},{DATE=03
100
AcDbAttributeDefinition
  3

  2
PSOL_0
 70
     9
280
     0
  0
ATTDEF
  5
1D5
330
1C2
100
AcDbEntity
  8
AM_6
100
AcDbText
 10
4.999999999996499
 20
200.462500000003
 30
0.0
 40
0.5
  1
26 19:23:42},{GEOMDATE=23.09.2025 06:26:16},{VERSION=},{LINEID=10},{WBVAR=},{WBNUMERIC=}  {NB=FCA18AAVJU-BYCQ54GEFU_PART1},{LINA=FCA18AAVJU-BYCQ54GEFU_PART1},{KT=DUMMY},{PARTNUMBER=FCA18AAVJU-BYCQ54GEFU},{PARTNUMBERMAP09=1.5Ton_FCA18AAVJU-BYCQ54GEFU
100
AcDbAttributeDefinition
  3

  2
PSOL_1
 70
     9
280
     0
  0
ATTDEF
  5
1D6
330
1C2
100
AcDbEntity
  8
AM_6
100
AcDbText
 10
4.999999999996499
 20
199.962500000003
 30
0.0
 40
0.5
  1
UAL_RETURN_AIR_FLOW=742},{ACTUAL_SUPPLY_AIR_FLOW=742},{AMBIENT_TEMPERATURE=0},{APPARENT_POWER=120},{ASSEMBLY_CODE=D3090},{BRANCH_DUCT_CENTER_OFFSET=0},{BRANCH_DUCT_DEPTH=0.00833333333333333},{BRANCH_DUCT_HEIGHT=0.3125},{BRANCH_DUCT_HORIZONTAL_OFFSET
100
AcDbAttributeDefinition
  3

  2
PSOL_2
 70
     9
280
     0
  0
ATTDEF
  5
1D7
330
1C2
100
AcDbEntity
  8
AM_6
100
AcDbText
 10
4.999999999996499
 20
199.462500000003
 30
0.0
 40
0.5
  1
041666666667},{BRANCH_DUCT_LEFT_CENTER_OFFSET=0.0677083333333333},{BRANCH_DUCT_POSITION_ANGLE=0},{BRANCH_DUCT_REFERENCE_LENGTH=1.37760416666667},{BRANCH_DUCT_RIGHT_CENTER_OFFSET=0.0833333333333333},{BRANCH_DUCT_WIDTH=1.14583333333333},{CATEGORY=Mech
100
AcDbAttributeDefinition
  3

  2
PSOL_3
 70
     9
280
     0
  0
ATTDEF
  5
1D8
330
1C2
100
AcDbEntity
  8
AM_6
100
AcDbText
 10
4.999999999996499
 20
198.962500000003
 30
0.0
 40
0.5
  1
 Equipment},{CEILING_OPENING_SPACE_DEPTH=2.98958333333333},{CEILING_OPENING_SPACE_WIDTH=2.98958333333333},{CLEARANCE_PRIMARY_OFFSET=5},{CLEARANCE_SECONDARY_OFFSET=0.65625},{CLEARANCE_VISIBILITY=1},{COIL_AIR_PRESSURE_DROP=0},{CONDENSATE_DRAIN_CONNECT
100
AcDbAttributeDefinition
  3

  2
PSOL_4
 70
     9
280
     0
  0
ATTDEF
  5
1D9
330
1C2
100
AcDbEntity
  8
AM_6
100
AcDbText
 10
4.999999999996499
 20
198.462500000003
 30
0.0
 40
0.5
  1
AMETER=1.25},{CONDENSATE_DRAIN_PIPE_HORIZONTAL_OFFSET=0.583333333333333},{CONDENSATE_DRAIN_PIPE_LENGTH=1.38016666666667},{CONDENSATE_DRAIN_PIPE_RADIUS=0.0520833333333333},{CONDENSATE_DRAIN_PIPE_VERTICAL_OFFSET=1.11458333333333},{COOLING_ENTERING_DRY
100
AcDbAttributeDefinition
  3

  2
PSOL_5
 70
     9
280
     0
  0
ATTDEF
  5
1DA
330
1C2
100
AcDbEntity
  8
AM_6
100
AcDbText
 10
4.999999999996499
 20
197.962500000003
 30
0.0
 40
0.5
  1
TEMPERATURE=0},{COOLING_ENTERING_WET_BULB_TEMPERATURE=0},{COOLING_LEAVING_DRY_BULB_TEMPERATURE=0},{COOLING_LEAVING_WET_BULB_TEMPERATURE=0},{COST=0},{DECORATION_PANEL_COVER_HEIGHT=0.135416666666667},{DECORATION_PANEL_DEPTH=3.11458333333333},{DECORATI
100
AcDbAttributeDefinition
  3

  2
PSOL_6
 70
     9
280
     0
  0
ATTDEF
  5
1DB
330
1C2
100
AcDbEntity
  8
AM_6
100
AcDbText
 10
4.999999999996499
 20
197.462500000003
 30
0.0
 40
0.5
  1
EL_INSIDE_HEIGHT=0.03125},{DECORATION_PANEL_OVERALL_HEIGHT=0.166666666666667},{DECORATION_PANEL_WEIGHT=12},{DECORATION_PANEL_WIDTH=3.11458333333333},{DEFAULT_ELEVATION=4},{DESCRIPTION=Air Conditioner Ducted Round Flow Cassette},{DESIGN_BRANCH_DUCT_S
100
AcDbAttributeDefinition
  3

  2
PSOL_7
 70
     9
280
     0
  0
ATTDEF
  5
1DC
330
1C2
100
AcDbEntity
  8
AM_6
100
AcDbText
 10
4.999999999996499
 20
196.962500000003
 30
0.0
 40
0.5
  1
AIR_FLOW=0},{DESIGN_FRESH_AIR_FLOW=0},{DESIGN_RETURN_AIR_FLOW=742},{DESIGN_SUPPLY_AIR_FLOW=742},{DRAIN_FLOW=0},{ENCLOSURE_DEPTH=2.75520833333333},{ENCLOSURE_FLANGE_OFFSET=2.33333333333333},{ENCLOSURE_HEIGHT=0.807291666666667},{ENCLOSURE_WIDTH=2.7552
100
AcDbAttributeDefinition
  3

  2
PSOL_8
 70
     9
280
     0
  0
ATTDEF
  5
1DD
330
1C2
100
AcDbEntity
  8
AM_6
100
AcDbText
 10
4.999999999996499
 20
196.462500000003
 30
0.0
 40
0.5
  1
3333},{FACE_VELOCITY__FPM_=0},{FAN_TYPE=Turbo fan},{FEET_PRESSURE_DROP=0},{FREQUENCY=60},{FRESH_AIR_INTAKE=0},{FRESH_AIR_INTAKE_RADIUS=0.0625},{GAS_PIPE_HORIZONTAL_OFFSET=0.541666666666667},{GAS_PIPE_LENGTH=1.38016666666667},{GAS_PIPE_RADIUS=0.02604
100
AcDbAttributeDefinition
  3

  2
PSOL_9
 70
     9
280
     0
  0
ATTDEF
  5
1DE
330
1C2
100
AcDbEntity
  8
AM_6
100
AcDbText
 10
4.999999999996499
 20
195.962500000003
 30
0.0
 40
0.5
  1
66667},{GAS_PIPE_VERTICAL_OFFSET=1.08333333333333},{HEAT_EXCHANGER_TYPE=Cross Fin Coil},{HEATING_ENTERING_DRY_BULB_TEMPERATURE=0},{HEATING_ENTERING_WET_BULB_TEMPERATURE=0},{HEATING_LEAVING_DRY_BULB_TEMPERATURE=0},{HEATING_LEAVING_WET_BULB_TEMPERATUR
100
AcDbAttributeDefinition
  3

  2
PSOL_10
 70
     9
280
     0
  0
ATTDEF
  5
1DF
330
1C2
100
AcDbEntity
  8
AM_6
100
AcDbText
 10
4.999999999996499
 20
195.462500000003
 30
0.0
 40
0.5
  1
KNOCK_HOLE_OFFSET=0.00833333333333333},{KNOCK_HOLE_RADIUS=0.164},{LATENT_COOLING_CAPACITY=0},{LIQUID_PIPE_HORIZONTAL_OFFSET=0.411458333333333},{LIQUID_PIPE_LENGTH=1.38016666666667},{LIQUID_PIPE_RADIUS=0.015625},{LIQUID_PIPE_VERTICAL_OFFSET=0.9166666
100
AcDbAttributeDefinition
  3

  2
PSOL_11
 70
     9
280
     0
  0
ATTDEF
  5
1E0
330
1C2
100
AcDbEntity
  8
AM_6
100
AcDbText
 10
4.999999999996499
 20
194.962500000003
 30
0.0
 40
0.5
  1
67},{LOAD_SUB_CLASSIFICATION_MOTOR=1},{MANUFACTURER=Daikin},{MASSUNIT=1},{MAXIMUM_AIR_FLOW=742},{MAXIMUM_OVERCURRENT_PROTECTION=15},{MEDIAN_AIR_FLOW=618},{MINIMUM_AIR_FLOW=477},{MINIMUM_CIRCUIT_AMPS=0.5},{MINIMUM_FLOOR_CLEARANCE=8.33333333333333},{M
100
AcDbAttributeDefinition
  3

  2
PSOL_12
 70
     9
280
     0
  0
ATTDEF
  5
1E1
330
1C2
100
AcDbEntity
  8
AM_6
100
AcDbText
 10
4.999999999996499
 20
194.462500000003
 30
0.0
 40
0.5
  1
_OBSTACLE_CLEARANCE=5},{MODEL=FCA18AAVJU-BYCQ54GEFU},{NO_OBSTACLES_BELOW_UNIT=1},{NOMINAL_COOLING_CAPACITY=18000},{NOMINAL_COOLING_CAPACITY__TONS_=1.5},{NOMINAL_HEATING_CAPACITY=20000},{NUMBER_OF_POLES=2},{OBSTACLES_BELOW_UNIT=0},{OMNICLASS_NUMBER=2
100
AcDbAttributeDefinition
  3

  2
PSOL_13
 70
     9
280
     0
  0
ATTDEF
  5
1E2
330
1C2
100
AcDbEntity
  8
AM_6
100
AcDbText
 10
4.999999999996499
 20
193.962500000003
 30
0.0
 40
0.5
  1
3.11.15.11},{OUT_AIR_INTAKE_H_OFFSET=0.598958333333333},{OUT_AIR_INTAKE_V_OFFSET=0.697916666666667},{OVERALL_DEPTH=33.0625},{OVERALL_HEIGHT=9.6875},{OVERALL_WIDTH=33.0625},{PARTTYPE=Normal},{PHASE=1},{REFRIGERANT_LIQUID_CONNECTION_DIAMETER=0.375},{R
100
AcDbAttributeDefinition
  3

  2
PSOL_14
 70
     9
280
     0
  0
ATTDEF
  5
1E3
330
1C2
100
AcDbEntity
  8
AM_6
100
AcDbText
 10
4.999999999996499
 20
193.462500000003
 30
0.0
 40
0.5
  1
RANT_SUCTION_GAS_CONNECTION_DIAMETER=0.625},{REFRIGERANT_USED=R-32},{RETURN_AIR_PRESSURE_DROP=0},{SENSIBLE_COOLING_CAPACITY=0},{SERIES=SkyAir},{SUPPLY_AIR_CONNECTION_HEIGHT=0.0625},{SUPPLY_AIR_CONNECTION_WIDTH=0.0625},{SUPPLY_AIR_PRESSURE_DROP=0},{S
100
AcDbAttributeDefinition
  3

  2
PSOL_15
 70
     9
280
     0
  0
ATTDEF
  5
1E4
330
1C2
100
AcDbEntity
  8
AM_6
100
AcDbText
 10
4.999999999996499
 20
192.962500000003
 30
0.0
 40
0.5
  1
PERFORMANCE_EER2=14},{SYSTEM_PERFORMANCE_HSPF2=9.2},{SYSTEM_PERFORMANCE_SEER2=19.5},{TOTAL_COOLING_CAPACITY=0},{TOTAL_HEATING_CAPACITY=0},{TOTAL_STATIC_PRESSURE=0},{UNIT_HEIGHT_CLEARANCE=8.33333333333333},{UNIT_WEIGHT=51},{URL=https://daikincomfort.
100
AcDbAttributeDefinition
  3

  2
PSOL_16
 70
     9
280
     0
  0
ATTDEF
  5
1E5
330
1C2
100
AcDbEntity
  8
AM_6
100
AcDbText
 10
4.999999999996499
 20
192.462500000003
 30
0.0
 40
0.5
  1
{VERSION=1},{VOLTAGE=240},{VOLTAGE_COMMENTS=208 VAC - 230 VAC},{VAR__NO_BRANCH_DUCT=1},{VAR__BRANCH_DUCT_SELECTOR=0},{VAR__FAN_SPEED_SELECTOR=3},{VAR__BRANCH_DUCT_FRONT_OPENING=0},{VAR__L____LOW_FAN_SPEED=477},{VAR__BRANCH_DUCT_RIGHT_OPENING=0},{VAR
100
AcDbAttributeDefinition
  3

  2
PSOL_17
 70
     9
280
     0
  0
ATTDEF
  5
1E6
330
1C2
100
AcDbEntity
  8
AM_6
100
AcDbText
 10
4.999999999996499
 20
191.962500000003
 30
0.0
 40
0.5
  1
MEDIUM_SPEED=618},{VAR__BRANCH_DUCT_BACK_OPENING=0},{VAR__H___HIGH_FAN_SPEED=742},{VAR__BRANCH_DUCT_LEFT_OPENING=0},{RFA_FAMILY=Download Revit Family (RFA)},{DEFAULTSORTATTR=60},{RFA_FAMILY_=../../_pool_/be/62/air_conditioner-indoor-daikin-fca.zip},
100
AcDbAttributeDefinition
  3

  2
PSOL_18
 70
     9
280
     0
  0
ATTDEF
  5
1E7
330
1C2
100
AcDbEntity
  8
AM_6
100
AcDbText
 10
4.999999999996499
 20
191.462500000003
 30
0.0
 40
0.5
  1
AMILY_ENG=../../_pool_/be/62/air_conditioner-indoor-daikin-fca.zip},{REVIT_FAMILY_DOWNLOAD=../../_pool_/be/62/air_conditioner-indoor-daikin-fca.zip}
100
AcDbAttributeDefinition
  3

  2
PSOL_19
 70
     9
280
     0
  0
LINE
  5
1E8
330
1C2
100
AcDbEntity
  8
AM_9
100
AcDbLine
 10
-195.262500000007
 20
112.7125
 30
0.0
 11
-419.893750000004
 21
112.7125
 31
0.0
  0
LINE
  5
1E9
330
1C2
100
AcDbEntity
  8
AM_9
100
AcDbLine
 10
-0.0000000000035013
 20
112.7124999999999
 30
0.0
 11
-0.0000000000035013
 21
207.962500000003
 31
0.0
  0
LINE
  5
1EA
330
1C2
100
AcDbEntity
  8
AM_9
100
AcDbLine
 10
-195.262500000007
 20
207.962500000003
 30
0.0
 11
-419.893750000004
 21
207.9625000000029
 31
0.0
  0
ENDBLK
  5
1C5
330
1C2
100
AcDbEntity
  8
0
100
AcDbBlockEnd
  0
ENDSEC
  0
SECTION
  2
ENTITIES
  0
ATTDEF
  5
5F
330
1F
100
AcDbEntity
  8
AM_6
100
AcDbText
 10
479.6628122557412
 20
255.587499999903
 30
0.0
 40
0.5
  1
FCA18AAVJU-BYCQ54GEFU
100
AcDbAttributeDefinition
  3

  2
NB
 70
     8
280
     0
  0
ATTDEF
  5
60
330
1F
100
AcDbEntity
  8
AM_6
100
AcDbText
 10
479.6628122557412
 20
255.087499999903
 30
0.0
 40
0.5
  1
(R32) Cassette Sky-Air Daikin FCA
100
AcDbAttributeDefinition
  3

  2
NN
 70
     8
280
     0
  0
ATTDEF
  5
61
330
1F
100
AcDbEntity
  8
AM_6
100
AcDbText
 10
479.6628122557412
 20
254.587499999903
 30
0.0
 40
0.5
  1

100
AcDbAttributeDefinition
  3

  2
NT
 70
     8
280
     0
  0
ATTDEF
  5
62
330
1F
100
AcDbEntity
  8
AM_6
100
AcDbText
 10
479.6628122557412
 20
254.087499999903
 30
0.0
 40
0.5
  1
$PARTNUMBER.
100
AcDbAttributeDefinition
  3

  2
NBSYN
 70
     8
280
     0
  0
ATTDEF
  5
63
330
1F
100
AcDbEntity
  8
AM_6
100
AcDbText
 10
479.6628122557412
 20
253.587499999903
 30
0.0
 40
0.5
  1
FCA18AAVJU-BYCQ54GEFU
100
AcDbAttributeDefinition
  3

  2
LINA
 70
     8
280
     0
  0
ATTDEF
  5
64
330
1F
100
AcDbEntity
  8
AM_6
100
AcDbText
 10
479.6628122557412
 20
253.087499999903
 30
0.0
 40
0.5
  1
Daikin
100
AcDbAttributeDefinition
  3

  2
CATALOG
 70
     8
280
     0
  0
ATTDEF
  5
65
330
1F
100
AcDbEntity
  8
AM_6
100
AcDbText
 10
479.6628122557412
 20
252.587499999903
 30
0.0
 40
0.5
  1
FCA18AAVJU-BYCQ54GEFU
100
AcDbAttributeDefinition
  3

  2
PARTNUMBER
 70
     8
280
     0
  0
ATTDEF
  5
66
330
1F
100
AcDbEntity
  8
AM_6
100
AcDbText
 10
479.6628122557412
 20
252.087499999903
 30
0.0
 40
0.5
  1
Air Conditioner Ducted Round Flow Cassette
100
AcDbAttributeDefinition
  3

  2
DESCRIPTION
 70
     8
280
     0
  0
ATTDEF
  5
67
330
1F
100
AcDbEntity
  8
AM_6
100
AcDbText
 10
479.6628122557412
 20
251.587499999903
 30
0.0
 40
0.5
  1
33.0625
100
AcDbAttributeDefinition
  3

  2
OVERALL_DEPTH
 70
     8
280
     0
  0
ATTDEF
  5
68
330
1F
100
AcDbEntity
  8
AM_6
100
AcDbText
 10
479.6628122557412
 20
251.087499999903
 30
0.0
 40
0.5
  1
9.6875
100
AcDbAttributeDefinition
  3

  2
OVERALL_HEIGHT
 70
     8
280
     0
  0
ATTDEF
  5
69
330
1F
100
AcDbEntity
  8
AM_6
100
AcDbText
 10
479.6628122557412
 20
250.587499999903
 30
0.0
 40
0.5
  1
33.0625
100
AcDbAttributeDefinition
  3

  2
OVERALL_WIDTH
 70
     8
280
     0
  0
ATTDEF
  5
6A
330
1F
100
AcDbEntity
  8
AM_6
100
AcDbText
 10
479.6628122557412
 20
250.087499999903
 30
0.0
 40
0.5
  1
https://daikincomfort.com/
100
AcDbAttributeDefinition
  3

  2
URL
 70
     8
280
     0
  0
ATTDEF
  5
6B
330
1F
100
AcDbEntity
  8
AM_6
100
AcDbText
 10
479.6628122557412
 20
249.587499999903
 30
0.0
 40
0.5
  1
Download Revit Family (RFA)
100
AcDbAttributeDefinition
  3

  2
RFA_FAMILY
 70
     8
280
     0
  0
ATTDEF
  5
6C
330
1F
100
AcDbEntity
  8
AM_6
100
AcDbText
 10
479.6628122557412
 20
249.087499999903
 30
0.0
 40
0.5
  1
daikin
100
AcDbAttributeDefinition
  3

  2
COMPANY
 70
     8
280
     0
  0
ATTDEF
  5
6D
330
1F
100
AcDbEntity
  8
AM_6
100
AcDbText
 10
479.6628122557412
 20
248.587499999903
 30
0.0
 40
0.5
  1
{$CADENAS_DATA/23d-libs/daikin/sky-air/sky-air20indoor20units/air_conditioner-indoor-daikin-fca.prj},220 {STYP=ASS},{VTYP=3D},{NB=FCA18AAVJU-BYCQ54GEFU},{LINA=FCA18AAVJU-BYCQ54GEFU},{NN=(R32) Cassette Sky-Air Daikin FCA},{DATE=03.06.2026 19:23:42},{
100
AcDbAttributeDefinition
  3

  2
PSOL_0
 70
     9
280
     0
  0
ATTDEF
  5
6E
330
1F
100
AcDbEntity
  8
AM_6
100
AcDbText
 10
479.6628122557412
 20
248.087499999903
 30
0.0
 40
0.5
  1
TE=23.09.2025 06:26:16},{VERSION=},{LINEID=10},{WBVAR=},{WBNUMERIC=}  {NB=FCA18AAVJU-BYCQ54GEFU},{LINA=FCA18AAVJU-BYCQ54GEFU},{KT=DUMMY},{PARTNUMBER=FCA18AAVJU-BYCQ54GEFU},{PARTNUMBERMAP09=1.5Ton_FCA18AAVJU-BYCQ54GEFU},{ACTUAL_RETURN_AIR_FLOW=742},{
100
AcDbAttributeDefinition
  3

  2
PSOL_1
 70
     9
280
     0
  0
ATTDEF
  5
6F
330
1F
100
AcDbEntity
  8
AM_6
100
AcDbText
 10
479.6628122557412
 20
247.587499999903
 30
0.0
 40
0.5
  1
_SUPPLY_AIR_FLOW=742},{AMBIENT_TEMPERATURE=0},{APPARENT_POWER=120},{ASSEMBLY_CODE=D3090},{BRANCH_DUCT_CENTER_OFFSET=0},{BRANCH_DUCT_DEPTH=0.00833333333333333},{BRANCH_DUCT_HEIGHT=0.3125},{BRANCH_DUCT_HORIZONTAL_OFFSET=0.526041666666667},{BRANCH_DUCT
100
AcDbAttributeDefinition
  3

  2
PSOL_2
 70
     9
280
     0
  0
ATTDEF
  5
70
330
1F
100
AcDbEntity
  8
AM_6
100
AcDbText
 10
479.6628122557412
 20
247.087499999903
 30
0.0
 40
0.5
  1
CENTER_OFFSET=0.0677083333333333},{BRANCH_DUCT_POSITION_ANGLE=0},{BRANCH_DUCT_REFERENCE_LENGTH=1.37760416666667},{BRANCH_DUCT_RIGHT_CENTER_OFFSET=0.0833333333333333},{BRANCH_DUCT_WIDTH=1.14583333333333},{CATEGORY=Mechanical Equipment},{CEILING_OPENI
100
AcDbAttributeDefinition
  3

  2
PSOL_3
 70
     9
280
     0
  0
ATTDEF
  5
71
330
1F
100
AcDbEntity
  8
AM_6
100
AcDbText
 10
479.6628122557412
 20
246.587499999903
 30
0.0
 40
0.5
  1
CE_DEPTH=2.98958333333333},{CEILING_OPENING_SPACE_WIDTH=2.98958333333333},{CLEARANCE_PRIMARY_OFFSET=5},{CLEARANCE_SECONDARY_OFFSET=0.65625},{CLEARANCE_VISIBILITY=1},{COIL_AIR_PRESSURE_DROP=0},{CONDENSATE_DRAIN_CONNECTION_DIAMETER=1.25},{CONDENSATE_D
100
AcDbAttributeDefinition
  3

  2
PSOL_4
 70
     9
280
     0
  0
ATTDEF
  5
72
330
1F
100
AcDbEntity
  8
AM_6
100
AcDbText
 10
479.6628122557412
 20
246.087499999903
 30
0.0
 40
0.5
  1
IPE_HORIZONTAL_OFFSET=0.583333333333333},{CONDENSATE_DRAIN_PIPE_LENGTH=1.38016666666667},{CONDENSATE_DRAIN_PIPE_RADIUS=0.0520833333333333},{CONDENSATE_DRAIN_PIPE_VERTICAL_OFFSET=1.11458333333333},{COOLING_ENTERING_DRY_BULB_TEMPERATURE=0},{COOLING_EN
100
AcDbAttributeDefinition
  3

  2
PSOL_5
 70
     9
280
     0
  0
ATTDEF
  5
73
330
1F
100
AcDbEntity
  8
AM_6
100
AcDbText
 10
479.6628122557412
 20
245.587499999903
 30
0.0
 40
0.5
  1
_WET_BULB_TEMPERATURE=0},{COOLING_LEAVING_DRY_BULB_TEMPERATURE=0},{COOLING_LEAVING_WET_BULB_TEMPERATURE=0},{COST=0},{DECORATION_PANEL_COVER_HEIGHT=0.135416666666667},{DECORATION_PANEL_DEPTH=3.11458333333333},{DECORATION_PANEL_INSIDE_HEIGHT=0.03125},
100
AcDbAttributeDefinition
  3

  2
PSOL_6
 70
     9
280
     0
  0
ATTDEF
  5
74
330
1F
100
AcDbEntity
  8
AM_6
100
AcDbText
 10
479.6628122557412
 20
245.087499999903
 30
0.0
 40
0.5
  1
ATION_PANEL_OVERALL_HEIGHT=0.166666666666667},{DECORATION_PANEL_WEIGHT=12},{DECORATION_PANEL_WIDTH=3.11458333333333},{DEFAULT_ELEVATION=4},{DESCRIPTION=Air Conditioner Ducted Round Flow Cassette},{DESIGN_BRANCH_DUCT_SUPPLY_AIR_FLOW=0},{DESIGN_FRESH_
100
AcDbAttributeDefinition
  3

  2
PSOL_7
 70
     9
280
     0
  0
ATTDEF
  5
75
330
1F
100
AcDbEntity
  8
AM_6
100
AcDbText
 10
479.6628122557412
 20
244.587499999903
 30
0.0
 40
0.5
  1
OW=0},{DESIGN_RETURN_AIR_FLOW=742},{DESIGN_SUPPLY_AIR_FLOW=742},{DRAIN_FLOW=0},{ENCLOSURE_DEPTH=2.75520833333333},{ENCLOSURE_FLANGE_OFFSET=2.33333333333333},{ENCLOSURE_HEIGHT=0.807291666666667},{ENCLOSURE_WIDTH=2.75520833333333},{FACE_VELOCITY__FPM_
100
AcDbAttributeDefinition
  3

  2
PSOL_8
 70
     9
280
     0
  0
ATTDEF
  5
76
330
1F
100
AcDbEntity
  8
AM_6
100
AcDbText
 10
479.6628122557412
 20
244.087499999903
 30
0.0
 40
0.5
  1
AN_TYPE=Turbo fan},{FEET_PRESSURE_DROP=0},{FREQUENCY=60},{FRESH_AIR_INTAKE=0},{FRESH_AIR_INTAKE_RADIUS=0.0625},{GAS_PIPE_HORIZONTAL_OFFSET=0.541666666666667},{GAS_PIPE_LENGTH=1.38016666666667},{GAS_PIPE_RADIUS=0.0260416666666667},{GAS_PIPE_VERTICAL_
100
AcDbAttributeDefinition
  3

  2
PSOL_9
 70
     9
280
     0
  0
ATTDEF
  5
77
330
1F
100
AcDbEntity
  8
AM_6
100
AcDbText
 10
479.6628122557412
 20
243.587499999903
 30
0.0
 40
0.5
  1
=1.08333333333333},{HEAT_EXCHANGER_TYPE=Cross Fin Coil},{HEATING_ENTERING_DRY_BULB_TEMPERATURE=0},{HEATING_ENTERING_WET_BULB_TEMPERATURE=0},{HEATING_LEAVING_DRY_BULB_TEMPERATURE=0},{HEATING_LEAVING_WET_BULB_TEMPERATURE=0},{KNOCK_HOLE_OFFSET=0.008333
100
AcDbAttributeDefinition
  3

  2
PSOL_10
 70
     9
280
     0
  0
ATTDEF
  5
78
330
1F
100
AcDbEntity
  8
AM_6
100
AcDbText
 10
479.6628122557412
 20
243.087499999903
 30
0.0
 40
0.5
  1
33333},{KNOCK_HOLE_RADIUS=0.164},{LATENT_COOLING_CAPACITY=0},{LIQUID_PIPE_HORIZONTAL_OFFSET=0.411458333333333},{LIQUID_PIPE_LENGTH=1.38016666666667},{LIQUID_PIPE_RADIUS=0.015625},{LIQUID_PIPE_VERTICAL_OFFSET=0.916666666666667},{LOAD_SUB_CLASSIFICATI
100
AcDbAttributeDefinition
  3

  2
PSOL_11
 70
     9
280
     0
  0
ATTDEF
  5
79
330
1F
100
AcDbEntity
  8
AM_6
100
AcDbText
 10
479.6628122557412
 20
242.587499999903
 30
0.0
 40
0.5
  1
OR=1},{MANUFACTURER=Daikin},{MASSUNIT=1},{MAXIMUM_AIR_FLOW=742},{MAXIMUM_OVERCURRENT_PROTECTION=15},{MEDIAN_AIR_FLOW=618},{MINIMUM_AIR_FLOW=477},{MINIMUM_CIRCUIT_AMPS=0.5},{MINIMUM_FLOOR_CLEARANCE=8.33333333333333},{MINIMUM_OBSTACLE_CLEARANCE=5},{MO
100
AcDbAttributeDefinition
  3

  2
PSOL_12
 70
     9
280
     0
  0
ATTDEF
  5
7A
330
1F
100
AcDbEntity
  8
AM_6
100
AcDbText
 10
479.6628122557412
 20
242.087499999903
 30
0.0
 40
0.5
  1
A18AAVJU-BYCQ54GEFU},{NO_OBSTACLES_BELOW_UNIT=1},{NOMINAL_COOLING_CAPACITY=18000},{NOMINAL_COOLING_CAPACITY__TONS_=1.5},{NOMINAL_HEATING_CAPACITY=20000},{NUMBER_OF_POLES=2},{OBSTACLES_BELOW_UNIT=0},{OMNICLASS_NUMBER=23.33.33.11.15.11},{OUT_AIR_INTAK
100
AcDbAttributeDefinition
  3

  2
PSOL_13
 70
     9
280
     0
  0
ATTDEF
  5
7B
330
1F
100
AcDbEntity
  8
AM_6
100
AcDbText
 10
479.6628122557412
 20
241.587499999903
 30
0.0
 40
0.5
  1
FSET=0.598958333333333},{OUT_AIR_INTAKE_V_OFFSET=0.697916666666667},{OVERALL_DEPTH=33.0625},{OVERALL_HEIGHT=9.6875},{OVERALL_WIDTH=33.0625},{PARTTYPE=Normal},{PHASE=1},{REFRIGERANT_LIQUID_CONNECTION_DIAMETER=0.375},{REFRIGERANT_SUCTION_GAS_CONNECTIO
100
AcDbAttributeDefinition
  3

  2
PSOL_14
 70
     9
280
     0
  0
ATTDEF
  5
7C
330
1F
100
AcDbEntity
  8
AM_6
100
AcDbText
 10
479.6628122557412
 20
241.087499999903
 30
0.0
 40
0.5
  1
ETER=0.625},{REFRIGERANT_USED=R-32},{RETURN_AIR_PRESSURE_DROP=0},{SENSIBLE_COOLING_CAPACITY=0},{SERIES=SkyAir},{SUPPLY_AIR_CONNECTION_HEIGHT=0.0625},{SUPPLY_AIR_CONNECTION_WIDTH=0.0625},{SUPPLY_AIR_PRESSURE_DROP=0},{SYSTEM_PERFORMANCE_EER2=14},{SYST
100
AcDbAttributeDefinition
  3

  2
PSOL_15
 70
     9
280
     0
  0
ATTDEF
  5
7D
330
1F
100
AcDbEntity
  8
AM_6
100
AcDbText
 10
479.6628122557412
 20
240.587499999903
 30
0.0
 40
0.5
  1
FORMANCE_HSPF2=9.2},{SYSTEM_PERFORMANCE_SEER2=19.5},{TOTAL_COOLING_CAPACITY=0},{TOTAL_HEATING_CAPACITY=0},{TOTAL_STATIC_PRESSURE=0},{UNIT_HEIGHT_CLEARANCE=8.33333333333333},{UNIT_WEIGHT=51},{URL=https://daikincomfort.com/},{VERSION=1},{VOLTAGE=240},
100
AcDbAttributeDefinition
  3

  2
PSOL_16
 70
     9
280
     0
  0
ATTDEF
  5
7E
330
1F
100
AcDbEntity
  8
AM_6
100
AcDbText
 10
479.6628122557412
 20
240.087499999903
 30
0.0
 40
0.5
  1
GE_COMMENTS=208 VAC - 230 VAC},{VAR__NO_BRANCH_DUCT=1},{VAR__BRANCH_DUCT_SELECTOR=0},{VAR__FAN_SPEED_SELECTOR=3},{VAR__BRANCH_DUCT_FRONT_OPENING=0},{VAR__L____LOW_FAN_SPEED=477},{VAR__BRANCH_DUCT_RIGHT_OPENING=0},{VAR__M___MEDIUM_SPEED=618},{VAR__BR
100
AcDbAttributeDefinition
  3

  2
PSOL_17
 70
     9
280
     0
  0
ATTDEF
  5
7F
330
1F
100
AcDbEntity
  8
AM_6
100
AcDbText
 10
479.6628122557412
 20
239.587499999903
 30
0.0
 40
0.5
  1
UCT_BACK_OPENING=0},{VAR__H___HIGH_FAN_SPEED=742},{VAR__BRANCH_DUCT_LEFT_OPENING=0},{RFA_FAMILY=Download Revit Family (RFA)},{DEFAULTSORTATTR=60},{RFA_FAMILY_=../../_pool_/be/62/air_conditioner-indoor-daikin-fca.zip},{RFA_FAMILY_ENG=../../_pool_/be/
100
AcDbAttributeDefinition
  3

  2
PSOL_18
 70
     9
280
     0
  0
ATTDEF
  5
80
330
1F
100
AcDbEntity
  8
AM_6
100
AcDbText
 10
479.6628122557412
 20
239.087499999903
 30
0.0
 40
0.5
  1
_conditioner-indoor-daikin-fca.zip},{REVIT_FAMILY_DOWNLOAD=../../_pool_/be/62/air_conditioner-indoor-daikin-fca.zip}
100
AcDbAttributeDefinition
  3

  2
PSOL_19
 70
     9
280
     0
  0
INSERT
  5
82
330
1F
100
AcDbEntity
  8
0
100
AcDbBlockReference
  2
1_FCA18AAVJU_BYCQ54GEFU_PART7_0_in_FCA18AAVJU_BYCQ54GEFU_2
 10
0.0
 20
0.0
 30
0.0
  0
INSERT
  5
AE
330
1F
100
AcDbEntity
  8
0
100
AcDbBlockReference
  2
2_FCA18AAVJU_BYCQ54GEFU_PART6_0_in_FCA18AAVJU_BYCQ54GEFU_2
 10
0.0
 20
0.0
 30
0.0
  0
INSERT
  5
D7
330
1F
100
AcDbEntity
  8
0
100
AcDbBlockReference
  2
3_FCA18AAVJU_BYCQ54GEFU_PART5_0_in_FCA18AAVJU_BYCQ54GEFU_2
 10
0.0
 20
0.0
 30
0.0
  0
INSERT
  5
100
330
1F
100
AcDbEntity
  8
0
100
AcDbBlockReference
  2
4_FCA18AAVJU_BYCQ54GEFU_PART4_0_in_FCA18AAVJU_BYCQ54GEFU_2
 10
0.0
 20
0.0
 30
0.0
  0
INSERT
  5
141
330
1F
100
AcDbEntity
  8
0
100
AcDbBlockReference
  2
5_FCA18AAVJU_BYCQ54GEFU_PART3_0_in_FCA18AAVJU_BYCQ54GEFU_2
 10
0.0
 20
0.0
 30
0.0
  0
INSERT
  5
16E
330
1F
100
AcDbEntity
  8
0
100
AcDbBlockReference
  2
6_FCA18AAVJU_BYCQ54GEFU_PART2_0_in_FCA18AAVJU_BYCQ54GEFU_2
 10
0.0
 20
0.0
 30
0.0
  0
INSERT
  5
1C3
330
1F
100
AcDbEntity
  8
0
100
AcDbBlockReference
  2
7_FCA18AAVJU_BYCQ54GEFU_PART1_0_in_FCA18AAVJU_BYCQ54GEFU_2
 10
0.0
 20
0.0
 30
0.0
  0
ENDSEC
  0
SECTION
  2
OBJECTS
  0
DICTIONARY
  5
C
330
0
100
AcDbDictionary
281
     1
  3
ACAD_DETAILVIEWSTYLE
350
1F2
  3
ACAD_GROUP
350
D
  3
ACAD_LAYOUT
350
1A
  3
ACAD_MATERIAL
350
43
  3
ACAD_MLEADERSTYLE
350
5B
  3
ACAD_MLINESTYLE
350
17
  3
ACAD_PLOTSETTINGS
350
19
  3
ACAD_PLOTSTYLENAME
350
E
  3
ACAD_SCALELIST
350
47
  3
ACAD_SECTIONVIEWSTYLE
350
1F3
  3
ACAD_TABLESTYLE
350
59
  3
ACAD_VISUALSTYLE
350
2A
  3
ACDB_RECOMPOSE_DATA
350
1EF
  3
AcDbVariableDictionary
350
1EB
  0
SUN
  5
5D
330
29
100
AcDbSun
 90
        1
290
     0
 63
     7
421
 16777215
 40
1.0
291
     1
 91
  2455826
 92
 54000000
292
     0
 70
     2
 71
   256
280
     1
  0
DICTIONARY
  5
1F2
102
{ACAD_REACTORS
330
C
102
}
330
C
100
AcDbDictionary
281
     1
  0
DICTIONARY
  5
D
102
{ACAD_REACTORS
330
C
102
}
330
C
100
AcDbDictionary
281
     1
  0
DICTIONARY
  5
1A
102
{ACAD_REACTORS
330
C
102
}
330
C
100
AcDbDictionary
281
     1
  3
Layout1
350
1E
  3
Layout2
350
26
  3
Model
350
22
  0
DICTIONARY
  5
43
102
{ACAD_REACTORS
330
C
102
}
330
C
100
AcDbDictionary
281
     1
  3
ByBlock
350
45
  3
ByLayer
350
44
  3
Global
350
46
  0
DICTIONARY
  5
5B
102
{ACAD_REACTORS
330
C
102
}
330
C
100
AcDbDictionary
281
     1
  3
Standard
350
5C
  0
DICTIONARY
  5
17
102
{ACAD_REACTORS
330
C
102
}
330
C
100
AcDbDictionary
281
     1
  3
Standard
350
18
  0
DICTIONARY
  5
19
102
{ACAD_REACTORS
330
C
102
}
330
C
100
AcDbDictionary
281
     1
  0
ACDBDICTIONARYWDFLT
  5
E
102
{ACAD_REACTORS
330
C
102
}
330
C
100
AcDbDictionary
281
     1
  3
Normal
350
F
100
AcDbDictionaryWithDefault
340
F
  0
DICTIONARY
  5
47
102
{ACAD_REACTORS
330
C
102
}
330
C
100
AcDbDictionary
281
     1
  3
A0
350
48
  3
A1
350
49
  3
A2
350
4A
  3
A3
350
4B
  3
A4
350
4C
  3
A5
350
4D
  3
A6
350
4E
  3
A7
350
4F
  3
A8
350
50
  3
A9
350
51
  3
B0
350
52
  3
B1
350
53
  3
B2
350
54
  3
B3
350
55
  3
B4
350
56
  3
B5
350
57
  3
B6
350
58
  0
DICTIONARY
  5
1F3
102
{ACAD_REACTORS
330
C
102
}
330
C
100
AcDbDictionary
281
     1
  0
DICTIONARY
  5
59
102
{ACAD_REACTORS
330
C
102
}
330
C
100
AcDbDictionary
281
     1
  3
Standard
350
5A
  0
DICTIONARY
  5
2A
102
{ACAD_REACTORS
330
C
102
}
330
C
100
AcDbDictionary
281
     1
  3
2dWireframe
350
2F
  3
Basic
350
32
  3
Brighten
350
36
  3
ColorChange
350
3A
  3
Conceptual
350
34
  3
Dim
350
35
  3
EdgeColorOff
350
3D
  3
Facepattern
350
39
  3
Flat
350
2B
  3
FlatWithEdges
350
2C
  3
Gouraud
350
2D
  3
GouraudWithEdges
350
2E
  3
Hidden
350
31
  3
JitterOff
350
3B
  3
Linepattern
350
38
  3
OverhangOff
350
3C
  3
Realistic
350
33
  3
Shaded
350
42
  3
Shaded with edges
350
41
  3
Shades of Gray
350
3E
  3
Sketchy
350
3F
  3
Thicken
350
37
  3
Wireframe
350
30
  3
X-Ray
350
40
  0
XRECORD
  5
1EF
102
{ACAD_REACTORS
330
C
102
}
330
C
100
AcDbXrecord
280
     1
 90
        1
330
5A
  0
DICTIONARY
  5
1EB
102
{ACAD_REACTORS
330
C
102
}
330
C
100
AcDbDictionary
281
     1
  3
CANNOSCALE
350
1EC
  3
CENTEREXE
350
1F4
  3
CENTERLTYPEFILE
350
1F5
  3
CMLEADERSTYLE
350
1F1
  3
CTABLESTYLE
350
1F0
  0
LAYOUT
  5
1E
102
{ACAD_REACTORS
330
1A
102
}
330
1A
100
AcDbPlotSettings
  1

  2
none_device
  4

  6

 40
0.0
 41
0.0
 42
0.0
 43
0.0
 44
0.0
 45
0.0
 46
0.0
 47
0.0
 48
0.0
 49
0.0
140
0.0
141
0.0
142
1.0
143
1.0
 70
   688
 72
     1
 73
     0
 74
     5
  7

 75
    16
 76
     0
 77
     2
 78
   300
147
1.0
148
0.0
149
0.0
100
AcDbLayout
  1
Layout1
 70
     1
 71
     1
 10
0.0
 20
0.0
 11
420.0
 21
297.0
 12
0.0
 22
0.0
 32
0.0
 14
1.000000000000000E+20
 24
1.000000000000000E+20
 34
1.000000000000000E+20
 15
-1.000000000000000E+20
 25
-1.000000000000000E+20
 35
-1.000000000000000E+20
146
0.0
 13
0.0
 23
0.0
 33
0.0
 16
1.0
 26
0.0
 36
0.0
 17
0.0
 27
1.0
 37
0.0
 76
     0
330
1B
  0
LAYOUT
  5
26
102
{ACAD_REACTORS
330
1A
102
}
330
1A
100
AcDbPlotSettings
  1

  2
none_device
  4

  6

 40
0.0
 41
0.0
 42
0.0
 43
0.0
 44
0.0
 45
0.0
 46
0.0
 47
0.0
 48
0.0
 49
0.0
140
0.0
141
0.0
142
1.0
143
1.0
 70
   688
 72
     1
 73
     0
 74
     5
  7

 75
    16
 76
     0
 77
     2
 78
   300
147
1.0
148
0.0
149
0.0
100
AcDbLayout
  1
Layout2
 70
     1
 71
     2
 10
0.0
 20
0.0
 11
0.0
 21
0.0
 12
0.0
 22
0.0
 32
0.0
 14
0.0
 24
0.0
 34
0.0
 15
0.0
 25
0.0
 35
0.0
146
0.0
 13
0.0
 23
0.0
 33
0.0
 16
1.0
 26
0.0
 36
0.0
 17
0.0
 27
1.0
 37
0.0
 76
     0
330
23
  0
LAYOUT
  5
22
102
{ACAD_REACTORS
330
1A
102
}
330
1A
100
AcDbPlotSettings
  1

  2
none_device
  4
Letter_(8.50_x_11.00_Inches)
  6

 40
6.35
 41
6.35
 42
6.35000508
 43
6.35000508
 44
215.9
 45
279.4
 46
0.0
 47
0.0
 48
0.0
 49
0.0
140
0.0
141
0.0
142
1.0
143
1.0
 70
  1712
 72
     1
 73
     0
 74
     0
  7

 75
     0
 76
     0
 77
     2
 78
   300
147
1.0
148
0.0
149
0.0
100
AcDbLayout
  1
Model
 70
     1
 71
     0
 10
0.0
 20
0.0
 11
420.0
 21
297.0
 12
0.0
 22
0.0
 32
0.0
 14
-474.6625038084816
 24
-41.2750000726536
 34
0.0
 15
486.5797614082836
 25
256.0929237287166
 35
0.0
146
0.0
 13
0.0
 23
0.0
 33
0.0
 16
1.0
 26
0.0
 36
0.0
 17
0.0
 27
1.0
 37
0.0
 76
     0
330
1F
331
29
  0
MATERIAL
  5
45
102
{ACAD_REACTORS
330
43
102
}
330
43
100
AcDbMaterial
  1
ByBlock
 72
     1
 94
      127
  0
MATERIAL
  5
44
102
{ACAD_REACTORS
330
43
102
}
330
43
100
AcDbMaterial
  1
ByLayer
 72
     1
 94
      127
  0
MATERIAL
  5
46
102
{ACAD_REACTORS
330
43
102
}
330
43
100
AcDbMaterial
  1
Global
 72
     1
 94
      127
  0
MLEADERSTYLE
  5
5C
102
{ACAD_REACTORS
330
5B
102
}
330
5B
100
AcDbMLeaderStyle
179
     2
170
     2
171
     1
172
     0
 90
        2
 40
0.0
 41
0.0
173
     1
 91
-1056964608
340
14
 92
       -2
290
     1
 42
2.0
291
     1
 43
8.0
  3
Standard
341
0
 44
4.0
300

342
11
174
     1
178
     6
175
     1
176
     0
 93
-1056964608
 45
4.0
292
     0
297
     0
 46
4.0
343
0
 94
-1056964608
 47
1.0
 49
1.0
140
1.0
293
     1
141
0.0
294
     1
177
     0
142
1.0
295
     0
296
     0
143
3.75
271
     0
272
     9
273
     9
298
     0
  0
MLINESTYLE
  5
18
102
{ACAD_REACTORS
330
17
102
}
330
17
100
AcDbMlineStyle
  2
Standard
 70
     0
  3

 62
   256
 51
90.0
 52
90.0
 71
     2
 49
0.5
 62
   256
  6
BYLAYER
 49
-0.5
 62
   256
  6
BYLAYER
  0
ACDBPLACEHOLDER
  5
F
102
{ACAD_REACTORS
330
E
102
}
330
E
  0
SCALE
  5
48
102
{ACAD_REACTORS
330
47
102
}
330
47
100
AcDbScale
 70
     0
300
1:1
140
1.0
141
1.0
290
     1
  0
SCALE
  5
49
102
{ACAD_REACTORS
330
47
102
}
330
47
100
AcDbScale
 70
     0
300
1:2
140
1.0
141
2.0
290
     0
  0
SCALE
  5
4A
102
{ACAD_REACTORS
330
47
102
}
330
47
100
AcDbScale
 70
     0
300
1:4
140
1.0
141
4.0
290
     0
  0
SCALE
  5
4B
102
{ACAD_REACTORS
330
47
102
}
330
47
100
AcDbScale
 70
     0
300
1:5
140
1.0
141
5.0
290
     0
  0
SCALE
  5
4C
102
{ACAD_REACTORS
330
47
102
}
330
47
100
AcDbScale
 70
     0
300
1:8
140
1.0
141
8.0
290
     0
  0
SCALE
  5
4D
102
{ACAD_REACTORS
330
47
102
}
330
47
100
AcDbScale
 70
     0
300
1:10
140
1.0
141
10.0
290
     0
  0
SCALE
  5
4E
102
{ACAD_REACTORS
330
47
102
}
330
47
100
AcDbScale
 70
     0
300
1:16
140
1.0
141
16.0
290
     0
  0
SCALE
  5
4F
102
{ACAD_REACTORS
330
47
102
}
330
47
100
AcDbScale
 70
     0
300
1:20
140
1.0
141
20.0
290
     0
  0
SCALE
  5
50
102
{ACAD_REACTORS
330
47
102
}
330
47
100
AcDbScale
 70
     0
300
1:30
140
1.0
141
30.0
290
     0
  0
SCALE
  5
51
102
{ACAD_REACTORS
330
47
102
}
330
47
100
AcDbScale
 70
     0
300
1:40
140
1.0
141
40.0
290
     0
  0
SCALE
  5
52
102
{ACAD_REACTORS
330
47
102
}
330
47
100
AcDbScale
 70
     0
300
1:50
140
1.0
141
50.0
290
     0
  0
SCALE
  5
53
102
{ACAD_REACTORS
330
47
102
}
330
47
100
AcDbScale
 70
     0
300
1:100
140
1.0
141
100.0
290
     0
  0
SCALE
  5
54
102
{ACAD_REACTORS
330
47
102
}
330
47
100
AcDbScale
 70
     0
300
2:1
140
2.0
141
1.0
290
     0
  0
SCALE
  5
55
102
{ACAD_REACTORS
330
47
102
}
330
47
100
AcDbScale
 70
     0
300
4:1
140
4.0
141
1.0
290
     0
  0
SCALE
  5
56
102
{ACAD_REACTORS
330
47
102
}
330
47
100
AcDbScale
 70
     0
300
8:1
140
8.0
141
1.0
290
     0
  0
SCALE
  5
57
102
{ACAD_REACTORS
330
47
102
}
330
47
100
AcDbScale
 70
     0
300
10:1
140
10.0
141
1.0
290
     0
  0
SCALE
  5
58
102
{ACAD_REACTORS
330
47
102
}
330
47
100
AcDbScale
 70
     0
300
100:1
140
100.0
141
1.0
290
     0
  0
TABLESTYLE
  5
5A
102
{ACAD_REACTORS
330
59
102
}
102
{ACAD_XDICTIONARY
360
1ED
102
}
330
59
100
AcDbTableStyle
  3
Standard
 70
     0
 71
     0
 40
0.06
 41
0.06
280
     0
281
     0
  7
Standard
140
4.5
170
     2
 62
     0
 63
   257
283
     0
 90
        4
 91
        0
  1

274
    -2
284
     1
 64
     0
275
    -2
285
     1
 65
     0
276
    -2
286
     1
 66
     0
277
    -2
287
     1
 67
     0
278
    -2
288
     1
 68
     0
279
    -2
289
     1
 69
     0
  7
Standard
140
6.0
170
     5
 62
     0
 63
   257
283
     0
 90
        4
 91
        0
  1

274
    -2
284
     1
 64
     0
275
    -2
285
     1
 65
     0
276
    -2
286
     1
 66
     0
277
    -2
287
     1
 67
     0
278
    -2
288
     1
 68
     0
279
    -2
289
     1
 69
     0
  7
Standard
140
4.5
170
     5
 62
     0
 63
   257
283
     0
 90
        4
 91
        0
  1

274
    -2
284
     1
 64
     0
275
    -2
285
     1
 65
     0
276
    -2
286
     1
 66
     0
277
    -2
287
     1
 67
     0
278
    -2
288
     1
 68
     0
279
    -2
289
     1
 69
     0
  0
VISUALSTYLE
  5
2F
102
{ACAD_REACTORS
330
2A
102
}
330
2A
100
AcDbVisualStyle
  2
2dWireframe
 70
     4
177
     3
291
     0
 70
    58
 90
        0
176
     1
 90
        2
176
     1
 90
        0
176
     1
 90
        0
176
     1
 40
0.6
176
     1
 40
30.0
176
     1
 62
     7
420
 16777215
176
     1
 90
        1
176
     1
 90
        4
176
     1
 62
     7
176
     1
 62
   257
176
     1
 90
        1
176
     1
 90
        1
176
     1
 40
1.0
176
     1
 90
        0
176
     1
 62
   257
176
     1
 40
1.0
176
     1
 90
        1
176
     1
 90
        6
176
     1
 90
        2
176
     1
 62
     7
176
     1
 90
        5
176
     1
 90
        0
176
     1
 90
        0
176
     1
290
     0
176
     1
 90
        1
176
     1
 40
0.0
176
     1
 90
        0
176
     1
290
     1
176
     1
290
     1
176
     1
290
     0
176
     1
290
     0
176
     1
290
     0
176
     1
290
     0
176
     1
290
     0
176
     1
290
     0
176
     1
290
     0
176
     1
 90
       50
176
     1
 40
0.0
176
     1
 40
1.0
176
     1
 90
        0
176
     1
 62
    18
420
        0
176
     1
 90
       50
176
     1
 90
        3
176
     1
 62
     5
420
      255
176
     1
290
     0
176
     1
 90
       50
176
     1
 90
       50
176
     1
 90
       50
176
     1
290
     0
176
     1
 90
       50
176
     1
 62
   256
176
     0
 40
1.0
176
     0
 90
        2
176
     1
  1
strokes_ogs.tif
176
     1
290
     0
176
     1
 40
1.0
176
     1
 40
1.0
176
     1
  0
VISUALSTYLE
  5
32
102
{ACAD_REACTORS
330
2A
102
}
330
2A
100
AcDbVisualStyle
  2
Basic
 70
     7
177
     3
291
     1
 70
    58
 90
        1
176
     1
 90
        0
176
     1
 90
        1
176
     1
 90
        0
176
     1
 40
0.6
176
     1
 40
30.0
176
     1
 62
     7
420
 16777215
176
     1
 90
        0
176
     1
 90
        4
176
     1
 62
     7
176
     1
 62
   257
176
     1
 90
        1
176
     1
 90
        1
176
     1
 40
1.0
176
     1
 90
        8
176
     1
 62
     7
176
     1
 40
1.0
176
     1
 90
        1
176
     1
 90
        6
176
     1
 90
        2
176
     1
 62
     7
176
     1
 90
        5
176
     1
 90
        0
176
     1
 90
        0
176
     1
290
     0
176
     1
 90
        1
176
     1
 40
0.0
176
     1
 90
        0
176
     1
290
     0
176
     1
290
     1
176
     1
290
     1
176
     1
290
     0
176
     1
290
     0
176
     1
290
     0
176
     1
290
     0
176
     1
290
     0
176
     1
290
     0
176
     1
 90
       50
176
     1
 40
0.0
176
     1
 40
1.0
176
     1
 90
        0
176
     1
 62
    18
420
        0
176
     1
 90
       50
176
     1
 90
        3
176
     1
 62
     5
420
      255
176
     1
290
     0
176
     1
 90
       50
176
     1
 90
       50
176
     1
 90
       50
176
     1
290
     0
176
     1
 90
       50
176
     1
 62
   256
176
     0
 40
1.0
176
     0
 90
        2
176
     1
  1
strokes_ogs.tif
176
     1
290
     0
176
     1
 40
1.0
176
     1
 40
1.0
176
     1
  0
VISUALSTYLE
  5
36
102
{ACAD_REACTORS
330
2A
102
}
330
2A
100
AcDbVisualStyle
  2
Brighten
 70
    12
177
     3
291
     1
 70
    58
 90
        2
176
     1
 90
        2
176
     1
 90
        0
176
     1
 90
        0
176
     1
 40
0.6
176
     1
 40
30.0
176
     1
 62
     7
420
 16777215
176
     1
 90
        1
176
     1
 90
        4
176
     1
 62
     7
176
     1
 62
   257
176
     1
 90
        1
176
     1
 90
        1
176
     1
 40
1.0
176
     1
 90
        8
176
     1
 62
     7
176
     1
 40
1.0
176
     1
 90
        1
176
     1
 90
        6
176
     1
 90
        2
176
     1
 62
     7
176
     1
 90
        5
176
     1
 90
        0
176
     1
 90
        0
176
     1
290
     0
176
     1
 90
        1
176
     1
 40
50.0
176
     1
 90
        0
176
     1
290
     0
176
     1
290
     1
176
     1
290
     1
176
     1
290
     0
176
     1
290
     0
176
     1
290
     0
176
     1
290
     0
176
     1
290
     0
176
     1
290
     0
176
     1
 90
       50
176
     1
 40
0.0
176
     1
 40
1.0
176
     1
 90
        0
176
     1
 62
    18
420
        0
176
     1
 90
       50
176
     1
 90
        3
176
     1
 62
     5
420
      255
176
     1
290
     0
176
     1
 90
       50
176
     1
 90
       50
176
     1
 90
       50
176
     1
290
     0
176
     1
 90
       50
176
     1
 62
   256
176
     0
 40
1.0
176
     0
 90
        2
176
     1
  1
strokes_ogs.tif
176
     1
290
     0
176
     1
 40
1.0
176
     1
 40
1.0
176
     1
  0
VISUALSTYLE
  5
3A
102
{ACAD_REACTORS
330
2A
102
}
330
2A
100
AcDbVisualStyle
  2
ColorChange
 70
    16
177
     3
291
     1
 70
    58
 90
        2
176
     1
 90
        2
176
     1
 90
        3
176
     1
 90
        0
176
     1
 40
0.6
176
     1
 40
30.0
176
     1
 62
     8
420
  8421504
176
     1
 90
        1
176
     1
 90
        4
176
     1
 62
     7
176
     1
 62
   257
176
     1
 90
        1
176
     1
 90
        1
176
     1
 40
1.0
176
     1
 90
        8
176
     1
 62
     8
420
  8421504
176
     1
 40
1.0
176
     1
 90
        1
176
     1
 90
        6
176
     1
 90
        2
176
     1
 62
     7
176
     1
 90
        5
176
     1
 90
        0
176
     1
 90
        0
176
     1
290
     0
176
     1
 90
        1
176
     1
 40
0.0
176
     1
 90
        0
176
     1
290
     0
176
     1
290
     1
176
     1
290
     1
176
     1
290
     0
176
     1
290
     0
176
     1
290
     0
176
     1
290
     0
176
     1
290
     0
176
     1
290
     0
176
     1
 90
       50
176
     1
 40
0.0
176
     1
 40
1.0
176
     1
 90
        0
176
     1
 62
    18
420
        0
176
     1
 90
       50
176
     1
 90
        3
176
     1
 62
     5
420
      255
176
     1
290
     0
176
     1
 90
       50
176
     1
 90
       50
176
     1
 90
       50
176
     1
290
     0
176
     1
 90
       50
176
     1
 62
   256
176
     0
 40
1.0
176
     0
 90
        2
176
     1
  1
strokes_ogs.tif
176
     1
290
     0
176
     1
 40
1.0
176
     1
 40
1.0
176
     1
  0
VISUALSTYLE
  5
34
102
{ACAD_REACTORS
330
2A
102
}
330
2A
100
AcDbVisualStyle
  2
Conceptual
 70
     9
177
     3
291
     0
 70
    58
 90
        3
176
     1
 90
        2
176
     1
 90
        0
176
     1
 90
        0
176
     1
 40
0.6
176
     1
 40
30.0
176
     1
 62
     7
420
 16777215
176
     1
 90
        2
176
     1
 90
        2
176
     1
 62
     7
176
     1
 62
   257
176
     1
 90
        1
176
     1
 90
        1
176
     1
 40
179.0
176
     1
 90
        8
176
     1
 62
     7
176
     1
 40
1.0
176
     1
 90
        1
176
     1
 90
        6
176
     1
 90
        2
176
     1
 62
     7
176
     1
 90
        3
176
     1
 90
        0
176
     1
 90
        0
176
     1
290
     0
176
     1
 90
        1
176
     1
 40
0.0
176
     1
 90
        0
176
     1
290
     0
176
     1
290
     1
176
     1
290
     1
176
     1
290
     0
176
     1
290
     0
176
     1
290
     0
176
     1
290
     0
176
     1
290
     0
176
     1
290
     0
176
     1
 90
       50
176
     1
 40
0.0
176
     1
 40
1.0
176
     1
 90
        0
176
     1
 62
    18
420
        0
176
     1
 90
       50
176
     1
 90
        3
176
     1
 62
     5
420
      255
176
     1
290
     0
176
     1
 90
       50
176
     1
 90
       50
176
     1
 90
       50
176
     1
290
     0
176
     1
 90
       50
176
     1
 62
   256
176
     0
 40
1.0
176
     0
 90
        2
176
     1
  1
strokes_ogs.tif
176
     1
290
     0
176
     1
 40
1.0
176
     1
 40
1.0
176
     1
  0
VISUALSTYLE
  5
35
102
{ACAD_REACTORS
330
2A
102
}
330
2A
100
AcDbVisualStyle
  2
Dim
 70
    11
177
     3
291
     1
 70
    58
 90
        2
176
     1
 90
        2
176
     1
 90
        0
176
     1
 90
        0
176
     1
 40
0.6
176
     1
 40
30.0
176
     1
 62
     7
420
 16777215
176
     1
 90
        1
176
     1
 90
        4
176
     1
 62
     7
176
     1
 62
   257
176
     1
 90
        1
176
     1
 90
        1
176
     1
 40
1.0
176
     1
 90
        8
176
     1
 62
     7
176
     1
 40
1.0
176
     1
 90
        1
176
     1
 90
        6
176
     1
 90
        2
176
     1
 62
     7
176
     1
 90
        5
176
     1
 90
        0
176
     1
 90
        0
176
     1
290
     0
176
     1
 90
        1
176
     1
 40
-50.0
176
     1
 90
        0
176
     1
290
     0
176
     1
290
     1
176
     1
290
     1
176
     1
290
     0
176
     1
290
     0
176
     1
290
     0
176
     1
290
     0
176
     1
290
     0
176
     1
290
     0
176
     1
 90
       50
176
     1
 40
0.0
176
     1
 40
1.0
176
     1
 90
        0
176
     1
 62
    18
420
        0
176
     1
 90
       50
176
     1
 90
        3
176
     1
 62
     5
420
      255
176
     1
290
     0
176
     1
 90
       50
176
     1
 90
       50
176
     1
 90
       50
176
     1
290
     0
176
     1
 90
       50
176
     1
 62
   256
176
     0
 40
1.0
176
     0
 90
        2
176
     1
  1
strokes_ogs.tif
176
     1
290
     0
176
     1
 40
1.0
176
     1
 40
1.0
176
     1
  0
VISUALSTYLE
  5
3D
102
{ACAD_REACTORS
330
2A
102
}
330
2A
100
AcDbVisualStyle
  2
EdgeColorOff
 70
    22
177
     3
291
     1
 70
    58
 90
        2
176
     0
 90
        2
176
     0
 90
        0
176
     0
 90
        0
176
     0
 40
0.6
176
     0
 40
30.0
176
     0
 62
     7
420
 16777215
176
     0
 90
        1
176
     0
 90
        4
176
     0
 62
     7
176
     0
 62
   257
176
     0
 90
        1
176
     0
 90
        1
176
     0
 40
1.0
176
     0
 90
        8
176
     2
 62
     7
176
     0
 40
1.0
176
     0
 90
        1
176
     0
 90
        6
176
     0
 90
        2
176
     0
 62
     7
176
     0
 90
        5
176
     0
 90
        0
176
     0
 90
        0
176
     0
290
     0
176
     0
 90
        1
176
     0
 40
0.0
176
     0
 90
        0
176
     0
290
     0
176
     0
290
     1
176
     0
290
     1
176
     0
290
     0
176
     0
290
     0
176
     0
290
     0
176
     0
290
     0
176
     0
290
     0
176
     0
290
     0
176
     0
 90
       50
176
     0
 40
0.0
176
     0
 40
1.0
176
     0
 90
        0
176
     0
 62
    18
420
        0
176
     0
 90
       50
176
     0
 90
        3
176
     0
 62
     5
420
      255
176
     0
290
     0
176
     0
 90
       50
176
     0
 90
       50
176
     0
 90
       50
176
     0
290
     0
176
     0
 90
       50
176
     0
 62
   256
176
     0
 40
1.0
176
     0
 90
        2
176
     0
  1
strokes_ogs.tif
176
     0
290
     0
176
     0
 40
1.0
176
     0
 40
1.0
176
     0
  0
VISUALSTYLE
  5
39
102
{ACAD_REACTORS
330
2A
102
}
330
2A
100
AcDbVisualStyle
  2
Facepattern
 70
    15
177
     3
291
     1
 70
    58
 90
        2
176
     1
 90
        2
176
     1
 90
        0
176
     1
 90
        0
176
     1
 40
0.6
176
     1
 40
30.0
176
     1
 62
     7
420
 16777215
176
     1
 90
        1
176
     1
 90
        4
176
     1
 62
     7
176
     1
 62
   257
176
     1
 90
        1
176
     1
 90
        1
176
     1
 40
1.0
176
     1
 90
        8
176
     1
 62
     7
176
     1
 40
1.0
176
     1
 90
        1
176
     1
 90
        6
176
     1
 90
        2
176
     1
 62
     7
176
     1
 90
        5
176
     1
 90
        0
176
     1
 90
        0
176
     1
290
     0
176
     1
 90
        1
176
     1
 40
0.0
176
     1
 90
        0
176
     1
290
     0
176
     1
290
     1
176
     1
290
     1
176
     1
290
     0
176
     1
290
     0
176
     1
290
     0
176
     1
290
     0
176
     1
290
     0
176
     1
290
     0
176
     1
 90
       50
176
     1
 40
0.0
176
     1
 40
1.0
176
     1
 90
        0
176
     1
 62
    18
420
        0
176
     1
 90
       50
176
     1
 90
        3
176
     1
 62
     5
420
      255
176
     1
290
     0
176
     1
 90
       50
176
     1
 90
       50
176
     1
 90
       50
176
     1
290
     0
176
     1
 90
       50
176
     1
 62
   256
176
     0
 40
1.0
176
     0
 90
        2
176
     1
  1
strokes_ogs.tif
176
     1
290
     0
176
     1
 40
1.0
176
     1
 40
1.0
176
     1
  0
VISUALSTYLE
  5
2B
102
{ACAD_REACTORS
330
2A
102
}
330
2A
100
AcDbVisualStyle
  2
Flat
 70
     0
177
     3
291
     1
 70
    58
 90
        2
176
     1
 90
        1
176
     1
 90
        1
176
     1
 90
        2
176
     1
 40
0.6
176
     1
 40
30.0
176
     1
 62
     7
420
 16777215
176
     1
 90
        0
176
     1
 90
        0
176
     1
 62
     7
176
     1
 62
   257
176
     1
 90
        1
176
     1
 90
        1
176
     1
 40
1.0
176
     1
 90
        8
176
     1
 62
     7
176
     1
 40
1.0
176
     1
 90
        1
176
     1
 90
        6
176
     1
 90
        2
176
     1
 62
     7
176
     1
 90
        5
176
     1
 90
        0
176
     1
 90
        0
176
     1
290
     0
176
     1
 90
       13
176
     1
 40
0.0
176
     1
 90
        0
176
     1
290
     0
176
     1
290
     1
176
     1
290
     1
176
     1
290
     0
176
     1
290
     0
176
     1
290
     0
176
     1
290
     0
176
     1
290
     0
176
     1
290
     0
176
     1
 90
       50
176
     1
 40
0.0
176
     1
 40
1.0
176
     1
 90
        0
176
     1
 62
    18
420
        0
176
     1
 90
       50
176
     1
 90
        3
176
     1
 62
     5
420
      255
176
     1
290
     0
176
     1
 90
       50
176
     1
 90
       50
176
     1
 90
       50
176
     1
290
     0
176
     1
 90
       50
176
     1
 62
   256
176
     0
 40
1.0
176
     0
 90
        2
176
     1
  1
strokes_ogs.tif
176
     1
290
     0
176
     1
 40
1.0
176
     1
 40
1.0
176
     1
  0
VISUALSTYLE
  5
2C
102
{ACAD_REACTORS
330
2A
102
}
330
2A
100
AcDbVisualStyle
  2
FlatWithEdges
 70
     1
177
     3
291
     1
 70
    58
 90
        2
176
     1
 90
        1
176
     1
 90
        1
176
     1
 90
        2
176
     1
 40
0.6
176
     1
 40
30.0
176
     1
 62
     7
420
 16777215
176
     1
 90
        1
176
     1
 90
        0
176
     1
 62
     7
176
     1
 62
   257
176
     1
 90
        1
176
     1
 90
        1
176
     1
 40
1.0
176
     1
 90
        0
176
     1
 62
   257
176
     1
 40
1.0
176
     1
 90
        1
176
     1
 90
        6
176
     1
 90
        2
176
     1
 62
     7
176
     1
 90
        5
176
     1
 90
        0
176
     1
 90
        0
176
     1
290
     0
176
     1
 90
       13
176
     1
 40
0.0
176
     1
 90
        0
176
     1
290
     0
176
     1
290
     1
176
     1
290
     1
176
     1
290
     0
176
     1
290
     0
176
     1
290
     0
176
     1
290
     0
176
     1
290
     0
176
     1
290
     0
176
     1
 90
       50
176
     1
 40
0.0
176
     1
 40
1.0
176
     1
 90
        0
176
     1
 62
    18
420
        0
176
     1
 90
       50
176
     1
 90
        3
176
     1
 62
     5
420
      255
176
     1
290
     0
176
     1
 90
       50
176
     1
 90
       50
176
     1
 90
       50
176
     1
290
     0
176
     1
 90
       50
176
     1
 62
   256
176
     0
 40
1.0
176
     0
 90
        2
176
     1
  1
strokes_ogs.tif
176
     1
290
     0
176
     1
 40
1.0
176
     1
 40
1.0
176
     1
  0
VISUALSTYLE
  5
2D
102
{ACAD_REACTORS
330
2A
102
}
330
2A
100
AcDbVisualStyle
  2
Gouraud
 70
     2
177
     3
291
     1
 70
    58
 90
        2
176
     1
 90
        2
176
     1
 90
        1
176
     1
 90
        2
176
     1
 40
0.6
176
     1
 40
30.0
176
     1
 62
     7
420
 16777215
176
     1
 90
        0
176
     1
 90
        0
176
     1
 62
     7
176
     1
 62
   257
176
     1
 90
        1
176
     1
 90
        1
176
     1
 40
1.0
176
     1
 90
        0
176
     1
 62
     7
176
     1
 40
1.0
176
     1
 90
        1
176
     1
 90
        6
176
     1
 90
        2
176
     1
 62
     7
176
     1
 90
        5
176
     1
 90
        0
176
     1
 90
        0
176
     1
290
     0
176
     1
 90
       13
176
     1
 40
0.0
176
     1
 90
        0
176
     1
290
     0
176
     1
290
     1
176
     1
290
     1
176
     1
290
     0
176
     1
290
     0
176
     1
290
     0
176
     1
290
     0
176
     1
290
     0
176
     1
290
     0
176
     1
 90
       50
176
     1
 40
0.0
176
     1
 40
1.0
176
     1
 90
        0
176
     1
 62
    18
420
        0
176
     1
 90
       50
176
     1
 90
        3
176
     1
 62
     5
420
      255
176
     1
290
     0
176
     1
 90
       50
176
     1
 90
       50
176
     1
 90
       50
176
     1
290
     0
176
     1
 90
       50
176
     1
 62
   256
176
     0
 40
1.0
176
     0
 90
        2
176
     1
  1
strokes_ogs.tif
176
     1
290
     0
176
     1
 40
1.0
176
     1
 40
1.0
176
     1
  0
VISUALSTYLE
  5
2E
102
{ACAD_REACTORS
330
2A
102
}
330
2A
100
AcDbVisualStyle
  2
GouraudWithEdges
 70
     3
177
     3
291
     1
 70
    58
 90
        2
176
     1
 90
        2
176
     1
 90
        1
176
     1
 90
        2
176
     1
 40
0.6
176
     1
 40
30.0
176
     1
 62
     7
420
 16777215
176
     1
 90
        1
176
     1
 90
        0
176
     1
 62
     7
176
     1
 62
   257
176
     1
 90
        1
176
     1
 90
        1
176
     1
 40
1.0
176
     1
 90
        0
176
     1
 62
   257
176
     1
 40
1.0
176
     1
 90
        1
176
     1
 90
        6
176
     1
 90
        2
176
     1
 62
     7
176
     1
 90
        5
176
     1
 90
        0
176
     1
 90
        0
176
     1
290
     0
176
     1
 90
       13
176
     1
 40
0.0
176
     1
 90
        0
176
     1
290
     0
176
     1
290
     1
176
     1
290
     1
176
     1
290
     0
176
     1
290
     0
176
     1
290
     0
176
     1
290
     0
176
     1
290
     0
176
     1
290
     0
176
     1
 90
       50
176
     1
 40
0.0
176
     1
 40
1.0
176
     1
 90
        0
176
     1
 62
    18
420
        0
176
     1
 90
       50
176
     1
 90
        3
176
     1
 62
     5
420
      255
176
     1
290
     0
176
     1
 90
       50
176
     1
 90
       50
176
     1
 90
       50
176
     1
290
     0
176
     1
 90
       50
176
     1
 62
   256
176
     0
 40
1.0
176
     0
 90
        2
176
     1
  1
strokes_ogs.tif
176
     1
290
     0
176
     1
 40
1.0
176
     1
 40
1.0
176
     1
  0
VISUALSTYLE
  5
31
102
{ACAD_REACTORS
330
2A
102
}
330
2A
100
AcDbVisualStyle
  2
Hidden
 70
     6
177
     3
291
     0
 70
    58
 90
        1
176
     1
 90
        2
176
     1
 90
        2
176
     1
 90
        0
176
     1
 40
0.6
176
     1
 40
30.0
176
     1
 62
     7
420
 16777215
176
     1
 90
        2
176
     1
 90
        2
176
     1
 62
     7
176
     1
 62
   257
176
     1
 90
        2
176
     1
 90
        1
176
     1
 40
40.0
176
     1
 90
        0
176
     1
 62
   257
176
     1
 40
1.0
176
     1
 90
        1
176
     1
 90
        6
176
     1
 90
        2
176
     1
 62
     7
176
     1
 90
        3
176
     1
 90
        0
176
     1
 90
        0
176
     1
290
     0
176
     1
 90
        1
176
     1
 40
0.0
176
     1
 90
        0
176
     1
290
     0
176
     1
290
     1
176
     1
290
     1
176
     1
290
     0
176
     1
290
     0
176
     1
290
     0
176
     1
290
     0
176
     1
290
     0
176
     1
290
     0
176
     1
 90
       50
176
     1
 40
0.0
176
     1
 40
1.0
176
     1
 90
        0
176
     1
 62
    18
420
        0
176
     1
 90
       50
176
     1
 90
        3
176
     1
 62
     5
420
      255
176
     1
290
     0
176
     1
 90
       50
176
     1
 90
       50
176
     1
 90
       50
176
     1
290
     0
176
     1
 90
       50
176
     1
 62
   256
176
     0
 40
1.0
176
     0
 90
        2
176
     1
  1
strokes_ogs.tif
176
     1
290
     0
176
     1
 40
1.0
176
     1
 40
1.0
176
     1
  0
VISUALSTYLE
  5
3B
102
{ACAD_REACTORS
330
2A
102
}
330
2A
100
AcDbVisualStyle
  2
JitterOff
 70
    20
177
     3
291
     1
 70
    58
 90
        2
176
     0
 90
        2
176
     0
 90
        0
176
     0
 90
        0
176
     0
 40
0.6
176
     0
 40
30.0
176
     0
 62
     7
420
 16777215
176
     0
 90
        1
176
     0
 90
        4
176
     0
 62
     7
176
     0
 62
   257
176
     0
 90
        1
176
     0
 90
        1
176
     0
 40
1.0
176
     0
 90
       10
176
     2
 62
     7
176
     0
 40
1.0
176
     0
 90
        1
176
     0
 90
        6
176
     0
 90
        2
176
     0
 62
     7
176
     0
 90
        5
176
     0
 90
        0
176
     0
 90
        0
176
     0
290
     0
176
     0
 90
        1
176
     0
 40
0.0
176
     0
 90
        0
176
     0
290
     0
176
     0
290
     1
176
     0
290
     1
176
     0
290
     0
176
     0
290
     0
176
     0
290
     0
176
     0
290
     0
176
     0
290
     0
176
     0
290
     0
176
     0
 90
       50
176
     0
 40
0.0
176
     0
 40
1.0
176
     0
 90
        0
176
     0
 62
    18
420
        0
176
     0
 90
       50
176
     0
 90
        3
176
     0
 62
     5
420
      255
176
     0
290
     0
176
     0
 90
       50
176
     0
 90
       50
176
     0
 90
       50
176
     0
290
     0
176
     0
 90
       50
176
     0
 62
   256
176
     0
 40
1.0
176
     0
 90
        2
176
     0
  1
strokes_ogs.tif
176
     0
290
     0
176
     0
 40
1.0
176
     0
 40
1.0
176
     0
  0
VISUALSTYLE
  5
38
102
{ACAD_REACTORS
330
2A
102
}
330
2A
100
AcDbVisualStyle
  2
Linepattern
 70
    14
177
     3
291
     1
 70
    58
 90
        2
176
     1
 90
        2
176
     1
 90
        0
176
     1
 90
        0
176
     1
 40
0.6
176
     1
 40
30.0
176
     1
 62
     7
420
 16777215
176
     1
 90
        1
176
     1
 90
        4
176
     1
 62
     7
176
     1
 62
   257
176
     1
 90
        7
176
     1
 90
        7
176
     1
 40
1.0
176
     1
 90
        8
176
     1
 62
     7
176
     1
 40
1.0
176
     1
 90
        1
176
     1
 90
        6
176
     1
 90
        2
176
     1
 62
     7
176
     1
 90
        5
176
     1
 90
        0
176
     1
 90
        0
176
     1
290
     0
176
     1
 90
        1
176
     1
 40
0.0
176
     1
 90
        0
176
     1
290
     0
176
     1
290
     1
176
     1
290
     1
176
     1
290
     0
176
     1
290
     0
176
     1
290
     0
176
     1
290
     0
176
     1
290
     0
176
     1
290
     0
176
     1
 90
       50
176
     1
 40
0.0
176
     1
 40
1.0
176
     1
 90
        0
176
     1
 62
    18
420
        0
176
     1
 90
       50
176
     1
 90
        3
176
     1
 62
     5
420
      255
176
     1
290
     0
176
     1
 90
       50
176
     1
 90
       50
176
     1
 90
       50
176
     1
290
     0
176
     1
 90
       50
176
     1
 62
   256
176
     0
 40
1.0
176
     0
 90
        2
176
     1
  1
strokes_ogs.tif
176
     1
290
     0
176
     1
 40
1.0
176
     1
 40
1.0
176
     1
  0
VISUALSTYLE
  5
3C
102
{ACAD_REACTORS
330
2A
102
}
330
2A
100
AcDbVisualStyle
  2
OverhangOff
 70
    21
177
     3
291
     1
 70
    58
 90
        2
176
     0
 90
        2
176
     0
 90
        0
176
     0
 90
        0
176
     0
 40
0.6
176
     0
 40
30.0
176
     0
 62
     7
420
 16777215
176
     0
 90
        1
176
     0
 90
        4
176
     0
 62
     7
176
     0
 62
   257
176
     0
 90
        1
176
     0
 90
        1
176
     0
 40
1.0
176
     0
 90
        9
176
     2
 62
     7
176
     0
 40
1.0
176
     0
 90
        1
176
     0
 90
        6
176
     0
 90
        2
176
     0
 62
     7
176
     0
 90
        5
176
     0
 90
        0
176
     0
 90
        0
176
     0
290
     0
176
     0
 90
        1
176
     0
 40
0.0
176
     0
 90
        0
176
     0
290
     0
176
     0
290
     1
176
     0
290
     1
176
     0
290
     0
176
     0
290
     0
176
     0
290
     0
176
     0
290
     0
176
     0
290
     0
176
     0
290
     0
176
     0
 90
       50
176
     0
 40
0.0
176
     0
 40
1.0
176
     0
 90
        0
176
     0
 62
    18
420
        0
176
     0
 90
       50
176
     0
 90
        3
176
     0
 62
     5
420
      255
176
     0
290
     0
176
     0
 90
       50
176
     0
 90
       50
176
     0
 90
       50
176
     0
290
     0
176
     0
 90
       50
176
     0
 62
   256
176
     0
 40
1.0
176
     0
 90
        2
176
     0
  1
strokes_ogs.tif
176
     0
290
     0
176
     0
 40
1.0
176
     0
 40
1.0
176
     0
  0
VISUALSTYLE
  5
33
102
{ACAD_REACTORS
330
2A
102
}
330
2A
100
AcDbVisualStyle
  2
Realistic
 70
     8
177
     3
291
     0
 70
    58
 90
        2
176
     1
 90
        3
176
     1
 90
        0
176
     1
 90
        2
176
     1
 40
0.6
176
     1
 40
30.0
176
     1
 62
     7
420
 16777215
176
     1
 90
        0
176
     1
 90
        0
176
     1
 62
     7
176
     1
 62
   257
176
     1
 90
        1
176
     1
 90
        1
176
     1
 40
1.0
176
     1
 90
        8
176
     1
 62
   257
176
     1
 40
1.0
176
     1
 90
        1
176
     1
 90
        6
176
     1
 90
        2
176
     1
 62
     7
176
     1
 90
        3
176
     1
 90
        0
176
     1
 90
        0
176
     1
290
     0
176
     1
 90
       13
176
     1
 40
0.0
176
     1
 90
        0
176
     1
290
     0
176
     1
290
     1
176
     1
290
     1
176
     1
290
     0
176
     1
290
     0
176
     1
290
     0
176
     1
290
     0
176
     1
290
     0
176
     1
290
     0
176
     1
 90
       50
176
     1
 40
0.0
176
     1
 40
1.0
176
     1
 90
        0
176
     1
 62
    18
420
        0
176
     1
 90
       50
176
     1
 90
        3
176
     1
 62
     5
420
      255
176
     1
290
     0
176
     1
 90
       50
176
     1
 90
       50
176
     1
 90
       50
176
     1
290
     0
176
     1
 90
       50
176
     1
 62
   256
176
     0
 40
1.0
176
     0
 90
        2
176
     1
  1
strokes_ogs.tif
176
     1
290
     0
176
     1
 40
1.0
176
     1
 40
1.0
176
     1
  0
VISUALSTYLE
  5
42
102
{ACAD_REACTORS
330
2A
102
}
330
2A
100
AcDbVisualStyle
  2
Shaded
 70
    27
177
     3
291
     0
 70
    58
 90
        2
176
     1
 90
        2
176
     1
 90
        1
176
     1
 90
        2
176
     1
 40
0.6
176
     1
 40
30.0
176
     1
 62
     7
420
 16777215
176
     1
 90
        0
176
     1
 90
        4
176
     1
 62
     7
176
     1
 62
   257
176
     1
 90
        1
176
     1
 90
        1
176
     1
 40
1.0
176
     1
 90
        8
176
     1
 62
   257
176
     1
 40
1.0
176
     1
 90
        1
176
     1
 90
        6
176
     1
 90
        2
176
     1
 62
     8
420
  7895160
176
     1
 90
        3
176
     1
 90
        0
176
     1
 90
        0
176
     1
290
     0
176
     1
 90
        5
176
     1
 40
0.0
176
     1
 90
        0
176
     1
290
     0
176
     1
290
     1
176
     1
290
     1
176
     1
290
     0
176
     1
290
     0
176
     1
290
     0
176
     1
290
     0
176
     1
290
     0
176
     1
290
     0
176
     1
 90
       50
176
     1
 40
0.0
176
     1
 40
1.0
176
     1
 90
        0
176
     1
 62
    18
420
        0
176
     1
 90
       50
176
     1
 90
        3
176
     1
 62
     5
420
      255
176
     1
290
     0
176
     1
 90
       50
176
     1
 90
       50
176
     1
 90
       50
176
     1
290
     0
176
     1
 90
       50
176
     1
 62
   256
176
     0
 40
1.0
176
     0
 90
        2
176
     1
  1
strokes_ogs.tif
176
     1
290
     0
176
     1
 40
1.0
176
     1
 40
1.0
176
     1
  0
VISUALSTYLE
  5
41
102
{ACAD_REACTORS
330
2A
102
}
330
2A
100
AcDbVisualStyle
  2
Shaded with edges
 70
    26
177
     3
291
     0
 70
    58
 90
        2
176
     1
 90
        2
176
     1
 90
        1
176
     1
 90
        2
176
     1
 40
0.6
176
     1
 40
30.0
176
     1
 62
     7
420
 16777215
176
     1
 90
        1
176
     1
 90
       10
176
     1
 62
     7
176
     1
 62
   257
176
     1
 90
        2
176
     1
 90
        1
176
     1
 40
1.0
176
     1
 90
        8
176
     1
 62
   257
176
     1
 40
1.0
176
     1
 90
        1
176
     1
 90
        6
176
     1
 90
        2
176
     1
 62
     7
176
     1
 90
        3
176
     1
 90
        0
176
     1
 90
        0
176
     1
290
     0
176
     1
 90
        5
176
     1
 40
0.0
176
     1
 90
        0
176
     1
290
     0
176
     1
290
     1
176
     1
290
     1
176
     1
290
     0
176
     1
290
     0
176
     1
290
     0
176
     1
290
     0
176
     1
290
     0
176
     1
290
     0
176
     1
 90
       50
176
     1
 40
0.0
176
     1
 40
1.0
176
     1
 90
        0
176
     1
 62
    18
420
        0
176
     1
 90
       50
176
     1
 90
        3
176
     1
 62
     5
420
      255
176
     1
290
     0
176
     1
 90
       50
176
     1
 90
       50
176
     1
 90
       50
176
     1
290
     0
176
     1
 90
       50
176
     1
 62
   256
176
     0
 40
1.0
176
     0
 90
        2
176
     1
  1
strokes_ogs.tif
176
     1
290
     0
176
     1
 40
1.0
176
     1
 40
1.0
176
     1
  0
VISUALSTYLE
  5
3E
102
{ACAD_REACTORS
330
2A
102
}
330
2A
100
AcDbVisualStyle
  2
Shades of Gray
 70
    23
177
     3
291
     0
 70
    58
 90
        2
176
     1
 90
        2
176
     1
 90
        3
176
     1
 90
        0
176
     1
 40
0.6
176
     1
 40
30.0
176
     1
 62
     7
420
 16777215
176
     1
 90
        2
176
     1
 90
        2
176
     1
 62
     7
176
     1
 62
     7
176
     1
 90
        1
176
     1
 90
        1
176
     1
 40
40.0
176
     1
 90
        8
176
     1
 62
     7
176
     1
 40
1.0
176
     1
 90
        1
176
     1
 90
        6
176
     1
 90
        2
176
     1
 62
     7
176
     1
 90
        3
176
     1
 90
        0
176
     1
 90
        0
176
     1
290
     0
176
     1
 90
        1
176
     1
 40
0.0
176
     1
 90
        0
176
     1
290
     0
176
     1
290
     1
176
     1
290
     1
176
     1
290
     0
176
     1
290
     0
176
     1
290
     0
176
     1
290
     0
176
     1
290
     0
176
     1
290
     0
176
     1
 90
       50
176
     1
 40
0.0
176
     1
 40
1.0
176
     1
 90
        0
176
     1
 62
    18
420
        0
176
     1
 90
       50
176
     1
 90
        3
176
     1
 62
     5
420
      255
176
     1
290
     0
176
     1
 90
       50
176
     1
 90
       50
176
     1
 90
       50
176
     1
290
     0
176
     1
 90
       50
176
     1
 62
   256
176
     0
 40
1.0
176
     0
 90
        2
176
     1
  1
strokes_ogs.tif
176
     1
290
     0
176
     1
 40
1.0
176
     1
 40
1.0
176
     1
  0
VISUALSTYLE
  5
3F
102
{ACAD_REACTORS
330
2A
102
}
330
2A
100
AcDbVisualStyle
  2
Sketchy
 70
    24
177
     3
291
     0
 70
    58
 90
        1
176
     1
 90
        2
176
     1
 90
        2
176
     1
 90
        0
176
     1
 40
0.6
176
     1
 40
30.0
176
     1
 62
     7
420
 16777215
176
     1
 90
        2
176
     1
 90
        2
176
     1
 62
     7
176
     1
 62
     7
176
     1
 90
        1
176
     1
 90
        1
176
     1
 40
40.0
176
     1
 90
       11
176
     1
 62
     7
176
     1
 40
1.0
176
     1
 90
        1
176
     1
 90
        6
176
     1
 90
        2
176
     1
 62
     7
176
     1
 90
        6
176
     1
 90
        0
176
     1
 90
        0
176
     1
290
     0
176
     1
 90
        1
176
     1
 40
0.0
176
     1
 90
        0
176
     1
290
     0
176
     1
290
     1
176
     1
290
     1
176
     1
290
     0
176
     1
290
     0
176
     1
290
     0
176
     1
290
     0
176
     1
290
     0
176
     1
290
     0
176
     1
 90
       50
176
     1
 40
0.0
176
     1
 40
1.0
176
     1
 90
        0
176
     1
 62
    18
420
        0
176
     1
 90
       50
176
     1
 90
        3
176
     1
 62
     5
420
      255
176
     1
290
     0
176
     1
 90
       50
176
     1
 90
       50
176
     1
 90
       50
176
     1
290
     0
176
     1
 90
       50
176
     1
 62
   256
176
     0
 40
1.0
176
     0
 90
        2
176
     1
  1
strokes_ogs.tif
176
     1
290
     0
176
     1
 40
1.0
176
     1
 40
1.0
176
     1
  0
VISUALSTYLE
  5
37
102
{ACAD_REACTORS
330
2A
102
}
330
2A
100
AcDbVisualStyle
  2
Thicken
 70
    13
177
     3
291
     1
 70
    58
 90
        2
176
     1
 90
        2
176
     1
 90
        0
176
     1
 90
        0
176
     1
 40
0.6
176
     1
 40
30.0
176
     1
 62
     7
420
 16777215
176
     1
 90
        1
176
     1
 90
        4
176
     1
 62
     7
176
     1
 62
   257
176
     1
 90
        1
176
     1
 90
        1
176
     1
 40
1.0
176
     1
 90
       12
176
     1
 62
     7
176
     1
 40
1.0
176
     1
 90
        1
176
     1
 90
        6
176
     1
 90
        2
176
     1
 62
     7
176
     1
 90
        5
176
     1
 90
        0
176
     1
 90
        0
176
     1
290
     0
176
     1
 90
        1
176
     1
 40
0.0
176
     1
 90
        0
176
     1
290
     0
176
     1
290
     1
176
     1
290
     1
176
     1
290
     0
176
     1
290
     0
176
     1
290
     0
176
     1
290
     0
176
     1
290
     0
176
     1
290
     0
176
     1
 90
       50
176
     1
 40
0.0
176
     1
 40
1.0
176
     1
 90
        0
176
     1
 62
    18
420
        0
176
     1
 90
       50
176
     1
 90
        3
176
     1
 62
     5
420
      255
176
     1
290
     0
176
     1
 90
       50
176
     1
 90
       50
176
     1
 90
       50
176
     1
290
     0
176
     1
 90
       50
176
     1
 62
   256
176
     0
 40
1.0
176
     0
 90
        2
176
     1
  1
strokes_ogs.tif
176
     1
290
     0
176
     1
 40
1.0
176
     1
 40
1.0
176
     1
  0
VISUALSTYLE
  5
30
102
{ACAD_REACTORS
330
2A
102
}
330
2A
100
AcDbVisualStyle
  2
Wireframe
 70
     5
177
     3
291
     0
 70
    58
 90
        0
176
     1
 90
        2
176
     1
 90
        0
176
     1
 90
        0
176
     1
 40
0.6
176
     1
 40
30.0
176
     1
 62
     7
420
 16777215
176
     1
 90
        1
176
     1
 90
        4
176
     1
 62
     7
176
     1
 62
   257
176
     1
 90
        1
176
     1
 90
        1
176
     1
 40
1.0
176
     1
 90
        0
176
     1
 62
   257
176
     1
 40
1.0
176
     1
 90
        1
176
     1
 90
        6
176
     1
 90
        2
176
     1
 62
     7
176
     1
 90
        3
176
     1
 90
        0
176
     1
 90
        0
176
     1
290
     0
176
     1
 90
        1
176
     1
 40
0.0
176
     1
 90
        0
176
     1
290
     0
176
     1
290
     1
176
     1
290
     1
176
     1
290
     0
176
     1
290
     0
176
     1
290
     0
176
     1
290
     0
176
     1
290
     0
176
     1
290
     0
176
     1
 90
       50
176
     1
 40
0.0
176
     1
 40
1.0
176
     1
 90
        0
176
     1
 62
    18
420
        0
176
     1
 90
       50
176
     1
 90
        3
176
     1
 62
     5
420
      255
176
     1
290
     0
176
     1
 90
       50
176
     1
 90
       50
176
     1
 90
       50
176
     1
290
     0
176
     1
 90
       50
176
     1
 62
   256
176
     0
 40
1.0
176
     0
 90
        2
176
     1
  1
strokes_ogs.tif
176
     1
290
     0
176
     1
 40
1.0
176
     1
 40
1.0
176
     1
  0
VISUALSTYLE
  5
40
102
{ACAD_REACTORS
330
2A
102
}
330
2A
100
AcDbVisualStyle
  2
X-Ray
 70
    25
177
     3
291
     0
 70
    58
 90
        2
176
     1
 90
        2
176
     1
 90
        1
176
     1
 90
        1
176
     1
 40
0.5
176
     1
 40
30.0
176
     1
 62
     7
420
 16777215
176
     1
 90
        1
176
     1
 90
        0
176
     1
 62
     7
176
     1
 62
   257
176
     1
 90
        1
176
     1
 90
        1
176
     1
 40
1.0
176
     1
 90
        8
176
     1
 62
     7
176
     1
 40
1.0
176
     1
 90
        1
176
     1
 90
        6
176
     1
 90
        2
176
     1
 62
     7
176
     1
 90
        3
176
     1
 90
        0
176
     1
 90
        0
176
     1
290
     0
176
     1
 90
       13
176
     1
 40
0.0
176
     1
 90
        0
176
     1
290
     0
176
     1
290
     1
176
     1
290
     1
176
     1
290
     0
176
     1
290
     0
176
     1
290
     0
176
     1
290
     0
176
     1
290
     0
176
     1
290
     0
176
     1
 90
       50
176
     1
 40
0.0
176
     1
 40
1.0
176
     1
 90
        0
176
     1
 62
    18
420
        0
176
     1
 90
       50
176
     1
 90
        3
176
     1
 62
     5
420
      255
176
     1
290
     0
176
     1
 90
       50
176
     1
 90
       50
176
     1
 90
       50
176
     1
290
     0
176
     1
 90
       50
176
     1
 62
   256
176
     0
 40
1.0
176
     0
 90
        2
176
     1
  1
strokes_ogs.tif
176
     1
290
     0
176
     1
 40
1.0
176
     1
 40
1.0
176
     1
  0
DICTIONARYVAR
  5
1EC
102
{ACAD_REACTORS
330
1EB
102
}
330
1EB
100
DictionaryVariables
280
     0
  1
1:1
  0
DICTIONARYVAR
  5
1F4
102
{ACAD_REACTORS
330
1EB
102
}
330
1EB
100
DictionaryVariables
280
     0
  1
3.500000
  0
DICTIONARYVAR
  5
1F5
102
{ACAD_REACTORS
330
1EB
102
}
330
1EB
100
DictionaryVariables
280
     0
  1
acadiso.lin
  0
DICTIONARYVAR
  5
1F1
102
{ACAD_REACTORS
330
1EB
102
}
330
1EB
100
DictionaryVariables
280
     0
  1
Standard
  0
DICTIONARYVAR
  5
1F0
102
{ACAD_REACTORS
330
1EB
102
}
330
1EB
100
DictionaryVariables
280
     0
  1
Standard
  0
DICTIONARY
  5
1ED
330
5A
100
AcDbDictionary
280
     1
281
     1
  3
ACAD_ROUNDTRIP_2008_TABLESTYLE_CELLSTYLEMAP
360
1EE
  0
CELLSTYLEMAP
  5
1EE
102
{ACAD_REACTORS
330
1ED
102
}
330
1ED
100
AcDbCellStyleMap
 90
        3
300
CELLSTYLE
  1
TABLEFORMAT_BEGIN
 90
        5
170
     1
 91
        0
 92
    32768
 62
   257
 93
        1
300
CONTENTFORMAT
  1
CONTENTFORMAT_BEGIN
 90
        0
 91
        0
 92
        4
 93
        0
300

 40
0.0
140
1.0
 94
        5
 62
     0
340
11
144
6.0
309
CONTENTFORMAT_END
171
     1
301
MARGIN
  1
CELLMARGIN_BEGIN
 40
1.5
 40
1.5
 40
1.5
 40
1.5
 40
1.5
 40
1.5
309
CELLMARGIN_END
 94
        6
 95
        1
302
GRIDFORMAT
  1
GRIDFORMAT_BEGIN
 90
        0
 91
        1
 62
     0
 92
       -2
340
14
 93
        0
 40
0.045
309
GRIDFORMAT_END
 95
        2
302
GRIDFORMAT
  1
GRIDFORMAT_BEGIN
 90
        0
 91
        1
 62
     0
 92
       -2
340
14
 93
        0
 40
0.045
309
GRIDFORMAT_END
 95
        4
302
GRIDFORMAT
  1
GRIDFORMAT_BEGIN
 90
        0
 91
        1
 62
     0
 92
       -2
340
14
 93
        0
 40
0.045
309
GRIDFORMAT_END
 95
        8
302
GRIDFORMAT
  1
GRIDFORMAT_BEGIN
 90
        0
 91
        1
 62
     0
 92
       -2
340
14
 93
        0
 40
0.045
309
GRIDFORMAT_END
 95
       16
302
GRIDFORMAT
  1
GRIDFORMAT_BEGIN
 90
        0
 91
        1
 62
     0
 92
       -2
340
14
 93
        0
 40
0.045
309
GRIDFORMAT_END
 95
       32
302
GRIDFORMAT
  1
GRIDFORMAT_BEGIN
 90
        0
 91
        1
 62
     0
 92
       -2
340
14
 93
        0
 40
0.045
309
GRIDFORMAT_END
309
TABLEFORMAT_END
  1
CELLSTYLE_BEGIN
 90
        1
 91
        1
300
_TITLE
309
CELLSTYLE_END
300
CELLSTYLE
  1
TABLEFORMAT_BEGIN
 90
        5
170
     1
 91
        0
 92
        0
 62
   257
 93
        1
300
CONTENTFORMAT
  1
CONTENTFORMAT_BEGIN
 90
        0
 91
        0
 92
        4
 93
        0
300

 40
0.0
140
1.0
 94
        5
 62
     0
340
11
144
4.5
309
CONTENTFORMAT_END
171
     1
301
MARGIN
  1
CELLMARGIN_BEGIN
 40
1.5
 40
1.5
 40
1.5
 40
1.5
 40
1.5
 40
1.5
309
CELLMARGIN_END
 94
        6
 95
        1
302
GRIDFORMAT
  1
GRIDFORMAT_BEGIN
 90
        0
 91
        1
 62
     0
 92
       -2
340
14
 93
        0
 40
0.045
309
GRIDFORMAT_END
 95
        2
302
GRIDFORMAT
  1
GRIDFORMAT_BEGIN
 90
        0
 91
        1
 62
     0
 92
       -2
340
14
 93
        0
 40
0.045
309
GRIDFORMAT_END
 95
        4
302
GRIDFORMAT
  1
GRIDFORMAT_BEGIN
 90
        0
 91
        1
 62
     0
 92
       -2
340
14
 93
        0
 40
0.045
309
GRIDFORMAT_END
 95
        8
302
GRIDFORMAT
  1
GRIDFORMAT_BEGIN
 90
        0
 91
        1
 62
     0
 92
       -2
340
14
 93
        0
 40
0.045
309
GRIDFORMAT_END
 95
       16
302
GRIDFORMAT
  1
GRIDFORMAT_BEGIN
 90
        0
 91
        1
 62
     0
 92
       -2
340
14
 93
        0
 40
0.045
309
GRIDFORMAT_END
 95
       32
302
GRIDFORMAT
  1
GRIDFORMAT_BEGIN
 90
        0
 91
        1
 62
     0
 92
       -2
340
14
 93
        0
 40
0.045
309
GRIDFORMAT_END
309
TABLEFORMAT_END
  1
CELLSTYLE_BEGIN
 90
        2
 91
        1
300
_HEADER
309
CELLSTYLE_END
300
CELLSTYLE
  1
TABLEFORMAT_BEGIN
 90
        5
170
     1
 91
        0
 92
        0
 62
   257
 93
        1
300
CONTENTFORMAT
  1
CONTENTFORMAT_BEGIN
 90
        0
 91
        0
 92
        4
 93
        0
300

 40
0.0
140
1.0
 94
        2
 62
     0
340
11
144
4.5
309
CONTENTFORMAT_END
171
     1
301
MARGIN
  1
CELLMARGIN_BEGIN
 40
1.5
 40
1.5
 40
1.5
 40
1.5
 40
1.5
 40
1.5
309
CELLMARGIN_END
 94
        6
 95
        1
302
GRIDFORMAT
  1
GRIDFORMAT_BEGIN
 90
        0
 91
        1
 62
     0
 92
       -2
340
14
 93
        0
 40
0.045
309
GRIDFORMAT_END
 95
        2
302
GRIDFORMAT
  1
GRIDFORMAT_BEGIN
 90
        0
 91
        1
 62
     0
 92
       -2
340
14
 93
        0
 40
0.045
309
GRIDFORMAT_END
 95
        4
302
GRIDFORMAT
  1
GRIDFORMAT_BEGIN
 90
        0
 91
        1
 62
     0
 92
       -2
340
14
 93
        0
 40
0.045
309
GRIDFORMAT_END
 95
        8
302
GRIDFORMAT
  1
GRIDFORMAT_BEGIN
 90
        0
 91
        1
 62
     0
 92
       -2
340
14
 93
        0
 40
0.045
309
GRIDFORMAT_END
 95
       16
302
GRIDFORMAT
  1
GRIDFORMAT_BEGIN
 90
        0
 91
        1
 62
     0
 92
       -2
340
14
 93
        0
 40
0.045
309
GRIDFORMAT_END
 95
       32
302
GRIDFORMAT
  1
GRIDFORMAT_BEGIN
 90
        0
 91
        1
 62
     0
 92
       -2
340
14
 93
        0
 40
0.045
309
GRIDFORMAT_END
309
TABLEFORMAT_END
  1
CELLSTYLE_BEGIN
 90
        3
 91
        2
300
_DATA
309
CELLSTYLE_END
  0
ENDSEC
  0
EOF
