  0
SECTION
  2
HEADER
  9
$ACADVER
  1
AC1027
  9
$ACADMAINTVER
 70
   105
  9
$DWGCODEPAGE
  3
ANSI_1252
  9
$COMMENTS
  1
File was created by Cadenas
  9
$LASTSAVEDBY
  1
psService
  9
$CUSTOMPROPERTYTAG
  1
NB
  9
$CUSTOMPROPERTY
  1
FCA30AAVJU-BYCQ54GEFU
  9
$CUSTOMPROPERTYTAG
  1
NN
  9
$CUSTOMPROPERTY
  1
(R32) Cassette Sky-Air Daikin FCA
  9
$CUSTOMPROPERTYTAG
  1
NT
  9
$CUSTOMPROPERTY
  1

  9
$CUSTOMPROPERTYTAG
  1
NBSYN
  9
$CUSTOMPROPERTY
  1
$PARTNUMBER.
  9
$CUSTOMPROPERTYTAG
  1
LINA
  9
$CUSTOMPROPERTY
  1
FCA30AAVJU-BYCQ54GEFU
  9
$CUSTOMPROPERTYTAG
  1
CATALOG
  9
$CUSTOMPROPERTY
  1
Daikin
  9
$CUSTOMPROPERTYTAG
  1
PARTNUMBER
  9
$CUSTOMPROPERTY
  1
FCA30AAVJU-BYCQ54GEFU
  9
$CUSTOMPROPERTYTAG
  1
DESCRIPTION
  9
$CUSTOMPROPERTY
  1
Air Conditioner Ducted Round Flow Cassette
  9
$CUSTOMPROPERTYTAG
  1
OVERALL_DEPTH
  9
$CUSTOMPROPERTY
  1
33.0625
  9
$CUSTOMPROPERTYTAG
  1
OVERALL_HEIGHT
  9
$CUSTOMPROPERTY
  1
11.3438
  9
$CUSTOMPROPERTYTAG
  1
OVERALL_WIDTH
  9
$CUSTOMPROPERTY
  1
33.0625
  9
$CUSTOMPROPERTYTAG
  1
URL
  9
$CUSTOMPROPERTY
  1
https://daikincomfort.com/
  9
$CUSTOMPROPERTYTAG
  1
RFA_FAMILY
  9
$CUSTOMPROPERTY
  1
Download Revit Family (RFA)
  9
$CUSTOMPROPERTYTAG
  1
COMPANY
  9
$CUSTOMPROPERTY
  1
daikin
  9
$REQUIREDVERSIONS
160
                 0
  9
$INSBASE
 10
0.0
 20
0.0
 30
0.0
  9
$EXTMIN
 10
-474.662503518672
 20
-474.6625038084816
 30
0.0
  9
$EXTMAX
 10
486.5794524516766
 20
475.1679275359912
 30
0.0
  9
$LIMMIN
 10
0.0
 20
0.0
  9
$LIMMAX
 10
420.0
 20
297.0
  9
$ORTHOMODE
 70
     0
  9
$REGENMODE
 70
     1
  9
$FILLMODE
 70
     1
  9
$QTEXTMODE
 70
     0
  9
$MIRRTEXT
 70
     1
  9
$LTSCALE
 40
1.0
  9
$ATTMODE
 70
     1
  9
$TEXTSIZE
 40
2.5
  9
$TRACEWID
 40
1.0
  9
$TEXTSTYLE
  7
Standard
  9
$CLAYER
  8
0
  9
$CELTYPE
  6
ByLayer
  9
$CECOLOR
 62
   256
  9
$CELTSCALE
 40
1.0
  9
$DISPSILH
 70
     0
  9
$DIMSCALE
 40
1.0
  9
$DIMASZ
 40
2.5
  9
$DIMEXO
 40
0.625
  9
$DIMDLI
 40
3.75
  9
$DIMRND
 40
0.0
  9
$DIMDLE
 40
0.0
  9
$DIMEXE
 40
1.25
  9
$DIMTP
 40
0.0
  9
$DIMTM
 40
0.0
  9
$DIMTXT
 40
2.5
  9
$DIMCEN
 40
2.5
  9
$DIMTSZ
 40
0.0
  9
$DIMTOL
 70
     0
  9
$DIMLIM
 70
     0
  9
$DIMTIH
 70
     0
  9
$DIMTOH
 70
     0
  9
$DIMSE1
 70
     0
  9
$DIMSE2
 70
     0
  9
$DIMTAD
 70
     1
  9
$DIMZIN
 70
     8
  9
$DIMBLK
  1

  9
$DIMASO
 70
     1
  9
$DIMSHO
 70
     1
  9
$DIMPOST
  1

  9
$DIMAPOST
  1

  9
$DIMALT
 70
     0
  9
$DIMALTD
 70
     3
  9
$DIMALTF
 40
0.03937007874016
  9
$DIMLFAC
 40
1.0
  9
$DIMTOFL
 70
     1
  9
$DIMTVP
 40
0.0
  9
$DIMTIX
 70
     0
  9
$DIMSOXD
 70
     0
  9
$DIMSAH
 70
     0
  9
$DIMBLK1
  1

  9
$DIMBLK2
  1

  9
$DIMSTYLE
  2
ISO-25
  9
$DIMCLRD
 70
     0
  9
$DIMCLRE
 70
     0
  9
$DIMCLRT
 70
     0
  9
$DIMTFAC
 40
1.0
  9
$DIMGAP
 40
0.625
  9
$DIMJUST
 70
     0
  9
$DIMSD1
 70
     0
  9
$DIMSD2
 70
     0
  9
$DIMTOLJ
 70
     0
  9
$DIMTZIN
 70
     8
  9
$DIMALTZ
 70
     0
  9
$DIMALTTZ
 70
     0
  9
$DIMUPT
 70
     0
  9
$DIMDEC
 70
     2
  9
$DIMTDEC
 70
     2
  9
$DIMALTU
 70
     2
  9
$DIMALTTD
 70
     3
  9
$DIMTXSTY
  7
Standard
  9
$DIMAUNIT
 70
     0
  9
$DIMADEC
 70
     0
  9
$DIMALTRND
 40
0.0
  9
$DIMAZIN
 70
     0
  9
$DIMDSEP
 70
    44
  9
$DIMATFIT
 70
     3
  9
$DIMFRAC
 70
     0
  9
$DIMLDRBLK
  1

  9
$DIMLUNIT
 70
     2
  9
$DIMLWD
 70
    -2
  9
$DIMLWE
 70
    -2
  9
$DIMTMOVE
 70
     0
  9
$DIMFXL
 40
1.0
  9
$DIMFXLON
 70
     0
  9
$DIMJOGANG
 40
0.7853981633974483
  9
$DIMTFILL
 70
     0
  9
$DIMTFILLCLR
 70
     0
  9
$DIMARCSYM
 70
     0
  9
$DIMLTYPE
  6

  9
$DIMLTEX1
  6

  9
$DIMLTEX2
  6

  9
$DIMTXTDIRECTION
 70
     0
  9
$LUNITS
 70
     2
  9
$LUPREC
 70
     4
  9
$SKETCHINC
 40
1.0
  9
$FILLETRAD
 40
0.0
  9
$AUNITS
 70
     0
  9
$AUPREC
 70
     0
  9
$MENU
  1
.
  9
$ELEVATION
 40
0.0
  9
$PELEVATION
 40
0.0
  9
$THICKNESS
 40
0.0
  9
$LIMCHECK
 70
     0
  9
$CHAMFERA
 40
0.0
  9
$CHAMFERB
 40
0.0
  9
$CHAMFERC
 40
0.0
  9
$CHAMFERD
 40
0.0
  9
$SKPOLY
 70
     0
  9
$TDCREATE
 40
2461206.705677986
  9
$TDUCREATE
 40
2461206.622344653
  9
$TDUPDATE
 40
2461206.705678172
  9
$TDUUPDATE
 40
2461206.622344838
  9
$TDINDWG
 40
0.0000000116
  9
$TDUSRTIMER
 40
0.0000000116
  9
$USRTIMER
 70
     1
  9
$ANGBASE
 50
0.0
  9
$ANGDIR
 70
     0
  9
$PDMODE
 70
     0
  9
$PDSIZE
 40
0.0
  9
$PLINEWID
 40
0.0
  9
$SPLFRAME
 70
     0
  9
$SPLINETYPE
 70
     6
  9
$SPLINESEGS
 70
     8
  9
$HANDSEED
  5
1CF
  9
$SURFTAB1
 70
     6
  9
$SURFTAB2
 70
     6
  9
$SURFTYPE
 70
     6
  9
$SURFU
 70
     6
  9
$SURFV
 70
     6
  9
$UCSBASE
  2

  9
$UCSNAME
  2

  9
$UCSORG
 10
0.0
 20
0.0
 30
0.0
  9
$UCSXDIR
 10
1.0
 20
0.0
 30
0.0
  9
$UCSYDIR
 10
0.0
 20
1.0
 30
0.0
  9
$UCSORTHOREF
  2

  9
$UCSORTHOVIEW
 70
     0
  9
$UCSORGTOP
 10
0.0
 20
0.0
 30
0.0
  9
$UCSORGBOTTOM
 10
0.0
 20
0.0
 30
0.0
  9
$UCSORGLEFT
 10
0.0
 20
0.0
 30
0.0
  9
$UCSORGRIGHT
 10
0.0
 20
0.0
 30
0.0
  9
$UCSORGFRONT
 10
0.0
 20
0.0
 30
0.0
  9
$UCSORGBACK
 10
0.0
 20
0.0
 30
0.0
  9
$PUCSBASE
  2

  9
$PUCSNAME
  2

  9
$PUCSORG
 10
0.0
 20
0.0
 30
0.0
  9
$PUCSXDIR
 10
1.0
 20
0.0
 30
0.0
  9
$PUCSYDIR
 10
0.0
 20
1.0
 30
0.0
  9
$PUCSORTHOREF
  2

  9
$PUCSORTHOVIEW
 70
     0
  9
$PUCSORGTOP
 10
0.0
 20
0.0
 30
0.0
  9
$PUCSORGBOTTOM
 10
0.0
 20
0.0
 30
0.0
  9
$PUCSORGLEFT
 10
0.0
 20
0.0
 30
0.0
  9
$PUCSORGRIGHT
 10
0.0
 20
0.0
 30
0.0
  9
$PUCSORGFRONT
 10
0.0
 20
0.0
 30
0.0
  9
$PUCSORGBACK
 10
0.0
 20
0.0
 30
0.0
  9
$USERI1
 70
     0
  9
$USERI2
 70
     0
  9
$USERI3
 70
     0
  9
$USERI4
 70
     0
  9
$USERI5
 70
     0
  9
$USERR1
 40
0.0
  9
$USERR2
 40
0.0
  9
$USERR3
 40
0.0
  9
$USERR4
 40
0.0
  9
$USERR5
 40
0.0
  9
$WORLDVIEW
 70
     1
  9
$SHADEDGE
 70
     3
  9
$SHADEDIF
 70
    70
  9
$TILEMODE
 70
     1
  9
$MAXACTVP
 70
    64
  9
$PINSBASE
 10
0.0
 20
0.0
 30
0.0
  9
$PLIMCHECK
 70
     0
  9
$PEXTMIN
 10
1.000000000000000E+20
 20
1.000000000000000E+20
 30
1.000000000000000E+20
  9
$PEXTMAX
 10
-1.000000000000000E+20
 20
-1.000000000000000E+20
 30
-1.000000000000000E+20
  9
$PLIMMIN
 10
0.0
 20
0.0
  9
$PLIMMAX
 10
420.0
 20
297.0
  9
$UNITMODE
 70
     0
  9
$VISRETAIN
 70
     1
  9
$PLINEGEN
 70
     0
  9
$PSLTSCALE
 70
     1
  9
$TREEDEPTH
 70
  3020
  9
$CMLSTYLE
  2
Standard
  9
$CMLJUST
 70
     0
  9
$CMLSCALE
 40
20.0
  9
$PROXYGRAPHICS
 70
     1
  9
$MEASUREMENT
 70
     1
  9
$CELWEIGHT
370
    -1
  9
$ENDCAPS
280
     0
  9
$JOINSTYLE
280
     0
  9
$LWDISPLAY
290
     0
  9
$INSUNITS
 70
     4
  9
$HYPERLINKBASE
  1

  9
$STYLESHEET
  1

  9
$XEDIT
290
     1
  9
$CEPSNTYPE
380
     0
  9
$PSTYLEMODE
290
     1
  9
$FINGERPRINTGUID
  2
{f5ea06c5-2819-4c64-9f61-cdaf5fcb4e71}
  9
$VERSIONGUID
  2
{FAEB1C32-E019-11D5-929B-00C0DF256EC4}
  9
$EXTNAMES
290
     1
  9
$PSVPSCALE
 40
0.0
  9
$OLESTARTUP
290
     0
  9
$SORTENTS
280
   127
  9
$INDEXCTL
280
     0
  9
$HIDETEXT
280
     1
  9
$XCLIPFRAME
280
     2
  9
$HALOGAP
280
     0
  9
$OBSCOLOR
 70
   257
  9
$OBSLTYPE
280
     0
  9
$INTERSECTIONDISPLAY
280
     0
  9
$INTERSECTIONCOLOR
 70
   257
  9
$DIMASSOC
280
     2
  9
$PROJECTNAME
  1

  9
$CAMERADISPLAY
290
     0
  9
$LENSLENGTH
 40
50.0
  9
$CAMERAHEIGHT
 40
0.0
  9
$STEPSPERSEC
 40
2.0
  9
$STEPSIZE
 40
6.0
  9
$3DDWFPREC
 40
2.0
  9
$PSOLWIDTH
 40
5.0
  9
$PSOLHEIGHT
 40
80.0
  9
$LOFTANG1
 40
1.570796326794897
  9
$LOFTANG2
 40
1.570796326794897
  9
$LOFTMAG1
 40
0.0
  9
$LOFTMAG2
 40
0.0
  9
$LOFTPARAM
 70
     7
  9
$LOFTNORMALS
280
     1
  9
$LATITUDE
 40
37.795
  9
$LONGITUDE
 40
-122.394
  9
$NORTHDIRECTION
 40
0.0
  9
$TIMEZONE
 70
 -8000
  9
$LIGHTGLYPHDISPLAY
280
     1
  9
$TILEMODELIGHTSYNCH
280
     1
  9
$CMATERIAL
347
44
  9
$SOLIDHIST
280
     0
  9
$SHOWHIST
280
     1
  9
$DWFFRAME
280
     2
  9
$DGNFRAME
280
     2
  9
$REALWORLDSCALE
290
     1
  9
$INTERFERECOLOR
 62
   256
  9
$CSHADOW
280
     0
  9
$SHADOWPLANELOCATION
 40
0.0
  0
ENDSEC
  0
SECTION
  2
CLASSES
  0
CLASS
  1
ACDBDICTIONARYWDFLT
  2
AcDbDictionaryWithDefault
  3
ObjectDBX Classes
 90
        0
 91
        3
280
     0
281
     0
  0
CLASS
  1
VISUALSTYLE
  2
AcDbVisualStyle
  3
ObjectDBX Classes
 90
     4095
 91
        3
280
     0
281
     0
  0
CLASS
  1
MATERIAL
  2
AcDbMaterial
  3
ObjectDBX Classes
 90
     1153
 91
        3
280
     0
281
     0
  0
CLASS
  1
SCALE
  2
AcDbScale
  3
ObjectDBX Classes
 90
     1153
 91
        3
280
     0
281
     0
  0
CLASS
  1
TABLESTYLE
  2
AcDbTableStyle
  3
ObjectDBX Classes
 90
     4095
 91
        3
280
     0
281
     0
  0
CLASS
  1
MLEADERSTYLE
  2
AcDbMLeaderStyle
  3
ACDB_MLEADERSTYLE_CLASS
 90
     4095
 91
        3
280
     0
281
     0
  0
CLASS
  1
SUN
  2
AcDbSun
  3
SCENEOE
 90
     1153
 91
        3
280
     0
281
     0
  0
CLASS
  1
DICTIONARYVAR
  2
AcDbDictionaryVar
  3
ObjectDBX Classes
 90
        0
 91
        3
280
     0
281
     0
  0
CLASS
  1
CELLSTYLEMAP
  2
AcDbCellStyleMap
  3
ObjectDBX Classes
 90
     1152
 91
        3
280
     0
281
     0
  0
ENDSEC
  0
SECTION
  2
TABLES
  0
TABLE
  2
VPORT
  5
8
330
0
100
AcDbSymbolTable
 70
     1
  0
VPORT
  5
29
330
8
100
AcDbSymbolTableRecord
100
AcDbViewportTableRecord
  2
*Active
 70
     0
 10
0.0
 20
0.0
 11
1.0
 21
1.0
 12
6.000169381756507
 22
0.3016949146021943
 13
0.0
 23
0.0
 14
10.0
 24
10.0
 15
10.0
 25
10.0
 16
0.0
 26
0.0
 36
1.0
 17
0.0
 27
0.0
 37
0.0
 40
968.9269653950911
 41
1.011997692021135
 42
50.0
 43
0.0
 44
0.0
 50
0.0
 51
0.0
 71
     0
 72
   100
 73
     1
 74
     3
 75
     0
 76
     0
 77
     0
 78
     0
281
     0
 65
     1
110
0.0
120
0.0
130
0.0
111
1.0
121
0.0
131
0.0
112
0.0
122
1.0
132
0.0
 79
     0
146
0.0
348
2F
 60
     3
 61
     5
292
     1
282
     1
141
0.0
142
0.0
 63
   250
361
5D
  0
ENDTAB
  0
TABLE
  2
LTYPE
  5
5
330
0
100
AcDbSymbolTable
 70
     2
  0
LTYPE
  5
14
330
5
100
AcDbSymbolTableRecord
100
AcDbLinetypeTableRecord
  2
ByBlock
 70
     0
  3

 72
    65
 73
     0
 40
0.0
  0
LTYPE
  5
15
330
5
100
AcDbSymbolTableRecord
100
AcDbLinetypeTableRecord
  2
ByLayer
 70
     0
  3

 72
    65
 73
     0
 40
0.0
  0
LTYPE
  5
16
330
5
100
AcDbSymbolTableRecord
100
AcDbLinetypeTableRecord
  2
Continuous
 70
     0
  3
Solid line
 72
    65
 73
     0
 40
0.0
  0
LTYPE
  5
A7
330
5
100
AcDbSymbolTableRecord
100
AcDbLinetypeTableRecord
  2
Dashed
 70
     0
  3

 72
    65
 73
     2
 40
2.0
 49
1.0
 74
     0
 49
-1.0
 74
     0
  0
ENDTAB
  0
TABLE
  2
LAYER
  5
2
330
0
100
AcDbSymbolTable
 70
     4
  0
LAYER
  5
10
330
2
100
AcDbSymbolTableRecord
100
AcDbLayerTableRecord
  2
0
 70
     0
 62
     7
  6
Continuous
370
    -3
390
F
347
46
348
0
  0
LAYER
  5
5E
330
2
100
AcDbSymbolTableRecord
100
AcDbLayerTableRecord
  2
AM_6
 70
     0
 62
    -2
  6
Continuous
370
    35
390
F
347
46
348
0
  0
LAYER
  5
A8
330
2
100
AcDbSymbolTableRecord
100
AcDbLayerTableRecord
  2
AM_9
 70
     0
 62
     6
  6
Dashed
370
    25
390
F
347
46
348
0
  0
LAYER
  5
AC
330
2
100
AcDbSymbolTableRecord
100
AcDbLayerTableRecord
  2
AM_0
 70
     0
 62
     7
  6
Continuous
370
    50
390
F
347
46
348
0
  0
ENDTAB
  0
TABLE
  2
STYLE
  5
3
330
0
100
AcDbSymbolTable
 70
     1
  0
STYLE
  5
11
330
3
100
AcDbSymbolTableRecord
100
AcDbTextStyleTableRecord
  2
Standard
 70
     0
 40
0.0
 41
1.0
 50
0.0
 71
     0
 42
2.5
  3
txt
  4

  0
ENDTAB
  0
TABLE
  2
VIEW
  5
6
330
0
100
AcDbSymbolTable
 70
     0
  0
ENDTAB
  0
TABLE
  2
UCS
  5
7
330
0
100
AcDbSymbolTable
 70
     0
  0
ENDTAB
  0
TABLE
  2
APPID
  5
9
330
0
100
AcDbSymbolTable
 70
     1
  0
APPID
  5
12
330
9
100
AcDbSymbolTableRecord
100
AcDbRegAppTableRecord
  2
ACAD
 70
     0
  0
ENDTAB
  0
TABLE
  2
DIMSTYLE
  5
A
330
0
100
AcDbSymbolTable
 70
     1
100
AcDbDimStyleTable
  0
DIMSTYLE
105
27
330
A
100
AcDbSymbolTableRecord
100
AcDbDimStyleTableRecord
  2
ISO-25
 70
     0
 41
2.5
 42
0.625
 43
3.75
 44
1.25
 73
     0
 74
     0
 77
     1
 78
     8
140
2.5
141
2.5
143
0.03937007874016
147
0.625
171
     3
172
     1
178
     0
271
     2
272
     2
274
     3
278
    44
283
     0
284
     8
340
11
  0
ENDTAB
  0
TABLE
  2
BLOCK_RECORD
  5
1
330
0
100
AcDbSymbolTable
 70
     7
  0
BLOCK_RECORD
  5
1F
330
1
100
AcDbSymbolTableRecord
100
AcDbBlockTableRecord
  2
*Model_Space
340
22
 70
     0
280
     1
281
     0
  0
BLOCK_RECORD
  5
1B
330
1
100
AcDbSymbolTableRecord
100
AcDbBlockTableRecord
  2
*Paper_Space
340
1E
 70
     0
280
     1
281
     0
  0
BLOCK_RECORD
  5
23
330
1
100
AcDbSymbolTableRecord
100
AcDbBlockTableRecord
  2
*Paper_Space0
340
26
 70
     0
280
     1
281
     0
  0
BLOCK_RECORD
  5
81
330
1
100
AcDbSymbolTableRecord
100
AcDbBlockTableRecord
  2
1_FCA30AAVJU_BYCQ54GEFU_PART7_0_in_FCA30AAVJU_BYCQ54GEFU_4
340
0
102
{BLKREFS
331
82
102
}
 70
     0
280
     1
281
     0
  0
BLOCK_RECORD
  5
B0
330
1
100
AcDbSymbolTableRecord
100
AcDbBlockTableRecord
  2
2_FCA30AAVJU_BYCQ54GEFU_PART6_0_in_FCA30AAVJU_BYCQ54GEFU_4
340
0
102
{BLKREFS
331
B1
102
}
 70
     0
280
     1
281
     0
  0
BLOCK_RECORD
  5
DC
330
1
100
AcDbSymbolTableRecord
100
AcDbBlockTableRecord
  2
3_FCA30AAVJU_BYCQ54GEFU_PART5_0_in_FCA30AAVJU_BYCQ54GEFU_4
340
0
102
{BLKREFS
331
DD
102
}
 70
     0
280
     1
281
     0
  0
BLOCK_RECORD
  5
108
330
1
100
AcDbSymbolTableRecord
100
AcDbBlockTableRecord
  2
4_FCA30AAVJU_BYCQ54GEFU_PART4_0_in_FCA30AAVJU_BYCQ54GEFU_4
340
0
102
{BLKREFS
331
109
102
}
 70
     0
280
     1
281
     0
  0
BLOCK_RECORD
  5
146
330
1
100
AcDbSymbolTableRecord
100
AcDbBlockTableRecord
  2
5_FCA30AAVJU_BYCQ54GEFU_PART2_0_in_FCA30AAVJU_BYCQ54GEFU_4
340
0
102
{BLKREFS
331
147
102
}
 70
     0
280
     1
281
     0
  0
BLOCK_RECORD
  5
19B
330
1
100
AcDbSymbolTableRecord
100
AcDbBlockTableRecord
  2
6_FCA30AAVJU_BYCQ54GEFU_PART1_0_in_FCA30AAVJU_BYCQ54GEFU_4
340
0
102
{BLKREFS
331
19C
102
}
 70
     0
280
     1
281
     0
  0
ENDTAB
  0
ENDSEC
  0
SECTION
  2
BLOCKS
  0
BLOCK
  5
20
330
1F
100
AcDbEntity
  8
0
100
AcDbBlockBegin
  2
*Model_Space
 70
     2
 10
0.0
 20
0.0
 30
0.0
  3
*Model_Space
  1

  0
ENDBLK
  5
21
330
1F
100
AcDbEntity
  8
0
100
AcDbBlockEnd
  0
BLOCK
  5
1C
330
1B
100
AcDbEntity
 67
     1
  8
0
100
AcDbBlockBegin
  2
*Paper_Space
 70
     0
 10
0.0
 20
0.0
 30
0.0
  3
*Paper_Space
  1

  0
ENDBLK
  5
1D
330
1B
100
AcDbEntity
 67
     1
  8
0
100
AcDbBlockEnd
  0
BLOCK
  5
24
330
23
100
AcDbEntity
  8
0
100
AcDbBlockBegin
  2
*Paper_Space0
 70
     0
 10
0.0
 20
0.0
 30
0.0
  3
*Paper_Space0
  1

  0
ENDBLK
  5
25
330
23
100
AcDbEntity
  8
0
100
AcDbBlockEnd
  0
BLOCK
  5
83
330
81
100
AcDbEntity
  8
0
100
AcDbBlockBegin
  2
1_FCA30AAVJU_BYCQ54GEFU_PART7_0_in_FCA30AAVJU_BYCQ54GEFU_4
 70
     2
 10
0.0
 20
0.0
 30
0.0
  3
1_FCA30AAVJU_BYCQ54GEFU_PART7_0_in_FCA30AAVJU_BYCQ54GEFU_4
  1

  0
ATTDEF
  5
85
330
81
100
AcDbEntity
  8
AM_6
100
AcDbText
 10
425.674799999991
 20
-323.8500000000209
 30
0.0
 40
0.5
  1
FCA30AAVJU-BYCQ54GEFU_PART7
100
AcDbAttributeDefinition
  3

  2
NB
 70
     8
280
     0
  0
ATTDEF
  5
86
330
81
100
AcDbEntity
  8
AM_6
100
AcDbText
 10
425.674799999991
 20
-324.3500000000209
 30
0.0
 40
0.5
  1

100
AcDbAttributeDefinition
  3

  2
NN
 70
     8
280
     0
  0
ATTDEF
  5
87
330
81
100
AcDbEntity
  8
AM_6
100
AcDbText
 10
425.674799999991
 20
-324.8500000000209
 30
0.0
 40
0.5
  1

100
AcDbAttributeDefinition
  3

  2
NT
 70
     8
280
     0
  0
ATTDEF
  5
88
330
81
100
AcDbEntity
  8
AM_6
100
AcDbText
 10
425.674799999991
 20
-325.3500000000209
 30
0.0
 40
0.5
  1
$PARTNUMBER._PART7
100
AcDbAttributeDefinition
  3

  2
NBSYN
 70
     8
280
     0
  0
ATTDEF
  5
89
330
81
100
AcDbEntity
  8
AM_6
100
AcDbText
 10
425.674799999991
 20
-325.8500000000209
 30
0.0
 40
0.5
  1
FCA30AAVJU-BYCQ54GEFU_PART7
100
AcDbAttributeDefinition
  3

  2
LINA
 70
     8
280
     0
  0
ATTDEF
  5
8A
330
81
100
AcDbEntity
  8
AM_6
100
AcDbText
 10
425.674799999991
 20
-326.3500000000209
 30
0.0
 40
0.5
  1
Daikin
100
AcDbAttributeDefinition
  3

  2
CATALOG
 70
     8
280
     0
  0
ATTDEF
  5
8B
330
81
100
AcDbEntity
  8
AM_6
100
AcDbText
 10
425.674799999991
 20
-326.8500000000209
 30
0.0
 40
0.5
  1
FCA30AAVJU-BYCQ54GEFU
100
AcDbAttributeDefinition
  3

  2
PARTNUMBER
 70
     8
280
     0
  0
ATTDEF
  5
8C
330
81
100
AcDbEntity
  8
AM_6
100
AcDbText
 10
425.674799999991
 20
-327.3500000000209
 30
0.0
 40
0.5
  1
Air Conditioner Ducted Round Flow Cassette
100
AcDbAttributeDefinition
  3

  2
DESCRIPTION
 70
     8
280
     0
  0
ATTDEF
  5
8D
330
81
100
AcDbEntity
  8
AM_6
100
AcDbText
 10
425.674799999991
 20
-327.8500000000209
 30
0.0
 40
0.5
  1
33.0625
100
AcDbAttributeDefinition
  3

  2
OVERALL_DEPTH
 70
     8
280
     0
  0
ATTDEF
  5
8E
330
81
100
AcDbEntity
  8
AM_6
100
AcDbText
 10
425.674799999991
 20
-328.3500000000209
 30
0.0
 40
0.5
  1
11.3438
100
AcDbAttributeDefinition
  3

  2
OVERALL_HEIGHT
 70
     8
280
     0
  0
ATTDEF
  5
8F
330
81
100
AcDbEntity
  8
AM_6
100
AcDbText
 10
425.674799999991
 20
-328.8500000000209
 30
0.0
 40
0.5
  1
33.0625
100
AcDbAttributeDefinition
  3

  2
OVERALL_WIDTH
 70
     8
280
     0
  0
ATTDEF
  5
90
330
81
100
AcDbEntity
  8
AM_6
100
AcDbText
 10
425.674799999991
 20
-329.3500000000209
 30
0.0
 40
0.5
  1
https://daikincomfort.com/
100
AcDbAttributeDefinition
  3

  2
URL
 70
     8
280
     0
  0
ATTDEF
  5
91
330
81
100
AcDbEntity
  8
AM_6
100
AcDbText
 10
425.674799999991
 20
-329.8500000000209
 30
0.0
 40
0.5
  1
Download Revit Family (RFA)
100
AcDbAttributeDefinition
  3

  2
RFA_FAMILY
 70
     8
280
     0
  0
ATTDEF
  5
92
330
81
100
AcDbEntity
  8
AM_6
100
AcDbText
 10
425.674799999991
 20
-330.3500000000209
 30
0.0
 40
0.5
  1
daikin
100
AcDbAttributeDefinition
  3

  2
COMPANY
 70
     8
280
     0
  0
ATTDEF
  5
93
330
81
100
AcDbEntity
  8
AM_6
100
AcDbText
 10
425.674799999991
 20
-330.8500000000209
 30
0.0
 40
0.5
  1
{$CADENAS_DATA/23d-libs/daikin/sky-air/sky-air20indoor20units/air_conditioner-indoor-daikin-fca.prj},240 {VTYP=3D},{NB=FCA30AAVJU-BYCQ54GEFU_PART7},{LINA=FCA30AAVJU-BYCQ54GEFU_PART7},{NN=(R32) Cassette Sky-Air Daikin FCA_PART7},{NOPRJ=TRUE},{DATE=03
100
AcDbAttributeDefinition
  3

  2
PSOL_0
 70
     9
280
     0
  0
ATTDEF
  5
94
330
81
100
AcDbEntity
  8
AM_6
100
AcDbText
 10
425.674799999991
 20
-331.3500000000209
 30
0.0
 40
0.5
  1
26 19:23:42},{GEOMDATE=23.09.2025 06:26:16},{VERSION=},{LINEID=80},{WBVAR=},{WBNUMERIC=}  {NB=FCA30AAVJU-BYCQ54GEFU_PART7},{LINA=FCA30AAVJU-BYCQ54GEFU_PART7},{KT=DUMMY},{PARTNUMBER=FCA30AAVJU-BYCQ54GEFU},{PARTNUMBERMAP09=2.5Ton_FCA30AAVJU-BYCQ54GEFU
100
AcDbAttributeDefinition
  3

  2
PSOL_1
 70
     9
280
     0
  0
ATTDEF
  5
95
330
81
100
AcDbEntity
  8
AM_6
100
AcDbText
 10
425.674799999991
 20
-331.8500000000209
 30
0.0
 40
0.5
  1
UAL_RETURN_AIR_FLOW=1059},{ACTUAL_SUPPLY_AIR_FLOW=1059},{AMBIENT_TEMPERATURE=0},{APPARENT_POWER=240},{ASSEMBLY_CODE=D3090},{BRANCH_DUCT_CENTER_OFFSET=0},{BRANCH_DUCT_DEPTH=0.00833333333333333},{BRANCH_DUCT_HEIGHT=0.3125},{BRANCH_DUCT_HORIZONTAL_OFFS
100
AcDbAttributeDefinition
  3

  2
PSOL_2
 70
     9
280
     0
  0
ATTDEF
  5
96
330
81
100
AcDbEntity
  8
AM_6
100
AcDbText
 10
425.674799999991
 20
-332.3500000000209
 30
0.0
 40
0.5
  1
26041666666667},{BRANCH_DUCT_LEFT_CENTER_OFFSET=0.0677083333333333},{BRANCH_DUCT_POSITION_ANGLE=0},{BRANCH_DUCT_REFERENCE_LENGTH=1.37760416666667},{BRANCH_DUCT_RIGHT_CENTER_OFFSET=0.0833333333333333},{BRANCH_DUCT_WIDTH=1.14583333333333},{CATEGORY=Me
100
AcDbAttributeDefinition
  3

  2
PSOL_3
 70
     9
280
     0
  0
ATTDEF
  5
97
330
81
100
AcDbEntity
  8
AM_6
100
AcDbText
 10
425.674799999991
 20
-332.8500000000209
 30
0.0
 40
0.5
  1
al Equipment},{CEILING_OPENING_SPACE_DEPTH=2.98958333333333},{CEILING_OPENING_SPACE_WIDTH=2.98958333333333},{CLEARANCE_PRIMARY_OFFSET=5},{CLEARANCE_SECONDARY_OFFSET=0.65625},{CLEARANCE_VISIBILITY=1},{COIL_AIR_PRESSURE_DROP=0},{CONDENSATE_DRAIN_CONNE
100
AcDbAttributeDefinition
  3

  2
PSOL_4
 70
     9
280
     0
  0
ATTDEF
  5
98
330
81
100
AcDbEntity
  8
AM_6
100
AcDbText
 10
425.674799999991
 20
-333.3500000000209
 30
0.0
 40
0.5
  1
DIAMETER=1.25},{CONDENSATE_DRAIN_PIPE_HORIZONTAL_OFFSET=0.583333333333333},{CONDENSATE_DRAIN_PIPE_LENGTH=1.38016666666667},{CONDENSATE_DRAIN_PIPE_RADIUS=0.0520833333333333},{CONDENSATE_DRAIN_PIPE_VERTICAL_OFFSET=1.11458333333333},{COOLING_ENTERING_D
100
AcDbAttributeDefinition
  3

  2
PSOL_5
 70
     9
280
     0
  0
ATTDEF
  5
99
330
81
100
AcDbEntity
  8
AM_6
100
AcDbText
 10
425.674799999991
 20
-333.8500000000209
 30
0.0
 40
0.5
  1
B_TEMPERATURE=0},{COOLING_ENTERING_WET_BULB_TEMPERATURE=0},{COOLING_LEAVING_DRY_BULB_TEMPERATURE=0},{COOLING_LEAVING_WET_BULB_TEMPERATURE=0},{COST=0},{DECORATION_PANEL_COVER_HEIGHT=0.135416666666667},{DECORATION_PANEL_DEPTH=3.11458333333333},{DECORA
100
AcDbAttributeDefinition
  3

  2
PSOL_6
 70
     9
280
     0
  0
ATTDEF
  5
9A
330
81
100
AcDbEntity
  8
AM_6
100
AcDbText
 10
425.674799999991
 20
-334.3500000000209
 30
0.0
 40
0.5
  1
ANEL_INSIDE_HEIGHT=0.03125},{DECORATION_PANEL_OVERALL_HEIGHT=0.166666666666667},{DECORATION_PANEL_WEIGHT=12},{DECORATION_PANEL_WIDTH=3.11458333333333},{DEFAULT_ELEVATION=4},{DESCRIPTION=Air Conditioner Ducted Round Flow Cassette},{DESIGN_BRANCH_DUCT
100
AcDbAttributeDefinition
  3

  2
PSOL_7
 70
     9
280
     0
  0
ATTDEF
  5
9B
330
81
100
AcDbEntity
  8
AM_6
100
AcDbText
 10
425.674799999991
 20
-334.8500000000209
 30
0.0
 40
0.5
  1
Y_AIR_FLOW=0},{DESIGN_FRESH_AIR_FLOW=0},{DESIGN_RETURN_AIR_FLOW=1059},{DESIGN_SUPPLY_AIR_FLOW=1059},{DRAIN_FLOW=0},{ENCLOSURE_DEPTH=2.75520833333333},{ENCLOSURE_FLANGE_OFFSET=2.33333333333333},{ENCLOSURE_HEIGHT=0.9453125},{ENCLOSURE_WIDTH=2.75520833
100
AcDbAttributeDefinition
  3

  2
PSOL_8
 70
     9
280
     0
  0
ATTDEF
  5
9C
330
81
100
AcDbEntity
  8
AM_6
100
AcDbText
 10
425.674799999991
 20
-335.3500000000209
 30
0.0
 40
0.5
  1
},{FACE_VELOCITY__FPM_=0},{FAN_TYPE=Turbo fan},{FEET_PRESSURE_DROP=0},{FREQUENCY=60},{FRESH_AIR_INTAKE=0},{FRESH_AIR_INTAKE_RADIUS=0.0625},{GAS_PIPE_HORIZONTAL_OFFSET=0.541666666666667},{GAS_PIPE_LENGTH=1.38016666666667},{GAS_PIPE_RADIUS=0.026041666
100
AcDbAttributeDefinition
  3

  2
PSOL_9
 70
     9
280
     0
  0
ATTDEF
  5
9D
330
81
100
AcDbEntity
  8
AM_6
100
AcDbText
 10
425.674799999991
 20
-335.8500000000209
 30
0.0
 40
0.5
  1
7},{GAS_PIPE_VERTICAL_OFFSET=1.08333333333333},{HEAT_EXCHANGER_TYPE=Cross Fin Coil},{HEATING_ENTERING_DRY_BULB_TEMPERATURE=0},{HEATING_ENTERING_WET_BULB_TEMPERATURE=0},{HEATING_LEAVING_DRY_BULB_TEMPERATURE=0},{HEATING_LEAVING_WET_BULB_TEMPERATURE=0}
100
AcDbAttributeDefinition
  3

  2
PSOL_10
 70
     9
280
     0
  0
ATTDEF
  5
9E
330
81
100
AcDbEntity
  8
AM_6
100
AcDbText
 10
425.674799999991
 20
-336.3500000000209
 30
0.0
 40
0.5
  1
K_HOLE_OFFSET=0.00833333333333333},{KNOCK_HOLE_RADIUS=0.164},{LATENT_COOLING_CAPACITY=0},{LIQUID_PIPE_HORIZONTAL_OFFSET=0.411458333333333},{LIQUID_PIPE_LENGTH=1.38016666666667},{LIQUID_PIPE_RADIUS=0.015625},{LIQUID_PIPE_VERTICAL_OFFSET=0.91666666666
100
AcDbAttributeDefinition
  3

  2
PSOL_11
 70
     9
280
     0
  0
ATTDEF
  5
9F
330
81
100
AcDbEntity
  8
AM_6
100
AcDbText
 10
425.674799999991
 20
-336.8500000000209
 30
0.0
 40
0.5
  1
{LOAD_SUB_CLASSIFICATION_MOTOR=1},{MANUFACTURER=Daikin},{MASSUNIT=1},{MAXIMUM_AIR_FLOW=1059},{MAXIMUM_OVERCURRENT_PROTECTION=15},{MEDIAN_AIR_FLOW=882},{MINIMUM_AIR_FLOW=671},{MINIMUM_CIRCUIT_AMPS=1},{MINIMUM_FLOOR_CLEARANCE=8.33333333333333},{MINIMU
100
AcDbAttributeDefinition
  3

  2
PSOL_12
 70
     9
280
     0
  0
ATTDEF
  5
A0
330
81
100
AcDbEntity
  8
AM_6
100
AcDbText
 10
425.674799999991
 20
-337.3500000000209
 30
0.0
 40
0.5
  1
ACLE_CLEARANCE=5},{MODEL=FCA30AAVJU-BYCQ54GEFU},{NO_OBSTACLES_BELOW_UNIT=1},{NOMINAL_COOLING_CAPACITY=30000},{NOMINAL_COOLING_CAPACITY__TONS_=2.5},{NOMINAL_HEATING_CAPACITY=33800},{NUMBER_OF_POLES=2},{OBSTACLES_BELOW_UNIT=0},{OMNICLASS_NUMBER=23.33.
100
AcDbAttributeDefinition
  3

  2
PSOL_13
 70
     9
280
     0
  0
ATTDEF
  5
A1
330
81
100
AcDbEntity
  8
AM_6
100
AcDbText
 10
425.674799999991
 20
-337.8500000000209
 30
0.0
 40
0.5
  1
15.11},{OUT_AIR_INTAKE_H_OFFSET=0.598958333333333},{OUT_AIR_INTAKE_V_OFFSET=0.697916666666667},{OVERALL_DEPTH=33.0625},{OVERALL_HEIGHT=11.3438},{OVERALL_WIDTH=33.0625},{PARTTYPE=Normal},{PHASE=1},{REFRIGERANT_LIQUID_CONNECTION_DIAMETER=0.375},{REFRI
100
AcDbAttributeDefinition
  3

  2
PSOL_14
 70
     9
280
     0
  0
ATTDEF
  5
A2
330
81
100
AcDbEntity
  8
AM_6
100
AcDbText
 10
425.674799999991
 20
-338.3500000000209
 30
0.0
 40
0.5
  1
_SUCTION_GAS_CONNECTION_DIAMETER=0.625},{REFRIGERANT_USED=R-32},{RETURN_AIR_PRESSURE_DROP=0},{SENSIBLE_COOLING_CAPACITY=0},{SERIES=SkyAir},{SUPPLY_AIR_CONNECTION_HEIGHT=0.0625},{SUPPLY_AIR_CONNECTION_WIDTH=0.0625},{SUPPLY_AIR_PRESSURE_DROP=0},{SYSTE
100
AcDbAttributeDefinition
  3

  2
PSOL_15
 70
     9
280
     0
  0
ATTDEF
  5
A3
330
81
100
AcDbEntity
  8
AM_6
100
AcDbText
 10
425.674799999991
 20
-338.8500000000209
 30
0.0
 40
0.5
  1
ORMANCE_EER2=13.2},{SYSTEM_PERFORMANCE_HSPF2=10.1},{SYSTEM_PERFORMANCE_SEER2=21},{TOTAL_COOLING_CAPACITY=0},{TOTAL_HEATING_CAPACITY=0},{TOTAL_STATIC_PRESSURE=0},{UNIT_HEIGHT_CLEARANCE=8.33333333333333},{UNIT_WEIGHT=58},{URL=https://daikincomfort.com
100
AcDbAttributeDefinition
  3

  2
PSOL_16
 70
     9
280
     0
  0
ATTDEF
  5
A4
330
81
100
AcDbEntity
  8
AM_6
100
AcDbText
 10
425.674799999991
 20
-339.3500000000209
 30
0.0
 40
0.5
  1
RSION=1},{VOLTAGE=240},{VOLTAGE_COMMENTS=208 VAC - 230 VAC},{VAR__NO_BRANCH_DUCT=1},{VAR__BRANCH_DUCT_SELECTOR=0},{VAR__FAN_SPEED_SELECTOR=3},{VAR__BRANCH_DUCT_FRONT_OPENING=0},{VAR__L____LOW_FAN_SPEED=671},{VAR__BRANCH_DUCT_RIGHT_OPENING=0},{VAR__M
100
AcDbAttributeDefinition
  3

  2
PSOL_17
 70
     9
280
     0
  0
ATTDEF
  5
A5
330
81
100
AcDbEntity
  8
AM_6
100
AcDbText
 10
425.674799999991
 20
-339.8500000000209
 30
0.0
 40
0.5
  1
IUM_SPEED=882},{VAR__BRANCH_DUCT_BACK_OPENING=0},{VAR__H___HIGH_FAN_SPEED=1059},{VAR__BRANCH_DUCT_LEFT_OPENING=0},{RFA_FAMILY=Download Revit Family (RFA)},{DEFAULTSORTATTR=55},{RFA_FAMILY_=../../_pool_/be/62/air_conditioner-indoor-daikin-fca.zip},{R
100
AcDbAttributeDefinition
  3

  2
PSOL_18
 70
     9
280
     0
  0
ATTDEF
  5
A6
330
81
100
AcDbEntity
  8
AM_6
100
AcDbText
 10
425.674799999991
 20
-340.3500000000209
 30
0.0
 40
0.5
  1
ILY_ENG=../../_pool_/be/62/air_conditioner-indoor-daikin-fca.zip},{REVIT_FAMILY_DOWNLOAD=../../_pool_/be/62/air_conditioner-indoor-daikin-fca.zip}
100
AcDbAttributeDefinition
  3

  2
PSOL_19
 70
     9
280
     0
  0
LINE
  5
A9
330
81
100
AcDbEntity
  8
AM_9
100
AcDbLine
 10
-0.0000000000062603
 20
-355.600000000021
 30
0.0
 11
-0.0000000000062603
 21
-323.8500000000209
 31
0.0
  0
LINE
  5
AA
330
81
100
AcDbEntity
  8
AM_9
100
AcDbLine
 10
-0.0000000000062603
 20
-355.600000000021
 30
0.0
 11
355.5999999999632
 21
-355.600000000021
 31
0.0
  0
LINE
  5
AB
330
81
100
AcDbEntity
  8
AM_9
100
AcDbLine
 10
387.3499999999632
 20
-323.850000000021
 30
0.0
 11
-0.0000000000062728
 21
-323.8500000000209
 31
0.0
  0
LINE
  5
AD
330
81
100
AcDbEntity
  8
AM_0
100
AcDbLine
 10
355.5999999999632
 20
-355.600000000021
 30
0.0
 11
420.674799999991
 21
-355.600000000021
 31
0.0
  0
LINE
  5
AE
330
81
100
AcDbEntity
  8
AM_0
100
AcDbLine
 10
420.674799999991
 20
-323.8500000000209
 30
0.0
 11
387.3499999999632
 21
-323.850000000021
 31
0.0
  0
LINE
  5
AF
330
81
100
AcDbEntity
  8
AM_0
100
AcDbLine
 10
420.674799999991
 20
-323.8500000000209
 30
0.0
 11
420.674799999991
 21
-355.600000000021
 31
0.0
  0
ENDBLK
  5
84
330
81
100
AcDbEntity
  8
0
100
AcDbBlockEnd
  0
BLOCK
  5
B2
330
B0
100
AcDbEntity
  8
0
100
AcDbBlockBegin
  2
2_FCA30AAVJU_BYCQ54GEFU_PART6_0_in_FCA30AAVJU_BYCQ54GEFU_4
 70
     2
 10
0.0
 20
0.0
 30
0.0
  3
2_FCA30AAVJU_BYCQ54GEFU_PART6_0_in_FCA30AAVJU_BYCQ54GEFU_4
  1

  0
ATTDEF
  5
B4
330
B0
100
AcDbEntity
  8
AM_6
100
AcDbText
 10
425.674799999991
 20
284.162499999988
 30
0.0
 40
0.5
  1
FCA30AAVJU-BYCQ54GEFU_PART6
100
AcDbAttributeDefinition
  3

  2
NB
 70
     8
280
     0
  0
ATTDEF
  5
B5
330
B0
100
AcDbEntity
  8
AM_6
100
AcDbText
 10
425.674799999991
 20
283.662499999988
 30
0.0
 40
0.5
  1

100
AcDbAttributeDefinition
  3

  2
NN
 70
     8
280
     0
  0
ATTDEF
  5
B6
330
B0
100
AcDbEntity
  8
AM_6
100
AcDbText
 10
425.674799999991
 20
283.162499999988
 30
0.0
 40
0.5
  1

100
AcDbAttributeDefinition
  3

  2
NT
 70
     8
280
     0
  0
ATTDEF
  5
B7
330
B0
100
AcDbEntity
  8
AM_6
100
AcDbText
 10
425.674799999991
 20
282.662499999988
 30
0.0
 40
0.5
  1
$PARTNUMBER._PART6
100
AcDbAttributeDefinition
  3

  2
NBSYN
 70
     8
280
     0
  0
ATTDEF
  5
B8
330
B0
100
AcDbEntity
  8
AM_6
100
AcDbText
 10
425.674799999991
 20
282.162499999988
 30
0.0
 40
0.5
  1
FCA30AAVJU-BYCQ54GEFU_PART6
100
AcDbAttributeDefinition
  3

  2
LINA
 70
     8
280
     0
  0
ATTDEF
  5
B9
330
B0
100
AcDbEntity
  8
AM_6
100
AcDbText
 10
425.674799999991
 20
281.662499999988
 30
0.0
 40
0.5
  1
Daikin
100
AcDbAttributeDefinition
  3

  2
CATALOG
 70
     8
280
     0
  0
ATTDEF
  5
BA
330
B0
100
AcDbEntity
  8
AM_6
100
AcDbText
 10
425.674799999991
 20
281.162499999988
 30
0.0
 40
0.5
  1
FCA30AAVJU-BYCQ54GEFU
100
AcDbAttributeDefinition
  3

  2
PARTNUMBER
 70
     8
280
     0
  0
ATTDEF
  5
BB
330
B0
100
AcDbEntity
  8
AM_6
100
AcDbText
 10
425.674799999991
 20
280.662499999988
 30
0.0
 40
0.5
  1
Air Conditioner Ducted Round Flow Cassette
100
AcDbAttributeDefinition
  3

  2
DESCRIPTION
 70
     8
280
     0
  0
ATTDEF
  5
BC
330
B0
100
AcDbEntity
  8
AM_6
100
AcDbText
 10
425.674799999991
 20
280.162499999988
 30
0.0
 40
0.5
  1
33.0625
100
AcDbAttributeDefinition
  3

  2
OVERALL_DEPTH
 70
     8
280
     0
  0
ATTDEF
  5
BD
330
B0
100
AcDbEntity
  8
AM_6
100
AcDbText
 10
425.674799999991
 20
279.662499999988
 30
0.0
 40
0.5
  1
11.3438
100
AcDbAttributeDefinition
  3

  2
OVERALL_HEIGHT
 70
     8
280
     0
  0
ATTDEF
  5
BE
330
B0
100
AcDbEntity
  8
AM_6
100
AcDbText
 10
425.674799999991
 20
279.162499999988
 30
0.0
 40
0.5
  1
33.0625
100
AcDbAttributeDefinition
  3

  2
OVERALL_WIDTH
 70
     8
280
     0
  0
ATTDEF
  5
BF
330
B0
100
AcDbEntity
  8
AM_6
100
AcDbText
 10
425.674799999991
 20
278.662499999988
 30
0.0
 40
0.5
  1
https://daikincomfort.com/
100
AcDbAttributeDefinition
  3

  2
URL
 70
     8
280
     0
  0
ATTDEF
  5
C0
330
B0
100
AcDbEntity
  8
AM_6
100
AcDbText
 10
425.674799999991
 20
278.162499999988
 30
0.0
 40
0.5
  1
Download Revit Family (RFA)
100
AcDbAttributeDefinition
  3

  2
RFA_FAMILY
 70
     8
280
     0
  0
ATTDEF
  5
C1
330
B0
100
AcDbEntity
  8
AM_6
100
AcDbText
 10
425.674799999991
 20
277.662499999988
 30
0.0
 40
0.5
  1
daikin
100
AcDbAttributeDefinition
  3

  2
COMPANY
 70
     8
280
     0
  0
ATTDEF
  5
C2
330
B0
100
AcDbEntity
  8
AM_6
100
AcDbText
 10
425.674799999991
 20
277.162499999988
 30
0.0
 40
0.5
  1
{$CADENAS_DATA/23d-libs/daikin/sky-air/sky-air20indoor20units/air_conditioner-indoor-daikin-fca.prj},240 {VTYP=3D},{NB=FCA30AAVJU-BYCQ54GEFU_PART6},{LINA=FCA30AAVJU-BYCQ54GEFU_PART6},{NN=(R32) Cassette Sky-Air Daikin FCA_PART6},{NOPRJ=TRUE},{DATE=03
100
AcDbAttributeDefinition
  3

  2
PSOL_0
 70
     9
280
     0
  0
ATTDEF
  5
C3
330
B0
100
AcDbEntity
  8
AM_6
100
AcDbText
 10
425.674799999991
 20
276.662499999988
 30
0.0
 40
0.5
  1
26 19:23:42},{GEOMDATE=23.09.2025 06:26:16},{VERSION=},{LINEID=80},{WBVAR=},{WBNUMERIC=}  {NB=FCA30AAVJU-BYCQ54GEFU_PART6},{LINA=FCA30AAVJU-BYCQ54GEFU_PART6},{KT=DUMMY},{PARTNUMBER=FCA30AAVJU-BYCQ54GEFU},{PARTNUMBERMAP09=2.5Ton_FCA30AAVJU-BYCQ54GEFU
100
AcDbAttributeDefinition
  3

  2
PSOL_1
 70
     9
280
     0
  0
ATTDEF
  5
C4
330
B0
100
AcDbEntity
  8
AM_6
100
AcDbText
 10
425.674799999991
 20
276.162499999988
 30
0.0
 40
0.5
  1
UAL_RETURN_AIR_FLOW=1059},{ACTUAL_SUPPLY_AIR_FLOW=1059},{AMBIENT_TEMPERATURE=0},{APPARENT_POWER=240},{ASSEMBLY_CODE=D3090},{BRANCH_DUCT_CENTER_OFFSET=0},{BRANCH_DUCT_DEPTH=0.00833333333333333},{BRANCH_DUCT_HEIGHT=0.3125},{BRANCH_DUCT_HORIZONTAL_OFFS
100
AcDbAttributeDefinition
  3

  2
PSOL_2
 70
     9
280
     0
  0
ATTDEF
  5
C5
330
B0
100
AcDbEntity
  8
AM_6
100
AcDbText
 10
425.674799999991
 20
275.662499999988
 30
0.0
 40
0.5
  1
26041666666667},{BRANCH_DUCT_LEFT_CENTER_OFFSET=0.0677083333333333},{BRANCH_DUCT_POSITION_ANGLE=0},{BRANCH_DUCT_REFERENCE_LENGTH=1.37760416666667},{BRANCH_DUCT_RIGHT_CENTER_OFFSET=0.0833333333333333},{BRANCH_DUCT_WIDTH=1.14583333333333},{CATEGORY=Me
100
AcDbAttributeDefinition
  3

  2
PSOL_3
 70
     9
280
     0
  0
ATTDEF
  5
C6
330
B0
100
AcDbEntity
  8
AM_6
100
AcDbText
 10
425.674799999991
 20
275.162499999988
 30
0.0
 40
0.5
  1
al Equipment},{CEILING_OPENING_SPACE_DEPTH=2.98958333333333},{CEILING_OPENING_SPACE_WIDTH=2.98958333333333},{CLEARANCE_PRIMARY_OFFSET=5},{CLEARANCE_SECONDARY_OFFSET=0.65625},{CLEARANCE_VISIBILITY=1},{COIL_AIR_PRESSURE_DROP=0},{CONDENSATE_DRAIN_CONNE
100
AcDbAttributeDefinition
  3

  2
PSOL_4
 70
     9
280
     0
  0
ATTDEF
  5
C7
330
B0
100
AcDbEntity
  8
AM_6
100
AcDbText
 10
425.674799999991
 20
274.662499999988
 30
0.0
 40
0.5
  1
DIAMETER=1.25},{CONDENSATE_DRAIN_PIPE_HORIZONTAL_OFFSET=0.583333333333333},{CONDENSATE_DRAIN_PIPE_LENGTH=1.38016666666667},{CONDENSATE_DRAIN_PIPE_RADIUS=0.0520833333333333},{CONDENSATE_DRAIN_PIPE_VERTICAL_OFFSET=1.11458333333333},{COOLING_ENTERING_D
100
AcDbAttributeDefinition
  3

  2
PSOL_5
 70
     9
280
     0
  0
ATTDEF
  5
C8
330
B0
100
AcDbEntity
  8
AM_6
100
AcDbText
 10
425.674799999991
 20
274.162499999988
 30
0.0
 40
0.5
  1
B_TEMPERATURE=0},{COOLING_ENTERING_WET_BULB_TEMPERATURE=0},{COOLING_LEAVING_DRY_BULB_TEMPERATURE=0},{COOLING_LEAVING_WET_BULB_TEMPERATURE=0},{COST=0},{DECORATION_PANEL_COVER_HEIGHT=0.135416666666667},{DECORATION_PANEL_DEPTH=3.11458333333333},{DECORA
100
AcDbAttributeDefinition
  3

  2
PSOL_6
 70
     9
280
     0
  0
ATTDEF
  5
C9
330
B0
100
AcDbEntity
  8
AM_6
100
AcDbText
 10
425.674799999991
 20
273.662499999988
 30
0.0
 40
0.5
  1
ANEL_INSIDE_HEIGHT=0.03125},{DECORATION_PANEL_OVERALL_HEIGHT=0.166666666666667},{DECORATION_PANEL_WEIGHT=12},{DECORATION_PANEL_WIDTH=3.11458333333333},{DEFAULT_ELEVATION=4},{DESCRIPTION=Air Conditioner Ducted Round Flow Cassette},{DESIGN_BRANCH_DUCT
100
AcDbAttributeDefinition
  3

  2
PSOL_7
 70
     9
280
     0
  0
ATTDEF
  5
CA
330
B0
100
AcDbEntity
  8
AM_6
100
AcDbText
 10
425.674799999991
 20
273.162499999988
 30
0.0
 40
0.5
  1
Y_AIR_FLOW=0},{DESIGN_FRESH_AIR_FLOW=0},{DESIGN_RETURN_AIR_FLOW=1059},{DESIGN_SUPPLY_AIR_FLOW=1059},{DRAIN_FLOW=0},{ENCLOSURE_DEPTH=2.75520833333333},{ENCLOSURE_FLANGE_OFFSET=2.33333333333333},{ENCLOSURE_HEIGHT=0.9453125},{ENCLOSURE_WIDTH=2.75520833
100
AcDbAttributeDefinition
  3

  2
PSOL_8
 70
     9
280
     0
  0
ATTDEF
  5
CB
330
B0
100
AcDbEntity
  8
AM_6
100
AcDbText
 10
425.674799999991
 20
272.662499999988
 30
0.0
 40
0.5
  1
},{FACE_VELOCITY__FPM_=0},{FAN_TYPE=Turbo fan},{FEET_PRESSURE_DROP=0},{FREQUENCY=60},{FRESH_AIR_INTAKE=0},{FRESH_AIR_INTAKE_RADIUS=0.0625},{GAS_PIPE_HORIZONTAL_OFFSET=0.541666666666667},{GAS_PIPE_LENGTH=1.38016666666667},{GAS_PIPE_RADIUS=0.026041666
100
AcDbAttributeDefinition
  3

  2
PSOL_9
 70
     9
280
     0
  0
ATTDEF
  5
CC
330
B0
100
AcDbEntity
  8
AM_6
100
AcDbText
 10
425.674799999991
 20
272.162499999988
 30
0.0
 40
0.5
  1
7},{GAS_PIPE_VERTICAL_OFFSET=1.08333333333333},{HEAT_EXCHANGER_TYPE=Cross Fin Coil},{HEATING_ENTERING_DRY_BULB_TEMPERATURE=0},{HEATING_ENTERING_WET_BULB_TEMPERATURE=0},{HEATING_LEAVING_DRY_BULB_TEMPERATURE=0},{HEATING_LEAVING_WET_BULB_TEMPERATURE=0}
100
AcDbAttributeDefinition
  3

  2
PSOL_10
 70
     9
280
     0
  0
ATTDEF
  5
CD
330
B0
100
AcDbEntity
  8
AM_6
100
AcDbText
 10
425.674799999991
 20
271.662499999988
 30
0.0
 40
0.5
  1
K_HOLE_OFFSET=0.00833333333333333},{KNOCK_HOLE_RADIUS=0.164},{LATENT_COOLING_CAPACITY=0},{LIQUID_PIPE_HORIZONTAL_OFFSET=0.411458333333333},{LIQUID_PIPE_LENGTH=1.38016666666667},{LIQUID_PIPE_RADIUS=0.015625},{LIQUID_PIPE_VERTICAL_OFFSET=0.91666666666
100
AcDbAttributeDefinition
  3

  2
PSOL_11
 70
     9
280
     0
  0
ATTDEF
  5
CE
330
B0
100
AcDbEntity
  8
AM_6
100
AcDbText
 10
425.674799999991
 20
271.162499999988
 30
0.0
 40
0.5
  1
{LOAD_SUB_CLASSIFICATION_MOTOR=1},{MANUFACTURER=Daikin},{MASSUNIT=1},{MAXIMUM_AIR_FLOW=1059},{MAXIMUM_OVERCURRENT_PROTECTION=15},{MEDIAN_AIR_FLOW=882},{MINIMUM_AIR_FLOW=671},{MINIMUM_CIRCUIT_AMPS=1},{MINIMUM_FLOOR_CLEARANCE=8.33333333333333},{MINIMU
100
AcDbAttributeDefinition
  3

  2
PSOL_12
 70
     9
280
     0
  0
ATTDEF
  5
CF
330
B0
100
AcDbEntity
  8
AM_6
100
AcDbText
 10
425.674799999991
 20
270.662499999988
 30
0.0
 40
0.5
  1
ACLE_CLEARANCE=5},{MODEL=FCA30AAVJU-BYCQ54GEFU},{NO_OBSTACLES_BELOW_UNIT=1},{NOMINAL_COOLING_CAPACITY=30000},{NOMINAL_COOLING_CAPACITY__TONS_=2.5},{NOMINAL_HEATING_CAPACITY=33800},{NUMBER_OF_POLES=2},{OBSTACLES_BELOW_UNIT=0},{OMNICLASS_NUMBER=23.33.
100
AcDbAttributeDefinition
  3

  2
PSOL_13
 70
     9
280
     0
  0
ATTDEF
  5
D0
330
B0
100
AcDbEntity
  8
AM_6
100
AcDbText
 10
425.674799999991
 20
270.162499999988
 30
0.0
 40
0.5
  1
15.11},{OUT_AIR_INTAKE_H_OFFSET=0.598958333333333},{OUT_AIR_INTAKE_V_OFFSET=0.697916666666667},{OVERALL_DEPTH=33.0625},{OVERALL_HEIGHT=11.3438},{OVERALL_WIDTH=33.0625},{PARTTYPE=Normal},{PHASE=1},{REFRIGERANT_LIQUID_CONNECTION_DIAMETER=0.375},{REFRI
100
AcDbAttributeDefinition
  3

  2
PSOL_14
 70
     9
280
     0
  0
ATTDEF
  5
D1
330
B0
100
AcDbEntity
  8
AM_6
100
AcDbText
 10
425.674799999991
 20
269.662499999988
 30
0.0
 40
0.5
  1
_SUCTION_GAS_CONNECTION_DIAMETER=0.625},{REFRIGERANT_USED=R-32},{RETURN_AIR_PRESSURE_DROP=0},{SENSIBLE_COOLING_CAPACITY=0},{SERIES=SkyAir},{SUPPLY_AIR_CONNECTION_HEIGHT=0.0625},{SUPPLY_AIR_CONNECTION_WIDTH=0.0625},{SUPPLY_AIR_PRESSURE_DROP=0},{SYSTE
100
AcDbAttributeDefinition
  3

  2
PSOL_15
 70
     9
280
     0
  0
ATTDEF
  5
D2
330
B0
100
AcDbEntity
  8
AM_6
100
AcDbText
 10
425.674799999991
 20
269.162499999988
 30
0.0
 40
0.5
  1
ORMANCE_EER2=13.2},{SYSTEM_PERFORMANCE_HSPF2=10.1},{SYSTEM_PERFORMANCE_SEER2=21},{TOTAL_COOLING_CAPACITY=0},{TOTAL_HEATING_CAPACITY=0},{TOTAL_STATIC_PRESSURE=0},{UNIT_HEIGHT_CLEARANCE=8.33333333333333},{UNIT_WEIGHT=58},{URL=https://daikincomfort.com
100
AcDbAttributeDefinition
  3

  2
PSOL_16
 70
     9
280
     0
  0
ATTDEF
  5
D3
330
B0
100
AcDbEntity
  8
AM_6
100
AcDbText
 10
425.674799999991
 20
268.662499999988
 30
0.0
 40
0.5
  1
RSION=1},{VOLTAGE=240},{VOLTAGE_COMMENTS=208 VAC - 230 VAC},{VAR__NO_BRANCH_DUCT=1},{VAR__BRANCH_DUCT_SELECTOR=0},{VAR__FAN_SPEED_SELECTOR=3},{VAR__BRANCH_DUCT_FRONT_OPENING=0},{VAR__L____LOW_FAN_SPEED=671},{VAR__BRANCH_DUCT_RIGHT_OPENING=0},{VAR__M
100
AcDbAttributeDefinition
  3

  2
PSOL_17
 70
     9
280
     0
  0
ATTDEF
  5
D4
330
B0
100
AcDbEntity
  8
AM_6
100
AcDbText
 10
425.674799999991
 20
268.162499999988
 30
0.0
 40
0.5
  1
IUM_SPEED=882},{VAR__BRANCH_DUCT_BACK_OPENING=0},{VAR__H___HIGH_FAN_SPEED=1059},{VAR__BRANCH_DUCT_LEFT_OPENING=0},{RFA_FAMILY=Download Revit Family (RFA)},{DEFAULTSORTATTR=55},{RFA_FAMILY_=../../_pool_/be/62/air_conditioner-indoor-daikin-fca.zip},{R
100
AcDbAttributeDefinition
  3

  2
PSOL_18
 70
     9
280
     0
  0
ATTDEF
  5
D5
330
B0
100
AcDbEntity
  8
AM_6
100
AcDbText
 10
425.674799999991
 20
267.662499999988
 30
0.0
 40
0.5
  1
ILY_ENG=../../_pool_/be/62/air_conditioner-indoor-daikin-fca.zip},{REVIT_FAMILY_DOWNLOAD=../../_pool_/be/62/air_conditioner-indoor-daikin-fca.zip}
100
AcDbAttributeDefinition
  3

  2
PSOL_19
 70
     9
280
     0
  0
LINE
  5
D6
330
B0
100
AcDbEntity
  8
AM_9
100
AcDbLine
 10
-0.0000000000062603
 20
274.637499999988
 30
0.0
 11
-0.0000000000062603
 21
284.162499999988
 31
0.0
  0
LINE
  5
D7
330
B0
100
AcDbEntity
  8
AM_9
100
AcDbLine
 10
-0.0000000000062603
 20
274.637499999988
 30
0.0
 11
360.3625000000206
 21
274.637499999988
 31
0.0
  0
LINE
  5
D8
330
B0
100
AcDbEntity
  8
AM_9
100
AcDbLine
 10
355.599999999991
 20
284.162499999988
 30
0.0
 11
-0.0000000000062728
 21
284.162499999988
 31
0.0
  0
LINE
  5
D9
330
B0
100
AcDbEntity
  8
AM_0
100
AcDbLine
 10
360.3625000000206
 20
274.637499999988
 30
0.0
 11
420.674799999991
 21
274.637499999988
 31
0.0
  0
LINE
  5
DA
330
B0
100
AcDbEntity
  8
AM_0
100
AcDbLine
 10
420.674799999991
 20
284.162499999988
 30
0.0
 11
355.599999999991
 21
284.162499999988
 31
0.0
  0
LINE
  5
DB
330
B0
100
AcDbEntity
  8
AM_0
100
AcDbLine
 10
420.674799999991
 20
284.162499999988
 30
0.0
 11
420.674799999991
 21
274.637499999988
 31
0.0
  0
ENDBLK
  5
B3
330
B0
100
AcDbEntity
  8
0
100
AcDbBlockEnd
  0
BLOCK
  5
DE
330
DC
100
AcDbEntity
  8
0
100
AcDbBlockBegin
  2
3_FCA30AAVJU_BYCQ54GEFU_PART5_0_in_FCA30AAVJU_BYCQ54GEFU_4
 70
     2
 10
0.0
 20
0.0
 30
0.0
  3
3_FCA30AAVJU_BYCQ54GEFU_PART5_0_in_FCA30AAVJU_BYCQ54GEFU_4
  1

  0
ATTDEF
  5
E0
330
DC
100
AcDbEntity
  8
AM_6
100
AcDbText
 10
425.674799999991
 20
338.137499999988
 30
0.0
 40
0.5
  1
FCA30AAVJU-BYCQ54GEFU_PART5
100
AcDbAttributeDefinition
  3

  2
NB
 70
     8
280
     0
  0
ATTDEF
  5
E1
330
DC
100
AcDbEntity
  8
AM_6
100
AcDbText
 10
425.674799999991
 20
337.637499999988
 30
0.0
 40
0.5
  1

100
AcDbAttributeDefinition
  3

  2
NN
 70
     8
280
     0
  0
ATTDEF
  5
E2
330
DC
100
AcDbEntity
  8
AM_6
100
AcDbText
 10
425.674799999991
 20
337.137499999988
 30
0.0
 40
0.5
  1

100
AcDbAttributeDefinition
  3

  2
NT
 70
     8
280
     0
  0
ATTDEF
  5
E3
330
DC
100
AcDbEntity
  8
AM_6
100
AcDbText
 10
425.674799999991
 20
336.637499999988
 30
0.0
 40
0.5
  1
$PARTNUMBER._PART5
100
AcDbAttributeDefinition
  3

  2
NBSYN
 70
     8
280
     0
  0
ATTDEF
  5
E4
330
DC
100
AcDbEntity
  8
AM_6
100
AcDbText
 10
425.674799999991
 20
336.137499999988
 30
0.0
 40
0.5
  1
FCA30AAVJU-BYCQ54GEFU_PART5
100
AcDbAttributeDefinition
  3

  2
LINA
 70
     8
280
     0
  0
ATTDEF
  5
E5
330
DC
100
AcDbEntity
  8
AM_6
100
AcDbText
 10
425.674799999991
 20
335.637499999988
 30
0.0
 40
0.5
  1
Daikin
100
AcDbAttributeDefinition
  3

  2
CATALOG
 70
     8
280
     0
  0
ATTDEF
  5
E6
330
DC
100
AcDbEntity
  8
AM_6
100
AcDbText
 10
425.674799999991
 20
335.137499999988
 30
0.0
 40
0.5
  1
FCA30AAVJU-BYCQ54GEFU
100
AcDbAttributeDefinition
  3

  2
PARTNUMBER
 70
     8
280
     0
  0
ATTDEF
  5
E7
330
DC
100
AcDbEntity
  8
AM_6
100
AcDbText
 10
425.674799999991
 20
334.637499999988
 30
0.0
 40
0.5
  1
Air Conditioner Ducted Round Flow Cassette
100
AcDbAttributeDefinition
  3

  2
DESCRIPTION
 70
     8
280
     0
  0
ATTDEF
  5
E8
330
DC
100
AcDbEntity
  8
AM_6
100
AcDbText
 10
425.674799999991
 20
334.137499999988
 30
0.0
 40
0.5
  1
33.0625
100
AcDbAttributeDefinition
  3

  2
OVERALL_DEPTH
 70
     8
280
     0
  0
ATTDEF
  5
E9
330
DC
100
AcDbEntity
  8
AM_6
100
AcDbText
 10
425.674799999991
 20
333.637499999988
 30
0.0
 40
0.5
  1
11.3438
100
AcDbAttributeDefinition
  3

  2
OVERALL_HEIGHT
 70
     8
280
     0
  0
ATTDEF
  5
EA
330
DC
100
AcDbEntity
  8
AM_6
100
AcDbText
 10
425.674799999991
 20
333.137499999988
 30
0.0
 40
0.5
  1
33.0625
100
AcDbAttributeDefinition
  3

  2
OVERALL_WIDTH
 70
     8
280
     0
  0
ATTDEF
  5
EB
330
DC
100
AcDbEntity
  8
AM_6
100
AcDbText
 10
425.674799999991
 20
332.637499999988
 30
0.0
 40
0.5
  1
https://daikincomfort.com/
100
AcDbAttributeDefinition
  3

  2
URL
 70
     8
280
     0
  0
ATTDEF
  5
EC
330
DC
100
AcDbEntity
  8
AM_6
100
AcDbText
 10
425.674799999991
 20
332.137499999988
 30
0.0
 40
0.5
  1
Download Revit Family (RFA)
100
AcDbAttributeDefinition
  3

  2
RFA_FAMILY
 70
     8
280
     0
  0
ATTDEF
  5
ED
330
DC
100
AcDbEntity
  8
AM_6
100
AcDbText
 10
425.674799999991
 20
331.637499999988
 30
0.0
 40
0.5
  1
daikin
100
AcDbAttributeDefinition
  3

  2
COMPANY
 70
     8
280
     0
  0
ATTDEF
  5
EE
330
DC
100
AcDbEntity
  8
AM_6
100
AcDbText
 10
425.674799999991
 20
331.137499999988
 30
0.0
 40
0.5
  1
{$CADENAS_DATA/23d-libs/daikin/sky-air/sky-air20indoor20units/air_conditioner-indoor-daikin-fca.prj},240 {VTYP=3D},{NB=FCA30AAVJU-BYCQ54GEFU_PART5},{LINA=FCA30AAVJU-BYCQ54GEFU_PART5},{NN=(R32) Cassette Sky-Air Daikin FCA_PART5},{NOPRJ=TRUE},{DATE=03
100
AcDbAttributeDefinition
  3

  2
PSOL_0
 70
     9
280
     0
  0
ATTDEF
  5
EF
330
DC
100
AcDbEntity
  8
AM_6
100
AcDbText
 10
425.674799999991
 20
330.637499999988
 30
0.0
 40
0.5
  1
26 19:23:42},{GEOMDATE=23.09.2025 06:26:16},{VERSION=},{LINEID=80},{WBVAR=},{WBNUMERIC=}  {NB=FCA30AAVJU-BYCQ54GEFU_PART5},{LINA=FCA30AAVJU-BYCQ54GEFU_PART5},{KT=DUMMY},{PARTNUMBER=FCA30AAVJU-BYCQ54GEFU},{PARTNUMBERMAP09=2.5Ton_FCA30AAVJU-BYCQ54GEFU
100
AcDbAttributeDefinition
  3

  2
PSOL_1
 70
     9
280
     0
  0
ATTDEF
  5
F0
330
DC
100
AcDbEntity
  8
AM_6
100
AcDbText
 10
425.674799999991
 20
330.137499999988
 30
0.0
 40
0.5
  1
UAL_RETURN_AIR_FLOW=1059},{ACTUAL_SUPPLY_AIR_FLOW=1059},{AMBIENT_TEMPERATURE=0},{APPARENT_POWER=240},{ASSEMBLY_CODE=D3090},{BRANCH_DUCT_CENTER_OFFSET=0},{BRANCH_DUCT_DEPTH=0.00833333333333333},{BRANCH_DUCT_HEIGHT=0.3125},{BRANCH_DUCT_HORIZONTAL_OFFS
100
AcDbAttributeDefinition
  3

  2
PSOL_2
 70
     9
280
     0
  0
ATTDEF
  5
F1
330
DC
100
AcDbEntity
  8
AM_6
100
AcDbText
 10
425.674799999991
 20
329.637499999988
 30
0.0
 40
0.5
  1
26041666666667},{BRANCH_DUCT_LEFT_CENTER_OFFSET=0.0677083333333333},{BRANCH_DUCT_POSITION_ANGLE=0},{BRANCH_DUCT_REFERENCE_LENGTH=1.37760416666667},{BRANCH_DUCT_RIGHT_CENTER_OFFSET=0.0833333333333333},{BRANCH_DUCT_WIDTH=1.14583333333333},{CATEGORY=Me
100
AcDbAttributeDefinition
  3

  2
PSOL_3
 70
     9
280
     0
  0
ATTDEF
  5
F2
330
DC
100
AcDbEntity
  8
AM_6
100
AcDbText
 10
425.674799999991
 20
329.137499999988
 30
0.0
 40
0.5
  1
al Equipment},{CEILING_OPENING_SPACE_DEPTH=2.98958333333333},{CEILING_OPENING_SPACE_WIDTH=2.98958333333333},{CLEARANCE_PRIMARY_OFFSET=5},{CLEARANCE_SECONDARY_OFFSET=0.65625},{CLEARANCE_VISIBILITY=1},{COIL_AIR_PRESSURE_DROP=0},{CONDENSATE_DRAIN_CONNE
100
AcDbAttributeDefinition
  3

  2
PSOL_4
 70
     9
280
     0
  0
ATTDEF
  5
F3
330
DC
100
AcDbEntity
  8
AM_6
100
AcDbText
 10
425.674799999991
 20
328.637499999988
 30
0.0
 40
0.5
  1
DIAMETER=1.25},{CONDENSATE_DRAIN_PIPE_HORIZONTAL_OFFSET=0.583333333333333},{CONDENSATE_DRAIN_PIPE_LENGTH=1.38016666666667},{CONDENSATE_DRAIN_PIPE_RADIUS=0.0520833333333333},{CONDENSATE_DRAIN_PIPE_VERTICAL_OFFSET=1.11458333333333},{COOLING_ENTERING_D
100
AcDbAttributeDefinition
  3

  2
PSOL_5
 70
     9
280
     0
  0
ATTDEF
  5
F4
330
DC
100
AcDbEntity
  8
AM_6
100
AcDbText
 10
425.674799999991
 20
328.137499999988
 30
0.0
 40
0.5
  1
B_TEMPERATURE=0},{COOLING_ENTERING_WET_BULB_TEMPERATURE=0},{COOLING_LEAVING_DRY_BULB_TEMPERATURE=0},{COOLING_LEAVING_WET_BULB_TEMPERATURE=0},{COST=0},{DECORATION_PANEL_COVER_HEIGHT=0.135416666666667},{DECORATION_PANEL_DEPTH=3.11458333333333},{DECORA
100
AcDbAttributeDefinition
  3

  2
PSOL_6
 70
     9
280
     0
  0
ATTDEF
  5
F5
330
DC
100
AcDbEntity
  8
AM_6
100
AcDbText
 10
425.674799999991
 20
327.637499999988
 30
0.0
 40
0.5
  1
ANEL_INSIDE_HEIGHT=0.03125},{DECORATION_PANEL_OVERALL_HEIGHT=0.166666666666667},{DECORATION_PANEL_WEIGHT=12},{DECORATION_PANEL_WIDTH=3.11458333333333},{DEFAULT_ELEVATION=4},{DESCRIPTION=Air Conditioner Ducted Round Flow Cassette},{DESIGN_BRANCH_DUCT
100
AcDbAttributeDefinition
  3

  2
PSOL_7
 70
     9
280
     0
  0
ATTDEF
  5
F6
330
DC
100
AcDbEntity
  8
AM_6
100
AcDbText
 10
425.674799999991
 20
327.137499999988
 30
0.0
 40
0.5
  1
Y_AIR_FLOW=0},{DESIGN_FRESH_AIR_FLOW=0},{DESIGN_RETURN_AIR_FLOW=1059},{DESIGN_SUPPLY_AIR_FLOW=1059},{DRAIN_FLOW=0},{ENCLOSURE_DEPTH=2.75520833333333},{ENCLOSURE_FLANGE_OFFSET=2.33333333333333},{ENCLOSURE_HEIGHT=0.9453125},{ENCLOSURE_WIDTH=2.75520833
100
AcDbAttributeDefinition
  3

  2
PSOL_8
 70
     9
280
     0
  0
ATTDEF
  5
F7
330
DC
100
AcDbEntity
  8
AM_6
100
AcDbText
 10
425.674799999991
 20
326.637499999988
 30
0.0
 40
0.5
  1
},{FACE_VELOCITY__FPM_=0},{FAN_TYPE=Turbo fan},{FEET_PRESSURE_DROP=0},{FREQUENCY=60},{FRESH_AIR_INTAKE=0},{FRESH_AIR_INTAKE_RADIUS=0.0625},{GAS_PIPE_HORIZONTAL_OFFSET=0.541666666666667},{GAS_PIPE_LENGTH=1.38016666666667},{GAS_PIPE_RADIUS=0.026041666
100
AcDbAttributeDefinition
  3

  2
PSOL_9
 70
     9
280
     0
  0
ATTDEF
  5
F8
330
DC
100
AcDbEntity
  8
AM_6
100
AcDbText
 10
425.674799999991
 20
326.137499999988
 30
0.0
 40
0.5
  1
7},{GAS_PIPE_VERTICAL_OFFSET=1.08333333333333},{HEAT_EXCHANGER_TYPE=Cross Fin Coil},{HEATING_ENTERING_DRY_BULB_TEMPERATURE=0},{HEATING_ENTERING_WET_BULB_TEMPERATURE=0},{HEATING_LEAVING_DRY_BULB_TEMPERATURE=0},{HEATING_LEAVING_WET_BULB_TEMPERATURE=0}
100
AcDbAttributeDefinition
  3

  2
PSOL_10
 70
     9
280
     0
  0
ATTDEF
  5
F9
330
DC
100
AcDbEntity
  8
AM_6
100
AcDbText
 10
425.674799999991
 20
325.637499999988
 30
0.0
 40
0.5
  1
K_HOLE_OFFSET=0.00833333333333333},{KNOCK_HOLE_RADIUS=0.164},{LATENT_COOLING_CAPACITY=0},{LIQUID_PIPE_HORIZONTAL_OFFSET=0.411458333333333},{LIQUID_PIPE_LENGTH=1.38016666666667},{LIQUID_PIPE_RADIUS=0.015625},{LIQUID_PIPE_VERTICAL_OFFSET=0.91666666666
100
AcDbAttributeDefinition
  3

  2
PSOL_11
 70
     9
280
     0
  0
ATTDEF
  5
FA
330
DC
100
AcDbEntity
  8
AM_6
100
AcDbText
 10
425.674799999991
 20
325.137499999988
 30
0.0
 40
0.5
  1
{LOAD_SUB_CLASSIFICATION_MOTOR=1},{MANUFACTURER=Daikin},{MASSUNIT=1},{MAXIMUM_AIR_FLOW=1059},{MAXIMUM_OVERCURRENT_PROTECTION=15},{MEDIAN_AIR_FLOW=882},{MINIMUM_AIR_FLOW=671},{MINIMUM_CIRCUIT_AMPS=1},{MINIMUM_FLOOR_CLEARANCE=8.33333333333333},{MINIMU
100
AcDbAttributeDefinition
  3

  2
PSOL_12
 70
     9
280
     0
  0
ATTDEF
  5
FB
330
DC
100
AcDbEntity
  8
AM_6
100
AcDbText
 10
425.674799999991
 20
324.637499999988
 30
0.0
 40
0.5
  1
ACLE_CLEARANCE=5},{MODEL=FCA30AAVJU-BYCQ54GEFU},{NO_OBSTACLES_BELOW_UNIT=1},{NOMINAL_COOLING_CAPACITY=30000},{NOMINAL_COOLING_CAPACITY__TONS_=2.5},{NOMINAL_HEATING_CAPACITY=33800},{NUMBER_OF_POLES=2},{OBSTACLES_BELOW_UNIT=0},{OMNICLASS_NUMBER=23.33.
100
AcDbAttributeDefinition
  3

  2
PSOL_13
 70
     9
280
     0
  0
ATTDEF
  5
FC
330
DC
100
AcDbEntity
  8
AM_6
100
AcDbText
 10
425.674799999991
 20
324.137499999988
 30
0.0
 40
0.5
  1
15.11},{OUT_AIR_INTAKE_H_OFFSET=0.598958333333333},{OUT_AIR_INTAKE_V_OFFSET=0.697916666666667},{OVERALL_DEPTH=33.0625},{OVERALL_HEIGHT=11.3438},{OVERALL_WIDTH=33.0625},{PARTTYPE=Normal},{PHASE=1},{REFRIGERANT_LIQUID_CONNECTION_DIAMETER=0.375},{REFRI
100
AcDbAttributeDefinition
  3

  2
PSOL_14
 70
     9
280
     0
  0
ATTDEF
  5
FD
330
DC
100
AcDbEntity
  8
AM_6
100
AcDbText
 10
425.674799999991
 20
323.637499999988
 30
0.0
 40
0.5
  1
_SUCTION_GAS_CONNECTION_DIAMETER=0.625},{REFRIGERANT_USED=R-32},{RETURN_AIR_PRESSURE_DROP=0},{SENSIBLE_COOLING_CAPACITY=0},{SERIES=SkyAir},{SUPPLY_AIR_CONNECTION_HEIGHT=0.0625},{SUPPLY_AIR_CONNECTION_WIDTH=0.0625},{SUPPLY_AIR_PRESSURE_DROP=0},{SYSTE
100
AcDbAttributeDefinition
  3

  2
PSOL_15
 70
     9
280
     0
  0
ATTDEF
  5
FE
330
DC
100
AcDbEntity
  8
AM_6
100
AcDbText
 10
425.674799999991
 20
323.137499999988
 30
0.0
 40
0.5
  1
ORMANCE_EER2=13.2},{SYSTEM_PERFORMANCE_HSPF2=10.1},{SYSTEM_PERFORMANCE_SEER2=21},{TOTAL_COOLING_CAPACITY=0},{TOTAL_HEATING_CAPACITY=0},{TOTAL_STATIC_PRESSURE=0},{UNIT_HEIGHT_CLEARANCE=8.33333333333333},{UNIT_WEIGHT=58},{URL=https://daikincomfort.com
100
AcDbAttributeDefinition
  3

  2
PSOL_16
 70
     9
280
     0
  0
ATTDEF
  5
FF
330
DC
100
AcDbEntity
  8
AM_6
100
AcDbText
 10
425.674799999991
 20
322.637499999988
 30
0.0
 40
0.5
  1
RSION=1},{VOLTAGE=240},{VOLTAGE_COMMENTS=208 VAC - 230 VAC},{VAR__NO_BRANCH_DUCT=1},{VAR__BRANCH_DUCT_SELECTOR=0},{VAR__FAN_SPEED_SELECTOR=3},{VAR__BRANCH_DUCT_FRONT_OPENING=0},{VAR__L____LOW_FAN_SPEED=671},{VAR__BRANCH_DUCT_RIGHT_OPENING=0},{VAR__M
100
AcDbAttributeDefinition
  3

  2
PSOL_17
 70
     9
280
     0
  0
ATTDEF
  5
100
330
DC
100
AcDbEntity
  8
AM_6
100
AcDbText
 10
425.674799999991
 20
322.137499999988
 30
0.0
 40
0.5
  1
IUM_SPEED=882},{VAR__BRANCH_DUCT_BACK_OPENING=0},{VAR__H___HIGH_FAN_SPEED=1059},{VAR__BRANCH_DUCT_LEFT_OPENING=0},{RFA_FAMILY=Download Revit Family (RFA)},{DEFAULTSORTATTR=55},{RFA_FAMILY_=../../_pool_/be/62/air_conditioner-indoor-daikin-fca.zip},{R
100
AcDbAttributeDefinition
  3

  2
PSOL_18
 70
     9
280
     0
  0
ATTDEF
  5
101
330
DC
100
AcDbEntity
  8
AM_6
100
AcDbText
 10
425.674799999991
 20
321.637499999988
 30
0.0
 40
0.5
  1
ILY_ENG=../../_pool_/be/62/air_conditioner-indoor-daikin-fca.zip},{REVIT_FAMILY_DOWNLOAD=../../_pool_/be/62/air_conditioner-indoor-daikin-fca.zip}
100
AcDbAttributeDefinition
  3

  2
PSOL_19
 70
     9
280
     0
  0
LINE
  5
102
330
DC
100
AcDbEntity
  8
AM_9
100
AcDbLine
 10
-0.0000000000062603
 20
322.262499999988
 30
0.0
 11
-0.0000000000062603
 21
338.137499999988
 31
0.0
  0
LINE
  5
103
330
DC
100
AcDbEntity
  8
AM_9
100
AcDbLine
 10
-0.0000000000062603
 20
322.262499999988
 30
0.0
 11
355.599999999991
 21
322.262499999988
 31
0.0
  0
LINE
  5
104
330
DC
100
AcDbEntity
  8
AM_9
100
AcDbLine
 10
355.599999999991
 20
338.137499999988
 30
0.0
 11
-0.0000000000062728
 21
338.137499999988
 31
0.0
  0
LINE
  5
105
330
DC
100
AcDbEntity
  8
AM_0
100
AcDbLine
 10
355.599999999991
 20
322.262499999988
 30
0.0
 11
420.674799999991
 21
322.262499999988
 31
0.0
  0
LINE
  5
106
330
DC
100
AcDbEntity
  8
AM_0
100
AcDbLine
 10
420.674799999991
 20
338.137499999988
 30
0.0
 11
355.599999999991
 21
338.137499999988
 31
0.0
  0
LINE
  5
107
330
DC
100
AcDbEntity
  8
AM_0
100
AcDbLine
 10
420.674799999991
 20
338.137499999988
 30
0.0
 11
420.674799999991
 21
322.262499999988
 31
0.0
  0
ENDBLK
  5
DF
330
DC
100
AcDbEntity
  8
0
100
AcDbBlockEnd
  0
BLOCK
  5
10A
330
108
100
AcDbEntity
  8
0
100
AcDbBlockBegin
  2
4_FCA30AAVJU_BYCQ54GEFU_PART4_0_in_FCA30AAVJU_BYCQ54GEFU_4
 70
     2
 10
0.0
 20
0.0
 30
0.0
  3
4_FCA30AAVJU_BYCQ54GEFU_PART4_0_in_FCA30AAVJU_BYCQ54GEFU_4
  1

  0
ATTDEF
  5
10C
330
108
100
AcDbEntity
  8
AM_6
100
AcDbText
 10
424.893749999993
 20
419.893750000018
 30
0.0
 40
0.5
  1
FCA30AAVJU-BYCQ54GEFU_PART4
100
AcDbAttributeDefinition
  3

  2
NB
 70
     8
280
     0
  0
ATTDEF
  5
10D
330
108
100
AcDbEntity
  8
AM_6
100
AcDbText
 10
424.893749999993
 20
419.393750000018
 30
0.0
 40
0.5
  1

100
AcDbAttributeDefinition
  3

  2
NN
 70
     8
280
     0
  0
ATTDEF
  5
10E
330
108
100
AcDbEntity
  8
AM_6
100
AcDbText
 10
424.893749999993
 20
418.893750000018
 30
0.0
 40
0.5
  1

100
AcDbAttributeDefinition
  3

  2
NT
 70
     8
280
     0
  0
ATTDEF
  5
10F
330
108
100
AcDbEntity
  8
AM_6
100
AcDbText
 10
424.893749999993
 20
418.393750000018
 30
0.0
 40
0.5
  1
$PARTNUMBER._PART4
100
AcDbAttributeDefinition
  3

  2
NBSYN
 70
     8
280
     0
  0
ATTDEF
  5
110
330
108
100
AcDbEntity
  8
AM_6
100
AcDbText
 10
424.893749999993
 20
417.893750000018
 30
0.0
 40
0.5
  1
FCA30AAVJU-BYCQ54GEFU_PART4
100
AcDbAttributeDefinition
  3

  2
LINA
 70
     8
280
     0
  0
ATTDEF
  5
111
330
108
100
AcDbEntity
  8
AM_6
100
AcDbText
 10
424.893749999993
 20
417.393750000018
 30
0.0
 40
0.5
  1
Daikin
100
AcDbAttributeDefinition
  3

  2
CATALOG
 70
     8
280
     0
  0
ATTDEF
  5
112
330
108
100
AcDbEntity
  8
AM_6
100
AcDbText
 10
424.893749999993
 20
416.893750000018
 30
0.0
 40
0.5
  1
FCA30AAVJU-BYCQ54GEFU
100
AcDbAttributeDefinition
  3

  2
PARTNUMBER
 70
     8
280
     0
  0
ATTDEF
  5
113
330
108
100
AcDbEntity
  8
AM_6
100
AcDbText
 10
424.893749999993
 20
416.393750000018
 30
0.0
 40
0.5
  1
Air Conditioner Ducted Round Flow Cassette
100
AcDbAttributeDefinition
  3

  2
DESCRIPTION
 70
     8
280
     0
  0
ATTDEF
  5
114
330
108
100
AcDbEntity
  8
AM_6
100
AcDbText
 10
424.893749999993
 20
415.893750000018
 30
0.0
 40
0.5
  1
33.0625
100
AcDbAttributeDefinition
  3

  2
OVERALL_DEPTH
 70
     8
280
     0
  0
ATTDEF
  5
115
330
108
100
AcDbEntity
  8
AM_6
100
AcDbText
 10
424.893749999993
 20
415.393750000018
 30
0.0
 40
0.5
  1
11.3438
100
AcDbAttributeDefinition
  3

  2
OVERALL_HEIGHT
 70
     8
280
     0
  0
ATTDEF
  5
116
330
108
100
AcDbEntity
  8
AM_6
100
AcDbText
 10
424.893749999993
 20
414.893750000018
 30
0.0
 40
0.5
  1
33.0625
100
AcDbAttributeDefinition
  3

  2
OVERALL_WIDTH
 70
     8
280
     0
  0
ATTDEF
  5
117
330
108
100
AcDbEntity
  8
AM_6
100
AcDbText
 10
424.893749999993
 20
414.393750000018
 30
0.0
 40
0.5
  1
https://daikincomfort.com/
100
AcDbAttributeDefinition
  3

  2
URL
 70
     8
280
     0
  0
ATTDEF
  5
118
330
108
100
AcDbEntity
  8
AM_6
100
AcDbText
 10
424.893749999993
 20
413.893750000018
 30
0.0
 40
0.5
  1
Download Revit Family (RFA)
100
AcDbAttributeDefinition
  3

  2
RFA_FAMILY
 70
     8
280
     0
  0
ATTDEF
  5
119
330
108
100
AcDbEntity
  8
AM_6
100
AcDbText
 10
424.893749999993
 20
413.393750000018
 30
0.0
 40
0.5
  1
daikin
100
AcDbAttributeDefinition
  3

  2
COMPANY
 70
     8
280
     0
  0
ATTDEF
  5
11A
330
108
100
AcDbEntity
  8
AM_6
100
AcDbText
 10
424.893749999993
 20
412.893750000018
 30
0.0
 40
0.5
  1
{$CADENAS_DATA/23d-libs/daikin/sky-air/sky-air20indoor20units/air_conditioner-indoor-daikin-fca.prj},240 {VTYP=3D},{NB=FCA30AAVJU-BYCQ54GEFU_PART4},{LINA=FCA30AAVJU-BYCQ54GEFU_PART4},{NN=(R32) Cassette Sky-Air Daikin FCA_PART4},{NOPRJ=TRUE},{DATE=03
100
AcDbAttributeDefinition
  3

  2
PSOL_0
 70
     9
280
     0
  0
ATTDEF
  5
11B
330
108
100
AcDbEntity
  8
AM_6
100
AcDbText
 10
424.893749999993
 20
412.393750000018
 30
0.0
 40
0.5
  1
26 19:23:42},{GEOMDATE=23.09.2025 06:26:16},{VERSION=},{LINEID=80},{WBVAR=},{WBNUMERIC=}  {NB=FCA30AAVJU-BYCQ54GEFU_PART4},{LINA=FCA30AAVJU-BYCQ54GEFU_PART4},{KT=DUMMY},{PARTNUMBER=FCA30AAVJU-BYCQ54GEFU},{PARTNUMBERMAP09=2.5Ton_FCA30AAVJU-BYCQ54GEFU
100
AcDbAttributeDefinition
  3

  2
PSOL_1
 70
     9
280
     0
  0
ATTDEF
  5
11C
330
108
100
AcDbEntity
  8
AM_6
100
AcDbText
 10
424.893749999993
 20
411.893750000018
 30
0.0
 40
0.5
  1
UAL_RETURN_AIR_FLOW=1059},{ACTUAL_SUPPLY_AIR_FLOW=1059},{AMBIENT_TEMPERATURE=0},{APPARENT_POWER=240},{ASSEMBLY_CODE=D3090},{BRANCH_DUCT_CENTER_OFFSET=0},{BRANCH_DUCT_DEPTH=0.00833333333333333},{BRANCH_DUCT_HEIGHT=0.3125},{BRANCH_DUCT_HORIZONTAL_OFFS
100
AcDbAttributeDefinition
  3

  2
PSOL_2
 70
     9
280
     0
  0
ATTDEF
  5
11D
330
108
100
AcDbEntity
  8
AM_6
100
AcDbText
 10
424.893749999993
 20
411.393750000018
 30
0.0
 40
0.5
  1
26041666666667},{BRANCH_DUCT_LEFT_CENTER_OFFSET=0.0677083333333333},{BRANCH_DUCT_POSITION_ANGLE=0},{BRANCH_DUCT_REFERENCE_LENGTH=1.37760416666667},{BRANCH_DUCT_RIGHT_CENTER_OFFSET=0.0833333333333333},{BRANCH_DUCT_WIDTH=1.14583333333333},{CATEGORY=Me
100
AcDbAttributeDefinition
  3

  2
PSOL_3
 70
     9
280
     0
  0
ATTDEF
  5
11E
330
108
100
AcDbEntity
  8
AM_6
100
AcDbText
 10
424.893749999993
 20
410.893750000018
 30
0.0
 40
0.5
  1
al Equipment},{CEILING_OPENING_SPACE_DEPTH=2.98958333333333},{CEILING_OPENING_SPACE_WIDTH=2.98958333333333},{CLEARANCE_PRIMARY_OFFSET=5},{CLEARANCE_SECONDARY_OFFSET=0.65625},{CLEARANCE_VISIBILITY=1},{COIL_AIR_PRESSURE_DROP=0},{CONDENSATE_DRAIN_CONNE
100
AcDbAttributeDefinition
  3

  2
PSOL_4
 70
     9
280
     0
  0
ATTDEF
  5
11F
330
108
100
AcDbEntity
  8
AM_6
100
AcDbText
 10
424.893749999993
 20
410.393750000018
 30
0.0
 40
0.5
  1
DIAMETER=1.25},{CONDENSATE_DRAIN_PIPE_HORIZONTAL_OFFSET=0.583333333333333},{CONDENSATE_DRAIN_PIPE_LENGTH=1.38016666666667},{CONDENSATE_DRAIN_PIPE_RADIUS=0.0520833333333333},{CONDENSATE_DRAIN_PIPE_VERTICAL_OFFSET=1.11458333333333},{COOLING_ENTERING_D
100
AcDbAttributeDefinition
  3

  2
PSOL_5
 70
     9
280
     0
  0
ATTDEF
  5
120
330
108
100
AcDbEntity
  8
AM_6
100
AcDbText
 10
424.893749999993
 20
409.893750000018
 30
0.0
 40
0.5
  1
B_TEMPERATURE=0},{COOLING_ENTERING_WET_BULB_TEMPERATURE=0},{COOLING_LEAVING_DRY_BULB_TEMPERATURE=0},{COOLING_LEAVING_WET_BULB_TEMPERATURE=0},{COST=0},{DECORATION_PANEL_COVER_HEIGHT=0.135416666666667},{DECORATION_PANEL_DEPTH=3.11458333333333},{DECORA
100
AcDbAttributeDefinition
  3

  2
PSOL_6
 70
     9
280
     0
  0
ATTDEF
  5
121
330
108
100
AcDbEntity
  8
AM_6
100
AcDbText
 10
424.893749999993
 20
409.393750000018
 30
0.0
 40
0.5
  1
ANEL_INSIDE_HEIGHT=0.03125},{DECORATION_PANEL_OVERALL_HEIGHT=0.166666666666667},{DECORATION_PANEL_WEIGHT=12},{DECORATION_PANEL_WIDTH=3.11458333333333},{DEFAULT_ELEVATION=4},{DESCRIPTION=Air Conditioner Ducted Round Flow Cassette},{DESIGN_BRANCH_DUCT
100
AcDbAttributeDefinition
  3

  2
PSOL_7
 70
     9
280
     0
  0
ATTDEF
  5
122
330
108
100
AcDbEntity
  8
AM_6
100
AcDbText
 10
424.893749999993
 20
408.893750000018
 30
0.0
 40
0.5
  1
Y_AIR_FLOW=0},{DESIGN_FRESH_AIR_FLOW=0},{DESIGN_RETURN_AIR_FLOW=1059},{DESIGN_SUPPLY_AIR_FLOW=1059},{DRAIN_FLOW=0},{ENCLOSURE_DEPTH=2.75520833333333},{ENCLOSURE_FLANGE_OFFSET=2.33333333333333},{ENCLOSURE_HEIGHT=0.9453125},{ENCLOSURE_WIDTH=2.75520833
100
AcDbAttributeDefinition
  3

  2
PSOL_8
 70
     9
280
     0
  0
ATTDEF
  5
123
330
108
100
AcDbEntity
  8
AM_6
100
AcDbText
 10
424.893749999993
 20
408.393750000018
 30
0.0
 40
0.5
  1
},{FACE_VELOCITY__FPM_=0},{FAN_TYPE=Turbo fan},{FEET_PRESSURE_DROP=0},{FREQUENCY=60},{FRESH_AIR_INTAKE=0},{FRESH_AIR_INTAKE_RADIUS=0.0625},{GAS_PIPE_HORIZONTAL_OFFSET=0.541666666666667},{GAS_PIPE_LENGTH=1.38016666666667},{GAS_PIPE_RADIUS=0.026041666
100
AcDbAttributeDefinition
  3

  2
PSOL_9
 70
     9
280
     0
  0
ATTDEF
  5
124
330
108
100
AcDbEntity
  8
AM_6
100
AcDbText
 10
424.893749999993
 20
407.893750000018
 30
0.0
 40
0.5
  1
7},{GAS_PIPE_VERTICAL_OFFSET=1.08333333333333},{HEAT_EXCHANGER_TYPE=Cross Fin Coil},{HEATING_ENTERING_DRY_BULB_TEMPERATURE=0},{HEATING_ENTERING_WET_BULB_TEMPERATURE=0},{HEATING_LEAVING_DRY_BULB_TEMPERATURE=0},{HEATING_LEAVING_WET_BULB_TEMPERATURE=0}
100
AcDbAttributeDefinition
  3

  2
PSOL_10
 70
     9
280
     0
  0
ATTDEF
  5
125
330
108
100
AcDbEntity
  8
AM_6
100
AcDbText
 10
424.893749999993
 20
407.393750000018
 30
0.0
 40
0.5
  1
K_HOLE_OFFSET=0.00833333333333333},{KNOCK_HOLE_RADIUS=0.164},{LATENT_COOLING_CAPACITY=0},{LIQUID_PIPE_HORIZONTAL_OFFSET=0.411458333333333},{LIQUID_PIPE_LENGTH=1.38016666666667},{LIQUID_PIPE_RADIUS=0.015625},{LIQUID_PIPE_VERTICAL_OFFSET=0.91666666666
100
AcDbAttributeDefinition
  3

  2
PSOL_11
 70
     9
280
     0
  0
ATTDEF
  5
126
330
108
100
AcDbEntity
  8
AM_6
100
AcDbText
 10
424.893749999993
 20
406.893750000018
 30
0.0
 40
0.5
  1
{LOAD_SUB_CLASSIFICATION_MOTOR=1},{MANUFACTURER=Daikin},{MASSUNIT=1},{MAXIMUM_AIR_FLOW=1059},{MAXIMUM_OVERCURRENT_PROTECTION=15},{MEDIAN_AIR_FLOW=882},{MINIMUM_AIR_FLOW=671},{MINIMUM_CIRCUIT_AMPS=1},{MINIMUM_FLOOR_CLEARANCE=8.33333333333333},{MINIMU
100
AcDbAttributeDefinition
  3

  2
PSOL_12
 70
     9
280
     0
  0
ATTDEF
  5
127
330
108
100
AcDbEntity
  8
AM_6
100
AcDbText
 10
424.893749999993
 20
406.393750000018
 30
0.0
 40
0.5
  1
ACLE_CLEARANCE=5},{MODEL=FCA30AAVJU-BYCQ54GEFU},{NO_OBSTACLES_BELOW_UNIT=1},{NOMINAL_COOLING_CAPACITY=30000},{NOMINAL_COOLING_CAPACITY__TONS_=2.5},{NOMINAL_HEATING_CAPACITY=33800},{NUMBER_OF_POLES=2},{OBSTACLES_BELOW_UNIT=0},{OMNICLASS_NUMBER=23.33.
100
AcDbAttributeDefinition
  3

  2
PSOL_13
 70
     9
280
     0
  0
ATTDEF
  5
128
330
108
100
AcDbEntity
  8
AM_6
100
AcDbText
 10
424.893749999993
 20
405.893750000018
 30
0.0
 40
0.5
  1
15.11},{OUT_AIR_INTAKE_H_OFFSET=0.598958333333333},{OUT_AIR_INTAKE_V_OFFSET=0.697916666666667},{OVERALL_DEPTH=33.0625},{OVERALL_HEIGHT=11.3438},{OVERALL_WIDTH=33.0625},{PARTTYPE=Normal},{PHASE=1},{REFRIGERANT_LIQUID_CONNECTION_DIAMETER=0.375},{REFRI
100
AcDbAttributeDefinition
  3

  2
PSOL_14
 70
     9
280
     0
  0
ATTDEF
  5
129
330
108
100
AcDbEntity
  8
AM_6
100
AcDbText
 10
424.893749999993
 20
405.393750000018
 30
0.0
 40
0.5
  1
_SUCTION_GAS_CONNECTION_DIAMETER=0.625},{REFRIGERANT_USED=R-32},{RETURN_AIR_PRESSURE_DROP=0},{SENSIBLE_COOLING_CAPACITY=0},{SERIES=SkyAir},{SUPPLY_AIR_CONNECTION_HEIGHT=0.0625},{SUPPLY_AIR_CONNECTION_WIDTH=0.0625},{SUPPLY_AIR_PRESSURE_DROP=0},{SYSTE
100
AcDbAttributeDefinition
  3

  2
PSOL_15
 70
     9
280
     0
  0
ATTDEF
  5
12A
330
108
100
AcDbEntity
  8
AM_6
100
AcDbText
 10
424.893749999993
 20
404.893750000018
 30
0.0
 40
0.5
  1
ORMANCE_EER2=13.2},{SYSTEM_PERFORMANCE_HSPF2=10.1},{SYSTEM_PERFORMANCE_SEER2=21},{TOTAL_COOLING_CAPACITY=0},{TOTAL_HEATING_CAPACITY=0},{TOTAL_STATIC_PRESSURE=0},{UNIT_HEIGHT_CLEARANCE=8.33333333333333},{UNIT_WEIGHT=58},{URL=https://daikincomfort.com
100
AcDbAttributeDefinition
  3

  2
PSOL_16
 70
     9
280
     0
  0
ATTDEF
  5
12B
330
108
100
AcDbEntity
  8
AM_6
100
AcDbText
 10
424.893749999993
 20
404.393750000018
 30
0.0
 40
0.5
  1
RSION=1},{VOLTAGE=240},{VOLTAGE_COMMENTS=208 VAC - 230 VAC},{VAR__NO_BRANCH_DUCT=1},{VAR__BRANCH_DUCT_SELECTOR=0},{VAR__FAN_SPEED_SELECTOR=3},{VAR__BRANCH_DUCT_FRONT_OPENING=0},{VAR__L____LOW_FAN_SPEED=671},{VAR__BRANCH_DUCT_RIGHT_OPENING=0},{VAR__M
100
AcDbAttributeDefinition
  3

  2
PSOL_17
 70
     9
280
     0
  0
ATTDEF
  5
12C
330
108
100
AcDbEntity
  8
AM_6
100
AcDbText
 10
424.893749999993
 20
403.893750000018
 30
0.0
 40
0.5
  1
IUM_SPEED=882},{VAR__BRANCH_DUCT_BACK_OPENING=0},{VAR__H___HIGH_FAN_SPEED=1059},{VAR__BRANCH_DUCT_LEFT_OPENING=0},{RFA_FAMILY=Download Revit Family (RFA)},{DEFAULTSORTATTR=55},{RFA_FAMILY_=../../_pool_/be/62/air_conditioner-indoor-daikin-fca.zip},{R
100
AcDbAttributeDefinition
  3

  2
PSOL_18
 70
     9
280
     0
  0
ATTDEF
  5
12D
330
108
100
AcDbEntity
  8
AM_6
100
AcDbText
 10
424.893749999993
 20
403.393750000018
 30
0.0
 40
0.5
  1
ILY_ENG=../../_pool_/be/62/air_conditioner-indoor-daikin-fca.zip},{REVIT_FAMILY_DOWNLOAD=../../_pool_/be/62/air_conditioner-indoor-daikin-fca.zip}
100
AcDbAttributeDefinition
  3

  2
PSOL_19
 70
     9
280
     0
  0
LINE
  5
12E
330
108
100
AcDbEntity
  8
AM_9
100
AcDbLine
 10
-174.6250000000047
 20
417.353749999991
 30
0.0
 11
-174.6250000000047
 21
419.8937500000153
 31
0.0
  0
LINE
  5
12F
330
108
100
AcDbEntity
  8
AM_9
100
AcDbLine
 10
174.6249999999953
 20
419.8937500000153
 30
0.0
 11
174.6249999999953
 21
417.353749999992
 31
0.0
  0
LINE
  5
130
330
108
100
AcDbEntity
  8
AM_9
100
AcDbLine
 10
174.6249999999953
 20
417.353749999992
 30
0.0
 11
-174.6250000000047
 21
417.353749999991
 31
0.0
  0
LINE
  5
131
330
108
100
AcDbEntity
  8
AM_9
100
AcDbLine
 10
-417.3537500000037
 20
149.22499999999
 30
0.0
 11
-417.3537500000035
 21
-200.02500000001
 31
0.0
  0
LINE
  5
132
330
108
100
AcDbEntity
  8
AM_9
100
AcDbLine
 10
417.353749999995
 20
-195.262500000007
 30
0.0
 11
417.353749999994
 21
153.987499999993
 31
0.0
  0
LINE
  5
133
330
108
100
AcDbEntity
  8
AM_9
100
AcDbLine
 10
-174.625000000004
 20
-417.353750000009
 30
0.0
 11
174.624999999996
 21
-417.3537500000079
 31
0.0
  0
LINE
  5
134
330
108
100
AcDbEntity
  8
AM_9
100
AcDbLine
 10
-174.625000000004
 20
-419.8937499999963
 30
0.0
 11
-174.625000000004
 21
-417.353750000009
 31
0.0
  0
LINE
  5
135
330
108
100
AcDbEntity
  8
AM_9
100
AcDbLine
 10
174.624999999996
 20
-417.3537500000079
 30
0.0
 11
174.6249999999957
 21
-419.8937499999964
 31
0.0
  0
LINE
  5
136
330
108
100
AcDbEntity
  8
AM_9
100
AcDbLine
 10
419.893749999993
 20
-195.262500000007
 30
0.0
 11
417.353749999995
 21
-195.262500000007
 31
0.0
  0
LINE
  5
137
330
108
100
AcDbEntity
  8
AM_9
100
AcDbLine
 10
-417.3537500000035
 20
-200.02500000001
 30
0.0
 11
-419.893750000007
 21
-200.02500000001
 31
0.0
  0
LINE
  5
138
330
108
100
AcDbEntity
  8
AM_9
100
AcDbLine
 10
-419.893750000008
 20
149.22499999999
 30
0.0
 11
-417.3537500000037
 21
149.22499999999
 31
0.0
  0
LINE
  5
139
330
108
100
AcDbEntity
  8
AM_9
100
AcDbLine
 10
417.353749999994
 20
153.987499999993
 30
0.0
 11
419.893749999992
 21
153.987499999993
 31
0.0
  0
LINE
  5
13A
330
108
100
AcDbEntity
  8
AM_9
100
AcDbLine
 10
-417.353750000003
 20
162.737799999991
 30
0.0
 11
-417.353750000003
 21
262.712199999991
 31
0.0
  0
LINE
  5
13B
330
108
100
AcDbEntity
  8
AM_9
100
AcDbLine
 10
-419.893750000009
 20
162.737799999991
 30
0.0
 11
-417.353750000003
 21
162.737799999991
 31
0.0
  0
LINE
  5
13C
330
108
100
AcDbEntity
  8
AM_9
100
AcDbLine
 10
-417.353750000003
 20
262.712199999991
 30
0.0
 11
-419.893750000009
 21
262.712199999991
 31
0.0
  0
LINE
  5
13D
330
108
100
AcDbEntity
  8
AM_0
100
AcDbLine
 10
291.3062499999911
 20
-419.893749999993
 30
0.0
 11
419.8937499999911
 21
-291.306249999993
 31
0.0
  0
LINE
  5
13E
330
108
100
AcDbEntity
  8
AM_0
100
AcDbLine
 10
-291.3062500000093
 20
-419.893749999993
 30
0.0
 11
291.3062499999911
 21
-419.893749999993
 31
0.0
  0
LINE
  5
13F
330
108
100
AcDbEntity
  8
AM_0
100
AcDbLine
 10
355.599999999991
 20
279.4000000000176
 30
0.0
 11
355.599999999991
 21
419.893750000018
 31
0.0
  0
LINE
  5
140
330
108
100
AcDbEntity
  8
AM_0
100
AcDbLine
 10
355.599999999991
 20
419.893750000018
 30
0.0
 11
-291.306249999997
 21
419.8937500000179
 31
0.0
  0
LINE
  5
141
330
108
100
AcDbEntity
  8
AM_0
100
AcDbLine
 10
-291.306249999997
 20
419.8937500000179
 30
0.0
 11
-419.893750000009
 21
291.3062500000063
 31
0.0
  0
LINE
  5
142
330
108
100
AcDbEntity
  8
AM_0
100
AcDbLine
 10
-419.893750000009
 20
291.3062500000063
 30
0.0
 11
-419.893750000009
 21
-291.306249999993
 31
0.0
  0
LINE
  5
143
330
108
100
AcDbEntity
  8
AM_0
100
AcDbLine
 10
-419.893750000009
 20
-291.306249999993
 30
0.0
 11
-291.3062500000093
 21
-419.893749999993
 31
0.0
  0
LINE
  5
144
330
108
100
AcDbEntity
  8
AM_0
100
AcDbLine
 10
419.8937499999911
 20
-291.306249999993
 30
0.0
 11
419.893749999991
 21
215.106250000017
 31
0.0
  0
LINE
  5
145
330
108
100
AcDbEntity
  8
AM_0
100
AcDbLine
 10
419.893749999991
 20
215.106250000017
 30
0.0
 11
355.599999999991
 21
279.4000000000176
 31
0.0
  0
ENDBLK
  5
10B
330
108
100
AcDbEntity
  8
0
100
AcDbBlockEnd
  0
BLOCK
  5
148
330
146
100
AcDbEntity
  8
0
100
AcDbBlockBegin
  2
5_FCA30AAVJU_BYCQ54GEFU_PART2_0_in_FCA30AAVJU_BYCQ54GEFU_4
 70
     2
 10
0.0
 20
0.0
 30
0.0
  3
5_FCA30AAVJU_BYCQ54GEFU_PART2_0_in_FCA30AAVJU_BYCQ54GEFU_4
  1

  0
ATTDEF
  5
14A
330
146
100
AcDbEntity
  8
AM_6
100
AcDbText
 10
479.6625032991342
 20
474.6625038071776
 30
0.0
 40
0.5
  1
FCA30AAVJU-BYCQ54GEFU_PART2
100
AcDbAttributeDefinition
  3

  2
NB
 70
     8
280
     0
  0
ATTDEF
  5
14B
330
146
100
AcDbEntity
  8
AM_6
100
AcDbText
 10
479.6625032991342
 20
474.1625038071776
 30
0.0
 40
0.5
  1

100
AcDbAttributeDefinition
  3

  2
NN
 70
     8
280
     0
  0
ATTDEF
  5
14C
330
146
100
AcDbEntity
  8
AM_6
100
AcDbText
 10
479.6625032991342
 20
473.6625038071776
 30
0.0
 40
0.5
  1

100
AcDbAttributeDefinition
  3

  2
NT
 70
     8
280
     0
  0
ATTDEF
  5
14D
330
146
100
AcDbEntity
  8
AM_6
100
AcDbText
 10
479.6625032991342
 20
473.1625038071776
 30
0.0
 40
0.5
  1
$PARTNUMBER._PART2
100
AcDbAttributeDefinition
  3

  2
NBSYN
 70
     8
280
     0
  0
ATTDEF
  5
14E
330
146
100
AcDbEntity
  8
AM_6
100
AcDbText
 10
479.6625032991342
 20
472.6625038071776
 30
0.0
 40
0.5
  1
FCA30AAVJU-BYCQ54GEFU_PART2
100
AcDbAttributeDefinition
  3

  2
LINA
 70
     8
280
     0
  0
ATTDEF
  5
14F
330
146
100
AcDbEntity
  8
AM_6
100
AcDbText
 10
479.6625032991342
 20
472.1625038071776
 30
0.0
 40
0.5
  1
Daikin
100
AcDbAttributeDefinition
  3

  2
CATALOG
 70
     8
280
     0
  0
ATTDEF
  5
150
330
146
100
AcDbEntity
  8
AM_6
100
AcDbText
 10
479.6625032991342
 20
471.6625038071776
 30
0.0
 40
0.5
  1
FCA30AAVJU-BYCQ54GEFU
100
AcDbAttributeDefinition
  3

  2
PARTNUMBER
 70
     8
280
     0
  0
ATTDEF
  5
151
330
146
100
AcDbEntity
  8
AM_6
100
AcDbText
 10
479.6625032991342
 20
471.1625038071776
 30
0.0
 40
0.5
  1
Air Conditioner Ducted Round Flow Cassette
100
AcDbAttributeDefinition
  3

  2
DESCRIPTION
 70
     8
280
     0
  0
ATTDEF
  5
152
330
146
100
AcDbEntity
  8
AM_6
100
AcDbText
 10
479.6625032991342
 20
470.6625038071776
 30
0.0
 40
0.5
  1
33.0625
100
AcDbAttributeDefinition
  3

  2
OVERALL_DEPTH
 70
     8
280
     0
  0
ATTDEF
  5
153
330
146
100
AcDbEntity
  8
AM_6
100
AcDbText
 10
479.6625032991342
 20
470.1625038071776
 30
0.0
 40
0.5
  1
11.3438
100
AcDbAttributeDefinition
  3

  2
OVERALL_HEIGHT
 70
     8
280
     0
  0
ATTDEF
  5
154
330
146
100
AcDbEntity
  8
AM_6
100
AcDbText
 10
479.6625032991342
 20
469.6625038071776
 30
0.0
 40
0.5
  1
33.0625
100
AcDbAttributeDefinition
  3

  2
OVERALL_WIDTH
 70
     8
280
     0
  0
ATTDEF
  5
155
330
146
100
AcDbEntity
  8
AM_6
100
AcDbText
 10
479.6625032991342
 20
469.1625038071776
 30
0.0
 40
0.5
  1
https://daikincomfort.com/
100
AcDbAttributeDefinition
  3

  2
URL
 70
     8
280
     0
  0
ATTDEF
  5
156
330
146
100
AcDbEntity
  8
AM_6
100
AcDbText
 10
479.6625032991342
 20
468.6625038071776
 30
0.0
 40
0.5
  1
Download Revit Family (RFA)
100
AcDbAttributeDefinition
  3

  2
RFA_FAMILY
 70
     8
280
     0
  0
ATTDEF
  5
157
330
146
100
AcDbEntity
  8
AM_6
100
AcDbText
 10
479.6625032991342
 20
468.1625038071776
 30
0.0
 40
0.5
  1
daikin
100
AcDbAttributeDefinition
  3

  2
COMPANY
 70
     8
280
     0
  0
ATTDEF
  5
158
330
146
100
AcDbEntity
  8
AM_6
100
AcDbText
 10
479.6625032991342
 20
467.6625038071776
 30
0.0
 40
0.5
  1
{$CADENAS_DATA/23d-libs/daikin/sky-air/sky-air20indoor20units/air_conditioner-indoor-daikin-fca.prj},240 {VTYP=3D},{NB=FCA30AAVJU-BYCQ54GEFU_PART2},{LINA=FCA30AAVJU-BYCQ54GEFU_PART2},{NN=(R32) Cassette Sky-Air Daikin FCA_PART2},{NOPRJ=TRUE},{DATE=03
100
AcDbAttributeDefinition
  3

  2
PSOL_0
 70
     9
280
     0
  0
ATTDEF
  5
159
330
146
100
AcDbEntity
  8
AM_6
100
AcDbText
 10
479.6625032991342
 20
467.1625038071776
 30
0.0
 40
0.5
  1
26 19:23:42},{GEOMDATE=23.09.2025 06:26:16},{VERSION=},{LINEID=80},{WBVAR=},{WBNUMERIC=}  {NB=FCA30AAVJU-BYCQ54GEFU_PART2},{LINA=FCA30AAVJU-BYCQ54GEFU_PART2},{KT=DUMMY},{PARTNUMBER=FCA30AAVJU-BYCQ54GEFU},{PARTNUMBERMAP09=2.5Ton_FCA30AAVJU-BYCQ54GEFU
100
AcDbAttributeDefinition
  3

  2
PSOL_1
 70
     9
280
     0
  0
ATTDEF
  5
15A
330
146
100
AcDbEntity
  8
AM_6
100
AcDbText
 10
479.6625032991342
 20
466.6625038071776
 30
0.0
 40
0.5
  1
UAL_RETURN_AIR_FLOW=1059},{ACTUAL_SUPPLY_AIR_FLOW=1059},{AMBIENT_TEMPERATURE=0},{APPARENT_POWER=240},{ASSEMBLY_CODE=D3090},{BRANCH_DUCT_CENTER_OFFSET=0},{BRANCH_DUCT_DEPTH=0.00833333333333333},{BRANCH_DUCT_HEIGHT=0.3125},{BRANCH_DUCT_HORIZONTAL_OFFS
100
AcDbAttributeDefinition
  3

  2
PSOL_2
 70
     9
280
     0
  0
ATTDEF
  5
15B
330
146
100
AcDbEntity
  8
AM_6
100
AcDbText
 10
479.6625032991342
 20
466.1625038071776
 30
0.0
 40
0.5
  1
26041666666667},{BRANCH_DUCT_LEFT_CENTER_OFFSET=0.0677083333333333},{BRANCH_DUCT_POSITION_ANGLE=0},{BRANCH_DUCT_REFERENCE_LENGTH=1.37760416666667},{BRANCH_DUCT_RIGHT_CENTER_OFFSET=0.0833333333333333},{BRANCH_DUCT_WIDTH=1.14583333333333},{CATEGORY=Me
100
AcDbAttributeDefinition
  3

  2
PSOL_3
 70
     9
280
     0
  0
ATTDEF
  5
15C
330
146
100
AcDbEntity
  8
AM_6
100
AcDbText
 10
479.6625032991342
 20
465.6625038071776
 30
0.0
 40
0.5
  1
al Equipment},{CEILING_OPENING_SPACE_DEPTH=2.98958333333333},{CEILING_OPENING_SPACE_WIDTH=2.98958333333333},{CLEARANCE_PRIMARY_OFFSET=5},{CLEARANCE_SECONDARY_OFFSET=0.65625},{CLEARANCE_VISIBILITY=1},{COIL_AIR_PRESSURE_DROP=0},{CONDENSATE_DRAIN_CONNE
100
AcDbAttributeDefinition
  3

  2
PSOL_4
 70
     9
280
     0
  0
ATTDEF
  5
15D
330
146
100
AcDbEntity
  8
AM_6
100
AcDbText
 10
479.6625032991342
 20
465.1625038071776
 30
0.0
 40
0.5
  1
DIAMETER=1.25},{CONDENSATE_DRAIN_PIPE_HORIZONTAL_OFFSET=0.583333333333333},{CONDENSATE_DRAIN_PIPE_LENGTH=1.38016666666667},{CONDENSATE_DRAIN_PIPE_RADIUS=0.0520833333333333},{CONDENSATE_DRAIN_PIPE_VERTICAL_OFFSET=1.11458333333333},{COOLING_ENTERING_D
100
AcDbAttributeDefinition
  3

  2
PSOL_5
 70
     9
280
     0
  0
ATTDEF
  5
15E
330
146
100
AcDbEntity
  8
AM_6
100
AcDbText
 10
479.6625032991342
 20
464.6625038071776
 30
0.0
 40
0.5
  1
B_TEMPERATURE=0},{COOLING_ENTERING_WET_BULB_TEMPERATURE=0},{COOLING_LEAVING_DRY_BULB_TEMPERATURE=0},{COOLING_LEAVING_WET_BULB_TEMPERATURE=0},{COST=0},{DECORATION_PANEL_COVER_HEIGHT=0.135416666666667},{DECORATION_PANEL_DEPTH=3.11458333333333},{DECORA
100
AcDbAttributeDefinition
  3

  2
PSOL_6
 70
     9
280
     0
  0
ATTDEF
  5
15F
330
146
100
AcDbEntity
  8
AM_6
100
AcDbText
 10
479.6625032991342
 20
464.1625038071776
 30
0.0
 40
0.5
  1
ANEL_INSIDE_HEIGHT=0.03125},{DECORATION_PANEL_OVERALL_HEIGHT=0.166666666666667},{DECORATION_PANEL_WEIGHT=12},{DECORATION_PANEL_WIDTH=3.11458333333333},{DEFAULT_ELEVATION=4},{DESCRIPTION=Air Conditioner Ducted Round Flow Cassette},{DESIGN_BRANCH_DUCT
100
AcDbAttributeDefinition
  3

  2
PSOL_7
 70
     9
280
     0
  0
ATTDEF
  5
160
330
146
100
AcDbEntity
  8
AM_6
100
AcDbText
 10
479.6625032991342
 20
463.6625038071776
 30
0.0
 40
0.5
  1
Y_AIR_FLOW=0},{DESIGN_FRESH_AIR_FLOW=0},{DESIGN_RETURN_AIR_FLOW=1059},{DESIGN_SUPPLY_AIR_FLOW=1059},{DRAIN_FLOW=0},{ENCLOSURE_DEPTH=2.75520833333333},{ENCLOSURE_FLANGE_OFFSET=2.33333333333333},{ENCLOSURE_HEIGHT=0.9453125},{ENCLOSURE_WIDTH=2.75520833
100
AcDbAttributeDefinition
  3

  2
PSOL_8
 70
     9
280
     0
  0
ATTDEF
  5
161
330
146
100
AcDbEntity
  8
AM_6
100
AcDbText
 10
479.6625032991342
 20
463.1625038071776
 30
0.0
 40
0.5
  1
},{FACE_VELOCITY__FPM_=0},{FAN_TYPE=Turbo fan},{FEET_PRESSURE_DROP=0},{FREQUENCY=60},{FRESH_AIR_INTAKE=0},{FRESH_AIR_INTAKE_RADIUS=0.0625},{GAS_PIPE_HORIZONTAL_OFFSET=0.541666666666667},{GAS_PIPE_LENGTH=1.38016666666667},{GAS_PIPE_RADIUS=0.026041666
100
AcDbAttributeDefinition
  3

  2
PSOL_9
 70
     9
280
     0
  0
ATTDEF
  5
162
330
146
100
AcDbEntity
  8
AM_6
100
AcDbText
 10
479.6625032991342
 20
462.6625038071776
 30
0.0
 40
0.5
  1
7},{GAS_PIPE_VERTICAL_OFFSET=1.08333333333333},{HEAT_EXCHANGER_TYPE=Cross Fin Coil},{HEATING_ENTERING_DRY_BULB_TEMPERATURE=0},{HEATING_ENTERING_WET_BULB_TEMPERATURE=0},{HEATING_LEAVING_DRY_BULB_TEMPERATURE=0},{HEATING_LEAVING_WET_BULB_TEMPERATURE=0}
100
AcDbAttributeDefinition
  3

  2
PSOL_10
 70
     9
280
     0
  0
ATTDEF
  5
163
330
146
100
AcDbEntity
  8
AM_6
100
AcDbText
 10
479.6625032991342
 20
462.1625038071776
 30
0.0
 40
0.5
  1
K_HOLE_OFFSET=0.00833333333333333},{KNOCK_HOLE_RADIUS=0.164},{LATENT_COOLING_CAPACITY=0},{LIQUID_PIPE_HORIZONTAL_OFFSET=0.411458333333333},{LIQUID_PIPE_LENGTH=1.38016666666667},{LIQUID_PIPE_RADIUS=0.015625},{LIQUID_PIPE_VERTICAL_OFFSET=0.91666666666
100
AcDbAttributeDefinition
  3

  2
PSOL_11
 70
     9
280
     0
  0
ATTDEF
  5
164
330
146
100
AcDbEntity
  8
AM_6
100
AcDbText
 10
479.6625032991342
 20
461.6625038071776
 30
0.0
 40
0.5
  1
{LOAD_SUB_CLASSIFICATION_MOTOR=1},{MANUFACTURER=Daikin},{MASSUNIT=1},{MAXIMUM_AIR_FLOW=1059},{MAXIMUM_OVERCURRENT_PROTECTION=15},{MEDIAN_AIR_FLOW=882},{MINIMUM_AIR_FLOW=671},{MINIMUM_CIRCUIT_AMPS=1},{MINIMUM_FLOOR_CLEARANCE=8.33333333333333},{MINIMU
100
AcDbAttributeDefinition
  3

  2
PSOL_12
 70
     9
280
     0
  0
ATTDEF
  5
165
330
146
100
AcDbEntity
  8
AM_6
100
AcDbText
 10
479.6625032991342
 20
461.1625038071776
 30
0.0
 40
0.5
  1
ACLE_CLEARANCE=5},{MODEL=FCA30AAVJU-BYCQ54GEFU},{NO_OBSTACLES_BELOW_UNIT=1},{NOMINAL_COOLING_CAPACITY=30000},{NOMINAL_COOLING_CAPACITY__TONS_=2.5},{NOMINAL_HEATING_CAPACITY=33800},{NUMBER_OF_POLES=2},{OBSTACLES_BELOW_UNIT=0},{OMNICLASS_NUMBER=23.33.
100
AcDbAttributeDefinition
  3

  2
PSOL_13
 70
     9
280
     0
  0
ATTDEF
  5
166
330
146
100
AcDbEntity
  8
AM_6
100
AcDbText
 10
479.6625032991342
 20
460.6625038071776
 30
0.0
 40
0.5
  1
15.11},{OUT_AIR_INTAKE_H_OFFSET=0.598958333333333},{OUT_AIR_INTAKE_V_OFFSET=0.697916666666667},{OVERALL_DEPTH=33.0625},{OVERALL_HEIGHT=11.3438},{OVERALL_WIDTH=33.0625},{PARTTYPE=Normal},{PHASE=1},{REFRIGERANT_LIQUID_CONNECTION_DIAMETER=0.375},{REFRI
100
AcDbAttributeDefinition
  3

  2
PSOL_14
 70
     9
280
     0
  0
ATTDEF
  5
167
330
146
100
AcDbEntity
  8
AM_6
100
AcDbText
 10
479.6625032991342
 20
460.1625038071776
 30
0.0
 40
0.5
  1
_SUCTION_GAS_CONNECTION_DIAMETER=0.625},{REFRIGERANT_USED=R-32},{RETURN_AIR_PRESSURE_DROP=0},{SENSIBLE_COOLING_CAPACITY=0},{SERIES=SkyAir},{SUPPLY_AIR_CONNECTION_HEIGHT=0.0625},{SUPPLY_AIR_CONNECTION_WIDTH=0.0625},{SUPPLY_AIR_PRESSURE_DROP=0},{SYSTE
100
AcDbAttributeDefinition
  3

  2
PSOL_15
 70
     9
280
     0
  0
ATTDEF
  5
168
330
146
100
AcDbEntity
  8
AM_6
100
AcDbText
 10
479.6625032991342
 20
459.6625038071776
 30
0.0
 40
0.5
  1
ORMANCE_EER2=13.2},{SYSTEM_PERFORMANCE_HSPF2=10.1},{SYSTEM_PERFORMANCE_SEER2=21},{TOTAL_COOLING_CAPACITY=0},{TOTAL_HEATING_CAPACITY=0},{TOTAL_STATIC_PRESSURE=0},{UNIT_HEIGHT_CLEARANCE=8.33333333333333},{UNIT_WEIGHT=58},{URL=https://daikincomfort.com
100
AcDbAttributeDefinition
  3

  2
PSOL_16
 70
     9
280
     0
  0
ATTDEF
  5
169
330
146
100
AcDbEntity
  8
AM_6
100
AcDbText
 10
479.6625032991342
 20
459.1625038071776
 30
0.0
 40
0.5
  1
RSION=1},{VOLTAGE=240},{VOLTAGE_COMMENTS=208 VAC - 230 VAC},{VAR__NO_BRANCH_DUCT=1},{VAR__BRANCH_DUCT_SELECTOR=0},{VAR__FAN_SPEED_SELECTOR=3},{VAR__BRANCH_DUCT_FRONT_OPENING=0},{VAR__L____LOW_FAN_SPEED=671},{VAR__BRANCH_DUCT_RIGHT_OPENING=0},{VAR__M
100
AcDbAttributeDefinition
  3

  2
PSOL_17
 70
     9
280
     0
  0
ATTDEF
  5
16A
330
146
100
AcDbEntity
  8
AM_6
100
AcDbText
 10
479.6625032991342
 20
458.6625038071776
 30
0.0
 40
0.5
  1
IUM_SPEED=882},{VAR__BRANCH_DUCT_BACK_OPENING=0},{VAR__H___HIGH_FAN_SPEED=1059},{VAR__BRANCH_DUCT_LEFT_OPENING=0},{RFA_FAMILY=Download Revit Family (RFA)},{DEFAULTSORTATTR=55},{RFA_FAMILY_=../../_pool_/be/62/air_conditioner-indoor-daikin-fca.zip},{R
100
AcDbAttributeDefinition
  3

  2
PSOL_18
 70
     9
280
     0
  0
ATTDEF
  5
16B
330
146
100
AcDbEntity
  8
AM_6
100
AcDbText
 10
479.6625032991342
 20
458.1625038071776
 30
0.0
 40
0.5
  1
ILY_ENG=../../_pool_/be/62/air_conditioner-indoor-daikin-fca.zip},{REVIT_FAMILY_DOWNLOAD=../../_pool_/be/62/air_conditioner-indoor-daikin-fca.zip}
100
AcDbAttributeDefinition
  3

  2
PSOL_19
 70
     9
280
     0
  0
ARC
  5
16C
330
146
100
AcDbEntity
  8
AM_9
100
AcDbCircle
 10
216.4460999999974
 20
216.4460999999931
 30
0.0
 40
37.97299999999956
100
AcDbArc
 50
0.0000000000000429
 51
90.00000000000074
  0
LINE
  5
16D
330
146
100
AcDbEntity
  8
AM_9
100
AcDbLine
 10
-216.446100000002
 20
254.4190999999906
 30
0.0
 11
216.446099999997
 21
254.4190999999926
 31
0.0
  0
ARC
  5
16E
330
146
100
AcDbEntity
  8
AM_9
100
AcDbCircle
 10
-216.4461000000001
 20
216.4460999999878
 30
0.0
 40
37.97300000000286
100
AcDbArc
 50
90.00000000000291
 51
179.9999999999972
  0
LINE
  5
16F
330
146
100
AcDbEntity
  8
AM_9
100
AcDbLine
 10
254.419099999997
 20
216.4460999999931
 30
0.0
 11
254.4190999999989
 21
-216.4461000000099
 31
0.0
  0
LINE
  5
170
330
146
100
AcDbEntity
  8
AM_9
100
AcDbLine
 10
-254.419100000002
 20
-216.4461000000101
 30
0.0
 11
-254.4191000000029
 21
216.4460999999896
 31
0.0
  0
LINE
  5
171
330
146
100
AcDbEntity
  8
AM_9
100
AcDbLine
 10
216.4461
 20
-254.4191000000086
 30
0.0
 11
-216.4461000000019
 21
-254.4191000000096
 31
0.0
  0
ARC
  5
172
330
146
100
AcDbEntity
  8
AM_9
100
AcDbCircle
 10
-216.4461000000024
 20
-216.44610000001
 30
0.0
 40
37.97299999999964
100
AcDbArc
 50
180.0000000000002
 51
270.0000000000007
  0
ARC
  5
173
330
146
100
AcDbEntity
  8
AM_9
100
AcDbCircle
 10
216.4461000000029
 20
-216.4461000000126
 30
0.0
 40
37.97299999999603
100
AcDbArc
 50
269.9999999999957
 51
0.0000000000039882
  0
LINE
  5
174
330
146
100
AcDbEntity
  8
AM_9
100
AcDbLine
 10
-474.662503518672
 20
-248.2586554246905
 30
0.0
 11
-387.3171299138049
 21
-242.6444538544127
 31
0.0
  0
ARC
  5
175
330
146
100
AcDbEntity
  8
AM_9
100
AcDbCircle
 10
0.0000000250004319
 20
-1834.661192818069
 30
0.0
 40
2222.957342829771
100
AcDbArc
 50
83.95963471475399
 51
96.04036528522177
  0
ARC
  5
176
330
146
100
AcDbEntity
  8
AM_9
100
AcDbCircle
 10
0.0000000090994803
 20
-1834.661192301052
 30
0.0
 40
2241.943842319509
100
AcDbArc
 50
83.98373141670902
 51
96.01626858329158
  0
ARC
  5
177
330
146
100
AcDbEntity
  8
AM_9
100
AcDbCircle
 10
233.5117250178746
 20
241.1285499999838
 30
0.0
 40
115.8398750184642
100
AcDbArc
 50
359.7185488189925
 51
90.29065676866892
  0
ARC
  5
178
330
146
100
AcDbEntity
  8
AM_9
100
AcDbCircle
 10
-1988.748565997745
 20
0.0000000323583862
 30
0.0
 40
2350.441390995499
100
AcDbArc
 50
354.125689856716
 51
5.874310140211009
  0
LINE
  5
179
330
146
100
AcDbEntity
  8
AM_9
100
AcDbLine
 10
349.3502024195877
 20
240.5595178864778
 30
0.0
 11
474.6625032991342
 21
247.8204962275668
 31
0.0
  0
ARC
  5
17A
330
146
100
AcDbEntity
  8
AM_9
100
AcDbCircle
 10
-233.5117249918157
 20
-241.1285499907751
 30
0.0
 40
115.8398750276688
100
AcDbArc
 50
179.6999178596802
 51
270.2906567677351
  0
ARC
  5
17B
330
146
100
AcDbEntity
  8
AM_9
100
AcDbCircle
 10
0.0000000086418908
 20
-1834.661192303619
 30
0.0
 40
2203.970842322059
100
AcDbArc
 50
83.93343360729081
 51
96.06656639271934
  0
LINE
  5
17C
330
146
100
AcDbEntity
  8
AM_9
100
AcDbLine
 10
239.9161763876693
 20
474.6625012752559
 30
0.0
 11
232.9240813968203
 21
356.9669344814157
 31
0.0
  0
ARC
  5
17D
330
146
100
AcDbEntity
  8
AM_9
100
AcDbCircle
 10
-233.5117249997914
 20
241.1285499983454
 30
0.0
 40
115.8398750200553
100
AcDbArc
 50
89.70934323192233
 51
180.300083458769
  0
LINE
  5
17E
330
146
100
AcDbEntity
  8
AM_9
100
AcDbLine
 10
-232.9240813799244
 20
356.9669344813745
 30
0.0
 11
-239.9161765353772
 21
474.6625038071776
 31
0.0
  0
ARC
  5
17F
330
146
100
AcDbEntity
  8
AM_9
100
AcDbCircle
 10
233.5117249974913
 20
-241.1285499938246
 30
0.0
 40
115.8398750256169
100
AcDbArc
 50
269.7093432343373
 51
0.2814511479279678
  0
LINE
  5
180
330
146
100
AcDbEntity
  8
AM_9
100
AcDbLine
 10
349.3502024066856
 20
-240.5595179471624
 30
0.0
 11
474.6624735555006
 21
-247.8204945597853
 31
0.0
  0
ARC
  5
181
330
146
100
AcDbEntity
  8
AM_9
100
AcDbCircle
 10
0.0000000097312238
 20
1834.661192149612
 30
0.0
 40
2203.970842168302
100
AcDbArc
 50
263.9334336070187
 51
276.0665663927306
  0
LINE
  5
182
330
146
100
AcDbEntity
  8
AM_9
100
AcDbLine
 10
-232.9240813726026
 20
-356.966934481421
 30
0.0
 11
-239.9161746103141
 21
-474.6624749004071
 31
0.0
  0
LINE
  5
183
330
146
100
AcDbEntity
  8
AM_9
100
AcDbLine
 10
232.9240813824786
 20
-356.9669344824399
 30
0.0
 11
239.9161765146618
 21
-474.6625038084816
 31
0.0
  0
ARC
  5
184
330
146
100
AcDbEntity
  8
AM_9
100
AcDbCircle
 10
-233.5117249999594
 20
241.1285499988956
 30
0.0
 40
153.8128750195475
100
AcDbArc
 50
90.54695510805342
 51
179.4353124777288
  0
ARC
  5
185
330
146
100
AcDbEntity
  8
AM_9
100
AcDbCircle
 10
-233.5117249984127
 20
241.1285499992508
 30
0.0
 40
134.826375020389
100
AcDbArc
 50
90.1734017823739
 51
179.820975552845
  0
ARC
  5
186
330
146
100
AcDbEntity
  8
AM_9
100
AcDbCircle
 10
233.5117250180536
 20
241.1285500004105
 30
0.0
 40
153.812875018036
100
AcDbArc
 50
0.5297753183912791
 51
89.45304489191078
  0
ARC
  5
187
330
146
100
AcDbEntity
  8
AM_9
100
AcDbCircle
 10
233.5117250170682
 20
241.128550002101
 30
0.0
 40
134.8263750175375
100
AcDbArc
 50
0.1679335805680842
 51
89.82659820390434
  0
ARC
  5
188
330
146
100
AcDbEntity
  8
AM_9
100
AcDbCircle
 10
-1988.748561895639
 20
0.0000000237392612
 30
0.0
 40
2369.427886923806
100
AcDbArc
 50
354.1494876642871
 51
5.850512331624194
  0
ARC
  5
189
330
146
100
AcDbEntity
  8
AM_9
100
AcDbCircle
 10
-1988.748562711398
 20
-0.0000000010057732
 30
0.0
 40
2388.414387729791
100
AcDbArc
 50
354.1713917558682
 51
5.828608239848041
  0
ARC
  5
18A
330
146
100
AcDbEntity
  8
AM_9
100
AcDbCircle
 10
233.5117249999238
 20
-241.1285499997617
 30
0.0
 40
153.8128750196984
100
AcDbArc
 50
270.5469551079498
 51
359.4702246144461
  0
ARC
  5
18B
330
146
100
AcDbEntity
  8
AM_9
100
AcDbCircle
 10
233.5117250065734
 20
-241.1285500052114
 30
0.0
 40
134.8263750111419
100
AcDbArc
 50
270.1734018796052
 51
359.8320663694429
  0
ARC
  5
18C
330
146
100
AcDbEntity
  8
AM_9
100
AcDbCircle
 10
-233.5117249361053
 20
-241.1285498579992
 30
0.0
 40
153.8128751609582
100
AcDbArc
 50
180.564688145665
 51
269.4530448717651
  0
ARC
  5
18D
330
146
100
AcDbEntity
  8
AM_9
100
AcDbCircle
 10
-233.5117249971529
 20
-241.1285499929958
 30
0.0
 40
134.8263750223247
100
AcDbArc
 50
180.17902566181
 51
269.8265981561862
  0
ARC
  5
18E
330
146
100
AcDbEntity
  8
AM_9
100
AcDbCircle
 10
0.0000000504807645
 20
1834.66119078187
 30
0.0
 40
2222.95734081791
100
AcDbArc
 50
263.959634704916
 51
276.0403652948935
  0
ARC
  5
18F
330
146
100
AcDbEntity
  8
AM_9
100
AcDbCircle
 10
0.0000000088902112
 20
1834.661192131518
 30
0.0
 40
2241.943842150004
100
AcDbArc
 50
263.9837314164713
 51
276.0162685832778
  0
ARC
  5
190
330
146
100
AcDbEntity
  8
AM_9
100
AcDbCircle
 10
1842.277991694683
 20
-0.0000013764423699
 30
0.0
 40
2223.773125319413
100
AcDbArc
 50
173.7641362803142
 51
186.235863722248
  0
LWPOLYLINE
  5
191
330
146
100
AcDbEntity
  8
AM_9
100
AcDbPolyline
 90
        7
 70
     0
 43
0.0
 10
-368.3374418619997
 20
-241.5498260790748
 10
-376.1370706733085
 20
-241.8977813291457
 10
-380.3762977450768
 20
-242.2089549040969
 10
-383.7616155314697
 20
-242.4117624189379
 10
-386.0043249255265
 20
-242.4931116501674
 10
-387.1751523351901
 20
-242.6141614811604
 10
-387.3171299138049
 20
-242.6444538544127
  0
ARC
  5
192
330
146
100
AcDbEntity
  8
AM_9
100
AcDbCircle
 10
1842.277991970161
 20
-0.0000010475622361
 30
0.0
 40
2242.759625552126
100
AcDbArc
 50
173.7890050674754
 51
186.2109949181036
  0
ARC
  5
193
330
146
100
AcDbEntity
  8
AM_9
100
AcDbCircle
 10
1842.277991419574
 20
-0.0000013975325714
 30
0.0
 40
2204.786625044303
100
AcDbArc
 50
173.7370954490658
 51
186.2629045473544
  0
LWPOLYLINE
  5
194
330
146
100
AcDbEntity
  8
AM_9
100
AcDbPolyline
 90
        7
 70
     0
 43
0.0
 10
-368.3374418619996
 20
-241.5498260790797
 10
-367.0885455070061
 20
-241.411379572681
 10
-364.880933260971
 20
-241.3331479120291
 10
-361.5322310754357
 20
-241.1494726556872
 10
-357.3352726459619
 20
-240.8577453079402
 10
-352.159400362987
 20
-240.6376745745004
 10
-349.3500112454827
 20
-240.5218505269219
  0
LINE
  5
195
330
146
100
AcDbEntity
  8
AM_9
100
AcDbLine
 10
-361.6895614333888
 20
-60.09232189317085
 30
0.0
 11
-399.6484544562422
 21
-61.12729084668471
 31
0.0
  0
LINE
  5
196
330
146
100
AcDbEntity
  8
AM_9
100
AcDbLine
 10
-349.350011231884
 20
240.521847868945
 30
0.0
 11
-474.6624720873343
 21
248.258653301732
 31
0.0
  0
LINE
  5
197
330
146
100
AcDbEntity
  8
AM_0
100
AcDbLine
 10
474.662499999993
 20
474.66250000001
 30
0.0
 11
-474.662500000006
 21
474.66250000001
 31
0.0
  0
LINE
  5
198
330
146
100
AcDbEntity
  8
AM_0
100
AcDbLine
 10
-474.662500000006
 20
-474.662499999994
 30
0.0
 11
474.662499999993
 21
-474.662499999994
 31
0.0
  0
LINE
  5
199
330
146
100
AcDbEntity
  8
AM_0
100
AcDbLine
 10
474.662499999993
 20
-474.662499999994
 30
0.0
 11
474.662499999993
 21
474.66250000001
 31
0.0
  0
LINE
  5
19A
330
146
100
AcDbEntity
  8
AM_0
100
AcDbLine
 10
-474.662500000006
 20
474.66250000001
 30
0.0
 11
-474.662500000006
 21
-474.662499999994
 31
0.0
  0
ENDBLK
  5
149
330
146
100
AcDbEntity
  8
0
100
AcDbBlockEnd
  0
BLOCK
  5
19D
330
19B
100
AcDbEntity
  8
0
100
AcDbBlockBegin
  2
6_FCA30AAVJU_BYCQ54GEFU_PART1_0_in_FCA30AAVJU_BYCQ54GEFU_4
 70
     2
 10
0.0
 20
0.0
 30
0.0
  3
6_FCA30AAVJU_BYCQ54GEFU_PART1_0_in_FCA30AAVJU_BYCQ54GEFU_4
  1

  0
ATTDEF
  5
19F
330
19B
100
AcDbEntity
  8
AM_6
100
AcDbText
 10
179.624999999994
 20
-0.0000000000034992
 30
0.0
 40
0.5
  1
FCA30AAVJU-BYCQ54GEFU_PART1
100
AcDbAttributeDefinition
  3

  2
NB
 70
     8
280
     0
  0
ATTDEF
  5
1A0
330
19B
100
AcDbEntity
  8
AM_6
100
AcDbText
 10
179.624999999994
 20
-0.5000000000034992
 30
0.0
 40
0.5
  1

100
AcDbAttributeDefinition
  3

  2
NN
 70
     8
280
     0
  0
ATTDEF
  5
1A1
330
19B
100
AcDbEntity
  8
AM_6
100
AcDbText
 10
179.624999999994
 20
-1.000000000003499
 30
0.0
 40
0.5
  1

100
AcDbAttributeDefinition
  3

  2
NT
 70
     8
280
     0
  0
ATTDEF
  5
1A2
330
19B
100
AcDbEntity
  8
AM_6
100
AcDbText
 10
179.624999999994
 20
-1.500000000003499
 30
0.0
 40
0.5
  1
$PARTNUMBER._PART1
100
AcDbAttributeDefinition
  3

  2
NBSYN
 70
     8
280
     0
  0
ATTDEF
  5
1A3
330
19B
100
AcDbEntity
  8
AM_6
100
AcDbText
 10
179.624999999994
 20
-2.000000000003499
 30
0.0
 40
0.5
  1
FCA30AAVJU-BYCQ54GEFU_PART1
100
AcDbAttributeDefinition
  3

  2
LINA
 70
     8
280
     0
  0
ATTDEF
  5
1A4
330
19B
100
AcDbEntity
  8
AM_6
100
AcDbText
 10
179.624999999994
 20
-2.500000000003499
 30
0.0
 40
0.5
  1
Daikin
100
AcDbAttributeDefinition
  3

  2
CATALOG
 70
     8
280
     0
  0
ATTDEF
  5
1A5
330
19B
100
AcDbEntity
  8
AM_6
100
AcDbText
 10
179.624999999994
 20
-3.000000000003499
 30
0.0
 40
0.5
  1
FCA30AAVJU-BYCQ54GEFU
100
AcDbAttributeDefinition
  3

  2
PARTNUMBER
 70
     8
280
     0
  0
ATTDEF
  5
1A6
330
19B
100
AcDbEntity
  8
AM_6
100
AcDbText
 10
179.624999999994
 20
-3.500000000003499
 30
0.0
 40
0.5
  1
Air Conditioner Ducted Round Flow Cassette
100
AcDbAttributeDefinition
  3

  2
DESCRIPTION
 70
     8
280
     0
  0
ATTDEF
  5
1A7
330
19B
100
AcDbEntity
  8
AM_6
100
AcDbText
 10
179.624999999994
 20
-4.000000000003499
 30
0.0
 40
0.5
  1
33.0625
100
AcDbAttributeDefinition
  3

  2
OVERALL_DEPTH
 70
     8
280
     0
  0
ATTDEF
  5
1A8
330
19B
100
AcDbEntity
  8
AM_6
100
AcDbText
 10
179.624999999994
 20
-4.500000000003499
 30
0.0
 40
0.5
  1
11.3438
100
AcDbAttributeDefinition
  3

  2
OVERALL_HEIGHT
 70
     8
280
     0
  0
ATTDEF
  5
1A9
330
19B
100
AcDbEntity
  8
AM_6
100
AcDbText
 10
179.624999999994
 20
-5.000000000003499
 30
0.0
 40
0.5
  1
33.0625
100
AcDbAttributeDefinition
  3

  2
OVERALL_WIDTH
 70
     8
280
     0
  0
ATTDEF
  5
1AA
330
19B
100
AcDbEntity
  8
AM_6
100
AcDbText
 10
179.624999999994
 20
-5.500000000003499
 30
0.0
 40
0.5
  1
https://daikincomfort.com/
100
AcDbAttributeDefinition
  3

  2
URL
 70
     8
280
     0
  0
ATTDEF
  5
1AB
330
19B
100
AcDbEntity
  8
AM_6
100
AcDbText
 10
179.624999999994
 20
-6.000000000003499
 30
0.0
 40
0.5
  1
Download Revit Family (RFA)
100
AcDbAttributeDefinition
  3

  2
RFA_FAMILY
 70
     8
280
     0
  0
ATTDEF
  5
1AC
330
19B
100
AcDbEntity
  8
AM_6
100
AcDbText
 10
179.624999999994
 20
-6.500000000003499
 30
0.0
 40
0.5
  1
daikin
100
AcDbAttributeDefinition
  3

  2
COMPANY
 70
     8
280
     0
  0
ATTDEF
  5
1AD
330
19B
100
AcDbEntity
  8
AM_6
100
AcDbText
 10
179.624999999994
 20
-7.000000000003499
 30
0.0
 40
0.5
  1
{$CADENAS_DATA/23d-libs/daikin/sky-air/sky-air20indoor20units/air_conditioner-indoor-daikin-fca.prj},240 {VTYP=3D},{NB=FCA30AAVJU-BYCQ54GEFU_PART1},{LINA=FCA30AAVJU-BYCQ54GEFU_PART1},{NN=(R32) Cassette Sky-Air Daikin FCA_PART1},{NOPRJ=TRUE},{DATE=03
100
AcDbAttributeDefinition
  3

  2
PSOL_0
 70
     9
280
     0
  0
ATTDEF
  5
1AE
330
19B
100
AcDbEntity
  8
AM_6
100
AcDbText
 10
179.624999999994
 20
-7.500000000003499
 30
0.0
 40
0.5
  1
26 19:23:42},{GEOMDATE=23.09.2025 06:26:16},{VERSION=},{LINEID=80},{WBVAR=},{WBNUMERIC=}  {NB=FCA30AAVJU-BYCQ54GEFU_PART1},{LINA=FCA30AAVJU-BYCQ54GEFU_PART1},{KT=DUMMY},{PARTNUMBER=FCA30AAVJU-BYCQ54GEFU},{PARTNUMBERMAP09=2.5Ton_FCA30AAVJU-BYCQ54GEFU
100
AcDbAttributeDefinition
  3

  2
PSOL_1
 70
     9
280
     0
  0
ATTDEF
  5
1AF
330
19B
100
AcDbEntity
  8
AM_6
100
AcDbText
 10
179.624999999994
 20
-8.0000000000035
 30
0.0
 40
0.5
  1
UAL_RETURN_AIR_FLOW=1059},{ACTUAL_SUPPLY_AIR_FLOW=1059},{AMBIENT_TEMPERATURE=0},{APPARENT_POWER=240},{ASSEMBLY_CODE=D3090},{BRANCH_DUCT_CENTER_OFFSET=0},{BRANCH_DUCT_DEPTH=0.00833333333333333},{BRANCH_DUCT_HEIGHT=0.3125},{BRANCH_DUCT_HORIZONTAL_OFFS
100
AcDbAttributeDefinition
  3

  2
PSOL_2
 70
     9
280
     0
  0
ATTDEF
  5
1B0
330
19B
100
AcDbEntity
  8
AM_6
100
AcDbText
 10
179.624999999994
 20
-8.5000000000035
 30
0.0
 40
0.5
  1
26041666666667},{BRANCH_DUCT_LEFT_CENTER_OFFSET=0.0677083333333333},{BRANCH_DUCT_POSITION_ANGLE=0},{BRANCH_DUCT_REFERENCE_LENGTH=1.37760416666667},{BRANCH_DUCT_RIGHT_CENTER_OFFSET=0.0833333333333333},{BRANCH_DUCT_WIDTH=1.14583333333333},{CATEGORY=Me
100
AcDbAttributeDefinition
  3

  2
PSOL_3
 70
     9
280
     0
  0
ATTDEF
  5
1B1
330
19B
100
AcDbEntity
  8
AM_6
100
AcDbText
 10
179.624999999994
 20
-9.0000000000035
 30
0.0
 40
0.5
  1
al Equipment},{CEILING_OPENING_SPACE_DEPTH=2.98958333333333},{CEILING_OPENING_SPACE_WIDTH=2.98958333333333},{CLEARANCE_PRIMARY_OFFSET=5},{CLEARANCE_SECONDARY_OFFSET=0.65625},{CLEARANCE_VISIBILITY=1},{COIL_AIR_PRESSURE_DROP=0},{CONDENSATE_DRAIN_CONNE
100
AcDbAttributeDefinition
  3

  2
PSOL_4
 70
     9
280
     0
  0
ATTDEF
  5
1B2
330
19B
100
AcDbEntity
  8
AM_6
100
AcDbText
 10
179.624999999994
 20
-9.5000000000035
 30
0.0
 40
0.5
  1
DIAMETER=1.25},{CONDENSATE_DRAIN_PIPE_HORIZONTAL_OFFSET=0.583333333333333},{CONDENSATE_DRAIN_PIPE_LENGTH=1.38016666666667},{CONDENSATE_DRAIN_PIPE_RADIUS=0.0520833333333333},{CONDENSATE_DRAIN_PIPE_VERTICAL_OFFSET=1.11458333333333},{COOLING_ENTERING_D
100
AcDbAttributeDefinition
  3

  2
PSOL_5
 70
     9
280
     0
  0
ATTDEF
  5
1B3
330
19B
100
AcDbEntity
  8
AM_6
100
AcDbText
 10
179.624999999994
 20
-10.0000000000035
 30
0.0
 40
0.5
  1
B_TEMPERATURE=0},{COOLING_ENTERING_WET_BULB_TEMPERATURE=0},{COOLING_LEAVING_DRY_BULB_TEMPERATURE=0},{COOLING_LEAVING_WET_BULB_TEMPERATURE=0},{COST=0},{DECORATION_PANEL_COVER_HEIGHT=0.135416666666667},{DECORATION_PANEL_DEPTH=3.11458333333333},{DECORA
100
AcDbAttributeDefinition
  3

  2
PSOL_6
 70
     9
280
     0
  0
ATTDEF
  5
1B4
330
19B
100
AcDbEntity
  8
AM_6
100
AcDbText
 10
179.624999999994
 20
-10.5000000000035
 30
0.0
 40
0.5
  1
ANEL_INSIDE_HEIGHT=0.03125},{DECORATION_PANEL_OVERALL_HEIGHT=0.166666666666667},{DECORATION_PANEL_WEIGHT=12},{DECORATION_PANEL_WIDTH=3.11458333333333},{DEFAULT_ELEVATION=4},{DESCRIPTION=Air Conditioner Ducted Round Flow Cassette},{DESIGN_BRANCH_DUCT
100
AcDbAttributeDefinition
  3

  2
PSOL_7
 70
     9
280
     0
  0
ATTDEF
  5
1B5
330
19B
100
AcDbEntity
  8
AM_6
100
AcDbText
 10
179.624999999994
 20
-11.0000000000035
 30
0.0
 40
0.5
  1
Y_AIR_FLOW=0},{DESIGN_FRESH_AIR_FLOW=0},{DESIGN_RETURN_AIR_FLOW=1059},{DESIGN_SUPPLY_AIR_FLOW=1059},{DRAIN_FLOW=0},{ENCLOSURE_DEPTH=2.75520833333333},{ENCLOSURE_FLANGE_OFFSET=2.33333333333333},{ENCLOSURE_HEIGHT=0.9453125},{ENCLOSURE_WIDTH=2.75520833
100
AcDbAttributeDefinition
  3

  2
PSOL_8
 70
     9
280
     0
  0
ATTDEF
  5
1B6
330
19B
100
AcDbEntity
  8
AM_6
100
AcDbText
 10
179.624999999994
 20
-11.5000000000035
 30
0.0
 40
0.5
  1
},{FACE_VELOCITY__FPM_=0},{FAN_TYPE=Turbo fan},{FEET_PRESSURE_DROP=0},{FREQUENCY=60},{FRESH_AIR_INTAKE=0},{FRESH_AIR_INTAKE_RADIUS=0.0625},{GAS_PIPE_HORIZONTAL_OFFSET=0.541666666666667},{GAS_PIPE_LENGTH=1.38016666666667},{GAS_PIPE_RADIUS=0.026041666
100
AcDbAttributeDefinition
  3

  2
PSOL_9
 70
     9
280
     0
  0
ATTDEF
  5
1B7
330
19B
100
AcDbEntity
  8
AM_6
100
AcDbText
 10
179.624999999994
 20
-12.0000000000035
 30
0.0
 40
0.5
  1
7},{GAS_PIPE_VERTICAL_OFFSET=1.08333333333333},{HEAT_EXCHANGER_TYPE=Cross Fin Coil},{HEATING_ENTERING_DRY_BULB_TEMPERATURE=0},{HEATING_ENTERING_WET_BULB_TEMPERATURE=0},{HEATING_LEAVING_DRY_BULB_TEMPERATURE=0},{HEATING_LEAVING_WET_BULB_TEMPERATURE=0}
100
AcDbAttributeDefinition
  3

  2
PSOL_10
 70
     9
280
     0
  0
ATTDEF
  5
1B8
330
19B
100
AcDbEntity
  8
AM_6
100
AcDbText
 10
179.624999999994
 20
-12.5000000000035
 30
0.0
 40
0.5
  1
K_HOLE_OFFSET=0.00833333333333333},{KNOCK_HOLE_RADIUS=0.164},{LATENT_COOLING_CAPACITY=0},{LIQUID_PIPE_HORIZONTAL_OFFSET=0.411458333333333},{LIQUID_PIPE_LENGTH=1.38016666666667},{LIQUID_PIPE_RADIUS=0.015625},{LIQUID_PIPE_VERTICAL_OFFSET=0.91666666666
100
AcDbAttributeDefinition
  3

  2
PSOL_11
 70
     9
280
     0
  0
ATTDEF
  5
1B9
330
19B
100
AcDbEntity
  8
AM_6
100
AcDbText
 10
179.624999999994
 20
-13.0000000000035
 30
0.0
 40
0.5
  1
{LOAD_SUB_CLASSIFICATION_MOTOR=1},{MANUFACTURER=Daikin},{MASSUNIT=1},{MAXIMUM_AIR_FLOW=1059},{MAXIMUM_OVERCURRENT_PROTECTION=15},{MEDIAN_AIR_FLOW=882},{MINIMUM_AIR_FLOW=671},{MINIMUM_CIRCUIT_AMPS=1},{MINIMUM_FLOOR_CLEARANCE=8.33333333333333},{MINIMU
100
AcDbAttributeDefinition
  3

  2
PSOL_12
 70
     9
280
     0
  0
ATTDEF
  5
1BA
330
19B
100
AcDbEntity
  8
AM_6
100
AcDbText
 10
179.624999999994
 20
-13.5000000000035
 30
0.0
 40
0.5
  1
ACLE_CLEARANCE=5},{MODEL=FCA30AAVJU-BYCQ54GEFU},{NO_OBSTACLES_BELOW_UNIT=1},{NOMINAL_COOLING_CAPACITY=30000},{NOMINAL_COOLING_CAPACITY__TONS_=2.5},{NOMINAL_HEATING_CAPACITY=33800},{NUMBER_OF_POLES=2},{OBSTACLES_BELOW_UNIT=0},{OMNICLASS_NUMBER=23.33.
100
AcDbAttributeDefinition
  3

  2
PSOL_13
 70
     9
280
     0
  0
ATTDEF
  5
1BB
330
19B
100
AcDbEntity
  8
AM_6
100
AcDbText
 10
179.624999999994
 20
-14.0000000000035
 30
0.0
 40
0.5
  1
15.11},{OUT_AIR_INTAKE_H_OFFSET=0.598958333333333},{OUT_AIR_INTAKE_V_OFFSET=0.697916666666667},{OVERALL_DEPTH=33.0625},{OVERALL_HEIGHT=11.3438},{OVERALL_WIDTH=33.0625},{PARTTYPE=Normal},{PHASE=1},{REFRIGERANT_LIQUID_CONNECTION_DIAMETER=0.375},{REFRI
100
AcDbAttributeDefinition
  3

  2
PSOL_14
 70
     9
280
     0
  0
ATTDEF
  5
1BC
330
19B
100
AcDbEntity
  8
AM_6
100
AcDbText
 10
179.624999999994
 20
-14.5000000000035
 30
0.0
 40
0.5
  1
_SUCTION_GAS_CONNECTION_DIAMETER=0.625},{REFRIGERANT_USED=R-32},{RETURN_AIR_PRESSURE_DROP=0},{SENSIBLE_COOLING_CAPACITY=0},{SERIES=SkyAir},{SUPPLY_AIR_CONNECTION_HEIGHT=0.0625},{SUPPLY_AIR_CONNECTION_WIDTH=0.0625},{SUPPLY_AIR_PRESSURE_DROP=0},{SYSTE
100
AcDbAttributeDefinition
  3

  2
PSOL_15
 70
     9
280
     0
  0
ATTDEF
  5
1BD
330
19B
100
AcDbEntity
  8
AM_6
100
AcDbText
 10
179.624999999994
 20
-15.0000000000035
 30
0.0
 40
0.5
  1
ORMANCE_EER2=13.2},{SYSTEM_PERFORMANCE_HSPF2=10.1},{SYSTEM_PERFORMANCE_SEER2=21},{TOTAL_COOLING_CAPACITY=0},{TOTAL_HEATING_CAPACITY=0},{TOTAL_STATIC_PRESSURE=0},{UNIT_HEIGHT_CLEARANCE=8.33333333333333},{UNIT_WEIGHT=58},{URL=https://daikincomfort.com
100
AcDbAttributeDefinition
  3

  2
PSOL_16
 70
     9
280
     0
  0
ATTDEF
  5
1BE
330
19B
100
AcDbEntity
  8
AM_6
100
AcDbText
 10
179.624999999994
 20
-15.5000000000035
 30
0.0
 40
0.5
  1
RSION=1},{VOLTAGE=240},{VOLTAGE_COMMENTS=208 VAC - 230 VAC},{VAR__NO_BRANCH_DUCT=1},{VAR__BRANCH_DUCT_SELECTOR=0},{VAR__FAN_SPEED_SELECTOR=3},{VAR__BRANCH_DUCT_FRONT_OPENING=0},{VAR__L____LOW_FAN_SPEED=671},{VAR__BRANCH_DUCT_RIGHT_OPENING=0},{VAR__M
100
AcDbAttributeDefinition
  3

  2
PSOL_17
 70
     9
280
     0
  0
ATTDEF
  5
1BF
330
19B
100
AcDbEntity
  8
AM_6
100
AcDbText
 10
179.624999999994
 20
-16.0000000000035
 30
0.0
 40
0.5
  1
IUM_SPEED=882},{VAR__BRANCH_DUCT_BACK_OPENING=0},{VAR__H___HIGH_FAN_SPEED=1059},{VAR__BRANCH_DUCT_LEFT_OPENING=0},{RFA_FAMILY=Download Revit Family (RFA)},{DEFAULTSORTATTR=55},{RFA_FAMILY_=../../_pool_/be/62/air_conditioner-indoor-daikin-fca.zip},{R
100
AcDbAttributeDefinition
  3

  2
PSOL_18
 70
     9
280
     0
  0
ATTDEF
  5
1C0
330
19B
100
AcDbEntity
  8
AM_6
100
AcDbText
 10
179.624999999994
 20
-16.5000000000035
 30
0.0
 40
0.5
  1
ILY_ENG=../../_pool_/be/62/air_conditioner-indoor-daikin-fca.zip},{REVIT_FAMILY_DOWNLOAD=../../_pool_/be/62/air_conditioner-indoor-daikin-fca.zip}
100
AcDbAttributeDefinition
  3

  2
PSOL_19
 70
     9
280
     0
  0
LINE
  5
1C1
330
19B
100
AcDbEntity
  8
AM_9
100
AcDbLine
 10
174.6249999999938
 20
-0.0000000000034992
 30
0.0
 11
174.624999999994
 21
-419.893750000004
 31
0.0
  0
LINE
  5
1C2
330
19B
100
AcDbEntity
  8
AM_9
100
AcDbLine
 10
174.6249999999938
 20
-0.0000000000034992
 30
0.0
 11
-174.625000000005
 21
-0.0000000000034992
 31
0.0
  0
LINE
  5
1C3
330
19B
100
AcDbEntity
  8
AM_9
100
AcDbLine
 10
-174.625000000005
 20
-0.0000000000034992
 30
0.0
 11
-174.6250000000049
 21
-419.893750000004
 31
0.0
  0
ENDBLK
  5
19E
330
19B
100
AcDbEntity
  8
0
100
AcDbBlockEnd
  0
ENDSEC
  0
SECTION
  2
ENTITIES
  0
ATTDEF
  5
5F
330
1F
100
AcDbEntity
  8
AM_6
100
AcDbText
 10
479.6625032991342
 20
474.6625038071776
 30
0.0
 40
0.5
  1
FCA30AAVJU-BYCQ54GEFU
100
AcDbAttributeDefinition
  3

  2
NB
 70
     8
280
     0
  0
ATTDEF
  5
60
330
1F
100
AcDbEntity
  8
AM_6
100
AcDbText
 10
479.6625032991342
 20
474.1625038071776
 30
0.0
 40
0.5
  1
(R32) Cassette Sky-Air Daikin FCA
100
AcDbAttributeDefinition
  3

  2
NN
 70
     8
280
     0
  0
ATTDEF
  5
61
330
1F
100
AcDbEntity
  8
AM_6
100
AcDbText
 10
479.6625032991342
 20
473.6625038071776
 30
0.0
 40
0.5
  1

100
AcDbAttributeDefinition
  3

  2
NT
 70
     8
280
     0
  0
ATTDEF
  5
62
330
1F
100
AcDbEntity
  8
AM_6
100
AcDbText
 10
479.6625032991342
 20
473.1625038071776
 30
0.0
 40
0.5
  1
$PARTNUMBER.
100
AcDbAttributeDefinition
  3

  2
NBSYN
 70
     8
280
     0
  0
ATTDEF
  5
63
330
1F
100
AcDbEntity
  8
AM_6
100
AcDbText
 10
479.6625032991342
 20
472.6625038071776
 30
0.0
 40
0.5
  1
FCA30AAVJU-BYCQ54GEFU
100
AcDbAttributeDefinition
  3

  2
LINA
 70
     8
280
     0
  0
ATTDEF
  5
64
330
1F
100
AcDbEntity
  8
AM_6
100
AcDbText
 10
479.6625032991342
 20
472.1625038071776
 30
0.0
 40
0.5
  1
Daikin
100
AcDbAttributeDefinition
  3

  2
CATALOG
 70
     8
280
     0
  0
ATTDEF
  5
65
330
1F
100
AcDbEntity
  8
AM_6
100
AcDbText
 10
479.6625032991342
 20
471.6625038071776
 30
0.0
 40
0.5
  1
FCA30AAVJU-BYCQ54GEFU
100
AcDbAttributeDefinition
  3

  2
PARTNUMBER
 70
     8
280
     0
  0
ATTDEF
  5
66
330
1F
100
AcDbEntity
  8
AM_6
100
AcDbText
 10
479.6625032991342
 20
471.1625038071776
 30
0.0
 40
0.5
  1
Air Conditioner Ducted Round Flow Cassette
100
AcDbAttributeDefinition
  3

  2
DESCRIPTION
 70
     8
280
     0
  0
ATTDEF
  5
67
330
1F
100
AcDbEntity
  8
AM_6
100
AcDbText
 10
479.6625032991342
 20
470.6625038071776
 30
0.0
 40
0.5
  1
33.0625
100
AcDbAttributeDefinition
  3

  2
OVERALL_DEPTH
 70
     8
280
     0
  0
ATTDEF
  5
68
330
1F
100
AcDbEntity
  8
AM_6
100
AcDbText
 10
479.6625032991342
 20
470.1625038071776
 30
0.0
 40
0.5
  1
11.3438
100
AcDbAttributeDefinition
  3

  2
OVERALL_HEIGHT
 70
     8
280
     0
  0
ATTDEF
  5
69
330
1F
100
AcDbEntity
  8
AM_6
100
AcDbText
 10
479.6625032991342
 20
469.6625038071776
 30
0.0
 40
0.5
  1
33.0625
100
AcDbAttributeDefinition
  3

  2
OVERALL_WIDTH
 70
     8
280
     0
  0
ATTDEF
  5
6A
330
1F
100
AcDbEntity
  8
AM_6
100
AcDbText
 10
479.6625032991342
 20
469.1625038071776
 30
0.0
 40
0.5
  1
https://daikincomfort.com/
100
AcDbAttributeDefinition
  3

  2
URL
 70
     8
280
     0
  0
ATTDEF
  5
6B
330
1F
100
AcDbEntity
  8
AM_6
100
AcDbText
 10
479.6625032991342
 20
468.6625038071776
 30
0.0
 40
0.5
  1
Download Revit Family (RFA)
100
AcDbAttributeDefinition
  3

  2
RFA_FAMILY
 70
     8
280
     0
  0
ATTDEF
  5
6C
330
1F
100
AcDbEntity
  8
AM_6
100
AcDbText
 10
479.6625032991342
 20
468.1625038071776
 30
0.0
 40
0.5
  1
daikin
100
AcDbAttributeDefinition
  3

  2
COMPANY
 70
     8
280
     0
  0
ATTDEF
  5
6D
330
1F
100
AcDbEntity
  8
AM_6
100
AcDbText
 10
479.6625032991342
 20
467.6625038071776
 30
0.0
 40
0.5
  1
{$CADENAS_DATA/23d-libs/daikin/sky-air/sky-air20indoor20units/air_conditioner-indoor-daikin-fca.prj},220 {STYP=ASS},{VTYP=3D},{NB=FCA30AAVJU-BYCQ54GEFU},{LINA=FCA30AAVJU-BYCQ54GEFU},{NN=(R32) Cassette Sky-Air Daikin FCA},{DATE=03.06.2026 19:23:42},{
100
AcDbAttributeDefinition
  3

  2
PSOL_0
 70
     9
280
     0
  0
ATTDEF
  5
6E
330
1F
100
AcDbEntity
  8
AM_6
100
AcDbText
 10
479.6625032991342
 20
467.1625038071776
 30
0.0
 40
0.5
  1
TE=23.09.2025 06:26:16},{VERSION=},{LINEID=80},{WBVAR=},{WBNUMERIC=}  {NB=FCA30AAVJU-BYCQ54GEFU},{LINA=FCA30AAVJU-BYCQ54GEFU},{KT=DUMMY},{PARTNUMBER=FCA30AAVJU-BYCQ54GEFU},{PARTNUMBERMAP09=2.5Ton_FCA30AAVJU-BYCQ54GEFU},{ACTUAL_RETURN_AIR_FLOW=1059},
100
AcDbAttributeDefinition
  3

  2
PSOL_1
 70
     9
280
     0
  0
ATTDEF
  5
6F
330
1F
100
AcDbEntity
  8
AM_6
100
AcDbText
 10
479.6625032991342
 20
466.6625038071776
 30
0.0
 40
0.5
  1
L_SUPPLY_AIR_FLOW=1059},{AMBIENT_TEMPERATURE=0},{APPARENT_POWER=240},{ASSEMBLY_CODE=D3090},{BRANCH_DUCT_CENTER_OFFSET=0},{BRANCH_DUCT_DEPTH=0.00833333333333333},{BRANCH_DUCT_HEIGHT=0.3125},{BRANCH_DUCT_HORIZONTAL_OFFSET=0.526041666666667},{BRANCH_DU
100
AcDbAttributeDefinition
  3

  2
PSOL_2
 70
     9
280
     0
  0
ATTDEF
  5
70
330
1F
100
AcDbEntity
  8
AM_6
100
AcDbText
 10
479.6625032991342
 20
466.1625038071776
 30
0.0
 40
0.5
  1
T_CENTER_OFFSET=0.0677083333333333},{BRANCH_DUCT_POSITION_ANGLE=0},{BRANCH_DUCT_REFERENCE_LENGTH=1.37760416666667},{BRANCH_DUCT_RIGHT_CENTER_OFFSET=0.0833333333333333},{BRANCH_DUCT_WIDTH=1.14583333333333},{CATEGORY=Mechanical Equipment},{CEILING_OPE
100
AcDbAttributeDefinition
  3

  2
PSOL_3
 70
     9
280
     0
  0
ATTDEF
  5
71
330
1F
100
AcDbEntity
  8
AM_6
100
AcDbText
 10
479.6625032991342
 20
465.6625038071776
 30
0.0
 40
0.5
  1
PACE_DEPTH=2.98958333333333},{CEILING_OPENING_SPACE_WIDTH=2.98958333333333},{CLEARANCE_PRIMARY_OFFSET=5},{CLEARANCE_SECONDARY_OFFSET=0.65625},{CLEARANCE_VISIBILITY=1},{COIL_AIR_PRESSURE_DROP=0},{CONDENSATE_DRAIN_CONNECTION_DIAMETER=1.25},{CONDENSATE
100
AcDbAttributeDefinition
  3

  2
PSOL_4
 70
     9
280
     0
  0
ATTDEF
  5
72
330
1F
100
AcDbEntity
  8
AM_6
100
AcDbText
 10
479.6625032991342
 20
465.1625038071776
 30
0.0
 40
0.5
  1
_PIPE_HORIZONTAL_OFFSET=0.583333333333333},{CONDENSATE_DRAIN_PIPE_LENGTH=1.38016666666667},{CONDENSATE_DRAIN_PIPE_RADIUS=0.0520833333333333},{CONDENSATE_DRAIN_PIPE_VERTICAL_OFFSET=1.11458333333333},{COOLING_ENTERING_DRY_BULB_TEMPERATURE=0},{COOLING_
100
AcDbAttributeDefinition
  3

  2
PSOL_5
 70
     9
280
     0
  0
ATTDEF
  5
73
330
1F
100
AcDbEntity
  8
AM_6
100
AcDbText
 10
479.6625032991342
 20
464.6625038071776
 30
0.0
 40
0.5
  1
NG_WET_BULB_TEMPERATURE=0},{COOLING_LEAVING_DRY_BULB_TEMPERATURE=0},{COOLING_LEAVING_WET_BULB_TEMPERATURE=0},{COST=0},{DECORATION_PANEL_COVER_HEIGHT=0.135416666666667},{DECORATION_PANEL_DEPTH=3.11458333333333},{DECORATION_PANEL_INSIDE_HEIGHT=0.03125
100
AcDbAttributeDefinition
  3

  2
PSOL_6
 70
     9
280
     0
  0
ATTDEF
  5
74
330
1F
100
AcDbEntity
  8
AM_6
100
AcDbText
 10
479.6625032991342
 20
464.1625038071776
 30
0.0
 40
0.5
  1
ORATION_PANEL_OVERALL_HEIGHT=0.166666666666667},{DECORATION_PANEL_WEIGHT=12},{DECORATION_PANEL_WIDTH=3.11458333333333},{DEFAULT_ELEVATION=4},{DESCRIPTION=Air Conditioner Ducted Round Flow Cassette},{DESIGN_BRANCH_DUCT_SUPPLY_AIR_FLOW=0},{DESIGN_FRES
100
AcDbAttributeDefinition
  3

  2
PSOL_7
 70
     9
280
     0
  0
ATTDEF
  5
75
330
1F
100
AcDbEntity
  8
AM_6
100
AcDbText
 10
479.6625032991342
 20
463.6625038071776
 30
0.0
 40
0.5
  1
FLOW=0},{DESIGN_RETURN_AIR_FLOW=1059},{DESIGN_SUPPLY_AIR_FLOW=1059},{DRAIN_FLOW=0},{ENCLOSURE_DEPTH=2.75520833333333},{ENCLOSURE_FLANGE_OFFSET=2.33333333333333},{ENCLOSURE_HEIGHT=0.9453125},{ENCLOSURE_WIDTH=2.75520833333333},{FACE_VELOCITY__FPM_=0},
100
AcDbAttributeDefinition
  3

  2
PSOL_8
 70
     9
280
     0
  0
ATTDEF
  5
76
330
1F
100
AcDbEntity
  8
AM_6
100
AcDbText
 10
479.6625032991342
 20
463.1625038071776
 30
0.0
 40
0.5
  1
YPE=Turbo fan},{FEET_PRESSURE_DROP=0},{FREQUENCY=60},{FRESH_AIR_INTAKE=0},{FRESH_AIR_INTAKE_RADIUS=0.0625},{GAS_PIPE_HORIZONTAL_OFFSET=0.541666666666667},{GAS_PIPE_LENGTH=1.38016666666667},{GAS_PIPE_RADIUS=0.0260416666666667},{GAS_PIPE_VERTICAL_OFFS
100
AcDbAttributeDefinition
  3

  2
PSOL_9
 70
     9
280
     0
  0
ATTDEF
  5
77
330
1F
100
AcDbEntity
  8
AM_6
100
AcDbText
 10
479.6625032991342
 20
462.6625038071776
 30
0.0
 40
0.5
  1
8333333333333},{HEAT_EXCHANGER_TYPE=Cross Fin Coil},{HEATING_ENTERING_DRY_BULB_TEMPERATURE=0},{HEATING_ENTERING_WET_BULB_TEMPERATURE=0},{HEATING_LEAVING_DRY_BULB_TEMPERATURE=0},{HEATING_LEAVING_WET_BULB_TEMPERATURE=0},{KNOCK_HOLE_OFFSET=0.0083333333
100
AcDbAttributeDefinition
  3

  2
PSOL_10
 70
     9
280
     0
  0
ATTDEF
  5
78
330
1F
100
AcDbEntity
  8
AM_6
100
AcDbText
 10
479.6625032991342
 20
462.1625038071776
 30
0.0
 40
0.5
  1
3},{KNOCK_HOLE_RADIUS=0.164},{LATENT_COOLING_CAPACITY=0},{LIQUID_PIPE_HORIZONTAL_OFFSET=0.411458333333333},{LIQUID_PIPE_LENGTH=1.38016666666667},{LIQUID_PIPE_RADIUS=0.015625},{LIQUID_PIPE_VERTICAL_OFFSET=0.916666666666667},{LOAD_SUB_CLASSIFICATION_M
100
AcDbAttributeDefinition
  3

  2
PSOL_11
 70
     9
280
     0
  0
ATTDEF
  5
79
330
1F
100
AcDbEntity
  8
AM_6
100
AcDbText
 10
479.6625032991342
 20
461.6625038071776
 30
0.0
 40
0.5
  1
},{MANUFACTURER=Daikin},{MASSUNIT=1},{MAXIMUM_AIR_FLOW=1059},{MAXIMUM_OVERCURRENT_PROTECTION=15},{MEDIAN_AIR_FLOW=882},{MINIMUM_AIR_FLOW=671},{MINIMUM_CIRCUIT_AMPS=1},{MINIMUM_FLOOR_CLEARANCE=8.33333333333333},{MINIMUM_OBSTACLE_CLEARANCE=5},{MODEL=F
100
AcDbAttributeDefinition
  3

  2
PSOL_12
 70
     9
280
     0
  0
ATTDEF
  5
7A
330
1F
100
AcDbEntity
  8
AM_6
100
AcDbText
 10
479.6625032991342
 20
461.1625038071776
 30
0.0
 40
0.5
  1
VJU-BYCQ54GEFU},{NO_OBSTACLES_BELOW_UNIT=1},{NOMINAL_COOLING_CAPACITY=30000},{NOMINAL_COOLING_CAPACITY__TONS_=2.5},{NOMINAL_HEATING_CAPACITY=33800},{NUMBER_OF_POLES=2},{OBSTACLES_BELOW_UNIT=0},{OMNICLASS_NUMBER=23.33.33.11.15.11},{OUT_AIR_INTAKE_H_O
100
AcDbAttributeDefinition
  3

  2
PSOL_13
 70
     9
280
     0
  0
ATTDEF
  5
7B
330
1F
100
AcDbEntity
  8
AM_6
100
AcDbText
 10
479.6625032991342
 20
460.6625038071776
 30
0.0
 40
0.5
  1
0.598958333333333},{OUT_AIR_INTAKE_V_OFFSET=0.697916666666667},{OVERALL_DEPTH=33.0625},{OVERALL_HEIGHT=11.3438},{OVERALL_WIDTH=33.0625},{PARTTYPE=Normal},{PHASE=1},{REFRIGERANT_LIQUID_CONNECTION_DIAMETER=0.375},{REFRIGERANT_SUCTION_GAS_CONNECTION_DI
100
AcDbAttributeDefinition
  3

  2
PSOL_14
 70
     9
280
     0
  0
ATTDEF
  5
7C
330
1F
100
AcDbEntity
  8
AM_6
100
AcDbText
 10
479.6625032991342
 20
460.1625038071776
 30
0.0
 40
0.5
  1
=0.625},{REFRIGERANT_USED=R-32},{RETURN_AIR_PRESSURE_DROP=0},{SENSIBLE_COOLING_CAPACITY=0},{SERIES=SkyAir},{SUPPLY_AIR_CONNECTION_HEIGHT=0.0625},{SUPPLY_AIR_CONNECTION_WIDTH=0.0625},{SUPPLY_AIR_PRESSURE_DROP=0},{SYSTEM_PERFORMANCE_EER2=13.2},{SYSTEM
100
AcDbAttributeDefinition
  3

  2
PSOL_15
 70
     9
280
     0
  0
ATTDEF
  5
7D
330
1F
100
AcDbEntity
  8
AM_6
100
AcDbText
 10
479.6625032991342
 20
459.6625038071776
 30
0.0
 40
0.5
  1
RMANCE_HSPF2=10.1},{SYSTEM_PERFORMANCE_SEER2=21},{TOTAL_COOLING_CAPACITY=0},{TOTAL_HEATING_CAPACITY=0},{TOTAL_STATIC_PRESSURE=0},{UNIT_HEIGHT_CLEARANCE=8.33333333333333},{UNIT_WEIGHT=58},{URL=https://daikincomfort.com/},{VERSION=1},{VOLTAGE=240},{VO
100
AcDbAttributeDefinition
  3

  2
PSOL_16
 70
     9
280
     0
  0
ATTDEF
  5
7E
330
1F
100
AcDbEntity
  8
AM_6
100
AcDbText
 10
479.6625032991342
 20
459.1625038071776
 30
0.0
 40
0.5
  1
COMMENTS=208 VAC - 230 VAC},{VAR__NO_BRANCH_DUCT=1},{VAR__BRANCH_DUCT_SELECTOR=0},{VAR__FAN_SPEED_SELECTOR=3},{VAR__BRANCH_DUCT_FRONT_OPENING=0},{VAR__L____LOW_FAN_SPEED=671},{VAR__BRANCH_DUCT_RIGHT_OPENING=0},{VAR__M___MEDIUM_SPEED=882},{VAR__BRANC
100
AcDbAttributeDefinition
  3

  2
PSOL_17
 70
     9
280
     0
  0
ATTDEF
  5
7F
330
1F
100
AcDbEntity
  8
AM_6
100
AcDbText
 10
479.6625032991342
 20
458.6625038071776
 30
0.0
 40
0.5
  1
_BACK_OPENING=0},{VAR__H___HIGH_FAN_SPEED=1059},{VAR__BRANCH_DUCT_LEFT_OPENING=0},{RFA_FAMILY=Download Revit Family (RFA)},{DEFAULTSORTATTR=55},{RFA_FAMILY_=../../_pool_/be/62/air_conditioner-indoor-daikin-fca.zip},{RFA_FAMILY_ENG=../../_pool_/be/62
100
AcDbAttributeDefinition
  3

  2
PSOL_18
 70
     9
280
     0
  0
ATTDEF
  5
80
330
1F
100
AcDbEntity
  8
AM_6
100
AcDbText
 10
479.6625032991342
 20
458.1625038071776
 30
0.0
 40
0.5
  1
onditioner-indoor-daikin-fca.zip},{REVIT_FAMILY_DOWNLOAD=../../_pool_/be/62/air_conditioner-indoor-daikin-fca.zip}
100
AcDbAttributeDefinition
  3

  2
PSOL_19
 70
     9
280
     0
  0
INSERT
  5
82
330
1F
100
AcDbEntity
  8
0
100
AcDbBlockReference
  2
1_FCA30AAVJU_BYCQ54GEFU_PART7_0_in_FCA30AAVJU_BYCQ54GEFU_4
 10
0.0
 20
0.0
 30
0.0
  0
INSERT
  5
B1
330
1F
100
AcDbEntity
  8
0
100
AcDbBlockReference
  2
2_FCA30AAVJU_BYCQ54GEFU_PART6_0_in_FCA30AAVJU_BYCQ54GEFU_4
 10
0.0
 20
0.0
 30
0.0
  0
INSERT
  5
DD
330
1F
100
AcDbEntity
  8
0
100
AcDbBlockReference
  2
3_FCA30AAVJU_BYCQ54GEFU_PART5_0_in_FCA30AAVJU_BYCQ54GEFU_4
 10
0.0
 20
0.0
 30
0.0
  0
INSERT
  5
109
330
1F
100
AcDbEntity
  8
0
100
AcDbBlockReference
  2
4_FCA30AAVJU_BYCQ54GEFU_PART4_0_in_FCA30AAVJU_BYCQ54GEFU_4
 10
0.0
 20
0.0
 30
0.0
  0
INSERT
  5
147
330
1F
100
AcDbEntity
  8
0
100
AcDbBlockReference
  2
5_FCA30AAVJU_BYCQ54GEFU_PART2_0_in_FCA30AAVJU_BYCQ54GEFU_4
 10
0.0
 20
0.0
 30
0.0
  0
INSERT
  5
19C
330
1F
100
AcDbEntity
  8
0
100
AcDbBlockReference
  2
6_FCA30AAVJU_BYCQ54GEFU_PART1_0_in_FCA30AAVJU_BYCQ54GEFU_4
 10
0.0
 20
0.0
 30
0.0
  0
ENDSEC
  0
SECTION
  2
OBJECTS
  0
DICTIONARY
  5
C
330
0
100
AcDbDictionary
281
     1
  3
ACAD_DETAILVIEWSTYLE
350
1CB
  3
ACAD_GROUP
350
D
  3
ACAD_LAYOUT
350
1A
  3
ACAD_MATERIAL
350
43
  3
ACAD_MLEADERSTYLE
350
5B
  3
ACAD_MLINESTYLE
350
17
  3
ACAD_PLOTSETTINGS
350
19
  3
ACAD_PLOTSTYLENAME
350
E
  3
ACAD_SCALELIST
350
47
  3
ACAD_SECTIONVIEWSTYLE
350
1CC
  3
ACAD_TABLESTYLE
350
59
  3
ACAD_VISUALSTYLE
350
2A
  3
ACDB_RECOMPOSE_DATA
350
1C8
  3
AcDbVariableDictionary
350
1C4
  0
SUN
  5
5D
330
29
100
AcDbSun
 90
        1
290
     0
 63
     7
421
 16777215
 40
1.0
291
     1
 91
  2455826
 92
 54000000
292
     0
 70
     2
 71
   256
280
     1
  0
DICTIONARY
  5
1CB
102
{ACAD_REACTORS
330
C
102
}
330
C
100
AcDbDictionary
281
     1
  0
DICTIONARY
  5
D
102
{ACAD_REACTORS
330
C
102
}
330
C
100
AcDbDictionary
281
     1
  0
DICTIONARY
  5
1A
102
{ACAD_REACTORS
330
C
102
}
330
C
100
AcDbDictionary
281
     1
  3
Layout1
350
1E
  3
Layout2
350
26
  3
Model
350
22
  0
DICTIONARY
  5
43
102
{ACAD_REACTORS
330
C
102
}
330
C
100
AcDbDictionary
281
     1
  3
ByBlock
350
45
  3
ByLayer
350
44
  3
Global
350
46
  0
DICTIONARY
  5
5B
102
{ACAD_REACTORS
330
C
102
}
330
C
100
AcDbDictionary
281
     1
  3
Standard
350
5C
  0
DICTIONARY
  5
17
102
{ACAD_REACTORS
330
C
102
}
330
C
100
AcDbDictionary
281
     1
  3
Standard
350
18
  0
DICTIONARY
  5
19
102
{ACAD_REACTORS
330
C
102
}
330
C
100
AcDbDictionary
281
     1
  0
ACDBDICTIONARYWDFLT
  5
E
102
{ACAD_REACTORS
330
C
102
}
330
C
100
AcDbDictionary
281
     1
  3
Normal
350
F
100
AcDbDictionaryWithDefault
340
F
  0
DICTIONARY
  5
47
102
{ACAD_REACTORS
330
C
102
}
330
C
100
AcDbDictionary
281
     1
  3
A0
350
48
  3
A1
350
49
  3
A2
350
4A
  3
A3
350
4B
  3
A4
350
4C
  3
A5
350
4D
  3
A6
350
4E
  3
A7
350
4F
  3
A8
350
50
  3
A9
350
51
  3
B0
350
52
  3
B1
350
53
  3
B2
350
54
  3
B3
350
55
  3
B4
350
56
  3
B5
350
57
  3
B6
350
58
  0
DICTIONARY
  5
1CC
102
{ACAD_REACTORS
330
C
102
}
330
C
100
AcDbDictionary
281
     1
  0
DICTIONARY
  5
59
102
{ACAD_REACTORS
330
C
102
}
330
C
100
AcDbDictionary
281
     1
  3
Standard
350
5A
  0
DICTIONARY
  5
2A
102
{ACAD_REACTORS
330
C
102
}
330
C
100
AcDbDictionary
281
     1
  3
2dWireframe
350
2F
  3
Basic
350
32
  3
Brighten
350
36
  3
ColorChange
350
3A
  3
Conceptual
350
34
  3
Dim
350
35
  3
EdgeColorOff
350
3D
  3
Facepattern
350
39
  3
Flat
350
2B
  3
FlatWithEdges
350
2C
  3
Gouraud
350
2D
  3
GouraudWithEdges
350
2E
  3
Hidden
350
31
  3
JitterOff
350
3B
  3
Linepattern
350
38
  3
OverhangOff
350
3C
  3
Realistic
350
33
  3
Shaded
350
42
  3
Shaded with edges
350
41
  3
Shades of Gray
350
3E
  3
Sketchy
350
3F
  3
Thicken
350
37
  3
Wireframe
350
30
  3
X-Ray
350
40
  0
XRECORD
  5
1C8
102
{ACAD_REACTORS
330
C
102
}
330
C
100
AcDbXrecord
280
     1
 90
        1
330
5A
  0
DICTIONARY
  5
1C4
102
{ACAD_REACTORS
330
C
102
}
330
C
100
AcDbDictionary
281
     1
  3
CANNOSCALE
350
1C5
  3
CENTEREXE
350
1CD
  3
CENTERLTYPEFILE
350
1CE
  3
CMLEADERSTYLE
350
1CA
  3
CTABLESTYLE
350
1C9
  0
LAYOUT
  5
1E
102
{ACAD_REACTORS
330
1A
102
}
330
1A
100
AcDbPlotSettings
  1

  2
none_device
  4

  6

 40
0.0
 41
0.0
 42
0.0
 43
0.0
 44
0.0
 45
0.0
 46
0.0
 47
0.0
 48
0.0
 49
0.0
140
0.0
141
0.0
142
1.0
143
1.0
 70
   688
 72
     1
 73
     0
 74
     5
  7

 75
    16
 76
     0
 77
     2
 78
   300
147
1.0
148
0.0
149
0.0
100
AcDbLayout
  1
Layout1
 70
     1
 71
     1
 10
0.0
 20
0.0
 11
420.0
 21
297.0
 12
0.0
 22
0.0
 32
0.0
 14
1.000000000000000E+20
 24
1.000000000000000E+20
 34
1.000000000000000E+20
 15
-1.000000000000000E+20
 25
-1.000000000000000E+20
 35
-1.000000000000000E+20
146
0.0
 13
0.0
 23
0.0
 33
0.0
 16
1.0
 26
0.0
 36
0.0
 17
0.0
 27
1.0
 37
0.0
 76
     0
330
1B
  0
LAYOUT
  5
26
102
{ACAD_REACTORS
330
1A
102
}
330
1A
100
AcDbPlotSettings
  1

  2
none_device
  4

  6

 40
0.0
 41
0.0
 42
0.0
 43
0.0
 44
0.0
 45
0.0
 46
0.0
 47
0.0
 48
0.0
 49
0.0
140
0.0
141
0.0
142
1.0
143
1.0
 70
   688
 72
     1
 73
     0
 74
     5
  7

 75
    16
 76
     0
 77
     2
 78
   300
147
1.0
148
0.0
149
0.0
100
AcDbLayout
  1
Layout2
 70
     1
 71
     2
 10
0.0
 20
0.0
 11
0.0
 21
0.0
 12
0.0
 22
0.0
 32
0.0
 14
0.0
 24
0.0
 34
0.0
 15
0.0
 25
0.0
 35
0.0
146
0.0
 13
0.0
 23
0.0
 33
0.0
 16
1.0
 26
0.0
 36
0.0
 17
0.0
 27
1.0
 37
0.0
 76
     0
330
23
  0
LAYOUT
  5
22
102
{ACAD_REACTORS
330
1A
102
}
330
1A
100
AcDbPlotSettings
  1

  2
none_device
  4
Letter_(8.50_x_11.00_Inches)
  6

 40
6.35
 41
6.35
 42
6.35000508
 43
6.35000508
 44
215.9
 45
279.4
 46
0.0
 47
0.0
 48
0.0
 49
0.0
140
0.0
141
0.0
142
1.0
143
1.0
 70
  1712
 72
     1
 73
     0
 74
     0
  7

 75
     0
 76
     0
 77
     2
 78
   300
147
1.0
148
0.0
149
0.0
100
AcDbLayout
  1
Model
 70
     1
 71
     0
 10
0.0
 20
0.0
 11
420.0
 21
297.0
 12
0.0
 22
0.0
 32
0.0
 14
-474.662503518672
 24
-474.6625038084816
 34
0.0
 15
486.5794524516766
 25
475.1679275359912
 35
0.0
146
0.0
 13
0.0
 23
0.0
 33
0.0
 16
1.0
 26
0.0
 36
0.0
 17
0.0
 27
1.0
 37
0.0
 76
     0
330
1F
331
29
  0
MATERIAL
  5
45
102
{ACAD_REACTORS
330
43
102
}
330
43
100
AcDbMaterial
  1
ByBlock
 72
     1
 94
      127
  0
MATERIAL
  5
44
102
{ACAD_REACTORS
330
43
102
}
330
43
100
AcDbMaterial
  1
ByLayer
 72
     1
 94
      127
  0
MATERIAL
  5
46
102
{ACAD_REACTORS
330
43
102
}
330
43
100
AcDbMaterial
  1
Global
 72
     1
 94
      127
  0
MLEADERSTYLE
  5
5C
102
{ACAD_REACTORS
330
5B
102
}
330
5B
100
AcDbMLeaderStyle
179
     2
170
     2
171
     1
172
     0
 90
        2
 40
0.0
 41
0.0
173
     1
 91
-1056964608
340
14
 92
       -2
290
     1
 42
2.0
291
     1
 43
8.0
  3
Standard
341
0
 44
4.0
300

342
11
174
     1
178
     6
175
     1
176
     0
 93
-1056964608
 45
4.0
292
     0
297
     0
 46
4.0
343
0
 94
-1056964608
 47
1.0
 49
1.0
140
1.0
293
     1
141
0.0
294
     1
177
     0
142
1.0
295
     0
296
     0
143
3.75
271
     0
272
     9
273
     9
298
     0
  0
MLINESTYLE
  5
18
102
{ACAD_REACTORS
330
17
102
}
330
17
100
AcDbMlineStyle
  2
Standard
 70
     0
  3

 62
   256
 51
90.0
 52
90.0
 71
     2
 49
0.5
 62
   256
  6
BYLAYER
 49
-0.5
 62
   256
  6
BYLAYER
  0
ACDBPLACEHOLDER
  5
F
102
{ACAD_REACTORS
330
E
102
}
330
E
  0
SCALE
  5
48
102
{ACAD_REACTORS
330
47
102
}
330
47
100
AcDbScale
 70
     0
300
1:1
140
1.0
141
1.0
290
     1
  0
SCALE
  5
49
102
{ACAD_REACTORS
330
47
102
}
330
47
100
AcDbScale
 70
     0
300
1:2
140
1.0
141
2.0
290
     0
  0
SCALE
  5
4A
102
{ACAD_REACTORS
330
47
102
}
330
47
100
AcDbScale
 70
     0
300
1:4
140
1.0
141
4.0
290
     0
  0
SCALE
  5
4B
102
{ACAD_REACTORS
330
47
102
}
330
47
100
AcDbScale
 70
     0
300
1:5
140
1.0
141
5.0
290
     0
  0
SCALE
  5
4C
102
{ACAD_REACTORS
330
47
102
}
330
47
100
AcDbScale
 70
     0
300
1:8
140
1.0
141
8.0
290
     0
  0
SCALE
  5
4D
102
{ACAD_REACTORS
330
47
102
}
330
47
100
AcDbScale
 70
     0
300
1:10
140
1.0
141
10.0
290
     0
  0
SCALE
  5
4E
102
{ACAD_REACTORS
330
47
102
}
330
47
100
AcDbScale
 70
     0
300
1:16
140
1.0
141
16.0
290
     0
  0
SCALE
  5
4F
102
{ACAD_REACTORS
330
47
102
}
330
47
100
AcDbScale
 70
     0
300
1:20
140
1.0
141
20.0
290
     0
  0
SCALE
  5
50
102
{ACAD_REACTORS
330
47
102
}
330
47
100
AcDbScale
 70
     0
300
1:30
140
1.0
141
30.0
290
     0
  0
SCALE
  5
51
102
{ACAD_REACTORS
330
47
102
}
330
47
100
AcDbScale
 70
     0
300
1:40
140
1.0
141
40.0
290
     0
  0
SCALE
  5
52
102
{ACAD_REACTORS
330
47
102
}
330
47
100
AcDbScale
 70
     0
300
1:50
140
1.0
141
50.0
290
     0
  0
SCALE
  5
53
102
{ACAD_REACTORS
330
47
102
}
330
47
100
AcDbScale
 70
     0
300
1:100
140
1.0
141
100.0
290
     0
  0
SCALE
  5
54
102
{ACAD_REACTORS
330
47
102
}
330
47
100
AcDbScale
 70
     0
300
2:1
140
2.0
141
1.0
290
     0
  0
SCALE
  5
55
102
{ACAD_REACTORS
330
47
102
}
330
47
100
AcDbScale
 70
     0
300
4:1
140
4.0
141
1.0
290
     0
  0
SCALE
  5
56
102
{ACAD_REACTORS
330
47
102
}
330
47
100
AcDbScale
 70
     0
300
8:1
140
8.0
141
1.0
290
     0
  0
SCALE
  5
57
102
{ACAD_REACTORS
330
47
102
}
330
47
100
AcDbScale
 70
     0
300
10:1
140
10.0
141
1.0
290
     0
  0
SCALE
  5
58
102
{ACAD_REACTORS
330
47
102
}
330
47
100
AcDbScale
 70
     0
300
100:1
140
100.0
141
1.0
290
     0
  0
TABLESTYLE
  5
5A
102
{ACAD_REACTORS
330
59
102
}
102
{ACAD_XDICTIONARY
360
1C6
102
}
330
59
100
AcDbTableStyle
  3
Standard
 70
     0
 71
     0
 40
0.06
 41
0.06
280
     0
281
     0
  7
Standard
140
4.5
170
     2
 62
     0
 63
   257
283
     0
 90
        4
 91
        0
  1

274
    -2
284
     1
 64
     0
275
    -2
285
     1
 65
     0
276
    -2
286
     1
 66
     0
277
    -2
287
     1
 67
     0
278
    -2
288
     1
 68
     0
279
    -2
289
     1
 69
     0
  7
Standard
140
6.0
170
     5
 62
     0
 63
   257
283
     0
 90
        4
 91
        0
  1

274
    -2
284
     1
 64
     0
275
    -2
285
     1
 65
     0
276
    -2
286
     1
 66
     0
277
    -2
287
     1
 67
     0
278
    -2
288
     1
 68
     0
279
    -2
289
     1
 69
     0
  7
Standard
140
4.5
170
     5
 62
     0
 63
   257
283
     0
 90
        4
 91
        0
  1

274
    -2
284
     1
 64
     0
275
    -2
285
     1
 65
     0
276
    -2
286
     1
 66
     0
277
    -2
287
     1
 67
     0
278
    -2
288
     1
 68
     0
279
    -2
289
     1
 69
     0
  0
VISUALSTYLE
  5
2F
102
{ACAD_REACTORS
330
2A
102
}
330
2A
100
AcDbVisualStyle
  2
2dWireframe
 70
     4
177
     3
291
     0
 70
    58
 90
        0
176
     1
 90
        2
176
     1
 90
        0
176
     1
 90
        0
176
     1
 40
0.6
176
     1
 40
30.0
176
     1
 62
     7
420
 16777215
176
     1
 90
        1
176
     1
 90
        4
176
     1
 62
     7
176
     1
 62
   257
176
     1
 90
        1
176
     1
 90
        1
176
     1
 40
1.0
176
     1
 90
        0
176
     1
 62
   257
176
     1
 40
1.0
176
     1
 90
        1
176
     1
 90
        6
176
     1
 90
        2
176
     1
 62
     7
176
     1
 90
        5
176
     1
 90
        0
176
     1
 90
        0
176
     1
290
     0
176
     1
 90
        1
176
     1
 40
0.0
176
     1
 90
        0
176
     1
290
     1
176
     1
290
     1
176
     1
290
     0
176
     1
290
     0
176
     1
290
     0
176
     1
290
     0
176
     1
290
     0
176
     1
290
     0
176
     1
290
     0
176
     1
 90
       50
176
     1
 40
0.0
176
     1
 40
1.0
176
     1
 90
        0
176
     1
 62
    18
420
        0
176
     1
 90
       50
176
     1
 90
        3
176
     1
 62
     5
420
      255
176
     1
290
     0
176
     1
 90
       50
176
     1
 90
       50
176
     1
 90
       50
176
     1
290
     0
176
     1
 90
       50
176
     1
 62
   256
176
     0
 40
1.0
176
     0
 90
        2
176
     1
  1
strokes_ogs.tif
176
     1
290
     0
176
     1
 40
1.0
176
     1
 40
1.0
176
     1
  0
VISUALSTYLE
  5
32
102
{ACAD_REACTORS
330
2A
102
}
330
2A
100
AcDbVisualStyle
  2
Basic
 70
     7
177
     3
291
     1
 70
    58
 90
        1
176
     1
 90
        0
176
     1
 90
        1
176
     1
 90
        0
176
     1
 40
0.6
176
     1
 40
30.0
176
     1
 62
     7
420
 16777215
176
     1
 90
        0
176
     1
 90
        4
176
     1
 62
     7
176
     1
 62
   257
176
     1
 90
        1
176
     1
 90
        1
176
     1
 40
1.0
176
     1
 90
        8
176
     1
 62
     7
176
     1
 40
1.0
176
     1
 90
        1
176
     1
 90
        6
176
     1
 90
        2
176
     1
 62
     7
176
     1
 90
        5
176
     1
 90
        0
176
     1
 90
        0
176
     1
290
     0
176
     1
 90
        1
176
     1
 40
0.0
176
     1
 90
        0
176
     1
290
     0
176
     1
290
     1
176
     1
290
     1
176
     1
290
     0
176
     1
290
     0
176
     1
290
     0
176
     1
290
     0
176
     1
290
     0
176
     1
290
     0
176
     1
 90
       50
176
     1
 40
0.0
176
     1
 40
1.0
176
     1
 90
        0
176
     1
 62
    18
420
        0
176
     1
 90
       50
176
     1
 90
        3
176
     1
 62
     5
420
      255
176
     1
290
     0
176
     1
 90
       50
176
     1
 90
       50
176
     1
 90
       50
176
     1
290
     0
176
     1
 90
       50
176
     1
 62
   256
176
     0
 40
1.0
176
     0
 90
        2
176
     1
  1
strokes_ogs.tif
176
     1
290
     0
176
     1
 40
1.0
176
     1
 40
1.0
176
     1
  0
VISUALSTYLE
  5
36
102
{ACAD_REACTORS
330
2A
102
}
330
2A
100
AcDbVisualStyle
  2
Brighten
 70
    12
177
     3
291
     1
 70
    58
 90
        2
176
     1
 90
        2
176
     1
 90
        0
176
     1
 90
        0
176
     1
 40
0.6
176
     1
 40
30.0
176
     1
 62
     7
420
 16777215
176
     1
 90
        1
176
     1
 90
        4
176
     1
 62
     7
176
     1
 62
   257
176
     1
 90
        1
176
     1
 90
        1
176
     1
 40
1.0
176
     1
 90
        8
176
     1
 62
     7
176
     1
 40
1.0
176
     1
 90
        1
176
     1
 90
        6
176
     1
 90
        2
176
     1
 62
     7
176
     1
 90
        5
176
     1
 90
        0
176
     1
 90
        0
176
     1
290
     0
176
     1
 90
        1
176
     1
 40
50.0
176
     1
 90
        0
176
     1
290
     0
176
     1
290
     1
176
     1
290
     1
176
     1
290
     0
176
     1
290
     0
176
     1
290
     0
176
     1
290
     0
176
     1
290
     0
176
     1
290
     0
176
     1
 90
       50
176
     1
 40
0.0
176
     1
 40
1.0
176
     1
 90
        0
176
     1
 62
    18
420
        0
176
     1
 90
       50
176
     1
 90
        3
176
     1
 62
     5
420
      255
176
     1
290
     0
176
     1
 90
       50
176
     1
 90
       50
176
     1
 90
       50
176
     1
290
     0
176
     1
 90
       50
176
     1
 62
   256
176
     0
 40
1.0
176
     0
 90
        2
176
     1
  1
strokes_ogs.tif
176
     1
290
     0
176
     1
 40
1.0
176
     1
 40
1.0
176
     1
  0
VISUALSTYLE
  5
3A
102
{ACAD_REACTORS
330
2A
102
}
330
2A
100
AcDbVisualStyle
  2
ColorChange
 70
    16
177
     3
291
     1
 70
    58
 90
        2
176
     1
 90
        2
176
     1
 90
        3
176
     1
 90
        0
176
     1
 40
0.6
176
     1
 40
30.0
176
     1
 62
     8
420
  8421504
176
     1
 90
        1
176
     1
 90
        4
176
     1
 62
     7
176
     1
 62
   257
176
     1
 90
        1
176
     1
 90
        1
176
     1
 40
1.0
176
     1
 90
        8
176
     1
 62
     8
420
  8421504
176
     1
 40
1.0
176
     1
 90
        1
176
     1
 90
        6
176
     1
 90
        2
176
     1
 62
     7
176
     1
 90
        5
176
     1
 90
        0
176
     1
 90
        0
176
     1
290
     0
176
     1
 90
        1
176
     1
 40
0.0
176
     1
 90
        0
176
     1
290
     0
176
     1
290
     1
176
     1
290
     1
176
     1
290
     0
176
     1
290
     0
176
     1
290
     0
176
     1
290
     0
176
     1
290
     0
176
     1
290
     0
176
     1
 90
       50
176
     1
 40
0.0
176
     1
 40
1.0
176
     1
 90
        0
176
     1
 62
    18
420
        0
176
     1
 90
       50
176
     1
 90
        3
176
     1
 62
     5
420
      255
176
     1
290
     0
176
     1
 90
       50
176
     1
 90
       50
176
     1
 90
       50
176
     1
290
     0
176
     1
 90
       50
176
     1
 62
   256
176
     0
 40
1.0
176
     0
 90
        2
176
     1
  1
strokes_ogs.tif
176
     1
290
     0
176
     1
 40
1.0
176
     1
 40
1.0
176
     1
  0
VISUALSTYLE
  5
34
102
{ACAD_REACTORS
330
2A
102
}
330
2A
100
AcDbVisualStyle
  2
Conceptual
 70
     9
177
     3
291
     0
 70
    58
 90
        3
176
     1
 90
        2
176
     1
 90
        0
176
     1
 90
        0
176
     1
 40
0.6
176
     1
 40
30.0
176
     1
 62
     7
420
 16777215
176
     1
 90
        2
176
     1
 90
        2
176
     1
 62
     7
176
     1
 62
   257
176
     1
 90
        1
176
     1
 90
        1
176
     1
 40
179.0
176
     1
 90
        8
176
     1
 62
     7
176
     1
 40
1.0
176
     1
 90
        1
176
     1
 90
        6
176
     1
 90
        2
176
     1
 62
     7
176
     1
 90
        3
176
     1
 90
        0
176
     1
 90
        0
176
     1
290
     0
176
     1
 90
        1
176
     1
 40
0.0
176
     1
 90
        0
176
     1
290
     0
176
     1
290
     1
176
     1
290
     1
176
     1
290
     0
176
     1
290
     0
176
     1
290
     0
176
     1
290
     0
176
     1
290
     0
176
     1
290
     0
176
     1
 90
       50
176
     1
 40
0.0
176
     1
 40
1.0
176
     1
 90
        0
176
     1
 62
    18
420
        0
176
     1
 90
       50
176
     1
 90
        3
176
     1
 62
     5
420
      255
176
     1
290
     0
176
     1
 90
       50
176
     1
 90
       50
176
     1
 90
       50
176
     1
290
     0
176
     1
 90
       50
176
     1
 62
   256
176
     0
 40
1.0
176
     0
 90
        2
176
     1
  1
strokes_ogs.tif
176
     1
290
     0
176
     1
 40
1.0
176
     1
 40
1.0
176
     1
  0
VISUALSTYLE
  5
35
102
{ACAD_REACTORS
330
2A
102
}
330
2A
100
AcDbVisualStyle
  2
Dim
 70
    11
177
     3
291
     1
 70
    58
 90
        2
176
     1
 90
        2
176
     1
 90
        0
176
     1
 90
        0
176
     1
 40
0.6
176
     1
 40
30.0
176
     1
 62
     7
420
 16777215
176
     1
 90
        1
176
     1
 90
        4
176
     1
 62
     7
176
     1
 62
   257
176
     1
 90
        1
176
     1
 90
        1
176
     1
 40
1.0
176
     1
 90
        8
176
     1
 62
     7
176
     1
 40
1.0
176
     1
 90
        1
176
     1
 90
        6
176
     1
 90
        2
176
     1
 62
     7
176
     1
 90
        5
176
     1
 90
        0
176
     1
 90
        0
176
     1
290
     0
176
     1
 90
        1
176
     1
 40
-50.0
176
     1
 90
        0
176
     1
290
     0
176
     1
290
     1
176
     1
290
     1
176
     1
290
     0
176
     1
290
     0
176
     1
290
     0
176
     1
290
     0
176
     1
290
     0
176
     1
290
     0
176
     1
 90
       50
176
     1
 40
0.0
176
     1
 40
1.0
176
     1
 90
        0
176
     1
 62
    18
420
        0
176
     1
 90
       50
176
     1
 90
        3
176
     1
 62
     5
420
      255
176
     1
290
     0
176
     1
 90
       50
176
     1
 90
       50
176
     1
 90
       50
176
     1
290
     0
176
     1
 90
       50
176
     1
 62
   256
176
     0
 40
1.0
176
     0
 90
        2
176
     1
  1
strokes_ogs.tif
176
     1
290
     0
176
     1
 40
1.0
176
     1
 40
1.0
176
     1
  0
VISUALSTYLE
  5
3D
102
{ACAD_REACTORS
330
2A
102
}
330
2A
100
AcDbVisualStyle
  2
EdgeColorOff
 70
    22
177
     3
291
     1
 70
    58
 90
        2
176
     0
 90
        2
176
     0
 90
        0
176
     0
 90
        0
176
     0
 40
0.6
176
     0
 40
30.0
176
     0
 62
     7
420
 16777215
176
     0
 90
        1
176
     0
 90
        4
176
     0
 62
     7
176
     0
 62
   257
176
     0
 90
        1
176
     0
 90
        1
176
     0
 40
1.0
176
     0
 90
        8
176
     2
 62
     7
176
     0
 40
1.0
176
     0
 90
        1
176
     0
 90
        6
176
     0
 90
        2
176
     0
 62
     7
176
     0
 90
        5
176
     0
 90
        0
176
     0
 90
        0
176
     0
290
     0
176
     0
 90
        1
176
     0
 40
0.0
176
     0
 90
        0
176
     0
290
     0
176
     0
290
     1
176
     0
290
     1
176
     0
290
     0
176
     0
290
     0
176
     0
290
     0
176
     0
290
     0
176
     0
290
     0
176
     0
290
     0
176
     0
 90
       50
176
     0
 40
0.0
176
     0
 40
1.0
176
     0
 90
        0
176
     0
 62
    18
420
        0
176
     0
 90
       50
176
     0
 90
        3
176
     0
 62
     5
420
      255
176
     0
290
     0
176
     0
 90
       50
176
     0
 90
       50
176
     0
 90
       50
176
     0
290
     0
176
     0
 90
       50
176
     0
 62
   256
176
     0
 40
1.0
176
     0
 90
        2
176
     0
  1
strokes_ogs.tif
176
     0
290
     0
176
     0
 40
1.0
176
     0
 40
1.0
176
     0
  0
VISUALSTYLE
  5
39
102
{ACAD_REACTORS
330
2A
102
}
330
2A
100
AcDbVisualStyle
  2
Facepattern
 70
    15
177
     3
291
     1
 70
    58
 90
        2
176
     1
 90
        2
176
     1
 90
        0
176
     1
 90
        0
176
     1
 40
0.6
176
     1
 40
30.0
176
     1
 62
     7
420
 16777215
176
     1
 90
        1
176
     1
 90
        4
176
     1
 62
     7
176
     1
 62
   257
176
     1
 90
        1
176
     1
 90
        1
176
     1
 40
1.0
176
     1
 90
        8
176
     1
 62
     7
176
     1
 40
1.0
176
     1
 90
        1
176
     1
 90
        6
176
     1
 90
        2
176
     1
 62
     7
176
     1
 90
        5
176
     1
 90
        0
176
     1
 90
        0
176
     1
290
     0
176
     1
 90
        1
176
     1
 40
0.0
176
     1
 90
        0
176
     1
290
     0
176
     1
290
     1
176
     1
290
     1
176
     1
290
     0
176
     1
290
     0
176
     1
290
     0
176
     1
290
     0
176
     1
290
     0
176
     1
290
     0
176
     1
 90
       50
176
     1
 40
0.0
176
     1
 40
1.0
176
     1
 90
        0
176
     1
 62
    18
420
        0
176
     1
 90
       50
176
     1
 90
        3
176
     1
 62
     5
420
      255
176
     1
290
     0
176
     1
 90
       50
176
     1
 90
       50
176
     1
 90
       50
176
     1
290
     0
176
     1
 90
       50
176
     1
 62
   256
176
     0
 40
1.0
176
     0
 90
        2
176
     1
  1
strokes_ogs.tif
176
     1
290
     0
176
     1
 40
1.0
176
     1
 40
1.0
176
     1
  0
VISUALSTYLE
  5
2B
102
{ACAD_REACTORS
330
2A
102
}
330
2A
100
AcDbVisualStyle
  2
Flat
 70
     0
177
     3
291
     1
 70
    58
 90
        2
176
     1
 90
        1
176
     1
 90
        1
176
     1
 90
        2
176
     1
 40
0.6
176
     1
 40
30.0
176
     1
 62
     7
420
 16777215
176
     1
 90
        0
176
     1
 90
        0
176
     1
 62
     7
176
     1
 62
   257
176
     1
 90
        1
176
     1
 90
        1
176
     1
 40
1.0
176
     1
 90
        8
176
     1
 62
     7
176
     1
 40
1.0
176
     1
 90
        1
176
     1
 90
        6
176
     1
 90
        2
176
     1
 62
     7
176
     1
 90
        5
176
     1
 90
        0
176
     1
 90
        0
176
     1
290
     0
176
     1
 90
       13
176
     1
 40
0.0
176
     1
 90
        0
176
     1
290
     0
176
     1
290
     1
176
     1
290
     1
176
     1
290
     0
176
     1
290
     0
176
     1
290
     0
176
     1
290
     0
176
     1
290
     0
176
     1
290
     0
176
     1
 90
       50
176
     1
 40
0.0
176
     1
 40
1.0
176
     1
 90
        0
176
     1
 62
    18
420
        0
176
     1
 90
       50
176
     1
 90
        3
176
     1
 62
     5
420
      255
176
     1
290
     0
176
     1
 90
       50
176
     1
 90
       50
176
     1
 90
       50
176
     1
290
     0
176
     1
 90
       50
176
     1
 62
   256
176
     0
 40
1.0
176
     0
 90
        2
176
     1
  1
strokes_ogs.tif
176
     1
290
     0
176
     1
 40
1.0
176
     1
 40
1.0
176
     1
  0
VISUALSTYLE
  5
2C
102
{ACAD_REACTORS
330
2A
102
}
330
2A
100
AcDbVisualStyle
  2
FlatWithEdges
 70
     1
177
     3
291
     1
 70
    58
 90
        2
176
     1
 90
        1
176
     1
 90
        1
176
     1
 90
        2
176
     1
 40
0.6
176
     1
 40
30.0
176
     1
 62
     7
420
 16777215
176
     1
 90
        1
176
     1
 90
        0
176
     1
 62
     7
176
     1
 62
   257
176
     1
 90
        1
176
     1
 90
        1
176
     1
 40
1.0
176
     1
 90
        0
176
     1
 62
   257
176
     1
 40
1.0
176
     1
 90
        1
176
     1
 90
        6
176
     1
 90
        2
176
     1
 62
     7
176
     1
 90
        5
176
     1
 90
        0
176
     1
 90
        0
176
     1
290
     0
176
     1
 90
       13
176
     1
 40
0.0
176
     1
 90
        0
176
     1
290
     0
176
     1
290
     1
176
     1
290
     1
176
     1
290
     0
176
     1
290
     0
176
     1
290
     0
176
     1
290
     0
176
     1
290
     0
176
     1
290
     0
176
     1
 90
       50
176
     1
 40
0.0
176
     1
 40
1.0
176
     1
 90
        0
176
     1
 62
    18
420
        0
176
     1
 90
       50
176
     1
 90
        3
176
     1
 62
     5
420
      255
176
     1
290
     0
176
     1
 90
       50
176
     1
 90
       50
176
     1
 90
       50
176
     1
290
     0
176
     1
 90
       50
176
     1
 62
   256
176
     0
 40
1.0
176
     0
 90
        2
176
     1
  1
strokes_ogs.tif
176
     1
290
     0
176
     1
 40
1.0
176
     1
 40
1.0
176
     1
  0
VISUALSTYLE
  5
2D
102
{ACAD_REACTORS
330
2A
102
}
330
2A
100
AcDbVisualStyle
  2
Gouraud
 70
     2
177
     3
291
     1
 70
    58
 90
        2
176
     1
 90
        2
176
     1
 90
        1
176
     1
 90
        2
176
     1
 40
0.6
176
     1
 40
30.0
176
     1
 62
     7
420
 16777215
176
     1
 90
        0
176
     1
 90
        0
176
     1
 62
     7
176
     1
 62
   257
176
     1
 90
        1
176
     1
 90
        1
176
     1
 40
1.0
176
     1
 90
        0
176
     1
 62
     7
176
     1
 40
1.0
176
     1
 90
        1
176
     1
 90
        6
176
     1
 90
        2
176
     1
 62
     7
176
     1
 90
        5
176
     1
 90
        0
176
     1
 90
        0
176
     1
290
     0
176
     1
 90
       13
176
     1
 40
0.0
176
     1
 90
        0
176
     1
290
     0
176
     1
290
     1
176
     1
290
     1
176
     1
290
     0
176
     1
290
     0
176
     1
290
     0
176
     1
290
     0
176
     1
290
     0
176
     1
290
     0
176
     1
 90
       50
176
     1
 40
0.0
176
     1
 40
1.0
176
     1
 90
        0
176
     1
 62
    18
420
        0
176
     1
 90
       50
176
     1
 90
        3
176
     1
 62
     5
420
      255
176
     1
290
     0
176
     1
 90
       50
176
     1
 90
       50
176
     1
 90
       50
176
     1
290
     0
176
     1
 90
       50
176
     1
 62
   256
176
     0
 40
1.0
176
     0
 90
        2
176
     1
  1
strokes_ogs.tif
176
     1
290
     0
176
     1
 40
1.0
176
     1
 40
1.0
176
     1
  0
VISUALSTYLE
  5
2E
102
{ACAD_REACTORS
330
2A
102
}
330
2A
100
AcDbVisualStyle
  2
GouraudWithEdges
 70
     3
177
     3
291
     1
 70
    58
 90
        2
176
     1
 90
        2
176
     1
 90
        1
176
     1
 90
        2
176
     1
 40
0.6
176
     1
 40
30.0
176
     1
 62
     7
420
 16777215
176
     1
 90
        1
176
     1
 90
        0
176
     1
 62
     7
176
     1
 62
   257
176
     1
 90
        1
176
     1
 90
        1
176
     1
 40
1.0
176
     1
 90
        0
176
     1
 62
   257
176
     1
 40
1.0
176
     1
 90
        1
176
     1
 90
        6
176
     1
 90
        2
176
     1
 62
     7
176
     1
 90
        5
176
     1
 90
        0
176
     1
 90
        0
176
     1
290
     0
176
     1
 90
       13
176
     1
 40
0.0
176
     1
 90
        0
176
     1
290
     0
176
     1
290
     1
176
     1
290
     1
176
     1
290
     0
176
     1
290
     0
176
     1
290
     0
176
     1
290
     0
176
     1
290
     0
176
     1
290
     0
176
     1
 90
       50
176
     1
 40
0.0
176
     1
 40
1.0
176
     1
 90
        0
176
     1
 62
    18
420
        0
176
     1
 90
       50
176
     1
 90
        3
176
     1
 62
     5
420
      255
176
     1
290
     0
176
     1
 90
       50
176
     1
 90
       50
176
     1
 90
       50
176
     1
290
     0
176
     1
 90
       50
176
     1
 62
   256
176
     0
 40
1.0
176
     0
 90
        2
176
     1
  1
strokes_ogs.tif
176
     1
290
     0
176
     1
 40
1.0
176
     1
 40
1.0
176
     1
  0
VISUALSTYLE
  5
31
102
{ACAD_REACTORS
330
2A
102
}
330
2A
100
AcDbVisualStyle
  2
Hidden
 70
     6
177
     3
291
     0
 70
    58
 90
        1
176
     1
 90
        2
176
     1
 90
        2
176
     1
 90
        0
176
     1
 40
0.6
176
     1
 40
30.0
176
     1
 62
     7
420
 16777215
176
     1
 90
        2
176
     1
 90
        2
176
     1
 62
     7
176
     1
 62
   257
176
     1
 90
        2
176
     1
 90
        1
176
     1
 40
40.0
176
     1
 90
        0
176
     1
 62
   257
176
     1
 40
1.0
176
     1
 90
        1
176
     1
 90
        6
176
     1
 90
        2
176
     1
 62
     7
176
     1
 90
        3
176
     1
 90
        0
176
     1
 90
        0
176
     1
290
     0
176
     1
 90
        1
176
     1
 40
0.0
176
     1
 90
        0
176
     1
290
     0
176
     1
290
     1
176
     1
290
     1
176
     1
290
     0
176
     1
290
     0
176
     1
290
     0
176
     1
290
     0
176
     1
290
     0
176
     1
290
     0
176
     1
 90
       50
176
     1
 40
0.0
176
     1
 40
1.0
176
     1
 90
        0
176
     1
 62
    18
420
        0
176
     1
 90
       50
176
     1
 90
        3
176
     1
 62
     5
420
      255
176
     1
290
     0
176
     1
 90
       50
176
     1
 90
       50
176
     1
 90
       50
176
     1
290
     0
176
     1
 90
       50
176
     1
 62
   256
176
     0
 40
1.0
176
     0
 90
        2
176
     1
  1
strokes_ogs.tif
176
     1
290
     0
176
     1
 40
1.0
176
     1
 40
1.0
176
     1
  0
VISUALSTYLE
  5
3B
102
{ACAD_REACTORS
330
2A
102
}
330
2A
100
AcDbVisualStyle
  2
JitterOff
 70
    20
177
     3
291
     1
 70
    58
 90
        2
176
     0
 90
        2
176
     0
 90
        0
176
     0
 90
        0
176
     0
 40
0.6
176
     0
 40
30.0
176
     0
 62
     7
420
 16777215
176
     0
 90
        1
176
     0
 90
        4
176
     0
 62
     7
176
     0
 62
   257
176
     0
 90
        1
176
     0
 90
        1
176
     0
 40
1.0
176
     0
 90
       10
176
     2
 62
     7
176
     0
 40
1.0
176
     0
 90
        1
176
     0
 90
        6
176
     0
 90
        2
176
     0
 62
     7
176
     0
 90
        5
176
     0
 90
        0
176
     0
 90
        0
176
     0
290
     0
176
     0
 90
        1
176
     0
 40
0.0
176
     0
 90
        0
176
     0
290
     0
176
     0
290
     1
176
     0
290
     1
176
     0
290
     0
176
     0
290
     0
176
     0
290
     0
176
     0
290
     0
176
     0
290
     0
176
     0
290
     0
176
     0
 90
       50
176
     0
 40
0.0
176
     0
 40
1.0
176
     0
 90
        0
176
     0
 62
    18
420
        0
176
     0
 90
       50
176
     0
 90
        3
176
     0
 62
     5
420
      255
176
     0
290
     0
176
     0
 90
       50
176
     0
 90
       50
176
     0
 90
       50
176
     0
290
     0
176
     0
 90
       50
176
     0
 62
   256
176
     0
 40
1.0
176
     0
 90
        2
176
     0
  1
strokes_ogs.tif
176
     0
290
     0
176
     0
 40
1.0
176
     0
 40
1.0
176
     0
  0
VISUALSTYLE
  5
38
102
{ACAD_REACTORS
330
2A
102
}
330
2A
100
AcDbVisualStyle
  2
Linepattern
 70
    14
177
     3
291
     1
 70
    58
 90
        2
176
     1
 90
        2
176
     1
 90
        0
176
     1
 90
        0
176
     1
 40
0.6
176
     1
 40
30.0
176
     1
 62
     7
420
 16777215
176
     1
 90
        1
176
     1
 90
        4
176
     1
 62
     7
176
     1
 62
   257
176
     1
 90
        7
176
     1
 90
        7
176
     1
 40
1.0
176
     1
 90
        8
176
     1
 62
     7
176
     1
 40
1.0
176
     1
 90
        1
176
     1
 90
        6
176
     1
 90
        2
176
     1
 62
     7
176
     1
 90
        5
176
     1
 90
        0
176
     1
 90
        0
176
     1
290
     0
176
     1
 90
        1
176
     1
 40
0.0
176
     1
 90
        0
176
     1
290
     0
176
     1
290
     1
176
     1
290
     1
176
     1
290
     0
176
     1
290
     0
176
     1
290
     0
176
     1
290
     0
176
     1
290
     0
176
     1
290
     0
176
     1
 90
       50
176
     1
 40
0.0
176
     1
 40
1.0
176
     1
 90
        0
176
     1
 62
    18
420
        0
176
     1
 90
       50
176
     1
 90
        3
176
     1
 62
     5
420
      255
176
     1
290
     0
176
     1
 90
       50
176
     1
 90
       50
176
     1
 90
       50
176
     1
290
     0
176
     1
 90
       50
176
     1
 62
   256
176
     0
 40
1.0
176
     0
 90
        2
176
     1
  1
strokes_ogs.tif
176
     1
290
     0
176
     1
 40
1.0
176
     1
 40
1.0
176
     1
  0
VISUALSTYLE
  5
3C
102
{ACAD_REACTORS
330
2A
102
}
330
2A
100
AcDbVisualStyle
  2
OverhangOff
 70
    21
177
     3
291
     1
 70
    58
 90
        2
176
     0
 90
        2
176
     0
 90
        0
176
     0
 90
        0
176
     0
 40
0.6
176
     0
 40
30.0
176
     0
 62
     7
420
 16777215
176
     0
 90
        1
176
     0
 90
        4
176
     0
 62
     7
176
     0
 62
   257
176
     0
 90
        1
176
     0
 90
        1
176
     0
 40
1.0
176
     0
 90
        9
176
     2
 62
     7
176
     0
 40
1.0
176
     0
 90
        1
176
     0
 90
        6
176
     0
 90
        2
176
     0
 62
     7
176
     0
 90
        5
176
     0
 90
        0
176
     0
 90
        0
176
     0
290
     0
176
     0
 90
        1
176
     0
 40
0.0
176
     0
 90
        0
176
     0
290
     0
176
     0
290
     1
176
     0
290
     1
176
     0
290
     0
176
     0
290
     0
176
     0
290
     0
176
     0
290
     0
176
     0
290
     0
176
     0
290
     0
176
     0
 90
       50
176
     0
 40
0.0
176
     0
 40
1.0
176
     0
 90
        0
176
     0
 62
    18
420
        0
176
     0
 90
       50
176
     0
 90
        3
176
     0
 62
     5
420
      255
176
     0
290
     0
176
     0
 90
       50
176
     0
 90
       50
176
     0
 90
       50
176
     0
290
     0
176
     0
 90
       50
176
     0
 62
   256
176
     0
 40
1.0
176
     0
 90
        2
176
     0
  1
strokes_ogs.tif
176
     0
290
     0
176
     0
 40
1.0
176
     0
 40
1.0
176
     0
  0
VISUALSTYLE
  5
33
102
{ACAD_REACTORS
330
2A
102
}
330
2A
100
AcDbVisualStyle
  2
Realistic
 70
     8
177
     3
291
     0
 70
    58
 90
        2
176
     1
 90
        3
176
     1
 90
        0
176
     1
 90
        2
176
     1
 40
0.6
176
     1
 40
30.0
176
     1
 62
     7
420
 16777215
176
     1
 90
        0
176
     1
 90
        0
176
     1
 62
     7
176
     1
 62
   257
176
     1
 90
        1
176
     1
 90
        1
176
     1
 40
1.0
176
     1
 90
        8
176
     1
 62
   257
176
     1
 40
1.0
176
     1
 90
        1
176
     1
 90
        6
176
     1
 90
        2
176
     1
 62
     7
176
     1
 90
        3
176
     1
 90
        0
176
     1
 90
        0
176
     1
290
     0
176
     1
 90
       13
176
     1
 40
0.0
176
     1
 90
        0
176
     1
290
     0
176
     1
290
     1
176
     1
290
     1
176
     1
290
     0
176
     1
290
     0
176
     1
290
     0
176
     1
290
     0
176
     1
290
     0
176
     1
290
     0
176
     1
 90
       50
176
     1
 40
0.0
176
     1
 40
1.0
176
     1
 90
        0
176
     1
 62
    18
420
        0
176
     1
 90
       50
176
     1
 90
        3
176
     1
 62
     5
420
      255
176
     1
290
     0
176
     1
 90
       50
176
     1
 90
       50
176
     1
 90
       50
176
     1
290
     0
176
     1
 90
       50
176
     1
 62
   256
176
     0
 40
1.0
176
     0
 90
        2
176
     1
  1
strokes_ogs.tif
176
     1
290
     0
176
     1
 40
1.0
176
     1
 40
1.0
176
     1
  0
VISUALSTYLE
  5
42
102
{ACAD_REACTORS
330
2A
102
}
330
2A
100
AcDbVisualStyle
  2
Shaded
 70
    27
177
     3
291
     0
 70
    58
 90
        2
176
     1
 90
        2
176
     1
 90
        1
176
     1
 90
        2
176
     1
 40
0.6
176
     1
 40
30.0
176
     1
 62
     7
420
 16777215
176
     1
 90
        0
176
     1
 90
        4
176
     1
 62
     7
176
     1
 62
   257
176
     1
 90
        1
176
     1
 90
        1
176
     1
 40
1.0
176
     1
 90
        8
176
     1
 62
   257
176
     1
 40
1.0
176
     1
 90
        1
176
     1
 90
        6
176
     1
 90
        2
176
     1
 62
     8
420
  7895160
176
     1
 90
        3
176
     1
 90
        0
176
     1
 90
        0
176
     1
290
     0
176
     1
 90
        5
176
     1
 40
0.0
176
     1
 90
        0
176
     1
290
     0
176
     1
290
     1
176
     1
290
     1
176
     1
290
     0
176
     1
290
     0
176
     1
290
     0
176
     1
290
     0
176
     1
290
     0
176
     1
290
     0
176
     1
 90
       50
176
     1
 40
0.0
176
     1
 40
1.0
176
     1
 90
        0
176
     1
 62
    18
420
        0
176
     1
 90
       50
176
     1
 90
        3
176
     1
 62
     5
420
      255
176
     1
290
     0
176
     1
 90
       50
176
     1
 90
       50
176
     1
 90
       50
176
     1
290
     0
176
     1
 90
       50
176
     1
 62
   256
176
     0
 40
1.0
176
     0
 90
        2
176
     1
  1
strokes_ogs.tif
176
     1
290
     0
176
     1
 40
1.0
176
     1
 40
1.0
176
     1
  0
VISUALSTYLE
  5
41
102
{ACAD_REACTORS
330
2A
102
}
330
2A
100
AcDbVisualStyle
  2
Shaded with edges
 70
    26
177
     3
291
     0
 70
    58
 90
        2
176
     1
 90
        2
176
     1
 90
        1
176
     1
 90
        2
176
     1
 40
0.6
176
     1
 40
30.0
176
     1
 62
     7
420
 16777215
176
     1
 90
        1
176
     1
 90
       10
176
     1
 62
     7
176
     1
 62
   257
176
     1
 90
        2
176
     1
 90
        1
176
     1
 40
1.0
176
     1
 90
        8
176
     1
 62
   257
176
     1
 40
1.0
176
     1
 90
        1
176
     1
 90
        6
176
     1
 90
        2
176
     1
 62
     7
176
     1
 90
        3
176
     1
 90
        0
176
     1
 90
        0
176
     1
290
     0
176
     1
 90
        5
176
     1
 40
0.0
176
     1
 90
        0
176
     1
290
     0
176
     1
290
     1
176
     1
290
     1
176
     1
290
     0
176
     1
290
     0
176
     1
290
     0
176
     1
290
     0
176
     1
290
     0
176
     1
290
     0
176
     1
 90
       50
176
     1
 40
0.0
176
     1
 40
1.0
176
     1
 90
        0
176
     1
 62
    18
420
        0
176
     1
 90
       50
176
     1
 90
        3
176
     1
 62
     5
420
      255
176
     1
290
     0
176
     1
 90
       50
176
     1
 90
       50
176
     1
 90
       50
176
     1
290
     0
176
     1
 90
       50
176
     1
 62
   256
176
     0
 40
1.0
176
     0
 90
        2
176
     1
  1
strokes_ogs.tif
176
     1
290
     0
176
     1
 40
1.0
176
     1
 40
1.0
176
     1
  0
VISUALSTYLE
  5
3E
102
{ACAD_REACTORS
330
2A
102
}
330
2A
100
AcDbVisualStyle
  2
Shades of Gray
 70
    23
177
     3
291
     0
 70
    58
 90
        2
176
     1
 90
        2
176
     1
 90
        3
176
     1
 90
        0
176
     1
 40
0.6
176
     1
 40
30.0
176
     1
 62
     7
420
 16777215
176
     1
 90
        2
176
     1
 90
        2
176
     1
 62
     7
176
     1
 62
     7
176
     1
 90
        1
176
     1
 90
        1
176
     1
 40
40.0
176
     1
 90
        8
176
     1
 62
     7
176
     1
 40
1.0
176
     1
 90
        1
176
     1
 90
        6
176
     1
 90
        2
176
     1
 62
     7
176
     1
 90
        3
176
     1
 90
        0
176
     1
 90
        0
176
     1
290
     0
176
     1
 90
        1
176
     1
 40
0.0
176
     1
 90
        0
176
     1
290
     0
176
     1
290
     1
176
     1
290
     1
176
     1
290
     0
176
     1
290
     0
176
     1
290
     0
176
     1
290
     0
176
     1
290
     0
176
     1
290
     0
176
     1
 90
       50
176
     1
 40
0.0
176
     1
 40
1.0
176
     1
 90
        0
176
     1
 62
    18
420
        0
176
     1
 90
       50
176
     1
 90
        3
176
     1
 62
     5
420
      255
176
     1
290
     0
176
     1
 90
       50
176
     1
 90
       50
176
     1
 90
       50
176
     1
290
     0
176
     1
 90
       50
176
     1
 62
   256
176
     0
 40
1.0
176
     0
 90
        2
176
     1
  1
strokes_ogs.tif
176
     1
290
     0
176
     1
 40
1.0
176
     1
 40
1.0
176
     1
  0
VISUALSTYLE
  5
3F
102
{ACAD_REACTORS
330
2A
102
}
330
2A
100
AcDbVisualStyle
  2
Sketchy
 70
    24
177
     3
291
     0
 70
    58
 90
        1
176
     1
 90
        2
176
     1
 90
        2
176
     1
 90
        0
176
     1
 40
0.6
176
     1
 40
30.0
176
     1
 62
     7
420
 16777215
176
     1
 90
        2
176
     1
 90
        2
176
     1
 62
     7
176
     1
 62
     7
176
     1
 90
        1
176
     1
 90
        1
176
     1
 40
40.0
176
     1
 90
       11
176
     1
 62
     7
176
     1
 40
1.0
176
     1
 90
        1
176
     1
 90
        6
176
     1
 90
        2
176
     1
 62
     7
176
     1
 90
        6
176
     1
 90
        0
176
     1
 90
        0
176
     1
290
     0
176
     1
 90
        1
176
     1
 40
0.0
176
     1
 90
        0
176
     1
290
     0
176
     1
290
     1
176
     1
290
     1
176
     1
290
     0
176
     1
290
     0
176
     1
290
     0
176
     1
290
     0
176
     1
290
     0
176
     1
290
     0
176
     1
 90
       50
176
     1
 40
0.0
176
     1
 40
1.0
176
     1
 90
        0
176
     1
 62
    18
420
        0
176
     1
 90
       50
176
     1
 90
        3
176
     1
 62
     5
420
      255
176
     1
290
     0
176
     1
 90
       50
176
     1
 90
       50
176
     1
 90
       50
176
     1
290
     0
176
     1
 90
       50
176
     1
 62
   256
176
     0
 40
1.0
176
     0
 90
        2
176
     1
  1
strokes_ogs.tif
176
     1
290
     0
176
     1
 40
1.0
176
     1
 40
1.0
176
     1
  0
VISUALSTYLE
  5
37
102
{ACAD_REACTORS
330
2A
102
}
330
2A
100
AcDbVisualStyle
  2
Thicken
 70
    13
177
     3
291
     1
 70
    58
 90
        2
176
     1
 90
        2
176
     1
 90
        0
176
     1
 90
        0
176
     1
 40
0.6
176
     1
 40
30.0
176
     1
 62
     7
420
 16777215
176
     1
 90
        1
176
     1
 90
        4
176
     1
 62
     7
176
     1
 62
   257
176
     1
 90
        1
176
     1
 90
        1
176
     1
 40
1.0
176
     1
 90
       12
176
     1
 62
     7
176
     1
 40
1.0
176
     1
 90
        1
176
     1
 90
        6
176
     1
 90
        2
176
     1
 62
     7
176
     1
 90
        5
176
     1
 90
        0
176
     1
 90
        0
176
     1
290
     0
176
     1
 90
        1
176
     1
 40
0.0
176
     1
 90
        0
176
     1
290
     0
176
     1
290
     1
176
     1
290
     1
176
     1
290
     0
176
     1
290
     0
176
     1
290
     0
176
     1
290
     0
176
     1
290
     0
176
     1
290
     0
176
     1
 90
       50
176
     1
 40
0.0
176
     1
 40
1.0
176
     1
 90
        0
176
     1
 62
    18
420
        0
176
     1
 90
       50
176
     1
 90
        3
176
     1
 62
     5
420
      255
176
     1
290
     0
176
     1
 90
       50
176
     1
 90
       50
176
     1
 90
       50
176
     1
290
     0
176
     1
 90
       50
176
     1
 62
   256
176
     0
 40
1.0
176
     0
 90
        2
176
     1
  1
strokes_ogs.tif
176
     1
290
     0
176
     1
 40
1.0
176
     1
 40
1.0
176
     1
  0
VISUALSTYLE
  5
30
102
{ACAD_REACTORS
330
2A
102
}
330
2A
100
AcDbVisualStyle
  2
Wireframe
 70
     5
177
     3
291
     0
 70
    58
 90
        0
176
     1
 90
        2
176
     1
 90
        0
176
     1
 90
        0
176
     1
 40
0.6
176
     1
 40
30.0
176
     1
 62
     7
420
 16777215
176
     1
 90
        1
176
     1
 90
        4
176
     1
 62
     7
176
     1
 62
   257
176
     1
 90
        1
176
     1
 90
        1
176
     1
 40
1.0
176
     1
 90
        0
176
     1
 62
   257
176
     1
 40
1.0
176
     1
 90
        1
176
     1
 90
        6
176
     1
 90
        2
176
     1
 62
     7
176
     1
 90
        3
176
     1
 90
        0
176
     1
 90
        0
176
     1
290
     0
176
     1
 90
        1
176
     1
 40
0.0
176
     1
 90
        0
176
     1
290
     0
176
     1
290
     1
176
     1
290
     1
176
     1
290
     0
176
     1
290
     0
176
     1
290
     0
176
     1
290
     0
176
     1
290
     0
176
     1
290
     0
176
     1
 90
       50
176
     1
 40
0.0
176
     1
 40
1.0
176
     1
 90
        0
176
     1
 62
    18
420
        0
176
     1
 90
       50
176
     1
 90
        3
176
     1
 62
     5
420
      255
176
     1
290
     0
176
     1
 90
       50
176
     1
 90
       50
176
     1
 90
       50
176
     1
290
     0
176
     1
 90
       50
176
     1
 62
   256
176
     0
 40
1.0
176
     0
 90
        2
176
     1
  1
strokes_ogs.tif
176
     1
290
     0
176
     1
 40
1.0
176
     1
 40
1.0
176
     1
  0
VISUALSTYLE
  5
40
102
{ACAD_REACTORS
330
2A
102
}
330
2A
100
AcDbVisualStyle
  2
X-Ray
 70
    25
177
     3
291
     0
 70
    58
 90
        2
176
     1
 90
        2
176
     1
 90
        1
176
     1
 90
        1
176
     1
 40
0.5
176
     1
 40
30.0
176
     1
 62
     7
420
 16777215
176
     1
 90
        1
176
     1
 90
        0
176
     1
 62
     7
176
     1
 62
   257
176
     1
 90
        1
176
     1
 90
        1
176
     1
 40
1.0
176
     1
 90
        8
176
     1
 62
     7
176
     1
 40
1.0
176
     1
 90
        1
176
     1
 90
        6
176
     1
 90
        2
176
     1
 62
     7
176
     1
 90
        3
176
     1
 90
        0
176
     1
 90
        0
176
     1
290
     0
176
     1
 90
       13
176
     1
 40
0.0
176
     1
 90
        0
176
     1
290
     0
176
     1
290
     1
176
     1
290
     1
176
     1
290
     0
176
     1
290
     0
176
     1
290
     0
176
     1
290
     0
176
     1
290
     0
176
     1
290
     0
176
     1
 90
       50
176
     1
 40
0.0
176
     1
 40
1.0
176
     1
 90
        0
176
     1
 62
    18
420
        0
176
     1
 90
       50
176
     1
 90
        3
176
     1
 62
     5
420
      255
176
     1
290
     0
176
     1
 90
       50
176
     1
 90
       50
176
     1
 90
       50
176
     1
290
     0
176
     1
 90
       50
176
     1
 62
   256
176
     0
 40
1.0
176
     0
 90
        2
176
     1
  1
strokes_ogs.tif
176
     1
290
     0
176
     1
 40
1.0
176
     1
 40
1.0
176
     1
  0
DICTIONARYVAR
  5
1C5
102
{ACAD_REACTORS
330
1C4
102
}
330
1C4
100
DictionaryVariables
280
     0
  1
1:1
  0
DICTIONARYVAR
  5
1CD
102
{ACAD_REACTORS
330
1C4
102
}
330
1C4
100
DictionaryVariables
280
     0
  1
3.500000
  0
DICTIONARYVAR
  5
1CE
102
{ACAD_REACTORS
330
1C4
102
}
330
1C4
100
DictionaryVariables
280
     0
  1
acadiso.lin
  0
DICTIONARYVAR
  5
1CA
102
{ACAD_REACTORS
330
1C4
102
}
330
1C4
100
DictionaryVariables
280
     0
  1
Standard
  0
DICTIONARYVAR
  5
1C9
102
{ACAD_REACTORS
330
1C4
102
}
330
1C4
100
DictionaryVariables
280
     0
  1
Standard
  0
DICTIONARY
  5
1C6
330
5A
100
AcDbDictionary
280
     1
281
     1
  3
ACAD_ROUNDTRIP_2008_TABLESTYLE_CELLSTYLEMAP
360
1C7
  0
CELLSTYLEMAP
  5
1C7
102
{ACAD_REACTORS
330
1C6
102
}
330
1C6
100
AcDbCellStyleMap
 90
        3
300
CELLSTYLE
  1
TABLEFORMAT_BEGIN
 90
        5
170
     1
 91
        0
 92
    32768
 62
   257
 93
        1
300
CONTENTFORMAT
  1
CONTENTFORMAT_BEGIN
 90
        0
 91
        0
 92
        4
 93
        0
300

 40
0.0
140
1.0
 94
        5
 62
     0
340
11
144
6.0
309
CONTENTFORMAT_END
171
     1
301
MARGIN
  1
CELLMARGIN_BEGIN
 40
1.5
 40
1.5
 40
1.5
 40
1.5
 40
1.5
 40
1.5
309
CELLMARGIN_END
 94
        6
 95
        1
302
GRIDFORMAT
  1
GRIDFORMAT_BEGIN
 90
        0
 91
        1
 62
     0
 92
       -2
340
14
 93
        0
 40
0.045
309
GRIDFORMAT_END
 95
        2
302
GRIDFORMAT
  1
GRIDFORMAT_BEGIN
 90
        0
 91
        1
 62
     0
 92
       -2
340
14
 93
        0
 40
0.045
309
GRIDFORMAT_END
 95
        4
302
GRIDFORMAT
  1
GRIDFORMAT_BEGIN
 90
        0
 91
        1
 62
     0
 92
       -2
340
14
 93
        0
 40
0.045
309
GRIDFORMAT_END
 95
        8
302
GRIDFORMAT
  1
GRIDFORMAT_BEGIN
 90
        0
 91
        1
 62
     0
 92
       -2
340
14
 93
        0
 40
0.045
309
GRIDFORMAT_END
 95
       16
302
GRIDFORMAT
  1
GRIDFORMAT_BEGIN
 90
        0
 91
        1
 62
     0
 92
       -2
340
14
 93
        0
 40
0.045
309
GRIDFORMAT_END
 95
       32
302
GRIDFORMAT
  1
GRIDFORMAT_BEGIN
 90
        0
 91
        1
 62
     0
 92
       -2
340
14
 93
        0
 40
0.045
309
GRIDFORMAT_END
309
TABLEFORMAT_END
  1
CELLSTYLE_BEGIN
 90
        1
 91
        1
300
_TITLE
309
CELLSTYLE_END
300
CELLSTYLE
  1
TABLEFORMAT_BEGIN
 90
        5
170
     1
 91
        0
 92
        0
 62
   257
 93
        1
300
CONTENTFORMAT
  1
CONTENTFORMAT_BEGIN
 90
        0
 91
        0
 92
        4
 93
        0
300

 40
0.0
140
1.0
 94
        5
 62
     0
340
11
144
4.5
309
CONTENTFORMAT_END
171
     1
301
MARGIN
  1
CELLMARGIN_BEGIN
 40
1.5
 40
1.5
 40
1.5
 40
1.5
 40
1.5
 40
1.5
309
CELLMARGIN_END
 94
        6
 95
        1
302
GRIDFORMAT
  1
GRIDFORMAT_BEGIN
 90
        0
 91
        1
 62
     0
 92
       -2
340
14
 93
        0
 40
0.045
309
GRIDFORMAT_END
 95
        2
302
GRIDFORMAT
  1
GRIDFORMAT_BEGIN
 90
        0
 91
        1
 62
     0
 92
       -2
340
14
 93
        0
 40
0.045
309
GRIDFORMAT_END
 95
        4
302
GRIDFORMAT
  1
GRIDFORMAT_BEGIN
 90
        0
 91
        1
 62
     0
 92
       -2
340
14
 93
        0
 40
0.045
309
GRIDFORMAT_END
 95
        8
302
GRIDFORMAT
  1
GRIDFORMAT_BEGIN
 90
        0
 91
        1
 62
     0
 92
       -2
340
14
 93
        0
 40
0.045
309
GRIDFORMAT_END
 95
       16
302
GRIDFORMAT
  1
GRIDFORMAT_BEGIN
 90
        0
 91
        1
 62
     0
 92
       -2
340
14
 93
        0
 40
0.045
309
GRIDFORMAT_END
 95
       32
302
GRIDFORMAT
  1
GRIDFORMAT_BEGIN
 90
        0
 91
        1
 62
     0
 92
       -2
340
14
 93
        0
 40
0.045
309
GRIDFORMAT_END
309
TABLEFORMAT_END
  1
CELLSTYLE_BEGIN
 90
        2
 91
        1
300
_HEADER
309
CELLSTYLE_END
300
CELLSTYLE
  1
TABLEFORMAT_BEGIN
 90
        5
170
     1
 91
        0
 92
        0
 62
   257
 93
        1
300
CONTENTFORMAT
  1
CONTENTFORMAT_BEGIN
 90
        0
 91
        0
 92
        4
 93
        0
300

 40
0.0
140
1.0
 94
        2
 62
     0
340
11
144
4.5
309
CONTENTFORMAT_END
171
     1
301
MARGIN
  1
CELLMARGIN_BEGIN
 40
1.5
 40
1.5
 40
1.5
 40
1.5
 40
1.5
 40
1.5
309
CELLMARGIN_END
 94
        6
 95
        1
302
GRIDFORMAT
  1
GRIDFORMAT_BEGIN
 90
        0
 91
        1
 62
     0
 92
       -2
340
14
 93
        0
 40
0.045
309
GRIDFORMAT_END
 95
        2
302
GRIDFORMAT
  1
GRIDFORMAT_BEGIN
 90
        0
 91
        1
 62
     0
 92
       -2
340
14
 93
        0
 40
0.045
309
GRIDFORMAT_END
 95
        4
302
GRIDFORMAT
  1
GRIDFORMAT_BEGIN
 90
        0
 91
        1
 62
     0
 92
       -2
340
14
 93
        0
 40
0.045
309
GRIDFORMAT_END
 95
        8
302
GRIDFORMAT
  1
GRIDFORMAT_BEGIN
 90
        0
 91
        1
 62
     0
 92
       -2
340
14
 93
        0
 40
0.045
309
GRIDFORMAT_END
 95
       16
302
GRIDFORMAT
  1
GRIDFORMAT_BEGIN
 90
        0
 91
        1
 62
     0
 92
       -2
340
14
 93
        0
 40
0.045
309
GRIDFORMAT_END
 95
       32
302
GRIDFORMAT
  1
GRIDFORMAT_BEGIN
 90
        0
 91
        1
 62
     0
 92
       -2
340
14
 93
        0
 40
0.045
309
GRIDFORMAT_END
309
TABLEFORMAT_END
  1
CELLSTYLE_BEGIN
 90
        3
 91
        2
300
_DATA
309
CELLSTYLE_END
  0
ENDSEC
  0
EOF
