  0
SECTION
  2
HEADER
  9
$ACADVER
  1
AC1027
  9
$ACADMAINTVER
 70
   105
  9
$DWGCODEPAGE
  3
ANSI_1252
  9
$COMMENTS
  1
File was created by Cadenas
  9
$LASTSAVEDBY
  1
psService
  9
$CUSTOMPROPERTYTAG
  1
NB
  9
$CUSTOMPROPERTY
  1
RXP24AVJU9
  9
$CUSTOMPROPERTYTAG
  1
NN
  9
$CUSTOMPROPERTY
  1
(R32) Heat Pump Unit Aurora Single Zone Outdoor Daikin RXP
  9
$CUSTOMPROPERTYTAG
  1
NT
  9
$CUSTOMPROPERTY
  1

  9
$CUSTOMPROPERTYTAG
  1
NBSYN
  9
$CUSTOMPROPERTY
  1
$PARTNUMBER.
  9
$CUSTOMPROPERTYTAG
  1
LINA
  9
$CUSTOMPROPERTY
  1
RXP24AVJU9
  9
$CUSTOMPROPERTYTAG
  1
CATALOG
  9
$CUSTOMPROPERTY
  1
Daikin
  9
$CUSTOMPROPERTYTAG
  1
PARTNUMBER
  9
$CUSTOMPROPERTY
  1
RXP24AVJU9
  9
$CUSTOMPROPERTYTAG
  1
DESCRIPTION
  9
$CUSTOMPROPERTY
  1
Outdoor Split System Heat Pump
  9
$CUSTOMPROPERTYTAG
  1
OVERALL_DEPTH
  9
$CUSTOMPROPERTY
  1
14.5000
  9
$CUSTOMPROPERTYTAG
  1
OVERALL_HEIGHT
  9
$CUSTOMPROPERTY
  1
29.500
  9
$CUSTOMPROPERTYTAG
  1
OVERALL_WIDTH
  9
$CUSTOMPROPERTY
  1
37.000
  9
$CUSTOMPROPERTYTAG
  1
URL
  9
$CUSTOMPROPERTY
  1
https://daikincomfort.com/
  9
$CUSTOMPROPERTYTAG
  1
RFA_FAMILY
  9
$CUSTOMPROPERTY
  1
Download Revit Family (RFA)
  9
$CUSTOMPROPERTYTAG
  1
COMPANY
  9
$CUSTOMPROPERTY
  1
daikin
  9
$REQUIREDVERSIONS
160
                 0
  9
$INSBASE
 10
0.0
 20
0.0
 30
0.0
  9
$EXTMIN
 10
-469.899999999993
 20
-190.50000000001
 30
0.0
  9
$EXTMAX
 10
481.8169491525498
 20
184.6554237288056
 30
0.0
  9
$LIMMIN
 10
0.0
 20
0.0
  9
$LIMMAX
 10
420.0
 20
297.0
  9
$ORTHOMODE
 70
     0
  9
$REGENMODE
 70
     1
  9
$FILLMODE
 70
     1
  9
$QTEXTMODE
 70
     0
  9
$MIRRTEXT
 70
     1
  9
$LTSCALE
 40
1.0
  9
$ATTMODE
 70
     1
  9
$TEXTSIZE
 40
2.5
  9
$TRACEWID
 40
1.0
  9
$TEXTSTYLE
  7
Standard
  9
$CLAYER
  8
0
  9
$CELTYPE
  6
ByLayer
  9
$CECOLOR
 62
   256
  9
$CELTSCALE
 40
1.0
  9
$DISPSILH
 70
     0
  9
$DIMSCALE
 40
1.0
  9
$DIMASZ
 40
2.5
  9
$DIMEXO
 40
0.625
  9
$DIMDLI
 40
3.75
  9
$DIMRND
 40
0.0
  9
$DIMDLE
 40
0.0
  9
$DIMEXE
 40
1.25
  9
$DIMTP
 40
0.0
  9
$DIMTM
 40
0.0
  9
$DIMTXT
 40
2.5
  9
$DIMCEN
 40
2.5
  9
$DIMTSZ
 40
0.0
  9
$DIMTOL
 70
     0
  9
$DIMLIM
 70
     0
  9
$DIMTIH
 70
     0
  9
$DIMTOH
 70
     0
  9
$DIMSE1
 70
     0
  9
$DIMSE2
 70
     0
  9
$DIMTAD
 70
     1
  9
$DIMZIN
 70
     8
  9
$DIMBLK
  1

  9
$DIMASO
 70
     1
  9
$DIMSHO
 70
     1
  9
$DIMPOST
  1

  9
$DIMAPOST
  1

  9
$DIMALT
 70
     0
  9
$DIMALTD
 70
     3
  9
$DIMALTF
 40
0.03937007874016
  9
$DIMLFAC
 40
1.0
  9
$DIMTOFL
 70
     1
  9
$DIMTVP
 40
0.0
  9
$DIMTIX
 70
     0
  9
$DIMSOXD
 70
     0
  9
$DIMSAH
 70
     0
  9
$DIMBLK1
  1

  9
$DIMBLK2
  1

  9
$DIMSTYLE
  2
ISO-25
  9
$DIMCLRD
 70
     0
  9
$DIMCLRE
 70
     0
  9
$DIMCLRT
 70
     0
  9
$DIMTFAC
 40
1.0
  9
$DIMGAP
 40
0.625
  9
$DIMJUST
 70
     0
  9
$DIMSD1
 70
     0
  9
$DIMSD2
 70
     0
  9
$DIMTOLJ
 70
     0
  9
$DIMTZIN
 70
     8
  9
$DIMALTZ
 70
     0
  9
$DIMALTTZ
 70
     0
  9
$DIMUPT
 70
     0
  9
$DIMDEC
 70
     2
  9
$DIMTDEC
 70
     2
  9
$DIMALTU
 70
     2
  9
$DIMALTTD
 70
     3
  9
$DIMTXSTY
  7
Standard
  9
$DIMAUNIT
 70
     0
  9
$DIMADEC
 70
     0
  9
$DIMALTRND
 40
0.0
  9
$DIMAZIN
 70
     0
  9
$DIMDSEP
 70
    44
  9
$DIMATFIT
 70
     3
  9
$DIMFRAC
 70
     0
  9
$DIMLDRBLK
  1

  9
$DIMLUNIT
 70
     2
  9
$DIMLWD
 70
    -2
  9
$DIMLWE
 70
    -2
  9
$DIMTMOVE
 70
     0
  9
$DIMFXL
 40
1.0
  9
$DIMFXLON
 70
     0
  9
$DIMJOGANG
 40
0.7853981633974483
  9
$DIMTFILL
 70
     0
  9
$DIMTFILLCLR
 70
     0
  9
$DIMARCSYM
 70
     0
  9
$DIMLTYPE
  6

  9
$DIMLTEX1
  6

  9
$DIMLTEX2
  6

  9
$DIMTXTDIRECTION
 70
     0
  9
$LUNITS
 70
     2
  9
$LUPREC
 70
     4
  9
$SKETCHINC
 40
1.0
  9
$FILLETRAD
 40
0.0
  9
$AUNITS
 70
     0
  9
$AUPREC
 70
     0
  9
$MENU
  1
.
  9
$ELEVATION
 40
0.0
  9
$PELEVATION
 40
0.0
  9
$THICKNESS
 40
0.0
  9
$LIMCHECK
 70
     0
  9
$CHAMFERA
 40
0.0
  9
$CHAMFERB
 40
0.0
  9
$CHAMFERC
 40
0.0
  9
$CHAMFERD
 40
0.0
  9
$SKPOLY
 70
     0
  9
$TDCREATE
 40
2461206.708902523
  9
$TDUCREATE
 40
2461206.62556919
  9
$TDUPDATE
 40
2461206.708902709
  9
$TDUUPDATE
 40
2461206.625569375
  9
$TDINDWG
 40
0.0000000116
  9
$TDUSRTIMER
 40
0.0000000116
  9
$USRTIMER
 70
     1
  9
$ANGBASE
 50
0.0
  9
$ANGDIR
 70
     0
  9
$PDMODE
 70
     0
  9
$PDSIZE
 40
0.0
  9
$PLINEWID
 40
0.0
  9
$SPLFRAME
 70
     0
  9
$SPLINETYPE
 70
     6
  9
$SPLINESEGS
 70
     8
  9
$HANDSEED
  5
1B5
  9
$SURFTAB1
 70
     6
  9
$SURFTAB2
 70
     6
  9
$SURFTYPE
 70
     6
  9
$SURFU
 70
     6
  9
$SURFV
 70
     6
  9
$UCSBASE
  2

  9
$UCSNAME
  2

  9
$UCSORG
 10
0.0
 20
0.0
 30
0.0
  9
$UCSXDIR
 10
1.0
 20
0.0
 30
0.0
  9
$UCSYDIR
 10
0.0
 20
1.0
 30
0.0
  9
$UCSORTHOREF
  2

  9
$UCSORTHOVIEW
 70
     0
  9
$UCSORGTOP
 10
0.0
 20
0.0
 30
0.0
  9
$UCSORGBOTTOM
 10
0.0
 20
0.0
 30
0.0
  9
$UCSORGLEFT
 10
0.0
 20
0.0
 30
0.0
  9
$UCSORGRIGHT
 10
0.0
 20
0.0
 30
0.0
  9
$UCSORGFRONT
 10
0.0
 20
0.0
 30
0.0
  9
$UCSORGBACK
 10
0.0
 20
0.0
 30
0.0
  9
$PUCSBASE
  2

  9
$PUCSNAME
  2

  9
$PUCSORG
 10
0.0
 20
0.0
 30
0.0
  9
$PUCSXDIR
 10
1.0
 20
0.0
 30
0.0
  9
$PUCSYDIR
 10
0.0
 20
1.0
 30
0.0
  9
$PUCSORTHOREF
  2

  9
$PUCSORTHOVIEW
 70
     0
  9
$PUCSORGTOP
 10
0.0
 20
0.0
 30
0.0
  9
$PUCSORGBOTTOM
 10
0.0
 20
0.0
 30
0.0
  9
$PUCSORGLEFT
 10
0.0
 20
0.0
 30
0.0
  9
$PUCSORGRIGHT
 10
0.0
 20
0.0
 30
0.0
  9
$PUCSORGFRONT
 10
0.0
 20
0.0
 30
0.0
  9
$PUCSORGBACK
 10
0.0
 20
0.0
 30
0.0
  9
$USERI1
 70
     0
  9
$USERI2
 70
     0
  9
$USERI3
 70
     0
  9
$USERI4
 70
     0
  9
$USERI5
 70
     0
  9
$USERR1
 40
0.0
  9
$USERR2
 40
0.0
  9
$USERR3
 40
0.0
  9
$USERR4
 40
0.0
  9
$USERR5
 40
0.0
  9
$WORLDVIEW
 70
     1
  9
$SHADEDGE
 70
     3
  9
$SHADEDIF
 70
    70
  9
$TILEMODE
 70
     1
  9
$MAXACTVP
 70
    64
  9
$PINSBASE
 10
0.0
 20
0.0
 30
0.0
  9
$PLIMCHECK
 70
     0
  9
$PEXTMIN
 10
1.000000000000000E+20
 20
1.000000000000000E+20
 30
1.000000000000000E+20
  9
$PEXTMAX
 10
-1.000000000000000E+20
 20
-1.000000000000000E+20
 30
-1.000000000000000E+20
  9
$PLIMMIN
 10
0.0
 20
0.0
  9
$PLIMMAX
 10
420.0
 20
297.0
  9
$UNITMODE
 70
     0
  9
$VISRETAIN
 70
     1
  9
$PLINEGEN
 70
     0
  9
$PSLTSCALE
 70
     1
  9
$TREEDEPTH
 70
  3020
  9
$CMLSTYLE
  2
Standard
  9
$CMLJUST
 70
     0
  9
$CMLSCALE
 40
20.0
  9
$PROXYGRAPHICS
 70
     1
  9
$MEASUREMENT
 70
     1
  9
$CELWEIGHT
370
    -1
  9
$ENDCAPS
280
     0
  9
$JOINSTYLE
280
     0
  9
$LWDISPLAY
290
     0
  9
$INSUNITS
 70
     4
  9
$HYPERLINKBASE
  1

  9
$STYLESHEET
  1

  9
$XEDIT
290
     1
  9
$CEPSNTYPE
380
     0
  9
$PSTYLEMODE
290
     1
  9
$FINGERPRINTGUID
  2
{92642003-ddfb-4855-9557-931b24dff7fd}
  9
$VERSIONGUID
  2
{FAEB1C32-E019-11D5-929B-00C0DF256EC4}
  9
$EXTNAMES
290
     1
  9
$PSVPSCALE
 40
0.0
  9
$OLESTARTUP
290
     0
  9
$SORTENTS
280
   127
  9
$INDEXCTL
280
     0
  9
$HIDETEXT
280
     1
  9
$XCLIPFRAME
280
     2
  9
$HALOGAP
280
     0
  9
$OBSCOLOR
 70
   257
  9
$OBSLTYPE
280
     0
  9
$INTERSECTIONDISPLAY
280
     0
  9
$INTERSECTIONCOLOR
 70
   257
  9
$DIMASSOC
280
     2
  9
$PROJECTNAME
  1

  9
$CAMERADISPLAY
290
     0
  9
$LENSLENGTH
 40
50.0
  9
$CAMERAHEIGHT
 40
0.0
  9
$STEPSPERSEC
 40
2.0
  9
$STEPSIZE
 40
6.0
  9
$3DDWFPREC
 40
2.0
  9
$PSOLWIDTH
 40
5.0
  9
$PSOLHEIGHT
 40
80.0
  9
$LOFTANG1
 40
1.570796326794897
  9
$LOFTANG2
 40
1.570796326794897
  9
$LOFTMAG1
 40
0.0
  9
$LOFTMAG2
 40
0.0
  9
$LOFTPARAM
 70
     7
  9
$LOFTNORMALS
280
     1
  9
$LATITUDE
 40
37.795
  9
$LONGITUDE
 40
-122.394
  9
$NORTHDIRECTION
 40
0.0
  9
$TIMEZONE
 70
 -8000
  9
$LIGHTGLYPHDISPLAY
280
     1
  9
$TILEMODELIGHTSYNCH
280
     1
  9
$CMATERIAL
347
44
  9
$SOLIDHIST
280
     0
  9
$SHOWHIST
280
     1
  9
$DWFFRAME
280
     2
  9
$DGNFRAME
280
     2
  9
$REALWORLDSCALE
290
     1
  9
$INTERFERECOLOR
 62
   256
  9
$CSHADOW
280
     0
  9
$SHADOWPLANELOCATION
 40
0.0
  0
ENDSEC
  0
SECTION
  2
CLASSES
  0
CLASS
  1
ACDBDICTIONARYWDFLT
  2
AcDbDictionaryWithDefault
  3
ObjectDBX Classes
 90
        0
 91
        3
280
     0
281
     0
  0
CLASS
  1
VISUALSTYLE
  2
AcDbVisualStyle
  3
ObjectDBX Classes
 90
     4095
 91
        3
280
     0
281
     0
  0
CLASS
  1
MATERIAL
  2
AcDbMaterial
  3
ObjectDBX Classes
 90
     1153
 91
        3
280
     0
281
     0
  0
CLASS
  1
SCALE
  2
AcDbScale
  3
ObjectDBX Classes
 90
     1153
 91
        3
280
     0
281
     0
  0
CLASS
  1
TABLESTYLE
  2
AcDbTableStyle
  3
ObjectDBX Classes
 90
     4095
 91
        3
280
     0
281
     0
  0
CLASS
  1
MLEADERSTYLE
  2
AcDbMLeaderStyle
  3
ACDB_MLEADERSTYLE_CLASS
 90
     4095
 91
        3
280
     0
281
     0
  0
CLASS
  1
SUN
  2
AcDbSun
  3
SCENEOE
 90
     1153
 91
        3
280
     0
281
     0
  0
CLASS
  1
DICTIONARYVAR
  2
AcDbDictionaryVar
  3
ObjectDBX Classes
 90
        0
 91
        3
280
     0
281
     0
  0
CLASS
  1
CELLSTYLEMAP
  2
AcDbCellStyleMap
  3
ObjectDBX Classes
 90
     1152
 91
        3
280
     0
281
     0
  0
ENDSEC
  0
SECTION
  2
TABLES
  0
TABLE
  2
VPORT
  5
8
330
0
100
AcDbSymbolTable
 70
     1
  0
VPORT
  5
29
330
8
100
AcDbSymbolTableRecord
100
AcDbViewportTableRecord
  2
*Active
 70
     0
 10
0.0
 20
0.0
 11
1.0
 21
1.0
 12
6.000169491532631
 22
-2.873305084754776
 13
0.0
 23
0.0
 14
10.0
 24
10.0
 15
10.0
 25
10.0
 16
0.0
 26
0.0
 36
1.0
 17
0.0
 27
0.0
 37
0.0
 40
382.7584576271207
 41
2.536420362286262
 42
50.0
 43
0.0
 44
0.0
 50
0.0
 51
0.0
 71
     0
 72
   100
 73
     1
 74
     3
 75
     0
 76
     0
 77
     0
 78
     0
281
     0
 65
     1
110
0.0
120
0.0
130
0.0
111
1.0
121
0.0
131
0.0
112
0.0
122
1.0
132
0.0
 79
     0
146
0.0
348
2F
 60
     3
 61
     5
292
     1
282
     1
141
0.0
142
0.0
 63
   250
361
5D
  0
ENDTAB
  0
TABLE
  2
LTYPE
  5
5
330
0
100
AcDbSymbolTable
 70
     3
  0
LTYPE
  5
14
330
5
100
AcDbSymbolTableRecord
100
AcDbLinetypeTableRecord
  2
ByBlock
 70
     0
  3

 72
    65
 73
     0
 40
0.0
  0
LTYPE
  5
15
330
5
100
AcDbSymbolTableRecord
100
AcDbLinetypeTableRecord
  2
ByLayer
 70
     0
  3

 72
    65
 73
     0
 40
0.0
  0
LTYPE
  5
16
330
5
100
AcDbSymbolTableRecord
100
AcDbLinetypeTableRecord
  2
Continuous
 70
     0
  3
Solid line
 72
    65
 73
     0
 40
0.0
  0
LTYPE
  5
107
330
5
100
AcDbSymbolTableRecord
100
AcDbLinetypeTableRecord
  2
Dashed
 70
     0
  3

 72
    65
 73
     2
 40
2.0
 49
1.0
 74
     0
 49
-1.0
 74
     0
  0
LTYPE
  5
1A6
330
5
100
AcDbSymbolTableRecord
100
AcDbLinetypeTableRecord
  2
Center
 70
     0
  3

 72
    65
 73
     4
 40
1.5
 49
0.45
 74
     0
 49
-0.5
 74
     0
 49
0.05
 74
     0
 49
-0.5
 74
     0
  0
ENDTAB
  0
TABLE
  2
LAYER
  5
2
330
0
100
AcDbSymbolTable
 70
     5
  0
LAYER
  5
10
330
2
100
AcDbSymbolTableRecord
100
AcDbLayerTableRecord
  2
0
 70
     0
 62
     7
  6
Continuous
370
    -3
390
F
347
46
348
0
  0
LAYER
  5
5E
330
2
100
AcDbSymbolTableRecord
100
AcDbLayerTableRecord
  2
AM_6
 70
     0
 62
    -2
  6
Continuous
370
    35
390
F
347
46
348
0
  0
LAYER
  5
9B
330
2
100
AcDbSymbolTableRecord
100
AcDbLayerTableRecord
  2
AM_0
 70
     0
 62
     7
  6
Continuous
370
    50
390
F
347
46
348
0
  0
LAYER
  5
108
330
2
100
AcDbSymbolTableRecord
100
AcDbLayerTableRecord
  2
AM_9
 70
     0
 62
     6
  6
Dashed
370
    25
390
F
347
46
348
0
  0
LAYER
  5
1A7
330
2
100
AcDbSymbolTableRecord
100
AcDbLayerTableRecord
  2
AM_7
 70
     0
 62
     7
  6
Center
370
    25
390
F
347
46
348
0
  0
ENDTAB
  0
TABLE
  2
STYLE
  5
3
330
0
100
AcDbSymbolTable
 70
     1
  0
STYLE
  5
11
330
3
100
AcDbSymbolTableRecord
100
AcDbTextStyleTableRecord
  2
Standard
 70
     0
 40
0.0
 41
1.0
 50
0.0
 71
     0
 42
2.5
  3
txt
  4

  0
ENDTAB
  0
TABLE
  2
VIEW
  5
6
330
0
100
AcDbSymbolTable
 70
     0
  0
ENDTAB
  0
TABLE
  2
UCS
  5
7
330
0
100
AcDbSymbolTable
 70
     0
  0
ENDTAB
  0
TABLE
  2
APPID
  5
9
330
0
100
AcDbSymbolTable
 70
     1
  0
APPID
  5
12
330
9
100
AcDbSymbolTableRecord
100
AcDbRegAppTableRecord
  2
ACAD
 70
     0
  0
ENDTAB
  0
TABLE
  2
DIMSTYLE
  5
A
330
0
100
AcDbSymbolTable
 70
     1
100
AcDbDimStyleTable
  0
DIMSTYLE
105
27
330
A
100
AcDbSymbolTableRecord
100
AcDbDimStyleTableRecord
  2
ISO-25
 70
     0
 41
2.5
 42
0.625
 43
3.75
 44
1.25
 73
     0
 74
     0
 77
     1
 78
     8
140
2.5
141
2.5
143
0.03937007874016
147
0.625
171
     3
172
     1
178
     0
271
     2
272
     2
274
     3
278
    44
283
     0
284
     8
340
11
  0
ENDTAB
  0
TABLE
  2
BLOCK_RECORD
  5
1
330
0
100
AcDbSymbolTable
 70
     9
  0
BLOCK_RECORD
  5
1F
330
1
100
AcDbSymbolTableRecord
100
AcDbBlockTableRecord
  2
*Model_Space
340
22
 70
     0
280
     1
281
     0
  0
BLOCK_RECORD
  5
1B
330
1
100
AcDbSymbolTableRecord
100
AcDbBlockTableRecord
  2
*Paper_Space
340
1E
 70
     0
280
     1
281
     0
  0
BLOCK_RECORD
  5
23
330
1
100
AcDbSymbolTableRecord
100
AcDbBlockTableRecord
  2
*Paper_Space0
340
26
 70
     0
280
     1
281
     0
  0
BLOCK_RECORD
  5
7B
330
1
100
AcDbSymbolTableRecord
100
AcDbBlockTableRecord
  2
1_RXP24AVJU9_PART8_0_in_RXP24AVJU9_4
340
0
102
{BLKREFS
331
7C
102
}
 70
     0
280
     1
281
     0
  0
BLOCK_RECORD
  5
A0
330
1
100
AcDbSymbolTableRecord
100
AcDbBlockTableRecord
  2
2_RXP24AVJU9_PART7_0_in_RXP24AVJU9_4
340
0
102
{BLKREFS
331
A1
102
}
 70
     0
280
     1
281
     0
  0
BLOCK_RECORD
  5
C4
330
1
100
AcDbSymbolTableRecord
100
AcDbBlockTableRecord
  2
3_RXP24AVJU9_PART6_0_in_RXP24AVJU9_4
340
0
102
{BLKREFS
331
C5
102
}
 70
     0
280
     1
281
     0
  0
BLOCK_RECORD
  5
E7
330
1
100
AcDbSymbolTableRecord
100
AcDbBlockTableRecord
  2
4_RXP24AVJU9_PART5_0_in_RXP24AVJU9_4
340
0
102
{BLKREFS
331
E8
102
}
 70
     0
280
     1
281
     0
  0
BLOCK_RECORD
  5
111
330
1
100
AcDbSymbolTableRecord
100
AcDbBlockTableRecord
  2
5_RXP24AVJU9_PART4_0_in_RXP24AVJU9_4
340
0
102
{BLKREFS
331
112
102
}
 70
     0
280
     1
281
     0
  0
BLOCK_RECORD
  5
13B
330
1
100
AcDbSymbolTableRecord
100
AcDbBlockTableRecord
  2
6_RXP24AVJU9_PART3_0_in_RXP24AVJU9_4
340
0
102
{BLKREFS
331
13C
102
}
 70
     0
280
     1
281
     0
  0
BLOCK_RECORD
  5
161
330
1
100
AcDbSymbolTableRecord
100
AcDbBlockTableRecord
  2
7_RXP24AVJU9_PART2_0_in_RXP24AVJU9_4
340
0
102
{BLKREFS
331
162
102
}
 70
     0
280
     1
281
     0
  0
BLOCK_RECORD
  5
185
330
1
100
AcDbSymbolTableRecord
100
AcDbBlockTableRecord
  2
8_RXP24AVJU9_PART1_0_in_RXP24AVJU9_4
340
0
102
{BLKREFS
331
186
102
}
 70
     0
280
     1
281
     0
  0
ENDTAB
  0
ENDSEC
  0
SECTION
  2
BLOCKS
  0
BLOCK
  5
20
330
1F
100
AcDbEntity
  8
0
100
AcDbBlockBegin
  2
*Model_Space
 70
     2
 10
0.0
 20
0.0
 30
0.0
  3
*Model_Space
  1

  0
ENDBLK
  5
21
330
1F
100
AcDbEntity
  8
0
100
AcDbBlockEnd
  0
BLOCK
  5
1C
330
1B
100
AcDbEntity
 67
     1
  8
0
100
AcDbBlockBegin
  2
*Paper_Space
 70
     0
 10
0.0
 20
0.0
 30
0.0
  3
*Paper_Space
  1

  0
ENDBLK
  5
1D
330
1B
100
AcDbEntity
 67
     1
  8
0
100
AcDbBlockEnd
  0
BLOCK
  5
24
330
23
100
AcDbEntity
  8
0
100
AcDbBlockBegin
  2
*Paper_Space0
 70
     0
 10
0.0
 20
0.0
 30
0.0
  3
*Paper_Space0
  1

  0
ENDBLK
  5
25
330
23
100
AcDbEntity
  8
0
100
AcDbBlockEnd
  0
BLOCK
  5
7D
330
7B
100
AcDbEntity
  8
0
100
AcDbBlockBegin
  2
1_RXP24AVJU9_PART8_0_in_RXP24AVJU9_4
 70
     2
 10
0.0
 20
0.0
 30
0.0
  3
1_RXP24AVJU9_PART8_0_in_RXP24AVJU9_4
  1

  0
ATTDEF
  5
7F
330
7B
100
AcDbEntity
  8
AM_6
100
AcDbText
 10
405.0500000000072
 20
160.33749999999
 30
0.0
 40
0.5
  1
RXP24AVJU9_PART8
100
AcDbAttributeDefinition
  3

  2
NB
 70
     8
280
     0
  0
ATTDEF
  5
80
330
7B
100
AcDbEntity
  8
AM_6
100
AcDbText
 10
405.0500000000072
 20
159.83749999999
 30
0.0
 40
0.5
  1

100
AcDbAttributeDefinition
  3

  2
NN
 70
     8
280
     0
  0
ATTDEF
  5
81
330
7B
100
AcDbEntity
  8
AM_6
100
AcDbText
 10
405.0500000000072
 20
159.33749999999
 30
0.0
 40
0.5
  1

100
AcDbAttributeDefinition
  3

  2
NT
 70
     8
280
     0
  0
ATTDEF
  5
82
330
7B
100
AcDbEntity
  8
AM_6
100
AcDbText
 10
405.0500000000072
 20
158.83749999999
 30
0.0
 40
0.5
  1
$PARTNUMBER._PART8
100
AcDbAttributeDefinition
  3

  2
NBSYN
 70
     8
280
     0
  0
ATTDEF
  5
83
330
7B
100
AcDbEntity
  8
AM_6
100
AcDbText
 10
405.0500000000072
 20
158.33749999999
 30
0.0
 40
0.5
  1
RXP24AVJU9_PART8
100
AcDbAttributeDefinition
  3

  2
LINA
 70
     8
280
     0
  0
ATTDEF
  5
84
330
7B
100
AcDbEntity
  8
AM_6
100
AcDbText
 10
405.0500000000072
 20
157.83749999999
 30
0.0
 40
0.5
  1
Daikin
100
AcDbAttributeDefinition
  3

  2
CATALOG
 70
     8
280
     0
  0
ATTDEF
  5
85
330
7B
100
AcDbEntity
  8
AM_6
100
AcDbText
 10
405.0500000000072
 20
157.33749999999
 30
0.0
 40
0.5
  1
RXP24AVJU9
100
AcDbAttributeDefinition
  3

  2
PARTNUMBER
 70
     8
280
     0
  0
ATTDEF
  5
86
330
7B
100
AcDbEntity
  8
AM_6
100
AcDbText
 10
405.0500000000072
 20
156.83749999999
 30
0.0
 40
0.5
  1
Outdoor Split System Heat Pump
100
AcDbAttributeDefinition
  3

  2
DESCRIPTION
 70
     8
280
     0
  0
ATTDEF
  5
87
330
7B
100
AcDbEntity
  8
AM_6
100
AcDbText
 10
405.0500000000072
 20
156.33749999999
 30
0.0
 40
0.5
  1
14.5000
100
AcDbAttributeDefinition
  3

  2
OVERALL_DEPTH
 70
     8
280
     0
  0
ATTDEF
  5
88
330
7B
100
AcDbEntity
  8
AM_6
100
AcDbText
 10
405.0500000000072
 20
155.83749999999
 30
0.0
 40
0.5
  1
29.500
100
AcDbAttributeDefinition
  3

  2
OVERALL_HEIGHT
 70
     8
280
     0
  0
ATTDEF
  5
89
330
7B
100
AcDbEntity
  8
AM_6
100
AcDbText
 10
405.0500000000072
 20
155.33749999999
 30
0.0
 40
0.5
  1
37.000
100
AcDbAttributeDefinition
  3

  2
OVERALL_WIDTH
 70
     8
280
     0
  0
ATTDEF
  5
8A
330
7B
100
AcDbEntity
  8
AM_6
100
AcDbText
 10
405.0500000000072
 20
154.83749999999
 30
0.0
 40
0.5
  1
https://daikincomfort.com/
100
AcDbAttributeDefinition
  3

  2
URL
 70
     8
280
     0
  0
ATTDEF
  5
8B
330
7B
100
AcDbEntity
  8
AM_6
100
AcDbText
 10
405.0500000000072
 20
154.33749999999
 30
0.0
 40
0.5
  1
Download Revit Family (RFA)
100
AcDbAttributeDefinition
  3

  2
RFA_FAMILY
 70
     8
280
     0
  0
ATTDEF
  5
8C
330
7B
100
AcDbEntity
  8
AM_6
100
AcDbText
 10
405.0500000000072
 20
153.83749999999
 30
0.0
 40
0.5
  1
daikin
100
AcDbAttributeDefinition
  3

  2
COMPANY
 70
     8
280
     0
  0
ATTDEF
  5
8D
330
7B
100
AcDbEntity
  8
AM_6
100
AcDbText
 10
405.0500000000072
 20
153.33749999999
 30
0.0
 40
0.5
  1
{$CADENAS_DATA/23d-libs/daikin/single20zone20systems/single20zone20heat20pump20outdoor20units/28r322920heat20pump20unit20aurora20single20zone20outdoor20daikin20rxp.prj},243 {VTYP=3D},{NB=RXP24AVJU9_PART8},{LINA=RXP24AVJU9_PART8},{NN=(R32) Heat Pump 
100
AcDbAttributeDefinition
  3

  2
PSOL_0
 70
     9
280
     0
  0
ATTDEF
  5
8E
330
7B
100
AcDbEntity
  8
AM_6
100
AcDbText
 10
405.0500000000072
 20
152.83749999999
 30
0.0
 40
0.5
  1
urora Single Zone Outdoor Daikin RXP_PART8},{NOPRJ=TRUE},{DATE=06.03.2026 14:42:20},{GEOMDATE=06.03.2026 09:05:37},{VERSION=},{LINEID=40},{WBVAR=},{WBNUMERIC=}  {NB=RXP24AVJU9_PART8},{LINA=RXP24AVJU9_PART8},{KT=DUMMY},{PARTNUMBERHELP=2Ton_RXP24AVJU9
100
AcDbAttributeDefinition
  3

  2
PSOL_1
 70
     9
280
     0
  0
ATTDEF
  5
8F
330
7B
100
AcDbEntity
  8
AM_6
100
AcDbText
 10
405.0500000000072
 20
152.33749999999
 30
0.0
 40
0.5
  1
TNUMBER=RXP24AVJU9},{DESCRIPTION=Outdoor Split System Heat Pump},{OVERALL_DEPTH=14.5000},{OVERALL_HEIGHT=29.500},{OVERALL_WIDTH=37.000},{URL=https://daikincomfort.com/},{RFA_FAMILY=Download Revit Family (RFA)},{APPARENT_POWER=5184},{ASSEMBLY_CODE=D3
100
AcDbAttributeDefinition
  3

  2
PSOL_2
 70
     9
280
     0
  0
ATTDEF
  5
90
330
7B
100
AcDbEntity
  8
AM_6
100
AcDbText
 10
405.0500000000072
 20
151.83749999999
 30
0.0
 40
0.5
  1
},{BACK_CLEARANCE=0.161458333333333},{BASE_PITCH=1.20833333333333},{BASE_PITCH_OFFSET=0.401041666666667},{BASE_PITCH_WIDTH=0.0833333333333333},{BASE_PITCH_WIDTH_APART=1.96875},{CATEGORY=Mechanical Equipment},{CLASSIFICATION_NUMBER=23.33.17.13.11},{C
100
AcDbAttributeDefinition
  3

  2
PSOL_3
 70
     9
280
     0
  0
ATTDEF
  5
91
330
7B
100
AcDbEntity
  8
AM_6
100
AcDbText
 10
405.0500000000072
 20
151.33749999999
 30
0.0
 40
0.5
  1
CE_VISIBILITY=1},{COMPRESSOR_TYPE=Hermetically Sealed Swing Type},{CONDENSATE_DRAIN_CONNECTION_DIAMETER=0.625},{CONDENSATE_DRAIN_CONNECTION_RADIUS=0.3125},{CONDENSATE_DRAIN_HORIZONTAL_OFFSET=1.72395833333333},{CONDENSATE_DRAIN_VERTICAL_OFFSET=0.9531
100
AcDbAttributeDefinition
  3

  2
PSOL_4
 70
     9
280
     0
  0
ATTDEF
  5
92
330
7B
100
AcDbEntity
  8
AM_6
100
AcDbText
 10
405.0500000000072
 20
150.83749999999
 30
0.0
 40
0.5
  1
OST=0},{DEFAULT_ELEVATION=0},{ENCLOSURE_DEPTH=1.05208333333333},{ENCLOSURE_HEIGHT=2.45833333333333},{ENCLOSURE_HEIGHT_OFFSET=0.0833333333333333},{ENCLOSURE_WIDTH=2.85416666666667},{FAN_TYPE=Propeller},{FAN_VENT_DEPTH=0.0989583333333333},{FREQUENCY=6
100
AcDbAttributeDefinition
  3

  2
PSOL_5
 70
     9
280
     0
  0
ATTDEF
  5
93
330
7B
100
AcDbEntity
  8
AM_6
100
AcDbText
 10
405.0500000000072
 20
150.33749999999
 30
0.0
 40
0.5
  1
ONT_CLEARANCE=0.328125},{FRONT_GRILL_WIDTH=2.2125},{LOAD_SUB_CLASSIFICATION_MOTOR=1},{MANUFACTURER=Daikin},{MASSUNIT=1},{MAXIMUM_OVERCURRENT_PROTECTION=25},{MINIMUM_CIRCUIT_AMPS=21.6},{NOMINAL_COOLING_CAPACITY=21800},{NOMINAL_COOLING_CAPACITY__TONS_
100
AcDbAttributeDefinition
  3

  2
PSOL_6
 70
     9
280
     0
  0
ATTDEF
  5
94
330
7B
100
AcDbEntity
  8
AM_6
100
AcDbText
 10
405.0500000000072
 20
149.83749999999
 30
0.0
 40
0.5
  1
OMINAL_HEATING_CAPACITY=24000},{NUMBER_OF_POLES=2},{PARTTYPE=Normal},{PHASE=1},{PRODUCT_PAGE_URL=https://daikincomfort.com/products/heating-cooling/single-split-ductless/heat-pumps//daikin-aurora---fdma-ducted-concealed},{REFRIGERANT_CHARGE=3.04},{R
100
AcDbAttributeDefinition
  3

  2
PSOL_7
 70
     9
280
     0
  0
ATTDEF
  5
95
330
7B
100
AcDbEntity
  8
AM_6
100
AcDbText
 10
405.0500000000072
 20
149.33749999999
 30
0.0
 40
0.5
  1
RANT_CONNECTION_DEPTH_OFFSET=0.520833333333333},{REFRIGERANT_LIQUID_CONNECTION_DIAMETER=0.25},{REFRIGERANT_LIQUID_CONNECTION_HORIZONTAL_OFFSET=0.0572916666666667},{REFRIGERANT_LIQUID_CONNECTION_RADIUS=0.125},{REFRIGERANT_LIQUID_CONNECTION_VERTICAL_O
100
AcDbAttributeDefinition
  3

  2
PSOL_8
 70
     9
280
     0
  0
ATTDEF
  5
96
330
7B
100
AcDbEntity
  8
AM_6
100
AcDbText
 10
405.0500000000072
 20
148.83749999999
 30
0.0
 40
0.5
  1
0.588541666666667},{REFRIGERANT_SUCTION_GAS_CONNECTION_DIAMETER=0.625},{REFRIGERANT_SUCTION_GAS_CONNECTION_HORIONTAL_OFFSET=0.0677083333333333},{REFRIGERANT_SUCTION_GAS_CONNECTION_RADIUS=0.3125},{REFRIGERANT_SUCTION_GAS_CONNECTION_VERTICAL_OFFSET=0.
100
AcDbAttributeDefinition
  3

  2
PSOL_9
 70
     9
280
     0
  0
ATTDEF
  5
97
330
7B
100
AcDbEntity
  8
AM_6
100
AcDbText
 10
405.0500000000072
 20
148.33749999999
 30
0.0
 40
0.5
  1
333333333},{REFRIGERANT_USED=R-32},{SERIES=RXP-A},{SIDE_CLEARANCE=0.161458333333333},{SOUND_PRESSURE_LEVEL___COOLING=55},{SOUND_PRESSURE_LEVEL___HEATING=57},{STOP_VALVE_COVER_DEPTH=0.526041666666667},{STOP_VALVE_COVER_HEIGHT=2.2125},{STOP_VALVE_COVE
100
AcDbAttributeDefinition
  3

  2
PSOL_10
 70
     9
280
     0
  0
ATTDEF
  5
98
330
7B
100
AcDbEntity
  8
AM_6
100
AcDbText
 10
405.0500000000072
 20
147.83749999999
 30
0.0
 40
0.5
  1
BILITY=1},{STOP_VALVE_COVER_WIDTH=0.229166666666667},{SYSTEM_PERFORMANCE_COP2=3.0},{SYSTEM_PERFORMANCE_EER2=10.3},{SYSTEM_PERFORMANCE_HSPF2=9.2},{SYSTEM_PERFORMANCE_SEER2=18.3},{UNIT_WEIGHT=127},{VERSION=1},{VOLTAGE=240},{VOLTAGE_COMMENTS=208 VAC - 
100
AcDbAttributeDefinition
  3

  2
PSOL_11
 70
     9
280
     0
  0
ATTDEF
  5
99
330
7B
100
AcDbEntity
  8
AM_6
100
AcDbText
 10
405.0500000000072
 20
147.33749999999
 30
0.0
 40
0.5
  1
C},{DEFAULTSORTATTR=1},{RFA_FAMILY_=../../_pool_/09/54/28r322920heat20pump20unit20aurora20single20zone20outdoor20daikin20rxp.zip},{RFA_FAMILY_ENG=../../_pool_/09/54/28r322920heat20pump20unit20aurora20single20zone20outdoor20daikin20rxp.zip},{REVIT_FA
100
AcDbAttributeDefinition
  3

  2
PSOL_12
 70
     9
280
     0
  0
ATTDEF
  5
9A
330
7B
100
AcDbEntity
  8
AM_6
100
AcDbText
 10
405.0500000000072
 20
146.83749999999
 30
0.0
 40
0.5
  1
OWNLOAD=../../_pool_/09/54/28r322920heat20pump20unit20aurora20single20zone20outdoor20daikin20rxp.zip}
100
AcDbAttributeDefinition
  3

  2
PSOL_13
 70
     9
280
     0
  0
LINE
  5
9C
330
7B
100
AcDbEntity
  8
AM_0
100
AcDbLine
 10
400.0500000000072
 20
-160.33750000001
 30
0.0
 11
-469.899999999993
 21
-160.33750000001
 31
0.0
  0
LINE
  5
9D
330
7B
100
AcDbEntity
  8
AM_0
100
AcDbLine
 10
-469.8999999999929
 20
160.33749999999
 30
0.0
 11
400.0500000000071
 21
160.33749999999
 31
0.0
  0
LINE
  5
9E
330
7B
100
AcDbEntity
  8
AM_0
100
AcDbLine
 10
400.0500000000072
 20
-160.33750000001
 30
0.0
 11
400.0500000000071
 21
160.33749999999
 31
0.0
  0
LINE
  5
9F
330
7B
100
AcDbEntity
  8
AM_0
100
AcDbLine
 10
-469.8999999999929
 20
160.33749999999
 30
0.0
 11
-469.899999999993
 21
-160.33750000001
 31
0.0
  0
ENDBLK
  5
7E
330
7B
100
AcDbEntity
  8
0
100
AcDbBlockEnd
  0
BLOCK
  5
A2
330
A0
100
AcDbEntity
  8
0
100
AcDbBlockBegin
  2
2_RXP24AVJU9_PART7_0_in_RXP24AVJU9_4
 70
     2
 10
0.0
 20
0.0
 30
0.0
  3
2_RXP24AVJU9_PART7_0_in_RXP24AVJU9_4
  1

  0
ATTDEF
  5
A4
330
A0
100
AcDbEntity
  8
AM_6
100
AcDbText
 10
474.9000000000074
 20
80.16874999999341
 30
0.0
 40
0.5
  1
RXP24AVJU9_PART7
100
AcDbAttributeDefinition
  3

  2
NB
 70
     8
280
     0
  0
ATTDEF
  5
A5
330
A0
100
AcDbEntity
  8
AM_6
100
AcDbText
 10
474.9000000000074
 20
79.66874999999341
 30
0.0
 40
0.5
  1

100
AcDbAttributeDefinition
  3

  2
NN
 70
     8
280
     0
  0
ATTDEF
  5
A6
330
A0
100
AcDbEntity
  8
AM_6
100
AcDbText
 10
474.9000000000074
 20
79.16874999999341
 30
0.0
 40
0.5
  1

100
AcDbAttributeDefinition
  3

  2
NT
 70
     8
280
     0
  0
ATTDEF
  5
A7
330
A0
100
AcDbEntity
  8
AM_6
100
AcDbText
 10
474.9000000000074
 20
78.66874999999341
 30
0.0
 40
0.5
  1
$PARTNUMBER._PART7
100
AcDbAttributeDefinition
  3

  2
NBSYN
 70
     8
280
     0
  0
ATTDEF
  5
A8
330
A0
100
AcDbEntity
  8
AM_6
100
AcDbText
 10
474.9000000000074
 20
78.16874999999341
 30
0.0
 40
0.5
  1
RXP24AVJU9_PART7
100
AcDbAttributeDefinition
  3

  2
LINA
 70
     8
280
     0
  0
ATTDEF
  5
A9
330
A0
100
AcDbEntity
  8
AM_6
100
AcDbText
 10
474.9000000000074
 20
77.66874999999341
 30
0.0
 40
0.5
  1
Daikin
100
AcDbAttributeDefinition
  3

  2
CATALOG
 70
     8
280
     0
  0
ATTDEF
  5
AA
330
A0
100
AcDbEntity
  8
AM_6
100
AcDbText
 10
474.9000000000074
 20
77.16874999999341
 30
0.0
 40
0.5
  1
RXP24AVJU9
100
AcDbAttributeDefinition
  3

  2
PARTNUMBER
 70
     8
280
     0
  0
ATTDEF
  5
AB
330
A0
100
AcDbEntity
  8
AM_6
100
AcDbText
 10
474.9000000000074
 20
76.66874999999341
 30
0.0
 40
0.5
  1
Outdoor Split System Heat Pump
100
AcDbAttributeDefinition
  3

  2
DESCRIPTION
 70
     8
280
     0
  0
ATTDEF
  5
AC
330
A0
100
AcDbEntity
  8
AM_6
100
AcDbText
 10
474.9000000000074
 20
76.16874999999341
 30
0.0
 40
0.5
  1
14.5000
100
AcDbAttributeDefinition
  3

  2
OVERALL_DEPTH
 70
     8
280
     0
  0
ATTDEF
  5
AD
330
A0
100
AcDbEntity
  8
AM_6
100
AcDbText
 10
474.9000000000074
 20
75.66874999999341
 30
0.0
 40
0.5
  1
29.500
100
AcDbAttributeDefinition
  3

  2
OVERALL_HEIGHT
 70
     8
280
     0
  0
ATTDEF
  5
AE
330
A0
100
AcDbEntity
  8
AM_6
100
AcDbText
 10
474.9000000000074
 20
75.16874999999341
 30
0.0
 40
0.5
  1
37.000
100
AcDbAttributeDefinition
  3

  2
OVERALL_WIDTH
 70
     8
280
     0
  0
ATTDEF
  5
AF
330
A0
100
AcDbEntity
  8
AM_6
100
AcDbText
 10
474.9000000000074
 20
74.66874999999341
 30
0.0
 40
0.5
  1
https://daikincomfort.com/
100
AcDbAttributeDefinition
  3

  2
URL
 70
     8
280
     0
  0
ATTDEF
  5
B0
330
A0
100
AcDbEntity
  8
AM_6
100
AcDbText
 10
474.9000000000074
 20
74.16874999999341
 30
0.0
 40
0.5
  1
Download Revit Family (RFA)
100
AcDbAttributeDefinition
  3

  2
RFA_FAMILY
 70
     8
280
     0
  0
ATTDEF
  5
B1
330
A0
100
AcDbEntity
  8
AM_6
100
AcDbText
 10
474.9000000000074
 20
73.66874999999341
 30
0.0
 40
0.5
  1
daikin
100
AcDbAttributeDefinition
  3

  2
COMPANY
 70
     8
280
     0
  0
ATTDEF
  5
B2
330
A0
100
AcDbEntity
  8
AM_6
100
AcDbText
 10
474.9000000000074
 20
73.16874999999341
 30
0.0
 40
0.5
  1
{$CADENAS_DATA/23d-libs/daikin/single20zone20systems/single20zone20heat20pump20outdoor20units/28r322920heat20pump20unit20aurora20single20zone20outdoor20daikin20rxp.prj},243 {VTYP=3D},{NB=RXP24AVJU9_PART7},{LINA=RXP24AVJU9_PART7},{NN=(R32) Heat Pump 
100
AcDbAttributeDefinition
  3

  2
PSOL_0
 70
     9
280
     0
  0
ATTDEF
  5
B3
330
A0
100
AcDbEntity
  8
AM_6
100
AcDbText
 10
474.9000000000074
 20
72.66874999999341
 30
0.0
 40
0.5
  1
urora Single Zone Outdoor Daikin RXP_PART7},{NOPRJ=TRUE},{DATE=06.03.2026 14:42:20},{GEOMDATE=06.03.2026 09:05:37},{VERSION=},{LINEID=40},{WBVAR=},{WBNUMERIC=}  {NB=RXP24AVJU9_PART7},{LINA=RXP24AVJU9_PART7},{KT=DUMMY},{PARTNUMBERHELP=2Ton_RXP24AVJU9
100
AcDbAttributeDefinition
  3

  2
PSOL_1
 70
     9
280
     0
  0
ATTDEF
  5
B4
330
A0
100
AcDbEntity
  8
AM_6
100
AcDbText
 10
474.9000000000074
 20
72.16874999999341
 30
0.0
 40
0.5
  1
TNUMBER=RXP24AVJU9},{DESCRIPTION=Outdoor Split System Heat Pump},{OVERALL_DEPTH=14.5000},{OVERALL_HEIGHT=29.500},{OVERALL_WIDTH=37.000},{URL=https://daikincomfort.com/},{RFA_FAMILY=Download Revit Family (RFA)},{APPARENT_POWER=5184},{ASSEMBLY_CODE=D3
100
AcDbAttributeDefinition
  3

  2
PSOL_2
 70
     9
280
     0
  0
ATTDEF
  5
B5
330
A0
100
AcDbEntity
  8
AM_6
100
AcDbText
 10
474.9000000000074
 20
71.66874999999341
 30
0.0
 40
0.5
  1
},{BACK_CLEARANCE=0.161458333333333},{BASE_PITCH=1.20833333333333},{BASE_PITCH_OFFSET=0.401041666666667},{BASE_PITCH_WIDTH=0.0833333333333333},{BASE_PITCH_WIDTH_APART=1.96875},{CATEGORY=Mechanical Equipment},{CLASSIFICATION_NUMBER=23.33.17.13.11},{C
100
AcDbAttributeDefinition
  3

  2
PSOL_3
 70
     9
280
     0
  0
ATTDEF
  5
B6
330
A0
100
AcDbEntity
  8
AM_6
100
AcDbText
 10
474.9000000000074
 20
71.16874999999341
 30
0.0
 40
0.5
  1
CE_VISIBILITY=1},{COMPRESSOR_TYPE=Hermetically Sealed Swing Type},{CONDENSATE_DRAIN_CONNECTION_DIAMETER=0.625},{CONDENSATE_DRAIN_CONNECTION_RADIUS=0.3125},{CONDENSATE_DRAIN_HORIZONTAL_OFFSET=1.72395833333333},{CONDENSATE_DRAIN_VERTICAL_OFFSET=0.9531
100
AcDbAttributeDefinition
  3

  2
PSOL_4
 70
     9
280
     0
  0
ATTDEF
  5
B7
330
A0
100
AcDbEntity
  8
AM_6
100
AcDbText
 10
474.9000000000074
 20
70.66874999999341
 30
0.0
 40
0.5
  1
OST=0},{DEFAULT_ELEVATION=0},{ENCLOSURE_DEPTH=1.05208333333333},{ENCLOSURE_HEIGHT=2.45833333333333},{ENCLOSURE_HEIGHT_OFFSET=0.0833333333333333},{ENCLOSURE_WIDTH=2.85416666666667},{FAN_TYPE=Propeller},{FAN_VENT_DEPTH=0.0989583333333333},{FREQUENCY=6
100
AcDbAttributeDefinition
  3

  2
PSOL_5
 70
     9
280
     0
  0
ATTDEF
  5
B8
330
A0
100
AcDbEntity
  8
AM_6
100
AcDbText
 10
474.9000000000074
 20
70.16874999999341
 30
0.0
 40
0.5
  1
ONT_CLEARANCE=0.328125},{FRONT_GRILL_WIDTH=2.2125},{LOAD_SUB_CLASSIFICATION_MOTOR=1},{MANUFACTURER=Daikin},{MASSUNIT=1},{MAXIMUM_OVERCURRENT_PROTECTION=25},{MINIMUM_CIRCUIT_AMPS=21.6},{NOMINAL_COOLING_CAPACITY=21800},{NOMINAL_COOLING_CAPACITY__TONS_
100
AcDbAttributeDefinition
  3

  2
PSOL_6
 70
     9
280
     0
  0
ATTDEF
  5
B9
330
A0
100
AcDbEntity
  8
AM_6
100
AcDbText
 10
474.9000000000074
 20
69.66874999999341
 30
0.0
 40
0.5
  1
OMINAL_HEATING_CAPACITY=24000},{NUMBER_OF_POLES=2},{PARTTYPE=Normal},{PHASE=1},{PRODUCT_PAGE_URL=https://daikincomfort.com/products/heating-cooling/single-split-ductless/heat-pumps//daikin-aurora---fdma-ducted-concealed},{REFRIGERANT_CHARGE=3.04},{R
100
AcDbAttributeDefinition
  3

  2
PSOL_7
 70
     9
280
     0
  0
ATTDEF
  5
BA
330
A0
100
AcDbEntity
  8
AM_6
100
AcDbText
 10
474.9000000000074
 20
69.16874999999341
 30
0.0
 40
0.5
  1
RANT_CONNECTION_DEPTH_OFFSET=0.520833333333333},{REFRIGERANT_LIQUID_CONNECTION_DIAMETER=0.25},{REFRIGERANT_LIQUID_CONNECTION_HORIZONTAL_OFFSET=0.0572916666666667},{REFRIGERANT_LIQUID_CONNECTION_RADIUS=0.125},{REFRIGERANT_LIQUID_CONNECTION_VERTICAL_O
100
AcDbAttributeDefinition
  3

  2
PSOL_8
 70
     9
280
     0
  0
ATTDEF
  5
BB
330
A0
100
AcDbEntity
  8
AM_6
100
AcDbText
 10
474.9000000000074
 20
68.66874999999341
 30
0.0
 40
0.5
  1
0.588541666666667},{REFRIGERANT_SUCTION_GAS_CONNECTION_DIAMETER=0.625},{REFRIGERANT_SUCTION_GAS_CONNECTION_HORIONTAL_OFFSET=0.0677083333333333},{REFRIGERANT_SUCTION_GAS_CONNECTION_RADIUS=0.3125},{REFRIGERANT_SUCTION_GAS_CONNECTION_VERTICAL_OFFSET=0.
100
AcDbAttributeDefinition
  3

  2
PSOL_9
 70
     9
280
     0
  0
ATTDEF
  5
BC
330
A0
100
AcDbEntity
  8
AM_6
100
AcDbText
 10
474.9000000000074
 20
68.16874999999341
 30
0.0
 40
0.5
  1
333333333},{REFRIGERANT_USED=R-32},{SERIES=RXP-A},{SIDE_CLEARANCE=0.161458333333333},{SOUND_PRESSURE_LEVEL___COOLING=55},{SOUND_PRESSURE_LEVEL___HEATING=57},{STOP_VALVE_COVER_DEPTH=0.526041666666667},{STOP_VALVE_COVER_HEIGHT=2.2125},{STOP_VALVE_COVE
100
AcDbAttributeDefinition
  3

  2
PSOL_10
 70
     9
280
     0
  0
ATTDEF
  5
BD
330
A0
100
AcDbEntity
  8
AM_6
100
AcDbText
 10
474.9000000000074
 20
67.66874999999341
 30
0.0
 40
0.5
  1
BILITY=1},{STOP_VALVE_COVER_WIDTH=0.229166666666667},{SYSTEM_PERFORMANCE_COP2=3.0},{SYSTEM_PERFORMANCE_EER2=10.3},{SYSTEM_PERFORMANCE_HSPF2=9.2},{SYSTEM_PERFORMANCE_SEER2=18.3},{UNIT_WEIGHT=127},{VERSION=1},{VOLTAGE=240},{VOLTAGE_COMMENTS=208 VAC - 
100
AcDbAttributeDefinition
  3

  2
PSOL_11
 70
     9
280
     0
  0
ATTDEF
  5
BE
330
A0
100
AcDbEntity
  8
AM_6
100
AcDbText
 10
474.9000000000074
 20
67.16874999999341
 30
0.0
 40
0.5
  1
C},{DEFAULTSORTATTR=1},{RFA_FAMILY_=../../_pool_/09/54/28r322920heat20pump20unit20aurora20single20zone20outdoor20daikin20rxp.zip},{RFA_FAMILY_ENG=../../_pool_/09/54/28r322920heat20pump20unit20aurora20single20zone20outdoor20daikin20rxp.zip},{REVIT_FA
100
AcDbAttributeDefinition
  3

  2
PSOL_12
 70
     9
280
     0
  0
ATTDEF
  5
BF
330
A0
100
AcDbEntity
  8
AM_6
100
AcDbText
 10
474.9000000000074
 20
66.66874999999341
 30
0.0
 40
0.5
  1
OWNLOAD=../../_pool_/09/54/28r322920heat20pump20unit20aurora20single20zone20outdoor20daikin20rxp.zip}
100
AcDbAttributeDefinition
  3

  2
PSOL_13
 70
     9
280
     0
  0
LINE
  5
C0
330
A0
100
AcDbEntity
  8
AM_0
100
AcDbLine
 10
469.900000000007
 20
-80.1687500000066
 30
0.0
 11
400.0500000000067
 21
-80.1687500000066
 31
0.0
  0
LINE
  5
C1
330
A0
100
AcDbEntity
  8
AM_0
100
AcDbLine
 10
400.0500000000067
 20
80.16874999999341
 30
0.0
 11
469.9000000000074
 21
80.16874999999341
 31
0.0
  0
LINE
  5
C2
330
A0
100
AcDbEntity
  8
AM_0
100
AcDbLine
 10
469.900000000007
 20
80.16874999999341
 30
0.0
 11
469.900000000007
 21
-80.16875000000661
 31
0.0
  0
LINE
  5
C3
330
A0
100
AcDbEntity
  8
AM_0
100
AcDbLine
 10
446.616666666674
 20
-80.16875000000661
 30
0.0
 11
446.616666666674
 21
80.16874999999341
 31
0.0
  0
ENDBLK
  5
A3
330
A0
100
AcDbEntity
  8
0
100
AcDbBlockEnd
  0
BLOCK
  5
C6
330
C4
100
AcDbEntity
  8
0
100
AcDbBlockBegin
  2
3_RXP24AVJU9_PART6_0_in_RXP24AVJU9_4
 70
     2
 10
0.0
 20
0.0
 30
0.0
  3
3_RXP24AVJU9_PART6_0_in_RXP24AVJU9_4
  1

  0
ATTDEF
  5
C8
330
C4
100
AcDbEntity
  8
AM_6
100
AcDbText
 10
234.870000000005
 20
-160.337500000005
 30
0.0
 40
0.5
  1
RXP24AVJU9_PART6
100
AcDbAttributeDefinition
  3

  2
NB
 70
     8
280
     0
  0
ATTDEF
  5
C9
330
C4
100
AcDbEntity
  8
AM_6
100
AcDbText
 10
234.870000000005
 20
-160.837500000005
 30
0.0
 40
0.5
  1

100
AcDbAttributeDefinition
  3

  2
NN
 70
     8
280
     0
  0
ATTDEF
  5
CA
330
C4
100
AcDbEntity
  8
AM_6
100
AcDbText
 10
234.870000000005
 20
-161.337500000005
 30
0.0
 40
0.5
  1

100
AcDbAttributeDefinition
  3

  2
NT
 70
     8
280
     0
  0
ATTDEF
  5
CB
330
C4
100
AcDbEntity
  8
AM_6
100
AcDbText
 10
234.870000000005
 20
-161.837500000005
 30
0.0
 40
0.5
  1
$PARTNUMBER._PART6
100
AcDbAttributeDefinition
  3

  2
NBSYN
 70
     8
280
     0
  0
ATTDEF
  5
CC
330
C4
100
AcDbEntity
  8
AM_6
100
AcDbText
 10
234.870000000005
 20
-162.337500000005
 30
0.0
 40
0.5
  1
RXP24AVJU9_PART6
100
AcDbAttributeDefinition
  3

  2
LINA
 70
     8
280
     0
  0
ATTDEF
  5
CD
330
C4
100
AcDbEntity
  8
AM_6
100
AcDbText
 10
234.870000000005
 20
-162.837500000005
 30
0.0
 40
0.5
  1
Daikin
100
AcDbAttributeDefinition
  3

  2
CATALOG
 70
     8
280
     0
  0
ATTDEF
  5
CE
330
C4
100
AcDbEntity
  8
AM_6
100
AcDbText
 10
234.870000000005
 20
-163.337500000005
 30
0.0
 40
0.5
  1
RXP24AVJU9
100
AcDbAttributeDefinition
  3

  2
PARTNUMBER
 70
     8
280
     0
  0
ATTDEF
  5
CF
330
C4
100
AcDbEntity
  8
AM_6
100
AcDbText
 10
234.870000000005
 20
-163.837500000005
 30
0.0
 40
0.5
  1
Outdoor Split System Heat Pump
100
AcDbAttributeDefinition
  3

  2
DESCRIPTION
 70
     8
280
     0
  0
ATTDEF
  5
D0
330
C4
100
AcDbEntity
  8
AM_6
100
AcDbText
 10
234.870000000005
 20
-164.337500000005
 30
0.0
 40
0.5
  1
14.5000
100
AcDbAttributeDefinition
  3

  2
OVERALL_DEPTH
 70
     8
280
     0
  0
ATTDEF
  5
D1
330
C4
100
AcDbEntity
  8
AM_6
100
AcDbText
 10
234.870000000005
 20
-164.837500000005
 30
0.0
 40
0.5
  1
29.500
100
AcDbAttributeDefinition
  3

  2
OVERALL_HEIGHT
 70
     8
280
     0
  0
ATTDEF
  5
D2
330
C4
100
AcDbEntity
  8
AM_6
100
AcDbText
 10
234.870000000005
 20
-165.337500000005
 30
0.0
 40
0.5
  1
37.000
100
AcDbAttributeDefinition
  3

  2
OVERALL_WIDTH
 70
     8
280
     0
  0
ATTDEF
  5
D3
330
C4
100
AcDbEntity
  8
AM_6
100
AcDbText
 10
234.870000000005
 20
-165.837500000005
 30
0.0
 40
0.5
  1
https://daikincomfort.com/
100
AcDbAttributeDefinition
  3

  2
URL
 70
     8
280
     0
  0
ATTDEF
  5
D4
330
C4
100
AcDbEntity
  8
AM_6
100
AcDbText
 10
234.870000000005
 20
-166.337500000005
 30
0.0
 40
0.5
  1
Download Revit Family (RFA)
100
AcDbAttributeDefinition
  3

  2
RFA_FAMILY
 70
     8
280
     0
  0
ATTDEF
  5
D5
330
C4
100
AcDbEntity
  8
AM_6
100
AcDbText
 10
234.870000000005
 20
-166.837500000005
 30
0.0
 40
0.5
  1
daikin
100
AcDbAttributeDefinition
  3

  2
COMPANY
 70
     8
280
     0
  0
ATTDEF
  5
D6
330
C4
100
AcDbEntity
  8
AM_6
100
AcDbText
 10
234.870000000005
 20
-167.337500000005
 30
0.0
 40
0.5
  1
{$CADENAS_DATA/23d-libs/daikin/single20zone20systems/single20zone20heat20pump20outdoor20units/28r322920heat20pump20unit20aurora20single20zone20outdoor20daikin20rxp.prj},243 {VTYP=3D},{NB=RXP24AVJU9_PART6},{LINA=RXP24AVJU9_PART6},{NN=(R32) Heat Pump 
100
AcDbAttributeDefinition
  3

  2
PSOL_0
 70
     9
280
     0
  0
ATTDEF
  5
D7
330
C4
100
AcDbEntity
  8
AM_6
100
AcDbText
 10
234.870000000005
 20
-167.837500000005
 30
0.0
 40
0.5
  1
urora Single Zone Outdoor Daikin RXP_PART6},{NOPRJ=TRUE},{DATE=06.03.2026 14:42:20},{GEOMDATE=06.03.2026 09:05:37},{VERSION=},{LINEID=40},{WBVAR=},{WBNUMERIC=}  {NB=RXP24AVJU9_PART6},{LINA=RXP24AVJU9_PART6},{KT=DUMMY},{PARTNUMBERHELP=2Ton_RXP24AVJU9
100
AcDbAttributeDefinition
  3

  2
PSOL_1
 70
     9
280
     0
  0
ATTDEF
  5
D8
330
C4
100
AcDbEntity
  8
AM_6
100
AcDbText
 10
234.870000000005
 20
-168.337500000005
 30
0.0
 40
0.5
  1
TNUMBER=RXP24AVJU9},{DESCRIPTION=Outdoor Split System Heat Pump},{OVERALL_DEPTH=14.5000},{OVERALL_HEIGHT=29.500},{OVERALL_WIDTH=37.000},{URL=https://daikincomfort.com/},{RFA_FAMILY=Download Revit Family (RFA)},{APPARENT_POWER=5184},{ASSEMBLY_CODE=D3
100
AcDbAttributeDefinition
  3

  2
PSOL_2
 70
     9
280
     0
  0
ATTDEF
  5
D9
330
C4
100
AcDbEntity
  8
AM_6
100
AcDbText
 10
234.870000000005
 20
-168.837500000005
 30
0.0
 40
0.5
  1
},{BACK_CLEARANCE=0.161458333333333},{BASE_PITCH=1.20833333333333},{BASE_PITCH_OFFSET=0.401041666666667},{BASE_PITCH_WIDTH=0.0833333333333333},{BASE_PITCH_WIDTH_APART=1.96875},{CATEGORY=Mechanical Equipment},{CLASSIFICATION_NUMBER=23.33.17.13.11},{C
100
AcDbAttributeDefinition
  3

  2
PSOL_3
 70
     9
280
     0
  0
ATTDEF
  5
DA
330
C4
100
AcDbEntity
  8
AM_6
100
AcDbText
 10
234.870000000005
 20
-169.337500000005
 30
0.0
 40
0.5
  1
CE_VISIBILITY=1},{COMPRESSOR_TYPE=Hermetically Sealed Swing Type},{CONDENSATE_DRAIN_CONNECTION_DIAMETER=0.625},{CONDENSATE_DRAIN_CONNECTION_RADIUS=0.3125},{CONDENSATE_DRAIN_HORIZONTAL_OFFSET=1.72395833333333},{CONDENSATE_DRAIN_VERTICAL_OFFSET=0.9531
100
AcDbAttributeDefinition
  3

  2
PSOL_4
 70
     9
280
     0
  0
ATTDEF
  5
DB
330
C4
100
AcDbEntity
  8
AM_6
100
AcDbText
 10
234.870000000005
 20
-169.837500000005
 30
0.0
 40
0.5
  1
OST=0},{DEFAULT_ELEVATION=0},{ENCLOSURE_DEPTH=1.05208333333333},{ENCLOSURE_HEIGHT=2.45833333333333},{ENCLOSURE_HEIGHT_OFFSET=0.0833333333333333},{ENCLOSURE_WIDTH=2.85416666666667},{FAN_TYPE=Propeller},{FAN_VENT_DEPTH=0.0989583333333333},{FREQUENCY=6
100
AcDbAttributeDefinition
  3

  2
PSOL_5
 70
     9
280
     0
  0
ATTDEF
  5
DC
330
C4
100
AcDbEntity
  8
AM_6
100
AcDbText
 10
234.870000000005
 20
-170.337500000005
 30
0.0
 40
0.5
  1
ONT_CLEARANCE=0.328125},{FRONT_GRILL_WIDTH=2.2125},{LOAD_SUB_CLASSIFICATION_MOTOR=1},{MANUFACTURER=Daikin},{MASSUNIT=1},{MAXIMUM_OVERCURRENT_PROTECTION=25},{MINIMUM_CIRCUIT_AMPS=21.6},{NOMINAL_COOLING_CAPACITY=21800},{NOMINAL_COOLING_CAPACITY__TONS_
100
AcDbAttributeDefinition
  3

  2
PSOL_6
 70
     9
280
     0
  0
ATTDEF
  5
DD
330
C4
100
AcDbEntity
  8
AM_6
100
AcDbText
 10
234.870000000005
 20
-170.837500000005
 30
0.0
 40
0.5
  1
OMINAL_HEATING_CAPACITY=24000},{NUMBER_OF_POLES=2},{PARTTYPE=Normal},{PHASE=1},{PRODUCT_PAGE_URL=https://daikincomfort.com/products/heating-cooling/single-split-ductless/heat-pumps//daikin-aurora---fdma-ducted-concealed},{REFRIGERANT_CHARGE=3.04},{R
100
AcDbAttributeDefinition
  3

  2
PSOL_7
 70
     9
280
     0
  0
ATTDEF
  5
DE
330
C4
100
AcDbEntity
  8
AM_6
100
AcDbText
 10
234.870000000005
 20
-171.337500000005
 30
0.0
 40
0.5
  1
RANT_CONNECTION_DEPTH_OFFSET=0.520833333333333},{REFRIGERANT_LIQUID_CONNECTION_DIAMETER=0.25},{REFRIGERANT_LIQUID_CONNECTION_HORIZONTAL_OFFSET=0.0572916666666667},{REFRIGERANT_LIQUID_CONNECTION_RADIUS=0.125},{REFRIGERANT_LIQUID_CONNECTION_VERTICAL_O
100
AcDbAttributeDefinition
  3

  2
PSOL_8
 70
     9
280
     0
  0
ATTDEF
  5
DF
330
C4
100
AcDbEntity
  8
AM_6
100
AcDbText
 10
234.870000000005
 20
-171.837500000005
 30
0.0
 40
0.5
  1
0.588541666666667},{REFRIGERANT_SUCTION_GAS_CONNECTION_DIAMETER=0.625},{REFRIGERANT_SUCTION_GAS_CONNECTION_HORIONTAL_OFFSET=0.0677083333333333},{REFRIGERANT_SUCTION_GAS_CONNECTION_RADIUS=0.3125},{REFRIGERANT_SUCTION_GAS_CONNECTION_VERTICAL_OFFSET=0.
100
AcDbAttributeDefinition
  3

  2
PSOL_9
 70
     9
280
     0
  0
ATTDEF
  5
E0
330
C4
100
AcDbEntity
  8
AM_6
100
AcDbText
 10
234.870000000005
 20
-172.337500000005
 30
0.0
 40
0.5
  1
333333333},{REFRIGERANT_USED=R-32},{SERIES=RXP-A},{SIDE_CLEARANCE=0.161458333333333},{SOUND_PRESSURE_LEVEL___COOLING=55},{SOUND_PRESSURE_LEVEL___HEATING=57},{STOP_VALVE_COVER_DEPTH=0.526041666666667},{STOP_VALVE_COVER_HEIGHT=2.2125},{STOP_VALVE_COVE
100
AcDbAttributeDefinition
  3

  2
PSOL_10
 70
     9
280
     0
  0
ATTDEF
  5
E1
330
C4
100
AcDbEntity
  8
AM_6
100
AcDbText
 10
234.870000000005
 20
-172.837500000005
 30
0.0
 40
0.5
  1
BILITY=1},{STOP_VALVE_COVER_WIDTH=0.229166666666667},{SYSTEM_PERFORMANCE_COP2=3.0},{SYSTEM_PERFORMANCE_EER2=10.3},{SYSTEM_PERFORMANCE_HSPF2=9.2},{SYSTEM_PERFORMANCE_SEER2=18.3},{UNIT_WEIGHT=127},{VERSION=1},{VOLTAGE=240},{VOLTAGE_COMMENTS=208 VAC - 
100
AcDbAttributeDefinition
  3

  2
PSOL_11
 70
     9
280
     0
  0
ATTDEF
  5
E2
330
C4
100
AcDbEntity
  8
AM_6
100
AcDbText
 10
234.870000000005
 20
-173.337500000005
 30
0.0
 40
0.5
  1
C},{DEFAULTSORTATTR=1},{RFA_FAMILY_=../../_pool_/09/54/28r322920heat20pump20unit20aurora20single20zone20outdoor20daikin20rxp.zip},{RFA_FAMILY_ENG=../../_pool_/09/54/28r322920heat20pump20unit20aurora20single20zone20outdoor20daikin20rxp.zip},{REVIT_FA
100
AcDbAttributeDefinition
  3

  2
PSOL_12
 70
     9
280
     0
  0
ATTDEF
  5
E3
330
C4
100
AcDbEntity
  8
AM_6
100
AcDbText
 10
234.870000000005
 20
-173.837500000005
 30
0.0
 40
0.5
  1
OWNLOAD=../../_pool_/09/54/28r322920heat20pump20unit20aurora20single20zone20outdoor20daikin20rxp.zip}
100
AcDbAttributeDefinition
  3

  2
PSOL_13
 70
     9
280
     0
  0
LINE
  5
E4
330
C4
100
AcDbEntity
  8
AM_0
100
AcDbLine
 10
229.870000000005
 20
-160.337500000005
 30
0.0
 11
229.870000000005
 21
-190.50000000001
 31
0.0
  0
LINE
  5
E5
330
C4
100
AcDbEntity
  8
AM_0
100
AcDbLine
 10
-444.499999999993
 20
-190.50000000001
 30
0.0
 11
-444.499999999993
 21
-160.337500000005
 31
0.0
  0
LINE
  5
E6
330
C4
100
AcDbEntity
  8
AM_0
100
AcDbLine
 10
229.870000000005
 20
-190.50000000001
 30
0.0
 11
-444.499999999993
 21
-190.50000000001
 31
0.0
  0
ENDBLK
  5
C7
330
C4
100
AcDbEntity
  8
0
100
AcDbBlockEnd
  0
BLOCK
  5
E9
330
E7
100
AcDbEntity
  8
0
100
AcDbBlockBegin
  2
4_RXP24AVJU9_PART5_0_in_RXP24AVJU9_4
 70
     2
 10
0.0
 20
0.0
 30
0.0
  3
4_RXP24AVJU9_PART5_0_in_RXP24AVJU9_4
  1

  0
ATTDEF
  5
EB
330
E7
100
AcDbEntity
  8
AM_6
100
AcDbText
 10
-317.262499999994
 20
184.149999999992
 30
0.0
 40
0.5
  1
RXP24AVJU9_PART5
100
AcDbAttributeDefinition
  3

  2
NB
 70
     8
280
     0
  0
ATTDEF
  5
EC
330
E7
100
AcDbEntity
  8
AM_6
100
AcDbText
 10
-317.262499999994
 20
183.649999999992
 30
0.0
 40
0.5
  1

100
AcDbAttributeDefinition
  3

  2
NN
 70
     8
280
     0
  0
ATTDEF
  5
ED
330
E7
100
AcDbEntity
  8
AM_6
100
AcDbText
 10
-317.262499999994
 20
183.149999999992
 30
0.0
 40
0.5
  1

100
AcDbAttributeDefinition
  3

  2
NT
 70
     8
280
     0
  0
ATTDEF
  5
EE
330
E7
100
AcDbEntity
  8
AM_6
100
AcDbText
 10
-317.262499999994
 20
182.649999999992
 30
0.0
 40
0.5
  1
$PARTNUMBER._PART5
100
AcDbAttributeDefinition
  3

  2
NBSYN
 70
     8
280
     0
  0
ATTDEF
  5
EF
330
E7
100
AcDbEntity
  8
AM_6
100
AcDbText
 10
-317.262499999994
 20
182.149999999992
 30
0.0
 40
0.5
  1
RXP24AVJU9_PART5
100
AcDbAttributeDefinition
  3

  2
LINA
 70
     8
280
     0
  0
ATTDEF
  5
F0
330
E7
100
AcDbEntity
  8
AM_6
100
AcDbText
 10
-317.262499999994
 20
181.649999999992
 30
0.0
 40
0.5
  1
Daikin
100
AcDbAttributeDefinition
  3

  2
CATALOG
 70
     8
280
     0
  0
ATTDEF
  5
F1
330
E7
100
AcDbEntity
  8
AM_6
100
AcDbText
 10
-317.262499999994
 20
181.149999999992
 30
0.0
 40
0.5
  1
RXP24AVJU9
100
AcDbAttributeDefinition
  3

  2
PARTNUMBER
 70
     8
280
     0
  0
ATTDEF
  5
F2
330
E7
100
AcDbEntity
  8
AM_6
100
AcDbText
 10
-317.262499999994
 20
180.649999999992
 30
0.0
 40
0.5
  1
Outdoor Split System Heat Pump
100
AcDbAttributeDefinition
  3

  2
DESCRIPTION
 70
     8
280
     0
  0
ATTDEF
  5
F3
330
E7
100
AcDbEntity
  8
AM_6
100
AcDbText
 10
-317.262499999994
 20
180.149999999992
 30
0.0
 40
0.5
  1
14.5000
100
AcDbAttributeDefinition
  3

  2
OVERALL_DEPTH
 70
     8
280
     0
  0
ATTDEF
  5
F4
330
E7
100
AcDbEntity
  8
AM_6
100
AcDbText
 10
-317.262499999994
 20
179.649999999992
 30
0.0
 40
0.5
  1
29.500
100
AcDbAttributeDefinition
  3

  2
OVERALL_HEIGHT
 70
     8
280
     0
  0
ATTDEF
  5
F5
330
E7
100
AcDbEntity
  8
AM_6
100
AcDbText
 10
-317.262499999994
 20
179.149999999992
 30
0.0
 40
0.5
  1
37.000
100
AcDbAttributeDefinition
  3

  2
OVERALL_WIDTH
 70
     8
280
     0
  0
ATTDEF
  5
F6
330
E7
100
AcDbEntity
  8
AM_6
100
AcDbText
 10
-317.262499999994
 20
178.649999999992
 30
0.0
 40
0.5
  1
https://daikincomfort.com/
100
AcDbAttributeDefinition
  3

  2
URL
 70
     8
280
     0
  0
ATTDEF
  5
F7
330
E7
100
AcDbEntity
  8
AM_6
100
AcDbText
 10
-317.262499999994
 20
178.149999999992
 30
0.0
 40
0.5
  1
Download Revit Family (RFA)
100
AcDbAttributeDefinition
  3

  2
RFA_FAMILY
 70
     8
280
     0
  0
ATTDEF
  5
F8
330
E7
100
AcDbEntity
  8
AM_6
100
AcDbText
 10
-317.262499999994
 20
177.649999999992
 30
0.0
 40
0.5
  1
daikin
100
AcDbAttributeDefinition
  3

  2
COMPANY
 70
     8
280
     0
  0
ATTDEF
  5
F9
330
E7
100
AcDbEntity
  8
AM_6
100
AcDbText
 10
-317.262499999994
 20
177.149999999992
 30
0.0
 40
0.5
  1
{$CADENAS_DATA/23d-libs/daikin/single20zone20systems/single20zone20heat20pump20outdoor20units/28r322920heat20pump20unit20aurora20single20zone20outdoor20daikin20rxp.prj},243 {VTYP=3D},{NB=RXP24AVJU9_PART5},{LINA=RXP24AVJU9_PART5},{NN=(R32) Heat Pump 
100
AcDbAttributeDefinition
  3

  2
PSOL_0
 70
     9
280
     0
  0
ATTDEF
  5
FA
330
E7
100
AcDbEntity
  8
AM_6
100
AcDbText
 10
-317.262499999994
 20
176.649999999992
 30
0.0
 40
0.5
  1
urora Single Zone Outdoor Daikin RXP_PART5},{NOPRJ=TRUE},{DATE=06.03.2026 14:42:20},{GEOMDATE=06.03.2026 09:05:37},{VERSION=},{LINEID=40},{WBVAR=},{WBNUMERIC=}  {NB=RXP24AVJU9_PART5},{LINA=RXP24AVJU9_PART5},{KT=DUMMY},{PARTNUMBERHELP=2Ton_RXP24AVJU9
100
AcDbAttributeDefinition
  3

  2
PSOL_1
 70
     9
280
     0
  0
ATTDEF
  5
FB
330
E7
100
AcDbEntity
  8
AM_6
100
AcDbText
 10
-317.262499999994
 20
176.149999999992
 30
0.0
 40
0.5
  1
TNUMBER=RXP24AVJU9},{DESCRIPTION=Outdoor Split System Heat Pump},{OVERALL_DEPTH=14.5000},{OVERALL_HEIGHT=29.500},{OVERALL_WIDTH=37.000},{URL=https://daikincomfort.com/},{RFA_FAMILY=Download Revit Family (RFA)},{APPARENT_POWER=5184},{ASSEMBLY_CODE=D3
100
AcDbAttributeDefinition
  3

  2
PSOL_2
 70
     9
280
     0
  0
ATTDEF
  5
FC
330
E7
100
AcDbEntity
  8
AM_6
100
AcDbText
 10
-317.262499999994
 20
175.649999999992
 30
0.0
 40
0.5
  1
},{BACK_CLEARANCE=0.161458333333333},{BASE_PITCH=1.20833333333333},{BASE_PITCH_OFFSET=0.401041666666667},{BASE_PITCH_WIDTH=0.0833333333333333},{BASE_PITCH_WIDTH_APART=1.96875},{CATEGORY=Mechanical Equipment},{CLASSIFICATION_NUMBER=23.33.17.13.11},{C
100
AcDbAttributeDefinition
  3

  2
PSOL_3
 70
     9
280
     0
  0
ATTDEF
  5
FD
330
E7
100
AcDbEntity
  8
AM_6
100
AcDbText
 10
-317.262499999994
 20
175.149999999992
 30
0.0
 40
0.5
  1
CE_VISIBILITY=1},{COMPRESSOR_TYPE=Hermetically Sealed Swing Type},{CONDENSATE_DRAIN_CONNECTION_DIAMETER=0.625},{CONDENSATE_DRAIN_CONNECTION_RADIUS=0.3125},{CONDENSATE_DRAIN_HORIZONTAL_OFFSET=1.72395833333333},{CONDENSATE_DRAIN_VERTICAL_OFFSET=0.9531
100
AcDbAttributeDefinition
  3

  2
PSOL_4
 70
     9
280
     0
  0
ATTDEF
  5
FE
330
E7
100
AcDbEntity
  8
AM_6
100
AcDbText
 10
-317.262499999994
 20
174.649999999992
 30
0.0
 40
0.5
  1
OST=0},{DEFAULT_ELEVATION=0},{ENCLOSURE_DEPTH=1.05208333333333},{ENCLOSURE_HEIGHT=2.45833333333333},{ENCLOSURE_HEIGHT_OFFSET=0.0833333333333333},{ENCLOSURE_WIDTH=2.85416666666667},{FAN_TYPE=Propeller},{FAN_VENT_DEPTH=0.0989583333333333},{FREQUENCY=6
100
AcDbAttributeDefinition
  3

  2
PSOL_5
 70
     9
280
     0
  0
ATTDEF
  5
FF
330
E7
100
AcDbEntity
  8
AM_6
100
AcDbText
 10
-317.262499999994
 20
174.149999999992
 30
0.0
 40
0.5
  1
ONT_CLEARANCE=0.328125},{FRONT_GRILL_WIDTH=2.2125},{LOAD_SUB_CLASSIFICATION_MOTOR=1},{MANUFACTURER=Daikin},{MASSUNIT=1},{MAXIMUM_OVERCURRENT_PROTECTION=25},{MINIMUM_CIRCUIT_AMPS=21.6},{NOMINAL_COOLING_CAPACITY=21800},{NOMINAL_COOLING_CAPACITY__TONS_
100
AcDbAttributeDefinition
  3

  2
PSOL_6
 70
     9
280
     0
  0
ATTDEF
  5
100
330
E7
100
AcDbEntity
  8
AM_6
100
AcDbText
 10
-317.262499999994
 20
173.649999999992
 30
0.0
 40
0.5
  1
OMINAL_HEATING_CAPACITY=24000},{NUMBER_OF_POLES=2},{PARTTYPE=Normal},{PHASE=1},{PRODUCT_PAGE_URL=https://daikincomfort.com/products/heating-cooling/single-split-ductless/heat-pumps//daikin-aurora---fdma-ducted-concealed},{REFRIGERANT_CHARGE=3.04},{R
100
AcDbAttributeDefinition
  3

  2
PSOL_7
 70
     9
280
     0
  0
ATTDEF
  5
101
330
E7
100
AcDbEntity
  8
AM_6
100
AcDbText
 10
-317.262499999994
 20
173.149999999992
 30
0.0
 40
0.5
  1
RANT_CONNECTION_DEPTH_OFFSET=0.520833333333333},{REFRIGERANT_LIQUID_CONNECTION_DIAMETER=0.25},{REFRIGERANT_LIQUID_CONNECTION_HORIZONTAL_OFFSET=0.0572916666666667},{REFRIGERANT_LIQUID_CONNECTION_RADIUS=0.125},{REFRIGERANT_LIQUID_CONNECTION_VERTICAL_O
100
AcDbAttributeDefinition
  3

  2
PSOL_8
 70
     9
280
     0
  0
ATTDEF
  5
102
330
E7
100
AcDbEntity
  8
AM_6
100
AcDbText
 10
-317.262499999994
 20
172.649999999992
 30
0.0
 40
0.5
  1
0.588541666666667},{REFRIGERANT_SUCTION_GAS_CONNECTION_DIAMETER=0.625},{REFRIGERANT_SUCTION_GAS_CONNECTION_HORIONTAL_OFFSET=0.0677083333333333},{REFRIGERANT_SUCTION_GAS_CONNECTION_RADIUS=0.3125},{REFRIGERANT_SUCTION_GAS_CONNECTION_VERTICAL_OFFSET=0.
100
AcDbAttributeDefinition
  3

  2
PSOL_9
 70
     9
280
     0
  0
ATTDEF
  5
103
330
E7
100
AcDbEntity
  8
AM_6
100
AcDbText
 10
-317.262499999994
 20
172.149999999992
 30
0.0
 40
0.5
  1
333333333},{REFRIGERANT_USED=R-32},{SERIES=RXP-A},{SIDE_CLEARANCE=0.161458333333333},{SOUND_PRESSURE_LEVEL___COOLING=55},{SOUND_PRESSURE_LEVEL___HEATING=57},{STOP_VALVE_COVER_DEPTH=0.526041666666667},{STOP_VALVE_COVER_HEIGHT=2.2125},{STOP_VALVE_COVE
100
AcDbAttributeDefinition
  3

  2
PSOL_10
 70
     9
280
     0
  0
ATTDEF
  5
104
330
E7
100
AcDbEntity
  8
AM_6
100
AcDbText
 10
-317.262499999994
 20
171.649999999992
 30
0.0
 40
0.5
  1
BILITY=1},{STOP_VALVE_COVER_WIDTH=0.229166666666667},{SYSTEM_PERFORMANCE_COP2=3.0},{SYSTEM_PERFORMANCE_EER2=10.3},{SYSTEM_PERFORMANCE_HSPF2=9.2},{SYSTEM_PERFORMANCE_SEER2=18.3},{UNIT_WEIGHT=127},{VERSION=1},{VOLTAGE=240},{VOLTAGE_COMMENTS=208 VAC - 
100
AcDbAttributeDefinition
  3

  2
PSOL_11
 70
     9
280
     0
  0
ATTDEF
  5
105
330
E7
100
AcDbEntity
  8
AM_6
100
AcDbText
 10
-317.262499999994
 20
171.149999999992
 30
0.0
 40
0.5
  1
C},{DEFAULTSORTATTR=1},{RFA_FAMILY_=../../_pool_/09/54/28r322920heat20pump20unit20aurora20single20zone20outdoor20daikin20rxp.zip},{RFA_FAMILY_ENG=../../_pool_/09/54/28r322920heat20pump20unit20aurora20single20zone20outdoor20daikin20rxp.zip},{REVIT_FA
100
AcDbAttributeDefinition
  3

  2
PSOL_12
 70
     9
280
     0
  0
ATTDEF
  5
106
330
E7
100
AcDbEntity
  8
AM_6
100
AcDbText
 10
-317.262499999994
 20
170.649999999992
 30
0.0
 40
0.5
  1
OWNLOAD=../../_pool_/09/54/28r322920heat20pump20unit20aurora20single20zone20outdoor20daikin20rxp.zip}
100
AcDbAttributeDefinition
  3

  2
PSOL_13
 70
     9
280
     0
  0
LINE
  5
109
330
E7
100
AcDbEntity
  8
AM_9
100
AcDbLine
 10
-347.662499999993
 20
-184.150000000009
 30
0.0
 11
-322.262499999994
 21
-184.150000000009
 31
0.0
  0
LINE
  5
10A
330
E7
100
AcDbEntity
  8
AM_9
100
AcDbLine
 10
-322.262499999994
 20
160.33749999999
 30
0.0
 11
-322.262499999994
 21
-184.1500000000087
 31
0.0
  0
LINE
  5
10B
330
E7
100
AcDbEntity
  8
AM_9
100
AcDbLine
 10
-347.662499999993
 20
-184.150000000009
 30
0.0
 11
-347.662499999993
 21
160.33749999999
 31
0.0
  0
LINE
  5
10C
330
E7
100
AcDbEntity
  8
AM_9
100
AcDbLine
 10
-347.662499999993
 20
-161.131250000008
 30
0.0
 11
-322.262499999994
 21
-161.131250000008
 31
0.0
  0
LINE
  5
10D
330
E7
100
AcDbEntity
  8
AM_0
100
AcDbLine
 10
-322.262499999994
 20
184.149999999992
 30
0.0
 11
-322.262499999994
 21
160.33749999999
 31
0.0
  0
LINE
  5
10E
330
E7
100
AcDbEntity
  8
AM_0
100
AcDbLine
 10
-347.662499999993
 20
184.149999999992
 30
0.0
 11
-322.262499999994
 21
184.149999999992
 31
0.0
  0
LINE
  5
10F
330
E7
100
AcDbEntity
  8
AM_0
100
AcDbLine
 10
-347.662499999993
 20
160.33749999999
 30
0.0
 11
-347.662499999993
 21
184.1499999999916
 31
0.0
  0
LINE
  5
110
330
E7
100
AcDbEntity
  8
AM_0
100
AcDbLine
 10
-322.262499999994
 20
161.131249999991
 30
0.0
 11
-347.662499999993
 21
161.131249999991
 31
0.0
  0
ENDBLK
  5
EA
330
E7
100
AcDbEntity
  8
0
100
AcDbBlockEnd
  0
BLOCK
  5
113
330
111
100
AcDbEntity
  8
0
100
AcDbBlockBegin
  2
5_RXP24AVJU9_PART4_0_in_RXP24AVJU9_4
 70
     2
 10
0.0
 20
0.0
 30
0.0
  3
5_RXP24AVJU9_PART4_0_in_RXP24AVJU9_4
  1

  0
ATTDEF
  5
115
330
111
100
AcDbEntity
  8
AM_6
100
AcDbText
 10
282.812500000007
 20
184.149999999992
 30
0.0
 40
0.5
  1
RXP24AVJU9_PART4
100
AcDbAttributeDefinition
  3

  2
NB
 70
     8
280
     0
  0
ATTDEF
  5
116
330
111
100
AcDbEntity
  8
AM_6
100
AcDbText
 10
282.812500000007
 20
183.649999999992
 30
0.0
 40
0.5
  1

100
AcDbAttributeDefinition
  3

  2
NN
 70
     8
280
     0
  0
ATTDEF
  5
117
330
111
100
AcDbEntity
  8
AM_6
100
AcDbText
 10
282.812500000007
 20
183.149999999992
 30
0.0
 40
0.5
  1

100
AcDbAttributeDefinition
  3

  2
NT
 70
     8
280
     0
  0
ATTDEF
  5
118
330
111
100
AcDbEntity
  8
AM_6
100
AcDbText
 10
282.812500000007
 20
182.649999999992
 30
0.0
 40
0.5
  1
$PARTNUMBER._PART4
100
AcDbAttributeDefinition
  3

  2
NBSYN
 70
     8
280
     0
  0
ATTDEF
  5
119
330
111
100
AcDbEntity
  8
AM_6
100
AcDbText
 10
282.812500000007
 20
182.149999999992
 30
0.0
 40
0.5
  1
RXP24AVJU9_PART4
100
AcDbAttributeDefinition
  3

  2
LINA
 70
     8
280
     0
  0
ATTDEF
  5
11A
330
111
100
AcDbEntity
  8
AM_6
100
AcDbText
 10
282.812500000007
 20
181.649999999992
 30
0.0
 40
0.5
  1
Daikin
100
AcDbAttributeDefinition
  3

  2
CATALOG
 70
     8
280
     0
  0
ATTDEF
  5
11B
330
111
100
AcDbEntity
  8
AM_6
100
AcDbText
 10
282.812500000007
 20
181.149999999992
 30
0.0
 40
0.5
  1
RXP24AVJU9
100
AcDbAttributeDefinition
  3

  2
PARTNUMBER
 70
     8
280
     0
  0
ATTDEF
  5
11C
330
111
100
AcDbEntity
  8
AM_6
100
AcDbText
 10
282.812500000007
 20
180.649999999992
 30
0.0
 40
0.5
  1
Outdoor Split System Heat Pump
100
AcDbAttributeDefinition
  3

  2
DESCRIPTION
 70
     8
280
     0
  0
ATTDEF
  5
11D
330
111
100
AcDbEntity
  8
AM_6
100
AcDbText
 10
282.812500000007
 20
180.149999999992
 30
0.0
 40
0.5
  1
14.5000
100
AcDbAttributeDefinition
  3

  2
OVERALL_DEPTH
 70
     8
280
     0
  0
ATTDEF
  5
11E
330
111
100
AcDbEntity
  8
AM_6
100
AcDbText
 10
282.812500000007
 20
179.649999999992
 30
0.0
 40
0.5
  1
29.500
100
AcDbAttributeDefinition
  3

  2
OVERALL_HEIGHT
 70
     8
280
     0
  0
ATTDEF
  5
11F
330
111
100
AcDbEntity
  8
AM_6
100
AcDbText
 10
282.812500000007
 20
179.149999999992
 30
0.0
 40
0.5
  1
37.000
100
AcDbAttributeDefinition
  3

  2
OVERALL_WIDTH
 70
     8
280
     0
  0
ATTDEF
  5
120
330
111
100
AcDbEntity
  8
AM_6
100
AcDbText
 10
282.812500000007
 20
178.649999999992
 30
0.0
 40
0.5
  1
https://daikincomfort.com/
100
AcDbAttributeDefinition
  3

  2
URL
 70
     8
280
     0
  0
ATTDEF
  5
121
330
111
100
AcDbEntity
  8
AM_6
100
AcDbText
 10
282.812500000007
 20
178.149999999992
 30
0.0
 40
0.5
  1
Download Revit Family (RFA)
100
AcDbAttributeDefinition
  3

  2
RFA_FAMILY
 70
     8
280
     0
  0
ATTDEF
  5
122
330
111
100
AcDbEntity
  8
AM_6
100
AcDbText
 10
282.812500000007
 20
177.649999999992
 30
0.0
 40
0.5
  1
daikin
100
AcDbAttributeDefinition
  3

  2
COMPANY
 70
     8
280
     0
  0
ATTDEF
  5
123
330
111
100
AcDbEntity
  8
AM_6
100
AcDbText
 10
282.812500000007
 20
177.149999999992
 30
0.0
 40
0.5
  1
{$CADENAS_DATA/23d-libs/daikin/single20zone20systems/single20zone20heat20pump20outdoor20units/28r322920heat20pump20unit20aurora20single20zone20outdoor20daikin20rxp.prj},243 {VTYP=3D},{NB=RXP24AVJU9_PART4},{LINA=RXP24AVJU9_PART4},{NN=(R32) Heat Pump 
100
AcDbAttributeDefinition
  3

  2
PSOL_0
 70
     9
280
     0
  0
ATTDEF
  5
124
330
111
100
AcDbEntity
  8
AM_6
100
AcDbText
 10
282.812500000007
 20
176.649999999992
 30
0.0
 40
0.5
  1
urora Single Zone Outdoor Daikin RXP_PART4},{NOPRJ=TRUE},{DATE=06.03.2026 14:42:20},{GEOMDATE=06.03.2026 09:05:37},{VERSION=},{LINEID=40},{WBVAR=},{WBNUMERIC=}  {NB=RXP24AVJU9_PART4},{LINA=RXP24AVJU9_PART4},{KT=DUMMY},{PARTNUMBERHELP=2Ton_RXP24AVJU9
100
AcDbAttributeDefinition
  3

  2
PSOL_1
 70
     9
280
     0
  0
ATTDEF
  5
125
330
111
100
AcDbEntity
  8
AM_6
100
AcDbText
 10
282.812500000007
 20
176.149999999992
 30
0.0
 40
0.5
  1
TNUMBER=RXP24AVJU9},{DESCRIPTION=Outdoor Split System Heat Pump},{OVERALL_DEPTH=14.5000},{OVERALL_HEIGHT=29.500},{OVERALL_WIDTH=37.000},{URL=https://daikincomfort.com/},{RFA_FAMILY=Download Revit Family (RFA)},{APPARENT_POWER=5184},{ASSEMBLY_CODE=D3
100
AcDbAttributeDefinition
  3

  2
PSOL_2
 70
     9
280
     0
  0
ATTDEF
  5
126
330
111
100
AcDbEntity
  8
AM_6
100
AcDbText
 10
282.812500000007
 20
175.649999999992
 30
0.0
 40
0.5
  1
},{BACK_CLEARANCE=0.161458333333333},{BASE_PITCH=1.20833333333333},{BASE_PITCH_OFFSET=0.401041666666667},{BASE_PITCH_WIDTH=0.0833333333333333},{BASE_PITCH_WIDTH_APART=1.96875},{CATEGORY=Mechanical Equipment},{CLASSIFICATION_NUMBER=23.33.17.13.11},{C
100
AcDbAttributeDefinition
  3

  2
PSOL_3
 70
     9
280
     0
  0
ATTDEF
  5
127
330
111
100
AcDbEntity
  8
AM_6
100
AcDbText
 10
282.812500000007
 20
175.149999999992
 30
0.0
 40
0.5
  1
CE_VISIBILITY=1},{COMPRESSOR_TYPE=Hermetically Sealed Swing Type},{CONDENSATE_DRAIN_CONNECTION_DIAMETER=0.625},{CONDENSATE_DRAIN_CONNECTION_RADIUS=0.3125},{CONDENSATE_DRAIN_HORIZONTAL_OFFSET=1.72395833333333},{CONDENSATE_DRAIN_VERTICAL_OFFSET=0.9531
100
AcDbAttributeDefinition
  3

  2
PSOL_4
 70
     9
280
     0
  0
ATTDEF
  5
128
330
111
100
AcDbEntity
  8
AM_6
100
AcDbText
 10
282.812500000007
 20
174.649999999992
 30
0.0
 40
0.5
  1
OST=0},{DEFAULT_ELEVATION=0},{ENCLOSURE_DEPTH=1.05208333333333},{ENCLOSURE_HEIGHT=2.45833333333333},{ENCLOSURE_HEIGHT_OFFSET=0.0833333333333333},{ENCLOSURE_WIDTH=2.85416666666667},{FAN_TYPE=Propeller},{FAN_VENT_DEPTH=0.0989583333333333},{FREQUENCY=6
100
AcDbAttributeDefinition
  3

  2
PSOL_5
 70
     9
280
     0
  0
ATTDEF
  5
129
330
111
100
AcDbEntity
  8
AM_6
100
AcDbText
 10
282.812500000007
 20
174.149999999992
 30
0.0
 40
0.5
  1
ONT_CLEARANCE=0.328125},{FRONT_GRILL_WIDTH=2.2125},{LOAD_SUB_CLASSIFICATION_MOTOR=1},{MANUFACTURER=Daikin},{MASSUNIT=1},{MAXIMUM_OVERCURRENT_PROTECTION=25},{MINIMUM_CIRCUIT_AMPS=21.6},{NOMINAL_COOLING_CAPACITY=21800},{NOMINAL_COOLING_CAPACITY__TONS_
100
AcDbAttributeDefinition
  3

  2
PSOL_6
 70
     9
280
     0
  0
ATTDEF
  5
12A
330
111
100
AcDbEntity
  8
AM_6
100
AcDbText
 10
282.812500000007
 20
173.649999999992
 30
0.0
 40
0.5
  1
OMINAL_HEATING_CAPACITY=24000},{NUMBER_OF_POLES=2},{PARTTYPE=Normal},{PHASE=1},{PRODUCT_PAGE_URL=https://daikincomfort.com/products/heating-cooling/single-split-ductless/heat-pumps//daikin-aurora---fdma-ducted-concealed},{REFRIGERANT_CHARGE=3.04},{R
100
AcDbAttributeDefinition
  3

  2
PSOL_7
 70
     9
280
     0
  0
ATTDEF
  5
12B
330
111
100
AcDbEntity
  8
AM_6
100
AcDbText
 10
282.812500000007
 20
173.149999999992
 30
0.0
 40
0.5
  1
RANT_CONNECTION_DEPTH_OFFSET=0.520833333333333},{REFRIGERANT_LIQUID_CONNECTION_DIAMETER=0.25},{REFRIGERANT_LIQUID_CONNECTION_HORIZONTAL_OFFSET=0.0572916666666667},{REFRIGERANT_LIQUID_CONNECTION_RADIUS=0.125},{REFRIGERANT_LIQUID_CONNECTION_VERTICAL_O
100
AcDbAttributeDefinition
  3

  2
PSOL_8
 70
     9
280
     0
  0
ATTDEF
  5
12C
330
111
100
AcDbEntity
  8
AM_6
100
AcDbText
 10
282.812500000007
 20
172.649999999992
 30
0.0
 40
0.5
  1
0.588541666666667},{REFRIGERANT_SUCTION_GAS_CONNECTION_DIAMETER=0.625},{REFRIGERANT_SUCTION_GAS_CONNECTION_HORIONTAL_OFFSET=0.0677083333333333},{REFRIGERANT_SUCTION_GAS_CONNECTION_RADIUS=0.3125},{REFRIGERANT_SUCTION_GAS_CONNECTION_VERTICAL_OFFSET=0.
100
AcDbAttributeDefinition
  3

  2
PSOL_9
 70
     9
280
     0
  0
ATTDEF
  5
12D
330
111
100
AcDbEntity
  8
AM_6
100
AcDbText
 10
282.812500000007
 20
172.149999999992
 30
0.0
 40
0.5
  1
333333333},{REFRIGERANT_USED=R-32},{SERIES=RXP-A},{SIDE_CLEARANCE=0.161458333333333},{SOUND_PRESSURE_LEVEL___COOLING=55},{SOUND_PRESSURE_LEVEL___HEATING=57},{STOP_VALVE_COVER_DEPTH=0.526041666666667},{STOP_VALVE_COVER_HEIGHT=2.2125},{STOP_VALVE_COVE
100
AcDbAttributeDefinition
  3

  2
PSOL_10
 70
     9
280
     0
  0
ATTDEF
  5
12E
330
111
100
AcDbEntity
  8
AM_6
100
AcDbText
 10
282.812500000007
 20
171.649999999992
 30
0.0
 40
0.5
  1
BILITY=1},{STOP_VALVE_COVER_WIDTH=0.229166666666667},{SYSTEM_PERFORMANCE_COP2=3.0},{SYSTEM_PERFORMANCE_EER2=10.3},{SYSTEM_PERFORMANCE_HSPF2=9.2},{SYSTEM_PERFORMANCE_SEER2=18.3},{UNIT_WEIGHT=127},{VERSION=1},{VOLTAGE=240},{VOLTAGE_COMMENTS=208 VAC - 
100
AcDbAttributeDefinition
  3

  2
PSOL_11
 70
     9
280
     0
  0
ATTDEF
  5
12F
330
111
100
AcDbEntity
  8
AM_6
100
AcDbText
 10
282.812500000007
 20
171.149999999992
 30
0.0
 40
0.5
  1
C},{DEFAULTSORTATTR=1},{RFA_FAMILY_=../../_pool_/09/54/28r322920heat20pump20unit20aurora20single20zone20outdoor20daikin20rxp.zip},{RFA_FAMILY_ENG=../../_pool_/09/54/28r322920heat20pump20unit20aurora20single20zone20outdoor20daikin20rxp.zip},{REVIT_FA
100
AcDbAttributeDefinition
  3

  2
PSOL_12
 70
     9
280
     0
  0
ATTDEF
  5
130
330
111
100
AcDbEntity
  8
AM_6
100
AcDbText
 10
282.812500000007
 20
170.649999999992
 30
0.0
 40
0.5
  1
OWNLOAD=../../_pool_/09/54/28r322920heat20pump20unit20aurora20single20zone20outdoor20daikin20rxp.zip}
100
AcDbAttributeDefinition
  3

  2
PSOL_13
 70
     9
280
     0
  0
LINE
  5
131
330
111
100
AcDbEntity
  8
AM_9
100
AcDbLine
 10
252.412500000008
 20
-160.33750000001
 30
0.0
 11
252.412500000008
 21
160.33749999999
 31
0.0
  0
LINE
  5
132
330
111
100
AcDbEntity
  8
AM_9
100
AcDbLine
 10
277.812500000007
 20
160.33749999999
 30
0.0
 11
277.812500000007
 21
-160.33750000001
 31
0.0
  0
LINE
  5
133
330
111
100
AcDbEntity
  8
AM_9
100
AcDbLine
 10
277.812500000007
 20
150.117968749998
 30
0.0
 11
252.412500000008
 21
150.117968749998
 31
0.0
  0
LINE
  5
134
330
111
100
AcDbEntity
  8
AM_0
100
AcDbLine
 10
252.412500000008
 20
160.33749999999
 30
0.0
 11
252.412500000008
 21
184.1499999999918
 31
0.0
  0
LINE
  5
135
330
111
100
AcDbEntity
  8
AM_0
100
AcDbLine
 10
277.812500000007
 20
184.149999999992
 30
0.0
 11
277.812500000007
 21
160.33749999999
 31
0.0
  0
LINE
  5
136
330
111
100
AcDbEntity
  8
AM_0
100
AcDbLine
 10
252.412500000008
 20
184.149999999992
 30
0.0
 11
277.812500000007
 21
184.149999999992
 31
0.0
  0
LINE
  5
137
330
111
100
AcDbEntity
  8
AM_0
100
AcDbLine
 10
252.412500000008
 20
-184.150000000009
 30
0.0
 11
252.412500000008
 21
-160.33750000001
 31
0.0
  0
LINE
  5
138
330
111
100
AcDbEntity
  8
AM_0
100
AcDbLine
 10
277.812500000007
 20
-160.33750000001
 30
0.0
 11
277.812500000007
 21
-184.1500000000091
 31
0.0
  0
LINE
  5
139
330
111
100
AcDbEntity
  8
AM_0
100
AcDbLine
 10
277.812500000007
 20
-184.150000000009
 30
0.0
 11
252.412500000008
 21
-184.150000000009
 31
0.0
  0
LINE
  5
13A
330
111
100
AcDbEntity
  8
AM_0
100
AcDbLine
 10
277.812500000007
 20
-161.131250000008
 30
0.0
 11
252.412500000008
 21
-161.131250000008
 31
0.0
  0
ENDBLK
  5
114
330
111
100
AcDbEntity
  8
0
100
AcDbBlockEnd
  0
BLOCK
  5
13D
330
13B
100
AcDbEntity
  8
0
100
AcDbBlockBegin
  2
6_RXP24AVJU9_PART3_0_in_RXP24AVJU9_4
 70
     2
 10
0.0
 20
0.0
 30
0.0
  3
6_RXP24AVJU9_PART3_0_in_RXP24AVJU9_4
  1

  0
ATTDEF
  5
13F
330
13B
100
AcDbEntity
  8
AM_6
100
AcDbText
 10
433.625000000007
 20
-1.587500000005636
 30
0.0
 40
0.5
  1
RXP24AVJU9_PART3
100
AcDbAttributeDefinition
  3

  2
NB
 70
     8
280
     0
  0
ATTDEF
  5
140
330
13B
100
AcDbEntity
  8
AM_6
100
AcDbText
 10
433.625000000007
 20
-2.087500000005636
 30
0.0
 40
0.5
  1

100
AcDbAttributeDefinition
  3

  2
NN
 70
     8
280
     0
  0
ATTDEF
  5
141
330
13B
100
AcDbEntity
  8
AM_6
100
AcDbText
 10
433.625000000007
 20
-2.587500000005636
 30
0.0
 40
0.5
  1

100
AcDbAttributeDefinition
  3

  2
NT
 70
     8
280
     0
  0
ATTDEF
  5
142
330
13B
100
AcDbEntity
  8
AM_6
100
AcDbText
 10
433.625000000007
 20
-3.087500000005636
 30
0.0
 40
0.5
  1
$PARTNUMBER._PART3
100
AcDbAttributeDefinition
  3

  2
NBSYN
 70
     8
280
     0
  0
ATTDEF
  5
143
330
13B
100
AcDbEntity
  8
AM_6
100
AcDbText
 10
433.625000000007
 20
-3.587500000005636
 30
0.0
 40
0.5
  1
RXP24AVJU9_PART3
100
AcDbAttributeDefinition
  3

  2
LINA
 70
     8
280
     0
  0
ATTDEF
  5
144
330
13B
100
AcDbEntity
  8
AM_6
100
AcDbText
 10
433.625000000007
 20
-4.087500000005636
 30
0.0
 40
0.5
  1
Daikin
100
AcDbAttributeDefinition
  3

  2
CATALOG
 70
     8
280
     0
  0
ATTDEF
  5
145
330
13B
100
AcDbEntity
  8
AM_6
100
AcDbText
 10
433.625000000007
 20
-4.587500000005636
 30
0.0
 40
0.5
  1
RXP24AVJU9
100
AcDbAttributeDefinition
  3

  2
PARTNUMBER
 70
     8
280
     0
  0
ATTDEF
  5
146
330
13B
100
AcDbEntity
  8
AM_6
100
AcDbText
 10
433.625000000007
 20
-5.087500000005636
 30
0.0
 40
0.5
  1
Outdoor Split System Heat Pump
100
AcDbAttributeDefinition
  3

  2
DESCRIPTION
 70
     8
280
     0
  0
ATTDEF
  5
147
330
13B
100
AcDbEntity
  8
AM_6
100
AcDbText
 10
433.625000000007
 20
-5.587500000005636
 30
0.0
 40
0.5
  1
14.5000
100
AcDbAttributeDefinition
  3

  2
OVERALL_DEPTH
 70
     8
280
     0
  0
ATTDEF
  5
148
330
13B
100
AcDbEntity
  8
AM_6
100
AcDbText
 10
433.625000000007
 20
-6.087500000005636
 30
0.0
 40
0.5
  1
29.500
100
AcDbAttributeDefinition
  3

  2
OVERALL_HEIGHT
 70
     8
280
     0
  0
ATTDEF
  5
149
330
13B
100
AcDbEntity
  8
AM_6
100
AcDbText
 10
433.625000000007
 20
-6.587500000005636
 30
0.0
 40
0.5
  1
37.000
100
AcDbAttributeDefinition
  3

  2
OVERALL_WIDTH
 70
     8
280
     0
  0
ATTDEF
  5
14A
330
13B
100
AcDbEntity
  8
AM_6
100
AcDbText
 10
433.625000000007
 20
-7.087500000005636
 30
0.0
 40
0.5
  1
https://daikincomfort.com/
100
AcDbAttributeDefinition
  3

  2
URL
 70
     8
280
     0
  0
ATTDEF
  5
14B
330
13B
100
AcDbEntity
  8
AM_6
100
AcDbText
 10
433.625000000007
 20
-7.587500000005636
 30
0.0
 40
0.5
  1
Download Revit Family (RFA)
100
AcDbAttributeDefinition
  3

  2
RFA_FAMILY
 70
     8
280
     0
  0
ATTDEF
  5
14C
330
13B
100
AcDbEntity
  8
AM_6
100
AcDbText
 10
433.625000000007
 20
-8.087500000005637
 30
0.0
 40
0.5
  1
daikin
100
AcDbAttributeDefinition
  3

  2
COMPANY
 70
     8
280
     0
  0
ATTDEF
  5
14D
330
13B
100
AcDbEntity
  8
AM_6
100
AcDbText
 10
433.625000000007
 20
-8.587500000005637
 30
0.0
 40
0.5
  1
{$CADENAS_DATA/23d-libs/daikin/single20zone20systems/single20zone20heat20pump20outdoor20units/28r322920heat20pump20unit20aurora20single20zone20outdoor20daikin20rxp.prj},243 {VTYP=3D},{NB=RXP24AVJU9_PART3},{LINA=RXP24AVJU9_PART3},{NN=(R32) Heat Pump 
100
AcDbAttributeDefinition
  3

  2
PSOL_0
 70
     9
280
     0
  0
ATTDEF
  5
14E
330
13B
100
AcDbEntity
  8
AM_6
100
AcDbText
 10
433.625000000007
 20
-9.087500000005637
 30
0.0
 40
0.5
  1
urora Single Zone Outdoor Daikin RXP_PART3},{NOPRJ=TRUE},{DATE=06.03.2026 14:42:20},{GEOMDATE=06.03.2026 09:05:37},{VERSION=},{LINEID=40},{WBVAR=},{WBNUMERIC=}  {NB=RXP24AVJU9_PART3},{LINA=RXP24AVJU9_PART3},{KT=DUMMY},{PARTNUMBERHELP=2Ton_RXP24AVJU9
100
AcDbAttributeDefinition
  3

  2
PSOL_1
 70
     9
280
     0
  0
ATTDEF
  5
14F
330
13B
100
AcDbEntity
  8
AM_6
100
AcDbText
 10
433.625000000007
 20
-9.587500000005637
 30
0.0
 40
0.5
  1
TNUMBER=RXP24AVJU9},{DESCRIPTION=Outdoor Split System Heat Pump},{OVERALL_DEPTH=14.5000},{OVERALL_HEIGHT=29.500},{OVERALL_WIDTH=37.000},{URL=https://daikincomfort.com/},{RFA_FAMILY=Download Revit Family (RFA)},{APPARENT_POWER=5184},{ASSEMBLY_CODE=D3
100
AcDbAttributeDefinition
  3

  2
PSOL_2
 70
     9
280
     0
  0
ATTDEF
  5
150
330
13B
100
AcDbEntity
  8
AM_6
100
AcDbText
 10
433.625000000007
 20
-10.08750000000564
 30
0.0
 40
0.5
  1
},{BACK_CLEARANCE=0.161458333333333},{BASE_PITCH=1.20833333333333},{BASE_PITCH_OFFSET=0.401041666666667},{BASE_PITCH_WIDTH=0.0833333333333333},{BASE_PITCH_WIDTH_APART=1.96875},{CATEGORY=Mechanical Equipment},{CLASSIFICATION_NUMBER=23.33.17.13.11},{C
100
AcDbAttributeDefinition
  3

  2
PSOL_3
 70
     9
280
     0
  0
ATTDEF
  5
151
330
13B
100
AcDbEntity
  8
AM_6
100
AcDbText
 10
433.625000000007
 20
-10.58750000000564
 30
0.0
 40
0.5
  1
CE_VISIBILITY=1},{COMPRESSOR_TYPE=Hermetically Sealed Swing Type},{CONDENSATE_DRAIN_CONNECTION_DIAMETER=0.625},{CONDENSATE_DRAIN_CONNECTION_RADIUS=0.3125},{CONDENSATE_DRAIN_HORIZONTAL_OFFSET=1.72395833333333},{CONDENSATE_DRAIN_VERTICAL_OFFSET=0.9531
100
AcDbAttributeDefinition
  3

  2
PSOL_4
 70
     9
280
     0
  0
ATTDEF
  5
152
330
13B
100
AcDbEntity
  8
AM_6
100
AcDbText
 10
433.625000000007
 20
-11.08750000000564
 30
0.0
 40
0.5
  1
OST=0},{DEFAULT_ELEVATION=0},{ENCLOSURE_DEPTH=1.05208333333333},{ENCLOSURE_HEIGHT=2.45833333333333},{ENCLOSURE_HEIGHT_OFFSET=0.0833333333333333},{ENCLOSURE_WIDTH=2.85416666666667},{FAN_TYPE=Propeller},{FAN_VENT_DEPTH=0.0989583333333333},{FREQUENCY=6
100
AcDbAttributeDefinition
  3

  2
PSOL_5
 70
     9
280
     0
  0
ATTDEF
  5
153
330
13B
100
AcDbEntity
  8
AM_6
100
AcDbText
 10
433.625000000007
 20
-11.58750000000564
 30
0.0
 40
0.5
  1
ONT_CLEARANCE=0.328125},{FRONT_GRILL_WIDTH=2.2125},{LOAD_SUB_CLASSIFICATION_MOTOR=1},{MANUFACTURER=Daikin},{MASSUNIT=1},{MAXIMUM_OVERCURRENT_PROTECTION=25},{MINIMUM_CIRCUIT_AMPS=21.6},{NOMINAL_COOLING_CAPACITY=21800},{NOMINAL_COOLING_CAPACITY__TONS_
100
AcDbAttributeDefinition
  3

  2
PSOL_6
 70
     9
280
     0
  0
ATTDEF
  5
154
330
13B
100
AcDbEntity
  8
AM_6
100
AcDbText
 10
433.625000000007
 20
-12.08750000000564
 30
0.0
 40
0.5
  1
OMINAL_HEATING_CAPACITY=24000},{NUMBER_OF_POLES=2},{PARTTYPE=Normal},{PHASE=1},{PRODUCT_PAGE_URL=https://daikincomfort.com/products/heating-cooling/single-split-ductless/heat-pumps//daikin-aurora---fdma-ducted-concealed},{REFRIGERANT_CHARGE=3.04},{R
100
AcDbAttributeDefinition
  3

  2
PSOL_7
 70
     9
280
     0
  0
ATTDEF
  5
155
330
13B
100
AcDbEntity
  8
AM_6
100
AcDbText
 10
433.625000000007
 20
-12.58750000000564
 30
0.0
 40
0.5
  1
RANT_CONNECTION_DEPTH_OFFSET=0.520833333333333},{REFRIGERANT_LIQUID_CONNECTION_DIAMETER=0.25},{REFRIGERANT_LIQUID_CONNECTION_HORIZONTAL_OFFSET=0.0572916666666667},{REFRIGERANT_LIQUID_CONNECTION_RADIUS=0.125},{REFRIGERANT_LIQUID_CONNECTION_VERTICAL_O
100
AcDbAttributeDefinition
  3

  2
PSOL_8
 70
     9
280
     0
  0
ATTDEF
  5
156
330
13B
100
AcDbEntity
  8
AM_6
100
AcDbText
 10
433.625000000007
 20
-13.08750000000564
 30
0.0
 40
0.5
  1
0.588541666666667},{REFRIGERANT_SUCTION_GAS_CONNECTION_DIAMETER=0.625},{REFRIGERANT_SUCTION_GAS_CONNECTION_HORIONTAL_OFFSET=0.0677083333333333},{REFRIGERANT_SUCTION_GAS_CONNECTION_RADIUS=0.3125},{REFRIGERANT_SUCTION_GAS_CONNECTION_VERTICAL_OFFSET=0.
100
AcDbAttributeDefinition
  3

  2
PSOL_9
 70
     9
280
     0
  0
ATTDEF
  5
157
330
13B
100
AcDbEntity
  8
AM_6
100
AcDbText
 10
433.625000000007
 20
-13.58750000000564
 30
0.0
 40
0.5
  1
333333333},{REFRIGERANT_USED=R-32},{SERIES=RXP-A},{SIDE_CLEARANCE=0.161458333333333},{SOUND_PRESSURE_LEVEL___COOLING=55},{SOUND_PRESSURE_LEVEL___HEATING=57},{STOP_VALVE_COVER_DEPTH=0.526041666666667},{STOP_VALVE_COVER_HEIGHT=2.2125},{STOP_VALVE_COVE
100
AcDbAttributeDefinition
  3

  2
PSOL_10
 70
     9
280
     0
  0
ATTDEF
  5
158
330
13B
100
AcDbEntity
  8
AM_6
100
AcDbText
 10
433.625000000007
 20
-14.08750000000564
 30
0.0
 40
0.5
  1
BILITY=1},{STOP_VALVE_COVER_WIDTH=0.229166666666667},{SYSTEM_PERFORMANCE_COP2=3.0},{SYSTEM_PERFORMANCE_EER2=10.3},{SYSTEM_PERFORMANCE_HSPF2=9.2},{SYSTEM_PERFORMANCE_SEER2=18.3},{UNIT_WEIGHT=127},{VERSION=1},{VOLTAGE=240},{VOLTAGE_COMMENTS=208 VAC - 
100
AcDbAttributeDefinition
  3

  2
PSOL_11
 70
     9
280
     0
  0
ATTDEF
  5
159
330
13B
100
AcDbEntity
  8
AM_6
100
AcDbText
 10
433.625000000007
 20
-14.58750000000564
 30
0.0
 40
0.5
  1
C},{DEFAULTSORTATTR=1},{RFA_FAMILY_=../../_pool_/09/54/28r322920heat20pump20unit20aurora20single20zone20outdoor20daikin20rxp.zip},{RFA_FAMILY_ENG=../../_pool_/09/54/28r322920heat20pump20unit20aurora20single20zone20outdoor20daikin20rxp.zip},{REVIT_FA
100
AcDbAttributeDefinition
  3

  2
PSOL_12
 70
     9
280
     0
  0
ATTDEF
  5
15A
330
13B
100
AcDbEntity
  8
AM_6
100
AcDbText
 10
433.625000000007
 20
-15.08750000000564
 30
0.0
 40
0.5
  1
OWNLOAD=../../_pool_/09/54/28r322920heat20pump20unit20aurora20single20zone20outdoor20daikin20rxp.zip}
100
AcDbAttributeDefinition
  3

  2
PSOL_13
 70
     9
280
     0
  0
LINE
  5
15B
330
13B
100
AcDbEntity
  8
AM_9
100
AcDbLine
 10
420.687500000023
 20
-1.58750000000565
 30
0.0
 11
428.625000000007
 21
-1.587500000005636
 31
0.0
  0
LINE
  5
15C
330
13B
100
AcDbEntity
  8
AM_9
100
AcDbLine
 10
412.750000000007
 20
-1.587500000005664
 30
0.0
 11
414.337500000023
 21
-1.587500000005661
 31
0.0
  0
LINE
  5
15D
330
13B
100
AcDbEntity
  8
AM_9
100
AcDbLine
 10
428.625000000007
 20
-14.28750000000841
 30
0.0
 11
428.625000000007
 21
-1.587500000005664
 31
0.0
  0
LINE
  5
15E
330
13B
100
AcDbEntity
  8
AM_9
100
AcDbLine
 10
412.750000000007
 20
-1.587500000005664
 30
0.0
 11
412.750000000007
 21
-14.28750000000841
 31
0.0
  0
LINE
  5
15F
330
13B
100
AcDbEntity
  8
AM_9
100
AcDbLine
 10
414.337500000023
 20
-14.28750000000841
 30
0.0
 11
412.750000000007
 21
-14.28750000000841
 31
0.0
  0
LINE
  5
160
330
13B
100
AcDbEntity
  8
AM_9
100
AcDbLine
 10
428.625000000007
 20
-14.28750000000839
 30
0.0
 11
420.687500000023
 21
-14.2875000000084
 31
0.0
  0
ENDBLK
  5
13E
330
13B
100
AcDbEntity
  8
0
100
AcDbBlockEnd
  0
BLOCK
  5
163
330
161
100
AcDbEntity
  8
0
100
AcDbBlockBegin
  2
7_RXP24AVJU9_PART2_0_in_RXP24AVJU9_4
 70
     2
 10
0.0
 20
0.0
 30
0.0
  3
7_RXP24AVJU9_PART2_0_in_RXP24AVJU9_4
  1

  0
ATTDEF
  5
165
330
161
100
AcDbEntity
  8
AM_6
100
AcDbText
 10
425.687500000023
 20
-1.587500000005654
 30
0.0
 40
0.5
  1
RXP24AVJU9_PART2
100
AcDbAttributeDefinition
  3

  2
NB
 70
     8
280
     0
  0
ATTDEF
  5
166
330
161
100
AcDbEntity
  8
AM_6
100
AcDbText
 10
425.687500000023
 20
-2.087500000005654
 30
0.0
 40
0.5
  1

100
AcDbAttributeDefinition
  3

  2
NN
 70
     8
280
     0
  0
ATTDEF
  5
167
330
161
100
AcDbEntity
  8
AM_6
100
AcDbText
 10
425.687500000023
 20
-2.587500000005654
 30
0.0
 40
0.5
  1

100
AcDbAttributeDefinition
  3

  2
NT
 70
     8
280
     0
  0
ATTDEF
  5
168
330
161
100
AcDbEntity
  8
AM_6
100
AcDbText
 10
425.687500000023
 20
-3.087500000005654
 30
0.0
 40
0.5
  1
$PARTNUMBER._PART2
100
AcDbAttributeDefinition
  3

  2
NBSYN
 70
     8
280
     0
  0
ATTDEF
  5
169
330
161
100
AcDbEntity
  8
AM_6
100
AcDbText
 10
425.687500000023
 20
-3.587500000005654
 30
0.0
 40
0.5
  1
RXP24AVJU9_PART2
100
AcDbAttributeDefinition
  3

  2
LINA
 70
     8
280
     0
  0
ATTDEF
  5
16A
330
161
100
AcDbEntity
  8
AM_6
100
AcDbText
 10
425.687500000023
 20
-4.087500000005654
 30
0.0
 40
0.5
  1
Daikin
100
AcDbAttributeDefinition
  3

  2
CATALOG
 70
     8
280
     0
  0
ATTDEF
  5
16B
330
161
100
AcDbEntity
  8
AM_6
100
AcDbText
 10
425.687500000023
 20
-4.587500000005654
 30
0.0
 40
0.5
  1
RXP24AVJU9
100
AcDbAttributeDefinition
  3

  2
PARTNUMBER
 70
     8
280
     0
  0
ATTDEF
  5
16C
330
161
100
AcDbEntity
  8
AM_6
100
AcDbText
 10
425.687500000023
 20
-5.087500000005654
 30
0.0
 40
0.5
  1
Outdoor Split System Heat Pump
100
AcDbAttributeDefinition
  3

  2
DESCRIPTION
 70
     8
280
     0
  0
ATTDEF
  5
16D
330
161
100
AcDbEntity
  8
AM_6
100
AcDbText
 10
425.687500000023
 20
-5.587500000005654
 30
0.0
 40
0.5
  1
14.5000
100
AcDbAttributeDefinition
  3

  2
OVERALL_DEPTH
 70
     8
280
     0
  0
ATTDEF
  5
16E
330
161
100
AcDbEntity
  8
AM_6
100
AcDbText
 10
425.687500000023
 20
-6.087500000005654
 30
0.0
 40
0.5
  1
29.500
100
AcDbAttributeDefinition
  3

  2
OVERALL_HEIGHT
 70
     8
280
     0
  0
ATTDEF
  5
16F
330
161
100
AcDbEntity
  8
AM_6
100
AcDbText
 10
425.687500000023
 20
-6.587500000005654
 30
0.0
 40
0.5
  1
37.000
100
AcDbAttributeDefinition
  3

  2
OVERALL_WIDTH
 70
     8
280
     0
  0
ATTDEF
  5
170
330
161
100
AcDbEntity
  8
AM_6
100
AcDbText
 10
425.687500000023
 20
-7.087500000005654
 30
0.0
 40
0.5
  1
https://daikincomfort.com/
100
AcDbAttributeDefinition
  3

  2
URL
 70
     8
280
     0
  0
ATTDEF
  5
171
330
161
100
AcDbEntity
  8
AM_6
100
AcDbText
 10
425.687500000023
 20
-7.587500000005654
 30
0.0
 40
0.5
  1
Download Revit Family (RFA)
100
AcDbAttributeDefinition
  3

  2
RFA_FAMILY
 70
     8
280
     0
  0
ATTDEF
  5
172
330
161
100
AcDbEntity
  8
AM_6
100
AcDbText
 10
425.687500000023
 20
-8.087500000005654
 30
0.0
 40
0.5
  1
daikin
100
AcDbAttributeDefinition
  3

  2
COMPANY
 70
     8
280
     0
  0
ATTDEF
  5
173
330
161
100
AcDbEntity
  8
AM_6
100
AcDbText
 10
425.687500000023
 20
-8.587500000005654
 30
0.0
 40
0.5
  1
{$CADENAS_DATA/23d-libs/daikin/single20zone20systems/single20zone20heat20pump20outdoor20units/28r322920heat20pump20unit20aurora20single20zone20outdoor20daikin20rxp.prj},243 {VTYP=3D},{NB=RXP24AVJU9_PART2},{LINA=RXP24AVJU9_PART2},{NN=(R32) Heat Pump 
100
AcDbAttributeDefinition
  3

  2
PSOL_0
 70
     9
280
     0
  0
ATTDEF
  5
174
330
161
100
AcDbEntity
  8
AM_6
100
AcDbText
 10
425.687500000023
 20
-9.087500000005654
 30
0.0
 40
0.5
  1
urora Single Zone Outdoor Daikin RXP_PART2},{NOPRJ=TRUE},{DATE=06.03.2026 14:42:20},{GEOMDATE=06.03.2026 09:05:37},{VERSION=},{LINEID=40},{WBVAR=},{WBNUMERIC=}  {NB=RXP24AVJU9_PART2},{LINA=RXP24AVJU9_PART2},{KT=DUMMY},{PARTNUMBERHELP=2Ton_RXP24AVJU9
100
AcDbAttributeDefinition
  3

  2
PSOL_1
 70
     9
280
     0
  0
ATTDEF
  5
175
330
161
100
AcDbEntity
  8
AM_6
100
AcDbText
 10
425.687500000023
 20
-9.587500000005654
 30
0.0
 40
0.5
  1
TNUMBER=RXP24AVJU9},{DESCRIPTION=Outdoor Split System Heat Pump},{OVERALL_DEPTH=14.5000},{OVERALL_HEIGHT=29.500},{OVERALL_WIDTH=37.000},{URL=https://daikincomfort.com/},{RFA_FAMILY=Download Revit Family (RFA)},{APPARENT_POWER=5184},{ASSEMBLY_CODE=D3
100
AcDbAttributeDefinition
  3

  2
PSOL_2
 70
     9
280
     0
  0
ATTDEF
  5
176
330
161
100
AcDbEntity
  8
AM_6
100
AcDbText
 10
425.687500000023
 20
-10.08750000000565
 30
0.0
 40
0.5
  1
},{BACK_CLEARANCE=0.161458333333333},{BASE_PITCH=1.20833333333333},{BASE_PITCH_OFFSET=0.401041666666667},{BASE_PITCH_WIDTH=0.0833333333333333},{BASE_PITCH_WIDTH_APART=1.96875},{CATEGORY=Mechanical Equipment},{CLASSIFICATION_NUMBER=23.33.17.13.11},{C
100
AcDbAttributeDefinition
  3

  2
PSOL_3
 70
     9
280
     0
  0
ATTDEF
  5
177
330
161
100
AcDbEntity
  8
AM_6
100
AcDbText
 10
425.687500000023
 20
-10.58750000000565
 30
0.0
 40
0.5
  1
CE_VISIBILITY=1},{COMPRESSOR_TYPE=Hermetically Sealed Swing Type},{CONDENSATE_DRAIN_CONNECTION_DIAMETER=0.625},{CONDENSATE_DRAIN_CONNECTION_RADIUS=0.3125},{CONDENSATE_DRAIN_HORIZONTAL_OFFSET=1.72395833333333},{CONDENSATE_DRAIN_VERTICAL_OFFSET=0.9531
100
AcDbAttributeDefinition
  3

  2
PSOL_4
 70
     9
280
     0
  0
ATTDEF
  5
178
330
161
100
AcDbEntity
  8
AM_6
100
AcDbText
 10
425.687500000023
 20
-11.08750000000565
 30
0.0
 40
0.5
  1
OST=0},{DEFAULT_ELEVATION=0},{ENCLOSURE_DEPTH=1.05208333333333},{ENCLOSURE_HEIGHT=2.45833333333333},{ENCLOSURE_HEIGHT_OFFSET=0.0833333333333333},{ENCLOSURE_WIDTH=2.85416666666667},{FAN_TYPE=Propeller},{FAN_VENT_DEPTH=0.0989583333333333},{FREQUENCY=6
100
AcDbAttributeDefinition
  3

  2
PSOL_5
 70
     9
280
     0
  0
ATTDEF
  5
179
330
161
100
AcDbEntity
  8
AM_6
100
AcDbText
 10
425.687500000023
 20
-11.58750000000565
 30
0.0
 40
0.5
  1
ONT_CLEARANCE=0.328125},{FRONT_GRILL_WIDTH=2.2125},{LOAD_SUB_CLASSIFICATION_MOTOR=1},{MANUFACTURER=Daikin},{MASSUNIT=1},{MAXIMUM_OVERCURRENT_PROTECTION=25},{MINIMUM_CIRCUIT_AMPS=21.6},{NOMINAL_COOLING_CAPACITY=21800},{NOMINAL_COOLING_CAPACITY__TONS_
100
AcDbAttributeDefinition
  3

  2
PSOL_6
 70
     9
280
     0
  0
ATTDEF
  5
17A
330
161
100
AcDbEntity
  8
AM_6
100
AcDbText
 10
425.687500000023
 20
-12.08750000000565
 30
0.0
 40
0.5
  1
OMINAL_HEATING_CAPACITY=24000},{NUMBER_OF_POLES=2},{PARTTYPE=Normal},{PHASE=1},{PRODUCT_PAGE_URL=https://daikincomfort.com/products/heating-cooling/single-split-ductless/heat-pumps//daikin-aurora---fdma-ducted-concealed},{REFRIGERANT_CHARGE=3.04},{R
100
AcDbAttributeDefinition
  3

  2
PSOL_7
 70
     9
280
     0
  0
ATTDEF
  5
17B
330
161
100
AcDbEntity
  8
AM_6
100
AcDbText
 10
425.687500000023
 20
-12.58750000000565
 30
0.0
 40
0.5
  1
RANT_CONNECTION_DEPTH_OFFSET=0.520833333333333},{REFRIGERANT_LIQUID_CONNECTION_DIAMETER=0.25},{REFRIGERANT_LIQUID_CONNECTION_HORIZONTAL_OFFSET=0.0572916666666667},{REFRIGERANT_LIQUID_CONNECTION_RADIUS=0.125},{REFRIGERANT_LIQUID_CONNECTION_VERTICAL_O
100
AcDbAttributeDefinition
  3

  2
PSOL_8
 70
     9
280
     0
  0
ATTDEF
  5
17C
330
161
100
AcDbEntity
  8
AM_6
100
AcDbText
 10
425.687500000023
 20
-13.08750000000565
 30
0.0
 40
0.5
  1
0.588541666666667},{REFRIGERANT_SUCTION_GAS_CONNECTION_DIAMETER=0.625},{REFRIGERANT_SUCTION_GAS_CONNECTION_HORIONTAL_OFFSET=0.0677083333333333},{REFRIGERANT_SUCTION_GAS_CONNECTION_RADIUS=0.3125},{REFRIGERANT_SUCTION_GAS_CONNECTION_VERTICAL_OFFSET=0.
100
AcDbAttributeDefinition
  3

  2
PSOL_9
 70
     9
280
     0
  0
ATTDEF
  5
17D
330
161
100
AcDbEntity
  8
AM_6
100
AcDbText
 10
425.687500000023
 20
-13.58750000000565
 30
0.0
 40
0.5
  1
333333333},{REFRIGERANT_USED=R-32},{SERIES=RXP-A},{SIDE_CLEARANCE=0.161458333333333},{SOUND_PRESSURE_LEVEL___COOLING=55},{SOUND_PRESSURE_LEVEL___HEATING=57},{STOP_VALVE_COVER_DEPTH=0.526041666666667},{STOP_VALVE_COVER_HEIGHT=2.2125},{STOP_VALVE_COVE
100
AcDbAttributeDefinition
  3

  2
PSOL_10
 70
     9
280
     0
  0
ATTDEF
  5
17E
330
161
100
AcDbEntity
  8
AM_6
100
AcDbText
 10
425.687500000023
 20
-14.08750000000565
 30
0.0
 40
0.5
  1
BILITY=1},{STOP_VALVE_COVER_WIDTH=0.229166666666667},{SYSTEM_PERFORMANCE_COP2=3.0},{SYSTEM_PERFORMANCE_EER2=10.3},{SYSTEM_PERFORMANCE_HSPF2=9.2},{SYSTEM_PERFORMANCE_SEER2=18.3},{UNIT_WEIGHT=127},{VERSION=1},{VOLTAGE=240},{VOLTAGE_COMMENTS=208 VAC - 
100
AcDbAttributeDefinition
  3

  2
PSOL_11
 70
     9
280
     0
  0
ATTDEF
  5
17F
330
161
100
AcDbEntity
  8
AM_6
100
AcDbText
 10
425.687500000023
 20
-14.58750000000565
 30
0.0
 40
0.5
  1
C},{DEFAULTSORTATTR=1},{RFA_FAMILY_=../../_pool_/09/54/28r322920heat20pump20unit20aurora20single20zone20outdoor20daikin20rxp.zip},{RFA_FAMILY_ENG=../../_pool_/09/54/28r322920heat20pump20unit20aurora20single20zone20outdoor20daikin20rxp.zip},{REVIT_FA
100
AcDbAttributeDefinition
  3

  2
PSOL_12
 70
     9
280
     0
  0
ATTDEF
  5
180
330
161
100
AcDbEntity
  8
AM_6
100
AcDbText
 10
425.687500000023
 20
-15.08750000000565
 30
0.0
 40
0.5
  1
OWNLOAD=../../_pool_/09/54/28r322920heat20pump20unit20aurora20single20zone20outdoor20daikin20rxp.zip}
100
AcDbAttributeDefinition
  3

  2
PSOL_13
 70
     9
280
     0
  0
LINE
  5
181
330
161
100
AcDbEntity
  8
AM_9
100
AcDbLine
 10
414.337500000023
 20
-1.587500000005666
 30
0.0
 11
420.687500000023
 21
-1.587500000005654
 31
0.0
  0
LINE
  5
182
330
161
100
AcDbEntity
  8
AM_9
100
AcDbLine
 10
420.687500000023
 20
-14.28750000000841
 30
0.0
 11
420.687500000023
 21
-1.587500000005666
 31
0.0
  0
LINE
  5
183
330
161
100
AcDbEntity
  8
AM_9
100
AcDbLine
 10
414.337500000023
 20
-1.587500000005666
 30
0.0
 11
414.337500000023
 21
-14.28750000000841
 31
0.0
  0
LINE
  5
184
330
161
100
AcDbEntity
  8
AM_9
100
AcDbLine
 10
420.687500000023
 20
-14.28750000000839
 30
0.0
 11
414.337500000023
 21
-14.28750000000841
 31
0.0
  0
ENDBLK
  5
164
330
161
100
AcDbEntity
  8
0
100
AcDbBlockEnd
  0
BLOCK
  5
187
330
185
100
AcDbEntity
  8
0
100
AcDbBlockBegin
  2
8_RXP24AVJU9_PART1_0_in_RXP24AVJU9_4
 70
     2
 10
0.0
 20
0.0
 30
0.0
  3
8_RXP24AVJU9_PART1_0_in_RXP24AVJU9_4
  1

  0
ATTDEF
  5
189
330
185
100
AcDbEntity
  8
AM_6
100
AcDbText
 10
-42.2281249999905
 20
-121.84062500001
 30
0.0
 40
0.5
  1
RXP24AVJU9_PART1
100
AcDbAttributeDefinition
  3

  2
NB
 70
     8
280
     0
  0
ATTDEF
  5
18A
330
185
100
AcDbEntity
  8
AM_6
100
AcDbText
 10
-42.2281249999905
 20
-122.34062500001
 30
0.0
 40
0.5
  1

100
AcDbAttributeDefinition
  3

  2
NN
 70
     8
280
     0
  0
ATTDEF
  5
18B
330
185
100
AcDbEntity
  8
AM_6
100
AcDbText
 10
-42.2281249999905
 20
-122.84062500001
 30
0.0
 40
0.5
  1

100
AcDbAttributeDefinition
  3

  2
NT
 70
     8
280
     0
  0
ATTDEF
  5
18C
330
185
100
AcDbEntity
  8
AM_6
100
AcDbText
 10
-42.2281249999905
 20
-123.34062500001
 30
0.0
 40
0.5
  1
$PARTNUMBER._PART1
100
AcDbAttributeDefinition
  3

  2
NBSYN
 70
     8
280
     0
  0
ATTDEF
  5
18D
330
185
100
AcDbEntity
  8
AM_6
100
AcDbText
 10
-42.2281249999905
 20
-123.84062500001
 30
0.0
 40
0.5
  1
RXP24AVJU9_PART1
100
AcDbAttributeDefinition
  3

  2
LINA
 70
     8
280
     0
  0
ATTDEF
  5
18E
330
185
100
AcDbEntity
  8
AM_6
100
AcDbText
 10
-42.2281249999905
 20
-124.34062500001
 30
0.0
 40
0.5
  1
Daikin
100
AcDbAttributeDefinition
  3

  2
CATALOG
 70
     8
280
     0
  0
ATTDEF
  5
18F
330
185
100
AcDbEntity
  8
AM_6
100
AcDbText
 10
-42.2281249999905
 20
-124.84062500001
 30
0.0
 40
0.5
  1
RXP24AVJU9
100
AcDbAttributeDefinition
  3

  2
PARTNUMBER
 70
     8
280
     0
  0
ATTDEF
  5
190
330
185
100
AcDbEntity
  8
AM_6
100
AcDbText
 10
-42.2281249999905
 20
-125.34062500001
 30
0.0
 40
0.5
  1
Outdoor Split System Heat Pump
100
AcDbAttributeDefinition
  3

  2
DESCRIPTION
 70
     8
280
     0
  0
ATTDEF
  5
191
330
185
100
AcDbEntity
  8
AM_6
100
AcDbText
 10
-42.2281249999905
 20
-125.84062500001
 30
0.0
 40
0.5
  1
14.5000
100
AcDbAttributeDefinition
  3

  2
OVERALL_DEPTH
 70
     8
280
     0
  0
ATTDEF
  5
192
330
185
100
AcDbEntity
  8
AM_6
100
AcDbText
 10
-42.2281249999905
 20
-126.34062500001
 30
0.0
 40
0.5
  1
29.500
100
AcDbAttributeDefinition
  3

  2
OVERALL_HEIGHT
 70
     8
280
     0
  0
ATTDEF
  5
193
330
185
100
AcDbEntity
  8
AM_6
100
AcDbText
 10
-42.2281249999905
 20
-126.84062500001
 30
0.0
 40
0.5
  1
37.000
100
AcDbAttributeDefinition
  3

  2
OVERALL_WIDTH
 70
     8
280
     0
  0
ATTDEF
  5
194
330
185
100
AcDbEntity
  8
AM_6
100
AcDbText
 10
-42.2281249999905
 20
-127.34062500001
 30
0.0
 40
0.5
  1
https://daikincomfort.com/
100
AcDbAttributeDefinition
  3

  2
URL
 70
     8
280
     0
  0
ATTDEF
  5
195
330
185
100
AcDbEntity
  8
AM_6
100
AcDbText
 10
-42.2281249999905
 20
-127.84062500001
 30
0.0
 40
0.5
  1
Download Revit Family (RFA)
100
AcDbAttributeDefinition
  3

  2
RFA_FAMILY
 70
     8
280
     0
  0
ATTDEF
  5
196
330
185
100
AcDbEntity
  8
AM_6
100
AcDbText
 10
-42.2281249999905
 20
-128.34062500001
 30
0.0
 40
0.5
  1
daikin
100
AcDbAttributeDefinition
  3

  2
COMPANY
 70
     8
280
     0
  0
ATTDEF
  5
197
330
185
100
AcDbEntity
  8
AM_6
100
AcDbText
 10
-42.2281249999905
 20
-128.84062500001
 30
0.0
 40
0.5
  1
{$CADENAS_DATA/23d-libs/daikin/single20zone20systems/single20zone20heat20pump20outdoor20units/28r322920heat20pump20unit20aurora20single20zone20outdoor20daikin20rxp.prj},243 {VTYP=3D},{NB=RXP24AVJU9_PART1},{LINA=RXP24AVJU9_PART1},{NN=(R32) Heat Pump 
100
AcDbAttributeDefinition
  3

  2
PSOL_0
 70
     9
280
     0
  0
ATTDEF
  5
198
330
185
100
AcDbEntity
  8
AM_6
100
AcDbText
 10
-42.2281249999905
 20
-129.34062500001
 30
0.0
 40
0.5
  1
urora Single Zone Outdoor Daikin RXP_PART1},{NOPRJ=TRUE},{DATE=06.03.2026 14:42:20},{GEOMDATE=06.03.2026 09:05:37},{VERSION=},{LINEID=40},{WBVAR=},{WBNUMERIC=}  {NB=RXP24AVJU9_PART1},{LINA=RXP24AVJU9_PART1},{KT=DUMMY},{PARTNUMBERHELP=2Ton_RXP24AVJU9
100
AcDbAttributeDefinition
  3

  2
PSOL_1
 70
     9
280
     0
  0
ATTDEF
  5
199
330
185
100
AcDbEntity
  8
AM_6
100
AcDbText
 10
-42.2281249999905
 20
-129.84062500001
 30
0.0
 40
0.5
  1
TNUMBER=RXP24AVJU9},{DESCRIPTION=Outdoor Split System Heat Pump},{OVERALL_DEPTH=14.5000},{OVERALL_HEIGHT=29.500},{OVERALL_WIDTH=37.000},{URL=https://daikincomfort.com/},{RFA_FAMILY=Download Revit Family (RFA)},{APPARENT_POWER=5184},{ASSEMBLY_CODE=D3
100
AcDbAttributeDefinition
  3

  2
PSOL_2
 70
     9
280
     0
  0
ATTDEF
  5
19A
330
185
100
AcDbEntity
  8
AM_6
100
AcDbText
 10
-42.2281249999905
 20
-130.34062500001
 30
0.0
 40
0.5
  1
},{BACK_CLEARANCE=0.161458333333333},{BASE_PITCH=1.20833333333333},{BASE_PITCH_OFFSET=0.401041666666667},{BASE_PITCH_WIDTH=0.0833333333333333},{BASE_PITCH_WIDTH_APART=1.96875},{CATEGORY=Mechanical Equipment},{CLASSIFICATION_NUMBER=23.33.17.13.11},{C
100
AcDbAttributeDefinition
  3

  2
PSOL_3
 70
     9
280
     0
  0
ATTDEF
  5
19B
330
185
100
AcDbEntity
  8
AM_6
100
AcDbText
 10
-42.2281249999905
 20
-130.84062500001
 30
0.0
 40
0.5
  1
CE_VISIBILITY=1},{COMPRESSOR_TYPE=Hermetically Sealed Swing Type},{CONDENSATE_DRAIN_CONNECTION_DIAMETER=0.625},{CONDENSATE_DRAIN_CONNECTION_RADIUS=0.3125},{CONDENSATE_DRAIN_HORIZONTAL_OFFSET=1.72395833333333},{CONDENSATE_DRAIN_VERTICAL_OFFSET=0.9531
100
AcDbAttributeDefinition
  3

  2
PSOL_4
 70
     9
280
     0
  0
ATTDEF
  5
19C
330
185
100
AcDbEntity
  8
AM_6
100
AcDbText
 10
-42.2281249999905
 20
-131.34062500001
 30
0.0
 40
0.5
  1
OST=0},{DEFAULT_ELEVATION=0},{ENCLOSURE_DEPTH=1.05208333333333},{ENCLOSURE_HEIGHT=2.45833333333333},{ENCLOSURE_HEIGHT_OFFSET=0.0833333333333333},{ENCLOSURE_WIDTH=2.85416666666667},{FAN_TYPE=Propeller},{FAN_VENT_DEPTH=0.0989583333333333},{FREQUENCY=6
100
AcDbAttributeDefinition
  3

  2
PSOL_5
 70
     9
280
     0
  0
ATTDEF
  5
19D
330
185
100
AcDbEntity
  8
AM_6
100
AcDbText
 10
-42.2281249999905
 20
-131.84062500001
 30
0.0
 40
0.5
  1
ONT_CLEARANCE=0.328125},{FRONT_GRILL_WIDTH=2.2125},{LOAD_SUB_CLASSIFICATION_MOTOR=1},{MANUFACTURER=Daikin},{MASSUNIT=1},{MAXIMUM_OVERCURRENT_PROTECTION=25},{MINIMUM_CIRCUIT_AMPS=21.6},{NOMINAL_COOLING_CAPACITY=21800},{NOMINAL_COOLING_CAPACITY__TONS_
100
AcDbAttributeDefinition
  3

  2
PSOL_6
 70
     9
280
     0
  0
ATTDEF
  5
19E
330
185
100
AcDbEntity
  8
AM_6
100
AcDbText
 10
-42.2281249999905
 20
-132.34062500001
 30
0.0
 40
0.5
  1
OMINAL_HEATING_CAPACITY=24000},{NUMBER_OF_POLES=2},{PARTTYPE=Normal},{PHASE=1},{PRODUCT_PAGE_URL=https://daikincomfort.com/products/heating-cooling/single-split-ductless/heat-pumps//daikin-aurora---fdma-ducted-concealed},{REFRIGERANT_CHARGE=3.04},{R
100
AcDbAttributeDefinition
  3

  2
PSOL_7
 70
     9
280
     0
  0
ATTDEF
  5
19F
330
185
100
AcDbEntity
  8
AM_6
100
AcDbText
 10
-42.2281249999905
 20
-132.84062500001
 30
0.0
 40
0.5
  1
RANT_CONNECTION_DEPTH_OFFSET=0.520833333333333},{REFRIGERANT_LIQUID_CONNECTION_DIAMETER=0.25},{REFRIGERANT_LIQUID_CONNECTION_HORIZONTAL_OFFSET=0.0572916666666667},{REFRIGERANT_LIQUID_CONNECTION_RADIUS=0.125},{REFRIGERANT_LIQUID_CONNECTION_VERTICAL_O
100
AcDbAttributeDefinition
  3

  2
PSOL_8
 70
     9
280
     0
  0
ATTDEF
  5
1A0
330
185
100
AcDbEntity
  8
AM_6
100
AcDbText
 10
-42.2281249999905
 20
-133.34062500001
 30
0.0
 40
0.5
  1
0.588541666666667},{REFRIGERANT_SUCTION_GAS_CONNECTION_DIAMETER=0.625},{REFRIGERANT_SUCTION_GAS_CONNECTION_HORIONTAL_OFFSET=0.0677083333333333},{REFRIGERANT_SUCTION_GAS_CONNECTION_RADIUS=0.3125},{REFRIGERANT_SUCTION_GAS_CONNECTION_VERTICAL_OFFSET=0.
100
AcDbAttributeDefinition
  3

  2
PSOL_9
 70
     9
280
     0
  0
ATTDEF
  5
1A1
330
185
100
AcDbEntity
  8
AM_6
100
AcDbText
 10
-42.2281249999905
 20
-133.84062500001
 30
0.0
 40
0.5
  1
333333333},{REFRIGERANT_USED=R-32},{SERIES=RXP-A},{SIDE_CLEARANCE=0.161458333333333},{SOUND_PRESSURE_LEVEL___COOLING=55},{SOUND_PRESSURE_LEVEL___HEATING=57},{STOP_VALVE_COVER_DEPTH=0.526041666666667},{STOP_VALVE_COVER_HEIGHT=2.2125},{STOP_VALVE_COVE
100
AcDbAttributeDefinition
  3

  2
PSOL_10
 70
     9
280
     0
  0
ATTDEF
  5
1A2
330
185
100
AcDbEntity
  8
AM_6
100
AcDbText
 10
-42.2281249999905
 20
-134.34062500001
 30
0.0
 40
0.5
  1
BILITY=1},{STOP_VALVE_COVER_WIDTH=0.229166666666667},{SYSTEM_PERFORMANCE_COP2=3.0},{SYSTEM_PERFORMANCE_EER2=10.3},{SYSTEM_PERFORMANCE_HSPF2=9.2},{SYSTEM_PERFORMANCE_SEER2=18.3},{UNIT_WEIGHT=127},{VERSION=1},{VOLTAGE=240},{VOLTAGE_COMMENTS=208 VAC - 
100
AcDbAttributeDefinition
  3

  2
PSOL_11
 70
     9
280
     0
  0
ATTDEF
  5
1A3
330
185
100
AcDbEntity
  8
AM_6
100
AcDbText
 10
-42.2281249999905
 20
-134.84062500001
 30
0.0
 40
0.5
  1
C},{DEFAULTSORTATTR=1},{RFA_FAMILY_=../../_pool_/09/54/28r322920heat20pump20unit20aurora20single20zone20outdoor20daikin20rxp.zip},{RFA_FAMILY_ENG=../../_pool_/09/54/28r322920heat20pump20unit20aurora20single20zone20outdoor20daikin20rxp.zip},{REVIT_FA
100
AcDbAttributeDefinition
  3

  2
PSOL_12
 70
     9
280
     0
  0
ATTDEF
  5
1A4
330
185
100
AcDbEntity
  8
AM_6
100
AcDbText
 10
-42.2281249999905
 20
-135.34062500001
 30
0.0
 40
0.5
  1
OWNLOAD=../../_pool_/09/54/28r322920heat20pump20unit20aurora20single20zone20outdoor20daikin20rxp.zip}
100
AcDbAttributeDefinition
  3

  2
PSOL_13
 70
     9
280
     0
  0
CIRCLE
  5
1A5
330
185
100
AcDbEntity
  8
AM_9
100
AcDbCircle
 10
-55.5624999999905
 20
-130.17500000001
 30
0.0
 40
7.9375
  0
LINE
  5
1A8
330
185
100
AcDbEntity
  8
AM_7
100
AcDbLine
 10
-63.8968749999905
 20
-130.17500000001
 30
0.0
 11
-47.2281249999905
 21
-130.17500000001
 31
0.0
  0
LINE
  5
1A9
330
185
100
AcDbEntity
  8
AM_7
100
AcDbLine
 10
-55.5624999999905
 20
-138.50937500001
 30
0.0
 11
-55.5624999999905
 21
-121.84062500001
 31
0.0
  0
ENDBLK
  5
188
330
185
100
AcDbEntity
  8
0
100
AcDbBlockEnd
  0
ENDSEC
  0
SECTION
  2
ENTITIES
  0
ATTDEF
  5
5F
330
1F
100
AcDbEntity
  8
AM_6
100
AcDbText
 10
474.9000000000074
 20
184.149999999992
 30
0.0
 40
0.5
  1
RXP24AVJU9
100
AcDbAttributeDefinition
  3

  2
NB
 70
     8
280
     0
  0
ATTDEF
  5
60
330
1F
100
AcDbEntity
  8
AM_6
100
AcDbText
 10
474.9000000000074
 20
183.649999999992
 30
0.0
 40
0.5
  1
(R32) Heat Pump Unit Aurora Single Zone Outdoor Daikin RXP
100
AcDbAttributeDefinition
  3

  2
NN
 70
     8
280
     0
  0
ATTDEF
  5
61
330
1F
100
AcDbEntity
  8
AM_6
100
AcDbText
 10
474.9000000000074
 20
183.149999999992
 30
0.0
 40
0.5
  1

100
AcDbAttributeDefinition
  3

  2
NT
 70
     8
280
     0
  0
ATTDEF
  5
62
330
1F
100
AcDbEntity
  8
AM_6
100
AcDbText
 10
474.9000000000074
 20
182.649999999992
 30
0.0
 40
0.5
  1
$PARTNUMBER.
100
AcDbAttributeDefinition
  3

  2
NBSYN
 70
     8
280
     0
  0
ATTDEF
  5
63
330
1F
100
AcDbEntity
  8
AM_6
100
AcDbText
 10
474.9000000000074
 20
182.149999999992
 30
0.0
 40
0.5
  1
RXP24AVJU9
100
AcDbAttributeDefinition
  3

  2
LINA
 70
     8
280
     0
  0
ATTDEF
  5
64
330
1F
100
AcDbEntity
  8
AM_6
100
AcDbText
 10
474.9000000000074
 20
181.649999999992
 30
0.0
 40
0.5
  1
Daikin
100
AcDbAttributeDefinition
  3

  2
CATALOG
 70
     8
280
     0
  0
ATTDEF
  5
65
330
1F
100
AcDbEntity
  8
AM_6
100
AcDbText
 10
474.9000000000074
 20
181.149999999992
 30
0.0
 40
0.5
  1
RXP24AVJU9
100
AcDbAttributeDefinition
  3

  2
PARTNUMBER
 70
     8
280
     0
  0
ATTDEF
  5
66
330
1F
100
AcDbEntity
  8
AM_6
100
AcDbText
 10
474.9000000000074
 20
180.649999999992
 30
0.0
 40
0.5
  1
Outdoor Split System Heat Pump
100
AcDbAttributeDefinition
  3

  2
DESCRIPTION
 70
     8
280
     0
  0
ATTDEF
  5
67
330
1F
100
AcDbEntity
  8
AM_6
100
AcDbText
 10
474.9000000000074
 20
180.149999999992
 30
0.0
 40
0.5
  1
14.5000
100
AcDbAttributeDefinition
  3

  2
OVERALL_DEPTH
 70
     8
280
     0
  0
ATTDEF
  5
68
330
1F
100
AcDbEntity
  8
AM_6
100
AcDbText
 10
474.9000000000074
 20
179.649999999992
 30
0.0
 40
0.5
  1
29.500
100
AcDbAttributeDefinition
  3

  2
OVERALL_HEIGHT
 70
     8
280
     0
  0
ATTDEF
  5
69
330
1F
100
AcDbEntity
  8
AM_6
100
AcDbText
 10
474.9000000000074
 20
179.149999999992
 30
0.0
 40
0.5
  1
37.000
100
AcDbAttributeDefinition
  3

  2
OVERALL_WIDTH
 70
     8
280
     0
  0
ATTDEF
  5
6A
330
1F
100
AcDbEntity
  8
AM_6
100
AcDbText
 10
474.9000000000074
 20
178.649999999992
 30
0.0
 40
0.5
  1
https://daikincomfort.com/
100
AcDbAttributeDefinition
  3

  2
URL
 70
     8
280
     0
  0
ATTDEF
  5
6B
330
1F
100
AcDbEntity
  8
AM_6
100
AcDbText
 10
474.9000000000074
 20
178.149999999992
 30
0.0
 40
0.5
  1
Download Revit Family (RFA)
100
AcDbAttributeDefinition
  3

  2
RFA_FAMILY
 70
     8
280
     0
  0
ATTDEF
  5
6C
330
1F
100
AcDbEntity
  8
AM_6
100
AcDbText
 10
474.9000000000074
 20
177.649999999992
 30
0.0
 40
0.5
  1
daikin
100
AcDbAttributeDefinition
  3

  2
COMPANY
 70
     8
280
     0
  0
ATTDEF
  5
6D
330
1F
100
AcDbEntity
  8
AM_6
100
AcDbText
 10
474.9000000000074
 20
177.149999999992
 30
0.0
 40
0.5
  1
{$CADENAS_DATA/23d-libs/daikin/single20zone20systems/single20zone20heat20pump20outdoor20units/28r322920heat20pump20unit20aurora20single20zone20outdoor20daikin20rxp.prj},223 {STYP=ASS},{VTYP=3D},{NB=RXP24AVJU9},{LINA=RXP24AVJU9},{NN=(R32) Heat Pump U
100
AcDbAttributeDefinition
  3

  2
PSOL_0
 70
     9
280
     0
  0
ATTDEF
  5
6E
330
1F
100
AcDbEntity
  8
AM_6
100
AcDbText
 10
474.9000000000074
 20
176.649999999992
 30
0.0
 40
0.5
  1
rora Single Zone Outdoor Daikin RXP},{DATE=06.03.2026 14:42:20},{GEOMDATE=06.03.2026 09:05:37},{VERSION=},{LINEID=40},{WBVAR=},{WBNUMERIC=}  {NB=RXP24AVJU9},{LINA=RXP24AVJU9},{KT=DUMMY},{PARTNUMBERHELP=2Ton_RXP24AVJU9},{PARTNUMBER=RXP24AVJU9},{DESCR
100
AcDbAttributeDefinition
  3

  2
PSOL_1
 70
     9
280
     0
  0
ATTDEF
  5
6F
330
1F
100
AcDbEntity
  8
AM_6
100
AcDbText
 10
474.9000000000074
 20
176.149999999992
 30
0.0
 40
0.5
  1
=Outdoor Split System Heat Pump},{OVERALL_DEPTH=14.5000},{OVERALL_HEIGHT=29.500},{OVERALL_WIDTH=37.000},{URL=https://daikincomfort.com/},{RFA_FAMILY=Download Revit Family (RFA)},{APPARENT_POWER=5184},{ASSEMBLY_CODE=D3040100},{BACK_CLEARANCE=0.161458
100
AcDbAttributeDefinition
  3

  2
PSOL_2
 70
     9
280
     0
  0
ATTDEF
  5
70
330
1F
100
AcDbEntity
  8
AM_6
100
AcDbText
 10
474.9000000000074
 20
175.649999999992
 30
0.0
 40
0.5
  1
333},{BASE_PITCH=1.20833333333333},{BASE_PITCH_OFFSET=0.401041666666667},{BASE_PITCH_WIDTH=0.0833333333333333},{BASE_PITCH_WIDTH_APART=1.96875},{CATEGORY=Mechanical Equipment},{CLASSIFICATION_NUMBER=23.33.17.13.11},{CLEARANCE_VISIBILITY=1},{COMPRESS
100
AcDbAttributeDefinition
  3

  2
PSOL_3
 70
     9
280
     0
  0
ATTDEF
  5
71
330
1F
100
AcDbEntity
  8
AM_6
100
AcDbText
 10
474.9000000000074
 20
175.149999999992
 30
0.0
 40
0.5
  1
E=Hermetically Sealed Swing Type},{CONDENSATE_DRAIN_CONNECTION_DIAMETER=0.625},{CONDENSATE_DRAIN_CONNECTION_RADIUS=0.3125},{CONDENSATE_DRAIN_HORIZONTAL_OFFSET=1.72395833333333},{CONDENSATE_DRAIN_VERTICAL_OFFSET=0.953125},{COST=0},{DEFAULT_ELEVATION=
100
AcDbAttributeDefinition
  3

  2
PSOL_4
 70
     9
280
     0
  0
ATTDEF
  5
72
330
1F
100
AcDbEntity
  8
AM_6
100
AcDbText
 10
474.9000000000074
 20
174.649999999992
 30
0.0
 40
0.5
  1
CLOSURE_DEPTH=1.05208333333333},{ENCLOSURE_HEIGHT=2.45833333333333},{ENCLOSURE_HEIGHT_OFFSET=0.0833333333333333},{ENCLOSURE_WIDTH=2.85416666666667},{FAN_TYPE=Propeller},{FAN_VENT_DEPTH=0.0989583333333333},{FREQUENCY=60},{FRONT_CLEARANCE=0.328125},{F
100
AcDbAttributeDefinition
  3

  2
PSOL_5
 70
     9
280
     0
  0
ATTDEF
  5
73
330
1F
100
AcDbEntity
  8
AM_6
100
AcDbText
 10
474.9000000000074
 20
174.149999999992
 30
0.0
 40
0.5
  1
RILL_WIDTH=2.2125},{LOAD_SUB_CLASSIFICATION_MOTOR=1},{MANUFACTURER=Daikin},{MASSUNIT=1},{MAXIMUM_OVERCURRENT_PROTECTION=25},{MINIMUM_CIRCUIT_AMPS=21.6},{NOMINAL_COOLING_CAPACITY=21800},{NOMINAL_COOLING_CAPACITY__TONS_=2},{NOMINAL_HEATING_CAPACITY=24
100
AcDbAttributeDefinition
  3

  2
PSOL_6
 70
     9
280
     0
  0
ATTDEF
  5
74
330
1F
100
AcDbEntity
  8
AM_6
100
AcDbText
 10
474.9000000000074
 20
173.649999999992
 30
0.0
 40
0.5
  1
NUMBER_OF_POLES=2},{PARTTYPE=Normal},{PHASE=1},{PRODUCT_PAGE_URL=https://daikincomfort.com/products/heating-cooling/single-split-ductless/heat-pumps//daikin-aurora---fdma-ducted-concealed},{REFRIGERANT_CHARGE=3.04},{REFRIGERANT_CONNECTION_DEPTH_OFFS
100
AcDbAttributeDefinition
  3

  2
PSOL_7
 70
     9
280
     0
  0
ATTDEF
  5
75
330
1F
100
AcDbEntity
  8
AM_6
100
AcDbText
 10
474.9000000000074
 20
173.149999999992
 30
0.0
 40
0.5
  1
20833333333333},{REFRIGERANT_LIQUID_CONNECTION_DIAMETER=0.25},{REFRIGERANT_LIQUID_CONNECTION_HORIZONTAL_OFFSET=0.0572916666666667},{REFRIGERANT_LIQUID_CONNECTION_RADIUS=0.125},{REFRIGERANT_LIQUID_CONNECTION_VERTICAL_OFFSET=0.588541666666667},{REFRIG
100
AcDbAttributeDefinition
  3

  2
PSOL_8
 70
     9
280
     0
  0
ATTDEF
  5
76
330
1F
100
AcDbEntity
  8
AM_6
100
AcDbText
 10
474.9000000000074
 20
172.649999999992
 30
0.0
 40
0.5
  1
SUCTION_GAS_CONNECTION_DIAMETER=0.625},{REFRIGERANT_SUCTION_GAS_CONNECTION_HORIONTAL_OFFSET=0.0677083333333333},{REFRIGERANT_SUCTION_GAS_CONNECTION_RADIUS=0.3125},{REFRIGERANT_SUCTION_GAS_CONNECTION_VERTICAL_OFFSET=0.395833333333333},{REFRIGERANT_US
100
AcDbAttributeDefinition
  3

  2
PSOL_9
 70
     9
280
     0
  0
ATTDEF
  5
77
330
1F
100
AcDbEntity
  8
AM_6
100
AcDbText
 10
474.9000000000074
 20
172.149999999992
 30
0.0
 40
0.5
  1
2},{SERIES=RXP-A},{SIDE_CLEARANCE=0.161458333333333},{SOUND_PRESSURE_LEVEL___COOLING=55},{SOUND_PRESSURE_LEVEL___HEATING=57},{STOP_VALVE_COVER_DEPTH=0.526041666666667},{STOP_VALVE_COVER_HEIGHT=2.2125},{STOP_VALVE_COVER_VISIBILITY=1},{STOP_VALVE_COVE
100
AcDbAttributeDefinition
  3

  2
PSOL_10
 70
     9
280
     0
  0
ATTDEF
  5
78
330
1F
100
AcDbEntity
  8
AM_6
100
AcDbText
 10
474.9000000000074
 20
171.649999999992
 30
0.0
 40
0.5
  1
H=0.229166666666667},{SYSTEM_PERFORMANCE_COP2=3.0},{SYSTEM_PERFORMANCE_EER2=10.3},{SYSTEM_PERFORMANCE_HSPF2=9.2},{SYSTEM_PERFORMANCE_SEER2=18.3},{UNIT_WEIGHT=127},{VERSION=1},{VOLTAGE=240},{VOLTAGE_COMMENTS=208 VAC - 230 VAC},{DEFAULTSORTATTR=1},{RF
100
AcDbAttributeDefinition
  3

  2
PSOL_11
 70
     9
280
     0
  0
ATTDEF
  5
79
330
1F
100
AcDbEntity
  8
AM_6
100
AcDbText
 10
474.9000000000074
 20
171.149999999992
 30
0.0
 40
0.5
  1
LY_=../../_pool_/09/54/28r322920heat20pump20unit20aurora20single20zone20outdoor20daikin20rxp.zip},{RFA_FAMILY_ENG=../../_pool_/09/54/28r322920heat20pump20unit20aurora20single20zone20outdoor20daikin20rxp.zip},{REVIT_FAMILY_DOWNLOAD=../../_pool_/09/54
100
AcDbAttributeDefinition
  3

  2
PSOL_12
 70
     9
280
     0
  0
ATTDEF
  5
7A
330
1F
100
AcDbEntity
  8
AM_6
100
AcDbText
 10
474.9000000000074
 20
170.649999999992
 30
0.0
 40
0.5
  1
2920heat20pump20unit20aurora20single20zone20outdoor20daikin20rxp.zip}
100
AcDbAttributeDefinition
  3

  2
PSOL_13
 70
     9
280
     0
  0
INSERT
  5
7C
330
1F
100
AcDbEntity
  8
0
100
AcDbBlockReference
  2
1_RXP24AVJU9_PART8_0_in_RXP24AVJU9_4
 10
0.0
 20
0.0
 30
0.0
  0
INSERT
  5
A1
330
1F
100
AcDbEntity
  8
0
100
AcDbBlockReference
  2
2_RXP24AVJU9_PART7_0_in_RXP24AVJU9_4
 10
0.0
 20
0.0
 30
0.0
  0
INSERT
  5
C5
330
1F
100
AcDbEntity
  8
0
100
AcDbBlockReference
  2
3_RXP24AVJU9_PART6_0_in_RXP24AVJU9_4
 10
0.0
 20
0.0
 30
0.0
  0
INSERT
  5
E8
330
1F
100
AcDbEntity
  8
0
100
AcDbBlockReference
  2
4_RXP24AVJU9_PART5_0_in_RXP24AVJU9_4
 10
0.0
 20
0.0
 30
0.0
  0
INSERT
  5
112
330
1F
100
AcDbEntity
  8
0
100
AcDbBlockReference
  2
5_RXP24AVJU9_PART4_0_in_RXP24AVJU9_4
 10
0.0
 20
0.0
 30
0.0
  0
INSERT
  5
13C
330
1F
100
AcDbEntity
  8
0
100
AcDbBlockReference
  2
6_RXP24AVJU9_PART3_0_in_RXP24AVJU9_4
 10
0.0
 20
0.0
 30
0.0
  0
INSERT
  5
162
330
1F
100
AcDbEntity
  8
0
100
AcDbBlockReference
  2
7_RXP24AVJU9_PART2_0_in_RXP24AVJU9_4
 10
0.0
 20
0.0
 30
0.0
  0
INSERT
  5
186
330
1F
100
AcDbEntity
  8
0
100
AcDbBlockReference
  2
8_RXP24AVJU9_PART1_0_in_RXP24AVJU9_4
 10
0.0
 20
0.0
 30
0.0
  0
ENDSEC
  0
SECTION
  2
OBJECTS
  0
DICTIONARY
  5
C
330
0
100
AcDbDictionary
281
     1
  3
ACAD_DETAILVIEWSTYLE
350
1B1
  3
ACAD_GROUP
350
D
  3
ACAD_LAYOUT
350
1A
  3
ACAD_MATERIAL
350
43
  3
ACAD_MLEADERSTYLE
350
5B
  3
ACAD_MLINESTYLE
350
17
  3
ACAD_PLOTSETTINGS
350
19
  3
ACAD_PLOTSTYLENAME
350
E
  3
ACAD_SCALELIST
350
47
  3
ACAD_SECTIONVIEWSTYLE
350
1B2
  3
ACAD_TABLESTYLE
350
59
  3
ACAD_VISUALSTYLE
350
2A
  3
ACDB_RECOMPOSE_DATA
350
1AE
  3
AcDbVariableDictionary
350
1AA
  0
SUN
  5
5D
330
29
100
AcDbSun
 90
        1
290
     0
 63
     7
421
 16777215
 40
1.0
291
     1
 91
  2455826
 92
 54000000
292
     0
 70
     2
 71
   256
280
     1
  0
DICTIONARY
  5
1B1
102
{ACAD_REACTORS
330
C
102
}
330
C
100
AcDbDictionary
281
     1
  0
DICTIONARY
  5
D
102
{ACAD_REACTORS
330
C
102
}
330
C
100
AcDbDictionary
281
     1
  0
DICTIONARY
  5
1A
102
{ACAD_REACTORS
330
C
102
}
330
C
100
AcDbDictionary
281
     1
  3
Layout1
350
1E
  3
Layout2
350
26
  3
Model
350
22
  0
DICTIONARY
  5
43
102
{ACAD_REACTORS
330
C
102
}
330
C
100
AcDbDictionary
281
     1
  3
ByBlock
350
45
  3
ByLayer
350
44
  3
Global
350
46
  0
DICTIONARY
  5
5B
102
{ACAD_REACTORS
330
C
102
}
330
C
100
AcDbDictionary
281
     1
  3
Standard
350
5C
  0
DICTIONARY
  5
17
102
{ACAD_REACTORS
330
C
102
}
330
C
100
AcDbDictionary
281
     1
  3
Standard
350
18
  0
DICTIONARY
  5
19
102
{ACAD_REACTORS
330
C
102
}
330
C
100
AcDbDictionary
281
     1
  0
ACDBDICTIONARYWDFLT
  5
E
102
{ACAD_REACTORS
330
C
102
}
330
C
100
AcDbDictionary
281
     1
  3
Normal
350
F
100
AcDbDictionaryWithDefault
340
F
  0
DICTIONARY
  5
47
102
{ACAD_REACTORS
330
C
102
}
330
C
100
AcDbDictionary
281
     1
  3
A0
350
48
  3
A1
350
49
  3
A2
350
4A
  3
A3
350
4B
  3
A4
350
4C
  3
A5
350
4D
  3
A6
350
4E
  3
A7
350
4F
  3
A8
350
50
  3
A9
350
51
  3
B0
350
52
  3
B1
350
53
  3
B2
350
54
  3
B3
350
55
  3
B4
350
56
  3
B5
350
57
  3
B6
350
58
  0
DICTIONARY
  5
1B2
102
{ACAD_REACTORS
330
C
102
}
330
C
100
AcDbDictionary
281
     1
  0
DICTIONARY
  5
59
102
{ACAD_REACTORS
330
C
102
}
330
C
100
AcDbDictionary
281
     1
  3
Standard
350
5A
  0
DICTIONARY
  5
2A
102
{ACAD_REACTORS
330
C
102
}
330
C
100
AcDbDictionary
281
     1
  3
2dWireframe
350
2F
  3
Basic
350
32
  3
Brighten
350
36
  3
ColorChange
350
3A
  3
Conceptual
350
34
  3
Dim
350
35
  3
EdgeColorOff
350
3D
  3
Facepattern
350
39
  3
Flat
350
2B
  3
FlatWithEdges
350
2C
  3
Gouraud
350
2D
  3
GouraudWithEdges
350
2E
  3
Hidden
350
31
  3
JitterOff
350
3B
  3
Linepattern
350
38
  3
OverhangOff
350
3C
  3
Realistic
350
33
  3
Shaded
350
42
  3
Shaded with edges
350
41
  3
Shades of Gray
350
3E
  3
Sketchy
350
3F
  3
Thicken
350
37
  3
Wireframe
350
30
  3
X-Ray
350
40
  0
XRECORD
  5
1AE
102
{ACAD_REACTORS
330
C
102
}
330
C
100
AcDbXrecord
280
     1
 90
        1
330
5A
  0
DICTIONARY
  5
1AA
102
{ACAD_REACTORS
330
C
102
}
330
C
100
AcDbDictionary
281
     1
  3
CANNOSCALE
350
1AB
  3
CENTEREXE
350
1B3
  3
CENTERLTYPEFILE
350
1B4
  3
CMLEADERSTYLE
350
1B0
  3
CTABLESTYLE
350
1AF
  0
LAYOUT
  5
1E
102
{ACAD_REACTORS
330
1A
102
}
330
1A
100
AcDbPlotSettings
  1

  2
none_device
  4

  6

 40
0.0
 41
0.0
 42
0.0
 43
0.0
 44
0.0
 45
0.0
 46
0.0
 47
0.0
 48
0.0
 49
0.0
140
0.0
141
0.0
142
1.0
143
1.0
 70
   688
 72
     1
 73
     0
 74
     5
  7

 75
    16
 76
     0
 77
     2
 78
   300
147
1.0
148
0.0
149
0.0
100
AcDbLayout
  1
Layout1
 70
     1
 71
     1
 10
0.0
 20
0.0
 11
420.0
 21
297.0
 12
0.0
 22
0.0
 32
0.0
 14
1.000000000000000E+20
 24
1.000000000000000E+20
 34
1.000000000000000E+20
 15
-1.000000000000000E+20
 25
-1.000000000000000E+20
 35
-1.000000000000000E+20
146
0.0
 13
0.0
 23
0.0
 33
0.0
 16
1.0
 26
0.0
 36
0.0
 17
0.0
 27
1.0
 37
0.0
 76
     0
330
1B
  0
LAYOUT
  5
26
102
{ACAD_REACTORS
330
1A
102
}
330
1A
100
AcDbPlotSettings
  1

  2
none_device
  4

  6

 40
0.0
 41
0.0
 42
0.0
 43
0.0
 44
0.0
 45
0.0
 46
0.0
 47
0.0
 48
0.0
 49
0.0
140
0.0
141
0.0
142
1.0
143
1.0
 70
   688
 72
     1
 73
     0
 74
     5
  7

 75
    16
 76
     0
 77
     2
 78
   300
147
1.0
148
0.0
149
0.0
100
AcDbLayout
  1
Layout2
 70
     1
 71
     2
 10
0.0
 20
0.0
 11
0.0
 21
0.0
 12
0.0
 22
0.0
 32
0.0
 14
0.0
 24
0.0
 34
0.0
 15
0.0
 25
0.0
 35
0.0
146
0.0
 13
0.0
 23
0.0
 33
0.0
 16
1.0
 26
0.0
 36
0.0
 17
0.0
 27
1.0
 37
0.0
 76
     0
330
23
  0
LAYOUT
  5
22
102
{ACAD_REACTORS
330
1A
102
}
330
1A
100
AcDbPlotSettings
  1

  2
none_device
  4
Letter_(8.50_x_11.00_Inches)
  6

 40
6.35
 41
6.35
 42
6.35000508
 43
6.35000508
 44
215.9
 45
279.4
 46
0.0
 47
0.0
 48
0.0
 49
0.0
140
0.0
141
0.0
142
1.0
143
1.0
 70
  1712
 72
     1
 73
     0
 74
     0
  7

 75
     0
 76
     0
 77
     2
 78
   300
147
1.0
148
0.0
149
0.0
100
AcDbLayout
  1
Model
 70
     1
 71
     0
 10
0.0
 20
0.0
 11
420.0
 21
297.0
 12
0.0
 22
0.0
 32
0.0
 14
-469.899999999993
 24
-190.50000000001
 34
0.0
 15
481.8169491525498
 25
184.6554237288056
 35
0.0
146
0.0
 13
0.0
 23
0.0
 33
0.0
 16
1.0
 26
0.0
 36
0.0
 17
0.0
 27
1.0
 37
0.0
 76
     0
330
1F
331
29
  0
MATERIAL
  5
45
102
{ACAD_REACTORS
330
43
102
}
330
43
100
AcDbMaterial
  1
ByBlock
 72
     1
 94
      127
  0
MATERIAL
  5
44
102
{ACAD_REACTORS
330
43
102
}
330
43
100
AcDbMaterial
  1
ByLayer
 72
     1
 94
      127
  0
MATERIAL
  5
46
102
{ACAD_REACTORS
330
43
102
}
330
43
100
AcDbMaterial
  1
Global
 72
     1
 94
      127
  0
MLEADERSTYLE
  5
5C
102
{ACAD_REACTORS
330
5B
102
}
330
5B
100
AcDbMLeaderStyle
179
     2
170
     2
171
     1
172
     0
 90
        2
 40
0.0
 41
0.0
173
     1
 91
-1056964608
340
14
 92
       -2
290
     1
 42
2.0
291
     1
 43
8.0
  3
Standard
341
0
 44
4.0
300

342
11
174
     1
178
     6
175
     1
176
     0
 93
-1056964608
 45
4.0
292
     0
297
     0
 46
4.0
343
0
 94
-1056964608
 47
1.0
 49
1.0
140
1.0
293
     1
141
0.0
294
     1
177
     0
142
1.0
295
     0
296
     0
143
3.75
271
     0
272
     9
273
     9
298
     0
  0
MLINESTYLE
  5
18
102
{ACAD_REACTORS
330
17
102
}
330
17
100
AcDbMlineStyle
  2
Standard
 70
     0
  3

 62
   256
 51
90.0
 52
90.0
 71
     2
 49
0.5
 62
   256
  6
BYLAYER
 49
-0.5
 62
   256
  6
BYLAYER
  0
ACDBPLACEHOLDER
  5
F
102
{ACAD_REACTORS
330
E
102
}
330
E
  0
SCALE
  5
48
102
{ACAD_REACTORS
330
47
102
}
330
47
100
AcDbScale
 70
     0
300
1:1
140
1.0
141
1.0
290
     1
  0
SCALE
  5
49
102
{ACAD_REACTORS
330
47
102
}
330
47
100
AcDbScale
 70
     0
300
1:2
140
1.0
141
2.0
290
     0
  0
SCALE
  5
4A
102
{ACAD_REACTORS
330
47
102
}
330
47
100
AcDbScale
 70
     0
300
1:4
140
1.0
141
4.0
290
     0
  0
SCALE
  5
4B
102
{ACAD_REACTORS
330
47
102
}
330
47
100
AcDbScale
 70
     0
300
1:5
140
1.0
141
5.0
290
     0
  0
SCALE
  5
4C
102
{ACAD_REACTORS
330
47
102
}
330
47
100
AcDbScale
 70
     0
300
1:8
140
1.0
141
8.0
290
     0
  0
SCALE
  5
4D
102
{ACAD_REACTORS
330
47
102
}
330
47
100
AcDbScale
 70
     0
300
1:10
140
1.0
141
10.0
290
     0
  0
SCALE
  5
4E
102
{ACAD_REACTORS
330
47
102
}
330
47
100
AcDbScale
 70
     0
300
1:16
140
1.0
141
16.0
290
     0
  0
SCALE
  5
4F
102
{ACAD_REACTORS
330
47
102
}
330
47
100
AcDbScale
 70
     0
300
1:20
140
1.0
141
20.0
290
     0
  0
SCALE
  5
50
102
{ACAD_REACTORS
330
47
102
}
330
47
100
AcDbScale
 70
     0
300
1:30
140
1.0
141
30.0
290
     0
  0
SCALE
  5
51
102
{ACAD_REACTORS
330
47
102
}
330
47
100
AcDbScale
 70
     0
300
1:40
140
1.0
141
40.0
290
     0
  0
SCALE
  5
52
102
{ACAD_REACTORS
330
47
102
}
330
47
100
AcDbScale
 70
     0
300
1:50
140
1.0
141
50.0
290
     0
  0
SCALE
  5
53
102
{ACAD_REACTORS
330
47
102
}
330
47
100
AcDbScale
 70
     0
300
1:100
140
1.0
141
100.0
290
     0
  0
SCALE
  5
54
102
{ACAD_REACTORS
330
47
102
}
330
47
100
AcDbScale
 70
     0
300
2:1
140
2.0
141
1.0
290
     0
  0
SCALE
  5
55
102
{ACAD_REACTORS
330
47
102
}
330
47
100
AcDbScale
 70
     0
300
4:1
140
4.0
141
1.0
290
     0
  0
SCALE
  5
56
102
{ACAD_REACTORS
330
47
102
}
330
47
100
AcDbScale
 70
     0
300
8:1
140
8.0
141
1.0
290
     0
  0
SCALE
  5
57
102
{ACAD_REACTORS
330
47
102
}
330
47
100
AcDbScale
 70
     0
300
10:1
140
10.0
141
1.0
290
     0
  0
SCALE
  5
58
102
{ACAD_REACTORS
330
47
102
}
330
47
100
AcDbScale
 70
     0
300
100:1
140
100.0
141
1.0
290
     0
  0
TABLESTYLE
  5
5A
102
{ACAD_REACTORS
330
59
102
}
102
{ACAD_XDICTIONARY
360
1AC
102
}
330
59
100
AcDbTableStyle
  3
Standard
 70
     0
 71
     0
 40
0.06
 41
0.06
280
     0
281
     0
  7
Standard
140
4.5
170
     2
 62
     0
 63
   257
283
     0
 90
        4
 91
        0
  1

274
    -2
284
     1
 64
     0
275
    -2
285
     1
 65
     0
276
    -2
286
     1
 66
     0
277
    -2
287
     1
 67
     0
278
    -2
288
     1
 68
     0
279
    -2
289
     1
 69
     0
  7
Standard
140
6.0
170
     5
 62
     0
 63
   257
283
     0
 90
        4
 91
        0
  1

274
    -2
284
     1
 64
     0
275
    -2
285
     1
 65
     0
276
    -2
286
     1
 66
     0
277
    -2
287
     1
 67
     0
278
    -2
288
     1
 68
     0
279
    -2
289
     1
 69
     0
  7
Standard
140
4.5
170
     5
 62
     0
 63
   257
283
     0
 90
        4
 91
        0
  1

274
    -2
284
     1
 64
     0
275
    -2
285
     1
 65
     0
276
    -2
286
     1
 66
     0
277
    -2
287
     1
 67
     0
278
    -2
288
     1
 68
     0
279
    -2
289
     1
 69
     0
  0
VISUALSTYLE
  5
2F
102
{ACAD_REACTORS
330
2A
102
}
330
2A
100
AcDbVisualStyle
  2
2dWireframe
 70
     4
177
     3
291
     0
 70
    58
 90
        0
176
     1
 90
        2
176
     1
 90
        0
176
     1
 90
        0
176
     1
 40
0.6
176
     1
 40
30.0
176
     1
 62
     7
420
 16777215
176
     1
 90
        1
176
     1
 90
        4
176
     1
 62
     7
176
     1
 62
   257
176
     1
 90
        1
176
     1
 90
        1
176
     1
 40
1.0
176
     1
 90
        0
176
     1
 62
   257
176
     1
 40
1.0
176
     1
 90
        1
176
     1
 90
        6
176
     1
 90
        2
176
     1
 62
     7
176
     1
 90
        5
176
     1
 90
        0
176
     1
 90
        0
176
     1
290
     0
176
     1
 90
        1
176
     1
 40
0.0
176
     1
 90
        0
176
     1
290
     1
176
     1
290
     1
176
     1
290
     0
176
     1
290
     0
176
     1
290
     0
176
     1
290
     0
176
     1
290
     0
176
     1
290
     0
176
     1
290
     0
176
     1
 90
       50
176
     1
 40
0.0
176
     1
 40
1.0
176
     1
 90
        0
176
     1
 62
    18
420
        0
176
     1
 90
       50
176
     1
 90
        3
176
     1
 62
     5
420
      255
176
     1
290
     0
176
     1
 90
       50
176
     1
 90
       50
176
     1
 90
       50
176
     1
290
     0
176
     1
 90
       50
176
     1
 62
   256
176
     0
 40
1.0
176
     0
 90
        2
176
     1
  1
strokes_ogs.tif
176
     1
290
     0
176
     1
 40
1.0
176
     1
 40
1.0
176
     1
  0
VISUALSTYLE
  5
32
102
{ACAD_REACTORS
330
2A
102
}
330
2A
100
AcDbVisualStyle
  2
Basic
 70
     7
177
     3
291
     1
 70
    58
 90
        1
176
     1
 90
        0
176
     1
 90
        1
176
     1
 90
        0
176
     1
 40
0.6
176
     1
 40
30.0
176
     1
 62
     7
420
 16777215
176
     1
 90
        0
176
     1
 90
        4
176
     1
 62
     7
176
     1
 62
   257
176
     1
 90
        1
176
     1
 90
        1
176
     1
 40
1.0
176
     1
 90
        8
176
     1
 62
     7
176
     1
 40
1.0
176
     1
 90
        1
176
     1
 90
        6
176
     1
 90
        2
176
     1
 62
     7
176
     1
 90
        5
176
     1
 90
        0
176
     1
 90
        0
176
     1
290
     0
176
     1
 90
        1
176
     1
 40
0.0
176
     1
 90
        0
176
     1
290
     0
176
     1
290
     1
176
     1
290
     1
176
     1
290
     0
176
     1
290
     0
176
     1
290
     0
176
     1
290
     0
176
     1
290
     0
176
     1
290
     0
176
     1
 90
       50
176
     1
 40
0.0
176
     1
 40
1.0
176
     1
 90
        0
176
     1
 62
    18
420
        0
176
     1
 90
       50
176
     1
 90
        3
176
     1
 62
     5
420
      255
176
     1
290
     0
176
     1
 90
       50
176
     1
 90
       50
176
     1
 90
       50
176
     1
290
     0
176
     1
 90
       50
176
     1
 62
   256
176
     0
 40
1.0
176
     0
 90
        2
176
     1
  1
strokes_ogs.tif
176
     1
290
     0
176
     1
 40
1.0
176
     1
 40
1.0
176
     1
  0
VISUALSTYLE
  5
36
102
{ACAD_REACTORS
330
2A
102
}
330
2A
100
AcDbVisualStyle
  2
Brighten
 70
    12
177
     3
291
     1
 70
    58
 90
        2
176
     1
 90
        2
176
     1
 90
        0
176
     1
 90
        0
176
     1
 40
0.6
176
     1
 40
30.0
176
     1
 62
     7
420
 16777215
176
     1
 90
        1
176
     1
 90
        4
176
     1
 62
     7
176
     1
 62
   257
176
     1
 90
        1
176
     1
 90
        1
176
     1
 40
1.0
176
     1
 90
        8
176
     1
 62
     7
176
     1
 40
1.0
176
     1
 90
        1
176
     1
 90
        6
176
     1
 90
        2
176
     1
 62
     7
176
     1
 90
        5
176
     1
 90
        0
176
     1
 90
        0
176
     1
290
     0
176
     1
 90
        1
176
     1
 40
50.0
176
     1
 90
        0
176
     1
290
     0
176
     1
290
     1
176
     1
290
     1
176
     1
290
     0
176
     1
290
     0
176
     1
290
     0
176
     1
290
     0
176
     1
290
     0
176
     1
290
     0
176
     1
 90
       50
176
     1
 40
0.0
176
     1
 40
1.0
176
     1
 90
        0
176
     1
 62
    18
420
        0
176
     1
 90
       50
176
     1
 90
        3
176
     1
 62
     5
420
      255
176
     1
290
     0
176
     1
 90
       50
176
     1
 90
       50
176
     1
 90
       50
176
     1
290
     0
176
     1
 90
       50
176
     1
 62
   256
176
     0
 40
1.0
176
     0
 90
        2
176
     1
  1
strokes_ogs.tif
176
     1
290
     0
176
     1
 40
1.0
176
     1
 40
1.0
176
     1
  0
VISUALSTYLE
  5
3A
102
{ACAD_REACTORS
330
2A
102
}
330
2A
100
AcDbVisualStyle
  2
ColorChange
 70
    16
177
     3
291
     1
 70
    58
 90
        2
176
     1
 90
        2
176
     1
 90
        3
176
     1
 90
        0
176
     1
 40
0.6
176
     1
 40
30.0
176
     1
 62
     8
420
  8421504
176
     1
 90
        1
176
     1
 90
        4
176
     1
 62
     7
176
     1
 62
   257
176
     1
 90
        1
176
     1
 90
        1
176
     1
 40
1.0
176
     1
 90
        8
176
     1
 62
     8
420
  8421504
176
     1
 40
1.0
176
     1
 90
        1
176
     1
 90
        6
176
     1
 90
        2
176
     1
 62
     7
176
     1
 90
        5
176
     1
 90
        0
176
     1
 90
        0
176
     1
290
     0
176
     1
 90
        1
176
     1
 40
0.0
176
     1
 90
        0
176
     1
290
     0
176
     1
290
     1
176
     1
290
     1
176
     1
290
     0
176
     1
290
     0
176
     1
290
     0
176
     1
290
     0
176
     1
290
     0
176
     1
290
     0
176
     1
 90
       50
176
     1
 40
0.0
176
     1
 40
1.0
176
     1
 90
        0
176
     1
 62
    18
420
        0
176
     1
 90
       50
176
     1
 90
        3
176
     1
 62
     5
420
      255
176
     1
290
     0
176
     1
 90
       50
176
     1
 90
       50
176
     1
 90
       50
176
     1
290
     0
176
     1
 90
       50
176
     1
 62
   256
176
     0
 40
1.0
176
     0
 90
        2
176
     1
  1
strokes_ogs.tif
176
     1
290
     0
176
     1
 40
1.0
176
     1
 40
1.0
176
     1
  0
VISUALSTYLE
  5
34
102
{ACAD_REACTORS
330
2A
102
}
330
2A
100
AcDbVisualStyle
  2
Conceptual
 70
     9
177
     3
291
     0
 70
    58
 90
        3
176
     1
 90
        2
176
     1
 90
        0
176
     1
 90
        0
176
     1
 40
0.6
176
     1
 40
30.0
176
     1
 62
     7
420
 16777215
176
     1
 90
        2
176
     1
 90
        2
176
     1
 62
     7
176
     1
 62
   257
176
     1
 90
        1
176
     1
 90
        1
176
     1
 40
179.0
176
     1
 90
        8
176
     1
 62
     7
176
     1
 40
1.0
176
     1
 90
        1
176
     1
 90
        6
176
     1
 90
        2
176
     1
 62
     7
176
     1
 90
        3
176
     1
 90
        0
176
     1
 90
        0
176
     1
290
     0
176
     1
 90
        1
176
     1
 40
0.0
176
     1
 90
        0
176
     1
290
     0
176
     1
290
     1
176
     1
290
     1
176
     1
290
     0
176
     1
290
     0
176
     1
290
     0
176
     1
290
     0
176
     1
290
     0
176
     1
290
     0
176
     1
 90
       50
176
     1
 40
0.0
176
     1
 40
1.0
176
     1
 90
        0
176
     1
 62
    18
420
        0
176
     1
 90
       50
176
     1
 90
        3
176
     1
 62
     5
420
      255
176
     1
290
     0
176
     1
 90
       50
176
     1
 90
       50
176
     1
 90
       50
176
     1
290
     0
176
     1
 90
       50
176
     1
 62
   256
176
     0
 40
1.0
176
     0
 90
        2
176
     1
  1
strokes_ogs.tif
176
     1
290
     0
176
     1
 40
1.0
176
     1
 40
1.0
176
     1
  0
VISUALSTYLE
  5
35
102
{ACAD_REACTORS
330
2A
102
}
330
2A
100
AcDbVisualStyle
  2
Dim
 70
    11
177
     3
291
     1
 70
    58
 90
        2
176
     1
 90
        2
176
     1
 90
        0
176
     1
 90
        0
176
     1
 40
0.6
176
     1
 40
30.0
176
     1
 62
     7
420
 16777215
176
     1
 90
        1
176
     1
 90
        4
176
     1
 62
     7
176
     1
 62
   257
176
     1
 90
        1
176
     1
 90
        1
176
     1
 40
1.0
176
     1
 90
        8
176
     1
 62
     7
176
     1
 40
1.0
176
     1
 90
        1
176
     1
 90
        6
176
     1
 90
        2
176
     1
 62
     7
176
     1
 90
        5
176
     1
 90
        0
176
     1
 90
        0
176
     1
290
     0
176
     1
 90
        1
176
     1
 40
-50.0
176
     1
 90
        0
176
     1
290
     0
176
     1
290
     1
176
     1
290
     1
176
     1
290
     0
176
     1
290
     0
176
     1
290
     0
176
     1
290
     0
176
     1
290
     0
176
     1
290
     0
176
     1
 90
       50
176
     1
 40
0.0
176
     1
 40
1.0
176
     1
 90
        0
176
     1
 62
    18
420
        0
176
     1
 90
       50
176
     1
 90
        3
176
     1
 62
     5
420
      255
176
     1
290
     0
176
     1
 90
       50
176
     1
 90
       50
176
     1
 90
       50
176
     1
290
     0
176
     1
 90
       50
176
     1
 62
   256
176
     0
 40
1.0
176
     0
 90
        2
176
     1
  1
strokes_ogs.tif
176
     1
290
     0
176
     1
 40
1.0
176
     1
 40
1.0
176
     1
  0
VISUALSTYLE
  5
3D
102
{ACAD_REACTORS
330
2A
102
}
330
2A
100
AcDbVisualStyle
  2
EdgeColorOff
 70
    22
177
     3
291
     1
 70
    58
 90
        2
176
     0
 90
        2
176
     0
 90
        0
176
     0
 90
        0
176
     0
 40
0.6
176
     0
 40
30.0
176
     0
 62
     7
420
 16777215
176
     0
 90
        1
176
     0
 90
        4
176
     0
 62
     7
176
     0
 62
   257
176
     0
 90
        1
176
     0
 90
        1
176
     0
 40
1.0
176
     0
 90
        8
176
     2
 62
     7
176
     0
 40
1.0
176
     0
 90
        1
176
     0
 90
        6
176
     0
 90
        2
176
     0
 62
     7
176
     0
 90
        5
176
     0
 90
        0
176
     0
 90
        0
176
     0
290
     0
176
     0
 90
        1
176
     0
 40
0.0
176
     0
 90
        0
176
     0
290
     0
176
     0
290
     1
176
     0
290
     1
176
     0
290
     0
176
     0
290
     0
176
     0
290
     0
176
     0
290
     0
176
     0
290
     0
176
     0
290
     0
176
     0
 90
       50
176
     0
 40
0.0
176
     0
 40
1.0
176
     0
 90
        0
176
     0
 62
    18
420
        0
176
     0
 90
       50
176
     0
 90
        3
176
     0
 62
     5
420
      255
176
     0
290
     0
176
     0
 90
       50
176
     0
 90
       50
176
     0
 90
       50
176
     0
290
     0
176
     0
 90
       50
176
     0
 62
   256
176
     0
 40
1.0
176
     0
 90
        2
176
     0
  1
strokes_ogs.tif
176
     0
290
     0
176
     0
 40
1.0
176
     0
 40
1.0
176
     0
  0
VISUALSTYLE
  5
39
102
{ACAD_REACTORS
330
2A
102
}
330
2A
100
AcDbVisualStyle
  2
Facepattern
 70
    15
177
     3
291
     1
 70
    58
 90
        2
176
     1
 90
        2
176
     1
 90
        0
176
     1
 90
        0
176
     1
 40
0.6
176
     1
 40
30.0
176
     1
 62
     7
420
 16777215
176
     1
 90
        1
176
     1
 90
        4
176
     1
 62
     7
176
     1
 62
   257
176
     1
 90
        1
176
     1
 90
        1
176
     1
 40
1.0
176
     1
 90
        8
176
     1
 62
     7
176
     1
 40
1.0
176
     1
 90
        1
176
     1
 90
        6
176
     1
 90
        2
176
     1
 62
     7
176
     1
 90
        5
176
     1
 90
        0
176
     1
 90
        0
176
     1
290
     0
176
     1
 90
        1
176
     1
 40
0.0
176
     1
 90
        0
176
     1
290
     0
176
     1
290
     1
176
     1
290
     1
176
     1
290
     0
176
     1
290
     0
176
     1
290
     0
176
     1
290
     0
176
     1
290
     0
176
     1
290
     0
176
     1
 90
       50
176
     1
 40
0.0
176
     1
 40
1.0
176
     1
 90
        0
176
     1
 62
    18
420
        0
176
     1
 90
       50
176
     1
 90
        3
176
     1
 62
     5
420
      255
176
     1
290
     0
176
     1
 90
       50
176
     1
 90
       50
176
     1
 90
       50
176
     1
290
     0
176
     1
 90
       50
176
     1
 62
   256
176
     0
 40
1.0
176
     0
 90
        2
176
     1
  1
strokes_ogs.tif
176
     1
290
     0
176
     1
 40
1.0
176
     1
 40
1.0
176
     1
  0
VISUALSTYLE
  5
2B
102
{ACAD_REACTORS
330
2A
102
}
330
2A
100
AcDbVisualStyle
  2
Flat
 70
     0
177
     3
291
     1
 70
    58
 90
        2
176
     1
 90
        1
176
     1
 90
        1
176
     1
 90
        2
176
     1
 40
0.6
176
     1
 40
30.0
176
     1
 62
     7
420
 16777215
176
     1
 90
        0
176
     1
 90
        0
176
     1
 62
     7
176
     1
 62
   257
176
     1
 90
        1
176
     1
 90
        1
176
     1
 40
1.0
176
     1
 90
        8
176
     1
 62
     7
176
     1
 40
1.0
176
     1
 90
        1
176
     1
 90
        6
176
     1
 90
        2
176
     1
 62
     7
176
     1
 90
        5
176
     1
 90
        0
176
     1
 90
        0
176
     1
290
     0
176
     1
 90
       13
176
     1
 40
0.0
176
     1
 90
        0
176
     1
290
     0
176
     1
290
     1
176
     1
290
     1
176
     1
290
     0
176
     1
290
     0
176
     1
290
     0
176
     1
290
     0
176
     1
290
     0
176
     1
290
     0
176
     1
 90
       50
176
     1
 40
0.0
176
     1
 40
1.0
176
     1
 90
        0
176
     1
 62
    18
420
        0
176
     1
 90
       50
176
     1
 90
        3
176
     1
 62
     5
420
      255
176
     1
290
     0
176
     1
 90
       50
176
     1
 90
       50
176
     1
 90
       50
176
     1
290
     0
176
     1
 90
       50
176
     1
 62
   256
176
     0
 40
1.0
176
     0
 90
        2
176
     1
  1
strokes_ogs.tif
176
     1
290
     0
176
     1
 40
1.0
176
     1
 40
1.0
176
     1
  0
VISUALSTYLE
  5
2C
102
{ACAD_REACTORS
330
2A
102
}
330
2A
100
AcDbVisualStyle
  2
FlatWithEdges
 70
     1
177
     3
291
     1
 70
    58
 90
        2
176
     1
 90
        1
176
     1
 90
        1
176
     1
 90
        2
176
     1
 40
0.6
176
     1
 40
30.0
176
     1
 62
     7
420
 16777215
176
     1
 90
        1
176
     1
 90
        0
176
     1
 62
     7
176
     1
 62
   257
176
     1
 90
        1
176
     1
 90
        1
176
     1
 40
1.0
176
     1
 90
        0
176
     1
 62
   257
176
     1
 40
1.0
176
     1
 90
        1
176
     1
 90
        6
176
     1
 90
        2
176
     1
 62
     7
176
     1
 90
        5
176
     1
 90
        0
176
     1
 90
        0
176
     1
290
     0
176
     1
 90
       13
176
     1
 40
0.0
176
     1
 90
        0
176
     1
290
     0
176
     1
290
     1
176
     1
290
     1
176
     1
290
     0
176
     1
290
     0
176
     1
290
     0
176
     1
290
     0
176
     1
290
     0
176
     1
290
     0
176
     1
 90
       50
176
     1
 40
0.0
176
     1
 40
1.0
176
     1
 90
        0
176
     1
 62
    18
420
        0
176
     1
 90
       50
176
     1
 90
        3
176
     1
 62
     5
420
      255
176
     1
290
     0
176
     1
 90
       50
176
     1
 90
       50
176
     1
 90
       50
176
     1
290
     0
176
     1
 90
       50
176
     1
 62
   256
176
     0
 40
1.0
176
     0
 90
        2
176
     1
  1
strokes_ogs.tif
176
     1
290
     0
176
     1
 40
1.0
176
     1
 40
1.0
176
     1
  0
VISUALSTYLE
  5
2D
102
{ACAD_REACTORS
330
2A
102
}
330
2A
100
AcDbVisualStyle
  2
Gouraud
 70
     2
177
     3
291
     1
 70
    58
 90
        2
176
     1
 90
        2
176
     1
 90
        1
176
     1
 90
        2
176
     1
 40
0.6
176
     1
 40
30.0
176
     1
 62
     7
420
 16777215
176
     1
 90
        0
176
     1
 90
        0
176
     1
 62
     7
176
     1
 62
   257
176
     1
 90
        1
176
     1
 90
        1
176
     1
 40
1.0
176
     1
 90
        0
176
     1
 62
     7
176
     1
 40
1.0
176
     1
 90
        1
176
     1
 90
        6
176
     1
 90
        2
176
     1
 62
     7
176
     1
 90
        5
176
     1
 90
        0
176
     1
 90
        0
176
     1
290
     0
176
     1
 90
       13
176
     1
 40
0.0
176
     1
 90
        0
176
     1
290
     0
176
     1
290
     1
176
     1
290
     1
176
     1
290
     0
176
     1
290
     0
176
     1
290
     0
176
     1
290
     0
176
     1
290
     0
176
     1
290
     0
176
     1
 90
       50
176
     1
 40
0.0
176
     1
 40
1.0
176
     1
 90
        0
176
     1
 62
    18
420
        0
176
     1
 90
       50
176
     1
 90
        3
176
     1
 62
     5
420
      255
176
     1
290
     0
176
     1
 90
       50
176
     1
 90
       50
176
     1
 90
       50
176
     1
290
     0
176
     1
 90
       50
176
     1
 62
   256
176
     0
 40
1.0
176
     0
 90
        2
176
     1
  1
strokes_ogs.tif
176
     1
290
     0
176
     1
 40
1.0
176
     1
 40
1.0
176
     1
  0
VISUALSTYLE
  5
2E
102
{ACAD_REACTORS
330
2A
102
}
330
2A
100
AcDbVisualStyle
  2
GouraudWithEdges
 70
     3
177
     3
291
     1
 70
    58
 90
        2
176
     1
 90
        2
176
     1
 90
        1
176
     1
 90
        2
176
     1
 40
0.6
176
     1
 40
30.0
176
     1
 62
     7
420
 16777215
176
     1
 90
        1
176
     1
 90
        0
176
     1
 62
     7
176
     1
 62
   257
176
     1
 90
        1
176
     1
 90
        1
176
     1
 40
1.0
176
     1
 90
        0
176
     1
 62
   257
176
     1
 40
1.0
176
     1
 90
        1
176
     1
 90
        6
176
     1
 90
        2
176
     1
 62
     7
176
     1
 90
        5
176
     1
 90
        0
176
     1
 90
        0
176
     1
290
     0
176
     1
 90
       13
176
     1
 40
0.0
176
     1
 90
        0
176
     1
290
     0
176
     1
290
     1
176
     1
290
     1
176
     1
290
     0
176
     1
290
     0
176
     1
290
     0
176
     1
290
     0
176
     1
290
     0
176
     1
290
     0
176
     1
 90
       50
176
     1
 40
0.0
176
     1
 40
1.0
176
     1
 90
        0
176
     1
 62
    18
420
        0
176
     1
 90
       50
176
     1
 90
        3
176
     1
 62
     5
420
      255
176
     1
290
     0
176
     1
 90
       50
176
     1
 90
       50
176
     1
 90
       50
176
     1
290
     0
176
     1
 90
       50
176
     1
 62
   256
176
     0
 40
1.0
176
     0
 90
        2
176
     1
  1
strokes_ogs.tif
176
     1
290
     0
176
     1
 40
1.0
176
     1
 40
1.0
176
     1
  0
VISUALSTYLE
  5
31
102
{ACAD_REACTORS
330
2A
102
}
330
2A
100
AcDbVisualStyle
  2
Hidden
 70
     6
177
     3
291
     0
 70
    58
 90
        1
176
     1
 90
        2
176
     1
 90
        2
176
     1
 90
        0
176
     1
 40
0.6
176
     1
 40
30.0
176
     1
 62
     7
420
 16777215
176
     1
 90
        2
176
     1
 90
        2
176
     1
 62
     7
176
     1
 62
   257
176
     1
 90
        2
176
     1
 90
        1
176
     1
 40
40.0
176
     1
 90
        0
176
     1
 62
   257
176
     1
 40
1.0
176
     1
 90
        1
176
     1
 90
        6
176
     1
 90
        2
176
     1
 62
     7
176
     1
 90
        3
176
     1
 90
        0
176
     1
 90
        0
176
     1
290
     0
176
     1
 90
        1
176
     1
 40
0.0
176
     1
 90
        0
176
     1
290
     0
176
     1
290
     1
176
     1
290
     1
176
     1
290
     0
176
     1
290
     0
176
     1
290
     0
176
     1
290
     0
176
     1
290
     0
176
     1
290
     0
176
     1
 90
       50
176
     1
 40
0.0
176
     1
 40
1.0
176
     1
 90
        0
176
     1
 62
    18
420
        0
176
     1
 90
       50
176
     1
 90
        3
176
     1
 62
     5
420
      255
176
     1
290
     0
176
     1
 90
       50
176
     1
 90
       50
176
     1
 90
       50
176
     1
290
     0
176
     1
 90
       50
176
     1
 62
   256
176
     0
 40
1.0
176
     0
 90
        2
176
     1
  1
strokes_ogs.tif
176
     1
290
     0
176
     1
 40
1.0
176
     1
 40
1.0
176
     1
  0
VISUALSTYLE
  5
3B
102
{ACAD_REACTORS
330
2A
102
}
330
2A
100
AcDbVisualStyle
  2
JitterOff
 70
    20
177
     3
291
     1
 70
    58
 90
        2
176
     0
 90
        2
176
     0
 90
        0
176
     0
 90
        0
176
     0
 40
0.6
176
     0
 40
30.0
176
     0
 62
     7
420
 16777215
176
     0
 90
        1
176
     0
 90
        4
176
     0
 62
     7
176
     0
 62
   257
176
     0
 90
        1
176
     0
 90
        1
176
     0
 40
1.0
176
     0
 90
       10
176
     2
 62
     7
176
     0
 40
1.0
176
     0
 90
        1
176
     0
 90
        6
176
     0
 90
        2
176
     0
 62
     7
176
     0
 90
        5
176
     0
 90
        0
176
     0
 90
        0
176
     0
290
     0
176
     0
 90
        1
176
     0
 40
0.0
176
     0
 90
        0
176
     0
290
     0
176
     0
290
     1
176
     0
290
     1
176
     0
290
     0
176
     0
290
     0
176
     0
290
     0
176
     0
290
     0
176
     0
290
     0
176
     0
290
     0
176
     0
 90
       50
176
     0
 40
0.0
176
     0
 40
1.0
176
     0
 90
        0
176
     0
 62
    18
420
        0
176
     0
 90
       50
176
     0
 90
        3
176
     0
 62
     5
420
      255
176
     0
290
     0
176
     0
 90
       50
176
     0
 90
       50
176
     0
 90
       50
176
     0
290
     0
176
     0
 90
       50
176
     0
 62
   256
176
     0
 40
1.0
176
     0
 90
        2
176
     0
  1
strokes_ogs.tif
176
     0
290
     0
176
     0
 40
1.0
176
     0
 40
1.0
176
     0
  0
VISUALSTYLE
  5
38
102
{ACAD_REACTORS
330
2A
102
}
330
2A
100
AcDbVisualStyle
  2
Linepattern
 70
    14
177
     3
291
     1
 70
    58
 90
        2
176
     1
 90
        2
176
     1
 90
        0
176
     1
 90
        0
176
     1
 40
0.6
176
     1
 40
30.0
176
     1
 62
     7
420
 16777215
176
     1
 90
        1
176
     1
 90
        4
176
     1
 62
     7
176
     1
 62
   257
176
     1
 90
        7
176
     1
 90
        7
176
     1
 40
1.0
176
     1
 90
        8
176
     1
 62
     7
176
     1
 40
1.0
176
     1
 90
        1
176
     1
 90
        6
176
     1
 90
        2
176
     1
 62
     7
176
     1
 90
        5
176
     1
 90
        0
176
     1
 90
        0
176
     1
290
     0
176
     1
 90
        1
176
     1
 40
0.0
176
     1
 90
        0
176
     1
290
     0
176
     1
290
     1
176
     1
290
     1
176
     1
290
     0
176
     1
290
     0
176
     1
290
     0
176
     1
290
     0
176
     1
290
     0
176
     1
290
     0
176
     1
 90
       50
176
     1
 40
0.0
176
     1
 40
1.0
176
     1
 90
        0
176
     1
 62
    18
420
        0
176
     1
 90
       50
176
     1
 90
        3
176
     1
 62
     5
420
      255
176
     1
290
     0
176
     1
 90
       50
176
     1
 90
       50
176
     1
 90
       50
176
     1
290
     0
176
     1
 90
       50
176
     1
 62
   256
176
     0
 40
1.0
176
     0
 90
        2
176
     1
  1
strokes_ogs.tif
176
     1
290
     0
176
     1
 40
1.0
176
     1
 40
1.0
176
     1
  0
VISUALSTYLE
  5
3C
102
{ACAD_REACTORS
330
2A
102
}
330
2A
100
AcDbVisualStyle
  2
OverhangOff
 70
    21
177
     3
291
     1
 70
    58
 90
        2
176
     0
 90
        2
176
     0
 90
        0
176
     0
 90
        0
176
     0
 40
0.6
176
     0
 40
30.0
176
     0
 62
     7
420
 16777215
176
     0
 90
        1
176
     0
 90
        4
176
     0
 62
     7
176
     0
 62
   257
176
     0
 90
        1
176
     0
 90
        1
176
     0
 40
1.0
176
     0
 90
        9
176
     2
 62
     7
176
     0
 40
1.0
176
     0
 90
        1
176
     0
 90
        6
176
     0
 90
        2
176
     0
 62
     7
176
     0
 90
        5
176
     0
 90
        0
176
     0
 90
        0
176
     0
290
     0
176
     0
 90
        1
176
     0
 40
0.0
176
     0
 90
        0
176
     0
290
     0
176
     0
290
     1
176
     0
290
     1
176
     0
290
     0
176
     0
290
     0
176
     0
290
     0
176
     0
290
     0
176
     0
290
     0
176
     0
290
     0
176
     0
 90
       50
176
     0
 40
0.0
176
     0
 40
1.0
176
     0
 90
        0
176
     0
 62
    18
420
        0
176
     0
 90
       50
176
     0
 90
        3
176
     0
 62
     5
420
      255
176
     0
290
     0
176
     0
 90
       50
176
     0
 90
       50
176
     0
 90
       50
176
     0
290
     0
176
     0
 90
       50
176
     0
 62
   256
176
     0
 40
1.0
176
     0
 90
        2
176
     0
  1
strokes_ogs.tif
176
     0
290
     0
176
     0
 40
1.0
176
     0
 40
1.0
176
     0
  0
VISUALSTYLE
  5
33
102
{ACAD_REACTORS
330
2A
102
}
330
2A
100
AcDbVisualStyle
  2
Realistic
 70
     8
177
     3
291
     0
 70
    58
 90
        2
176
     1
 90
        3
176
     1
 90
        0
176
     1
 90
        2
176
     1
 40
0.6
176
     1
 40
30.0
176
     1
 62
     7
420
 16777215
176
     1
 90
        0
176
     1
 90
        0
176
     1
 62
     7
176
     1
 62
   257
176
     1
 90
        1
176
     1
 90
        1
176
     1
 40
1.0
176
     1
 90
        8
176
     1
 62
   257
176
     1
 40
1.0
176
     1
 90
        1
176
     1
 90
        6
176
     1
 90
        2
176
     1
 62
     7
176
     1
 90
        3
176
     1
 90
        0
176
     1
 90
        0
176
     1
290
     0
176
     1
 90
       13
176
     1
 40
0.0
176
     1
 90
        0
176
     1
290
     0
176
     1
290
     1
176
     1
290
     1
176
     1
290
     0
176
     1
290
     0
176
     1
290
     0
176
     1
290
     0
176
     1
290
     0
176
     1
290
     0
176
     1
 90
       50
176
     1
 40
0.0
176
     1
 40
1.0
176
     1
 90
        0
176
     1
 62
    18
420
        0
176
     1
 90
       50
176
     1
 90
        3
176
     1
 62
     5
420
      255
176
     1
290
     0
176
     1
 90
       50
176
     1
 90
       50
176
     1
 90
       50
176
     1
290
     0
176
     1
 90
       50
176
     1
 62
   256
176
     0
 40
1.0
176
     0
 90
        2
176
     1
  1
strokes_ogs.tif
176
     1
290
     0
176
     1
 40
1.0
176
     1
 40
1.0
176
     1
  0
VISUALSTYLE
  5
42
102
{ACAD_REACTORS
330
2A
102
}
330
2A
100
AcDbVisualStyle
  2
Shaded
 70
    27
177
     3
291
     0
 70
    58
 90
        2
176
     1
 90
        2
176
     1
 90
        1
176
     1
 90
        2
176
     1
 40
0.6
176
     1
 40
30.0
176
     1
 62
     7
420
 16777215
176
     1
 90
        0
176
     1
 90
        4
176
     1
 62
     7
176
     1
 62
   257
176
     1
 90
        1
176
     1
 90
        1
176
     1
 40
1.0
176
     1
 90
        8
176
     1
 62
   257
176
     1
 40
1.0
176
     1
 90
        1
176
     1
 90
        6
176
     1
 90
        2
176
     1
 62
     8
420
  7895160
176
     1
 90
        3
176
     1
 90
        0
176
     1
 90
        0
176
     1
290
     0
176
     1
 90
        5
176
     1
 40
0.0
176
     1
 90
        0
176
     1
290
     0
176
     1
290
     1
176
     1
290
     1
176
     1
290
     0
176
     1
290
     0
176
     1
290
     0
176
     1
290
     0
176
     1
290
     0
176
     1
290
     0
176
     1
 90
       50
176
     1
 40
0.0
176
     1
 40
1.0
176
     1
 90
        0
176
     1
 62
    18
420
        0
176
     1
 90
       50
176
     1
 90
        3
176
     1
 62
     5
420
      255
176
     1
290
     0
176
     1
 90
       50
176
     1
 90
       50
176
     1
 90
       50
176
     1
290
     0
176
     1
 90
       50
176
     1
 62
   256
176
     0
 40
1.0
176
     0
 90
        2
176
     1
  1
strokes_ogs.tif
176
     1
290
     0
176
     1
 40
1.0
176
     1
 40
1.0
176
     1
  0
VISUALSTYLE
  5
41
102
{ACAD_REACTORS
330
2A
102
}
330
2A
100
AcDbVisualStyle
  2
Shaded with edges
 70
    26
177
     3
291
     0
 70
    58
 90
        2
176
     1
 90
        2
176
     1
 90
        1
176
     1
 90
        2
176
     1
 40
0.6
176
     1
 40
30.0
176
     1
 62
     7
420
 16777215
176
     1
 90
        1
176
     1
 90
       10
176
     1
 62
     7
176
     1
 62
   257
176
     1
 90
        2
176
     1
 90
        1
176
     1
 40
1.0
176
     1
 90
        8
176
     1
 62
   257
176
     1
 40
1.0
176
     1
 90
        1
176
     1
 90
        6
176
     1
 90
        2
176
     1
 62
     7
176
     1
 90
        3
176
     1
 90
        0
176
     1
 90
        0
176
     1
290
     0
176
     1
 90
        5
176
     1
 40
0.0
176
     1
 90
        0
176
     1
290
     0
176
     1
290
     1
176
     1
290
     1
176
     1
290
     0
176
     1
290
     0
176
     1
290
     0
176
     1
290
     0
176
     1
290
     0
176
     1
290
     0
176
     1
 90
       50
176
     1
 40
0.0
176
     1
 40
1.0
176
     1
 90
        0
176
     1
 62
    18
420
        0
176
     1
 90
       50
176
     1
 90
        3
176
     1
 62
     5
420
      255
176
     1
290
     0
176
     1
 90
       50
176
     1
 90
       50
176
     1
 90
       50
176
     1
290
     0
176
     1
 90
       50
176
     1
 62
   256
176
     0
 40
1.0
176
     0
 90
        2
176
     1
  1
strokes_ogs.tif
176
     1
290
     0
176
     1
 40
1.0
176
     1
 40
1.0
176
     1
  0
VISUALSTYLE
  5
3E
102
{ACAD_REACTORS
330
2A
102
}
330
2A
100
AcDbVisualStyle
  2
Shades of Gray
 70
    23
177
     3
291
     0
 70
    58
 90
        2
176
     1
 90
        2
176
     1
 90
        3
176
     1
 90
        0
176
     1
 40
0.6
176
     1
 40
30.0
176
     1
 62
     7
420
 16777215
176
     1
 90
        2
176
     1
 90
        2
176
     1
 62
     7
176
     1
 62
     7
176
     1
 90
        1
176
     1
 90
        1
176
     1
 40
40.0
176
     1
 90
        8
176
     1
 62
     7
176
     1
 40
1.0
176
     1
 90
        1
176
     1
 90
        6
176
     1
 90
        2
176
     1
 62
     7
176
     1
 90
        3
176
     1
 90
        0
176
     1
 90
        0
176
     1
290
     0
176
     1
 90
        1
176
     1
 40
0.0
176
     1
 90
        0
176
     1
290
     0
176
     1
290
     1
176
     1
290
     1
176
     1
290
     0
176
     1
290
     0
176
     1
290
     0
176
     1
290
     0
176
     1
290
     0
176
     1
290
     0
176
     1
 90
       50
176
     1
 40
0.0
176
     1
 40
1.0
176
     1
 90
        0
176
     1
 62
    18
420
        0
176
     1
 90
       50
176
     1
 90
        3
176
     1
 62
     5
420
      255
176
     1
290
     0
176
     1
 90
       50
176
     1
 90
       50
176
     1
 90
       50
176
     1
290
     0
176
     1
 90
       50
176
     1
 62
   256
176
     0
 40
1.0
176
     0
 90
        2
176
     1
  1
strokes_ogs.tif
176
     1
290
     0
176
     1
 40
1.0
176
     1
 40
1.0
176
     1
  0
VISUALSTYLE
  5
3F
102
{ACAD_REACTORS
330
2A
102
}
330
2A
100
AcDbVisualStyle
  2
Sketchy
 70
    24
177
     3
291
     0
 70
    58
 90
        1
176
     1
 90
        2
176
     1
 90
        2
176
     1
 90
        0
176
     1
 40
0.6
176
     1
 40
30.0
176
     1
 62
     7
420
 16777215
176
     1
 90
        2
176
     1
 90
        2
176
     1
 62
     7
176
     1
 62
     7
176
     1
 90
        1
176
     1
 90
        1
176
     1
 40
40.0
176
     1
 90
       11
176
     1
 62
     7
176
     1
 40
1.0
176
     1
 90
        1
176
     1
 90
        6
176
     1
 90
        2
176
     1
 62
     7
176
     1
 90
        6
176
     1
 90
        0
176
     1
 90
        0
176
     1
290
     0
176
     1
 90
        1
176
     1
 40
0.0
176
     1
 90
        0
176
     1
290
     0
176
     1
290
     1
176
     1
290
     1
176
     1
290
     0
176
     1
290
     0
176
     1
290
     0
176
     1
290
     0
176
     1
290
     0
176
     1
290
     0
176
     1
 90
       50
176
     1
 40
0.0
176
     1
 40
1.0
176
     1
 90
        0
176
     1
 62
    18
420
        0
176
     1
 90
       50
176
     1
 90
        3
176
     1
 62
     5
420
      255
176
     1
290
     0
176
     1
 90
       50
176
     1
 90
       50
176
     1
 90
       50
176
     1
290
     0
176
     1
 90
       50
176
     1
 62
   256
176
     0
 40
1.0
176
     0
 90
        2
176
     1
  1
strokes_ogs.tif
176
     1
290
     0
176
     1
 40
1.0
176
     1
 40
1.0
176
     1
  0
VISUALSTYLE
  5
37
102
{ACAD_REACTORS
330
2A
102
}
330
2A
100
AcDbVisualStyle
  2
Thicken
 70
    13
177
     3
291
     1
 70
    58
 90
        2
176
     1
 90
        2
176
     1
 90
        0
176
     1
 90
        0
176
     1
 40
0.6
176
     1
 40
30.0
176
     1
 62
     7
420
 16777215
176
     1
 90
        1
176
     1
 90
        4
176
     1
 62
     7
176
     1
 62
   257
176
     1
 90
        1
176
     1
 90
        1
176
     1
 40
1.0
176
     1
 90
       12
176
     1
 62
     7
176
     1
 40
1.0
176
     1
 90
        1
176
     1
 90
        6
176
     1
 90
        2
176
     1
 62
     7
176
     1
 90
        5
176
     1
 90
        0
176
     1
 90
        0
176
     1
290
     0
176
     1
 90
        1
176
     1
 40
0.0
176
     1
 90
        0
176
     1
290
     0
176
     1
290
     1
176
     1
290
     1
176
     1
290
     0
176
     1
290
     0
176
     1
290
     0
176
     1
290
     0
176
     1
290
     0
176
     1
290
     0
176
     1
 90
       50
176
     1
 40
0.0
176
     1
 40
1.0
176
     1
 90
        0
176
     1
 62
    18
420
        0
176
     1
 90
       50
176
     1
 90
        3
176
     1
 62
     5
420
      255
176
     1
290
     0
176
     1
 90
       50
176
     1
 90
       50
176
     1
 90
       50
176
     1
290
     0
176
     1
 90
       50
176
     1
 62
   256
176
     0
 40
1.0
176
     0
 90
        2
176
     1
  1
strokes_ogs.tif
176
     1
290
     0
176
     1
 40
1.0
176
     1
 40
1.0
176
     1
  0
VISUALSTYLE
  5
30
102
{ACAD_REACTORS
330
2A
102
}
330
2A
100
AcDbVisualStyle
  2
Wireframe
 70
     5
177
     3
291
     0
 70
    58
 90
        0
176
     1
 90
        2
176
     1
 90
        0
176
     1
 90
        0
176
     1
 40
0.6
176
     1
 40
30.0
176
     1
 62
     7
420
 16777215
176
     1
 90
        1
176
     1
 90
        4
176
     1
 62
     7
176
     1
 62
   257
176
     1
 90
        1
176
     1
 90
        1
176
     1
 40
1.0
176
     1
 90
        0
176
     1
 62
   257
176
     1
 40
1.0
176
     1
 90
        1
176
     1
 90
        6
176
     1
 90
        2
176
     1
 62
     7
176
     1
 90
        3
176
     1
 90
        0
176
     1
 90
        0
176
     1
290
     0
176
     1
 90
        1
176
     1
 40
0.0
176
     1
 90
        0
176
     1
290
     0
176
     1
290
     1
176
     1
290
     1
176
     1
290
     0
176
     1
290
     0
176
     1
290
     0
176
     1
290
     0
176
     1
290
     0
176
     1
290
     0
176
     1
 90
       50
176
     1
 40
0.0
176
     1
 40
1.0
176
     1
 90
        0
176
     1
 62
    18
420
        0
176
     1
 90
       50
176
     1
 90
        3
176
     1
 62
     5
420
      255
176
     1
290
     0
176
     1
 90
       50
176
     1
 90
       50
176
     1
 90
       50
176
     1
290
     0
176
     1
 90
       50
176
     1
 62
   256
176
     0
 40
1.0
176
     0
 90
        2
176
     1
  1
strokes_ogs.tif
176
     1
290
     0
176
     1
 40
1.0
176
     1
 40
1.0
176
     1
  0
VISUALSTYLE
  5
40
102
{ACAD_REACTORS
330
2A
102
}
330
2A
100
AcDbVisualStyle
  2
X-Ray
 70
    25
177
     3
291
     0
 70
    58
 90
        2
176
     1
 90
        2
176
     1
 90
        1
176
     1
 90
        1
176
     1
 40
0.5
176
     1
 40
30.0
176
     1
 62
     7
420
 16777215
176
     1
 90
        1
176
     1
 90
        0
176
     1
 62
     7
176
     1
 62
   257
176
     1
 90
        1
176
     1
 90
        1
176
     1
 40
1.0
176
     1
 90
        8
176
     1
 62
     7
176
     1
 40
1.0
176
     1
 90
        1
176
     1
 90
        6
176
     1
 90
        2
176
     1
 62
     7
176
     1
 90
        3
176
     1
 90
        0
176
     1
 90
        0
176
     1
290
     0
176
     1
 90
       13
176
     1
 40
0.0
176
     1
 90
        0
176
     1
290
     0
176
     1
290
     1
176
     1
290
     1
176
     1
290
     0
176
     1
290
     0
176
     1
290
     0
176
     1
290
     0
176
     1
290
     0
176
     1
290
     0
176
     1
 90
       50
176
     1
 40
0.0
176
     1
 40
1.0
176
     1
 90
        0
176
     1
 62
    18
420
        0
176
     1
 90
       50
176
     1
 90
        3
176
     1
 62
     5
420
      255
176
     1
290
     0
176
     1
 90
       50
176
     1
 90
       50
176
     1
 90
       50
176
     1
290
     0
176
     1
 90
       50
176
     1
 62
   256
176
     0
 40
1.0
176
     0
 90
        2
176
     1
  1
strokes_ogs.tif
176
     1
290
     0
176
     1
 40
1.0
176
     1
 40
1.0
176
     1
  0
DICTIONARYVAR
  5
1AB
102
{ACAD_REACTORS
330
1AA
102
}
330
1AA
100
DictionaryVariables
280
     0
  1
1:1
  0
DICTIONARYVAR
  5
1B3
102
{ACAD_REACTORS
330
1AA
102
}
330
1AA
100
DictionaryVariables
280
     0
  1
3.500000
  0
DICTIONARYVAR
  5
1B4
102
{ACAD_REACTORS
330
1AA
102
}
330
1AA
100
DictionaryVariables
280
     0
  1
acadiso.lin
  0
DICTIONARYVAR
  5
1B0
102
{ACAD_REACTORS
330
1AA
102
}
330
1AA
100
DictionaryVariables
280
     0
  1
Standard
  0
DICTIONARYVAR
  5
1AF
102
{ACAD_REACTORS
330
1AA
102
}
330
1AA
100
DictionaryVariables
280
     0
  1
Standard
  0
DICTIONARY
  5
1AC
330
5A
100
AcDbDictionary
280
     1
281
     1
  3
ACAD_ROUNDTRIP_2008_TABLESTYLE_CELLSTYLEMAP
360
1AD
  0
CELLSTYLEMAP
  5
1AD
102
{ACAD_REACTORS
330
1AC
102
}
330
1AC
100
AcDbCellStyleMap
 90
        3
300
CELLSTYLE
  1
TABLEFORMAT_BEGIN
 90
        5
170
     1
 91
        0
 92
    32768
 62
   257
 93
        1
300
CONTENTFORMAT
  1
CONTENTFORMAT_BEGIN
 90
        0
 91
        0
 92
        4
 93
        0
300

 40
0.0
140
1.0
 94
        5
 62
     0
340
11
144
6.0
309
CONTENTFORMAT_END
171
     1
301
MARGIN
  1
CELLMARGIN_BEGIN
 40
1.5
 40
1.5
 40
1.5
 40
1.5
 40
1.5
 40
1.5
309
CELLMARGIN_END
 94
        6
 95
        1
302
GRIDFORMAT
  1
GRIDFORMAT_BEGIN
 90
        0
 91
        1
 62
     0
 92
       -2
340
14
 93
        0
 40
0.045
309
GRIDFORMAT_END
 95
        2
302
GRIDFORMAT
  1
GRIDFORMAT_BEGIN
 90
        0
 91
        1
 62
     0
 92
       -2
340
14
 93
        0
 40
0.045
309
GRIDFORMAT_END
 95
        4
302
GRIDFORMAT
  1
GRIDFORMAT_BEGIN
 90
        0
 91
        1
 62
     0
 92
       -2
340
14
 93
        0
 40
0.045
309
GRIDFORMAT_END
 95
        8
302
GRIDFORMAT
  1
GRIDFORMAT_BEGIN
 90
        0
 91
        1
 62
     0
 92
       -2
340
14
 93
        0
 40
0.045
309
GRIDFORMAT_END
 95
       16
302
GRIDFORMAT
  1
GRIDFORMAT_BEGIN
 90
        0
 91
        1
 62
     0
 92
       -2
340
14
 93
        0
 40
0.045
309
GRIDFORMAT_END
 95
       32
302
GRIDFORMAT
  1
GRIDFORMAT_BEGIN
 90
        0
 91
        1
 62
     0
 92
       -2
340
14
 93
        0
 40
0.045
309
GRIDFORMAT_END
309
TABLEFORMAT_END
  1
CELLSTYLE_BEGIN
 90
        1
 91
        1
300
_TITLE
309
CELLSTYLE_END
300
CELLSTYLE
  1
TABLEFORMAT_BEGIN
 90
        5
170
     1
 91
        0
 92
        0
 62
   257
 93
        1
300
CONTENTFORMAT
  1
CONTENTFORMAT_BEGIN
 90
        0
 91
        0
 92
        4
 93
        0
300

 40
0.0
140
1.0
 94
        5
 62
     0
340
11
144
4.5
309
CONTENTFORMAT_END
171
     1
301
MARGIN
  1
CELLMARGIN_BEGIN
 40
1.5
 40
1.5
 40
1.5
 40
1.5
 40
1.5
 40
1.5
309
CELLMARGIN_END
 94
        6
 95
        1
302
GRIDFORMAT
  1
GRIDFORMAT_BEGIN
 90
        0
 91
        1
 62
     0
 92
       -2
340
14
 93
        0
 40
0.045
309
GRIDFORMAT_END
 95
        2
302
GRIDFORMAT
  1
GRIDFORMAT_BEGIN
 90
        0
 91
        1
 62
     0
 92
       -2
340
14
 93
        0
 40
0.045
309
GRIDFORMAT_END
 95
        4
302
GRIDFORMAT
  1
GRIDFORMAT_BEGIN
 90
        0
 91
        1
 62
     0
 92
       -2
340
14
 93
        0
 40
0.045
309
GRIDFORMAT_END
 95
        8
302
GRIDFORMAT
  1
GRIDFORMAT_BEGIN
 90
        0
 91
        1
 62
     0
 92
       -2
340
14
 93
        0
 40
0.045
309
GRIDFORMAT_END
 95
       16
302
GRIDFORMAT
  1
GRIDFORMAT_BEGIN
 90
        0
 91
        1
 62
     0
 92
       -2
340
14
 93
        0
 40
0.045
309
GRIDFORMAT_END
 95
       32
302
GRIDFORMAT
  1
GRIDFORMAT_BEGIN
 90
        0
 91
        1
 62
     0
 92
       -2
340
14
 93
        0
 40
0.045
309
GRIDFORMAT_END
309
TABLEFORMAT_END
  1
CELLSTYLE_BEGIN
 90
        2
 91
        1
300
_HEADER
309
CELLSTYLE_END
300
CELLSTYLE
  1
TABLEFORMAT_BEGIN
 90
        5
170
     1
 91
        0
 92
        0
 62
   257
 93
        1
300
CONTENTFORMAT
  1
CONTENTFORMAT_BEGIN
 90
        0
 91
        0
 92
        4
 93
        0
300

 40
0.0
140
1.0
 94
        2
 62
     0
340
11
144
4.5
309
CONTENTFORMAT_END
171
     1
301
MARGIN
  1
CELLMARGIN_BEGIN
 40
1.5
 40
1.5
 40
1.5
 40
1.5
 40
1.5
 40
1.5
309
CELLMARGIN_END
 94
        6
 95
        1
302
GRIDFORMAT
  1
GRIDFORMAT_BEGIN
 90
        0
 91
        1
 62
     0
 92
       -2
340
14
 93
        0
 40
0.045
309
GRIDFORMAT_END
 95
        2
302
GRIDFORMAT
  1
GRIDFORMAT_BEGIN
 90
        0
 91
        1
 62
     0
 92
       -2
340
14
 93
        0
 40
0.045
309
GRIDFORMAT_END
 95
        4
302
GRIDFORMAT
  1
GRIDFORMAT_BEGIN
 90
        0
 91
        1
 62
     0
 92
       -2
340
14
 93
        0
 40
0.045
309
GRIDFORMAT_END
 95
        8
302
GRIDFORMAT
  1
GRIDFORMAT_BEGIN
 90
        0
 91
        1
 62
     0
 92
       -2
340
14
 93
        0
 40
0.045
309
GRIDFORMAT_END
 95
       16
302
GRIDFORMAT
  1
GRIDFORMAT_BEGIN
 90
        0
 91
        1
 62
     0
 92
       -2
340
14
 93
        0
 40
0.045
309
GRIDFORMAT_END
 95
       32
302
GRIDFORMAT
  1
GRIDFORMAT_BEGIN
 90
        0
 91
        1
 62
     0
 92
       -2
340
14
 93
        0
 40
0.045
309
GRIDFORMAT_END
309
TABLEFORMAT_END
  1
CELLSTYLE_BEGIN
 90
        3
 91
        2
300
_DATA
309
CELLSTYLE_END
  0
ENDSEC
  0
EOF
