  0
SECTION
  2
HEADER
  9
$ACADVER
  1
AC1027
  9
$ACADMAINTVER
 70
   105
  9
$DWGCODEPAGE
  3
ANSI_1252
  9
$COMMENTS
  1
File was created by Cadenas
  9
$LASTSAVEDBY
  1
psService
  9
$CUSTOMPROPERTYTAG
  1
NB
  9
$CUSTOMPROPERTY
  1
FCA42AAVJU-BYCQ54GEGFU
  9
$CUSTOMPROPERTYTAG
  1
NN
  9
$CUSTOMPROPERTY
  1
(R32) Cassette Sky-Air Daikin FCA
  9
$CUSTOMPROPERTYTAG
  1
NT
  9
$CUSTOMPROPERTY
  1

  9
$CUSTOMPROPERTYTAG
  1
NBSYN
  9
$CUSTOMPROPERTY
  1
$PARTNUMBER.
  9
$CUSTOMPROPERTYTAG
  1
LINA
  9
$CUSTOMPROPERTY
  1
FCA42AAVJU-BYCQ54GEGFU
  9
$CUSTOMPROPERTYTAG
  1
CATALOG
  9
$CUSTOMPROPERTY
  1
Daikin
  9
$CUSTOMPROPERTYTAG
  1
PARTNUMBER
  9
$CUSTOMPROPERTY
  1
FCA42AAVJU-BYCQ54GEGFU
  9
$CUSTOMPROPERTYTAG
  1
DESCRIPTION
  9
$CUSTOMPROPERTY
  1
Air Conditioner Ducted Round Flow Cassette
  9
$CUSTOMPROPERTYTAG
  1
OVERALL_DEPTH
  9
$CUSTOMPROPERTY
  1
33.0625
  9
$CUSTOMPROPERTYTAG
  1
OVERALL_HEIGHT
  9
$CUSTOMPROPERTY
  1
11.3438
  9
$CUSTOMPROPERTYTAG
  1
OVERALL_WIDTH
  9
$CUSTOMPROPERTY
  1
33.0625
  9
$CUSTOMPROPERTYTAG
  1
URL
  9
$CUSTOMPROPERTY
  1
https://daikincomfort.com/
  9
$CUSTOMPROPERTYTAG
  1
RFA_FAMILY
  9
$CUSTOMPROPERTY
  1
Download Revit Family (RFA)
  9
$CUSTOMPROPERTYTAG
  1
COMPANY
  9
$CUSTOMPROPERTY
  1
daikin
  9
$REQUIREDVERSIONS
160
                 0
  9
$INSBASE
 10
0.0
 20
0.0
 30
0.0
  9
$EXTMIN
 10
-474.6630052661254
 20
-39.68750004764838
 30
0.0
  9
$EXTMAX
 10
486.5799388304297
 20
379.1241737287172
 30
0.0
  9
$LIMMIN
 10
0.0
 20
0.0
  9
$LIMMAX
 10
420.0
 20
297.0
  9
$ORTHOMODE
 70
     0
  9
$REGENMODE
 70
     1
  9
$FILLMODE
 70
     1
  9
$QTEXTMODE
 70
     0
  9
$MIRRTEXT
 70
     1
  9
$LTSCALE
 40
1.0
  9
$ATTMODE
 70
     1
  9
$TEXTSIZE
 40
2.5
  9
$TRACEWID
 40
1.0
  9
$TEXTSTYLE
  7
Standard
  9
$CLAYER
  8
0
  9
$CELTYPE
  6
ByLayer
  9
$CECOLOR
 62
   256
  9
$CELTSCALE
 40
1.0
  9
$DISPSILH
 70
     0
  9
$DIMSCALE
 40
1.0
  9
$DIMASZ
 40
2.5
  9
$DIMEXO
 40
0.625
  9
$DIMDLI
 40
3.75
  9
$DIMRND
 40
0.0
  9
$DIMDLE
 40
0.0
  9
$DIMEXE
 40
1.25
  9
$DIMTP
 40
0.0
  9
$DIMTM
 40
0.0
  9
$DIMTXT
 40
2.5
  9
$DIMCEN
 40
2.5
  9
$DIMTSZ
 40
0.0
  9
$DIMTOL
 70
     0
  9
$DIMLIM
 70
     0
  9
$DIMTIH
 70
     0
  9
$DIMTOH
 70
     0
  9
$DIMSE1
 70
     0
  9
$DIMSE2
 70
     0
  9
$DIMTAD
 70
     1
  9
$DIMZIN
 70
     8
  9
$DIMBLK
  1

  9
$DIMASO
 70
     1
  9
$DIMSHO
 70
     1
  9
$DIMPOST
  1

  9
$DIMAPOST
  1

  9
$DIMALT
 70
     0
  9
$DIMALTD
 70
     3
  9
$DIMALTF
 40
0.03937007874016
  9
$DIMLFAC
 40
1.0
  9
$DIMTOFL
 70
     1
  9
$DIMTVP
 40
0.0
  9
$DIMTIX
 70
     0
  9
$DIMSOXD
 70
     0
  9
$DIMSAH
 70
     0
  9
$DIMBLK1
  1

  9
$DIMBLK2
  1

  9
$DIMSTYLE
  2
ISO-25
  9
$DIMCLRD
 70
     0
  9
$DIMCLRE
 70
     0
  9
$DIMCLRT
 70
     0
  9
$DIMTFAC
 40
1.0
  9
$DIMGAP
 40
0.625
  9
$DIMJUST
 70
     0
  9
$DIMSD1
 70
     0
  9
$DIMSD2
 70
     0
  9
$DIMTOLJ
 70
     0
  9
$DIMTZIN
 70
     8
  9
$DIMALTZ
 70
     0
  9
$DIMALTTZ
 70
     0
  9
$DIMUPT
 70
     0
  9
$DIMDEC
 70
     2
  9
$DIMTDEC
 70
     2
  9
$DIMALTU
 70
     2
  9
$DIMALTTD
 70
     3
  9
$DIMTXSTY
  7
Standard
  9
$DIMAUNIT
 70
     0
  9
$DIMADEC
 70
     0
  9
$DIMALTRND
 40
0.0
  9
$DIMAZIN
 70
     0
  9
$DIMDSEP
 70
    44
  9
$DIMATFIT
 70
     3
  9
$DIMFRAC
 70
     0
  9
$DIMLDRBLK
  1

  9
$DIMLUNIT
 70
     2
  9
$DIMLWD
 70
    -2
  9
$DIMLWE
 70
    -2
  9
$DIMTMOVE
 70
     0
  9
$DIMFXL
 40
1.0
  9
$DIMFXLON
 70
     0
  9
$DIMJOGANG
 40
0.7853981633974483
  9
$DIMTFILL
 70
     0
  9
$DIMTFILLCLR
 70
     0
  9
$DIMARCSYM
 70
     0
  9
$DIMLTYPE
  6

  9
$DIMLTEX1
  6

  9
$DIMLTEX2
  6

  9
$DIMTXTDIRECTION
 70
     0
  9
$LUNITS
 70
     2
  9
$LUPREC
 70
     4
  9
$SKETCHINC
 40
1.0
  9
$FILLETRAD
 40
0.0
  9
$AUNITS
 70
     0
  9
$AUPREC
 70
     0
  9
$MENU
  1
.
  9
$ELEVATION
 40
0.0
  9
$PELEVATION
 40
0.0
  9
$THICKNESS
 40
0.0
  9
$LIMCHECK
 70
     0
  9
$CHAMFERA
 40
0.0
  9
$CHAMFERB
 40
0.0
  9
$CHAMFERC
 40
0.0
  9
$CHAMFERD
 40
0.0
  9
$SKPOLY
 70
     0
  9
$TDCREATE
 40
2461206.705850243
  9
$TDUCREATE
 40
2461206.62251691
  9
$TDUPDATE
 40
2461206.705850243
  9
$TDUUPDATE
 40
2461206.62251691
  9
$TDINDWG
 40
0.0000000116
  9
$TDUSRTIMER
 40
0.0000000116
  9
$USRTIMER
 70
     1
  9
$ANGBASE
 50
0.0
  9
$ANGDIR
 70
     0
  9
$PDMODE
 70
     0
  9
$PDSIZE
 40
0.0
  9
$PLINEWID
 40
0.0
  9
$SPLFRAME
 70
     0
  9
$SPLINETYPE
 70
     6
  9
$SPLINESEGS
 70
     8
  9
$HANDSEED
  5
1F6
  9
$SURFTAB1
 70
     6
  9
$SURFTAB2
 70
     6
  9
$SURFTYPE
 70
     6
  9
$SURFU
 70
     6
  9
$SURFV
 70
     6
  9
$UCSBASE
  2

  9
$UCSNAME
  2

  9
$UCSORG
 10
0.0
 20
0.0
 30
0.0
  9
$UCSXDIR
 10
1.0
 20
0.0
 30
0.0
  9
$UCSYDIR
 10
0.0
 20
1.0
 30
0.0
  9
$UCSORTHOREF
  2

  9
$UCSORTHOVIEW
 70
     0
  9
$UCSORGTOP
 10
0.0
 20
0.0
 30
0.0
  9
$UCSORGBOTTOM
 10
0.0
 20
0.0
 30
0.0
  9
$UCSORGLEFT
 10
0.0
 20
0.0
 30
0.0
  9
$UCSORGRIGHT
 10
0.0
 20
0.0
 30
0.0
  9
$UCSORGFRONT
 10
0.0
 20
0.0
 30
0.0
  9
$UCSORGBACK
 10
0.0
 20
0.0
 30
0.0
  9
$PUCSBASE
  2

  9
$PUCSNAME
  2

  9
$PUCSORG
 10
0.0
 20
0.0
 30
0.0
  9
$PUCSXDIR
 10
1.0
 20
0.0
 30
0.0
  9
$PUCSYDIR
 10
0.0
 20
1.0
 30
0.0
  9
$PUCSORTHOREF
  2

  9
$PUCSORTHOVIEW
 70
     0
  9
$PUCSORGTOP
 10
0.0
 20
0.0
 30
0.0
  9
$PUCSORGBOTTOM
 10
0.0
 20
0.0
 30
0.0
  9
$PUCSORGLEFT
 10
0.0
 20
0.0
 30
0.0
  9
$PUCSORGRIGHT
 10
0.0
 20
0.0
 30
0.0
  9
$PUCSORGFRONT
 10
0.0
 20
0.0
 30
0.0
  9
$PUCSORGBACK
 10
0.0
 20
0.0
 30
0.0
  9
$USERI1
 70
     0
  9
$USERI2
 70
     0
  9
$USERI3
 70
     0
  9
$USERI4
 70
     0
  9
$USERI5
 70
     0
  9
$USERR1
 40
0.0
  9
$USERR2
 40
0.0
  9
$USERR3
 40
0.0
  9
$USERR4
 40
0.0
  9
$USERR5
 40
0.0
  9
$WORLDVIEW
 70
     1
  9
$SHADEDGE
 70
     3
  9
$SHADEDIF
 70
    70
  9
$TILEMODE
 70
     1
  9
$MAXACTVP
 70
    64
  9
$PINSBASE
 10
0.0
 20
0.0
 30
0.0
  9
$PLIMCHECK
 70
     0
  9
$PEXTMIN
 10
1.000000000000000E+20
 20
1.000000000000000E+20
 30
1.000000000000000E+20
  9
$PEXTMAX
 10
-1.000000000000000E+20
 20
-1.000000000000000E+20
 30
-1.000000000000000E+20
  9
$PLIMMIN
 10
0.0
 20
0.0
  9
$PLIMMAX
 10
420.0
 20
297.0
  9
$UNITMODE
 70
     0
  9
$VISRETAIN
 70
     1
  9
$PLINEGEN
 70
     0
  9
$PSLTSCALE
 70
     1
  9
$TREEDEPTH
 70
  3020
  9
$CMLSTYLE
  2
Standard
  9
$CMLJUST
 70
     0
  9
$CMLSCALE
 40
20.0
  9
$PROXYGRAPHICS
 70
     1
  9
$MEASUREMENT
 70
     1
  9
$CELWEIGHT
370
    -1
  9
$ENDCAPS
280
     0
  9
$JOINSTYLE
280
     0
  9
$LWDISPLAY
290
     0
  9
$INSUNITS
 70
     4
  9
$HYPERLINKBASE
  1

  9
$STYLESHEET
  1

  9
$XEDIT
290
     1
  9
$CEPSNTYPE
380
     0
  9
$PSTYLEMODE
290
     1
  9
$FINGERPRINTGUID
  2
{e8c7d9d0-d27f-4441-aefe-cfb04ad998c0}
  9
$VERSIONGUID
  2
{FAEB1C32-E019-11D5-929B-00C0DF256EC4}
  9
$EXTNAMES
290
     1
  9
$PSVPSCALE
 40
0.0
  9
$OLESTARTUP
290
     0
  9
$SORTENTS
280
   127
  9
$INDEXCTL
280
     0
  9
$HIDETEXT
280
     1
  9
$XCLIPFRAME
280
     2
  9
$HALOGAP
280
     0
  9
$OBSCOLOR
 70
   257
  9
$OBSLTYPE
280
     0
  9
$INTERSECTIONDISPLAY
280
     0
  9
$INTERSECTIONCOLOR
 70
   257
  9
$DIMASSOC
280
     2
  9
$PROJECTNAME
  1

  9
$CAMERADISPLAY
290
     0
  9
$LENSLENGTH
 40
50.0
  9
$CAMERAHEIGHT
 40
0.0
  9
$STEPSPERSEC
 40
2.0
  9
$STEPSIZE
 40
6.0
  9
$3DDWFPREC
 40
2.0
  9
$PSOLWIDTH
 40
5.0
  9
$PSOLHEIGHT
 40
80.0
  9
$LOFTANG1
 40
1.570796326794897
  9
$LOFTANG2
 40
1.570796326794897
  9
$LOFTMAG1
 40
0.0
  9
$LOFTMAG2
 40
0.0
  9
$LOFTPARAM
 70
     7
  9
$LOFTNORMALS
280
     1
  9
$LATITUDE
 40
37.795
  9
$LONGITUDE
 40
-122.394
  9
$NORTHDIRECTION
 40
0.0
  9
$TIMEZONE
 70
 -8000
  9
$LIGHTGLYPHDISPLAY
280
     1
  9
$TILEMODELIGHTSYNCH
280
     1
  9
$CMATERIAL
347
44
  9
$SOLIDHIST
280
     0
  9
$SHOWHIST
280
     1
  9
$DWFFRAME
280
     2
  9
$DGNFRAME
280
     2
  9
$REALWORLDSCALE
290
     1
  9
$INTERFERECOLOR
 62
   256
  9
$CSHADOW
280
     0
  9
$SHADOWPLANELOCATION
 40
0.0
  0
ENDSEC
  0
SECTION
  2
CLASSES
  0
CLASS
  1
ACDBDICTIONARYWDFLT
  2
AcDbDictionaryWithDefault
  3
ObjectDBX Classes
 90
        0
 91
        3
280
     0
281
     0
  0
CLASS
  1
VISUALSTYLE
  2
AcDbVisualStyle
  3
ObjectDBX Classes
 90
     4095
 91
        3
280
     0
281
     0
  0
CLASS
  1
MATERIAL
  2
AcDbMaterial
  3
ObjectDBX Classes
 90
     1153
 91
        3
280
     0
281
     0
  0
CLASS
  1
SCALE
  2
AcDbScale
  3
ObjectDBX Classes
 90
     1153
 91
        3
280
     0
281
     0
  0
CLASS
  1
TABLESTYLE
  2
AcDbTableStyle
  3
ObjectDBX Classes
 90
     4095
 91
        3
280
     0
281
     0
  0
CLASS
  1
MLEADERSTYLE
  2
AcDbMLeaderStyle
  3
ACDB_MLEADERSTYLE_CLASS
 90
     4095
 91
        3
280
     0
281
     0
  0
CLASS
  1
SUN
  2
AcDbSun
  3
SCENEOE
 90
     1153
 91
        3
280
     0
281
     0
  0
CLASS
  1
DICTIONARYVAR
  2
AcDbDictionaryVar
  3
ObjectDBX Classes
 90
        0
 91
        3
280
     0
281
     0
  0
CLASS
  1
CELLSTYLEMAP
  2
AcDbCellStyleMap
  3
ObjectDBX Classes
 90
     1152
 91
        3
280
     0
281
     0
  0
ENDSEC
  0
SECTION
  2
TABLES
  0
TABLE
  2
VPORT
  5
8
330
0
100
AcDbSymbolTable
 70
     1
  0
VPORT
  5
29
330
8
100
AcDbSymbolTableRecord
100
AcDbViewportTableRecord
  2
*Active
 70
     0
 10
0.0
 20
0.0
 11
1.0
 21
1.0
 12
6.000161697406327
 22
169.7673198913818
 13
0.0
 23
0.0
 14
10.0
 24
10.0
 15
10.0
 25
10.0
 16
0.0
 26
0.0
 36
1.0
 17
0.0
 27
0.0
 37
0.0
 40
427.2878326756216
 41
2.294829821072855
 42
50.0
 43
0.0
 44
0.0
 50
0.0
 51
0.0
 71
     0
 72
   100
 73
     1
 74
     3
 75
     0
 76
     0
 77
     0
 78
     0
281
     0
 65
     1
110
0.0
120
0.0
130
0.0
111
1.0
121
0.0
131
0.0
112
0.0
122
1.0
132
0.0
 79
     0
146
0.0
348
2F
 60
     3
 61
     5
292
     1
282
     1
141
0.0
142
0.0
 63
   250
361
5D
  0
ENDTAB
  0
TABLE
  2
LTYPE
  5
5
330
0
100
AcDbSymbolTable
 70
     2
  0
LTYPE
  5
14
330
5
100
AcDbSymbolTableRecord
100
AcDbLinetypeTableRecord
  2
ByBlock
 70
     0
  3

 72
    65
 73
     0
 40
0.0
  0
LTYPE
  5
15
330
5
100
AcDbSymbolTableRecord
100
AcDbLinetypeTableRecord
  2
ByLayer
 70
     0
  3

 72
    65
 73
     0
 40
0.0
  0
LTYPE
  5
16
330
5
100
AcDbSymbolTableRecord
100
AcDbLinetypeTableRecord
  2
Continuous
 70
     0
  3
Solid line
 72
    65
 73
     0
 40
0.0
  0
LTYPE
  5
A7
330
5
100
AcDbSymbolTableRecord
100
AcDbLinetypeTableRecord
  2
Dashed
 70
     0
  3

 72
    65
 73
     2
 40
2.0
 49
1.0
 74
     0
 49
-1.0
 74
     0
  0
ENDTAB
  0
TABLE
  2
LAYER
  5
2
330
0
100
AcDbSymbolTable
 70
     4
  0
LAYER
  5
10
330
2
100
AcDbSymbolTableRecord
100
AcDbLayerTableRecord
  2
0
 70
     0
 62
     7
  6
Continuous
370
    -3
390
F
347
46
348
0
  0
LAYER
  5
5E
330
2
100
AcDbSymbolTableRecord
100
AcDbLayerTableRecord
  2
AM_6
 70
     0
 62
    -2
  6
Continuous
370
    35
390
F
347
46
348
0
  0
LAYER
  5
A8
330
2
100
AcDbSymbolTableRecord
100
AcDbLayerTableRecord
  2
AM_9
 70
     0
 62
     6
  6
Dashed
370
    25
390
F
347
46
348
0
  0
LAYER
  5
AC
330
2
100
AcDbSymbolTableRecord
100
AcDbLayerTableRecord
  2
AM_0
 70
     0
 62
     7
  6
Continuous
370
    50
390
F
347
46
348
0
  0
ENDTAB
  0
TABLE
  2
STYLE
  5
3
330
0
100
AcDbSymbolTable
 70
     1
  0
STYLE
  5
11
330
3
100
AcDbSymbolTableRecord
100
AcDbTextStyleTableRecord
  2
Standard
 70
     0
 40
0.0
 41
1.0
 50
0.0
 71
     0
 42
2.5
  3
txt
  4

  0
ENDTAB
  0
TABLE
  2
VIEW
  5
6
330
0
100
AcDbSymbolTable
 70
     0
  0
ENDTAB
  0
TABLE
  2
UCS
  5
7
330
0
100
AcDbSymbolTable
 70
     0
  0
ENDTAB
  0
TABLE
  2
APPID
  5
9
330
0
100
AcDbSymbolTable
 70
     1
  0
APPID
  5
12
330
9
100
AcDbSymbolTableRecord
100
AcDbRegAppTableRecord
  2
ACAD
 70
     0
  0
ENDTAB
  0
TABLE
  2
DIMSTYLE
  5
A
330
0
100
AcDbSymbolTable
 70
     1
100
AcDbDimStyleTable
  0
DIMSTYLE
105
27
330
A
100
AcDbSymbolTableRecord
100
AcDbDimStyleTableRecord
  2
ISO-25
 70
     0
 41
2.5
 42
0.625
 43
3.75
 44
1.25
 73
     0
 74
     0
 77
     1
 78
     8
140
2.5
141
2.5
143
0.03937007874016
147
0.625
171
     3
172
     1
178
     0
271
     2
272
     2
274
     3
278
    44
283
     0
284
     8
340
11
  0
ENDTAB
  0
TABLE
  2
BLOCK_RECORD
  5
1
330
0
100
AcDbSymbolTable
 70
     8
  0
BLOCK_RECORD
  5
1F
330
1
100
AcDbSymbolTableRecord
100
AcDbBlockTableRecord
  2
*Model_Space
340
22
 70
     0
280
     1
281
     0
  0
BLOCK_RECORD
  5
1B
330
1
100
AcDbSymbolTableRecord
100
AcDbBlockTableRecord
  2
*Paper_Space
340
1E
 70
     0
280
     1
281
     0
  0
BLOCK_RECORD
  5
23
330
1
100
AcDbSymbolTableRecord
100
AcDbBlockTableRecord
  2
*Paper_Space0
340
26
 70
     0
280
     1
281
     0
  0
BLOCK_RECORD
  5
81
330
1
100
AcDbSymbolTableRecord
100
AcDbBlockTableRecord
  2
1_FCA42AAVJU_BYCQ54GEGFU_PART7_0_in_FCA42AAVJU_BYCQ54GEGFU_0
340
0
102
{BLKREFS
331
82
102
}
 70
     0
280
     1
281
     0
  0
BLOCK_RECORD
  5
B0
330
1
100
AcDbSymbolTableRecord
100
AcDbBlockTableRecord
  2
2_FCA42AAVJU_BYCQ54GEGFU_PART6_0_in_FCA42AAVJU_BYCQ54GEGFU_0
340
0
102
{BLKREFS
331
B1
102
}
 70
     0
280
     1
281
     0
  0
BLOCK_RECORD
  5
DC
330
1
100
AcDbSymbolTableRecord
100
AcDbBlockTableRecord
  2
3_FCA42AAVJU_BYCQ54GEGFU_PART5_0_in_FCA42AAVJU_BYCQ54GEGFU_0
340
0
102
{BLKREFS
331
DD
102
}
 70
     0
280
     1
281
     0
  0
BLOCK_RECORD
  5
107
330
1
100
AcDbSymbolTableRecord
100
AcDbBlockTableRecord
  2
4_FCA42AAVJU_BYCQ54GEGFU_PART4_0_in_FCA42AAVJU_BYCQ54GEGFU_0
340
0
102
{BLKREFS
331
108
102
}
 70
     0
280
     1
281
     0
  0
BLOCK_RECORD
  5
142
330
1
100
AcDbSymbolTableRecord
100
AcDbBlockTableRecord
  2
5_FCA42AAVJU_BYCQ54GEGFU_PART3_0_in_FCA42AAVJU_BYCQ54GEGFU_0
340
0
102
{BLKREFS
331
143
102
}
 70
     0
280
     1
281
     0
  0
BLOCK_RECORD
  5
16E
330
1
100
AcDbSymbolTableRecord
100
AcDbBlockTableRecord
  2
6_FCA42AAVJU_BYCQ54GEGFU_PART2_0_in_FCA42AAVJU_BYCQ54GEGFU_0
340
0
102
{BLKREFS
331
16F
102
}
 70
     0
280
     1
281
     0
  0
BLOCK_RECORD
  5
1C1
330
1
100
AcDbSymbolTableRecord
100
AcDbBlockTableRecord
  2
7_FCA42AAVJU_BYCQ54GEGFU_PART1_0_in_FCA42AAVJU_BYCQ54GEGFU_0
340
0
102
{BLKREFS
331
1C2
102
}
 70
     0
280
     1
281
     0
  0
ENDTAB
  0
ENDSEC
  0
SECTION
  2
BLOCKS
  0
BLOCK
  5
20
330
1F
100
AcDbEntity
  8
0
100
AcDbBlockBegin
  2
*Model_Space
 70
     2
 10
0.0
 20
0.0
 30
0.0
  3
*Model_Space
  1

  0
ENDBLK
  5
21
330
1F
100
AcDbEntity
  8
0
100
AcDbBlockEnd
  0
BLOCK
  5
1C
330
1B
100
AcDbEntity
 67
     1
  8
0
100
AcDbBlockBegin
  2
*Paper_Space
 70
     0
 10
0.0
 20
0.0
 30
0.0
  3
*Paper_Space
  1

  0
ENDBLK
  5
1D
330
1B
100
AcDbEntity
 67
     1
  8
0
100
AcDbBlockEnd
  0
BLOCK
  5
24
330
23
100
AcDbEntity
  8
0
100
AcDbBlockBegin
  2
*Paper_Space0
 70
     0
 10
0.0
 20
0.0
 30
0.0
  3
*Paper_Space0
  1

  0
ENDBLK
  5
25
330
23
100
AcDbEntity
  8
0
100
AcDbBlockEnd
  0
BLOCK
  5
83
330
81
100
AcDbEntity
  8
0
100
AcDbBlockBegin
  2
1_FCA42AAVJU_BYCQ54GEGFU_PART7_0_in_FCA42AAVJU_BYCQ54GEGFU_0
 70
     2
 10
0.0
 20
0.0
 30
0.0
  3
1_FCA42AAVJU_BYCQ54GEGFU_PART7_0_in_FCA42AAVJU_BYCQ54GEGFU_0
  1

  0
ATTDEF
  5
85
330
81
100
AcDbEntity
  8
AM_6
100
AcDbText
 10
425.674799999991
 20
193.67499999998
 30
0.0
 40
0.5
  1
FCA42AAVJU-BYCQ54GEGFU_PART7
100
AcDbAttributeDefinition
  3

  2
NB
 70
     8
280
     0
  0
ATTDEF
  5
86
330
81
100
AcDbEntity
  8
AM_6
100
AcDbText
 10
425.674799999991
 20
193.17499999998
 30
0.0
 40
0.5
  1

100
AcDbAttributeDefinition
  3

  2
NN
 70
     8
280
     0
  0
ATTDEF
  5
87
330
81
100
AcDbEntity
  8
AM_6
100
AcDbText
 10
425.674799999991
 20
192.67499999998
 30
0.0
 40
0.5
  1

100
AcDbAttributeDefinition
  3

  2
NT
 70
     8
280
     0
  0
ATTDEF
  5
88
330
81
100
AcDbEntity
  8
AM_6
100
AcDbText
 10
425.674799999991
 20
192.17499999998
 30
0.0
 40
0.5
  1
$PARTNUMBER._PART7
100
AcDbAttributeDefinition
  3

  2
NBSYN
 70
     8
280
     0
  0
ATTDEF
  5
89
330
81
100
AcDbEntity
  8
AM_6
100
AcDbText
 10
425.674799999991
 20
191.67499999998
 30
0.0
 40
0.5
  1
FCA42AAVJU-BYCQ54GEGFU_PART7
100
AcDbAttributeDefinition
  3

  2
LINA
 70
     8
280
     0
  0
ATTDEF
  5
8A
330
81
100
AcDbEntity
  8
AM_6
100
AcDbText
 10
425.674799999991
 20
191.17499999998
 30
0.0
 40
0.5
  1
Daikin
100
AcDbAttributeDefinition
  3

  2
CATALOG
 70
     8
280
     0
  0
ATTDEF
  5
8B
330
81
100
AcDbEntity
  8
AM_6
100
AcDbText
 10
425.674799999991
 20
190.67499999998
 30
0.0
 40
0.5
  1
FCA42AAVJU-BYCQ54GEGFU
100
AcDbAttributeDefinition
  3

  2
PARTNUMBER
 70
     8
280
     0
  0
ATTDEF
  5
8C
330
81
100
AcDbEntity
  8
AM_6
100
AcDbText
 10
425.674799999991
 20
190.17499999998
 30
0.0
 40
0.5
  1
Air Conditioner Ducted Round Flow Cassette
100
AcDbAttributeDefinition
  3

  2
DESCRIPTION
 70
     8
280
     0
  0
ATTDEF
  5
8D
330
81
100
AcDbEntity
  8
AM_6
100
AcDbText
 10
425.674799999991
 20
189.67499999998
 30
0.0
 40
0.5
  1
33.0625
100
AcDbAttributeDefinition
  3

  2
OVERALL_DEPTH
 70
     8
280
     0
  0
ATTDEF
  5
8E
330
81
100
AcDbEntity
  8
AM_6
100
AcDbText
 10
425.674799999991
 20
189.17499999998
 30
0.0
 40
0.5
  1
11.3438
100
AcDbAttributeDefinition
  3

  2
OVERALL_HEIGHT
 70
     8
280
     0
  0
ATTDEF
  5
8F
330
81
100
AcDbEntity
  8
AM_6
100
AcDbText
 10
425.674799999991
 20
188.67499999998
 30
0.0
 40
0.5
  1
33.0625
100
AcDbAttributeDefinition
  3

  2
OVERALL_WIDTH
 70
     8
280
     0
  0
ATTDEF
  5
90
330
81
100
AcDbEntity
  8
AM_6
100
AcDbText
 10
425.674799999991
 20
188.17499999998
 30
0.0
 40
0.5
  1
https://daikincomfort.com/
100
AcDbAttributeDefinition
  3

  2
URL
 70
     8
280
     0
  0
ATTDEF
  5
91
330
81
100
AcDbEntity
  8
AM_6
100
AcDbText
 10
425.674799999991
 20
187.67499999998
 30
0.0
 40
0.5
  1
Download Revit Family (RFA)
100
AcDbAttributeDefinition
  3

  2
RFA_FAMILY
 70
     8
280
     0
  0
ATTDEF
  5
92
330
81
100
AcDbEntity
  8
AM_6
100
AcDbText
 10
425.674799999991
 20
187.17499999998
 30
0.0
 40
0.5
  1
daikin
100
AcDbAttributeDefinition
  3

  2
COMPANY
 70
     8
280
     0
  0
ATTDEF
  5
93
330
81
100
AcDbEntity
  8
AM_6
100
AcDbText
 10
425.674799999991
 20
186.67499999998
 30
0.0
 40
0.5
  1
{$CADENAS_DATA/23d-libs/daikin/sky-air/sky-air20indoor20units/air_conditioner-indoor-daikin-fca.prj},242 {VTYP=3D},{NB=FCA42AAVJU-BYCQ54GEGFU_PART7},{LINA=FCA42AAVJU-BYCQ54GEGFU_PART7},{NN=(R32) Cassette Sky-Air Daikin FCA_PART7},{NOPRJ=TRUE},{DATE=
100
AcDbAttributeDefinition
  3

  2
PSOL_0
 70
     9
280
     0
  0
ATTDEF
  5
94
330
81
100
AcDbEntity
  8
AM_6
100
AcDbText
 10
425.674799999991
 20
186.17499999998
 30
0.0
 40
0.5
  1
2026 19:23:42},{GEOMDATE=23.09.2025 06:26:16},{VERSION=},{LINEID=70},{WBVAR=},{WBNUMERIC=}  {NB=FCA42AAVJU-BYCQ54GEGFU_PART7},{LINA=FCA42AAVJU-BYCQ54GEGFU_PART7},{KT=DUMMY},{PARTNUMBER=FCA42AAVJU-BYCQ54GEGFU},{PARTNUMBERMAP09=3.5Ton_FCA42AAVJU-BYCQ5
100
AcDbAttributeDefinition
  3

  2
PSOL_1
 70
     9
280
     0
  0
ATTDEF
  5
95
330
81
100
AcDbEntity
  8
AM_6
100
AcDbText
 10
425.674799999991
 20
185.67499999998
 30
0.0
 40
0.5
  1
},{ACTUAL_RETURN_AIR_FLOW=1253},{ACTUAL_SUPPLY_AIR_FLOW=1253},{AMBIENT_TEMPERATURE=0},{APPARENT_POWER=384},{ASSEMBLY_CODE=D3090},{BRANCH_DUCT_CENTER_OFFSET=0},{BRANCH_DUCT_DEPTH=0.00833333333333333},{BRANCH_DUCT_HEIGHT=0.3125},{BRANCH_DUCT_HORIZONTA
100
AcDbAttributeDefinition
  3

  2
PSOL_2
 70
     9
280
     0
  0
ATTDEF
  5
96
330
81
100
AcDbEntity
  8
AM_6
100
AcDbText
 10
425.674799999991
 20
185.17499999998
 30
0.0
 40
0.5
  1
ET=0.526041666666667},{BRANCH_DUCT_LEFT_CENTER_OFFSET=0.0677083333333333},{BRANCH_DUCT_POSITION_ANGLE=0},{BRANCH_DUCT_REFERENCE_LENGTH=1.37760416666667},{BRANCH_DUCT_RIGHT_CENTER_OFFSET=0.0833333333333333},{BRANCH_DUCT_WIDTH=1.14583333333333},{CATEG
100
AcDbAttributeDefinition
  3

  2
PSOL_3
 70
     9
280
     0
  0
ATTDEF
  5
97
330
81
100
AcDbEntity
  8
AM_6
100
AcDbText
 10
425.674799999991
 20
184.67499999998
 30
0.0
 40
0.5
  1
chanical Equipment},{CEILING_OPENING_SPACE_DEPTH=2.98958333333333},{CEILING_OPENING_SPACE_WIDTH=2.98958333333333},{CLEARANCE_PRIMARY_OFFSET=5},{CLEARANCE_SECONDARY_OFFSET=0.65625},{CLEARANCE_VISIBILITY=1},{COIL_AIR_PRESSURE_DROP=0},{CONDENSATE_DRAIN
100
AcDbAttributeDefinition
  3

  2
PSOL_4
 70
     9
280
     0
  0
ATTDEF
  5
98
330
81
100
AcDbEntity
  8
AM_6
100
AcDbText
 10
425.674799999991
 20
184.17499999998
 30
0.0
 40
0.5
  1
CTION_DIAMETER=1.25},{CONDENSATE_DRAIN_PIPE_HORIZONTAL_OFFSET=0.583333333333333},{CONDENSATE_DRAIN_PIPE_LENGTH=1.38016666666667},{CONDENSATE_DRAIN_PIPE_RADIUS=0.0520833333333333},{CONDENSATE_DRAIN_PIPE_VERTICAL_OFFSET=1.11458333333333},{COOLING_ENTE
100
AcDbAttributeDefinition
  3

  2
PSOL_5
 70
     9
280
     0
  0
ATTDEF
  5
99
330
81
100
AcDbEntity
  8
AM_6
100
AcDbText
 10
425.674799999991
 20
183.67499999998
 30
0.0
 40
0.5
  1
RY_BULB_TEMPERATURE=0},{COOLING_ENTERING_WET_BULB_TEMPERATURE=0},{COOLING_LEAVING_DRY_BULB_TEMPERATURE=0},{COOLING_LEAVING_WET_BULB_TEMPERATURE=0},{COST=0},{DECORATION_PANEL_COVER_HEIGHT=0.130208333333333},{DECORATION_PANEL_DEPTH=3.11458333333333},{
100
AcDbAttributeDefinition
  3

  2
PSOL_6
 70
     9
280
     0
  0
ATTDEF
  5
9A
330
81
100
AcDbEntity
  8
AM_6
100
AcDbText
 10
425.674799999991
 20
183.17499999998
 30
0.0
 40
0.5
  1
TION_PANEL_INSIDE_HEIGHT=0.296875},{DECORATION_PANEL_OVERALL_HEIGHT=0.427083333333333},{DECORATION_PANEL_WEIGHT=22},{DECORATION_PANEL_WIDTH=3.11458333333333},{DEFAULT_ELEVATION=4},{DESCRIPTION=Air Conditioner Ducted Round Flow Cassette},{DESIGN_BRAN
100
AcDbAttributeDefinition
  3

  2
PSOL_7
 70
     9
280
     0
  0
ATTDEF
  5
9B
330
81
100
AcDbEntity
  8
AM_6
100
AcDbText
 10
425.674799999991
 20
182.67499999998
 30
0.0
 40
0.5
  1
T_SUPPLY_AIR_FLOW=0},{DESIGN_FRESH_AIR_FLOW=0},{DESIGN_RETURN_AIR_FLOW=1253},{DESIGN_SUPPLY_AIR_FLOW=1253},{DRAIN_FLOW=0},{ENCLOSURE_DEPTH=2.75520833333333},{ENCLOSURE_FLANGE_OFFSET=2.33333333333333},{ENCLOSURE_HEIGHT=0.9453125},{ENCLOSURE_WIDTH=2.7
100
AcDbAttributeDefinition
  3

  2
PSOL_8
 70
     9
280
     0
  0
ATTDEF
  5
9C
330
81
100
AcDbEntity
  8
AM_6
100
AcDbText
 10
425.674799999991
 20
182.17499999998
 30
0.0
 40
0.5
  1
3333333},{FACE_VELOCITY__FPM_=0},{FAN_TYPE=Turbo fan},{FEET_PRESSURE_DROP=0},{FREQUENCY=60},{FRESH_AIR_INTAKE=0},{FRESH_AIR_INTAKE_RADIUS=0.0625},{GAS_PIPE_HORIZONTAL_OFFSET=0.541666666666667},{GAS_PIPE_LENGTH=1.38016666666667},{GAS_PIPE_RADIUS=0.02
100
AcDbAttributeDefinition
  3

  2
PSOL_9
 70
     9
280
     0
  0
ATTDEF
  5
9D
330
81
100
AcDbEntity
  8
AM_6
100
AcDbText
 10
425.674799999991
 20
181.67499999998
 30
0.0
 40
0.5
  1
66666667},{GAS_PIPE_VERTICAL_OFFSET=1.08333333333333},{HEAT_EXCHANGER_TYPE=Cross Fin Coil},{HEATING_ENTERING_DRY_BULB_TEMPERATURE=0},{HEATING_ENTERING_WET_BULB_TEMPERATURE=0},{HEATING_LEAVING_DRY_BULB_TEMPERATURE=0},{HEATING_LEAVING_WET_BULB_TEMPERA
100
AcDbAttributeDefinition
  3

  2
PSOL_10
 70
     9
280
     0
  0
ATTDEF
  5
9E
330
81
100
AcDbEntity
  8
AM_6
100
AcDbText
 10
425.674799999991
 20
181.17499999998
 30
0.0
 40
0.5
  1
},{KNOCK_HOLE_OFFSET=0.00833333333333333},{KNOCK_HOLE_RADIUS=0.164},{LATENT_COOLING_CAPACITY=0},{LIQUID_PIPE_HORIZONTAL_OFFSET=0.411458333333333},{LIQUID_PIPE_LENGTH=1.38016666666667},{LIQUID_PIPE_RADIUS=0.015625},{LIQUID_PIPE_VERTICAL_OFFSET=0.9166
100
AcDbAttributeDefinition
  3

  2
PSOL_11
 70
     9
280
     0
  0
ATTDEF
  5
9F
330
81
100
AcDbEntity
  8
AM_6
100
AcDbText
 10
425.674799999991
 20
180.67499999998
 30
0.0
 40
0.5
  1
66667},{LOAD_SUB_CLASSIFICATION_MOTOR=1},{MANUFACTURER=Daikin},{MASSUNIT=1},{MAXIMUM_AIR_FLOW=1253},{MAXIMUM_OVERCURRENT_PROTECTION=15},{MEDIAN_AIR_FLOW=971},{MINIMUM_AIR_FLOW=741},{MINIMUM_CIRCUIT_AMPS=1.6},{MINIMUM_FLOOR_CLEARANCE=8.33333333333333
100
AcDbAttributeDefinition
  3

  2
PSOL_12
 70
     9
280
     0
  0
ATTDEF
  5
A0
330
81
100
AcDbEntity
  8
AM_6
100
AcDbText
 10
425.674799999991
 20
180.17499999998
 30
0.0
 40
0.5
  1
IMUM_OBSTACLE_CLEARANCE=5},{MODEL=FCA42AAVJU-BYCQ54GEGFU},{NO_OBSTACLES_BELOW_UNIT=1},{NOMINAL_COOLING_CAPACITY=42000},{NOMINAL_COOLING_CAPACITY__TONS_=3.5},{NOMINAL_HEATING_CAPACITY=47000},{NUMBER_OF_POLES=2},{OBSTACLES_BELOW_UNIT=0},{OMNICLASS_NUM
100
AcDbAttributeDefinition
  3

  2
PSOL_13
 70
     9
280
     0
  0
ATTDEF
  5
A1
330
81
100
AcDbEntity
  8
AM_6
100
AcDbText
 10
425.674799999991
 20
179.67499999998
 30
0.0
 40
0.5
  1
.33.33.11.15.11},{OUT_AIR_INTAKE_H_OFFSET=0.598958333333333},{OUT_AIR_INTAKE_V_OFFSET=0.697916666666667},{OVERALL_DEPTH=33.0625},{OVERALL_HEIGHT=11.3438},{OVERALL_WIDTH=33.0625},{PARTTYPE=Normal},{PHASE=1},{REFRIGERANT_LIQUID_CONNECTION_DIAMETER=0.3
100
AcDbAttributeDefinition
  3

  2
PSOL_14
 70
     9
280
     0
  0
ATTDEF
  5
A2
330
81
100
AcDbEntity
  8
AM_6
100
AcDbText
 10
425.674799999991
 20
179.17499999998
 30
0.0
 40
0.5
  1
EFRIGERANT_SUCTION_GAS_CONNECTION_DIAMETER=0.625},{REFRIGERANT_USED=R-32},{RETURN_AIR_PRESSURE_DROP=0},{SENSIBLE_COOLING_CAPACITY=0},{SERIES=SkyAir},{SUPPLY_AIR_CONNECTION_HEIGHT=0.0625},{SUPPLY_AIR_CONNECTION_WIDTH=0.0625},{SUPPLY_AIR_PRESSURE_DROP
100
AcDbAttributeDefinition
  3

  2
PSOL_15
 70
     9
280
     0
  0
ATTDEF
  5
A3
330
81
100
AcDbEntity
  8
AM_6
100
AcDbText
 10
425.674799999991
 20
178.67499999998
 30
0.0
 40
0.5
  1
YSTEM_PERFORMANCE_EER2=10.5},{SYSTEM_PERFORMANCE_HSPF2=10.2},{SYSTEM_PERFORMANCE_SEER2=18.9},{TOTAL_COOLING_CAPACITY=0},{TOTAL_HEATING_CAPACITY=0},{TOTAL_STATIC_PRESSURE=0},{UNIT_HEIGHT_CLEARANCE=8.33333333333333},{UNIT_WEIGHT=58},{URL=https://daiki
100
AcDbAttributeDefinition
  3

  2
PSOL_16
 70
     9
280
     0
  0
ATTDEF
  5
A4
330
81
100
AcDbEntity
  8
AM_6
100
AcDbText
 10
425.674799999991
 20
178.17499999998
 30
0.0
 40
0.5
  1
rt.com/},{VERSION=1},{VOLTAGE=240},{VOLTAGE_COMMENTS=208 VAC - 230 VAC},{VAR__NO_BRANCH_DUCT=1},{VAR__BRANCH_DUCT_SELECTOR=0},{VAR__FAN_SPEED_SELECTOR=3},{VAR__BRANCH_DUCT_FRONT_OPENING=0},{VAR__L____LOW_FAN_SPEED=741},{VAR__BRANCH_DUCT_RIGHT_OPENIN
100
AcDbAttributeDefinition
  3

  2
PSOL_17
 70
     9
280
     0
  0
ATTDEF
  5
A5
330
81
100
AcDbEntity
  8
AM_6
100
AcDbText
 10
425.674799999991
 20
177.67499999998
 30
0.0
 40
0.5
  1
VAR__M___MEDIUM_SPEED=971},{VAR__BRANCH_DUCT_BACK_OPENING=0},{VAR__H___HIGH_FAN_SPEED=1253},{VAR__BRANCH_DUCT_LEFT_OPENING=0},{RFA_FAMILY=Download Revit Family (RFA)},{DEFAULTSORTATTR=57},{RFA_FAMILY_=../../_pool_/be/62/air_conditioner-indoor-daikin
100
AcDbAttributeDefinition
  3

  2
PSOL_18
 70
     9
280
     0
  0
ATTDEF
  5
A6
330
81
100
AcDbEntity
  8
AM_6
100
AcDbText
 10
425.674799999991
 20
177.17499999998
 30
0.0
 40
0.5
  1
ip},{RFA_FAMILY_ENG=../../_pool_/be/62/air_conditioner-indoor-daikin-fca.zip},{REVIT_FAMILY_DOWNLOAD=../../_pool_/be/62/air_conditioner-indoor-daikin-fca.zip}
100
AcDbAttributeDefinition
  3

  2
PSOL_19
 70
     9
280
     0
  0
LINE
  5
A9
330
81
100
AcDbEntity
  8
AM_9
100
AcDbLine
 10
-0.0000000000062603
 20
161.92499999998
 30
0.0
 11
-0.0000000000062603
 21
193.67499999998
 31
0.0
  0
LINE
  5
AA
330
81
100
AcDbEntity
  8
AM_9
100
AcDbLine
 10
-0.0000000000062603
 20
161.92499999998
 30
0.0
 11
371.474999999966
 21
161.92499999998
 31
0.0
  0
LINE
  5
AB
330
81
100
AcDbEntity
  8
AM_9
100
AcDbLine
 10
371.474999999966
 20
193.67499999998
 30
0.0
 11
-0.0000000000062728
 21
193.67499999998
 31
0.0
  0
LINE
  5
AD
330
81
100
AcDbEntity
  8
AM_0
100
AcDbLine
 10
420.674799999991
 20
193.67499999998
 30
0.0
 11
420.674799999991
 21
161.92499999998
 31
0.0
  0
LINE
  5
AE
330
81
100
AcDbEntity
  8
AM_0
100
AcDbLine
 10
371.474999999966
 20
161.92499999998
 30
0.0
 11
420.674799999991
 21
161.92499999998
 31
0.0
  0
LINE
  5
AF
330
81
100
AcDbEntity
  8
AM_0
100
AcDbLine
 10
420.674799999991
 20
193.67499999998
 30
0.0
 11
371.474999999966
 21
193.67499999998
 31
0.0
  0
ENDBLK
  5
84
330
81
100
AcDbEntity
  8
0
100
AcDbBlockEnd
  0
BLOCK
  5
B2
330
B0
100
AcDbEntity
  8
0
100
AcDbBlockBegin
  2
2_FCA42AAVJU_BYCQ54GEGFU_PART6_0_in_FCA42AAVJU_BYCQ54GEGFU_0
 70
     2
 10
0.0
 20
0.0
 30
0.0
  3
2_FCA42AAVJU_BYCQ54GEGFU_PART6_0_in_FCA42AAVJU_BYCQ54GEGFU_0
  1

  0
ATTDEF
  5
B4
330
B0
100
AcDbEntity
  8
AM_6
100
AcDbText
 10
425.674799999991
 20
130.174999999941
 30
0.0
 40
0.5
  1
FCA42AAVJU-BYCQ54GEGFU_PART6
100
AcDbAttributeDefinition
  3

  2
NB
 70
     8
280
     0
  0
ATTDEF
  5
B5
330
B0
100
AcDbEntity
  8
AM_6
100
AcDbText
 10
425.674799999991
 20
129.674999999941
 30
0.0
 40
0.5
  1

100
AcDbAttributeDefinition
  3

  2
NN
 70
     8
280
     0
  0
ATTDEF
  5
B6
330
B0
100
AcDbEntity
  8
AM_6
100
AcDbText
 10
425.674799999991
 20
129.174999999941
 30
0.0
 40
0.5
  1

100
AcDbAttributeDefinition
  3

  2
NT
 70
     8
280
     0
  0
ATTDEF
  5
B7
330
B0
100
AcDbEntity
  8
AM_6
100
AcDbText
 10
425.674799999991
 20
128.674999999941
 30
0.0
 40
0.5
  1
$PARTNUMBER._PART6
100
AcDbAttributeDefinition
  3

  2
NBSYN
 70
     8
280
     0
  0
ATTDEF
  5
B8
330
B0
100
AcDbEntity
  8
AM_6
100
AcDbText
 10
425.674799999991
 20
128.174999999941
 30
0.0
 40
0.5
  1
FCA42AAVJU-BYCQ54GEGFU_PART6
100
AcDbAttributeDefinition
  3

  2
LINA
 70
     8
280
     0
  0
ATTDEF
  5
B9
330
B0
100
AcDbEntity
  8
AM_6
100
AcDbText
 10
425.674799999991
 20
127.674999999941
 30
0.0
 40
0.5
  1
Daikin
100
AcDbAttributeDefinition
  3

  2
CATALOG
 70
     8
280
     0
  0
ATTDEF
  5
BA
330
B0
100
AcDbEntity
  8
AM_6
100
AcDbText
 10
425.674799999991
 20
127.174999999941
 30
0.0
 40
0.5
  1
FCA42AAVJU-BYCQ54GEGFU
100
AcDbAttributeDefinition
  3

  2
PARTNUMBER
 70
     8
280
     0
  0
ATTDEF
  5
BB
330
B0
100
AcDbEntity
  8
AM_6
100
AcDbText
 10
425.674799999991
 20
126.674999999941
 30
0.0
 40
0.5
  1
Air Conditioner Ducted Round Flow Cassette
100
AcDbAttributeDefinition
  3

  2
DESCRIPTION
 70
     8
280
     0
  0
ATTDEF
  5
BC
330
B0
100
AcDbEntity
  8
AM_6
100
AcDbText
 10
425.674799999991
 20
126.174999999941
 30
0.0
 40
0.5
  1
33.0625
100
AcDbAttributeDefinition
  3

  2
OVERALL_DEPTH
 70
     8
280
     0
  0
ATTDEF
  5
BD
330
B0
100
AcDbEntity
  8
AM_6
100
AcDbText
 10
425.674799999991
 20
125.674999999941
 30
0.0
 40
0.5
  1
11.3438
100
AcDbAttributeDefinition
  3

  2
OVERALL_HEIGHT
 70
     8
280
     0
  0
ATTDEF
  5
BE
330
B0
100
AcDbEntity
  8
AM_6
100
AcDbText
 10
425.674799999991
 20
125.174999999941
 30
0.0
 40
0.5
  1
33.0625
100
AcDbAttributeDefinition
  3

  2
OVERALL_WIDTH
 70
     8
280
     0
  0
ATTDEF
  5
BF
330
B0
100
AcDbEntity
  8
AM_6
100
AcDbText
 10
425.674799999991
 20
124.674999999941
 30
0.0
 40
0.5
  1
https://daikincomfort.com/
100
AcDbAttributeDefinition
  3

  2
URL
 70
     8
280
     0
  0
ATTDEF
  5
C0
330
B0
100
AcDbEntity
  8
AM_6
100
AcDbText
 10
425.674799999991
 20
124.174999999941
 30
0.0
 40
0.5
  1
Download Revit Family (RFA)
100
AcDbAttributeDefinition
  3

  2
RFA_FAMILY
 70
     8
280
     0
  0
ATTDEF
  5
C1
330
B0
100
AcDbEntity
  8
AM_6
100
AcDbText
 10
425.674799999991
 20
123.674999999941
 30
0.0
 40
0.5
  1
daikin
100
AcDbAttributeDefinition
  3

  2
COMPANY
 70
     8
280
     0
  0
ATTDEF
  5
C2
330
B0
100
AcDbEntity
  8
AM_6
100
AcDbText
 10
425.674799999991
 20
123.174999999941
 30
0.0
 40
0.5
  1
{$CADENAS_DATA/23d-libs/daikin/sky-air/sky-air20indoor20units/air_conditioner-indoor-daikin-fca.prj},242 {VTYP=3D},{NB=FCA42AAVJU-BYCQ54GEGFU_PART6},{LINA=FCA42AAVJU-BYCQ54GEGFU_PART6},{NN=(R32) Cassette Sky-Air Daikin FCA_PART6},{NOPRJ=TRUE},{DATE=
100
AcDbAttributeDefinition
  3

  2
PSOL_0
 70
     9
280
     0
  0
ATTDEF
  5
C3
330
B0
100
AcDbEntity
  8
AM_6
100
AcDbText
 10
425.674799999991
 20
122.674999999941
 30
0.0
 40
0.5
  1
2026 19:23:42},{GEOMDATE=23.09.2025 06:26:16},{VERSION=},{LINEID=70},{WBVAR=},{WBNUMERIC=}  {NB=FCA42AAVJU-BYCQ54GEGFU_PART6},{LINA=FCA42AAVJU-BYCQ54GEGFU_PART6},{KT=DUMMY},{PARTNUMBER=FCA42AAVJU-BYCQ54GEGFU},{PARTNUMBERMAP09=3.5Ton_FCA42AAVJU-BYCQ5
100
AcDbAttributeDefinition
  3

  2
PSOL_1
 70
     9
280
     0
  0
ATTDEF
  5
C4
330
B0
100
AcDbEntity
  8
AM_6
100
AcDbText
 10
425.674799999991
 20
122.174999999941
 30
0.0
 40
0.5
  1
},{ACTUAL_RETURN_AIR_FLOW=1253},{ACTUAL_SUPPLY_AIR_FLOW=1253},{AMBIENT_TEMPERATURE=0},{APPARENT_POWER=384},{ASSEMBLY_CODE=D3090},{BRANCH_DUCT_CENTER_OFFSET=0},{BRANCH_DUCT_DEPTH=0.00833333333333333},{BRANCH_DUCT_HEIGHT=0.3125},{BRANCH_DUCT_HORIZONTA
100
AcDbAttributeDefinition
  3

  2
PSOL_2
 70
     9
280
     0
  0
ATTDEF
  5
C5
330
B0
100
AcDbEntity
  8
AM_6
100
AcDbText
 10
425.674799999991
 20
121.674999999941
 30
0.0
 40
0.5
  1
ET=0.526041666666667},{BRANCH_DUCT_LEFT_CENTER_OFFSET=0.0677083333333333},{BRANCH_DUCT_POSITION_ANGLE=0},{BRANCH_DUCT_REFERENCE_LENGTH=1.37760416666667},{BRANCH_DUCT_RIGHT_CENTER_OFFSET=0.0833333333333333},{BRANCH_DUCT_WIDTH=1.14583333333333},{CATEG
100
AcDbAttributeDefinition
  3

  2
PSOL_3
 70
     9
280
     0
  0
ATTDEF
  5
C6
330
B0
100
AcDbEntity
  8
AM_6
100
AcDbText
 10
425.674799999991
 20
121.174999999941
 30
0.0
 40
0.5
  1
chanical Equipment},{CEILING_OPENING_SPACE_DEPTH=2.98958333333333},{CEILING_OPENING_SPACE_WIDTH=2.98958333333333},{CLEARANCE_PRIMARY_OFFSET=5},{CLEARANCE_SECONDARY_OFFSET=0.65625},{CLEARANCE_VISIBILITY=1},{COIL_AIR_PRESSURE_DROP=0},{CONDENSATE_DRAIN
100
AcDbAttributeDefinition
  3

  2
PSOL_4
 70
     9
280
     0
  0
ATTDEF
  5
C7
330
B0
100
AcDbEntity
  8
AM_6
100
AcDbText
 10
425.674799999991
 20
120.674999999941
 30
0.0
 40
0.5
  1
CTION_DIAMETER=1.25},{CONDENSATE_DRAIN_PIPE_HORIZONTAL_OFFSET=0.583333333333333},{CONDENSATE_DRAIN_PIPE_LENGTH=1.38016666666667},{CONDENSATE_DRAIN_PIPE_RADIUS=0.0520833333333333},{CONDENSATE_DRAIN_PIPE_VERTICAL_OFFSET=1.11458333333333},{COOLING_ENTE
100
AcDbAttributeDefinition
  3

  2
PSOL_5
 70
     9
280
     0
  0
ATTDEF
  5
C8
330
B0
100
AcDbEntity
  8
AM_6
100
AcDbText
 10
425.674799999991
 20
120.174999999941
 30
0.0
 40
0.5
  1
RY_BULB_TEMPERATURE=0},{COOLING_ENTERING_WET_BULB_TEMPERATURE=0},{COOLING_LEAVING_DRY_BULB_TEMPERATURE=0},{COOLING_LEAVING_WET_BULB_TEMPERATURE=0},{COST=0},{DECORATION_PANEL_COVER_HEIGHT=0.130208333333333},{DECORATION_PANEL_DEPTH=3.11458333333333},{
100
AcDbAttributeDefinition
  3

  2
PSOL_6
 70
     9
280
     0
  0
ATTDEF
  5
C9
330
B0
100
AcDbEntity
  8
AM_6
100
AcDbText
 10
425.674799999991
 20
119.674999999941
 30
0.0
 40
0.5
  1
TION_PANEL_INSIDE_HEIGHT=0.296875},{DECORATION_PANEL_OVERALL_HEIGHT=0.427083333333333},{DECORATION_PANEL_WEIGHT=22},{DECORATION_PANEL_WIDTH=3.11458333333333},{DEFAULT_ELEVATION=4},{DESCRIPTION=Air Conditioner Ducted Round Flow Cassette},{DESIGN_BRAN
100
AcDbAttributeDefinition
  3

  2
PSOL_7
 70
     9
280
     0
  0
ATTDEF
  5
CA
330
B0
100
AcDbEntity
  8
AM_6
100
AcDbText
 10
425.674799999991
 20
119.174999999941
 30
0.0
 40
0.5
  1
T_SUPPLY_AIR_FLOW=0},{DESIGN_FRESH_AIR_FLOW=0},{DESIGN_RETURN_AIR_FLOW=1253},{DESIGN_SUPPLY_AIR_FLOW=1253},{DRAIN_FLOW=0},{ENCLOSURE_DEPTH=2.75520833333333},{ENCLOSURE_FLANGE_OFFSET=2.33333333333333},{ENCLOSURE_HEIGHT=0.9453125},{ENCLOSURE_WIDTH=2.7
100
AcDbAttributeDefinition
  3

  2
PSOL_8
 70
     9
280
     0
  0
ATTDEF
  5
CB
330
B0
100
AcDbEntity
  8
AM_6
100
AcDbText
 10
425.674799999991
 20
118.674999999941
 30
0.0
 40
0.5
  1
3333333},{FACE_VELOCITY__FPM_=0},{FAN_TYPE=Turbo fan},{FEET_PRESSURE_DROP=0},{FREQUENCY=60},{FRESH_AIR_INTAKE=0},{FRESH_AIR_INTAKE_RADIUS=0.0625},{GAS_PIPE_HORIZONTAL_OFFSET=0.541666666666667},{GAS_PIPE_LENGTH=1.38016666666667},{GAS_PIPE_RADIUS=0.02
100
AcDbAttributeDefinition
  3

  2
PSOL_9
 70
     9
280
     0
  0
ATTDEF
  5
CC
330
B0
100
AcDbEntity
  8
AM_6
100
AcDbText
 10
425.674799999991
 20
118.174999999941
 30
0.0
 40
0.5
  1
66666667},{GAS_PIPE_VERTICAL_OFFSET=1.08333333333333},{HEAT_EXCHANGER_TYPE=Cross Fin Coil},{HEATING_ENTERING_DRY_BULB_TEMPERATURE=0},{HEATING_ENTERING_WET_BULB_TEMPERATURE=0},{HEATING_LEAVING_DRY_BULB_TEMPERATURE=0},{HEATING_LEAVING_WET_BULB_TEMPERA
100
AcDbAttributeDefinition
  3

  2
PSOL_10
 70
     9
280
     0
  0
ATTDEF
  5
CD
330
B0
100
AcDbEntity
  8
AM_6
100
AcDbText
 10
425.674799999991
 20
117.674999999941
 30
0.0
 40
0.5
  1
},{KNOCK_HOLE_OFFSET=0.00833333333333333},{KNOCK_HOLE_RADIUS=0.164},{LATENT_COOLING_CAPACITY=0},{LIQUID_PIPE_HORIZONTAL_OFFSET=0.411458333333333},{LIQUID_PIPE_LENGTH=1.38016666666667},{LIQUID_PIPE_RADIUS=0.015625},{LIQUID_PIPE_VERTICAL_OFFSET=0.9166
100
AcDbAttributeDefinition
  3

  2
PSOL_11
 70
     9
280
     0
  0
ATTDEF
  5
CE
330
B0
100
AcDbEntity
  8
AM_6
100
AcDbText
 10
425.674799999991
 20
117.174999999941
 30
0.0
 40
0.5
  1
66667},{LOAD_SUB_CLASSIFICATION_MOTOR=1},{MANUFACTURER=Daikin},{MASSUNIT=1},{MAXIMUM_AIR_FLOW=1253},{MAXIMUM_OVERCURRENT_PROTECTION=15},{MEDIAN_AIR_FLOW=971},{MINIMUM_AIR_FLOW=741},{MINIMUM_CIRCUIT_AMPS=1.6},{MINIMUM_FLOOR_CLEARANCE=8.33333333333333
100
AcDbAttributeDefinition
  3

  2
PSOL_12
 70
     9
280
     0
  0
ATTDEF
  5
CF
330
B0
100
AcDbEntity
  8
AM_6
100
AcDbText
 10
425.674799999991
 20
116.674999999941
 30
0.0
 40
0.5
  1
IMUM_OBSTACLE_CLEARANCE=5},{MODEL=FCA42AAVJU-BYCQ54GEGFU},{NO_OBSTACLES_BELOW_UNIT=1},{NOMINAL_COOLING_CAPACITY=42000},{NOMINAL_COOLING_CAPACITY__TONS_=3.5},{NOMINAL_HEATING_CAPACITY=47000},{NUMBER_OF_POLES=2},{OBSTACLES_BELOW_UNIT=0},{OMNICLASS_NUM
100
AcDbAttributeDefinition
  3

  2
PSOL_13
 70
     9
280
     0
  0
ATTDEF
  5
D0
330
B0
100
AcDbEntity
  8
AM_6
100
AcDbText
 10
425.674799999991
 20
116.174999999941
 30
0.0
 40
0.5
  1
.33.33.11.15.11},{OUT_AIR_INTAKE_H_OFFSET=0.598958333333333},{OUT_AIR_INTAKE_V_OFFSET=0.697916666666667},{OVERALL_DEPTH=33.0625},{OVERALL_HEIGHT=11.3438},{OVERALL_WIDTH=33.0625},{PARTTYPE=Normal},{PHASE=1},{REFRIGERANT_LIQUID_CONNECTION_DIAMETER=0.3
100
AcDbAttributeDefinition
  3

  2
PSOL_14
 70
     9
280
     0
  0
ATTDEF
  5
D1
330
B0
100
AcDbEntity
  8
AM_6
100
AcDbText
 10
425.674799999991
 20
115.674999999941
 30
0.0
 40
0.5
  1
EFRIGERANT_SUCTION_GAS_CONNECTION_DIAMETER=0.625},{REFRIGERANT_USED=R-32},{RETURN_AIR_PRESSURE_DROP=0},{SENSIBLE_COOLING_CAPACITY=0},{SERIES=SkyAir},{SUPPLY_AIR_CONNECTION_HEIGHT=0.0625},{SUPPLY_AIR_CONNECTION_WIDTH=0.0625},{SUPPLY_AIR_PRESSURE_DROP
100
AcDbAttributeDefinition
  3

  2
PSOL_15
 70
     9
280
     0
  0
ATTDEF
  5
D2
330
B0
100
AcDbEntity
  8
AM_6
100
AcDbText
 10
425.674799999991
 20
115.174999999941
 30
0.0
 40
0.5
  1
YSTEM_PERFORMANCE_EER2=10.5},{SYSTEM_PERFORMANCE_HSPF2=10.2},{SYSTEM_PERFORMANCE_SEER2=18.9},{TOTAL_COOLING_CAPACITY=0},{TOTAL_HEATING_CAPACITY=0},{TOTAL_STATIC_PRESSURE=0},{UNIT_HEIGHT_CLEARANCE=8.33333333333333},{UNIT_WEIGHT=58},{URL=https://daiki
100
AcDbAttributeDefinition
  3

  2
PSOL_16
 70
     9
280
     0
  0
ATTDEF
  5
D3
330
B0
100
AcDbEntity
  8
AM_6
100
AcDbText
 10
425.674799999991
 20
114.674999999941
 30
0.0
 40
0.5
  1
rt.com/},{VERSION=1},{VOLTAGE=240},{VOLTAGE_COMMENTS=208 VAC - 230 VAC},{VAR__NO_BRANCH_DUCT=1},{VAR__BRANCH_DUCT_SELECTOR=0},{VAR__FAN_SPEED_SELECTOR=3},{VAR__BRANCH_DUCT_FRONT_OPENING=0},{VAR__L____LOW_FAN_SPEED=741},{VAR__BRANCH_DUCT_RIGHT_OPENIN
100
AcDbAttributeDefinition
  3

  2
PSOL_17
 70
     9
280
     0
  0
ATTDEF
  5
D4
330
B0
100
AcDbEntity
  8
AM_6
100
AcDbText
 10
425.674799999991
 20
114.174999999941
 30
0.0
 40
0.5
  1
VAR__M___MEDIUM_SPEED=971},{VAR__BRANCH_DUCT_BACK_OPENING=0},{VAR__H___HIGH_FAN_SPEED=1253},{VAR__BRANCH_DUCT_LEFT_OPENING=0},{RFA_FAMILY=Download Revit Family (RFA)},{DEFAULTSORTATTR=57},{RFA_FAMILY_=../../_pool_/be/62/air_conditioner-indoor-daikin
100
AcDbAttributeDefinition
  3

  2
PSOL_18
 70
     9
280
     0
  0
ATTDEF
  5
D5
330
B0
100
AcDbEntity
  8
AM_6
100
AcDbText
 10
425.674799999991
 20
113.674999999941
 30
0.0
 40
0.5
  1
ip},{RFA_FAMILY_ENG=../../_pool_/be/62/air_conditioner-indoor-daikin-fca.zip},{REVIT_FAMILY_DOWNLOAD=../../_pool_/be/62/air_conditioner-indoor-daikin-fca.zip}
100
AcDbAttributeDefinition
  3

  2
PSOL_19
 70
     9
280
     0
  0
LINE
  5
D6
330
B0
100
AcDbEntity
  8
AM_9
100
AcDbLine
 10
-0.0000000000062603
 20
120.649999999941
 30
0.0
 11
-0.0000000000062603
 21
130.174999999941
 31
0.0
  0
LINE
  5
D7
330
B0
100
AcDbEntity
  8
AM_9
100
AcDbLine
 10
-0.0000000000062603
 20
120.649999999941
 30
0.0
 11
419.8937499999911
 21
120.649999999941
 31
0.0
  0
LINE
  5
D8
330
B0
100
AcDbEntity
  8
AM_9
100
AcDbLine
 10
419.8937499999911
 20
130.174999999941
 30
0.0
 11
-0.0000000000062728
 21
130.174999999941
 31
0.0
  0
LINE
  5
D9
330
B0
100
AcDbEntity
  8
AM_0
100
AcDbLine
 10
420.674799999991
 20
130.174999999941
 30
0.0
 11
420.674799999991
 21
120.649999999941
 31
0.0
  0
LINE
  5
DA
330
B0
100
AcDbEntity
  8
AM_0
100
AcDbLine
 10
419.8937499999911
 20
120.649999999941
 30
0.0
 11
420.674799999991
 21
120.649999999941
 31
0.0
  0
LINE
  5
DB
330
B0
100
AcDbEntity
  8
AM_0
100
AcDbLine
 10
420.674799999991
 20
130.174999999941
 30
0.0
 11
419.8937499999911
 21
130.174999999941
 31
0.0
  0
ENDBLK
  5
B3
330
B0
100
AcDbEntity
  8
0
100
AcDbBlockEnd
  0
BLOCK
  5
DE
330
DC
100
AcDbEntity
  8
0
100
AcDbBlockBegin
  2
3_FCA42AAVJU_BYCQ54GEGFU_PART5_0_in_FCA42AAVJU_BYCQ54GEGFU_0
 70
     2
 10
0.0
 20
0.0
 30
0.0
  3
3_FCA42AAVJU_BYCQ54GEGFU_PART5_0_in_FCA42AAVJU_BYCQ54GEGFU_0
  1

  0
ATTDEF
  5
E0
330
DC
100
AcDbEntity
  8
AM_6
100
AcDbText
 10
425.674799999991
 20
173.037499999921
 30
0.0
 40
0.5
  1
FCA42AAVJU-BYCQ54GEGFU_PART5
100
AcDbAttributeDefinition
  3

  2
NB
 70
     8
280
     0
  0
ATTDEF
  5
E1
330
DC
100
AcDbEntity
  8
AM_6
100
AcDbText
 10
425.674799999991
 20
172.537499999921
 30
0.0
 40
0.5
  1

100
AcDbAttributeDefinition
  3

  2
NN
 70
     8
280
     0
  0
ATTDEF
  5
E2
330
DC
100
AcDbEntity
  8
AM_6
100
AcDbText
 10
425.674799999991
 20
172.037499999921
 30
0.0
 40
0.5
  1

100
AcDbAttributeDefinition
  3

  2
NT
 70
     8
280
     0
  0
ATTDEF
  5
E3
330
DC
100
AcDbEntity
  8
AM_6
100
AcDbText
 10
425.674799999991
 20
171.537499999921
 30
0.0
 40
0.5
  1
$PARTNUMBER._PART5
100
AcDbAttributeDefinition
  3

  2
NBSYN
 70
     8
280
     0
  0
ATTDEF
  5
E4
330
DC
100
AcDbEntity
  8
AM_6
100
AcDbText
 10
425.674799999991
 20
171.037499999921
 30
0.0
 40
0.5
  1
FCA42AAVJU-BYCQ54GEGFU_PART5
100
AcDbAttributeDefinition
  3

  2
LINA
 70
     8
280
     0
  0
ATTDEF
  5
E5
330
DC
100
AcDbEntity
  8
AM_6
100
AcDbText
 10
425.674799999991
 20
170.537499999921
 30
0.0
 40
0.5
  1
Daikin
100
AcDbAttributeDefinition
  3

  2
CATALOG
 70
     8
280
     0
  0
ATTDEF
  5
E6
330
DC
100
AcDbEntity
  8
AM_6
100
AcDbText
 10
425.674799999991
 20
170.037499999921
 30
0.0
 40
0.5
  1
FCA42AAVJU-BYCQ54GEGFU
100
AcDbAttributeDefinition
  3

  2
PARTNUMBER
 70
     8
280
     0
  0
ATTDEF
  5
E7
330
DC
100
AcDbEntity
  8
AM_6
100
AcDbText
 10
425.674799999991
 20
169.537499999921
 30
0.0
 40
0.5
  1
Air Conditioner Ducted Round Flow Cassette
100
AcDbAttributeDefinition
  3

  2
DESCRIPTION
 70
     8
280
     0
  0
ATTDEF
  5
E8
330
DC
100
AcDbEntity
  8
AM_6
100
AcDbText
 10
425.674799999991
 20
169.037499999921
 30
0.0
 40
0.5
  1
33.0625
100
AcDbAttributeDefinition
  3

  2
OVERALL_DEPTH
 70
     8
280
     0
  0
ATTDEF
  5
E9
330
DC
100
AcDbEntity
  8
AM_6
100
AcDbText
 10
425.674799999991
 20
168.537499999921
 30
0.0
 40
0.5
  1
11.3438
100
AcDbAttributeDefinition
  3

  2
OVERALL_HEIGHT
 70
     8
280
     0
  0
ATTDEF
  5
EA
330
DC
100
AcDbEntity
  8
AM_6
100
AcDbText
 10
425.674799999991
 20
168.037499999921
 30
0.0
 40
0.5
  1
33.0625
100
AcDbAttributeDefinition
  3

  2
OVERALL_WIDTH
 70
     8
280
     0
  0
ATTDEF
  5
EB
330
DC
100
AcDbEntity
  8
AM_6
100
AcDbText
 10
425.674799999991
 20
167.537499999921
 30
0.0
 40
0.5
  1
https://daikincomfort.com/
100
AcDbAttributeDefinition
  3

  2
URL
 70
     8
280
     0
  0
ATTDEF
  5
EC
330
DC
100
AcDbEntity
  8
AM_6
100
AcDbText
 10
425.674799999991
 20
167.037499999921
 30
0.0
 40
0.5
  1
Download Revit Family (RFA)
100
AcDbAttributeDefinition
  3

  2
RFA_FAMILY
 70
     8
280
     0
  0
ATTDEF
  5
ED
330
DC
100
AcDbEntity
  8
AM_6
100
AcDbText
 10
425.674799999991
 20
166.537499999921
 30
0.0
 40
0.5
  1
daikin
100
AcDbAttributeDefinition
  3

  2
COMPANY
 70
     8
280
     0
  0
ATTDEF
  5
EE
330
DC
100
AcDbEntity
  8
AM_6
100
AcDbText
 10
425.674799999991
 20
166.037499999921
 30
0.0
 40
0.5
  1
{$CADENAS_DATA/23d-libs/daikin/sky-air/sky-air20indoor20units/air_conditioner-indoor-daikin-fca.prj},242 {VTYP=3D},{NB=FCA42AAVJU-BYCQ54GEGFU_PART5},{LINA=FCA42AAVJU-BYCQ54GEGFU_PART5},{NN=(R32) Cassette Sky-Air Daikin FCA_PART5},{NOPRJ=TRUE},{DATE=
100
AcDbAttributeDefinition
  3

  2
PSOL_0
 70
     9
280
     0
  0
ATTDEF
  5
EF
330
DC
100
AcDbEntity
  8
AM_6
100
AcDbText
 10
425.674799999991
 20
165.537499999921
 30
0.0
 40
0.5
  1
2026 19:23:42},{GEOMDATE=23.09.2025 06:26:16},{VERSION=},{LINEID=70},{WBVAR=},{WBNUMERIC=}  {NB=FCA42AAVJU-BYCQ54GEGFU_PART5},{LINA=FCA42AAVJU-BYCQ54GEGFU_PART5},{KT=DUMMY},{PARTNUMBER=FCA42AAVJU-BYCQ54GEGFU},{PARTNUMBERMAP09=3.5Ton_FCA42AAVJU-BYCQ5
100
AcDbAttributeDefinition
  3

  2
PSOL_1
 70
     9
280
     0
  0
ATTDEF
  5
F0
330
DC
100
AcDbEntity
  8
AM_6
100
AcDbText
 10
425.674799999991
 20
165.037499999921
 30
0.0
 40
0.5
  1
},{ACTUAL_RETURN_AIR_FLOW=1253},{ACTUAL_SUPPLY_AIR_FLOW=1253},{AMBIENT_TEMPERATURE=0},{APPARENT_POWER=384},{ASSEMBLY_CODE=D3090},{BRANCH_DUCT_CENTER_OFFSET=0},{BRANCH_DUCT_DEPTH=0.00833333333333333},{BRANCH_DUCT_HEIGHT=0.3125},{BRANCH_DUCT_HORIZONTA
100
AcDbAttributeDefinition
  3

  2
PSOL_2
 70
     9
280
     0
  0
ATTDEF
  5
F1
330
DC
100
AcDbEntity
  8
AM_6
100
AcDbText
 10
425.674799999991
 20
164.537499999921
 30
0.0
 40
0.5
  1
ET=0.526041666666667},{BRANCH_DUCT_LEFT_CENTER_OFFSET=0.0677083333333333},{BRANCH_DUCT_POSITION_ANGLE=0},{BRANCH_DUCT_REFERENCE_LENGTH=1.37760416666667},{BRANCH_DUCT_RIGHT_CENTER_OFFSET=0.0833333333333333},{BRANCH_DUCT_WIDTH=1.14583333333333},{CATEG
100
AcDbAttributeDefinition
  3

  2
PSOL_3
 70
     9
280
     0
  0
ATTDEF
  5
F2
330
DC
100
AcDbEntity
  8
AM_6
100
AcDbText
 10
425.674799999991
 20
164.037499999921
 30
0.0
 40
0.5
  1
chanical Equipment},{CEILING_OPENING_SPACE_DEPTH=2.98958333333333},{CEILING_OPENING_SPACE_WIDTH=2.98958333333333},{CLEARANCE_PRIMARY_OFFSET=5},{CLEARANCE_SECONDARY_OFFSET=0.65625},{CLEARANCE_VISIBILITY=1},{COIL_AIR_PRESSURE_DROP=0},{CONDENSATE_DRAIN
100
AcDbAttributeDefinition
  3

  2
PSOL_4
 70
     9
280
     0
  0
ATTDEF
  5
F3
330
DC
100
AcDbEntity
  8
AM_6
100
AcDbText
 10
425.674799999991
 20
163.537499999921
 30
0.0
 40
0.5
  1
CTION_DIAMETER=1.25},{CONDENSATE_DRAIN_PIPE_HORIZONTAL_OFFSET=0.583333333333333},{CONDENSATE_DRAIN_PIPE_LENGTH=1.38016666666667},{CONDENSATE_DRAIN_PIPE_RADIUS=0.0520833333333333},{CONDENSATE_DRAIN_PIPE_VERTICAL_OFFSET=1.11458333333333},{COOLING_ENTE
100
AcDbAttributeDefinition
  3

  2
PSOL_5
 70
     9
280
     0
  0
ATTDEF
  5
F4
330
DC
100
AcDbEntity
  8
AM_6
100
AcDbText
 10
425.674799999991
 20
163.037499999921
 30
0.0
 40
0.5
  1
RY_BULB_TEMPERATURE=0},{COOLING_ENTERING_WET_BULB_TEMPERATURE=0},{COOLING_LEAVING_DRY_BULB_TEMPERATURE=0},{COOLING_LEAVING_WET_BULB_TEMPERATURE=0},{COST=0},{DECORATION_PANEL_COVER_HEIGHT=0.130208333333333},{DECORATION_PANEL_DEPTH=3.11458333333333},{
100
AcDbAttributeDefinition
  3

  2
PSOL_6
 70
     9
280
     0
  0
ATTDEF
  5
F5
330
DC
100
AcDbEntity
  8
AM_6
100
AcDbText
 10
425.674799999991
 20
162.537499999921
 30
0.0
 40
0.5
  1
TION_PANEL_INSIDE_HEIGHT=0.296875},{DECORATION_PANEL_OVERALL_HEIGHT=0.427083333333333},{DECORATION_PANEL_WEIGHT=22},{DECORATION_PANEL_WIDTH=3.11458333333333},{DEFAULT_ELEVATION=4},{DESCRIPTION=Air Conditioner Ducted Round Flow Cassette},{DESIGN_BRAN
100
AcDbAttributeDefinition
  3

  2
PSOL_7
 70
     9
280
     0
  0
ATTDEF
  5
F6
330
DC
100
AcDbEntity
  8
AM_6
100
AcDbText
 10
425.674799999991
 20
162.037499999921
 30
0.0
 40
0.5
  1
T_SUPPLY_AIR_FLOW=0},{DESIGN_FRESH_AIR_FLOW=0},{DESIGN_RETURN_AIR_FLOW=1253},{DESIGN_SUPPLY_AIR_FLOW=1253},{DRAIN_FLOW=0},{ENCLOSURE_DEPTH=2.75520833333333},{ENCLOSURE_FLANGE_OFFSET=2.33333333333333},{ENCLOSURE_HEIGHT=0.9453125},{ENCLOSURE_WIDTH=2.7
100
AcDbAttributeDefinition
  3

  2
PSOL_8
 70
     9
280
     0
  0
ATTDEF
  5
F7
330
DC
100
AcDbEntity
  8
AM_6
100
AcDbText
 10
425.674799999991
 20
161.537499999921
 30
0.0
 40
0.5
  1
3333333},{FACE_VELOCITY__FPM_=0},{FAN_TYPE=Turbo fan},{FEET_PRESSURE_DROP=0},{FREQUENCY=60},{FRESH_AIR_INTAKE=0},{FRESH_AIR_INTAKE_RADIUS=0.0625},{GAS_PIPE_HORIZONTAL_OFFSET=0.541666666666667},{GAS_PIPE_LENGTH=1.38016666666667},{GAS_PIPE_RADIUS=0.02
100
AcDbAttributeDefinition
  3

  2
PSOL_9
 70
     9
280
     0
  0
ATTDEF
  5
F8
330
DC
100
AcDbEntity
  8
AM_6
100
AcDbText
 10
425.674799999991
 20
161.037499999921
 30
0.0
 40
0.5
  1
66666667},{GAS_PIPE_VERTICAL_OFFSET=1.08333333333333},{HEAT_EXCHANGER_TYPE=Cross Fin Coil},{HEATING_ENTERING_DRY_BULB_TEMPERATURE=0},{HEATING_ENTERING_WET_BULB_TEMPERATURE=0},{HEATING_LEAVING_DRY_BULB_TEMPERATURE=0},{HEATING_LEAVING_WET_BULB_TEMPERA
100
AcDbAttributeDefinition
  3

  2
PSOL_10
 70
     9
280
     0
  0
ATTDEF
  5
F9
330
DC
100
AcDbEntity
  8
AM_6
100
AcDbText
 10
425.674799999991
 20
160.537499999921
 30
0.0
 40
0.5
  1
},{KNOCK_HOLE_OFFSET=0.00833333333333333},{KNOCK_HOLE_RADIUS=0.164},{LATENT_COOLING_CAPACITY=0},{LIQUID_PIPE_HORIZONTAL_OFFSET=0.411458333333333},{LIQUID_PIPE_LENGTH=1.38016666666667},{LIQUID_PIPE_RADIUS=0.015625},{LIQUID_PIPE_VERTICAL_OFFSET=0.9166
100
AcDbAttributeDefinition
  3

  2
PSOL_11
 70
     9
280
     0
  0
ATTDEF
  5
FA
330
DC
100
AcDbEntity
  8
AM_6
100
AcDbText
 10
425.674799999991
 20
160.037499999921
 30
0.0
 40
0.5
  1
66667},{LOAD_SUB_CLASSIFICATION_MOTOR=1},{MANUFACTURER=Daikin},{MASSUNIT=1},{MAXIMUM_AIR_FLOW=1253},{MAXIMUM_OVERCURRENT_PROTECTION=15},{MEDIAN_AIR_FLOW=971},{MINIMUM_AIR_FLOW=741},{MINIMUM_CIRCUIT_AMPS=1.6},{MINIMUM_FLOOR_CLEARANCE=8.33333333333333
100
AcDbAttributeDefinition
  3

  2
PSOL_12
 70
     9
280
     0
  0
ATTDEF
  5
FB
330
DC
100
AcDbEntity
  8
AM_6
100
AcDbText
 10
425.674799999991
 20
159.537499999921
 30
0.0
 40
0.5
  1
IMUM_OBSTACLE_CLEARANCE=5},{MODEL=FCA42AAVJU-BYCQ54GEGFU},{NO_OBSTACLES_BELOW_UNIT=1},{NOMINAL_COOLING_CAPACITY=42000},{NOMINAL_COOLING_CAPACITY__TONS_=3.5},{NOMINAL_HEATING_CAPACITY=47000},{NUMBER_OF_POLES=2},{OBSTACLES_BELOW_UNIT=0},{OMNICLASS_NUM
100
AcDbAttributeDefinition
  3

  2
PSOL_13
 70
     9
280
     0
  0
ATTDEF
  5
FC
330
DC
100
AcDbEntity
  8
AM_6
100
AcDbText
 10
425.674799999991
 20
159.037499999921
 30
0.0
 40
0.5
  1
.33.33.11.15.11},{OUT_AIR_INTAKE_H_OFFSET=0.598958333333333},{OUT_AIR_INTAKE_V_OFFSET=0.697916666666667},{OVERALL_DEPTH=33.0625},{OVERALL_HEIGHT=11.3438},{OVERALL_WIDTH=33.0625},{PARTTYPE=Normal},{PHASE=1},{REFRIGERANT_LIQUID_CONNECTION_DIAMETER=0.3
100
AcDbAttributeDefinition
  3

  2
PSOL_14
 70
     9
280
     0
  0
ATTDEF
  5
FD
330
DC
100
AcDbEntity
  8
AM_6
100
AcDbText
 10
425.674799999991
 20
158.537499999921
 30
0.0
 40
0.5
  1
EFRIGERANT_SUCTION_GAS_CONNECTION_DIAMETER=0.625},{REFRIGERANT_USED=R-32},{RETURN_AIR_PRESSURE_DROP=0},{SENSIBLE_COOLING_CAPACITY=0},{SERIES=SkyAir},{SUPPLY_AIR_CONNECTION_HEIGHT=0.0625},{SUPPLY_AIR_CONNECTION_WIDTH=0.0625},{SUPPLY_AIR_PRESSURE_DROP
100
AcDbAttributeDefinition
  3

  2
PSOL_15
 70
     9
280
     0
  0
ATTDEF
  5
FE
330
DC
100
AcDbEntity
  8
AM_6
100
AcDbText
 10
425.674799999991
 20
158.037499999921
 30
0.0
 40
0.5
  1
YSTEM_PERFORMANCE_EER2=10.5},{SYSTEM_PERFORMANCE_HSPF2=10.2},{SYSTEM_PERFORMANCE_SEER2=18.9},{TOTAL_COOLING_CAPACITY=0},{TOTAL_HEATING_CAPACITY=0},{TOTAL_STATIC_PRESSURE=0},{UNIT_HEIGHT_CLEARANCE=8.33333333333333},{UNIT_WEIGHT=58},{URL=https://daiki
100
AcDbAttributeDefinition
  3

  2
PSOL_16
 70
     9
280
     0
  0
ATTDEF
  5
FF
330
DC
100
AcDbEntity
  8
AM_6
100
AcDbText
 10
425.674799999991
 20
157.537499999921
 30
0.0
 40
0.5
  1
rt.com/},{VERSION=1},{VOLTAGE=240},{VOLTAGE_COMMENTS=208 VAC - 230 VAC},{VAR__NO_BRANCH_DUCT=1},{VAR__BRANCH_DUCT_SELECTOR=0},{VAR__FAN_SPEED_SELECTOR=3},{VAR__BRANCH_DUCT_FRONT_OPENING=0},{VAR__L____LOW_FAN_SPEED=741},{VAR__BRANCH_DUCT_RIGHT_OPENIN
100
AcDbAttributeDefinition
  3

  2
PSOL_17
 70
     9
280
     0
  0
ATTDEF
  5
100
330
DC
100
AcDbEntity
  8
AM_6
100
AcDbText
 10
425.674799999991
 20
157.037499999921
 30
0.0
 40
0.5
  1
VAR__M___MEDIUM_SPEED=971},{VAR__BRANCH_DUCT_BACK_OPENING=0},{VAR__H___HIGH_FAN_SPEED=1253},{VAR__BRANCH_DUCT_LEFT_OPENING=0},{RFA_FAMILY=Download Revit Family (RFA)},{DEFAULTSORTATTR=57},{RFA_FAMILY_=../../_pool_/be/62/air_conditioner-indoor-daikin
100
AcDbAttributeDefinition
  3

  2
PSOL_18
 70
     9
280
     0
  0
ATTDEF
  5
101
330
DC
100
AcDbEntity
  8
AM_6
100
AcDbText
 10
425.674799999991
 20
156.537499999921
 30
0.0
 40
0.5
  1
ip},{RFA_FAMILY_ENG=../../_pool_/be/62/air_conditioner-indoor-daikin-fca.zip},{REVIT_FAMILY_DOWNLOAD=../../_pool_/be/62/air_conditioner-indoor-daikin-fca.zip}
100
AcDbAttributeDefinition
  3

  2
PSOL_19
 70
     9
280
     0
  0
LINE
  5
102
330
DC
100
AcDbEntity
  8
AM_9
100
AcDbLine
 10
-0.0000000000062603
 20
157.162499999921
 30
0.0
 11
419.8937499999911
 21
157.162499999921
 31
0.0
  0
LINE
  5
103
330
DC
100
AcDbEntity
  8
AM_9
100
AcDbLine
 10
420.674799999991
 20
173.037499999921
 30
0.0
 11
-0.0000000000062728
 21
173.037499999921
 31
0.0
  0
LINE
  5
104
330
DC
100
AcDbEntity
  8
AM_9
100
AcDbLine
 10
-0.0000000000062603
 20
157.162499999921
 30
0.0
 11
-0.0000000000062603
 21
161.92499999998
 31
0.0
  0
LINE
  5
105
330
DC
100
AcDbEntity
  8
AM_0
100
AcDbLine
 10
420.674799999991
 20
161.92499999998
 30
0.0
 11
420.674799999991
 21
157.162499999921
 31
0.0
  0
LINE
  5
106
330
DC
100
AcDbEntity
  8
AM_0
100
AcDbLine
 10
419.8937499999911
 20
157.162499999921
 30
0.0
 11
420.674799999991
 21
157.162499999921
 31
0.0
  0
ENDBLK
  5
DF
330
DC
100
AcDbEntity
  8
0
100
AcDbBlockEnd
  0
BLOCK
  5
109
330
107
100
AcDbEntity
  8
0
100
AcDbBlockBegin
  2
4_FCA42AAVJU_BYCQ54GEGFU_PART4_0_in_FCA42AAVJU_BYCQ54GEGFU_0
 70
     2
 10
0.0
 20
0.0
 30
0.0
  3
4_FCA42AAVJU_BYCQ54GEGFU_PART4_0_in_FCA42AAVJU_BYCQ54GEGFU_0
  1

  0
ATTDEF
  5
10B
330
107
100
AcDbEntity
  8
AM_6
100
AcDbText
 10
424.893749999993
 20
378.6187499999036
 30
0.0
 40
0.5
  1
FCA42AAVJU-BYCQ54GEGFU_PART4
100
AcDbAttributeDefinition
  3

  2
NB
 70
     8
280
     0
  0
ATTDEF
  5
10C
330
107
100
AcDbEntity
  8
AM_6
100
AcDbText
 10
424.893749999993
 20
378.1187499999036
 30
0.0
 40
0.5
  1

100
AcDbAttributeDefinition
  3

  2
NN
 70
     8
280
     0
  0
ATTDEF
  5
10D
330
107
100
AcDbEntity
  8
AM_6
100
AcDbText
 10
424.893749999993
 20
377.6187499999036
 30
0.0
 40
0.5
  1

100
AcDbAttributeDefinition
  3

  2
NT
 70
     8
280
     0
  0
ATTDEF
  5
10E
330
107
100
AcDbEntity
  8
AM_6
100
AcDbText
 10
424.893749999993
 20
377.1187499999036
 30
0.0
 40
0.5
  1
$PARTNUMBER._PART4
100
AcDbAttributeDefinition
  3

  2
NBSYN
 70
     8
280
     0
  0
ATTDEF
  5
10F
330
107
100
AcDbEntity
  8
AM_6
100
AcDbText
 10
424.893749999993
 20
376.6187499999036
 30
0.0
 40
0.5
  1
FCA42AAVJU-BYCQ54GEGFU_PART4
100
AcDbAttributeDefinition
  3

  2
LINA
 70
     8
280
     0
  0
ATTDEF
  5
110
330
107
100
AcDbEntity
  8
AM_6
100
AcDbText
 10
424.893749999993
 20
376.1187499999036
 30
0.0
 40
0.5
  1
Daikin
100
AcDbAttributeDefinition
  3

  2
CATALOG
 70
     8
280
     0
  0
ATTDEF
  5
111
330
107
100
AcDbEntity
  8
AM_6
100
AcDbText
 10
424.893749999993
 20
375.6187499999036
 30
0.0
 40
0.5
  1
FCA42AAVJU-BYCQ54GEGFU
100
AcDbAttributeDefinition
  3

  2
PARTNUMBER
 70
     8
280
     0
  0
ATTDEF
  5
112
330
107
100
AcDbEntity
  8
AM_6
100
AcDbText
 10
424.893749999993
 20
375.1187499999036
 30
0.0
 40
0.5
  1
Air Conditioner Ducted Round Flow Cassette
100
AcDbAttributeDefinition
  3

  2
DESCRIPTION
 70
     8
280
     0
  0
ATTDEF
  5
113
330
107
100
AcDbEntity
  8
AM_6
100
AcDbText
 10
424.893749999993
 20
374.6187499999036
 30
0.0
 40
0.5
  1
33.0625
100
AcDbAttributeDefinition
  3

  2
OVERALL_DEPTH
 70
     8
280
     0
  0
ATTDEF
  5
114
330
107
100
AcDbEntity
  8
AM_6
100
AcDbText
 10
424.893749999993
 20
374.1187499999036
 30
0.0
 40
0.5
  1
11.3438
100
AcDbAttributeDefinition
  3

  2
OVERALL_HEIGHT
 70
     8
280
     0
  0
ATTDEF
  5
115
330
107
100
AcDbEntity
  8
AM_6
100
AcDbText
 10
424.893749999993
 20
373.6187499999036
 30
0.0
 40
0.5
  1
33.0625
100
AcDbAttributeDefinition
  3

  2
OVERALL_WIDTH
 70
     8
280
     0
  0
ATTDEF
  5
116
330
107
100
AcDbEntity
  8
AM_6
100
AcDbText
 10
424.893749999993
 20
373.1187499999036
 30
0.0
 40
0.5
  1
https://daikincomfort.com/
100
AcDbAttributeDefinition
  3

  2
URL
 70
     8
280
     0
  0
ATTDEF
  5
117
330
107
100
AcDbEntity
  8
AM_6
100
AcDbText
 10
424.893749999993
 20
372.6187499999036
 30
0.0
 40
0.5
  1
Download Revit Family (RFA)
100
AcDbAttributeDefinition
  3

  2
RFA_FAMILY
 70
     8
280
     0
  0
ATTDEF
  5
118
330
107
100
AcDbEntity
  8
AM_6
100
AcDbText
 10
424.893749999993
 20
372.1187499999036
 30
0.0
 40
0.5
  1
daikin
100
AcDbAttributeDefinition
  3

  2
COMPANY
 70
     8
280
     0
  0
ATTDEF
  5
119
330
107
100
AcDbEntity
  8
AM_6
100
AcDbText
 10
424.893749999993
 20
371.6187499999036
 30
0.0
 40
0.5
  1
{$CADENAS_DATA/23d-libs/daikin/sky-air/sky-air20indoor20units/air_conditioner-indoor-daikin-fca.prj},242 {VTYP=3D},{NB=FCA42AAVJU-BYCQ54GEGFU_PART4},{LINA=FCA42AAVJU-BYCQ54GEGFU_PART4},{NN=(R32) Cassette Sky-Air Daikin FCA_PART4},{NOPRJ=TRUE},{DATE=
100
AcDbAttributeDefinition
  3

  2
PSOL_0
 70
     9
280
     0
  0
ATTDEF
  5
11A
330
107
100
AcDbEntity
  8
AM_6
100
AcDbText
 10
424.893749999993
 20
371.1187499999036
 30
0.0
 40
0.5
  1
2026 19:23:42},{GEOMDATE=23.09.2025 06:26:16},{VERSION=},{LINEID=70},{WBVAR=},{WBNUMERIC=}  {NB=FCA42AAVJU-BYCQ54GEGFU_PART4},{LINA=FCA42AAVJU-BYCQ54GEGFU_PART4},{KT=DUMMY},{PARTNUMBER=FCA42AAVJU-BYCQ54GEGFU},{PARTNUMBERMAP09=3.5Ton_FCA42AAVJU-BYCQ5
100
AcDbAttributeDefinition
  3

  2
PSOL_1
 70
     9
280
     0
  0
ATTDEF
  5
11B
330
107
100
AcDbEntity
  8
AM_6
100
AcDbText
 10
424.893749999993
 20
370.6187499999036
 30
0.0
 40
0.5
  1
},{ACTUAL_RETURN_AIR_FLOW=1253},{ACTUAL_SUPPLY_AIR_FLOW=1253},{AMBIENT_TEMPERATURE=0},{APPARENT_POWER=384},{ASSEMBLY_CODE=D3090},{BRANCH_DUCT_CENTER_OFFSET=0},{BRANCH_DUCT_DEPTH=0.00833333333333333},{BRANCH_DUCT_HEIGHT=0.3125},{BRANCH_DUCT_HORIZONTA
100
AcDbAttributeDefinition
  3

  2
PSOL_2
 70
     9
280
     0
  0
ATTDEF
  5
11C
330
107
100
AcDbEntity
  8
AM_6
100
AcDbText
 10
424.893749999993
 20
370.1187499999036
 30
0.0
 40
0.5
  1
ET=0.526041666666667},{BRANCH_DUCT_LEFT_CENTER_OFFSET=0.0677083333333333},{BRANCH_DUCT_POSITION_ANGLE=0},{BRANCH_DUCT_REFERENCE_LENGTH=1.37760416666667},{BRANCH_DUCT_RIGHT_CENTER_OFFSET=0.0833333333333333},{BRANCH_DUCT_WIDTH=1.14583333333333},{CATEG
100
AcDbAttributeDefinition
  3

  2
PSOL_3
 70
     9
280
     0
  0
ATTDEF
  5
11D
330
107
100
AcDbEntity
  8
AM_6
100
AcDbText
 10
424.893749999993
 20
369.6187499999036
 30
0.0
 40
0.5
  1
chanical Equipment},{CEILING_OPENING_SPACE_DEPTH=2.98958333333333},{CEILING_OPENING_SPACE_WIDTH=2.98958333333333},{CLEARANCE_PRIMARY_OFFSET=5},{CLEARANCE_SECONDARY_OFFSET=0.65625},{CLEARANCE_VISIBILITY=1},{COIL_AIR_PRESSURE_DROP=0},{CONDENSATE_DRAIN
100
AcDbAttributeDefinition
  3

  2
PSOL_4
 70
     9
280
     0
  0
ATTDEF
  5
11E
330
107
100
AcDbEntity
  8
AM_6
100
AcDbText
 10
424.893749999993
 20
369.1187499999036
 30
0.0
 40
0.5
  1
CTION_DIAMETER=1.25},{CONDENSATE_DRAIN_PIPE_HORIZONTAL_OFFSET=0.583333333333333},{CONDENSATE_DRAIN_PIPE_LENGTH=1.38016666666667},{CONDENSATE_DRAIN_PIPE_RADIUS=0.0520833333333333},{CONDENSATE_DRAIN_PIPE_VERTICAL_OFFSET=1.11458333333333},{COOLING_ENTE
100
AcDbAttributeDefinition
  3

  2
PSOL_5
 70
     9
280
     0
  0
ATTDEF
  5
11F
330
107
100
AcDbEntity
  8
AM_6
100
AcDbText
 10
424.893749999993
 20
368.6187499999036
 30
0.0
 40
0.5
  1
RY_BULB_TEMPERATURE=0},{COOLING_ENTERING_WET_BULB_TEMPERATURE=0},{COOLING_LEAVING_DRY_BULB_TEMPERATURE=0},{COOLING_LEAVING_WET_BULB_TEMPERATURE=0},{COST=0},{DECORATION_PANEL_COVER_HEIGHT=0.130208333333333},{DECORATION_PANEL_DEPTH=3.11458333333333},{
100
AcDbAttributeDefinition
  3

  2
PSOL_6
 70
     9
280
     0
  0
ATTDEF
  5
120
330
107
100
AcDbEntity
  8
AM_6
100
AcDbText
 10
424.893749999993
 20
368.1187499999036
 30
0.0
 40
0.5
  1
TION_PANEL_INSIDE_HEIGHT=0.296875},{DECORATION_PANEL_OVERALL_HEIGHT=0.427083333333333},{DECORATION_PANEL_WEIGHT=22},{DECORATION_PANEL_WIDTH=3.11458333333333},{DEFAULT_ELEVATION=4},{DESCRIPTION=Air Conditioner Ducted Round Flow Cassette},{DESIGN_BRAN
100
AcDbAttributeDefinition
  3

  2
PSOL_7
 70
     9
280
     0
  0
ATTDEF
  5
121
330
107
100
AcDbEntity
  8
AM_6
100
AcDbText
 10
424.893749999993
 20
367.6187499999036
 30
0.0
 40
0.5
  1
T_SUPPLY_AIR_FLOW=0},{DESIGN_FRESH_AIR_FLOW=0},{DESIGN_RETURN_AIR_FLOW=1253},{DESIGN_SUPPLY_AIR_FLOW=1253},{DRAIN_FLOW=0},{ENCLOSURE_DEPTH=2.75520833333333},{ENCLOSURE_FLANGE_OFFSET=2.33333333333333},{ENCLOSURE_HEIGHT=0.9453125},{ENCLOSURE_WIDTH=2.7
100
AcDbAttributeDefinition
  3

  2
PSOL_8
 70
     9
280
     0
  0
ATTDEF
  5
122
330
107
100
AcDbEntity
  8
AM_6
100
AcDbText
 10
424.893749999993
 20
367.1187499999036
 30
0.0
 40
0.5
  1
3333333},{FACE_VELOCITY__FPM_=0},{FAN_TYPE=Turbo fan},{FEET_PRESSURE_DROP=0},{FREQUENCY=60},{FRESH_AIR_INTAKE=0},{FRESH_AIR_INTAKE_RADIUS=0.0625},{GAS_PIPE_HORIZONTAL_OFFSET=0.541666666666667},{GAS_PIPE_LENGTH=1.38016666666667},{GAS_PIPE_RADIUS=0.02
100
AcDbAttributeDefinition
  3

  2
PSOL_9
 70
     9
280
     0
  0
ATTDEF
  5
123
330
107
100
AcDbEntity
  8
AM_6
100
AcDbText
 10
424.893749999993
 20
366.6187499999036
 30
0.0
 40
0.5
  1
66666667},{GAS_PIPE_VERTICAL_OFFSET=1.08333333333333},{HEAT_EXCHANGER_TYPE=Cross Fin Coil},{HEATING_ENTERING_DRY_BULB_TEMPERATURE=0},{HEATING_ENTERING_WET_BULB_TEMPERATURE=0},{HEATING_LEAVING_DRY_BULB_TEMPERATURE=0},{HEATING_LEAVING_WET_BULB_TEMPERA
100
AcDbAttributeDefinition
  3

  2
PSOL_10
 70
     9
280
     0
  0
ATTDEF
  5
124
330
107
100
AcDbEntity
  8
AM_6
100
AcDbText
 10
424.893749999993
 20
366.1187499999036
 30
0.0
 40
0.5
  1
},{KNOCK_HOLE_OFFSET=0.00833333333333333},{KNOCK_HOLE_RADIUS=0.164},{LATENT_COOLING_CAPACITY=0},{LIQUID_PIPE_HORIZONTAL_OFFSET=0.411458333333333},{LIQUID_PIPE_LENGTH=1.38016666666667},{LIQUID_PIPE_RADIUS=0.015625},{LIQUID_PIPE_VERTICAL_OFFSET=0.9166
100
AcDbAttributeDefinition
  3

  2
PSOL_11
 70
     9
280
     0
  0
ATTDEF
  5
125
330
107
100
AcDbEntity
  8
AM_6
100
AcDbText
 10
424.893749999993
 20
365.6187499999036
 30
0.0
 40
0.5
  1
66667},{LOAD_SUB_CLASSIFICATION_MOTOR=1},{MANUFACTURER=Daikin},{MASSUNIT=1},{MAXIMUM_AIR_FLOW=1253},{MAXIMUM_OVERCURRENT_PROTECTION=15},{MEDIAN_AIR_FLOW=971},{MINIMUM_AIR_FLOW=741},{MINIMUM_CIRCUIT_AMPS=1.6},{MINIMUM_FLOOR_CLEARANCE=8.33333333333333
100
AcDbAttributeDefinition
  3

  2
PSOL_12
 70
     9
280
     0
  0
ATTDEF
  5
126
330
107
100
AcDbEntity
  8
AM_6
100
AcDbText
 10
424.893749999993
 20
365.1187499999036
 30
0.0
 40
0.5
  1
IMUM_OBSTACLE_CLEARANCE=5},{MODEL=FCA42AAVJU-BYCQ54GEGFU},{NO_OBSTACLES_BELOW_UNIT=1},{NOMINAL_COOLING_CAPACITY=42000},{NOMINAL_COOLING_CAPACITY__TONS_=3.5},{NOMINAL_HEATING_CAPACITY=47000},{NUMBER_OF_POLES=2},{OBSTACLES_BELOW_UNIT=0},{OMNICLASS_NUM
100
AcDbAttributeDefinition
  3

  2
PSOL_13
 70
     9
280
     0
  0
ATTDEF
  5
127
330
107
100
AcDbEntity
  8
AM_6
100
AcDbText
 10
424.893749999993
 20
364.6187499999036
 30
0.0
 40
0.5
  1
.33.33.11.15.11},{OUT_AIR_INTAKE_H_OFFSET=0.598958333333333},{OUT_AIR_INTAKE_V_OFFSET=0.697916666666667},{OVERALL_DEPTH=33.0625},{OVERALL_HEIGHT=11.3438},{OVERALL_WIDTH=33.0625},{PARTTYPE=Normal},{PHASE=1},{REFRIGERANT_LIQUID_CONNECTION_DIAMETER=0.3
100
AcDbAttributeDefinition
  3

  2
PSOL_14
 70
     9
280
     0
  0
ATTDEF
  5
128
330
107
100
AcDbEntity
  8
AM_6
100
AcDbText
 10
424.893749999993
 20
364.1187499999036
 30
0.0
 40
0.5
  1
EFRIGERANT_SUCTION_GAS_CONNECTION_DIAMETER=0.625},{REFRIGERANT_USED=R-32},{RETURN_AIR_PRESSURE_DROP=0},{SENSIBLE_COOLING_CAPACITY=0},{SERIES=SkyAir},{SUPPLY_AIR_CONNECTION_HEIGHT=0.0625},{SUPPLY_AIR_CONNECTION_WIDTH=0.0625},{SUPPLY_AIR_PRESSURE_DROP
100
AcDbAttributeDefinition
  3

  2
PSOL_15
 70
     9
280
     0
  0
ATTDEF
  5
129
330
107
100
AcDbEntity
  8
AM_6
100
AcDbText
 10
424.893749999993
 20
363.6187499999036
 30
0.0
 40
0.5
  1
YSTEM_PERFORMANCE_EER2=10.5},{SYSTEM_PERFORMANCE_HSPF2=10.2},{SYSTEM_PERFORMANCE_SEER2=18.9},{TOTAL_COOLING_CAPACITY=0},{TOTAL_HEATING_CAPACITY=0},{TOTAL_STATIC_PRESSURE=0},{UNIT_HEIGHT_CLEARANCE=8.33333333333333},{UNIT_WEIGHT=58},{URL=https://daiki
100
AcDbAttributeDefinition
  3

  2
PSOL_16
 70
     9
280
     0
  0
ATTDEF
  5
12A
330
107
100
AcDbEntity
  8
AM_6
100
AcDbText
 10
424.893749999993
 20
363.1187499999036
 30
0.0
 40
0.5
  1
rt.com/},{VERSION=1},{VOLTAGE=240},{VOLTAGE_COMMENTS=208 VAC - 230 VAC},{VAR__NO_BRANCH_DUCT=1},{VAR__BRANCH_DUCT_SELECTOR=0},{VAR__FAN_SPEED_SELECTOR=3},{VAR__BRANCH_DUCT_FRONT_OPENING=0},{VAR__L____LOW_FAN_SPEED=741},{VAR__BRANCH_DUCT_RIGHT_OPENIN
100
AcDbAttributeDefinition
  3

  2
PSOL_17
 70
     9
280
     0
  0
ATTDEF
  5
12B
330
107
100
AcDbEntity
  8
AM_6
100
AcDbText
 10
424.893749999993
 20
362.6187499999036
 30
0.0
 40
0.5
  1
VAR__M___MEDIUM_SPEED=971},{VAR__BRANCH_DUCT_BACK_OPENING=0},{VAR__H___HIGH_FAN_SPEED=1253},{VAR__BRANCH_DUCT_LEFT_OPENING=0},{RFA_FAMILY=Download Revit Family (RFA)},{DEFAULTSORTATTR=57},{RFA_FAMILY_=../../_pool_/be/62/air_conditioner-indoor-daikin
100
AcDbAttributeDefinition
  3

  2
PSOL_18
 70
     9
280
     0
  0
ATTDEF
  5
12C
330
107
100
AcDbEntity
  8
AM_6
100
AcDbText
 10
424.893749999993
 20
362.1187499999036
 30
0.0
 40
0.5
  1
ip},{RFA_FAMILY_ENG=../../_pool_/be/62/air_conditioner-indoor-daikin-fca.zip},{REVIT_FAMILY_DOWNLOAD=../../_pool_/be/62/air_conditioner-indoor-daikin-fca.zip}
100
AcDbAttributeDefinition
  3

  2
PSOL_19
 70
     9
280
     0
  0
LINE
  5
12D
330
107
100
AcDbEntity
  8
AM_9
100
AcDbLine
 10
355.599999999991
 20
90.48749999992984
 30
0.0
 11
355.599999999991
 21
378.618749999894
 31
0.0
  0
LINE
  5
12E
330
107
100
AcDbEntity
  8
AM_9
100
AcDbLine
 10
-417.3537500000038
 20
112.71249999993
 30
0.0
 11
-417.3537500000028
 21
232.549700000001
 31
0.0
  0
LINE
  5
12F
330
107
100
AcDbEntity
  8
AM_9
100
AcDbLine
 10
-419.893750000009
 20
132.575300000001
 30
0.0
 11
-417.353750000003
 21
132.575300000001
 31
0.0
  0
LINE
  5
130
330
107
100
AcDbEntity
  8
AM_9
100
AcDbLine
 10
-417.353750000003
 20
232.549700000001
 30
0.0
 11
-419.893750000009
 21
232.549700000001
 31
0.0
  0
LINE
  5
131
330
107
100
AcDbEntity
  8
AM_9
100
AcDbLine
 10
417.353749999995
 20
112.71249999993
 30
0.0
 11
417.353749999995
 21
207.96249999993
 31
0.0
  0
LINE
  5
132
330
107
100
AcDbEntity
  8
AM_9
100
AcDbLine
 10
419.893749999993
 20
207.96249999993
 30
0.0
 11
417.353749999995
 21
207.96249999993
 31
0.0
  0
LINE
  5
133
330
107
100
AcDbEntity
  8
AM_9
100
AcDbLine
 10
417.353749999995
 20
112.71249999993
 30
0.0
 11
419.893749999993
 21
112.71249999993
 31
0.0
  0
LINE
  5
134
330
107
100
AcDbEntity
  8
AM_9
100
AcDbLine
 10
-419.893750000007
 20
112.71249999993
 30
0.0
 11
-417.3537500000038
 21
112.71249999993
 31
0.0
  0
LINE
  5
135
330
107
100
AcDbEntity
  8
AM_9
100
AcDbLine
 10
-417.3537500000035
 20
207.96249999993
 30
0.0
 11
-419.893750000007
 21
207.96249999993
 31
0.0
  0
LINE
  5
136
330
107
100
AcDbEntity
  8
AM_9
100
AcDbLine
 10
419.893749999991
 20
193.67499999998
 30
0.0
 11
419.893749999991
 21
161.92499999998
 31
0.0
  0
LINE
  5
137
330
107
100
AcDbEntity
  8
AM_0
100
AcDbLine
 10
-419.893750000009
 20
378.6187499999017
 30
0.0
 11
-419.893750000009
 21
90.48749999993771
 31
0.0
  0
LINE
  5
138
330
107
100
AcDbEntity
  8
AM_0
100
AcDbLine
 10
419.893749999991
 20
90.48749999993771
 30
0.0
 11
-419.893750000009
 21
90.48749999993771
 31
0.0
  0
LINE
  5
139
330
107
100
AcDbEntity
  8
AM_0
100
AcDbLine
 10
419.893749999991
 20
161.92499999998
 30
0.0
 11
419.893749999991
 21
90.48749999993771
 31
0.0
  0
LINE
  5
13A
330
107
100
AcDbEntity
  8
AM_0
100
AcDbLine
 10
419.8937499999911
 20
378.6187499999018
 30
0.0
 11
419.893749999991
 21
193.67499999998
 31
0.0
  0
LINE
  5
13B
330
107
100
AcDbEntity
  8
AM_0
100
AcDbLine
 10
-419.893750000009
 20
378.6187499999017
 30
0.0
 11
419.8937499999911
 21
378.6187499999018
 31
0.0
  0
LINE
  5
13C
330
107
100
AcDbEntity
  8
AM_0
100
AcDbLine
 10
174.6249999999957
 20
207.96249999993
 30
0.0
 11
174.6249999999957
 21
112.71249999993
 31
0.0
  0
LINE
  5
13D
330
107
100
AcDbEntity
  8
AM_0
100
AcDbLine
 10
291.3062499999911
 20
378.618749999903
 30
0.0
 11
291.3062499999908
 21
90.48749999993949
 31
0.0
  0
LINE
  5
13E
330
107
100
AcDbEntity
  8
AM_0
100
AcDbLine
 10
-291.3062500000095
 20
378.6187499999036
 30
0.0
 11
-291.3062500000089
 21
90.4874999999395
 31
0.0
  0
LINE
  5
13F
330
107
100
AcDbEntity
  8
AM_0
100
AcDbLine
 10
174.6249999999957
 20
112.71249999993
 30
0.0
 11
-174.625000000004
 21
112.71249999993
 31
0.0
  0
LINE
  5
140
330
107
100
AcDbEntity
  8
AM_0
100
AcDbLine
 10
-174.625000000004
 20
112.71249999993
 30
0.0
 11
-174.625000000004
 21
207.96249999993
 31
0.0
  0
LINE
  5
141
330
107
100
AcDbEntity
  8
AM_0
100
AcDbLine
 10
-174.625000000004
 20
207.96249999993
 30
0.0
 11
174.6249999999957
 21
207.96249999993
 31
0.0
  0
ENDBLK
  5
10A
330
107
100
AcDbEntity
  8
0
100
AcDbBlockEnd
  0
BLOCK
  5
144
330
142
100
AcDbEntity
  8
0
100
AcDbBlockBegin
  2
5_FCA42AAVJU_BYCQ54GEGFU_PART3_0_in_FCA42AAVJU_BYCQ54GEGFU_0
 70
     2
 10
0.0
 20
0.0
 30
0.0
  3
5_FCA42AAVJU_BYCQ54GEGFU_PART3_0_in_FCA42AAVJU_BYCQ54GEGFU_0
  1

  0
ATTDEF
  5
146
330
142
100
AcDbEntity
  8
AM_6
100
AcDbText
 10
424.8937499999891
 20
90.4874999999969
 30
0.0
 40
0.5
  1
FCA42AAVJU-BYCQ54GEGFU_PART3
100
AcDbAttributeDefinition
  3

  2
NB
 70
     8
280
     0
  0
ATTDEF
  5
147
330
142
100
AcDbEntity
  8
AM_6
100
AcDbText
 10
424.8937499999891
 20
89.9874999999969
 30
0.0
 40
0.5
  1

100
AcDbAttributeDefinition
  3

  2
NN
 70
     8
280
     0
  0
ATTDEF
  5
148
330
142
100
AcDbEntity
  8
AM_6
100
AcDbText
 10
424.8937499999891
 20
89.4874999999969
 30
0.0
 40
0.5
  1

100
AcDbAttributeDefinition
  3

  2
NT
 70
     8
280
     0
  0
ATTDEF
  5
149
330
142
100
AcDbEntity
  8
AM_6
100
AcDbText
 10
424.8937499999891
 20
88.9874999999969
 30
0.0
 40
0.5
  1
$PARTNUMBER._PART3
100
AcDbAttributeDefinition
  3

  2
NBSYN
 70
     8
280
     0
  0
ATTDEF
  5
14A
330
142
100
AcDbEntity
  8
AM_6
100
AcDbText
 10
424.8937499999891
 20
88.4874999999969
 30
0.0
 40
0.5
  1
FCA42AAVJU-BYCQ54GEGFU_PART3
100
AcDbAttributeDefinition
  3

  2
LINA
 70
     8
280
     0
  0
ATTDEF
  5
14B
330
142
100
AcDbEntity
  8
AM_6
100
AcDbText
 10
424.8937499999891
 20
87.9874999999969
 30
0.0
 40
0.5
  1
Daikin
100
AcDbAttributeDefinition
  3

  2
CATALOG
 70
     8
280
     0
  0
ATTDEF
  5
14C
330
142
100
AcDbEntity
  8
AM_6
100
AcDbText
 10
424.8937499999891
 20
87.4874999999969
 30
0.0
 40
0.5
  1
FCA42AAVJU-BYCQ54GEGFU
100
AcDbAttributeDefinition
  3

  2
PARTNUMBER
 70
     8
280
     0
  0
ATTDEF
  5
14D
330
142
100
AcDbEntity
  8
AM_6
100
AcDbText
 10
424.8937499999891
 20
86.9874999999969
 30
0.0
 40
0.5
  1
Air Conditioner Ducted Round Flow Cassette
100
AcDbAttributeDefinition
  3

  2
DESCRIPTION
 70
     8
280
     0
  0
ATTDEF
  5
14E
330
142
100
AcDbEntity
  8
AM_6
100
AcDbText
 10
424.8937499999891
 20
86.4874999999969
 30
0.0
 40
0.5
  1
33.0625
100
AcDbAttributeDefinition
  3

  2
OVERALL_DEPTH
 70
     8
280
     0
  0
ATTDEF
  5
14F
330
142
100
AcDbEntity
  8
AM_6
100
AcDbText
 10
424.8937499999891
 20
85.9874999999969
 30
0.0
 40
0.5
  1
11.3438
100
AcDbAttributeDefinition
  3

  2
OVERALL_HEIGHT
 70
     8
280
     0
  0
ATTDEF
  5
150
330
142
100
AcDbEntity
  8
AM_6
100
AcDbText
 10
424.8937499999891
 20
85.4874999999969
 30
0.0
 40
0.5
  1
33.0625
100
AcDbAttributeDefinition
  3

  2
OVERALL_WIDTH
 70
     8
280
     0
  0
ATTDEF
  5
151
330
142
100
AcDbEntity
  8
AM_6
100
AcDbText
 10
424.8937499999891
 20
84.9874999999969
 30
0.0
 40
0.5
  1
https://daikincomfort.com/
100
AcDbAttributeDefinition
  3

  2
URL
 70
     8
280
     0
  0
ATTDEF
  5
152
330
142
100
AcDbEntity
  8
AM_6
100
AcDbText
 10
424.8937499999891
 20
84.4874999999969
 30
0.0
 40
0.5
  1
Download Revit Family (RFA)
100
AcDbAttributeDefinition
  3

  2
RFA_FAMILY
 70
     8
280
     0
  0
ATTDEF
  5
153
330
142
100
AcDbEntity
  8
AM_6
100
AcDbText
 10
424.8937499999891
 20
83.9874999999969
 30
0.0
 40
0.5
  1
daikin
100
AcDbAttributeDefinition
  3

  2
COMPANY
 70
     8
280
     0
  0
ATTDEF
  5
154
330
142
100
AcDbEntity
  8
AM_6
100
AcDbText
 10
424.8937499999891
 20
83.4874999999969
 30
0.0
 40
0.5
  1
{$CADENAS_DATA/23d-libs/daikin/sky-air/sky-air20indoor20units/air_conditioner-indoor-daikin-fca.prj},242 {VTYP=3D},{NB=FCA42AAVJU-BYCQ54GEGFU_PART3},{LINA=FCA42AAVJU-BYCQ54GEGFU_PART3},{NN=(R32) Cassette Sky-Air Daikin FCA_PART3},{NOPRJ=TRUE},{DATE=
100
AcDbAttributeDefinition
  3

  2
PSOL_0
 70
     9
280
     0
  0
ATTDEF
  5
155
330
142
100
AcDbEntity
  8
AM_6
100
AcDbText
 10
424.8937499999891
 20
82.9874999999969
 30
0.0
 40
0.5
  1
2026 19:23:42},{GEOMDATE=23.09.2025 06:26:16},{VERSION=},{LINEID=70},{WBVAR=},{WBNUMERIC=}  {NB=FCA42AAVJU-BYCQ54GEGFU_PART3},{LINA=FCA42AAVJU-BYCQ54GEGFU_PART3},{KT=DUMMY},{PARTNUMBER=FCA42AAVJU-BYCQ54GEGFU},{PARTNUMBERMAP09=3.5Ton_FCA42AAVJU-BYCQ5
100
AcDbAttributeDefinition
  3

  2
PSOL_1
 70
     9
280
     0
  0
ATTDEF
  5
156
330
142
100
AcDbEntity
  8
AM_6
100
AcDbText
 10
424.8937499999891
 20
82.4874999999969
 30
0.0
 40
0.5
  1
},{ACTUAL_RETURN_AIR_FLOW=1253},{ACTUAL_SUPPLY_AIR_FLOW=1253},{AMBIENT_TEMPERATURE=0},{APPARENT_POWER=384},{ASSEMBLY_CODE=D3090},{BRANCH_DUCT_CENTER_OFFSET=0},{BRANCH_DUCT_DEPTH=0.00833333333333333},{BRANCH_DUCT_HEIGHT=0.3125},{BRANCH_DUCT_HORIZONTA
100
AcDbAttributeDefinition
  3

  2
PSOL_2
 70
     9
280
     0
  0
ATTDEF
  5
157
330
142
100
AcDbEntity
  8
AM_6
100
AcDbText
 10
424.8937499999891
 20
81.9874999999969
 30
0.0
 40
0.5
  1
ET=0.526041666666667},{BRANCH_DUCT_LEFT_CENTER_OFFSET=0.0677083333333333},{BRANCH_DUCT_POSITION_ANGLE=0},{BRANCH_DUCT_REFERENCE_LENGTH=1.37760416666667},{BRANCH_DUCT_RIGHT_CENTER_OFFSET=0.0833333333333333},{BRANCH_DUCT_WIDTH=1.14583333333333},{CATEG
100
AcDbAttributeDefinition
  3

  2
PSOL_3
 70
     9
280
     0
  0
ATTDEF
  5
158
330
142
100
AcDbEntity
  8
AM_6
100
AcDbText
 10
424.8937499999891
 20
81.4874999999969
 30
0.0
 40
0.5
  1
chanical Equipment},{CEILING_OPENING_SPACE_DEPTH=2.98958333333333},{CEILING_OPENING_SPACE_WIDTH=2.98958333333333},{CLEARANCE_PRIMARY_OFFSET=5},{CLEARANCE_SECONDARY_OFFSET=0.65625},{CLEARANCE_VISIBILITY=1},{COIL_AIR_PRESSURE_DROP=0},{CONDENSATE_DRAIN
100
AcDbAttributeDefinition
  3

  2
PSOL_4
 70
     9
280
     0
  0
ATTDEF
  5
159
330
142
100
AcDbEntity
  8
AM_6
100
AcDbText
 10
424.8937499999891
 20
80.9874999999969
 30
0.0
 40
0.5
  1
CTION_DIAMETER=1.25},{CONDENSATE_DRAIN_PIPE_HORIZONTAL_OFFSET=0.583333333333333},{CONDENSATE_DRAIN_PIPE_LENGTH=1.38016666666667},{CONDENSATE_DRAIN_PIPE_RADIUS=0.0520833333333333},{CONDENSATE_DRAIN_PIPE_VERTICAL_OFFSET=1.11458333333333},{COOLING_ENTE
100
AcDbAttributeDefinition
  3

  2
PSOL_5
 70
     9
280
     0
  0
ATTDEF
  5
15A
330
142
100
AcDbEntity
  8
AM_6
100
AcDbText
 10
424.8937499999891
 20
80.4874999999969
 30
0.0
 40
0.5
  1
RY_BULB_TEMPERATURE=0},{COOLING_ENTERING_WET_BULB_TEMPERATURE=0},{COOLING_LEAVING_DRY_BULB_TEMPERATURE=0},{COOLING_LEAVING_WET_BULB_TEMPERATURE=0},{COST=0},{DECORATION_PANEL_COVER_HEIGHT=0.130208333333333},{DECORATION_PANEL_DEPTH=3.11458333333333},{
100
AcDbAttributeDefinition
  3

  2
PSOL_6
 70
     9
280
     0
  0
ATTDEF
  5
15B
330
142
100
AcDbEntity
  8
AM_6
100
AcDbText
 10
424.8937499999891
 20
79.9874999999969
 30
0.0
 40
0.5
  1
TION_PANEL_INSIDE_HEIGHT=0.296875},{DECORATION_PANEL_OVERALL_HEIGHT=0.427083333333333},{DECORATION_PANEL_WEIGHT=22},{DECORATION_PANEL_WIDTH=3.11458333333333},{DEFAULT_ELEVATION=4},{DESCRIPTION=Air Conditioner Ducted Round Flow Cassette},{DESIGN_BRAN
100
AcDbAttributeDefinition
  3

  2
PSOL_7
 70
     9
280
     0
  0
ATTDEF
  5
15C
330
142
100
AcDbEntity
  8
AM_6
100
AcDbText
 10
424.8937499999891
 20
79.4874999999969
 30
0.0
 40
0.5
  1
T_SUPPLY_AIR_FLOW=0},{DESIGN_FRESH_AIR_FLOW=0},{DESIGN_RETURN_AIR_FLOW=1253},{DESIGN_SUPPLY_AIR_FLOW=1253},{DRAIN_FLOW=0},{ENCLOSURE_DEPTH=2.75520833333333},{ENCLOSURE_FLANGE_OFFSET=2.33333333333333},{ENCLOSURE_HEIGHT=0.9453125},{ENCLOSURE_WIDTH=2.7
100
AcDbAttributeDefinition
  3

  2
PSOL_8
 70
     9
280
     0
  0
ATTDEF
  5
15D
330
142
100
AcDbEntity
  8
AM_6
100
AcDbText
 10
424.8937499999891
 20
78.9874999999969
 30
0.0
 40
0.5
  1
3333333},{FACE_VELOCITY__FPM_=0},{FAN_TYPE=Turbo fan},{FEET_PRESSURE_DROP=0},{FREQUENCY=60},{FRESH_AIR_INTAKE=0},{FRESH_AIR_INTAKE_RADIUS=0.0625},{GAS_PIPE_HORIZONTAL_OFFSET=0.541666666666667},{GAS_PIPE_LENGTH=1.38016666666667},{GAS_PIPE_RADIUS=0.02
100
AcDbAttributeDefinition
  3

  2
PSOL_9
 70
     9
280
     0
  0
ATTDEF
  5
15E
330
142
100
AcDbEntity
  8
AM_6
100
AcDbText
 10
424.8937499999891
 20
78.4874999999969
 30
0.0
 40
0.5
  1
66666667},{GAS_PIPE_VERTICAL_OFFSET=1.08333333333333},{HEAT_EXCHANGER_TYPE=Cross Fin Coil},{HEATING_ENTERING_DRY_BULB_TEMPERATURE=0},{HEATING_ENTERING_WET_BULB_TEMPERATURE=0},{HEATING_LEAVING_DRY_BULB_TEMPERATURE=0},{HEATING_LEAVING_WET_BULB_TEMPERA
100
AcDbAttributeDefinition
  3

  2
PSOL_10
 70
     9
280
     0
  0
ATTDEF
  5
15F
330
142
100
AcDbEntity
  8
AM_6
100
AcDbText
 10
424.8937499999891
 20
77.9874999999969
 30
0.0
 40
0.5
  1
},{KNOCK_HOLE_OFFSET=0.00833333333333333},{KNOCK_HOLE_RADIUS=0.164},{LATENT_COOLING_CAPACITY=0},{LIQUID_PIPE_HORIZONTAL_OFFSET=0.411458333333333},{LIQUID_PIPE_LENGTH=1.38016666666667},{LIQUID_PIPE_RADIUS=0.015625},{LIQUID_PIPE_VERTICAL_OFFSET=0.9166
100
AcDbAttributeDefinition
  3

  2
PSOL_11
 70
     9
280
     0
  0
ATTDEF
  5
160
330
142
100
AcDbEntity
  8
AM_6
100
AcDbText
 10
424.8937499999891
 20
77.4874999999969
 30
0.0
 40
0.5
  1
66667},{LOAD_SUB_CLASSIFICATION_MOTOR=1},{MANUFACTURER=Daikin},{MASSUNIT=1},{MAXIMUM_AIR_FLOW=1253},{MAXIMUM_OVERCURRENT_PROTECTION=15},{MEDIAN_AIR_FLOW=971},{MINIMUM_AIR_FLOW=741},{MINIMUM_CIRCUIT_AMPS=1.6},{MINIMUM_FLOOR_CLEARANCE=8.33333333333333
100
AcDbAttributeDefinition
  3

  2
PSOL_12
 70
     9
280
     0
  0
ATTDEF
  5
161
330
142
100
AcDbEntity
  8
AM_6
100
AcDbText
 10
424.8937499999891
 20
76.9874999999969
 30
0.0
 40
0.5
  1
IMUM_OBSTACLE_CLEARANCE=5},{MODEL=FCA42AAVJU-BYCQ54GEGFU},{NO_OBSTACLES_BELOW_UNIT=1},{NOMINAL_COOLING_CAPACITY=42000},{NOMINAL_COOLING_CAPACITY__TONS_=3.5},{NOMINAL_HEATING_CAPACITY=47000},{NUMBER_OF_POLES=2},{OBSTACLES_BELOW_UNIT=0},{OMNICLASS_NUM
100
AcDbAttributeDefinition
  3

  2
PSOL_13
 70
     9
280
     0
  0
ATTDEF
  5
162
330
142
100
AcDbEntity
  8
AM_6
100
AcDbText
 10
424.8937499999891
 20
76.4874999999969
 30
0.0
 40
0.5
  1
.33.33.11.15.11},{OUT_AIR_INTAKE_H_OFFSET=0.598958333333333},{OUT_AIR_INTAKE_V_OFFSET=0.697916666666667},{OVERALL_DEPTH=33.0625},{OVERALL_HEIGHT=11.3438},{OVERALL_WIDTH=33.0625},{PARTTYPE=Normal},{PHASE=1},{REFRIGERANT_LIQUID_CONNECTION_DIAMETER=0.3
100
AcDbAttributeDefinition
  3

  2
PSOL_14
 70
     9
280
     0
  0
ATTDEF
  5
163
330
142
100
AcDbEntity
  8
AM_6
100
AcDbText
 10
424.8937499999891
 20
75.9874999999969
 30
0.0
 40
0.5
  1
EFRIGERANT_SUCTION_GAS_CONNECTION_DIAMETER=0.625},{REFRIGERANT_USED=R-32},{RETURN_AIR_PRESSURE_DROP=0},{SENSIBLE_COOLING_CAPACITY=0},{SERIES=SkyAir},{SUPPLY_AIR_CONNECTION_HEIGHT=0.0625},{SUPPLY_AIR_CONNECTION_WIDTH=0.0625},{SUPPLY_AIR_PRESSURE_DROP
100
AcDbAttributeDefinition
  3

  2
PSOL_15
 70
     9
280
     0
  0
ATTDEF
  5
164
330
142
100
AcDbEntity
  8
AM_6
100
AcDbText
 10
424.8937499999891
 20
75.4874999999969
 30
0.0
 40
0.5
  1
YSTEM_PERFORMANCE_EER2=10.5},{SYSTEM_PERFORMANCE_HSPF2=10.2},{SYSTEM_PERFORMANCE_SEER2=18.9},{TOTAL_COOLING_CAPACITY=0},{TOTAL_HEATING_CAPACITY=0},{TOTAL_STATIC_PRESSURE=0},{UNIT_HEIGHT_CLEARANCE=8.33333333333333},{UNIT_WEIGHT=58},{URL=https://daiki
100
AcDbAttributeDefinition
  3

  2
PSOL_16
 70
     9
280
     0
  0
ATTDEF
  5
165
330
142
100
AcDbEntity
  8
AM_6
100
AcDbText
 10
424.8937499999891
 20
74.9874999999969
 30
0.0
 40
0.5
  1
rt.com/},{VERSION=1},{VOLTAGE=240},{VOLTAGE_COMMENTS=208 VAC - 230 VAC},{VAR__NO_BRANCH_DUCT=1},{VAR__BRANCH_DUCT_SELECTOR=0},{VAR__FAN_SPEED_SELECTOR=3},{VAR__BRANCH_DUCT_FRONT_OPENING=0},{VAR__L____LOW_FAN_SPEED=741},{VAR__BRANCH_DUCT_RIGHT_OPENIN
100
AcDbAttributeDefinition
  3

  2
PSOL_17
 70
     9
280
     0
  0
ATTDEF
  5
166
330
142
100
AcDbEntity
  8
AM_6
100
AcDbText
 10
424.8937499999891
 20
74.4874999999969
 30
0.0
 40
0.5
  1
VAR__M___MEDIUM_SPEED=971},{VAR__BRANCH_DUCT_BACK_OPENING=0},{VAR__H___HIGH_FAN_SPEED=1253},{VAR__BRANCH_DUCT_LEFT_OPENING=0},{RFA_FAMILY=Download Revit Family (RFA)},{DEFAULTSORTATTR=57},{RFA_FAMILY_=../../_pool_/be/62/air_conditioner-indoor-daikin
100
AcDbAttributeDefinition
  3

  2
PSOL_18
 70
     9
280
     0
  0
ATTDEF
  5
167
330
142
100
AcDbEntity
  8
AM_6
100
AcDbText
 10
424.8937499999891
 20
73.9874999999969
 30
0.0
 40
0.5
  1
ip},{RFA_FAMILY_ENG=../../_pool_/be/62/air_conditioner-indoor-daikin-fca.zip},{REVIT_FAMILY_DOWNLOAD=../../_pool_/be/62/air_conditioner-indoor-daikin-fca.zip}
100
AcDbAttributeDefinition
  3

  2
PSOL_19
 70
     9
280
     0
  0
LINE
  5
168
330
142
100
AcDbEntity
  8
AM_9
100
AcDbLine
 10
355.5999999999873
 20
0.0000000000018766
 30
0.0
 11
355.599999999987
 21
90.4874999999969
 31
0.0
  0
LINE
  5
169
330
142
100
AcDbEntity
  8
AM_0
100
AcDbLine
 10
419.8937499999888
 20
0.0000000000018766
 30
0.0
 11
419.8937499999891
 21
90.4874999999969
 31
0.0
  0
LINE
  5
16A
330
142
100
AcDbEntity
  8
AM_0
100
AcDbLine
 10
291.3062499999872
 20
0.0000000000018766
 30
0.0
 11
291.306249999987
 21
90.4874999999969
 31
0.0
  0
LINE
  5
16B
330
142
100
AcDbEntity
  8
AM_0
100
AcDbLine
 10
-419.8937500000073
 20
90.4874999999969
 30
0.0
 11
419.8937499999891
 21
90.4874999999969
 31
0.0
  0
LINE
  5
16C
330
142
100
AcDbEntity
  8
AM_0
100
AcDbLine
 10
-419.8937500000081
 20
0.0000000000018766
 30
0.0
 11
-419.8937500000073
 21
90.4874999999969
 31
0.0
  0
LINE
  5
16D
330
142
100
AcDbEntity
  8
AM_0
100
AcDbLine
 10
-291.306250000013
 20
0.0000000000018766
 30
0.0
 11
-291.3062500000134
 21
90.4874999999969
 31
0.0
  0
ENDBLK
  5
145
330
142
100
AcDbEntity
  8
0
100
AcDbBlockEnd
  0
BLOCK
  5
170
330
16E
100
AcDbEntity
  8
0
100
AcDbBlockBegin
  2
6_FCA42AAVJU_BYCQ54GEGFU_PART2_0_in_FCA42AAVJU_BYCQ54GEGFU_0
 70
     2
 10
0.0
 20
0.0
 30
0.0
  3
6_FCA42AAVJU_BYCQ54GEGFU_PART2_0_in_FCA42AAVJU_BYCQ54GEGFU_0
  1

  0
ATTDEF
  5
172
330
16E
100
AcDbEntity
  8
AM_6
100
AcDbText
 10
479.6629896778874
 20
0.0000000000084335
 30
0.0
 40
0.5
  1
FCA42AAVJU-BYCQ54GEGFU_PART2
100
AcDbAttributeDefinition
  3

  2
NB
 70
     8
280
     0
  0
ATTDEF
  5
173
330
16E
100
AcDbEntity
  8
AM_6
100
AcDbText
 10
479.6629896778874
 20
-0.4999999999915665
 30
0.0
 40
0.5
  1

100
AcDbAttributeDefinition
  3

  2
NN
 70
     8
280
     0
  0
ATTDEF
  5
174
330
16E
100
AcDbEntity
  8
AM_6
100
AcDbText
 10
479.6629896778874
 20
-0.9999999999915665
 30
0.0
 40
0.5
  1

100
AcDbAttributeDefinition
  3

  2
NT
 70
     8
280
     0
  0
ATTDEF
  5
175
330
16E
100
AcDbEntity
  8
AM_6
100
AcDbText
 10
479.6629896778874
 20
-1.499999999991567
 30
0.0
 40
0.5
  1
$PARTNUMBER._PART2
100
AcDbAttributeDefinition
  3

  2
NBSYN
 70
     8
280
     0
  0
ATTDEF
  5
176
330
16E
100
AcDbEntity
  8
AM_6
100
AcDbText
 10
479.6629896778874
 20
-1.999999999991567
 30
0.0
 40
0.5
  1
FCA42AAVJU-BYCQ54GEGFU_PART2
100
AcDbAttributeDefinition
  3

  2
LINA
 70
     8
280
     0
  0
ATTDEF
  5
177
330
16E
100
AcDbEntity
  8
AM_6
100
AcDbText
 10
479.6629896778874
 20
-2.499999999991567
 30
0.0
 40
0.5
  1
Daikin
100
AcDbAttributeDefinition
  3

  2
CATALOG
 70
     8
280
     0
  0
ATTDEF
  5
178
330
16E
100
AcDbEntity
  8
AM_6
100
AcDbText
 10
479.6629896778874
 20
-2.999999999991567
 30
0.0
 40
0.5
  1
FCA42AAVJU-BYCQ54GEGFU
100
AcDbAttributeDefinition
  3

  2
PARTNUMBER
 70
     8
280
     0
  0
ATTDEF
  5
179
330
16E
100
AcDbEntity
  8
AM_6
100
AcDbText
 10
479.6629896778874
 20
-3.499999999991567
 30
0.0
 40
0.5
  1
Air Conditioner Ducted Round Flow Cassette
100
AcDbAttributeDefinition
  3

  2
DESCRIPTION
 70
     8
280
     0
  0
ATTDEF
  5
17A
330
16E
100
AcDbEntity
  8
AM_6
100
AcDbText
 10
479.6629896778874
 20
-3.999999999991567
 30
0.0
 40
0.5
  1
33.0625
100
AcDbAttributeDefinition
  3

  2
OVERALL_DEPTH
 70
     8
280
     0
  0
ATTDEF
  5
17B
330
16E
100
AcDbEntity
  8
AM_6
100
AcDbText
 10
479.6629896778874
 20
-4.499999999991567
 30
0.0
 40
0.5
  1
11.3438
100
AcDbAttributeDefinition
  3

  2
OVERALL_HEIGHT
 70
     8
280
     0
  0
ATTDEF
  5
17C
330
16E
100
AcDbEntity
  8
AM_6
100
AcDbText
 10
479.6629896778874
 20
-4.999999999991567
 30
0.0
 40
0.5
  1
33.0625
100
AcDbAttributeDefinition
  3

  2
OVERALL_WIDTH
 70
     8
280
     0
  0
ATTDEF
  5
17D
330
16E
100
AcDbEntity
  8
AM_6
100
AcDbText
 10
479.6629896778874
 20
-5.499999999991567
 30
0.0
 40
0.5
  1
https://daikincomfort.com/
100
AcDbAttributeDefinition
  3

  2
URL
 70
     8
280
     0
  0
ATTDEF
  5
17E
330
16E
100
AcDbEntity
  8
AM_6
100
AcDbText
 10
479.6629896778874
 20
-5.999999999991567
 30
0.0
 40
0.5
  1
Download Revit Family (RFA)
100
AcDbAttributeDefinition
  3

  2
RFA_FAMILY
 70
     8
280
     0
  0
ATTDEF
  5
17F
330
16E
100
AcDbEntity
  8
AM_6
100
AcDbText
 10
479.6629896778874
 20
-6.499999999991567
 30
0.0
 40
0.5
  1
daikin
100
AcDbAttributeDefinition
  3

  2
COMPANY
 70
     8
280
     0
  0
ATTDEF
  5
180
330
16E
100
AcDbEntity
  8
AM_6
100
AcDbText
 10
479.6629896778874
 20
-6.999999999991567
 30
0.0
 40
0.5
  1
{$CADENAS_DATA/23d-libs/daikin/sky-air/sky-air20indoor20units/air_conditioner-indoor-daikin-fca.prj},242 {VTYP=3D},{NB=FCA42AAVJU-BYCQ54GEGFU_PART2},{LINA=FCA42AAVJU-BYCQ54GEGFU_PART2},{NN=(R32) Cassette Sky-Air Daikin FCA_PART2},{NOPRJ=TRUE},{DATE=
100
AcDbAttributeDefinition
  3

  2
PSOL_0
 70
     9
280
     0
  0
ATTDEF
  5
181
330
16E
100
AcDbEntity
  8
AM_6
100
AcDbText
 10
479.6629896778874
 20
-7.499999999991567
 30
0.0
 40
0.5
  1
2026 19:23:42},{GEOMDATE=23.09.2025 06:26:16},{VERSION=},{LINEID=70},{WBVAR=},{WBNUMERIC=}  {NB=FCA42AAVJU-BYCQ54GEGFU_PART2},{LINA=FCA42AAVJU-BYCQ54GEGFU_PART2},{KT=DUMMY},{PARTNUMBER=FCA42AAVJU-BYCQ54GEGFU},{PARTNUMBERMAP09=3.5Ton_FCA42AAVJU-BYCQ5
100
AcDbAttributeDefinition
  3

  2
PSOL_1
 70
     9
280
     0
  0
ATTDEF
  5
182
330
16E
100
AcDbEntity
  8
AM_6
100
AcDbText
 10
479.6629896778874
 20
-7.999999999991567
 30
0.0
 40
0.5
  1
},{ACTUAL_RETURN_AIR_FLOW=1253},{ACTUAL_SUPPLY_AIR_FLOW=1253},{AMBIENT_TEMPERATURE=0},{APPARENT_POWER=384},{ASSEMBLY_CODE=D3090},{BRANCH_DUCT_CENTER_OFFSET=0},{BRANCH_DUCT_DEPTH=0.00833333333333333},{BRANCH_DUCT_HEIGHT=0.3125},{BRANCH_DUCT_HORIZONTA
100
AcDbAttributeDefinition
  3

  2
PSOL_2
 70
     9
280
     0
  0
ATTDEF
  5
183
330
16E
100
AcDbEntity
  8
AM_6
100
AcDbText
 10
479.6629896778874
 20
-8.499999999991566
 30
0.0
 40
0.5
  1
ET=0.526041666666667},{BRANCH_DUCT_LEFT_CENTER_OFFSET=0.0677083333333333},{BRANCH_DUCT_POSITION_ANGLE=0},{BRANCH_DUCT_REFERENCE_LENGTH=1.37760416666667},{BRANCH_DUCT_RIGHT_CENTER_OFFSET=0.0833333333333333},{BRANCH_DUCT_WIDTH=1.14583333333333},{CATEG
100
AcDbAttributeDefinition
  3

  2
PSOL_3
 70
     9
280
     0
  0
ATTDEF
  5
184
330
16E
100
AcDbEntity
  8
AM_6
100
AcDbText
 10
479.6629896778874
 20
-8.999999999991566
 30
0.0
 40
0.5
  1
chanical Equipment},{CEILING_OPENING_SPACE_DEPTH=2.98958333333333},{CEILING_OPENING_SPACE_WIDTH=2.98958333333333},{CLEARANCE_PRIMARY_OFFSET=5},{CLEARANCE_SECONDARY_OFFSET=0.65625},{CLEARANCE_VISIBILITY=1},{COIL_AIR_PRESSURE_DROP=0},{CONDENSATE_DRAIN
100
AcDbAttributeDefinition
  3

  2
PSOL_4
 70
     9
280
     0
  0
ATTDEF
  5
185
330
16E
100
AcDbEntity
  8
AM_6
100
AcDbText
 10
479.6629896778874
 20
-9.499999999991566
 30
0.0
 40
0.5
  1
CTION_DIAMETER=1.25},{CONDENSATE_DRAIN_PIPE_HORIZONTAL_OFFSET=0.583333333333333},{CONDENSATE_DRAIN_PIPE_LENGTH=1.38016666666667},{CONDENSATE_DRAIN_PIPE_RADIUS=0.0520833333333333},{CONDENSATE_DRAIN_PIPE_VERTICAL_OFFSET=1.11458333333333},{COOLING_ENTE
100
AcDbAttributeDefinition
  3

  2
PSOL_5
 70
     9
280
     0
  0
ATTDEF
  5
186
330
16E
100
AcDbEntity
  8
AM_6
100
AcDbText
 10
479.6629896778874
 20
-9.999999999991566
 30
0.0
 40
0.5
  1
RY_BULB_TEMPERATURE=0},{COOLING_ENTERING_WET_BULB_TEMPERATURE=0},{COOLING_LEAVING_DRY_BULB_TEMPERATURE=0},{COOLING_LEAVING_WET_BULB_TEMPERATURE=0},{COST=0},{DECORATION_PANEL_COVER_HEIGHT=0.130208333333333},{DECORATION_PANEL_DEPTH=3.11458333333333},{
100
AcDbAttributeDefinition
  3

  2
PSOL_6
 70
     9
280
     0
  0
ATTDEF
  5
187
330
16E
100
AcDbEntity
  8
AM_6
100
AcDbText
 10
479.6629896778874
 20
-10.49999999999157
 30
0.0
 40
0.5
  1
TION_PANEL_INSIDE_HEIGHT=0.296875},{DECORATION_PANEL_OVERALL_HEIGHT=0.427083333333333},{DECORATION_PANEL_WEIGHT=22},{DECORATION_PANEL_WIDTH=3.11458333333333},{DEFAULT_ELEVATION=4},{DESCRIPTION=Air Conditioner Ducted Round Flow Cassette},{DESIGN_BRAN
100
AcDbAttributeDefinition
  3

  2
PSOL_7
 70
     9
280
     0
  0
ATTDEF
  5
188
330
16E
100
AcDbEntity
  8
AM_6
100
AcDbText
 10
479.6629896778874
 20
-10.99999999999157
 30
0.0
 40
0.5
  1
T_SUPPLY_AIR_FLOW=0},{DESIGN_FRESH_AIR_FLOW=0},{DESIGN_RETURN_AIR_FLOW=1253},{DESIGN_SUPPLY_AIR_FLOW=1253},{DRAIN_FLOW=0},{ENCLOSURE_DEPTH=2.75520833333333},{ENCLOSURE_FLANGE_OFFSET=2.33333333333333},{ENCLOSURE_HEIGHT=0.9453125},{ENCLOSURE_WIDTH=2.7
100
AcDbAttributeDefinition
  3

  2
PSOL_8
 70
     9
280
     0
  0
ATTDEF
  5
189
330
16E
100
AcDbEntity
  8
AM_6
100
AcDbText
 10
479.6629896778874
 20
-11.49999999999157
 30
0.0
 40
0.5
  1
3333333},{FACE_VELOCITY__FPM_=0},{FAN_TYPE=Turbo fan},{FEET_PRESSURE_DROP=0},{FREQUENCY=60},{FRESH_AIR_INTAKE=0},{FRESH_AIR_INTAKE_RADIUS=0.0625},{GAS_PIPE_HORIZONTAL_OFFSET=0.541666666666667},{GAS_PIPE_LENGTH=1.38016666666667},{GAS_PIPE_RADIUS=0.02
100
AcDbAttributeDefinition
  3

  2
PSOL_9
 70
     9
280
     0
  0
ATTDEF
  5
18A
330
16E
100
AcDbEntity
  8
AM_6
100
AcDbText
 10
479.6629896778874
 20
-11.99999999999157
 30
0.0
 40
0.5
  1
66666667},{GAS_PIPE_VERTICAL_OFFSET=1.08333333333333},{HEAT_EXCHANGER_TYPE=Cross Fin Coil},{HEATING_ENTERING_DRY_BULB_TEMPERATURE=0},{HEATING_ENTERING_WET_BULB_TEMPERATURE=0},{HEATING_LEAVING_DRY_BULB_TEMPERATURE=0},{HEATING_LEAVING_WET_BULB_TEMPERA
100
AcDbAttributeDefinition
  3

  2
PSOL_10
 70
     9
280
     0
  0
ATTDEF
  5
18B
330
16E
100
AcDbEntity
  8
AM_6
100
AcDbText
 10
479.6629896778874
 20
-12.49999999999157
 30
0.0
 40
0.5
  1
},{KNOCK_HOLE_OFFSET=0.00833333333333333},{KNOCK_HOLE_RADIUS=0.164},{LATENT_COOLING_CAPACITY=0},{LIQUID_PIPE_HORIZONTAL_OFFSET=0.411458333333333},{LIQUID_PIPE_LENGTH=1.38016666666667},{LIQUID_PIPE_RADIUS=0.015625},{LIQUID_PIPE_VERTICAL_OFFSET=0.9166
100
AcDbAttributeDefinition
  3

  2
PSOL_11
 70
     9
280
     0
  0
ATTDEF
  5
18C
330
16E
100
AcDbEntity
  8
AM_6
100
AcDbText
 10
479.6629896778874
 20
-12.99999999999157
 30
0.0
 40
0.5
  1
66667},{LOAD_SUB_CLASSIFICATION_MOTOR=1},{MANUFACTURER=Daikin},{MASSUNIT=1},{MAXIMUM_AIR_FLOW=1253},{MAXIMUM_OVERCURRENT_PROTECTION=15},{MEDIAN_AIR_FLOW=971},{MINIMUM_AIR_FLOW=741},{MINIMUM_CIRCUIT_AMPS=1.6},{MINIMUM_FLOOR_CLEARANCE=8.33333333333333
100
AcDbAttributeDefinition
  3

  2
PSOL_12
 70
     9
280
     0
  0
ATTDEF
  5
18D
330
16E
100
AcDbEntity
  8
AM_6
100
AcDbText
 10
479.6629896778874
 20
-13.49999999999157
 30
0.0
 40
0.5
  1
IMUM_OBSTACLE_CLEARANCE=5},{MODEL=FCA42AAVJU-BYCQ54GEGFU},{NO_OBSTACLES_BELOW_UNIT=1},{NOMINAL_COOLING_CAPACITY=42000},{NOMINAL_COOLING_CAPACITY__TONS_=3.5},{NOMINAL_HEATING_CAPACITY=47000},{NUMBER_OF_POLES=2},{OBSTACLES_BELOW_UNIT=0},{OMNICLASS_NUM
100
AcDbAttributeDefinition
  3

  2
PSOL_13
 70
     9
280
     0
  0
ATTDEF
  5
18E
330
16E
100
AcDbEntity
  8
AM_6
100
AcDbText
 10
479.6629896778874
 20
-13.99999999999157
 30
0.0
 40
0.5
  1
.33.33.11.15.11},{OUT_AIR_INTAKE_H_OFFSET=0.598958333333333},{OUT_AIR_INTAKE_V_OFFSET=0.697916666666667},{OVERALL_DEPTH=33.0625},{OVERALL_HEIGHT=11.3438},{OVERALL_WIDTH=33.0625},{PARTTYPE=Normal},{PHASE=1},{REFRIGERANT_LIQUID_CONNECTION_DIAMETER=0.3
100
AcDbAttributeDefinition
  3

  2
PSOL_14
 70
     9
280
     0
  0
ATTDEF
  5
18F
330
16E
100
AcDbEntity
  8
AM_6
100
AcDbText
 10
479.6629896778874
 20
-14.49999999999157
 30
0.0
 40
0.5
  1
EFRIGERANT_SUCTION_GAS_CONNECTION_DIAMETER=0.625},{REFRIGERANT_USED=R-32},{RETURN_AIR_PRESSURE_DROP=0},{SENSIBLE_COOLING_CAPACITY=0},{SERIES=SkyAir},{SUPPLY_AIR_CONNECTION_HEIGHT=0.0625},{SUPPLY_AIR_CONNECTION_WIDTH=0.0625},{SUPPLY_AIR_PRESSURE_DROP
100
AcDbAttributeDefinition
  3

  2
PSOL_15
 70
     9
280
     0
  0
ATTDEF
  5
190
330
16E
100
AcDbEntity
  8
AM_6
100
AcDbText
 10
479.6629896778874
 20
-14.99999999999157
 30
0.0
 40
0.5
  1
YSTEM_PERFORMANCE_EER2=10.5},{SYSTEM_PERFORMANCE_HSPF2=10.2},{SYSTEM_PERFORMANCE_SEER2=18.9},{TOTAL_COOLING_CAPACITY=0},{TOTAL_HEATING_CAPACITY=0},{TOTAL_STATIC_PRESSURE=0},{UNIT_HEIGHT_CLEARANCE=8.33333333333333},{UNIT_WEIGHT=58},{URL=https://daiki
100
AcDbAttributeDefinition
  3

  2
PSOL_16
 70
     9
280
     0
  0
ATTDEF
  5
191
330
16E
100
AcDbEntity
  8
AM_6
100
AcDbText
 10
479.6629896778874
 20
-15.49999999999157
 30
0.0
 40
0.5
  1
rt.com/},{VERSION=1},{VOLTAGE=240},{VOLTAGE_COMMENTS=208 VAC - 230 VAC},{VAR__NO_BRANCH_DUCT=1},{VAR__BRANCH_DUCT_SELECTOR=0},{VAR__FAN_SPEED_SELECTOR=3},{VAR__BRANCH_DUCT_FRONT_OPENING=0},{VAR__L____LOW_FAN_SPEED=741},{VAR__BRANCH_DUCT_RIGHT_OPENIN
100
AcDbAttributeDefinition
  3

  2
PSOL_17
 70
     9
280
     0
  0
ATTDEF
  5
192
330
16E
100
AcDbEntity
  8
AM_6
100
AcDbText
 10
479.6629896778874
 20
-15.99999999999157
 30
0.0
 40
0.5
  1
VAR__M___MEDIUM_SPEED=971},{VAR__BRANCH_DUCT_BACK_OPENING=0},{VAR__H___HIGH_FAN_SPEED=1253},{VAR__BRANCH_DUCT_LEFT_OPENING=0},{RFA_FAMILY=Download Revit Family (RFA)},{DEFAULTSORTATTR=57},{RFA_FAMILY_=../../_pool_/be/62/air_conditioner-indoor-daikin
100
AcDbAttributeDefinition
  3

  2
PSOL_18
 70
     9
280
     0
  0
ATTDEF
  5
193
330
16E
100
AcDbEntity
  8
AM_6
100
AcDbText
 10
479.6629896778874
 20
-16.49999999999157
 30
0.0
 40
0.5
  1
ip},{RFA_FAMILY_ENG=../../_pool_/be/62/air_conditioner-indoor-daikin-fca.zip},{REVIT_FAMILY_DOWNLOAD=../../_pool_/be/62/air_conditioner-indoor-daikin-fca.zip}
100
AcDbAttributeDefinition
  3

  2
PSOL_19
 70
     9
280
     0
  0
LINE
  5
194
330
16E
100
AcDbEntity
  8
AM_9
100
AcDbLine
 10
-367.1706985852167
 20
-30.31218920199509
 30
0.0
 11
-367.2198034237321
 21
-30.50860635014585
 31
0.0
  0
LINE
  5
195
330
16E
100
AcDbEntity
  8
AM_9
100
AcDbLine
 10
-354.7357861031807
 20
-10.44035087881499
 30
0.0
 11
-356.8717392229282
 21
-12.38229682098543
 31
0.0
  0
LINE
  5
196
330
16E
100
AcDbEntity
  8
AM_9
100
AcDbLine
 10
-367.7379176364827
 20
-32.94172179121882
 30
0.0
 11
-368.3374418709829
 21
-39.6875000000632
 31
0.0
  0
LWPOLYLINE
  5
197
330
16E
100
AcDbEntity
  8
AM_9
100
AcDbPolyline
 90
        3
 70
     0
 43
0.0
 10
-367.2198034237321
 20
-30.50860635014585
 10
-367.6683102725801
 20
-32.56413822233293
 10
-367.7379176364827
 20
-32.94172179121882
  0
ARC
  5
198
330
16E
100
AcDbEntity
  8
AM_9
100
AcDbCircle
 10
-343.2501746598702
 20
-39.68750000206403
 30
0.0
 40
38.24495866011963
100
AcDbArc
 50
120.2355090183897
 51
179.9999999970025
  0
LWPOLYLINE
  5
199
330
16E
100
AcDbEntity
  8
AM_9
100
AcDbPolyline
 90
        9
 70
     0
 43
0.0
 10
-380.6690080100825
 20
-6.645275068903091
 10
-384.8000463583228
 20
-9.429666837085245
 10
-388.5341364730062
 20
-12.72772798367784
 10
-391.8078869097434
 20
-16.4834692707814
 10
-394.5657211392102
 20
-20.63313169482807
 10
-396.7608210370907
 20
-25.10626888556106
 10
-398.3559216877475
 20
-29.82694303249198
 10
-399.323944008704
 20
-34.7150140362987
 10
-399.6484544562464
 20
-39.6875000000008
  0
ARC
  5
19A
330
16E
100
AcDbEntity
  8
AM_9
100
AcDbCircle
 10
-362.2366746598597
 20
-39.68749999729584
 30
0.0
 40
38.24495866011949
100
AcDbArc
 50
120.2355090325746
 51
180.0000000040519
  0
LWPOLYLINE
  5
19B
330
16E
100
AcDbEntity
  8
AM_9
100
AcDbPolyline
 90
        9
 70
     0
 43
0.0
 10
-380.6690078872832
 20
-39.6875000000402
 10
-380.3444974391639
 20
-34.71501403666508
 10
-379.3764751177144
 20
-29.82694303325029
 10
-377.7813744666558
 20
-25.10626888675997
 10
-375.586274568468
 20
-20.6331316964995
 10
-372.8284403387898
 20
-16.48346927294043
 10
-369.554689901934
 20
-12.72772798632312
 10
-365.8205997872217
 20
-9.429666840199785
 10
-361.6895614390343
 20
-6.645275072455437
  0
ARC
  5
19C
330
16E
100
AcDbEntity
  8
AM_9
100
AcDbCircle
 10
342.4343663583005
 20
-39.68750000896168
 30
0.0
 40
38.24495866012296
100
AcDbArc
 50
0.000000013330305
 51
59.76449100212396
  0
LWPOLYLINE
  5
19D
330
16E
100
AcDbEntity
  8
AM_9
100
AcDbPolyline
 90
        7
 70
     0
 43
0.0
 10
-368.3374418619998
 20
-6.64527500000063
 10
-373.5418649088307
 20
-10.29009153867259
 10
-378.1888639035942
 20
-14.88493046508138
 10
-381.8897656718127
 20
-20.04426593065899
 10
-384.7571037317161
 20
-25.92551565115719
 10
-386.6500255284226
 20
-32.57020345410263
 10
-387.3171299137802
 20
-39.68750000031076
  0
LWPOLYLINE
  5
19E
330
16E
100
AcDbEntity
  8
AM_9
100
AcDbPolyline
 90
        7
 70
     0
 43
0.0
 10
387.31802498724
 20
-39.68750000000025
 10
386.7917291162138
 20
-33.36311278257258
 10
385.1667765636053
 20
-27.03872556506147
 10
382.5798241459404
 20
-21.24537750981884
 10
378.9567344148191
 20
-15.81605832251301
 10
374.1623886605964
 20
-10.81806642325648
 10
368.3375208894794
 20
-6.645274998913851
  0
LINE
  5
19F
330
16E
100
AcDbEntity
  8
AM_9
100
AcDbLine
 10
-381.4951333246221
 20
-6.645275000000492
 30
0.0
 11
380.6793250283942
 21
-6.645275000000492
 31
0.0
  0
ARC
  5
1A0
330
16E
100
AcDbEntity
  8
AM_9
100
AcDbCircle
 10
361.4208663582573
 20
-39.68749999421512
 30
0.0
 40
38.24495866016423
100
AcDbArc
 50
359.9999999510341
 51
59.76449095814525
  0
LINE
  5
1A1
330
16E
100
AcDbEntity
  8
AM_9
100
AcDbLine
 10
254.4191000000013
 20
-39.68750000005401
 30
0.0
 11
254.4191000000002
 21
-33.042225000034
 31
0.0
  0
LINE
  5
1A2
330
16E
100
AcDbEntity
  8
AM_9
100
AcDbLine
 10
216.446100000002
 20
-39.68750000005374
 30
0.0
 11
216.446100000002
 21
-33.042225000034
 31
0.0
  0
LINE
  5
1A3
330
16E
100
AcDbEntity
  8
AM_9
100
AcDbLine
 10
254.4191000000002
 20
-33.042225000034
 30
0.0
 11
-254.4191000000003
 21
-33.042225000034
 31
0.0
  0
LINE
  5
1A4
330
16E
100
AcDbEntity
  8
AM_9
100
AcDbLine
 10
-216.4461
 20
-39.68750000005357
 30
0.0
 11
-216.4461000000006
 21
-33.042225000034
 31
0.0
  0
LINE
  5
1A5
330
16E
100
AcDbEntity
  8
AM_9
100
AcDbLine
 10
-254.4191000000005
 20
-39.68750000005384
 30
0.0
 11
-254.4191000000003
 21
-33.042225000034
 31
0.0
  0
LWPOLYLINE
  5
1A6
330
16E
100
AcDbEntity
  8
AM_9
100
AcDbPolyline
 90
        3
 70
     0
 43
0.0
 10
-368.3374418619996
 20
-39.6875000000632
 10
-367.8112280779282
 20
-33.36365251202695
 10
-367.7866880177249
 20
-33.2189462550489
  0
LWPOLYLINE
  5
1A7
330
16E
100
AcDbEntity
  8
AM_9
100
AcDbPolyline
 90
        5
 70
     0
 43
0.0
 10
-367.7866880177249
 20
-33.2189462550489
 10
-366.1860407918298
 20
-27.03980502401257
 10
-363.5982387197946
 20
-21.24626847438952
 10
-359.9746660995095
 20
-15.81766839374115
 10
-355.8081844591388
 20
-11.3787371433301
  0
LINE
  5
1A8
330
16E
100
AcDbEntity
  8
AM_9
100
AcDbLine
 10
-350.6419920243999
 20
-7.432752671310042
 30
0.0
 11
-349.3500112454827
 21
-6.645275000000244
 31
0.0
  0
LWPOLYLINE
  5
1A9
330
16E
100
AcDbEntity
  8
AM_9
100
AcDbPolyline
 90
        4
 70
     0
 43
0.0
 10
-355.8081844591388
 20
-11.3787371433301
 10
-355.1796088569118
 20
-10.82030583852786
 10
-352.3622731230017
 20
-8.595917098990089
 10
-351.3809074089155
 20
-7.915520715319515
  0
ARC
  5
1AA
330
16E
100
AcDbEntity
  8
AM_9
100
AcDbCircle
 10
-330.0931413593655
 20
-39.6875000000024
 30
0.0
 40
38.2449586601199
100
AcDbArc
 50
120.2355090245215
 51
132.2183201345102
  0
LINE
  5
1AB
330
16E
100
AcDbEntity
  8
AM_9
100
AcDbLine
 10
353.5100620601874
 20
-9.450125162132323
 30
0.0
 11
353.7357619977664
 21
-9.626247790089096
 31
0.0
  0
LINE
  5
1AC
330
16E
100
AcDbEntity
  8
AM_9
100
AcDbLine
 10
349.3502024060003
 20
-6.645275001671687
 30
0.0
 11
351.3188216326271
 21
-7.873868597077236
 31
0.0
  0
LWPOLYLINE
  5
1AD
330
16E
100
AcDbEntity
  8
AM_9
100
AcDbPolyline
 90
        6
 70
     0
 43
0.0
 10
353.7357619977664
 20
-9.626247790089096
 10
354.5522217521312
 20
-10.28663986069332
 10
359.2007466052857
 20
-14.87978375684246
 10
362.9054149709578
 20
-20.03989534034689
 10
365.7722731184649
 20
-25.91586040194534
 10
367.5539600297365
 20
-31.98497458028746
  0
LWPOLYLINE
  5
1AE
330
16E
100
AcDbEntity
  8
AM_9
100
AcDbPolyline
 90
        3
 70
     0
 43
0.0
 10
367.5539600297365
 20
-31.98497458028746
 10
367.6683990927986
 20
-32.56425900918471
 10
368.337520891367
 20
-39.68750000006319
  0
ARC
  5
1AF
330
16E
100
AcDbEntity
  8
AM_9
100
AcDbCircle
 10
330.093141359344
 20
-39.68750000000665
 30
0.0
 40
38.24495866012526
100
AcDbArc
 50
51.82782328145071
 51
59.76449097547702
  0
LWPOLYLINE
  5
1B0
330
16E
100
AcDbEntity
  8
AM_9
100
AcDbPolyline
 90
        7
 70
     0
 43
0.0
 10
-232.9240812340324
 20
-6.645275003301263
 10
-233.1895134940082
 20
-10.2865293591613
 10
-233.4315839920887
 20
-14.87959572577819
 10
-233.627616347041
 20
-20.03972195437789
 10
-233.7811246677594
 20
-25.91581587002575
 10
-233.8834882000081
 20
-32.5641976978086
 10
-233.919767293105
 20
-39.6875000000632
  0
LWPOLYLINE
  5
1B1
330
16E
100
AcDbEntity
  8
AM_9
100
AcDbPolyline
 90
        7
 70
     0
 43
0.0
 10
232.9240812429548
 20
-6.645275003284191
 10
233.1895135036605
 20
-10.28652935911638
 10
233.4315840017516
 20
-14.87959572572302
 10
233.6276163567154
 20
-20.03972195431291
 10
233.7811246774479
 20
-25.91581586995119
 10
233.8834882096996
 20
-32.56419769776757
 10
233.9197673016732
 20
-39.6875000000632
  0
LWPOLYLINE
  5
1B2
330
16E
100
AcDbEntity
  8
AM_9
100
AcDbPolyline
 90
        7
 70
     0
 43
0.0
 10
-234.9800261583462
 20
-39.68750000000075
 10
-234.9498739652963
 20
-33.36345738809427
 10
-234.8570345038563
 20
-27.03941477619859
 10
-234.7100448723213
 20
-21.24638830324655
 10
-234.5059070926934
 20
-15.81736260931901
 10
-234.2389328432537
 20
-10.81860584780589
 10
-233.919767286491
 20
-6.645275000147191
  0
LWPOLYLINE
  5
1B3
330
16E
100
AcDbEntity
  8
AM_9
100
AcDbPolyline
 90
        7
 70
     0
 43
0.0
 10
234.9800261659583
 20
-39.68750004764838
 10
234.9498739735848
 20
-33.36345738811099
 10
234.8570345121519
 20
-27.03941477621392
 10
234.710044880616
 20
-21.24638830326021
 10
234.5059071009993
 20
-15.81736260933041
 10
234.238932851562
 20
-10.81860584776858
 10
233.9197672947464
 20
-6.645275000145452
  0
LINE
  5
1B4
330
16E
100
AcDbEntity
  8
AM_0
100
AcDbLine
 10
-400.4816333199899
 20
-39.6875000000005
 30
0.0
 11
399.6658250184333
 21
-39.68750002689991
 31
0.0
  0
ARC
  5
1B5
330
16E
100
AcDbEntity
  8
AM_0
100
AcDbCircle
 10
399.6658247395501
 20
511.4729854781971
 30
0.0
 40
551.1604854923996
100
AcDbArc
 50
270.0000000286855
 51
277.8205768500565
  0
ARC
  5
1B6
330
16E
100
AcDbEntity
  8
AM_0
100
AcDbCircle
 10
-400.481633319995
 20
511.4729827645087
 30
0.0
 40
551.1604827651297
100
AcDbArc
 50
262.2650161407124
 51
270.0000000000002
  0
LWPOLYLINE
  5
1B7
330
16E
100
AcDbEntity
  8
AM_0
100
AcDbPolyline
 90
        6
 70
     0
 43
0.0
 10
-474.6625036907221
 20
-32.70672013397985
 10
-453.1373328023853
 20
-35.735121112446
 10
-431.5070997106929
 20
-37.91006641470003
 10
-409.6677877564072
 20
-39.23330706434774
 10
-387.7896700174491
 20
-39.68729721417486
 10
-387.3171299137802
 20
-39.68750000031076
  0
LWPOLYLINE
  5
1B8
330
16E
100
AcDbEntity
  8
AM_0
100
AcDbPolyline
 90
        6
 70
     0
 43
0.0
 10
474.6624761597254
 20
-32.70874134886689
 10
453.1407545511246
 20
-35.73576314506157
 10
431.5143099084301
 20
-37.90992590761955
 10
409.6792925873071
 20
-39.23295431179244
 10
387.8058670280692
 20
-39.68728389597555
 10
387.31802498724
 20
-39.68750000000025
  0
LWPOLYLINE
  5
1B9
330
16E
100
AcDbEntity
  8
AM_0
100
AcDbPolyline
 90
        6
 70
     0
 43
0.0
 10
239.9161770340635
 20
-33.87866558063003
 10
238.6417832288212
 20
-36.39896559666279
 10
237.3955409015843
 20
-38.20857698607686
 10
236.1781558328167
 20
-39.30872000939029
 10
235.0076254981362
 20
-39.68729064317041
 10
234.9800261659583
 20
-39.68750004764838
  0
LWPOLYLINE
  5
1BA
330
16E
100
AcDbEntity
  8
AM_0
100
AcDbPolyline
 90
        6
 70
     0
 43
0.0
 10
-239.9161753563883
 20
-33.87866932024113
 10
-238.6417819900291
 20
-36.39896771486035
 10
-237.3955400902846
 20
-38.20857793865898
 10
-236.1781555424667
 20
-39.30872025064523
 10
-235.0076254821058
 20
-39.68729064317085
 10
-234.9800261583462
 20
-39.68750000000075
  0
LINE
  5
1BB
330
16E
100
AcDbEntity
  8
AM_0
100
AcDbLine
 10
-474.662500000006
 20
0.0000000000084335
 30
0.0
 11
474.662499999993
 21
0.0000000000084335
 31
0.0
  0
LINE
  5
1BC
330
16E
100
AcDbEntity
  8
AM_0
100
AcDbLine
 10
-474.662500000006
 20
-34.67267251482298
 30
0.0
 11
-474.662500000006
 21
0.0000000000084335
 31
0.0
  0
LWPOLYLINE
  5
1BD
330
16E
100
AcDbEntity
  8
AM_0
100
AcDbPolyline
 90
        9
 70
     0
 43
0.0
 10
-474.662500000006
 20
-8.811946756563504
 10
-446.1693008626914
 20
-15.33037930325806
 10
-417.387600542823
 20
-20.69998649116919
 10
-388.2974998617834
 20
-25.00728001916084
 10
-359.0429665524739
 20
-28.32829319239485
 10
-329.366271299908
 20
-30.79122568941208
 10
-299.6131400329078
 20
-32.4713285318639
 10
-269.7780212567116
 20
-33.47498234896495
 10
-239.9161981389537
 20
-33.87866607483374
  0
LINE
  5
1BE
330
16E
100
AcDbEntity
  8
AM_0
100
AcDbLine
 10
-239.9161980979166
 20
-33.8786658380341
 30
0.0
 11
239.916238695187
 21
-33.87866522434351
 31
0.0
  0
LWPOLYLINE
  5
1BF
330
16E
100
AcDbEntity
  8
AM_0
100
AcDbPolyline
 90
        9
 70
     0
 43
0.0
 10
239.9162387083675
 20
-33.87866591225703
 10
269.2705193715116
 20
-33.48668906947893
 10
298.6224744959786
 20
-32.51504851957282
 10
327.9869141503184
 20
-30.885641467742
 10
357.3180537238393
 20
-28.49517733464345
 10
386.8099547425336
 20
-25.19953888984879
 10
416.2052550377518
 20
-20.89617810468978
 10
445.5342129179469
 20
-15.46160471259958
 10
474.6624999767072
 20
-8.811946758245544
  0
LINE
  5
1C0
330
16E
100
AcDbEntity
  8
AM_0
100
AcDbLine
 10
474.662499999993
 20
-34.56124373100599
 30
0.0
 11
474.662499999993
 21
0.0000000000084335
 31
0.0
  0
ENDBLK
  5
171
330
16E
100
AcDbEntity
  8
0
100
AcDbBlockEnd
  0
BLOCK
  5
1C3
330
1C1
100
AcDbEntity
  8
0
100
AcDbBlockBegin
  2
7_FCA42AAVJU_BYCQ54GEGFU_PART1_0_in_FCA42AAVJU_BYCQ54GEGFU_0
 70
     2
 10
0.0
 20
0.0
 30
0.0
  3
7_FCA42AAVJU_BYCQ54GEGFU_PART1_0_in_FCA42AAVJU_BYCQ54GEGFU_0
  1

  0
ATTDEF
  5
1C5
330
1C1
100
AcDbEntity
  8
AM_6
100
AcDbText
 10
179.624999999994
 20
207.962500000004
 30
0.0
 40
0.5
  1
FCA42AAVJU-BYCQ54GEGFU_PART1
100
AcDbAttributeDefinition
  3

  2
NB
 70
     8
280
     0
  0
ATTDEF
  5
1C6
330
1C1
100
AcDbEntity
  8
AM_6
100
AcDbText
 10
179.624999999994
 20
207.462500000004
 30
0.0
 40
0.5
  1

100
AcDbAttributeDefinition
  3

  2
NN
 70
     8
280
     0
  0
ATTDEF
  5
1C7
330
1C1
100
AcDbEntity
  8
AM_6
100
AcDbText
 10
179.624999999994
 20
206.962500000004
 30
0.0
 40
0.5
  1

100
AcDbAttributeDefinition
  3

  2
NT
 70
     8
280
     0
  0
ATTDEF
  5
1C8
330
1C1
100
AcDbEntity
  8
AM_6
100
AcDbText
 10
179.624999999994
 20
206.462500000004
 30
0.0
 40
0.5
  1
$PARTNUMBER._PART1
100
AcDbAttributeDefinition
  3

  2
NBSYN
 70
     8
280
     0
  0
ATTDEF
  5
1C9
330
1C1
100
AcDbEntity
  8
AM_6
100
AcDbText
 10
179.624999999994
 20
205.962500000004
 30
0.0
 40
0.5
  1
FCA42AAVJU-BYCQ54GEGFU_PART1
100
AcDbAttributeDefinition
  3

  2
LINA
 70
     8
280
     0
  0
ATTDEF
  5
1CA
330
1C1
100
AcDbEntity
  8
AM_6
100
AcDbText
 10
179.624999999994
 20
205.462500000004
 30
0.0
 40
0.5
  1
Daikin
100
AcDbAttributeDefinition
  3

  2
CATALOG
 70
     8
280
     0
  0
ATTDEF
  5
1CB
330
1C1
100
AcDbEntity
  8
AM_6
100
AcDbText
 10
179.624999999994
 20
204.962500000004
 30
0.0
 40
0.5
  1
FCA42AAVJU-BYCQ54GEGFU
100
AcDbAttributeDefinition
  3

  2
PARTNUMBER
 70
     8
280
     0
  0
ATTDEF
  5
1CC
330
1C1
100
AcDbEntity
  8
AM_6
100
AcDbText
 10
179.624999999994
 20
204.462500000004
 30
0.0
 40
0.5
  1
Air Conditioner Ducted Round Flow Cassette
100
AcDbAttributeDefinition
  3

  2
DESCRIPTION
 70
     8
280
     0
  0
ATTDEF
  5
1CD
330
1C1
100
AcDbEntity
  8
AM_6
100
AcDbText
 10
179.624999999994
 20
203.962500000004
 30
0.0
 40
0.5
  1
33.0625
100
AcDbAttributeDefinition
  3

  2
OVERALL_DEPTH
 70
     8
280
     0
  0
ATTDEF
  5
1CE
330
1C1
100
AcDbEntity
  8
AM_6
100
AcDbText
 10
179.624999999994
 20
203.462500000004
 30
0.0
 40
0.5
  1
11.3438
100
AcDbAttributeDefinition
  3

  2
OVERALL_HEIGHT
 70
     8
280
     0
  0
ATTDEF
  5
1CF
330
1C1
100
AcDbEntity
  8
AM_6
100
AcDbText
 10
179.624999999994
 20
202.962500000004
 30
0.0
 40
0.5
  1
33.0625
100
AcDbAttributeDefinition
  3

  2
OVERALL_WIDTH
 70
     8
280
     0
  0
ATTDEF
  5
1D0
330
1C1
100
AcDbEntity
  8
AM_6
100
AcDbText
 10
179.624999999994
 20
202.462500000004
 30
0.0
 40
0.5
  1
https://daikincomfort.com/
100
AcDbAttributeDefinition
  3

  2
URL
 70
     8
280
     0
  0
ATTDEF
  5
1D1
330
1C1
100
AcDbEntity
  8
AM_6
100
AcDbText
 10
179.624999999994
 20
201.962500000004
 30
0.0
 40
0.5
  1
Download Revit Family (RFA)
100
AcDbAttributeDefinition
  3

  2
RFA_FAMILY
 70
     8
280
     0
  0
ATTDEF
  5
1D2
330
1C1
100
AcDbEntity
  8
AM_6
100
AcDbText
 10
179.624999999994
 20
201.462500000004
 30
0.0
 40
0.5
  1
daikin
100
AcDbAttributeDefinition
  3

  2
COMPANY
 70
     8
280
     0
  0
ATTDEF
  5
1D3
330
1C1
100
AcDbEntity
  8
AM_6
100
AcDbText
 10
179.624999999994
 20
200.962500000004
 30
0.0
 40
0.5
  1
{$CADENAS_DATA/23d-libs/daikin/sky-air/sky-air20indoor20units/air_conditioner-indoor-daikin-fca.prj},242 {VTYP=3D},{NB=FCA42AAVJU-BYCQ54GEGFU_PART1},{LINA=FCA42AAVJU-BYCQ54GEGFU_PART1},{NN=(R32) Cassette Sky-Air Daikin FCA_PART1},{NOPRJ=TRUE},{DATE=
100
AcDbAttributeDefinition
  3

  2
PSOL_0
 70
     9
280
     0
  0
ATTDEF
  5
1D4
330
1C1
100
AcDbEntity
  8
AM_6
100
AcDbText
 10
179.624999999994
 20
200.462500000004
 30
0.0
 40
0.5
  1
2026 19:23:42},{GEOMDATE=23.09.2025 06:26:16},{VERSION=},{LINEID=70},{WBVAR=},{WBNUMERIC=}  {NB=FCA42AAVJU-BYCQ54GEGFU_PART1},{LINA=FCA42AAVJU-BYCQ54GEGFU_PART1},{KT=DUMMY},{PARTNUMBER=FCA42AAVJU-BYCQ54GEGFU},{PARTNUMBERMAP09=3.5Ton_FCA42AAVJU-BYCQ5
100
AcDbAttributeDefinition
  3

  2
PSOL_1
 70
     9
280
     0
  0
ATTDEF
  5
1D5
330
1C1
100
AcDbEntity
  8
AM_6
100
AcDbText
 10
179.624999999994
 20
199.962500000004
 30
0.0
 40
0.5
  1
},{ACTUAL_RETURN_AIR_FLOW=1253},{ACTUAL_SUPPLY_AIR_FLOW=1253},{AMBIENT_TEMPERATURE=0},{APPARENT_POWER=384},{ASSEMBLY_CODE=D3090},{BRANCH_DUCT_CENTER_OFFSET=0},{BRANCH_DUCT_DEPTH=0.00833333333333333},{BRANCH_DUCT_HEIGHT=0.3125},{BRANCH_DUCT_HORIZONTA
100
AcDbAttributeDefinition
  3

  2
PSOL_2
 70
     9
280
     0
  0
ATTDEF
  5
1D6
330
1C1
100
AcDbEntity
  8
AM_6
100
AcDbText
 10
179.624999999994
 20
199.462500000004
 30
0.0
 40
0.5
  1
ET=0.526041666666667},{BRANCH_DUCT_LEFT_CENTER_OFFSET=0.0677083333333333},{BRANCH_DUCT_POSITION_ANGLE=0},{BRANCH_DUCT_REFERENCE_LENGTH=1.37760416666667},{BRANCH_DUCT_RIGHT_CENTER_OFFSET=0.0833333333333333},{BRANCH_DUCT_WIDTH=1.14583333333333},{CATEG
100
AcDbAttributeDefinition
  3

  2
PSOL_3
 70
     9
280
     0
  0
ATTDEF
  5
1D7
330
1C1
100
AcDbEntity
  8
AM_6
100
AcDbText
 10
179.624999999994
 20
198.962500000004
 30
0.0
 40
0.5
  1
chanical Equipment},{CEILING_OPENING_SPACE_DEPTH=2.98958333333333},{CEILING_OPENING_SPACE_WIDTH=2.98958333333333},{CLEARANCE_PRIMARY_OFFSET=5},{CLEARANCE_SECONDARY_OFFSET=0.65625},{CLEARANCE_VISIBILITY=1},{COIL_AIR_PRESSURE_DROP=0},{CONDENSATE_DRAIN
100
AcDbAttributeDefinition
  3

  2
PSOL_4
 70
     9
280
     0
  0
ATTDEF
  5
1D8
330
1C1
100
AcDbEntity
  8
AM_6
100
AcDbText
 10
179.624999999994
 20
198.462500000004
 30
0.0
 40
0.5
  1
CTION_DIAMETER=1.25},{CONDENSATE_DRAIN_PIPE_HORIZONTAL_OFFSET=0.583333333333333},{CONDENSATE_DRAIN_PIPE_LENGTH=1.38016666666667},{CONDENSATE_DRAIN_PIPE_RADIUS=0.0520833333333333},{CONDENSATE_DRAIN_PIPE_VERTICAL_OFFSET=1.11458333333333},{COOLING_ENTE
100
AcDbAttributeDefinition
  3

  2
PSOL_5
 70
     9
280
     0
  0
ATTDEF
  5
1D9
330
1C1
100
AcDbEntity
  8
AM_6
100
AcDbText
 10
179.624999999994
 20
197.962500000004
 30
0.0
 40
0.5
  1
RY_BULB_TEMPERATURE=0},{COOLING_ENTERING_WET_BULB_TEMPERATURE=0},{COOLING_LEAVING_DRY_BULB_TEMPERATURE=0},{COOLING_LEAVING_WET_BULB_TEMPERATURE=0},{COST=0},{DECORATION_PANEL_COVER_HEIGHT=0.130208333333333},{DECORATION_PANEL_DEPTH=3.11458333333333},{
100
AcDbAttributeDefinition
  3

  2
PSOL_6
 70
     9
280
     0
  0
ATTDEF
  5
1DA
330
1C1
100
AcDbEntity
  8
AM_6
100
AcDbText
 10
179.624999999994
 20
197.462500000004
 30
0.0
 40
0.5
  1
TION_PANEL_INSIDE_HEIGHT=0.296875},{DECORATION_PANEL_OVERALL_HEIGHT=0.427083333333333},{DECORATION_PANEL_WEIGHT=22},{DECORATION_PANEL_WIDTH=3.11458333333333},{DEFAULT_ELEVATION=4},{DESCRIPTION=Air Conditioner Ducted Round Flow Cassette},{DESIGN_BRAN
100
AcDbAttributeDefinition
  3

  2
PSOL_7
 70
     9
280
     0
  0
ATTDEF
  5
1DB
330
1C1
100
AcDbEntity
  8
AM_6
100
AcDbText
 10
179.624999999994
 20
196.962500000004
 30
0.0
 40
0.5
  1
T_SUPPLY_AIR_FLOW=0},{DESIGN_FRESH_AIR_FLOW=0},{DESIGN_RETURN_AIR_FLOW=1253},{DESIGN_SUPPLY_AIR_FLOW=1253},{DRAIN_FLOW=0},{ENCLOSURE_DEPTH=2.75520833333333},{ENCLOSURE_FLANGE_OFFSET=2.33333333333333},{ENCLOSURE_HEIGHT=0.9453125},{ENCLOSURE_WIDTH=2.7
100
AcDbAttributeDefinition
  3

  2
PSOL_8
 70
     9
280
     0
  0
ATTDEF
  5
1DC
330
1C1
100
AcDbEntity
  8
AM_6
100
AcDbText
 10
179.624999999994
 20
196.462500000004
 30
0.0
 40
0.5
  1
3333333},{FACE_VELOCITY__FPM_=0},{FAN_TYPE=Turbo fan},{FEET_PRESSURE_DROP=0},{FREQUENCY=60},{FRESH_AIR_INTAKE=0},{FRESH_AIR_INTAKE_RADIUS=0.0625},{GAS_PIPE_HORIZONTAL_OFFSET=0.541666666666667},{GAS_PIPE_LENGTH=1.38016666666667},{GAS_PIPE_RADIUS=0.02
100
AcDbAttributeDefinition
  3

  2
PSOL_9
 70
     9
280
     0
  0
ATTDEF
  5
1DD
330
1C1
100
AcDbEntity
  8
AM_6
100
AcDbText
 10
179.624999999994
 20
195.962500000004
 30
0.0
 40
0.5
  1
66666667},{GAS_PIPE_VERTICAL_OFFSET=1.08333333333333},{HEAT_EXCHANGER_TYPE=Cross Fin Coil},{HEATING_ENTERING_DRY_BULB_TEMPERATURE=0},{HEATING_ENTERING_WET_BULB_TEMPERATURE=0},{HEATING_LEAVING_DRY_BULB_TEMPERATURE=0},{HEATING_LEAVING_WET_BULB_TEMPERA
100
AcDbAttributeDefinition
  3

  2
PSOL_10
 70
     9
280
     0
  0
ATTDEF
  5
1DE
330
1C1
100
AcDbEntity
  8
AM_6
100
AcDbText
 10
179.624999999994
 20
195.462500000004
 30
0.0
 40
0.5
  1
},{KNOCK_HOLE_OFFSET=0.00833333333333333},{KNOCK_HOLE_RADIUS=0.164},{LATENT_COOLING_CAPACITY=0},{LIQUID_PIPE_HORIZONTAL_OFFSET=0.411458333333333},{LIQUID_PIPE_LENGTH=1.38016666666667},{LIQUID_PIPE_RADIUS=0.015625},{LIQUID_PIPE_VERTICAL_OFFSET=0.9166
100
AcDbAttributeDefinition
  3

  2
PSOL_11
 70
     9
280
     0
  0
ATTDEF
  5
1DF
330
1C1
100
AcDbEntity
  8
AM_6
100
AcDbText
 10
179.624999999994
 20
194.962500000004
 30
0.0
 40
0.5
  1
66667},{LOAD_SUB_CLASSIFICATION_MOTOR=1},{MANUFACTURER=Daikin},{MASSUNIT=1},{MAXIMUM_AIR_FLOW=1253},{MAXIMUM_OVERCURRENT_PROTECTION=15},{MEDIAN_AIR_FLOW=971},{MINIMUM_AIR_FLOW=741},{MINIMUM_CIRCUIT_AMPS=1.6},{MINIMUM_FLOOR_CLEARANCE=8.33333333333333
100
AcDbAttributeDefinition
  3

  2
PSOL_12
 70
     9
280
     0
  0
ATTDEF
  5
1E0
330
1C1
100
AcDbEntity
  8
AM_6
100
AcDbText
 10
179.624999999994
 20
194.462500000004
 30
0.0
 40
0.5
  1
IMUM_OBSTACLE_CLEARANCE=5},{MODEL=FCA42AAVJU-BYCQ54GEGFU},{NO_OBSTACLES_BELOW_UNIT=1},{NOMINAL_COOLING_CAPACITY=42000},{NOMINAL_COOLING_CAPACITY__TONS_=3.5},{NOMINAL_HEATING_CAPACITY=47000},{NUMBER_OF_POLES=2},{OBSTACLES_BELOW_UNIT=0},{OMNICLASS_NUM
100
AcDbAttributeDefinition
  3

  2
PSOL_13
 70
     9
280
     0
  0
ATTDEF
  5
1E1
330
1C1
100
AcDbEntity
  8
AM_6
100
AcDbText
 10
179.624999999994
 20
193.962500000004
 30
0.0
 40
0.5
  1
.33.33.11.15.11},{OUT_AIR_INTAKE_H_OFFSET=0.598958333333333},{OUT_AIR_INTAKE_V_OFFSET=0.697916666666667},{OVERALL_DEPTH=33.0625},{OVERALL_HEIGHT=11.3438},{OVERALL_WIDTH=33.0625},{PARTTYPE=Normal},{PHASE=1},{REFRIGERANT_LIQUID_CONNECTION_DIAMETER=0.3
100
AcDbAttributeDefinition
  3

  2
PSOL_14
 70
     9
280
     0
  0
ATTDEF
  5
1E2
330
1C1
100
AcDbEntity
  8
AM_6
100
AcDbText
 10
179.624999999994
 20
193.462500000004
 30
0.0
 40
0.5
  1
EFRIGERANT_SUCTION_GAS_CONNECTION_DIAMETER=0.625},{REFRIGERANT_USED=R-32},{RETURN_AIR_PRESSURE_DROP=0},{SENSIBLE_COOLING_CAPACITY=0},{SERIES=SkyAir},{SUPPLY_AIR_CONNECTION_HEIGHT=0.0625},{SUPPLY_AIR_CONNECTION_WIDTH=0.0625},{SUPPLY_AIR_PRESSURE_DROP
100
AcDbAttributeDefinition
  3

  2
PSOL_15
 70
     9
280
     0
  0
ATTDEF
  5
1E3
330
1C1
100
AcDbEntity
  8
AM_6
100
AcDbText
 10
179.624999999994
 20
192.962500000004
 30
0.0
 40
0.5
  1
YSTEM_PERFORMANCE_EER2=10.5},{SYSTEM_PERFORMANCE_HSPF2=10.2},{SYSTEM_PERFORMANCE_SEER2=18.9},{TOTAL_COOLING_CAPACITY=0},{TOTAL_HEATING_CAPACITY=0},{TOTAL_STATIC_PRESSURE=0},{UNIT_HEIGHT_CLEARANCE=8.33333333333333},{UNIT_WEIGHT=58},{URL=https://daiki
100
AcDbAttributeDefinition
  3

  2
PSOL_16
 70
     9
280
     0
  0
ATTDEF
  5
1E4
330
1C1
100
AcDbEntity
  8
AM_6
100
AcDbText
 10
179.624999999994
 20
192.462500000004
 30
0.0
 40
0.5
  1
rt.com/},{VERSION=1},{VOLTAGE=240},{VOLTAGE_COMMENTS=208 VAC - 230 VAC},{VAR__NO_BRANCH_DUCT=1},{VAR__BRANCH_DUCT_SELECTOR=0},{VAR__FAN_SPEED_SELECTOR=3},{VAR__BRANCH_DUCT_FRONT_OPENING=0},{VAR__L____LOW_FAN_SPEED=741},{VAR__BRANCH_DUCT_RIGHT_OPENIN
100
AcDbAttributeDefinition
  3

  2
PSOL_17
 70
     9
280
     0
  0
ATTDEF
  5
1E5
330
1C1
100
AcDbEntity
  8
AM_6
100
AcDbText
 10
179.624999999994
 20
191.962500000004
 30
0.0
 40
0.5
  1
VAR__M___MEDIUM_SPEED=971},{VAR__BRANCH_DUCT_BACK_OPENING=0},{VAR__H___HIGH_FAN_SPEED=1253},{VAR__BRANCH_DUCT_LEFT_OPENING=0},{RFA_FAMILY=Download Revit Family (RFA)},{DEFAULTSORTATTR=57},{RFA_FAMILY_=../../_pool_/be/62/air_conditioner-indoor-daikin
100
AcDbAttributeDefinition
  3

  2
PSOL_18
 70
     9
280
     0
  0
ATTDEF
  5
1E6
330
1C1
100
AcDbEntity
  8
AM_6
100
AcDbText
 10
179.624999999994
 20
191.462500000004
 30
0.0
 40
0.5
  1
ip},{RFA_FAMILY_ENG=../../_pool_/be/62/air_conditioner-indoor-daikin-fca.zip},{REVIT_FAMILY_DOWNLOAD=../../_pool_/be/62/air_conditioner-indoor-daikin-fca.zip}
100
AcDbAttributeDefinition
  3

  2
PSOL_19
 70
     9
280
     0
  0
LINE
  5
1E7
330
1C1
100
AcDbEntity
  8
AM_0
100
AcDbLine
 10
174.6249999999933
 20
112.7125
 30
0.0
 11
-174.625000000005
 21
112.712500000001
 31
0.0
  0
LINE
  5
1E8
330
1C1
100
AcDbEntity
  8
AM_0
100
AcDbLine
 10
-174.6250000000049
 20
207.962500000004
 30
0.0
 11
174.624999999994
 21
207.9625000000029
 31
0.0
  0
LINE
  5
1E9
330
1C1
100
AcDbEntity
  8
AM_0
100
AcDbLine
 10
-174.625000000005
 20
112.712500000001
 30
0.0
 11
-174.6250000000049
 21
207.962500000004
 31
0.0
  0
LINE
  5
1EA
330
1C1
100
AcDbEntity
  8
AM_0
100
AcDbLine
 10
174.624999999994
 20
207.9625000000029
 30
0.0
 11
174.6249999999933
 21
112.7125
 31
0.0
  0
ENDBLK
  5
1C4
330
1C1
100
AcDbEntity
  8
0
100
AcDbBlockEnd
  0
ENDSEC
  0
SECTION
  2
ENTITIES
  0
ATTDEF
  5
5F
330
1F
100
AcDbEntity
  8
AM_6
100
AcDbText
 10
479.6629896778874
 20
378.6187499999036
 30
0.0
 40
0.5
  1
FCA42AAVJU-BYCQ54GEGFU
100
AcDbAttributeDefinition
  3

  2
NB
 70
     8
280
     0
  0
ATTDEF
  5
60
330
1F
100
AcDbEntity
  8
AM_6
100
AcDbText
 10
479.6629896778874
 20
378.1187499999036
 30
0.0
 40
0.5
  1
(R32) Cassette Sky-Air Daikin FCA
100
AcDbAttributeDefinition
  3

  2
NN
 70
     8
280
     0
  0
ATTDEF
  5
61
330
1F
100
AcDbEntity
  8
AM_6
100
AcDbText
 10
479.6629896778874
 20
377.6187499999036
 30
0.0
 40
0.5
  1

100
AcDbAttributeDefinition
  3

  2
NT
 70
     8
280
     0
  0
ATTDEF
  5
62
330
1F
100
AcDbEntity
  8
AM_6
100
AcDbText
 10
479.6629896778874
 20
377.1187499999036
 30
0.0
 40
0.5
  1
$PARTNUMBER.
100
AcDbAttributeDefinition
  3

  2
NBSYN
 70
     8
280
     0
  0
ATTDEF
  5
63
330
1F
100
AcDbEntity
  8
AM_6
100
AcDbText
 10
479.6629896778874
 20
376.6187499999036
 30
0.0
 40
0.5
  1
FCA42AAVJU-BYCQ54GEGFU
100
AcDbAttributeDefinition
  3

  2
LINA
 70
     8
280
     0
  0
ATTDEF
  5
64
330
1F
100
AcDbEntity
  8
AM_6
100
AcDbText
 10
479.6629896778874
 20
376.1187499999036
 30
0.0
 40
0.5
  1
Daikin
100
AcDbAttributeDefinition
  3

  2
CATALOG
 70
     8
280
     0
  0
ATTDEF
  5
65
330
1F
100
AcDbEntity
  8
AM_6
100
AcDbText
 10
479.6629896778874
 20
375.6187499999036
 30
0.0
 40
0.5
  1
FCA42AAVJU-BYCQ54GEGFU
100
AcDbAttributeDefinition
  3

  2
PARTNUMBER
 70
     8
280
     0
  0
ATTDEF
  5
66
330
1F
100
AcDbEntity
  8
AM_6
100
AcDbText
 10
479.6629896778874
 20
375.1187499999036
 30
0.0
 40
0.5
  1
Air Conditioner Ducted Round Flow Cassette
100
AcDbAttributeDefinition
  3

  2
DESCRIPTION
 70
     8
280
     0
  0
ATTDEF
  5
67
330
1F
100
AcDbEntity
  8
AM_6
100
AcDbText
 10
479.6629896778874
 20
374.6187499999036
 30
0.0
 40
0.5
  1
33.0625
100
AcDbAttributeDefinition
  3

  2
OVERALL_DEPTH
 70
     8
280
     0
  0
ATTDEF
  5
68
330
1F
100
AcDbEntity
  8
AM_6
100
AcDbText
 10
479.6629896778874
 20
374.1187499999036
 30
0.0
 40
0.5
  1
11.3438
100
AcDbAttributeDefinition
  3

  2
OVERALL_HEIGHT
 70
     8
280
     0
  0
ATTDEF
  5
69
330
1F
100
AcDbEntity
  8
AM_6
100
AcDbText
 10
479.6629896778874
 20
373.6187499999036
 30
0.0
 40
0.5
  1
33.0625
100
AcDbAttributeDefinition
  3

  2
OVERALL_WIDTH
 70
     8
280
     0
  0
ATTDEF
  5
6A
330
1F
100
AcDbEntity
  8
AM_6
100
AcDbText
 10
479.6629896778874
 20
373.1187499999036
 30
0.0
 40
0.5
  1
https://daikincomfort.com/
100
AcDbAttributeDefinition
  3

  2
URL
 70
     8
280
     0
  0
ATTDEF
  5
6B
330
1F
100
AcDbEntity
  8
AM_6
100
AcDbText
 10
479.6629896778874
 20
372.6187499999036
 30
0.0
 40
0.5
  1
Download Revit Family (RFA)
100
AcDbAttributeDefinition
  3

  2
RFA_FAMILY
 70
     8
280
     0
  0
ATTDEF
  5
6C
330
1F
100
AcDbEntity
  8
AM_6
100
AcDbText
 10
479.6629896778874
 20
372.1187499999036
 30
0.0
 40
0.5
  1
daikin
100
AcDbAttributeDefinition
  3

  2
COMPANY
 70
     8
280
     0
  0
ATTDEF
  5
6D
330
1F
100
AcDbEntity
  8
AM_6
100
AcDbText
 10
479.6629896778874
 20
371.6187499999036
 30
0.0
 40
0.5
  1
{$CADENAS_DATA/23d-libs/daikin/sky-air/sky-air20indoor20units/air_conditioner-indoor-daikin-fca.prj},222 {STYP=ASS},{VTYP=3D},{NB=FCA42AAVJU-BYCQ54GEGFU},{LINA=FCA42AAVJU-BYCQ54GEGFU},{NN=(R32) Cassette Sky-Air Daikin FCA},{DATE=03.06.2026 19:23:42}
100
AcDbAttributeDefinition
  3

  2
PSOL_0
 70
     9
280
     0
  0
ATTDEF
  5
6E
330
1F
100
AcDbEntity
  8
AM_6
100
AcDbText
 10
479.6629896778874
 20
371.1187499999036
 30
0.0
 40
0.5
  1
DATE=23.09.2025 06:26:16},{VERSION=},{LINEID=70},{WBVAR=},{WBNUMERIC=}  {NB=FCA42AAVJU-BYCQ54GEGFU},{LINA=FCA42AAVJU-BYCQ54GEGFU},{KT=DUMMY},{PARTNUMBER=FCA42AAVJU-BYCQ54GEGFU},{PARTNUMBERMAP09=3.5Ton_FCA42AAVJU-BYCQ54GEGFU},{ACTUAL_RETURN_AIR_FLOW=
100
AcDbAttributeDefinition
  3

  2
PSOL_1
 70
     9
280
     0
  0
ATTDEF
  5
6F
330
1F
100
AcDbEntity
  8
AM_6
100
AcDbText
 10
479.6629896778874
 20
370.6187499999036
 30
0.0
 40
0.5
  1
{ACTUAL_SUPPLY_AIR_FLOW=1253},{AMBIENT_TEMPERATURE=0},{APPARENT_POWER=384},{ASSEMBLY_CODE=D3090},{BRANCH_DUCT_CENTER_OFFSET=0},{BRANCH_DUCT_DEPTH=0.00833333333333333},{BRANCH_DUCT_HEIGHT=0.3125},{BRANCH_DUCT_HORIZONTAL_OFFSET=0.526041666666667},{BRA
100
AcDbAttributeDefinition
  3

  2
PSOL_2
 70
     9
280
     0
  0
ATTDEF
  5
70
330
1F
100
AcDbEntity
  8
AM_6
100
AcDbText
 10
479.6629896778874
 20
370.1187499999036
 30
0.0
 40
0.5
  1
CT_LEFT_CENTER_OFFSET=0.0677083333333333},{BRANCH_DUCT_POSITION_ANGLE=0},{BRANCH_DUCT_REFERENCE_LENGTH=1.37760416666667},{BRANCH_DUCT_RIGHT_CENTER_OFFSET=0.0833333333333333},{BRANCH_DUCT_WIDTH=1.14583333333333},{CATEGORY=Mechanical Equipment},{CEILI
100
AcDbAttributeDefinition
  3

  2
PSOL_3
 70
     9
280
     0
  0
ATTDEF
  5
71
330
1F
100
AcDbEntity
  8
AM_6
100
AcDbText
 10
479.6629896778874
 20
369.6187499999036
 30
0.0
 40
0.5
  1
NING_SPACE_DEPTH=2.98958333333333},{CEILING_OPENING_SPACE_WIDTH=2.98958333333333},{CLEARANCE_PRIMARY_OFFSET=5},{CLEARANCE_SECONDARY_OFFSET=0.65625},{CLEARANCE_VISIBILITY=1},{COIL_AIR_PRESSURE_DROP=0},{CONDENSATE_DRAIN_CONNECTION_DIAMETER=1.25},{COND
100
AcDbAttributeDefinition
  3

  2
PSOL_4
 70
     9
280
     0
  0
ATTDEF
  5
72
330
1F
100
AcDbEntity
  8
AM_6
100
AcDbText
 10
479.6629896778874
 20
369.1187499999036
 30
0.0
 40
0.5
  1
_DRAIN_PIPE_HORIZONTAL_OFFSET=0.583333333333333},{CONDENSATE_DRAIN_PIPE_LENGTH=1.38016666666667},{CONDENSATE_DRAIN_PIPE_RADIUS=0.0520833333333333},{CONDENSATE_DRAIN_PIPE_VERTICAL_OFFSET=1.11458333333333},{COOLING_ENTERING_DRY_BULB_TEMPERATURE=0},{CO
100
AcDbAttributeDefinition
  3

  2
PSOL_5
 70
     9
280
     0
  0
ATTDEF
  5
73
330
1F
100
AcDbEntity
  8
AM_6
100
AcDbText
 10
479.6629896778874
 20
368.6187499999036
 30
0.0
 40
0.5
  1
ENTERING_WET_BULB_TEMPERATURE=0},{COOLING_LEAVING_DRY_BULB_TEMPERATURE=0},{COOLING_LEAVING_WET_BULB_TEMPERATURE=0},{COST=0},{DECORATION_PANEL_COVER_HEIGHT=0.130208333333333},{DECORATION_PANEL_DEPTH=3.11458333333333},{DECORATION_PANEL_INSIDE_HEIGHT=0
100
AcDbAttributeDefinition
  3

  2
PSOL_6
 70
     9
280
     0
  0
ATTDEF
  5
74
330
1F
100
AcDbEntity
  8
AM_6
100
AcDbText
 10
479.6629896778874
 20
368.1187499999036
 30
0.0
 40
0.5
  1
5},{DECORATION_PANEL_OVERALL_HEIGHT=0.427083333333333},{DECORATION_PANEL_WEIGHT=22},{DECORATION_PANEL_WIDTH=3.11458333333333},{DEFAULT_ELEVATION=4},{DESCRIPTION=Air Conditioner Ducted Round Flow Cassette},{DESIGN_BRANCH_DUCT_SUPPLY_AIR_FLOW=0},{DESI
100
AcDbAttributeDefinition
  3

  2
PSOL_7
 70
     9
280
     0
  0
ATTDEF
  5
75
330
1F
100
AcDbEntity
  8
AM_6
100
AcDbText
 10
479.6629896778874
 20
367.6187499999036
 30
0.0
 40
0.5
  1
SH_AIR_FLOW=0},{DESIGN_RETURN_AIR_FLOW=1253},{DESIGN_SUPPLY_AIR_FLOW=1253},{DRAIN_FLOW=0},{ENCLOSURE_DEPTH=2.75520833333333},{ENCLOSURE_FLANGE_OFFSET=2.33333333333333},{ENCLOSURE_HEIGHT=0.9453125},{ENCLOSURE_WIDTH=2.75520833333333},{FACE_VELOCITY__F
100
AcDbAttributeDefinition
  3

  2
PSOL_8
 70
     9
280
     0
  0
ATTDEF
  5
76
330
1F
100
AcDbEntity
  8
AM_6
100
AcDbText
 10
479.6629896778874
 20
367.1187499999036
 30
0.0
 40
0.5
  1
,{FAN_TYPE=Turbo fan},{FEET_PRESSURE_DROP=0},{FREQUENCY=60},{FRESH_AIR_INTAKE=0},{FRESH_AIR_INTAKE_RADIUS=0.0625},{GAS_PIPE_HORIZONTAL_OFFSET=0.541666666666667},{GAS_PIPE_LENGTH=1.38016666666667},{GAS_PIPE_RADIUS=0.0260416666666667},{GAS_PIPE_VERTIC
100
AcDbAttributeDefinition
  3

  2
PSOL_9
 70
     9
280
     0
  0
ATTDEF
  5
77
330
1F
100
AcDbEntity
  8
AM_6
100
AcDbText
 10
479.6629896778874
 20
366.6187499999036
 30
0.0
 40
0.5
  1
SET=1.08333333333333},{HEAT_EXCHANGER_TYPE=Cross Fin Coil},{HEATING_ENTERING_DRY_BULB_TEMPERATURE=0},{HEATING_ENTERING_WET_BULB_TEMPERATURE=0},{HEATING_LEAVING_DRY_BULB_TEMPERATURE=0},{HEATING_LEAVING_WET_BULB_TEMPERATURE=0},{KNOCK_HOLE_OFFSET=0.008
100
AcDbAttributeDefinition
  3

  2
PSOL_10
 70
     9
280
     0
  0
ATTDEF
  5
78
330
1F
100
AcDbEntity
  8
AM_6
100
AcDbText
 10
479.6629896778874
 20
366.1187499999036
 30
0.0
 40
0.5
  1
33333333},{KNOCK_HOLE_RADIUS=0.164},{LATENT_COOLING_CAPACITY=0},{LIQUID_PIPE_HORIZONTAL_OFFSET=0.411458333333333},{LIQUID_PIPE_LENGTH=1.38016666666667},{LIQUID_PIPE_RADIUS=0.015625},{LIQUID_PIPE_VERTICAL_OFFSET=0.916666666666667},{LOAD_SUB_CLASSIFIC
100
AcDbAttributeDefinition
  3

  2
PSOL_11
 70
     9
280
     0
  0
ATTDEF
  5
79
330
1F
100
AcDbEntity
  8
AM_6
100
AcDbText
 10
479.6629896778874
 20
365.6187499999036
 30
0.0
 40
0.5
  1
MOTOR=1},{MANUFACTURER=Daikin},{MASSUNIT=1},{MAXIMUM_AIR_FLOW=1253},{MAXIMUM_OVERCURRENT_PROTECTION=15},{MEDIAN_AIR_FLOW=971},{MINIMUM_AIR_FLOW=741},{MINIMUM_CIRCUIT_AMPS=1.6},{MINIMUM_FLOOR_CLEARANCE=8.33333333333333},{MINIMUM_OBSTACLE_CLEARANCE=5}
100
AcDbAttributeDefinition
  3

  2
PSOL_12
 70
     9
280
     0
  0
ATTDEF
  5
7A
330
1F
100
AcDbEntity
  8
AM_6
100
AcDbText
 10
479.6629896778874
 20
365.1187499999036
 30
0.0
 40
0.5
  1
L=FCA42AAVJU-BYCQ54GEGFU},{NO_OBSTACLES_BELOW_UNIT=1},{NOMINAL_COOLING_CAPACITY=42000},{NOMINAL_COOLING_CAPACITY__TONS_=3.5},{NOMINAL_HEATING_CAPACITY=47000},{NUMBER_OF_POLES=2},{OBSTACLES_BELOW_UNIT=0},{OMNICLASS_NUMBER=23.33.33.11.15.11},{OUT_AIR_
100
AcDbAttributeDefinition
  3

  2
PSOL_13
 70
     9
280
     0
  0
ATTDEF
  5
7B
330
1F
100
AcDbEntity
  8
AM_6
100
AcDbText
 10
479.6629896778874
 20
364.6187499999036
 30
0.0
 40
0.5
  1
_H_OFFSET=0.598958333333333},{OUT_AIR_INTAKE_V_OFFSET=0.697916666666667},{OVERALL_DEPTH=33.0625},{OVERALL_HEIGHT=11.3438},{OVERALL_WIDTH=33.0625},{PARTTYPE=Normal},{PHASE=1},{REFRIGERANT_LIQUID_CONNECTION_DIAMETER=0.375},{REFRIGERANT_SUCTION_GAS_CON
100
AcDbAttributeDefinition
  3

  2
PSOL_14
 70
     9
280
     0
  0
ATTDEF
  5
7C
330
1F
100
AcDbEntity
  8
AM_6
100
AcDbText
 10
479.6629896778874
 20
364.1187499999036
 30
0.0
 40
0.5
  1
N_DIAMETER=0.625},{REFRIGERANT_USED=R-32},{RETURN_AIR_PRESSURE_DROP=0},{SENSIBLE_COOLING_CAPACITY=0},{SERIES=SkyAir},{SUPPLY_AIR_CONNECTION_HEIGHT=0.0625},{SUPPLY_AIR_CONNECTION_WIDTH=0.0625},{SUPPLY_AIR_PRESSURE_DROP=0},{SYSTEM_PERFORMANCE_EER2=10.
100
AcDbAttributeDefinition
  3

  2
PSOL_15
 70
     9
280
     0
  0
ATTDEF
  5
7D
330
1F
100
AcDbEntity
  8
AM_6
100
AcDbText
 10
479.6629896778874
 20
363.6187499999036
 30
0.0
 40
0.5
  1
STEM_PERFORMANCE_HSPF2=10.2},{SYSTEM_PERFORMANCE_SEER2=18.9},{TOTAL_COOLING_CAPACITY=0},{TOTAL_HEATING_CAPACITY=0},{TOTAL_STATIC_PRESSURE=0},{UNIT_HEIGHT_CLEARANCE=8.33333333333333},{UNIT_WEIGHT=58},{URL=https://daikincomfort.com/},{VERSION=1},{VOLT
100
AcDbAttributeDefinition
  3

  2
PSOL_16
 70
     9
280
     0
  0
ATTDEF
  5
7E
330
1F
100
AcDbEntity
  8
AM_6
100
AcDbText
 10
479.6629896778874
 20
363.1187499999036
 30
0.0
 40
0.5
  1
0},{VOLTAGE_COMMENTS=208 VAC - 230 VAC},{VAR__NO_BRANCH_DUCT=1},{VAR__BRANCH_DUCT_SELECTOR=0},{VAR__FAN_SPEED_SELECTOR=3},{VAR__BRANCH_DUCT_FRONT_OPENING=0},{VAR__L____LOW_FAN_SPEED=741},{VAR__BRANCH_DUCT_RIGHT_OPENING=0},{VAR__M___MEDIUM_SPEED=971}
100
AcDbAttributeDefinition
  3

  2
PSOL_17
 70
     9
280
     0
  0
ATTDEF
  5
7F
330
1F
100
AcDbEntity
  8
AM_6
100
AcDbText
 10
479.6629896778874
 20
362.6187499999036
 30
0.0
 40
0.5
  1
_BRANCH_DUCT_BACK_OPENING=0},{VAR__H___HIGH_FAN_SPEED=1253},{VAR__BRANCH_DUCT_LEFT_OPENING=0},{RFA_FAMILY=Download Revit Family (RFA)},{DEFAULTSORTATTR=57},{RFA_FAMILY_=../../_pool_/be/62/air_conditioner-indoor-daikin-fca.zip},{RFA_FAMILY_ENG=../../
100
AcDbAttributeDefinition
  3

  2
PSOL_18
 70
     9
280
     0
  0
ATTDEF
  5
80
330
1F
100
AcDbEntity
  8
AM_6
100
AcDbText
 10
479.6629896778874
 20
362.1187499999036
 30
0.0
 40
0.5
  1
/be/62/air_conditioner-indoor-daikin-fca.zip},{REVIT_FAMILY_DOWNLOAD=../../_pool_/be/62/air_conditioner-indoor-daikin-fca.zip}
100
AcDbAttributeDefinition
  3

  2
PSOL_19
 70
     9
280
     0
  0
INSERT
  5
82
330
1F
100
AcDbEntity
  8
0
100
AcDbBlockReference
  2
1_FCA42AAVJU_BYCQ54GEGFU_PART7_0_in_FCA42AAVJU_BYCQ54GEGFU_0
 10
0.0
 20
0.0
 30
0.0
  0
INSERT
  5
B1
330
1F
100
AcDbEntity
  8
0
100
AcDbBlockReference
  2
2_FCA42AAVJU_BYCQ54GEGFU_PART6_0_in_FCA42AAVJU_BYCQ54GEGFU_0
 10
0.0
 20
0.0
 30
0.0
  0
INSERT
  5
DD
330
1F
100
AcDbEntity
  8
0
100
AcDbBlockReference
  2
3_FCA42AAVJU_BYCQ54GEGFU_PART5_0_in_FCA42AAVJU_BYCQ54GEGFU_0
 10
0.0
 20
0.0
 30
0.0
  0
INSERT
  5
108
330
1F
100
AcDbEntity
  8
0
100
AcDbBlockReference
  2
4_FCA42AAVJU_BYCQ54GEGFU_PART4_0_in_FCA42AAVJU_BYCQ54GEGFU_0
 10
0.0
 20
0.0
 30
0.0
  0
INSERT
  5
143
330
1F
100
AcDbEntity
  8
0
100
AcDbBlockReference
  2
5_FCA42AAVJU_BYCQ54GEGFU_PART3_0_in_FCA42AAVJU_BYCQ54GEGFU_0
 10
0.0
 20
0.0
 30
0.0
  0
INSERT
  5
16F
330
1F
100
AcDbEntity
  8
0
100
AcDbBlockReference
  2
6_FCA42AAVJU_BYCQ54GEGFU_PART2_0_in_FCA42AAVJU_BYCQ54GEGFU_0
 10
0.0
 20
0.0
 30
0.0
  0
INSERT
  5
1C2
330
1F
100
AcDbEntity
  8
0
100
AcDbBlockReference
  2
7_FCA42AAVJU_BYCQ54GEGFU_PART1_0_in_FCA42AAVJU_BYCQ54GEGFU_0
 10
0.0
 20
0.0
 30
0.0
  0
ENDSEC
  0
SECTION
  2
OBJECTS
  0
DICTIONARY
  5
C
330
0
100
AcDbDictionary
281
     1
  3
ACAD_DETAILVIEWSTYLE
350
1F2
  3
ACAD_GROUP
350
D
  3
ACAD_LAYOUT
350
1A
  3
ACAD_MATERIAL
350
43
  3
ACAD_MLEADERSTYLE
350
5B
  3
ACAD_MLINESTYLE
350
17
  3
ACAD_PLOTSETTINGS
350
19
  3
ACAD_PLOTSTYLENAME
350
E
  3
ACAD_SCALELIST
350
47
  3
ACAD_SECTIONVIEWSTYLE
350
1F3
  3
ACAD_TABLESTYLE
350
59
  3
ACAD_VISUALSTYLE
350
2A
  3
ACDB_RECOMPOSE_DATA
350
1EF
  3
AcDbVariableDictionary
350
1EB
  0
SUN
  5
5D
330
29
100
AcDbSun
 90
        1
290
     0
 63
     7
421
 16777215
 40
1.0
291
     1
 91
  2455826
 92
 54000000
292
     0
 70
     2
 71
   256
280
     1
  0
DICTIONARY
  5
1F2
102
{ACAD_REACTORS
330
C
102
}
330
C
100
AcDbDictionary
281
     1
  0
DICTIONARY
  5
D
102
{ACAD_REACTORS
330
C
102
}
330
C
100
AcDbDictionary
281
     1
  0
DICTIONARY
  5
1A
102
{ACAD_REACTORS
330
C
102
}
330
C
100
AcDbDictionary
281
     1
  3
Layout1
350
1E
  3
Layout2
350
26
  3
Model
350
22
  0
DICTIONARY
  5
43
102
{ACAD_REACTORS
330
C
102
}
330
C
100
AcDbDictionary
281
     1
  3
ByBlock
350
45
  3
ByLayer
350
44
  3
Global
350
46
  0
DICTIONARY
  5
5B
102
{ACAD_REACTORS
330
C
102
}
330
C
100
AcDbDictionary
281
     1
  3
Standard
350
5C
  0
DICTIONARY
  5
17
102
{ACAD_REACTORS
330
C
102
}
330
C
100
AcDbDictionary
281
     1
  3
Standard
350
18
  0
DICTIONARY
  5
19
102
{ACAD_REACTORS
330
C
102
}
330
C
100
AcDbDictionary
281
     1
  0
ACDBDICTIONARYWDFLT
  5
E
102
{ACAD_REACTORS
330
C
102
}
330
C
100
AcDbDictionary
281
     1
  3
Normal
350
F
100
AcDbDictionaryWithDefault
340
F
  0
DICTIONARY
  5
47
102
{ACAD_REACTORS
330
C
102
}
330
C
100
AcDbDictionary
281
     1
  3
A0
350
48
  3
A1
350
49
  3
A2
350
4A
  3
A3
350
4B
  3
A4
350
4C
  3
A5
350
4D
  3
A6
350
4E
  3
A7
350
4F
  3
A8
350
50
  3
A9
350
51
  3
B0
350
52
  3
B1
350
53
  3
B2
350
54
  3
B3
350
55
  3
B4
350
56
  3
B5
350
57
  3
B6
350
58
  0
DICTIONARY
  5
1F3
102
{ACAD_REACTORS
330
C
102
}
330
C
100
AcDbDictionary
281
     1
  0
DICTIONARY
  5
59
102
{ACAD_REACTORS
330
C
102
}
330
C
100
AcDbDictionary
281
     1
  3
Standard
350
5A
  0
DICTIONARY
  5
2A
102
{ACAD_REACTORS
330
C
102
}
330
C
100
AcDbDictionary
281
     1
  3
2dWireframe
350
2F
  3
Basic
350
32
  3
Brighten
350
36
  3
ColorChange
350
3A
  3
Conceptual
350
34
  3
Dim
350
35
  3
EdgeColorOff
350
3D
  3
Facepattern
350
39
  3
Flat
350
2B
  3
FlatWithEdges
350
2C
  3
Gouraud
350
2D
  3
GouraudWithEdges
350
2E
  3
Hidden
350
31
  3
JitterOff
350
3B
  3
Linepattern
350
38
  3
OverhangOff
350
3C
  3
Realistic
350
33
  3
Shaded
350
42
  3
Shaded with edges
350
41
  3
Shades of Gray
350
3E
  3
Sketchy
350
3F
  3
Thicken
350
37
  3
Wireframe
350
30
  3
X-Ray
350
40
  0
XRECORD
  5
1EF
102
{ACAD_REACTORS
330
C
102
}
330
C
100
AcDbXrecord
280
     1
 90
        1
330
5A
  0
DICTIONARY
  5
1EB
102
{ACAD_REACTORS
330
C
102
}
330
C
100
AcDbDictionary
281
     1
  3
CANNOSCALE
350
1EC
  3
CENTEREXE
350
1F4
  3
CENTERLTYPEFILE
350
1F5
  3
CMLEADERSTYLE
350
1F1
  3
CTABLESTYLE
350
1F0
  0
LAYOUT
  5
1E
102
{ACAD_REACTORS
330
1A
102
}
330
1A
100
AcDbPlotSettings
  1

  2
none_device
  4

  6

 40
0.0
 41
0.0
 42
0.0
 43
0.0
 44
0.0
 45
0.0
 46
0.0
 47
0.0
 48
0.0
 49
0.0
140
0.0
141
0.0
142
1.0
143
1.0
 70
   688
 72
     1
 73
     0
 74
     5
  7

 75
    16
 76
     0
 77
     2
 78
   300
147
1.0
148
0.0
149
0.0
100
AcDbLayout
  1
Layout1
 70
     1
 71
     1
 10
0.0
 20
0.0
 11
420.0
 21
297.0
 12
0.0
 22
0.0
 32
0.0
 14
1.000000000000000E+20
 24
1.000000000000000E+20
 34
1.000000000000000E+20
 15
-1.000000000000000E+20
 25
-1.000000000000000E+20
 35
-1.000000000000000E+20
146
0.0
 13
0.0
 23
0.0
 33
0.0
 16
1.0
 26
0.0
 36
0.0
 17
0.0
 27
1.0
 37
0.0
 76
     0
330
1B
  0
LAYOUT
  5
26
102
{ACAD_REACTORS
330
1A
102
}
330
1A
100
AcDbPlotSettings
  1

  2
none_device
  4

  6

 40
0.0
 41
0.0
 42
0.0
 43
0.0
 44
0.0
 45
0.0
 46
0.0
 47
0.0
 48
0.0
 49
0.0
140
0.0
141
0.0
142
1.0
143
1.0
 70
   688
 72
     1
 73
     0
 74
     5
  7

 75
    16
 76
     0
 77
     2
 78
   300
147
1.0
148
0.0
149
0.0
100
AcDbLayout
  1
Layout2
 70
     1
 71
     2
 10
0.0
 20
0.0
 11
0.0
 21
0.0
 12
0.0
 22
0.0
 32
0.0
 14
0.0
 24
0.0
 34
0.0
 15
0.0
 25
0.0
 35
0.0
146
0.0
 13
0.0
 23
0.0
 33
0.0
 16
1.0
 26
0.0
 36
0.0
 17
0.0
 27
1.0
 37
0.0
 76
     0
330
23
  0
LAYOUT
  5
22
102
{ACAD_REACTORS
330
1A
102
}
330
1A
100
AcDbPlotSettings
  1

  2
none_device
  4
Letter_(8.50_x_11.00_Inches)
  6

 40
6.35
 41
6.35
 42
6.35000508
 43
6.35000508
 44
215.9
 45
279.4
 46
0.0
 47
0.0
 48
0.0
 49
0.0
140
0.0
141
0.0
142
1.0
143
1.0
 70
  1712
 72
     1
 73
     0
 74
     0
  7

 75
     0
 76
     0
 77
     2
 78
   300
147
1.0
148
0.0
149
0.0
100
AcDbLayout
  1
Model
 70
     1
 71
     0
 10
0.0
 20
0.0
 11
420.0
 21
297.0
 12
0.0
 22
0.0
 32
0.0
 14
-474.6630052661254
 24
-39.68750004764838
 34
0.0
 15
486.5799388304297
 25
379.1241737287172
 35
0.0
146
0.0
 13
0.0
 23
0.0
 33
0.0
 16
1.0
 26
0.0
 36
0.0
 17
0.0
 27
1.0
 37
0.0
 76
     0
330
1F
331
29
  0
MATERIAL
  5
45
102
{ACAD_REACTORS
330
43
102
}
330
43
100
AcDbMaterial
  1
ByBlock
 72
     1
 94
      127
  0
MATERIAL
  5
44
102
{ACAD_REACTORS
330
43
102
}
330
43
100
AcDbMaterial
  1
ByLayer
 72
     1
 94
      127
  0
MATERIAL
  5
46
102
{ACAD_REACTORS
330
43
102
}
330
43
100
AcDbMaterial
  1
Global
 72
     1
 94
      127
  0
MLEADERSTYLE
  5
5C
102
{ACAD_REACTORS
330
5B
102
}
330
5B
100
AcDbMLeaderStyle
179
     2
170
     2
171
     1
172
     0
 90
        2
 40
0.0
 41
0.0
173
     1
 91
-1056964608
340
14
 92
       -2
290
     1
 42
2.0
291
     1
 43
8.0
  3
Standard
341
0
 44
4.0
300

342
11
174
     1
178
     6
175
     1
176
     0
 93
-1056964608
 45
4.0
292
     0
297
     0
 46
4.0
343
0
 94
-1056964608
 47
1.0
 49
1.0
140
1.0
293
     1
141
0.0
294
     1
177
     0
142
1.0
295
     0
296
     0
143
3.75
271
     0
272
     9
273
     9
298
     0
  0
MLINESTYLE
  5
18
102
{ACAD_REACTORS
330
17
102
}
330
17
100
AcDbMlineStyle
  2
Standard
 70
     0
  3

 62
   256
 51
90.0
 52
90.0
 71
     2
 49
0.5
 62
   256
  6
BYLAYER
 49
-0.5
 62
   256
  6
BYLAYER
  0
ACDBPLACEHOLDER
  5
F
102
{ACAD_REACTORS
330
E
102
}
330
E
  0
SCALE
  5
48
102
{ACAD_REACTORS
330
47
102
}
330
47
100
AcDbScale
 70
     0
300
1:1
140
1.0
141
1.0
290
     1
  0
SCALE
  5
49
102
{ACAD_REACTORS
330
47
102
}
330
47
100
AcDbScale
 70
     0
300
1:2
140
1.0
141
2.0
290
     0
  0
SCALE
  5
4A
102
{ACAD_REACTORS
330
47
102
}
330
47
100
AcDbScale
 70
     0
300
1:4
140
1.0
141
4.0
290
     0
  0
SCALE
  5
4B
102
{ACAD_REACTORS
330
47
102
}
330
47
100
AcDbScale
 70
     0
300
1:5
140
1.0
141
5.0
290
     0
  0
SCALE
  5
4C
102
{ACAD_REACTORS
330
47
102
}
330
47
100
AcDbScale
 70
     0
300
1:8
140
1.0
141
8.0
290
     0
  0
SCALE
  5
4D
102
{ACAD_REACTORS
330
47
102
}
330
47
100
AcDbScale
 70
     0
300
1:10
140
1.0
141
10.0
290
     0
  0
SCALE
  5
4E
102
{ACAD_REACTORS
330
47
102
}
330
47
100
AcDbScale
 70
     0
300
1:16
140
1.0
141
16.0
290
     0
  0
SCALE
  5
4F
102
{ACAD_REACTORS
330
47
102
}
330
47
100
AcDbScale
 70
     0
300
1:20
140
1.0
141
20.0
290
     0
  0
SCALE
  5
50
102
{ACAD_REACTORS
330
47
102
}
330
47
100
AcDbScale
 70
     0
300
1:30
140
1.0
141
30.0
290
     0
  0
SCALE
  5
51
102
{ACAD_REACTORS
330
47
102
}
330
47
100
AcDbScale
 70
     0
300
1:40
140
1.0
141
40.0
290
     0
  0
SCALE
  5
52
102
{ACAD_REACTORS
330
47
102
}
330
47
100
AcDbScale
 70
     0
300
1:50
140
1.0
141
50.0
290
     0
  0
SCALE
  5
53
102
{ACAD_REACTORS
330
47
102
}
330
47
100
AcDbScale
 70
     0
300
1:100
140
1.0
141
100.0
290
     0
  0
SCALE
  5
54
102
{ACAD_REACTORS
330
47
102
}
330
47
100
AcDbScale
 70
     0
300
2:1
140
2.0
141
1.0
290
     0
  0
SCALE
  5
55
102
{ACAD_REACTORS
330
47
102
}
330
47
100
AcDbScale
 70
     0
300
4:1
140
4.0
141
1.0
290
     0
  0
SCALE
  5
56
102
{ACAD_REACTORS
330
47
102
}
330
47
100
AcDbScale
 70
     0
300
8:1
140
8.0
141
1.0
290
     0
  0
SCALE
  5
57
102
{ACAD_REACTORS
330
47
102
}
330
47
100
AcDbScale
 70
     0
300
10:1
140
10.0
141
1.0
290
     0
  0
SCALE
  5
58
102
{ACAD_REACTORS
330
47
102
}
330
47
100
AcDbScale
 70
     0
300
100:1
140
100.0
141
1.0
290
     0
  0
TABLESTYLE
  5
5A
102
{ACAD_REACTORS
330
59
102
}
102
{ACAD_XDICTIONARY
360
1ED
102
}
330
59
100
AcDbTableStyle
  3
Standard
 70
     0
 71
     0
 40
0.06
 41
0.06
280
     0
281
     0
  7
Standard
140
4.5
170
     2
 62
     0
 63
   257
283
     0
 90
        4
 91
        0
  1

274
    -2
284
     1
 64
     0
275
    -2
285
     1
 65
     0
276
    -2
286
     1
 66
     0
277
    -2
287
     1
 67
     0
278
    -2
288
     1
 68
     0
279
    -2
289
     1
 69
     0
  7
Standard
140
6.0
170
     5
 62
     0
 63
   257
283
     0
 90
        4
 91
        0
  1

274
    -2
284
     1
 64
     0
275
    -2
285
     1
 65
     0
276
    -2
286
     1
 66
     0
277
    -2
287
     1
 67
     0
278
    -2
288
     1
 68
     0
279
    -2
289
     1
 69
     0
  7
Standard
140
4.5
170
     5
 62
     0
 63
   257
283
     0
 90
        4
 91
        0
  1

274
    -2
284
     1
 64
     0
275
    -2
285
     1
 65
     0
276
    -2
286
     1
 66
     0
277
    -2
287
     1
 67
     0
278
    -2
288
     1
 68
     0
279
    -2
289
     1
 69
     0
  0
VISUALSTYLE
  5
2F
102
{ACAD_REACTORS
330
2A
102
}
330
2A
100
AcDbVisualStyle
  2
2dWireframe
 70
     4
177
     3
291
     0
 70
    58
 90
        0
176
     1
 90
        2
176
     1
 90
        0
176
     1
 90
        0
176
     1
 40
0.6
176
     1
 40
30.0
176
     1
 62
     7
420
 16777215
176
     1
 90
        1
176
     1
 90
        4
176
     1
 62
     7
176
     1
 62
   257
176
     1
 90
        1
176
     1
 90
        1
176
     1
 40
1.0
176
     1
 90
        0
176
     1
 62
   257
176
     1
 40
1.0
176
     1
 90
        1
176
     1
 90
        6
176
     1
 90
        2
176
     1
 62
     7
176
     1
 90
        5
176
     1
 90
        0
176
     1
 90
        0
176
     1
290
     0
176
     1
 90
        1
176
     1
 40
0.0
176
     1
 90
        0
176
     1
290
     1
176
     1
290
     1
176
     1
290
     0
176
     1
290
     0
176
     1
290
     0
176
     1
290
     0
176
     1
290
     0
176
     1
290
     0
176
     1
290
     0
176
     1
 90
       50
176
     1
 40
0.0
176
     1
 40
1.0
176
     1
 90
        0
176
     1
 62
    18
420
        0
176
     1
 90
       50
176
     1
 90
        3
176
     1
 62
     5
420
      255
176
     1
290
     0
176
     1
 90
       50
176
     1
 90
       50
176
     1
 90
       50
176
     1
290
     0
176
     1
 90
       50
176
     1
 62
   256
176
     0
 40
1.0
176
     0
 90
        2
176
     1
  1
strokes_ogs.tif
176
     1
290
     0
176
     1
 40
1.0
176
     1
 40
1.0
176
     1
  0
VISUALSTYLE
  5
32
102
{ACAD_REACTORS
330
2A
102
}
330
2A
100
AcDbVisualStyle
  2
Basic
 70
     7
177
     3
291
     1
 70
    58
 90
        1
176
     1
 90
        0
176
     1
 90
        1
176
     1
 90
        0
176
     1
 40
0.6
176
     1
 40
30.0
176
     1
 62
     7
420
 16777215
176
     1
 90
        0
176
     1
 90
        4
176
     1
 62
     7
176
     1
 62
   257
176
     1
 90
        1
176
     1
 90
        1
176
     1
 40
1.0
176
     1
 90
        8
176
     1
 62
     7
176
     1
 40
1.0
176
     1
 90
        1
176
     1
 90
        6
176
     1
 90
        2
176
     1
 62
     7
176
     1
 90
        5
176
     1
 90
        0
176
     1
 90
        0
176
     1
290
     0
176
     1
 90
        1
176
     1
 40
0.0
176
     1
 90
        0
176
     1
290
     0
176
     1
290
     1
176
     1
290
     1
176
     1
290
     0
176
     1
290
     0
176
     1
290
     0
176
     1
290
     0
176
     1
290
     0
176
     1
290
     0
176
     1
 90
       50
176
     1
 40
0.0
176
     1
 40
1.0
176
     1
 90
        0
176
     1
 62
    18
420
        0
176
     1
 90
       50
176
     1
 90
        3
176
     1
 62
     5
420
      255
176
     1
290
     0
176
     1
 90
       50
176
     1
 90
       50
176
     1
 90
       50
176
     1
290
     0
176
     1
 90
       50
176
     1
 62
   256
176
     0
 40
1.0
176
     0
 90
        2
176
     1
  1
strokes_ogs.tif
176
     1
290
     0
176
     1
 40
1.0
176
     1
 40
1.0
176
     1
  0
VISUALSTYLE
  5
36
102
{ACAD_REACTORS
330
2A
102
}
330
2A
100
AcDbVisualStyle
  2
Brighten
 70
    12
177
     3
291
     1
 70
    58
 90
        2
176
     1
 90
        2
176
     1
 90
        0
176
     1
 90
        0
176
     1
 40
0.6
176
     1
 40
30.0
176
     1
 62
     7
420
 16777215
176
     1
 90
        1
176
     1
 90
        4
176
     1
 62
     7
176
     1
 62
   257
176
     1
 90
        1
176
     1
 90
        1
176
     1
 40
1.0
176
     1
 90
        8
176
     1
 62
     7
176
     1
 40
1.0
176
     1
 90
        1
176
     1
 90
        6
176
     1
 90
        2
176
     1
 62
     7
176
     1
 90
        5
176
     1
 90
        0
176
     1
 90
        0
176
     1
290
     0
176
     1
 90
        1
176
     1
 40
50.0
176
     1
 90
        0
176
     1
290
     0
176
     1
290
     1
176
     1
290
     1
176
     1
290
     0
176
     1
290
     0
176
     1
290
     0
176
     1
290
     0
176
     1
290
     0
176
     1
290
     0
176
     1
 90
       50
176
     1
 40
0.0
176
     1
 40
1.0
176
     1
 90
        0
176
     1
 62
    18
420
        0
176
     1
 90
       50
176
     1
 90
        3
176
     1
 62
     5
420
      255
176
     1
290
     0
176
     1
 90
       50
176
     1
 90
       50
176
     1
 90
       50
176
     1
290
     0
176
     1
 90
       50
176
     1
 62
   256
176
     0
 40
1.0
176
     0
 90
        2
176
     1
  1
strokes_ogs.tif
176
     1
290
     0
176
     1
 40
1.0
176
     1
 40
1.0
176
     1
  0
VISUALSTYLE
  5
3A
102
{ACAD_REACTORS
330
2A
102
}
330
2A
100
AcDbVisualStyle
  2
ColorChange
 70
    16
177
     3
291
     1
 70
    58
 90
        2
176
     1
 90
        2
176
     1
 90
        3
176
     1
 90
        0
176
     1
 40
0.6
176
     1
 40
30.0
176
     1
 62
     8
420
  8421504
176
     1
 90
        1
176
     1
 90
        4
176
     1
 62
     7
176
     1
 62
   257
176
     1
 90
        1
176
     1
 90
        1
176
     1
 40
1.0
176
     1
 90
        8
176
     1
 62
     8
420
  8421504
176
     1
 40
1.0
176
     1
 90
        1
176
     1
 90
        6
176
     1
 90
        2
176
     1
 62
     7
176
     1
 90
        5
176
     1
 90
        0
176
     1
 90
        0
176
     1
290
     0
176
     1
 90
        1
176
     1
 40
0.0
176
     1
 90
        0
176
     1
290
     0
176
     1
290
     1
176
     1
290
     1
176
     1
290
     0
176
     1
290
     0
176
     1
290
     0
176
     1
290
     0
176
     1
290
     0
176
     1
290
     0
176
     1
 90
       50
176
     1
 40
0.0
176
     1
 40
1.0
176
     1
 90
        0
176
     1
 62
    18
420
        0
176
     1
 90
       50
176
     1
 90
        3
176
     1
 62
     5
420
      255
176
     1
290
     0
176
     1
 90
       50
176
     1
 90
       50
176
     1
 90
       50
176
     1
290
     0
176
     1
 90
       50
176
     1
 62
   256
176
     0
 40
1.0
176
     0
 90
        2
176
     1
  1
strokes_ogs.tif
176
     1
290
     0
176
     1
 40
1.0
176
     1
 40
1.0
176
     1
  0
VISUALSTYLE
  5
34
102
{ACAD_REACTORS
330
2A
102
}
330
2A
100
AcDbVisualStyle
  2
Conceptual
 70
     9
177
     3
291
     0
 70
    58
 90
        3
176
     1
 90
        2
176
     1
 90
        0
176
     1
 90
        0
176
     1
 40
0.6
176
     1
 40
30.0
176
     1
 62
     7
420
 16777215
176
     1
 90
        2
176
     1
 90
        2
176
     1
 62
     7
176
     1
 62
   257
176
     1
 90
        1
176
     1
 90
        1
176
     1
 40
179.0
176
     1
 90
        8
176
     1
 62
     7
176
     1
 40
1.0
176
     1
 90
        1
176
     1
 90
        6
176
     1
 90
        2
176
     1
 62
     7
176
     1
 90
        3
176
     1
 90
        0
176
     1
 90
        0
176
     1
290
     0
176
     1
 90
        1
176
     1
 40
0.0
176
     1
 90
        0
176
     1
290
     0
176
     1
290
     1
176
     1
290
     1
176
     1
290
     0
176
     1
290
     0
176
     1
290
     0
176
     1
290
     0
176
     1
290
     0
176
     1
290
     0
176
     1
 90
       50
176
     1
 40
0.0
176
     1
 40
1.0
176
     1
 90
        0
176
     1
 62
    18
420
        0
176
     1
 90
       50
176
     1
 90
        3
176
     1
 62
     5
420
      255
176
     1
290
     0
176
     1
 90
       50
176
     1
 90
       50
176
     1
 90
       50
176
     1
290
     0
176
     1
 90
       50
176
     1
 62
   256
176
     0
 40
1.0
176
     0
 90
        2
176
     1
  1
strokes_ogs.tif
176
     1
290
     0
176
     1
 40
1.0
176
     1
 40
1.0
176
     1
  0
VISUALSTYLE
  5
35
102
{ACAD_REACTORS
330
2A
102
}
330
2A
100
AcDbVisualStyle
  2
Dim
 70
    11
177
     3
291
     1
 70
    58
 90
        2
176
     1
 90
        2
176
     1
 90
        0
176
     1
 90
        0
176
     1
 40
0.6
176
     1
 40
30.0
176
     1
 62
     7
420
 16777215
176
     1
 90
        1
176
     1
 90
        4
176
     1
 62
     7
176
     1
 62
   257
176
     1
 90
        1
176
     1
 90
        1
176
     1
 40
1.0
176
     1
 90
        8
176
     1
 62
     7
176
     1
 40
1.0
176
     1
 90
        1
176
     1
 90
        6
176
     1
 90
        2
176
     1
 62
     7
176
     1
 90
        5
176
     1
 90
        0
176
     1
 90
        0
176
     1
290
     0
176
     1
 90
        1
176
     1
 40
-50.0
176
     1
 90
        0
176
     1
290
     0
176
     1
290
     1
176
     1
290
     1
176
     1
290
     0
176
     1
290
     0
176
     1
290
     0
176
     1
290
     0
176
     1
290
     0
176
     1
290
     0
176
     1
 90
       50
176
     1
 40
0.0
176
     1
 40
1.0
176
     1
 90
        0
176
     1
 62
    18
420
        0
176
     1
 90
       50
176
     1
 90
        3
176
     1
 62
     5
420
      255
176
     1
290
     0
176
     1
 90
       50
176
     1
 90
       50
176
     1
 90
       50
176
     1
290
     0
176
     1
 90
       50
176
     1
 62
   256
176
     0
 40
1.0
176
     0
 90
        2
176
     1
  1
strokes_ogs.tif
176
     1
290
     0
176
     1
 40
1.0
176
     1
 40
1.0
176
     1
  0
VISUALSTYLE
  5
3D
102
{ACAD_REACTORS
330
2A
102
}
330
2A
100
AcDbVisualStyle
  2
EdgeColorOff
 70
    22
177
     3
291
     1
 70
    58
 90
        2
176
     0
 90
        2
176
     0
 90
        0
176
     0
 90
        0
176
     0
 40
0.6
176
     0
 40
30.0
176
     0
 62
     7
420
 16777215
176
     0
 90
        1
176
     0
 90
        4
176
     0
 62
     7
176
     0
 62
   257
176
     0
 90
        1
176
     0
 90
        1
176
     0
 40
1.0
176
     0
 90
        8
176
     2
 62
     7
176
     0
 40
1.0
176
     0
 90
        1
176
     0
 90
        6
176
     0
 90
        2
176
     0
 62
     7
176
     0
 90
        5
176
     0
 90
        0
176
     0
 90
        0
176
     0
290
     0
176
     0
 90
        1
176
     0
 40
0.0
176
     0
 90
        0
176
     0
290
     0
176
     0
290
     1
176
     0
290
     1
176
     0
290
     0
176
     0
290
     0
176
     0
290
     0
176
     0
290
     0
176
     0
290
     0
176
     0
290
     0
176
     0
 90
       50
176
     0
 40
0.0
176
     0
 40
1.0
176
     0
 90
        0
176
     0
 62
    18
420
        0
176
     0
 90
       50
176
     0
 90
        3
176
     0
 62
     5
420
      255
176
     0
290
     0
176
     0
 90
       50
176
     0
 90
       50
176
     0
 90
       50
176
     0
290
     0
176
     0
 90
       50
176
     0
 62
   256
176
     0
 40
1.0
176
     0
 90
        2
176
     0
  1
strokes_ogs.tif
176
     0
290
     0
176
     0
 40
1.0
176
     0
 40
1.0
176
     0
  0
VISUALSTYLE
  5
39
102
{ACAD_REACTORS
330
2A
102
}
330
2A
100
AcDbVisualStyle
  2
Facepattern
 70
    15
177
     3
291
     1
 70
    58
 90
        2
176
     1
 90
        2
176
     1
 90
        0
176
     1
 90
        0
176
     1
 40
0.6
176
     1
 40
30.0
176
     1
 62
     7
420
 16777215
176
     1
 90
        1
176
     1
 90
        4
176
     1
 62
     7
176
     1
 62
   257
176
     1
 90
        1
176
     1
 90
        1
176
     1
 40
1.0
176
     1
 90
        8
176
     1
 62
     7
176
     1
 40
1.0
176
     1
 90
        1
176
     1
 90
        6
176
     1
 90
        2
176
     1
 62
     7
176
     1
 90
        5
176
     1
 90
        0
176
     1
 90
        0
176
     1
290
     0
176
     1
 90
        1
176
     1
 40
0.0
176
     1
 90
        0
176
     1
290
     0
176
     1
290
     1
176
     1
290
     1
176
     1
290
     0
176
     1
290
     0
176
     1
290
     0
176
     1
290
     0
176
     1
290
     0
176
     1
290
     0
176
     1
 90
       50
176
     1
 40
0.0
176
     1
 40
1.0
176
     1
 90
        0
176
     1
 62
    18
420
        0
176
     1
 90
       50
176
     1
 90
        3
176
     1
 62
     5
420
      255
176
     1
290
     0
176
     1
 90
       50
176
     1
 90
       50
176
     1
 90
       50
176
     1
290
     0
176
     1
 90
       50
176
     1
 62
   256
176
     0
 40
1.0
176
     0
 90
        2
176
     1
  1
strokes_ogs.tif
176
     1
290
     0
176
     1
 40
1.0
176
     1
 40
1.0
176
     1
  0
VISUALSTYLE
  5
2B
102
{ACAD_REACTORS
330
2A
102
}
330
2A
100
AcDbVisualStyle
  2
Flat
 70
     0
177
     3
291
     1
 70
    58
 90
        2
176
     1
 90
        1
176
     1
 90
        1
176
     1
 90
        2
176
     1
 40
0.6
176
     1
 40
30.0
176
     1
 62
     7
420
 16777215
176
     1
 90
        0
176
     1
 90
        0
176
     1
 62
     7
176
     1
 62
   257
176
     1
 90
        1
176
     1
 90
        1
176
     1
 40
1.0
176
     1
 90
        8
176
     1
 62
     7
176
     1
 40
1.0
176
     1
 90
        1
176
     1
 90
        6
176
     1
 90
        2
176
     1
 62
     7
176
     1
 90
        5
176
     1
 90
        0
176
     1
 90
        0
176
     1
290
     0
176
     1
 90
       13
176
     1
 40
0.0
176
     1
 90
        0
176
     1
290
     0
176
     1
290
     1
176
     1
290
     1
176
     1
290
     0
176
     1
290
     0
176
     1
290
     0
176
     1
290
     0
176
     1
290
     0
176
     1
290
     0
176
     1
 90
       50
176
     1
 40
0.0
176
     1
 40
1.0
176
     1
 90
        0
176
     1
 62
    18
420
        0
176
     1
 90
       50
176
     1
 90
        3
176
     1
 62
     5
420
      255
176
     1
290
     0
176
     1
 90
       50
176
     1
 90
       50
176
     1
 90
       50
176
     1
290
     0
176
     1
 90
       50
176
     1
 62
   256
176
     0
 40
1.0
176
     0
 90
        2
176
     1
  1
strokes_ogs.tif
176
     1
290
     0
176
     1
 40
1.0
176
     1
 40
1.0
176
     1
  0
VISUALSTYLE
  5
2C
102
{ACAD_REACTORS
330
2A
102
}
330
2A
100
AcDbVisualStyle
  2
FlatWithEdges
 70
     1
177
     3
291
     1
 70
    58
 90
        2
176
     1
 90
        1
176
     1
 90
        1
176
     1
 90
        2
176
     1
 40
0.6
176
     1
 40
30.0
176
     1
 62
     7
420
 16777215
176
     1
 90
        1
176
     1
 90
        0
176
     1
 62
     7
176
     1
 62
   257
176
     1
 90
        1
176
     1
 90
        1
176
     1
 40
1.0
176
     1
 90
        0
176
     1
 62
   257
176
     1
 40
1.0
176
     1
 90
        1
176
     1
 90
        6
176
     1
 90
        2
176
     1
 62
     7
176
     1
 90
        5
176
     1
 90
        0
176
     1
 90
        0
176
     1
290
     0
176
     1
 90
       13
176
     1
 40
0.0
176
     1
 90
        0
176
     1
290
     0
176
     1
290
     1
176
     1
290
     1
176
     1
290
     0
176
     1
290
     0
176
     1
290
     0
176
     1
290
     0
176
     1
290
     0
176
     1
290
     0
176
     1
 90
       50
176
     1
 40
0.0
176
     1
 40
1.0
176
     1
 90
        0
176
     1
 62
    18
420
        0
176
     1
 90
       50
176
     1
 90
        3
176
     1
 62
     5
420
      255
176
     1
290
     0
176
     1
 90
       50
176
     1
 90
       50
176
     1
 90
       50
176
     1
290
     0
176
     1
 90
       50
176
     1
 62
   256
176
     0
 40
1.0
176
     0
 90
        2
176
     1
  1
strokes_ogs.tif
176
     1
290
     0
176
     1
 40
1.0
176
     1
 40
1.0
176
     1
  0
VISUALSTYLE
  5
2D
102
{ACAD_REACTORS
330
2A
102
}
330
2A
100
AcDbVisualStyle
  2
Gouraud
 70
     2
177
     3
291
     1
 70
    58
 90
        2
176
     1
 90
        2
176
     1
 90
        1
176
     1
 90
        2
176
     1
 40
0.6
176
     1
 40
30.0
176
     1
 62
     7
420
 16777215
176
     1
 90
        0
176
     1
 90
        0
176
     1
 62
     7
176
     1
 62
   257
176
     1
 90
        1
176
     1
 90
        1
176
     1
 40
1.0
176
     1
 90
        0
176
     1
 62
     7
176
     1
 40
1.0
176
     1
 90
        1
176
     1
 90
        6
176
     1
 90
        2
176
     1
 62
     7
176
     1
 90
        5
176
     1
 90
        0
176
     1
 90
        0
176
     1
290
     0
176
     1
 90
       13
176
     1
 40
0.0
176
     1
 90
        0
176
     1
290
     0
176
     1
290
     1
176
     1
290
     1
176
     1
290
     0
176
     1
290
     0
176
     1
290
     0
176
     1
290
     0
176
     1
290
     0
176
     1
290
     0
176
     1
 90
       50
176
     1
 40
0.0
176
     1
 40
1.0
176
     1
 90
        0
176
     1
 62
    18
420
        0
176
     1
 90
       50
176
     1
 90
        3
176
     1
 62
     5
420
      255
176
     1
290
     0
176
     1
 90
       50
176
     1
 90
       50
176
     1
 90
       50
176
     1
290
     0
176
     1
 90
       50
176
     1
 62
   256
176
     0
 40
1.0
176
     0
 90
        2
176
     1
  1
strokes_ogs.tif
176
     1
290
     0
176
     1
 40
1.0
176
     1
 40
1.0
176
     1
  0
VISUALSTYLE
  5
2E
102
{ACAD_REACTORS
330
2A
102
}
330
2A
100
AcDbVisualStyle
  2
GouraudWithEdges
 70
     3
177
     3
291
     1
 70
    58
 90
        2
176
     1
 90
        2
176
     1
 90
        1
176
     1
 90
        2
176
     1
 40
0.6
176
     1
 40
30.0
176
     1
 62
     7
420
 16777215
176
     1
 90
        1
176
     1
 90
        0
176
     1
 62
     7
176
     1
 62
   257
176
     1
 90
        1
176
     1
 90
        1
176
     1
 40
1.0
176
     1
 90
        0
176
     1
 62
   257
176
     1
 40
1.0
176
     1
 90
        1
176
     1
 90
        6
176
     1
 90
        2
176
     1
 62
     7
176
     1
 90
        5
176
     1
 90
        0
176
     1
 90
        0
176
     1
290
     0
176
     1
 90
       13
176
     1
 40
0.0
176
     1
 90
        0
176
     1
290
     0
176
     1
290
     1
176
     1
290
     1
176
     1
290
     0
176
     1
290
     0
176
     1
290
     0
176
     1
290
     0
176
     1
290
     0
176
     1
290
     0
176
     1
 90
       50
176
     1
 40
0.0
176
     1
 40
1.0
176
     1
 90
        0
176
     1
 62
    18
420
        0
176
     1
 90
       50
176
     1
 90
        3
176
     1
 62
     5
420
      255
176
     1
290
     0
176
     1
 90
       50
176
     1
 90
       50
176
     1
 90
       50
176
     1
290
     0
176
     1
 90
       50
176
     1
 62
   256
176
     0
 40
1.0
176
     0
 90
        2
176
     1
  1
strokes_ogs.tif
176
     1
290
     0
176
     1
 40
1.0
176
     1
 40
1.0
176
     1
  0
VISUALSTYLE
  5
31
102
{ACAD_REACTORS
330
2A
102
}
330
2A
100
AcDbVisualStyle
  2
Hidden
 70
     6
177
     3
291
     0
 70
    58
 90
        1
176
     1
 90
        2
176
     1
 90
        2
176
     1
 90
        0
176
     1
 40
0.6
176
     1
 40
30.0
176
     1
 62
     7
420
 16777215
176
     1
 90
        2
176
     1
 90
        2
176
     1
 62
     7
176
     1
 62
   257
176
     1
 90
        2
176
     1
 90
        1
176
     1
 40
40.0
176
     1
 90
        0
176
     1
 62
   257
176
     1
 40
1.0
176
     1
 90
        1
176
     1
 90
        6
176
     1
 90
        2
176
     1
 62
     7
176
     1
 90
        3
176
     1
 90
        0
176
     1
 90
        0
176
     1
290
     0
176
     1
 90
        1
176
     1
 40
0.0
176
     1
 90
        0
176
     1
290
     0
176
     1
290
     1
176
     1
290
     1
176
     1
290
     0
176
     1
290
     0
176
     1
290
     0
176
     1
290
     0
176
     1
290
     0
176
     1
290
     0
176
     1
 90
       50
176
     1
 40
0.0
176
     1
 40
1.0
176
     1
 90
        0
176
     1
 62
    18
420
        0
176
     1
 90
       50
176
     1
 90
        3
176
     1
 62
     5
420
      255
176
     1
290
     0
176
     1
 90
       50
176
     1
 90
       50
176
     1
 90
       50
176
     1
290
     0
176
     1
 90
       50
176
     1
 62
   256
176
     0
 40
1.0
176
     0
 90
        2
176
     1
  1
strokes_ogs.tif
176
     1
290
     0
176
     1
 40
1.0
176
     1
 40
1.0
176
     1
  0
VISUALSTYLE
  5
3B
102
{ACAD_REACTORS
330
2A
102
}
330
2A
100
AcDbVisualStyle
  2
JitterOff
 70
    20
177
     3
291
     1
 70
    58
 90
        2
176
     0
 90
        2
176
     0
 90
        0
176
     0
 90
        0
176
     0
 40
0.6
176
     0
 40
30.0
176
     0
 62
     7
420
 16777215
176
     0
 90
        1
176
     0
 90
        4
176
     0
 62
     7
176
     0
 62
   257
176
     0
 90
        1
176
     0
 90
        1
176
     0
 40
1.0
176
     0
 90
       10
176
     2
 62
     7
176
     0
 40
1.0
176
     0
 90
        1
176
     0
 90
        6
176
     0
 90
        2
176
     0
 62
     7
176
     0
 90
        5
176
     0
 90
        0
176
     0
 90
        0
176
     0
290
     0
176
     0
 90
        1
176
     0
 40
0.0
176
     0
 90
        0
176
     0
290
     0
176
     0
290
     1
176
     0
290
     1
176
     0
290
     0
176
     0
290
     0
176
     0
290
     0
176
     0
290
     0
176
     0
290
     0
176
     0
290
     0
176
     0
 90
       50
176
     0
 40
0.0
176
     0
 40
1.0
176
     0
 90
        0
176
     0
 62
    18
420
        0
176
     0
 90
       50
176
     0
 90
        3
176
     0
 62
     5
420
      255
176
     0
290
     0
176
     0
 90
       50
176
     0
 90
       50
176
     0
 90
       50
176
     0
290
     0
176
     0
 90
       50
176
     0
 62
   256
176
     0
 40
1.0
176
     0
 90
        2
176
     0
  1
strokes_ogs.tif
176
     0
290
     0
176
     0
 40
1.0
176
     0
 40
1.0
176
     0
  0
VISUALSTYLE
  5
38
102
{ACAD_REACTORS
330
2A
102
}
330
2A
100
AcDbVisualStyle
  2
Linepattern
 70
    14
177
     3
291
     1
 70
    58
 90
        2
176
     1
 90
        2
176
     1
 90
        0
176
     1
 90
        0
176
     1
 40
0.6
176
     1
 40
30.0
176
     1
 62
     7
420
 16777215
176
     1
 90
        1
176
     1
 90
        4
176
     1
 62
     7
176
     1
 62
   257
176
     1
 90
        7
176
     1
 90
        7
176
     1
 40
1.0
176
     1
 90
        8
176
     1
 62
     7
176
     1
 40
1.0
176
     1
 90
        1
176
     1
 90
        6
176
     1
 90
        2
176
     1
 62
     7
176
     1
 90
        5
176
     1
 90
        0
176
     1
 90
        0
176
     1
290
     0
176
     1
 90
        1
176
     1
 40
0.0
176
     1
 90
        0
176
     1
290
     0
176
     1
290
     1
176
     1
290
     1
176
     1
290
     0
176
     1
290
     0
176
     1
290
     0
176
     1
290
     0
176
     1
290
     0
176
     1
290
     0
176
     1
 90
       50
176
     1
 40
0.0
176
     1
 40
1.0
176
     1
 90
        0
176
     1
 62
    18
420
        0
176
     1
 90
       50
176
     1
 90
        3
176
     1
 62
     5
420
      255
176
     1
290
     0
176
     1
 90
       50
176
     1
 90
       50
176
     1
 90
       50
176
     1
290
     0
176
     1
 90
       50
176
     1
 62
   256
176
     0
 40
1.0
176
     0
 90
        2
176
     1
  1
strokes_ogs.tif
176
     1
290
     0
176
     1
 40
1.0
176
     1
 40
1.0
176
     1
  0
VISUALSTYLE
  5
3C
102
{ACAD_REACTORS
330
2A
102
}
330
2A
100
AcDbVisualStyle
  2
OverhangOff
 70
    21
177
     3
291
     1
 70
    58
 90
        2
176
     0
 90
        2
176
     0
 90
        0
176
     0
 90
        0
176
     0
 40
0.6
176
     0
 40
30.0
176
     0
 62
     7
420
 16777215
176
     0
 90
        1
176
     0
 90
        4
176
     0
 62
     7
176
     0
 62
   257
176
     0
 90
        1
176
     0
 90
        1
176
     0
 40
1.0
176
     0
 90
        9
176
     2
 62
     7
176
     0
 40
1.0
176
     0
 90
        1
176
     0
 90
        6
176
     0
 90
        2
176
     0
 62
     7
176
     0
 90
        5
176
     0
 90
        0
176
     0
 90
        0
176
     0
290
     0
176
     0
 90
        1
176
     0
 40
0.0
176
     0
 90
        0
176
     0
290
     0
176
     0
290
     1
176
     0
290
     1
176
     0
290
     0
176
     0
290
     0
176
     0
290
     0
176
     0
290
     0
176
     0
290
     0
176
     0
290
     0
176
     0
 90
       50
176
     0
 40
0.0
176
     0
 40
1.0
176
     0
 90
        0
176
     0
 62
    18
420
        0
176
     0
 90
       50
176
     0
 90
        3
176
     0
 62
     5
420
      255
176
     0
290
     0
176
     0
 90
       50
176
     0
 90
       50
176
     0
 90
       50
176
     0
290
     0
176
     0
 90
       50
176
     0
 62
   256
176
     0
 40
1.0
176
     0
 90
        2
176
     0
  1
strokes_ogs.tif
176
     0
290
     0
176
     0
 40
1.0
176
     0
 40
1.0
176
     0
  0
VISUALSTYLE
  5
33
102
{ACAD_REACTORS
330
2A
102
}
330
2A
100
AcDbVisualStyle
  2
Realistic
 70
     8
177
     3
291
     0
 70
    58
 90
        2
176
     1
 90
        3
176
     1
 90
        0
176
     1
 90
        2
176
     1
 40
0.6
176
     1
 40
30.0
176
     1
 62
     7
420
 16777215
176
     1
 90
        0
176
     1
 90
        0
176
     1
 62
     7
176
     1
 62
   257
176
     1
 90
        1
176
     1
 90
        1
176
     1
 40
1.0
176
     1
 90
        8
176
     1
 62
   257
176
     1
 40
1.0
176
     1
 90
        1
176
     1
 90
        6
176
     1
 90
        2
176
     1
 62
     7
176
     1
 90
        3
176
     1
 90
        0
176
     1
 90
        0
176
     1
290
     0
176
     1
 90
       13
176
     1
 40
0.0
176
     1
 90
        0
176
     1
290
     0
176
     1
290
     1
176
     1
290
     1
176
     1
290
     0
176
     1
290
     0
176
     1
290
     0
176
     1
290
     0
176
     1
290
     0
176
     1
290
     0
176
     1
 90
       50
176
     1
 40
0.0
176
     1
 40
1.0
176
     1
 90
        0
176
     1
 62
    18
420
        0
176
     1
 90
       50
176
     1
 90
        3
176
     1
 62
     5
420
      255
176
     1
290
     0
176
     1
 90
       50
176
     1
 90
       50
176
     1
 90
       50
176
     1
290
     0
176
     1
 90
       50
176
     1
 62
   256
176
     0
 40
1.0
176
     0
 90
        2
176
     1
  1
strokes_ogs.tif
176
     1
290
     0
176
     1
 40
1.0
176
     1
 40
1.0
176
     1
  0
VISUALSTYLE
  5
42
102
{ACAD_REACTORS
330
2A
102
}
330
2A
100
AcDbVisualStyle
  2
Shaded
 70
    27
177
     3
291
     0
 70
    58
 90
        2
176
     1
 90
        2
176
     1
 90
        1
176
     1
 90
        2
176
     1
 40
0.6
176
     1
 40
30.0
176
     1
 62
     7
420
 16777215
176
     1
 90
        0
176
     1
 90
        4
176
     1
 62
     7
176
     1
 62
   257
176
     1
 90
        1
176
     1
 90
        1
176
     1
 40
1.0
176
     1
 90
        8
176
     1
 62
   257
176
     1
 40
1.0
176
     1
 90
        1
176
     1
 90
        6
176
     1
 90
        2
176
     1
 62
     8
420
  7895160
176
     1
 90
        3
176
     1
 90
        0
176
     1
 90
        0
176
     1
290
     0
176
     1
 90
        5
176
     1
 40
0.0
176
     1
 90
        0
176
     1
290
     0
176
     1
290
     1
176
     1
290
     1
176
     1
290
     0
176
     1
290
     0
176
     1
290
     0
176
     1
290
     0
176
     1
290
     0
176
     1
290
     0
176
     1
 90
       50
176
     1
 40
0.0
176
     1
 40
1.0
176
     1
 90
        0
176
     1
 62
    18
420
        0
176
     1
 90
       50
176
     1
 90
        3
176
     1
 62
     5
420
      255
176
     1
290
     0
176
     1
 90
       50
176
     1
 90
       50
176
     1
 90
       50
176
     1
290
     0
176
     1
 90
       50
176
     1
 62
   256
176
     0
 40
1.0
176
     0
 90
        2
176
     1
  1
strokes_ogs.tif
176
     1
290
     0
176
     1
 40
1.0
176
     1
 40
1.0
176
     1
  0
VISUALSTYLE
  5
41
102
{ACAD_REACTORS
330
2A
102
}
330
2A
100
AcDbVisualStyle
  2
Shaded with edges
 70
    26
177
     3
291
     0
 70
    58
 90
        2
176
     1
 90
        2
176
     1
 90
        1
176
     1
 90
        2
176
     1
 40
0.6
176
     1
 40
30.0
176
     1
 62
     7
420
 16777215
176
     1
 90
        1
176
     1
 90
       10
176
     1
 62
     7
176
     1
 62
   257
176
     1
 90
        2
176
     1
 90
        1
176
     1
 40
1.0
176
     1
 90
        8
176
     1
 62
   257
176
     1
 40
1.0
176
     1
 90
        1
176
     1
 90
        6
176
     1
 90
        2
176
     1
 62
     7
176
     1
 90
        3
176
     1
 90
        0
176
     1
 90
        0
176
     1
290
     0
176
     1
 90
        5
176
     1
 40
0.0
176
     1
 90
        0
176
     1
290
     0
176
     1
290
     1
176
     1
290
     1
176
     1
290
     0
176
     1
290
     0
176
     1
290
     0
176
     1
290
     0
176
     1
290
     0
176
     1
290
     0
176
     1
 90
       50
176
     1
 40
0.0
176
     1
 40
1.0
176
     1
 90
        0
176
     1
 62
    18
420
        0
176
     1
 90
       50
176
     1
 90
        3
176
     1
 62
     5
420
      255
176
     1
290
     0
176
     1
 90
       50
176
     1
 90
       50
176
     1
 90
       50
176
     1
290
     0
176
     1
 90
       50
176
     1
 62
   256
176
     0
 40
1.0
176
     0
 90
        2
176
     1
  1
strokes_ogs.tif
176
     1
290
     0
176
     1
 40
1.0
176
     1
 40
1.0
176
     1
  0
VISUALSTYLE
  5
3E
102
{ACAD_REACTORS
330
2A
102
}
330
2A
100
AcDbVisualStyle
  2
Shades of Gray
 70
    23
177
     3
291
     0
 70
    58
 90
        2
176
     1
 90
        2
176
     1
 90
        3
176
     1
 90
        0
176
     1
 40
0.6
176
     1
 40
30.0
176
     1
 62
     7
420
 16777215
176
     1
 90
        2
176
     1
 90
        2
176
     1
 62
     7
176
     1
 62
     7
176
     1
 90
        1
176
     1
 90
        1
176
     1
 40
40.0
176
     1
 90
        8
176
     1
 62
     7
176
     1
 40
1.0
176
     1
 90
        1
176
     1
 90
        6
176
     1
 90
        2
176
     1
 62
     7
176
     1
 90
        3
176
     1
 90
        0
176
     1
 90
        0
176
     1
290
     0
176
     1
 90
        1
176
     1
 40
0.0
176
     1
 90
        0
176
     1
290
     0
176
     1
290
     1
176
     1
290
     1
176
     1
290
     0
176
     1
290
     0
176
     1
290
     0
176
     1
290
     0
176
     1
290
     0
176
     1
290
     0
176
     1
 90
       50
176
     1
 40
0.0
176
     1
 40
1.0
176
     1
 90
        0
176
     1
 62
    18
420
        0
176
     1
 90
       50
176
     1
 90
        3
176
     1
 62
     5
420
      255
176
     1
290
     0
176
     1
 90
       50
176
     1
 90
       50
176
     1
 90
       50
176
     1
290
     0
176
     1
 90
       50
176
     1
 62
   256
176
     0
 40
1.0
176
     0
 90
        2
176
     1
  1
strokes_ogs.tif
176
     1
290
     0
176
     1
 40
1.0
176
     1
 40
1.0
176
     1
  0
VISUALSTYLE
  5
3F
102
{ACAD_REACTORS
330
2A
102
}
330
2A
100
AcDbVisualStyle
  2
Sketchy
 70
    24
177
     3
291
     0
 70
    58
 90
        1
176
     1
 90
        2
176
     1
 90
        2
176
     1
 90
        0
176
     1
 40
0.6
176
     1
 40
30.0
176
     1
 62
     7
420
 16777215
176
     1
 90
        2
176
     1
 90
        2
176
     1
 62
     7
176
     1
 62
     7
176
     1
 90
        1
176
     1
 90
        1
176
     1
 40
40.0
176
     1
 90
       11
176
     1
 62
     7
176
     1
 40
1.0
176
     1
 90
        1
176
     1
 90
        6
176
     1
 90
        2
176
     1
 62
     7
176
     1
 90
        6
176
     1
 90
        0
176
     1
 90
        0
176
     1
290
     0
176
     1
 90
        1
176
     1
 40
0.0
176
     1
 90
        0
176
     1
290
     0
176
     1
290
     1
176
     1
290
     1
176
     1
290
     0
176
     1
290
     0
176
     1
290
     0
176
     1
290
     0
176
     1
290
     0
176
     1
290
     0
176
     1
 90
       50
176
     1
 40
0.0
176
     1
 40
1.0
176
     1
 90
        0
176
     1
 62
    18
420
        0
176
     1
 90
       50
176
     1
 90
        3
176
     1
 62
     5
420
      255
176
     1
290
     0
176
     1
 90
       50
176
     1
 90
       50
176
     1
 90
       50
176
     1
290
     0
176
     1
 90
       50
176
     1
 62
   256
176
     0
 40
1.0
176
     0
 90
        2
176
     1
  1
strokes_ogs.tif
176
     1
290
     0
176
     1
 40
1.0
176
     1
 40
1.0
176
     1
  0
VISUALSTYLE
  5
37
102
{ACAD_REACTORS
330
2A
102
}
330
2A
100
AcDbVisualStyle
  2
Thicken
 70
    13
177
     3
291
     1
 70
    58
 90
        2
176
     1
 90
        2
176
     1
 90
        0
176
     1
 90
        0
176
     1
 40
0.6
176
     1
 40
30.0
176
     1
 62
     7
420
 16777215
176
     1
 90
        1
176
     1
 90
        4
176
     1
 62
     7
176
     1
 62
   257
176
     1
 90
        1
176
     1
 90
        1
176
     1
 40
1.0
176
     1
 90
       12
176
     1
 62
     7
176
     1
 40
1.0
176
     1
 90
        1
176
     1
 90
        6
176
     1
 90
        2
176
     1
 62
     7
176
     1
 90
        5
176
     1
 90
        0
176
     1
 90
        0
176
     1
290
     0
176
     1
 90
        1
176
     1
 40
0.0
176
     1
 90
        0
176
     1
290
     0
176
     1
290
     1
176
     1
290
     1
176
     1
290
     0
176
     1
290
     0
176
     1
290
     0
176
     1
290
     0
176
     1
290
     0
176
     1
290
     0
176
     1
 90
       50
176
     1
 40
0.0
176
     1
 40
1.0
176
     1
 90
        0
176
     1
 62
    18
420
        0
176
     1
 90
       50
176
     1
 90
        3
176
     1
 62
     5
420
      255
176
     1
290
     0
176
     1
 90
       50
176
     1
 90
       50
176
     1
 90
       50
176
     1
290
     0
176
     1
 90
       50
176
     1
 62
   256
176
     0
 40
1.0
176
     0
 90
        2
176
     1
  1
strokes_ogs.tif
176
     1
290
     0
176
     1
 40
1.0
176
     1
 40
1.0
176
     1
  0
VISUALSTYLE
  5
30
102
{ACAD_REACTORS
330
2A
102
}
330
2A
100
AcDbVisualStyle
  2
Wireframe
 70
     5
177
     3
291
     0
 70
    58
 90
        0
176
     1
 90
        2
176
     1
 90
        0
176
     1
 90
        0
176
     1
 40
0.6
176
     1
 40
30.0
176
     1
 62
     7
420
 16777215
176
     1
 90
        1
176
     1
 90
        4
176
     1
 62
     7
176
     1
 62
   257
176
     1
 90
        1
176
     1
 90
        1
176
     1
 40
1.0
176
     1
 90
        0
176
     1
 62
   257
176
     1
 40
1.0
176
     1
 90
        1
176
     1
 90
        6
176
     1
 90
        2
176
     1
 62
     7
176
     1
 90
        3
176
     1
 90
        0
176
     1
 90
        0
176
     1
290
     0
176
     1
 90
        1
176
     1
 40
0.0
176
     1
 90
        0
176
     1
290
     0
176
     1
290
     1
176
     1
290
     1
176
     1
290
     0
176
     1
290
     0
176
     1
290
     0
176
     1
290
     0
176
     1
290
     0
176
     1
290
     0
176
     1
 90
       50
176
     1
 40
0.0
176
     1
 40
1.0
176
     1
 90
        0
176
     1
 62
    18
420
        0
176
     1
 90
       50
176
     1
 90
        3
176
     1
 62
     5
420
      255
176
     1
290
     0
176
     1
 90
       50
176
     1
 90
       50
176
     1
 90
       50
176
     1
290
     0
176
     1
 90
       50
176
     1
 62
   256
176
     0
 40
1.0
176
     0
 90
        2
176
     1
  1
strokes_ogs.tif
176
     1
290
     0
176
     1
 40
1.0
176
     1
 40
1.0
176
     1
  0
VISUALSTYLE
  5
40
102
{ACAD_REACTORS
330
2A
102
}
330
2A
100
AcDbVisualStyle
  2
X-Ray
 70
    25
177
     3
291
     0
 70
    58
 90
        2
176
     1
 90
        2
176
     1
 90
        1
176
     1
 90
        1
176
     1
 40
0.5
176
     1
 40
30.0
176
     1
 62
     7
420
 16777215
176
     1
 90
        1
176
     1
 90
        0
176
     1
 62
     7
176
     1
 62
   257
176
     1
 90
        1
176
     1
 90
        1
176
     1
 40
1.0
176
     1
 90
        8
176
     1
 62
     7
176
     1
 40
1.0
176
     1
 90
        1
176
     1
 90
        6
176
     1
 90
        2
176
     1
 62
     7
176
     1
 90
        3
176
     1
 90
        0
176
     1
 90
        0
176
     1
290
     0
176
     1
 90
       13
176
     1
 40
0.0
176
     1
 90
        0
176
     1
290
     0
176
     1
290
     1
176
     1
290
     1
176
     1
290
     0
176
     1
290
     0
176
     1
290
     0
176
     1
290
     0
176
     1
290
     0
176
     1
290
     0
176
     1
 90
       50
176
     1
 40
0.0
176
     1
 40
1.0
176
     1
 90
        0
176
     1
 62
    18
420
        0
176
     1
 90
       50
176
     1
 90
        3
176
     1
 62
     5
420
      255
176
     1
290
     0
176
     1
 90
       50
176
     1
 90
       50
176
     1
 90
       50
176
     1
290
     0
176
     1
 90
       50
176
     1
 62
   256
176
     0
 40
1.0
176
     0
 90
        2
176
     1
  1
strokes_ogs.tif
176
     1
290
     0
176
     1
 40
1.0
176
     1
 40
1.0
176
     1
  0
DICTIONARYVAR
  5
1EC
102
{ACAD_REACTORS
330
1EB
102
}
330
1EB
100
DictionaryVariables
280
     0
  1
1:1
  0
DICTIONARYVAR
  5
1F4
102
{ACAD_REACTORS
330
1EB
102
}
330
1EB
100
DictionaryVariables
280
     0
  1
3.500000
  0
DICTIONARYVAR
  5
1F5
102
{ACAD_REACTORS
330
1EB
102
}
330
1EB
100
DictionaryVariables
280
     0
  1
acadiso.lin
  0
DICTIONARYVAR
  5
1F1
102
{ACAD_REACTORS
330
1EB
102
}
330
1EB
100
DictionaryVariables
280
     0
  1
Standard
  0
DICTIONARYVAR
  5
1F0
102
{ACAD_REACTORS
330
1EB
102
}
330
1EB
100
DictionaryVariables
280
     0
  1
Standard
  0
DICTIONARY
  5
1ED
330
5A
100
AcDbDictionary
280
     1
281
     1
  3
ACAD_ROUNDTRIP_2008_TABLESTYLE_CELLSTYLEMAP
360
1EE
  0
CELLSTYLEMAP
  5
1EE
102
{ACAD_REACTORS
330
1ED
102
}
330
1ED
100
AcDbCellStyleMap
 90
        3
300
CELLSTYLE
  1
TABLEFORMAT_BEGIN
 90
        5
170
     1
 91
        0
 92
    32768
 62
   257
 93
        1
300
CONTENTFORMAT
  1
CONTENTFORMAT_BEGIN
 90
        0
 91
        0
 92
        4
 93
        0
300

 40
0.0
140
1.0
 94
        5
 62
     0
340
11
144
6.0
309
CONTENTFORMAT_END
171
     1
301
MARGIN
  1
CELLMARGIN_BEGIN
 40
1.5
 40
1.5
 40
1.5
 40
1.5
 40
1.5
 40
1.5
309
CELLMARGIN_END
 94
        6
 95
        1
302
GRIDFORMAT
  1
GRIDFORMAT_BEGIN
 90
        0
 91
        1
 62
     0
 92
       -2
340
14
 93
        0
 40
0.045
309
GRIDFORMAT_END
 95
        2
302
GRIDFORMAT
  1
GRIDFORMAT_BEGIN
 90
        0
 91
        1
 62
     0
 92
       -2
340
14
 93
        0
 40
0.045
309
GRIDFORMAT_END
 95
        4
302
GRIDFORMAT
  1
GRIDFORMAT_BEGIN
 90
        0
 91
        1
 62
     0
 92
       -2
340
14
 93
        0
 40
0.045
309
GRIDFORMAT_END
 95
        8
302
GRIDFORMAT
  1
GRIDFORMAT_BEGIN
 90
        0
 91
        1
 62
     0
 92
       -2
340
14
 93
        0
 40
0.045
309
GRIDFORMAT_END
 95
       16
302
GRIDFORMAT
  1
GRIDFORMAT_BEGIN
 90
        0
 91
        1
 62
     0
 92
       -2
340
14
 93
        0
 40
0.045
309
GRIDFORMAT_END
 95
       32
302
GRIDFORMAT
  1
GRIDFORMAT_BEGIN
 90
        0
 91
        1
 62
     0
 92
       -2
340
14
 93
        0
 40
0.045
309
GRIDFORMAT_END
309
TABLEFORMAT_END
  1
CELLSTYLE_BEGIN
 90
        1
 91
        1
300
_TITLE
309
CELLSTYLE_END
300
CELLSTYLE
  1
TABLEFORMAT_BEGIN
 90
        5
170
     1
 91
        0
 92
        0
 62
   257
 93
        1
300
CONTENTFORMAT
  1
CONTENTFORMAT_BEGIN
 90
        0
 91
        0
 92
        4
 93
        0
300

 40
0.0
140
1.0
 94
        5
 62
     0
340
11
144
4.5
309
CONTENTFORMAT_END
171
     1
301
MARGIN
  1
CELLMARGIN_BEGIN
 40
1.5
 40
1.5
 40
1.5
 40
1.5
 40
1.5
 40
1.5
309
CELLMARGIN_END
 94
        6
 95
        1
302
GRIDFORMAT
  1
GRIDFORMAT_BEGIN
 90
        0
 91
        1
 62
     0
 92
       -2
340
14
 93
        0
 40
0.045
309
GRIDFORMAT_END
 95
        2
302
GRIDFORMAT
  1
GRIDFORMAT_BEGIN
 90
        0
 91
        1
 62
     0
 92
       -2
340
14
 93
        0
 40
0.045
309
GRIDFORMAT_END
 95
        4
302
GRIDFORMAT
  1
GRIDFORMAT_BEGIN
 90
        0
 91
        1
 62
     0
 92
       -2
340
14
 93
        0
 40
0.045
309
GRIDFORMAT_END
 95
        8
302
GRIDFORMAT
  1
GRIDFORMAT_BEGIN
 90
        0
 91
        1
 62
     0
 92
       -2
340
14
 93
        0
 40
0.045
309
GRIDFORMAT_END
 95
       16
302
GRIDFORMAT
  1
GRIDFORMAT_BEGIN
 90
        0
 91
        1
 62
     0
 92
       -2
340
14
 93
        0
 40
0.045
309
GRIDFORMAT_END
 95
       32
302
GRIDFORMAT
  1
GRIDFORMAT_BEGIN
 90
        0
 91
        1
 62
     0
 92
       -2
340
14
 93
        0
 40
0.045
309
GRIDFORMAT_END
309
TABLEFORMAT_END
  1
CELLSTYLE_BEGIN
 90
        2
 91
        1
300
_HEADER
309
CELLSTYLE_END
300
CELLSTYLE
  1
TABLEFORMAT_BEGIN
 90
        5
170
     1
 91
        0
 92
        0
 62
   257
 93
        1
300
CONTENTFORMAT
  1
CONTENTFORMAT_BEGIN
 90
        0
 91
        0
 92
        4
 93
        0
300

 40
0.0
140
1.0
 94
        2
 62
     0
340
11
144
4.5
309
CONTENTFORMAT_END
171
     1
301
MARGIN
  1
CELLMARGIN_BEGIN
 40
1.5
 40
1.5
 40
1.5
 40
1.5
 40
1.5
 40
1.5
309
CELLMARGIN_END
 94
        6
 95
        1
302
GRIDFORMAT
  1
GRIDFORMAT_BEGIN
 90
        0
 91
        1
 62
     0
 92
       -2
340
14
 93
        0
 40
0.045
309
GRIDFORMAT_END
 95
        2
302
GRIDFORMAT
  1
GRIDFORMAT_BEGIN
 90
        0
 91
        1
 62
     0
 92
       -2
340
14
 93
        0
 40
0.045
309
GRIDFORMAT_END
 95
        4
302
GRIDFORMAT
  1
GRIDFORMAT_BEGIN
 90
        0
 91
        1
 62
     0
 92
       -2
340
14
 93
        0
 40
0.045
309
GRIDFORMAT_END
 95
        8
302
GRIDFORMAT
  1
GRIDFORMAT_BEGIN
 90
        0
 91
        1
 62
     0
 92
       -2
340
14
 93
        0
 40
0.045
309
GRIDFORMAT_END
 95
       16
302
GRIDFORMAT
  1
GRIDFORMAT_BEGIN
 90
        0
 91
        1
 62
     0
 92
       -2
340
14
 93
        0
 40
0.045
309
GRIDFORMAT_END
 95
       32
302
GRIDFORMAT
  1
GRIDFORMAT_BEGIN
 90
        0
 91
        1
 62
     0
 92
       -2
340
14
 93
        0
 40
0.045
309
GRIDFORMAT_END
309
TABLEFORMAT_END
  1
CELLSTYLE_BEGIN
 90
        3
 91
        2
300
_DATA
309
CELLSTYLE_END
  0
ENDSEC
  0
EOF
