  0
SECTION
  2
HEADER
  9
$ACADVER
  1
AC1027
  9
$ACADMAINTVER
 70
   105
  9
$DWGCODEPAGE
  3
ANSI_1252
  9
$COMMENTS
  1
File was created by Cadenas
  9
$LASTSAVEDBY
  1
psService
  9
$CUSTOMPROPERTYTAG
  1
NB
  9
$CUSTOMPROPERTY
  1
RXV12AVJU9
  9
$CUSTOMPROPERTYTAG
  1
NN
  9
$CUSTOMPROPERTY
  1
(R32) Heat Pump Unit Vista Single Zone Outdoor Daikin RXV
  9
$CUSTOMPROPERTYTAG
  1
NT
  9
$CUSTOMPROPERTY
  1

  9
$CUSTOMPROPERTYTAG
  1
NBSYN
  9
$CUSTOMPROPERTY
  1
$PARTNUMBER.
  9
$CUSTOMPROPERTYTAG
  1
LINA
  9
$CUSTOMPROPERTY
  1
RXV12AVJU9
  9
$CUSTOMPROPERTYTAG
  1
CATALOG
  9
$CUSTOMPROPERTY
  1
Daikin
  9
$CUSTOMPROPERTYTAG
  1
PARTNUMBER
  9
$CUSTOMPROPERTY
  1
RXV12AVJU9
  9
$CUSTOMPROPERTYTAG
  1
DESCRIPTION
  9
$CUSTOMPROPERTY
  1
Single Zone Heat Pump Outdoor Unit
  9
$CUSTOMPROPERTYTAG
  1
OVERALL_DEPTH
  9
$CUSTOMPROPERTY
  1
11.18110
  9
$CUSTOMPROPERTYTAG
  1
OVERALL_HEIGHT
  9
$CUSTOMPROPERTY
  1
21.92913
  9
$CUSTOMPROPERTYTAG
  1
OVERALL_WIDTH
  9
$CUSTOMPROPERTY
  1
26.57480
  9
$CUSTOMPROPERTYTAG
  1
URL
  9
$CUSTOMPROPERTY
  1
https://daikincomfort.com/
  9
$CUSTOMPROPERTYTAG
  1
RFA_FAMILY
  9
$CUSTOMPROPERTY
  1
Download Revit Family (RFA)
  9
$CUSTOMPROPERTYTAG
  1
COMPANY
  9
$CUSTOMPROPERTY
  1
daikin
  9
$REQUIREDVERSIONS
160
                 0
  9
$INSBASE
 10
0.0
 20
0.0
 30
0.0
  9
$EXTMIN
 10
-320.831209999991
 20
0.0
 30
0.0
  9
$EXTMAX
 10
366.0856591525483
 20
557.5053257288796
 30
0.0
  9
$LIMMIN
 10
0.0
 20
0.0
  9
$LIMMAX
 10
420.0
 20
297.0
  9
$ORTHOMODE
 70
     0
  9
$REGENMODE
 70
     1
  9
$FILLMODE
 70
     1
  9
$QTEXTMODE
 70
     0
  9
$MIRRTEXT
 70
     1
  9
$LTSCALE
 40
1.0
  9
$ATTMODE
 70
     1
  9
$TEXTSIZE
 40
2.5
  9
$TRACEWID
 40
1.0
  9
$TEXTSTYLE
  7
Standard
  9
$CLAYER
  8
0
  9
$CELTYPE
  6
ByLayer
  9
$CECOLOR
 62
   256
  9
$CELTSCALE
 40
1.0
  9
$DISPSILH
 70
     0
  9
$DIMSCALE
 40
1.0
  9
$DIMASZ
 40
2.5
  9
$DIMEXO
 40
0.625
  9
$DIMDLI
 40
3.75
  9
$DIMRND
 40
0.0
  9
$DIMDLE
 40
0.0
  9
$DIMEXE
 40
1.25
  9
$DIMTP
 40
0.0
  9
$DIMTM
 40
0.0
  9
$DIMTXT
 40
2.5
  9
$DIMCEN
 40
2.5
  9
$DIMTSZ
 40
0.0
  9
$DIMTOL
 70
     0
  9
$DIMLIM
 70
     0
  9
$DIMTIH
 70
     0
  9
$DIMTOH
 70
     0
  9
$DIMSE1
 70
     0
  9
$DIMSE2
 70
     0
  9
$DIMTAD
 70
     1
  9
$DIMZIN
 70
     8
  9
$DIMBLK
  1

  9
$DIMASO
 70
     1
  9
$DIMSHO
 70
     1
  9
$DIMPOST
  1

  9
$DIMAPOST
  1

  9
$DIMALT
 70
     0
  9
$DIMALTD
 70
     3
  9
$DIMALTF
 40
0.03937007874016
  9
$DIMLFAC
 40
1.0
  9
$DIMTOFL
 70
     1
  9
$DIMTVP
 40
0.0
  9
$DIMTIX
 70
     0
  9
$DIMSOXD
 70
     0
  9
$DIMSAH
 70
     0
  9
$DIMBLK1
  1

  9
$DIMBLK2
  1

  9
$DIMSTYLE
  2
ISO-25
  9
$DIMCLRD
 70
     0
  9
$DIMCLRE
 70
     0
  9
$DIMCLRT
 70
     0
  9
$DIMTFAC
 40
1.0
  9
$DIMGAP
 40
0.625
  9
$DIMJUST
 70
     0
  9
$DIMSD1
 70
     0
  9
$DIMSD2
 70
     0
  9
$DIMTOLJ
 70
     0
  9
$DIMTZIN
 70
     8
  9
$DIMALTZ
 70
     0
  9
$DIMALTTZ
 70
     0
  9
$DIMUPT
 70
     0
  9
$DIMDEC
 70
     2
  9
$DIMTDEC
 70
     2
  9
$DIMALTU
 70
     2
  9
$DIMALTTD
 70
     3
  9
$DIMTXSTY
  7
Standard
  9
$DIMAUNIT
 70
     0
  9
$DIMADEC
 70
     0
  9
$DIMALTRND
 40
0.0
  9
$DIMAZIN
 70
     0
  9
$DIMDSEP
 70
    44
  9
$DIMATFIT
 70
     3
  9
$DIMFRAC
 70
     0
  9
$DIMLDRBLK
  1

  9
$DIMLUNIT
 70
     2
  9
$DIMLWD
 70
    -2
  9
$DIMLWE
 70
    -2
  9
$DIMTMOVE
 70
     0
  9
$DIMFXL
 40
1.0
  9
$DIMFXLON
 70
     0
  9
$DIMJOGANG
 40
0.7853981633974483
  9
$DIMTFILL
 70
     0
  9
$DIMTFILLCLR
 70
     0
  9
$DIMARCSYM
 70
     0
  9
$DIMLTYPE
  6

  9
$DIMLTEX1
  6

  9
$DIMLTEX2
  6

  9
$DIMTXTDIRECTION
 70
     0
  9
$LUNITS
 70
     2
  9
$LUPREC
 70
     4
  9
$SKETCHINC
 40
1.0
  9
$FILLETRAD
 40
0.0
  9
$AUNITS
 70
     0
  9
$AUPREC
 70
     0
  9
$MENU
  1
.
  9
$ELEVATION
 40
0.0
  9
$PELEVATION
 40
0.0
  9
$THICKNESS
 40
0.0
  9
$LIMCHECK
 70
     0
  9
$CHAMFERA
 40
0.0
  9
$CHAMFERB
 40
0.0
  9
$CHAMFERC
 40
0.0
  9
$CHAMFERD
 40
0.0
  9
$SKPOLY
 70
     0
  9
$TDCREATE
 40
2461257.705279804
  9
$TDUCREATE
 40
2461257.62194647
  9
$TDUPDATE
 40
2461257.705279804
  9
$TDUUPDATE
 40
2461257.62194647
  9
$TDINDWG
 40
0.0000000116
  9
$TDUSRTIMER
 40
0.0000000116
  9
$USRTIMER
 70
     1
  9
$ANGBASE
 50
0.0
  9
$ANGDIR
 70
     0
  9
$PDMODE
 70
     0
  9
$PDSIZE
 40
0.0
  9
$PLINEWID
 40
0.0
  9
$SPLFRAME
 70
     0
  9
$SPLINETYPE
 70
     6
  9
$SPLINESEGS
 70
     8
  9
$HANDSEED
  5
17F
  9
$SURFTAB1
 70
     6
  9
$SURFTAB2
 70
     6
  9
$SURFTYPE
 70
     6
  9
$SURFU
 70
     6
  9
$SURFV
 70
     6
  9
$UCSBASE
  2

  9
$UCSNAME
  2

  9
$UCSORG
 10
0.0
 20
0.0
 30
0.0
  9
$UCSXDIR
 10
1.0
 20
0.0
 30
0.0
  9
$UCSYDIR
 10
0.0
 20
1.0
 30
0.0
  9
$UCSORTHOREF
  2

  9
$UCSORTHOVIEW
 70
     0
  9
$UCSORGTOP
 10
0.0
 20
0.0
 30
0.0
  9
$UCSORGBOTTOM
 10
0.0
 20
0.0
 30
0.0
  9
$UCSORGLEFT
 10
0.0
 20
0.0
 30
0.0
  9
$UCSORGRIGHT
 10
0.0
 20
0.0
 30
0.0
  9
$UCSORGFRONT
 10
0.0
 20
0.0
 30
0.0
  9
$UCSORGBACK
 10
0.0
 20
0.0
 30
0.0
  9
$PUCSBASE
  2

  9
$PUCSNAME
  2

  9
$PUCSORG
 10
0.0
 20
0.0
 30
0.0
  9
$PUCSXDIR
 10
1.0
 20
0.0
 30
0.0
  9
$PUCSYDIR
 10
0.0
 20
1.0
 30
0.0
  9
$PUCSORTHOREF
  2

  9
$PUCSORTHOVIEW
 70
     0
  9
$PUCSORGTOP
 10
0.0
 20
0.0
 30
0.0
  9
$PUCSORGBOTTOM
 10
0.0
 20
0.0
 30
0.0
  9
$PUCSORGLEFT
 10
0.0
 20
0.0
 30
0.0
  9
$PUCSORGRIGHT
 10
0.0
 20
0.0
 30
0.0
  9
$PUCSORGFRONT
 10
0.0
 20
0.0
 30
0.0
  9
$PUCSORGBACK
 10
0.0
 20
0.0
 30
0.0
  9
$USERI1
 70
     0
  9
$USERI2
 70
     0
  9
$USERI3
 70
     0
  9
$USERI4
 70
     0
  9
$USERI5
 70
     0
  9
$USERR1
 40
0.0
  9
$USERR2
 40
0.0
  9
$USERR3
 40
0.0
  9
$USERR4
 40
0.0
  9
$USERR5
 40
0.0
  9
$WORLDVIEW
 70
     1
  9
$SHADEDGE
 70
     3
  9
$SHADEDIF
 70
    70
  9
$TILEMODE
 70
     1
  9
$MAXACTVP
 70
    64
  9
$PINSBASE
 10
0.0
 20
0.0
 30
0.0
  9
$PLIMCHECK
 70
     0
  9
$PEXTMIN
 10
1.000000000000000E+20
 20
1.000000000000000E+20
 30
1.000000000000000E+20
  9
$PEXTMAX
 10
-1.000000000000000E+20
 20
-1.000000000000000E+20
 30
-1.000000000000000E+20
  9
$PLIMMIN
 10
0.0
 20
0.0
  9
$PLIMMAX
 10
420.0
 20
297.0
  9
$UNITMODE
 70
     0
  9
$VISRETAIN
 70
     1
  9
$PLINEGEN
 70
     0
  9
$PSLTSCALE
 70
     1
  9
$TREEDEPTH
 70
  3020
  9
$CMLSTYLE
  2
Standard
  9
$CMLJUST
 70
     0
  9
$CMLSCALE
 40
20.0
  9
$PROXYGRAPHICS
 70
     1
  9
$MEASUREMENT
 70
     1
  9
$CELWEIGHT
370
    -1
  9
$ENDCAPS
280
     0
  9
$JOINSTYLE
280
     0
  9
$LWDISPLAY
290
     0
  9
$INSUNITS
 70
     4
  9
$HYPERLINKBASE
  1

  9
$STYLESHEET
  1

  9
$XEDIT
290
     1
  9
$CEPSNTYPE
380
     0
  9
$PSTYLEMODE
290
     1
  9
$FINGERPRINTGUID
  2
{f7181627-3ef7-4e96-92bd-b50ba362f725}
  9
$VERSIONGUID
  2
{FAEB1C32-E019-11D5-929B-00C0DF256EC4}
  9
$EXTNAMES
290
     1
  9
$PSVPSCALE
 40
0.0
  9
$OLESTARTUP
290
     0
  9
$SORTENTS
280
   127
  9
$INDEXCTL
280
     0
  9
$HIDETEXT
280
     1
  9
$XCLIPFRAME
280
     2
  9
$HALOGAP
280
     0
  9
$OBSCOLOR
 70
   257
  9
$OBSLTYPE
280
     0
  9
$INTERSECTIONDISPLAY
280
     0
  9
$INTERSECTIONCOLOR
 70
   257
  9
$DIMASSOC
280
     2
  9
$PROJECTNAME
  1

  9
$CAMERADISPLAY
290
     0
  9
$LENSLENGTH
 40
50.0
  9
$CAMERAHEIGHT
 40
0.0
  9
$STEPSPERSEC
 40
2.0
  9
$STEPSIZE
 40
6.0
  9
$3DDWFPREC
 40
2.0
  9
$PSOLWIDTH
 40
5.0
  9
$PSOLHEIGHT
 40
80.0
  9
$LOFTANG1
 40
1.570796326794897
  9
$LOFTANG2
 40
1.570796326794897
  9
$LOFTMAG1
 40
0.0
  9
$LOFTMAG2
 40
0.0
  9
$LOFTPARAM
 70
     7
  9
$LOFTNORMALS
280
     1
  9
$LATITUDE
 40
37.795
  9
$LONGITUDE
 40
-122.394
  9
$NORTHDIRECTION
 40
0.0
  9
$TIMEZONE
 70
 -8000
  9
$LIGHTGLYPHDISPLAY
280
     1
  9
$TILEMODELIGHTSYNCH
280
     1
  9
$CMATERIAL
347
44
  9
$SOLIDHIST
280
     0
  9
$SHOWHIST
280
     1
  9
$DWFFRAME
280
     2
  9
$DGNFRAME
280
     2
  9
$REALWORLDSCALE
290
     1
  9
$INTERFERECOLOR
 62
   256
  9
$CSHADOW
280
     0
  9
$SHADOWPLANELOCATION
 40
0.0
  0
ENDSEC
  0
SECTION
  2
CLASSES
  0
CLASS
  1
ACDBDICTIONARYWDFLT
  2
AcDbDictionaryWithDefault
  3
ObjectDBX Classes
 90
        0
 91
        3
280
     0
281
     0
  0
CLASS
  1
VISUALSTYLE
  2
AcDbVisualStyle
  3
ObjectDBX Classes
 90
     4095
 91
        3
280
     0
281
     0
  0
CLASS
  1
MATERIAL
  2
AcDbMaterial
  3
ObjectDBX Classes
 90
     1153
 91
        3
280
     0
281
     0
  0
CLASS
  1
SCALE
  2
AcDbScale
  3
ObjectDBX Classes
 90
     1153
 91
        3
280
     0
281
     0
  0
CLASS
  1
TABLESTYLE
  2
AcDbTableStyle
  3
ObjectDBX Classes
 90
     4095
 91
        3
280
     0
281
     0
  0
CLASS
  1
MLEADERSTYLE
  2
AcDbMLeaderStyle
  3
ACDB_MLEADERSTYLE_CLASS
 90
     4095
 91
        3
280
     0
281
     0
  0
CLASS
  1
SUN
  2
AcDbSun
  3
SCENEOE
 90
     1153
 91
        3
280
     0
281
     0
  0
CLASS
  1
DICTIONARYVAR
  2
AcDbDictionaryVar
  3
ObjectDBX Classes
 90
        0
 91
        3
280
     0
281
     0
  0
CLASS
  1
CELLSTYLEMAP
  2
AcDbCellStyleMap
  3
ObjectDBX Classes
 90
     1152
 91
        3
280
     0
281
     0
  0
ENDSEC
  0
SECTION
  2
TABLES
  0
TABLE
  2
VPORT
  5
8
330
0
100
AcDbSymbolTable
 70
     1
  0
VPORT
  5
29
330
8
100
AcDbSymbolTableRecord
100
AcDbViewportTableRecord
  2
*Active
 70
     0
 10
0.0
 20
0.0
 11
1.0
 21
1.0
 12
22.6689194915329
 22
278.8016459152873
 13
0.0
 23
0.0
 14
10.0
 24
10.0
 15
10.0
 25
10.0
 16
0.0
 26
0.0
 36
1.0
 17
0.0
 27
0.0
 37
0.0
 40
568.7553576671861
 41
1.232059188043298
 42
50.0
 43
0.0
 44
0.0
 50
0.0
 51
0.0
 71
     0
 72
   100
 73
     1
 74
     3
 75
     0
 76
     0
 77
     0
 78
     0
281
     0
 65
     1
110
0.0
120
0.0
130
0.0
111
1.0
121
0.0
131
0.0
112
0.0
122
1.0
132
0.0
 79
     0
146
0.0
348
2F
 60
     3
 61
     5
292
     1
282
     1
141
0.0
142
0.0
 63
   250
361
5D
  0
ENDTAB
  0
TABLE
  2
LTYPE
  5
5
330
0
100
AcDbSymbolTable
 70
     3
  0
LTYPE
  5
14
330
5
100
AcDbSymbolTableRecord
100
AcDbLinetypeTableRecord
  2
ByBlock
 70
     0
  3

 72
    65
 73
     0
 40
0.0
  0
LTYPE
  5
15
330
5
100
AcDbSymbolTableRecord
100
AcDbLinetypeTableRecord
  2
ByLayer
 70
     0
  3

 72
    65
 73
     0
 40
0.0
  0
LTYPE
  5
16
330
5
100
AcDbSymbolTableRecord
100
AcDbLinetypeTableRecord
  2
Continuous
 70
     0
  3
Solid line
 72
    65
 73
     0
 40
0.0
  0
LTYPE
  5
103
330
5
100
AcDbSymbolTableRecord
100
AcDbLinetypeTableRecord
  2
Dashed
 70
     0
  3

 72
    65
 73
     2
 40
2.0
 49
1.0
 74
     0
 49
-1.0
 74
     0
  0
LTYPE
  5
106
330
5
100
AcDbSymbolTableRecord
100
AcDbLinetypeTableRecord
  2
Center
 70
     0
  3

 72
    65
 73
     4
 40
1.5
 49
0.45
 74
     0
 49
-0.5
 74
     0
 49
0.05
 74
     0
 49
-0.5
 74
     0
  0
ENDTAB
  0
TABLE
  2
LAYER
  5
2
330
0
100
AcDbSymbolTable
 70
     5
  0
LAYER
  5
10
330
2
100
AcDbSymbolTableRecord
100
AcDbLayerTableRecord
  2
0
 70
     0
 62
     7
  6
Continuous
370
    -3
390
F
347
46
348
0
  0
LAYER
  5
5E
330
2
100
AcDbSymbolTableRecord
100
AcDbLayerTableRecord
  2
AM_6
 70
     0
 62
    -2
  6
Continuous
370
    35
390
F
347
46
348
0
  0
LAYER
  5
99
330
2
100
AcDbSymbolTableRecord
100
AcDbLayerTableRecord
  2
AM_0
 70
     0
 62
     7
  6
Continuous
370
    50
390
F
347
46
348
0
  0
LAYER
  5
104
330
2
100
AcDbSymbolTableRecord
100
AcDbLayerTableRecord
  2
AM_9
 70
     0
 62
     6
  6
Dashed
370
    25
390
F
347
46
348
0
  0
LAYER
  5
107
330
2
100
AcDbSymbolTableRecord
100
AcDbLayerTableRecord
  2
AM_7
 70
     0
 62
     7
  6
Center
370
    25
390
F
347
46
348
0
  0
ENDTAB
  0
TABLE
  2
STYLE
  5
3
330
0
100
AcDbSymbolTable
 70
     1
  0
STYLE
  5
11
330
3
100
AcDbSymbolTableRecord
100
AcDbTextStyleTableRecord
  2
Standard
 70
     0
 40
0.0
 41
1.0
 50
0.0
 71
     0
 42
2.5
  3
txt
  4

  0
ENDTAB
  0
TABLE
  2
VIEW
  5
6
330
0
100
AcDbSymbolTable
 70
     0
  0
ENDTAB
  0
TABLE
  2
UCS
  5
7
330
0
100
AcDbSymbolTable
 70
     0
  0
ENDTAB
  0
TABLE
  2
APPID
  5
9
330
0
100
AcDbSymbolTable
 70
     1
  0
APPID
  5
12
330
9
100
AcDbSymbolTableRecord
100
AcDbRegAppTableRecord
  2
ACAD
 70
     0
  0
ENDTAB
  0
TABLE
  2
DIMSTYLE
  5
A
330
0
100
AcDbSymbolTable
 70
     1
100
AcDbDimStyleTable
  0
DIMSTYLE
105
27
330
A
100
AcDbSymbolTableRecord
100
AcDbDimStyleTableRecord
  2
ISO-25
 70
     0
 41
2.5
 42
0.625
 43
3.75
 44
1.25
 73
     0
 74
     0
 77
     1
 78
     8
140
2.5
141
2.5
143
0.03937007874016
147
0.625
171
     3
172
     1
178
     0
271
     2
272
     2
274
     3
278
    44
283
     0
284
     8
340
11
  0
ENDTAB
  0
TABLE
  2
BLOCK_RECORD
  5
1
330
0
100
AcDbSymbolTable
 70
     8
  0
BLOCK_RECORD
  5
1F
330
1
100
AcDbSymbolTableRecord
100
AcDbBlockTableRecord
  2
*Model_Space
340
22
 70
     0
280
     1
281
     0
  0
BLOCK_RECORD
  5
1B
330
1
100
AcDbSymbolTableRecord
100
AcDbBlockTableRecord
  2
*Paper_Space
340
1E
 70
     0
280
     1
281
     0
  0
BLOCK_RECORD
  5
23
330
1
100
AcDbSymbolTableRecord
100
AcDbBlockTableRecord
  2
*Paper_Space0
340
26
 70
     0
280
     1
281
     0
  0
BLOCK_RECORD
  5
7A
330
1
100
AcDbSymbolTableRecord
100
AcDbBlockTableRecord
  2
1_RXV12AVJU9_PART7_0_in_RXV12AVJU9_0
340
0
102
{BLKREFS
331
7B
102
}
 70
     0
280
     1
281
     0
  0
BLOCK_RECORD
  5
9E
330
1
100
AcDbSymbolTableRecord
100
AcDbBlockTableRecord
  2
2_RXV12AVJU9_PART6_0_in_RXV12AVJU9_0
340
0
102
{BLKREFS
331
9F
102
}
 70
     0
280
     1
281
     0
  0
BLOCK_RECORD
  5
C1
330
1
100
AcDbSymbolTableRecord
100
AcDbBlockTableRecord
  2
3_RXV12AVJU9_PART5_0_in_RXV12AVJU9_0
340
0
102
{BLKREFS
331
C2
102
}
 70
     0
280
     1
281
     0
  0
BLOCK_RECORD
  5
E4
330
1
100
AcDbSymbolTableRecord
100
AcDbBlockTableRecord
  2
4_RXV12AVJU9_PART4_0_in_RXV12AVJU9_0
340
0
102
{BLKREFS
331
E5
102
}
 70
     0
280
     1
281
     0
  0
BLOCK_RECORD
  5
10A
330
1
100
AcDbSymbolTableRecord
100
AcDbBlockTableRecord
  2
5_RXV12AVJU9_PART3_0_in_RXV12AVJU9_0
340
0
102
{BLKREFS
331
10B
102
}
 70
     0
280
     1
281
     0
  0
BLOCK_RECORD
  5
12C
330
1
100
AcDbSymbolTableRecord
100
AcDbBlockTableRecord
  2
6_RXV12AVJU9_PART2_0_in_RXV12AVJU9_0
340
0
102
{BLKREFS
331
12D
102
}
 70
     0
280
     1
281
     0
  0
BLOCK_RECORD
  5
152
330
1
100
AcDbSymbolTableRecord
100
AcDbBlockTableRecord
  2
7_RXV12AVJU9_PART1_0_in_RXV12AVJU9_0
340
0
102
{BLKREFS
331
153
102
}
 70
     0
280
     1
281
     0
  0
ENDTAB
  0
ENDSEC
  0
SECTION
  2
BLOCKS
  0
BLOCK
  5
20
330
1F
100
AcDbEntity
  8
0
100
AcDbBlockBegin
  2
*Model_Space
 70
     2
 10
0.0
 20
0.0
 30
0.0
  3
*Model_Space
  1

  0
ENDBLK
  5
21
330
1F
100
AcDbEntity
  8
0
100
AcDbBlockEnd
  0
BLOCK
  5
1C
330
1B
100
AcDbEntity
 67
     1
  8
0
100
AcDbBlockBegin
  2
*Paper_Space
 70
     0
 10
0.0
 20
0.0
 30
0.0
  3
*Paper_Space
  1

  0
ENDBLK
  5
1D
330
1B
100
AcDbEntity
 67
     1
  8
0
100
AcDbBlockEnd
  0
BLOCK
  5
24
330
23
100
AcDbEntity
  8
0
100
AcDbBlockBegin
  2
*Paper_Space0
 70
     0
 10
0.0
 20
0.0
 30
0.0
  3
*Paper_Space0
  1

  0
ENDBLK
  5
25
330
23
100
AcDbEntity
  8
0
100
AcDbBlockEnd
  0
BLOCK
  5
7C
330
7A
100
AcDbEntity
  8
0
100
AcDbBlockBegin
  2
1_RXV12AVJU9_PART7_0_in_RXV12AVJU9_0
 70
     2
 10
0.0
 20
0.0
 30
0.0
  3
1_RXV12AVJU9_PART7_0_in_RXV12AVJU9_0
  1

  0
ATTDEF
  5
7E
330
7A
100
AcDbEntity
  8
AM_6
100
AcDbText
 10
-204.549999999995
 20
19.05
 30
0.0
 40
0.5
  1
RXV12AVJU9_PART7
100
AcDbAttributeDefinition
  3

  2
NB
 70
     8
280
     0
  0
ATTDEF
  5
7F
330
7A
100
AcDbEntity
  8
AM_6
100
AcDbText
 10
-204.549999999995
 20
18.55
 30
0.0
 40
0.5
  1

100
AcDbAttributeDefinition
  3

  2
NN
 70
     8
280
     0
  0
ATTDEF
  5
80
330
7A
100
AcDbEntity
  8
AM_6
100
AcDbText
 10
-204.549999999995
 20
18.05
 30
0.0
 40
0.5
  1

100
AcDbAttributeDefinition
  3

  2
NT
 70
     8
280
     0
  0
ATTDEF
  5
81
330
7A
100
AcDbEntity
  8
AM_6
100
AcDbText
 10
-204.549999999995
 20
17.55
 30
0.0
 40
0.5
  1
$PARTNUMBER._PART7
100
AcDbAttributeDefinition
  3

  2
NBSYN
 70
     8
280
     0
  0
ATTDEF
  5
82
330
7A
100
AcDbEntity
  8
AM_6
100
AcDbText
 10
-204.549999999995
 20
17.05
 30
0.0
 40
0.5
  1
RXV12AVJU9_PART7
100
AcDbAttributeDefinition
  3

  2
LINA
 70
     8
280
     0
  0
ATTDEF
  5
83
330
7A
100
AcDbEntity
  8
AM_6
100
AcDbText
 10
-204.549999999995
 20
16.55
 30
0.0
 40
0.5
  1
Daikin
100
AcDbAttributeDefinition
  3

  2
CATALOG
 70
     8
280
     0
  0
ATTDEF
  5
84
330
7A
100
AcDbEntity
  8
AM_6
100
AcDbText
 10
-204.549999999995
 20
16.05
 30
0.0
 40
0.5
  1
RXV12AVJU9
100
AcDbAttributeDefinition
  3

  2
PARTNUMBER
 70
     8
280
     0
  0
ATTDEF
  5
85
330
7A
100
AcDbEntity
  8
AM_6
100
AcDbText
 10
-204.549999999995
 20
15.55
 30
0.0
 40
0.5
  1
Single Zone Heat Pump Outdoor Unit
100
AcDbAttributeDefinition
  3

  2
DESCRIPTION
 70
     8
280
     0
  0
ATTDEF
  5
86
330
7A
100
AcDbEntity
  8
AM_6
100
AcDbText
 10
-204.549999999995
 20
15.05
 30
0.0
 40
0.5
  1
11.18110
100
AcDbAttributeDefinition
  3

  2
OVERALL_DEPTH
 70
     8
280
     0
  0
ATTDEF
  5
87
330
7A
100
AcDbEntity
  8
AM_6
100
AcDbText
 10
-204.549999999995
 20
14.55
 30
0.0
 40
0.5
  1
21.92913
100
AcDbAttributeDefinition
  3

  2
OVERALL_HEIGHT
 70
     8
280
     0
  0
ATTDEF
  5
88
330
7A
100
AcDbEntity
  8
AM_6
100
AcDbText
 10
-204.549999999995
 20
14.05
 30
0.0
 40
0.5
  1
26.57480
100
AcDbAttributeDefinition
  3

  2
OVERALL_WIDTH
 70
     8
280
     0
  0
ATTDEF
  5
89
330
7A
100
AcDbEntity
  8
AM_6
100
AcDbText
 10
-204.549999999995
 20
13.55
 30
0.0
 40
0.5
  1
https://daikincomfort.com/
100
AcDbAttributeDefinition
  3

  2
URL
 70
     8
280
     0
  0
ATTDEF
  5
8A
330
7A
100
AcDbEntity
  8
AM_6
100
AcDbText
 10
-204.549999999995
 20
13.05
 30
0.0
 40
0.5
  1
Download Revit Family (RFA)
100
AcDbAttributeDefinition
  3

  2
RFA_FAMILY
 70
     8
280
     0
  0
ATTDEF
  5
8B
330
7A
100
AcDbEntity
  8
AM_6
100
AcDbText
 10
-204.549999999995
 20
12.55
 30
0.0
 40
0.5
  1
daikin
100
AcDbAttributeDefinition
  3

  2
COMPANY
 70
     8
280
     0
  0
ATTDEF
  5
8C
330
7A
100
AcDbEntity
  8
AM_6
100
AcDbText
 10
-204.549999999995
 20
12.05
 30
0.0
 40
0.5
  1
{$CADENAS_DATA/23d-libs/daikin/single20zone20systems/single20zone20heat20pump20outdoor20units/28r322920heat20pump20unit20vista20single20zone20outdoor20daikin20rxv.prj},242 {VTYP=3D},{NB=RXV12AVJU9_PART7},{LINA=RXV12AVJU9_PART7},{NN=(R32) Heat Pump U
100
AcDbAttributeDefinition
  3

  2
PSOL_0
 70
     9
280
     0
  0
ATTDEF
  5
8D
330
7A
100
AcDbEntity
  8
AM_6
100
AcDbText
 10
-204.549999999995
 20
11.55
 30
0.0
 40
0.5
  1
sta Single Zone Outdoor Daikin RXV_PART7},{NOPRJ=TRUE},{DATE=29.07.2026 16:04:42},{GEOMDATE=08.07.2026 12:36:00},{VERSION=},{LINEID=40},{WBVAR=},{WBNUMERIC=}  {NB=RXV12AVJU9_PART7},{LINA=RXV12AVJU9_PART7},{KT=DUMMY},{PARTNUMBER=RXV12AVJU9},{PARTNUMB
100
AcDbAttributeDefinition
  3

  2
PSOL_1
 70
     9
280
     0
  0
ATTDEF
  5
8E
330
7A
100
AcDbEntity
  8
AM_6
100
AcDbText
 10
-204.549999999995
 20
11.05
 30
0.0
 40
0.5
  1
=1_RXV12AVJU9},{AMBIENT_TEMPERATURE=0},{APPARENT_POWER=3504},{ASSEMBLY_CODE=D3040600},{CATEGORY=Mechanical Equipment},{CLEARANCE_VISIBILITY=1},{COIL_AIR_PRESSURE_DROP=0},{COMPRESSOR_TYPE=Hermetically Sealed Swing Type},{CONDENSATE_DRAIN_CONNECTION_D
100
AcDbAttributeDefinition
  3

  2
PSOL_2
 70
     9
280
     0
  0
ATTDEF
  5
8F
330
7A
100
AcDbEntity
  8
AM_6
100
AcDbText
 10
-204.549999999995
 20
10.55
 30
0.0
 40
0.5
  1
R=0.625},{CONDENSATE_DRAIN_CONNECTION_RADIUS=0.3125},{CONDENSATE_DRAIN_HORIZONTAL_OFFSET=1.33854166666667},{CONDENSATE_DRAIN_VERTICAL_OFFSET=0.838541666666667},{COST=0},{DEFAULT_ELEVATION=0},{DESCRIPTION=Single Zone Heat Pump Outdoor Unit},{DRAIN_FL
100
AcDbAttributeDefinition
  3

  2
PSOL_3
 70
     9
280
     0
  0
ATTDEF
  5
90
330
7A
100
AcDbEntity
  8
AM_6
100
AcDbText
 10
-204.549999999995
 20
10.05
 30
0.0
 40
0.5
  1
{ENCLOSURE_DEPTH=0.890091666666667},{ENCLOSURE_WIDTH=2.10519166666667},{FACE_VELOCITY__FPM_=0},{FAN_TYPE=Propeller},{FAN_VENT_DEPTH=0.0416666666666667},{FEET_PRESSURE_DROP=0},{FREQUENCY=60},{LOAD_SUB_CLASSIFICATION_MOTOR=1},{MANUFACTURER=Daikin},{MA
100
AcDbAttributeDefinition
  3

  2
PSOL_4
 70
     9
280
     0
  0
ATTDEF
  5
91
330
7A
100
AcDbEntity
  8
AM_6
100
AcDbText
 10
-204.549999999995
 20
9.55
 30
0.0
 40
0.5
  1
=1},{MAXIMUM_OVERCURRENT_PROTECTION=15},{MINIMUM_CIRCUIT_AMPS=14.6},{NOMINAL_COOLING_CAPACITY=10800},{NOMINAL_COOLING_CAPACITY__TONS_=1},{NOMINAL_HEATING_CAPACITY=13500},{NUMBER_OF_POLES=2},{OMNICLASS_NUMBER=23.33.17.13.11},{OVERALL_DEPTH=11.18110},
100
AcDbAttributeDefinition
  3

  2
PSOL_5
 70
     9
280
     0
  0
ATTDEF
  5
92
330
7A
100
AcDbEntity
  8
AM_6
100
AcDbText
 10
-204.549999999995
 20
9.05
 30
0.0
 40
0.5
  1
LL_HEIGHT=21.92913},{OVERALL_WIDTH=26.57480},{PARTTYPE=Normal},{PHASE=1},{PRODUCT_PAGE_URL=https://daikincomfort.com/products/heating-cooling/single-split-ductless/heat-pumps/vista-ceiling-cassette},{REFRIGERANT_CHARGE=1.653},{REFRIGERANT_LIQUID_CON
100
AcDbAttributeDefinition
  3

  2
PSOL_6
 70
     9
280
     0
  0
ATTDEF
  5
93
330
7A
100
AcDbEntity
  8
AM_6
100
AcDbText
 10
-204.549999999995
 20
8.55
 30
0.0
 40
0.5
  1
N_DIAMETER=0.25},{REFRIGERANT_LIQUID_CONNECTION_HORIZONTAL_OFFSET=0.0677083333333333},{REFRIGERANT_LIQUID_CONNECTION_RADIUS=0.0104166666666667},{REFRIGERANT_LIQUID_CONNECTION_VERTICAL_OFFSET=0.536458333333333},{REFRIGERANT_PIPE_OFFSET=0.520833333333
100
AcDbAttributeDefinition
  3

  2
PSOL_7
 70
     9
280
     0
  0
ATTDEF
  5
94
330
7A
100
AcDbEntity
  8
AM_6
100
AcDbText
 10
-204.549999999995
 20
8.05
 30
0.0
 40
0.5
  1
REFRIGERANT_SUCTION_GAS_CONNECTION_DIAMETER=0.375},{REFRIGERANT_SUCTION_GAS_CONNECTION_HORIZONTAL_OFFSET=0.0677083333333333},{REFRIGERANT_SUCTION_GAS_CONNECTION_RADIUS=0.015625},{REFRIGERANT_SUCTION_GAS_CONNECTION_VERTICAL_OFFSET=0.34375},{REFRIGERA
100
AcDbAttributeDefinition
  3

  2
PSOL_8
 70
     9
280
     0
  0
ATTDEF
  5
95
330
7A
100
AcDbEntity
  8
AM_6
100
AcDbText
 10
-204.549999999995
 20
7.550000000000001
 30
0.0
 40
0.5
  1
D=R-32},{SENSIBLE_COOLING_CAPACITY=0},{SERIES=Vista},{SYSTEM_PERFORMANCE_EER2=11.5},{SYSTEM_PERFORMANCE_HSPF2=9.0},{SYSTEM_PERFORMANCE_SEER2=19.5},{TOTAL_COOLING_CAPACITY=0},{TOTAL_STATIC_PRESSURE=0},{UNIT_BACK_CLEARANCE=0.489583333333333},{UNIT_FRO
100
AcDbAttributeDefinition
  3

  2
PSOL_9
 70
     9
280
     0
  0
ATTDEF
  5
96
330
7A
100
AcDbEntity
  8
AM_6
100
AcDbText
 10
-204.549999999995
 20
7.050000000000001
 30
0.0
 40
0.5
  1
ARANCE=0.984375},{UNIT_LEFT_CLEARANCE=0.161458333333333},{UNIT_LEG_SPACING=1.54166666666667},{UNIT_WEIGHT=63.8},{URL=https://daikincomfort.com/},{VALVE_COVER_DEPTH=0.109375},{VALVE_COVER_HEIGHT=0.859375},{VERSION=1},{VOLTAGE=240},{VOLTAGE_COMMENTS=2
100
AcDbAttributeDefinition
  3

  2
PSOL_10
 70
     9
280
     0
  0
ATTDEF
  5
97
330
7A
100
AcDbEntity
  8
AM_6
100
AcDbText
 10
-204.549999999995
 20
6.550000000000001
 30
0.0
 40
0.5
  1
 - 230 VAC},{RFA_FAMILY=Download Revit Family (RFA)},{DEFAULTSORTATTR=3},{RFA_FAMILY_=../../_pool_/1f/df/heat_pump_unit-single_zone-outdoor-daikin-rxv.zip},{RFA_FAMILY_ENG=../../_pool_/1f/df/heat_pump_unit-single_zone-outdoor-daikin-rxv.zip},{REVIT_
100
AcDbAttributeDefinition
  3

  2
PSOL_11
 70
     9
280
     0
  0
ATTDEF
  5
98
330
7A
100
AcDbEntity
  8
AM_6
100
AcDbText
 10
-204.549999999995
 20
6.050000000000001
 30
0.0
 40
0.5
  1
_DOWNLOAD=../../_pool_/1f/df/heat_pump_unit-single_zone-outdoor-daikin-rxv.zip}
100
AcDbAttributeDefinition
  3

  2
PSOL_12
 70
     9
280
     0
  0
LINE
  5
9A
330
7A
100
AcDbEntity
  8
AM_0
100
AcDbLine
 10
-209.549999999995
 20
0.0
 30
0.0
 11
-209.549999999995
 21
19.05
 31
0.0
  0
LINE
  5
9B
330
7A
100
AcDbEntity
  8
AM_0
100
AcDbLine
 10
-260.349999999994
 20
0.0
 30
0.0
 11
-209.549999999995
 21
0.0
 31
0.0
  0
LINE
  5
9C
330
7A
100
AcDbEntity
  8
AM_0
100
AcDbLine
 10
-260.349999999994
 20
19.05
 30
0.0
 11
-260.349999999994
 21
0.0
 31
0.0
  0
LINE
  5
9D
330
7A
100
AcDbEntity
  8
AM_0
100
AcDbLine
 10
-209.549999999995
 20
19.05
 30
0.0
 11
-260.349999999994
 21
19.05
 31
0.0
  0
ENDBLK
  5
7D
330
7A
100
AcDbEntity
  8
0
100
AcDbBlockEnd
  0
BLOCK
  5
A0
330
9E
100
AcDbEntity
  8
0
100
AcDbBlockBegin
  2
2_RXV12AVJU9_PART6_0_in_RXV12AVJU9_0
 70
     2
 10
0.0
 20
0.0
 30
0.0
  3
2_RXV12AVJU9_PART6_0_in_RXV12AVJU9_0
  1

  0
ATTDEF
  5
A2
330
9E
100
AcDbEntity
  8
AM_6
100
AcDbText
 10
265.350000000017
 20
19.05
 30
0.0
 40
0.5
  1
RXV12AVJU9_PART6
100
AcDbAttributeDefinition
  3

  2
NB
 70
     8
280
     0
  0
ATTDEF
  5
A3
330
9E
100
AcDbEntity
  8
AM_6
100
AcDbText
 10
265.350000000017
 20
18.55
 30
0.0
 40
0.5
  1

100
AcDbAttributeDefinition
  3

  2
NN
 70
     8
280
     0
  0
ATTDEF
  5
A4
330
9E
100
AcDbEntity
  8
AM_6
100
AcDbText
 10
265.350000000017
 20
18.05
 30
0.0
 40
0.5
  1

100
AcDbAttributeDefinition
  3

  2
NT
 70
     8
280
     0
  0
ATTDEF
  5
A5
330
9E
100
AcDbEntity
  8
AM_6
100
AcDbText
 10
265.350000000017
 20
17.55
 30
0.0
 40
0.5
  1
$PARTNUMBER._PART6
100
AcDbAttributeDefinition
  3

  2
NBSYN
 70
     8
280
     0
  0
ATTDEF
  5
A6
330
9E
100
AcDbEntity
  8
AM_6
100
AcDbText
 10
265.350000000017
 20
17.05
 30
0.0
 40
0.5
  1
RXV12AVJU9_PART6
100
AcDbAttributeDefinition
  3

  2
LINA
 70
     8
280
     0
  0
ATTDEF
  5
A7
330
9E
100
AcDbEntity
  8
AM_6
100
AcDbText
 10
265.350000000017
 20
16.55
 30
0.0
 40
0.5
  1
Daikin
100
AcDbAttributeDefinition
  3

  2
CATALOG
 70
     8
280
     0
  0
ATTDEF
  5
A8
330
9E
100
AcDbEntity
  8
AM_6
100
AcDbText
 10
265.350000000017
 20
16.05
 30
0.0
 40
0.5
  1
RXV12AVJU9
100
AcDbAttributeDefinition
  3

  2
PARTNUMBER
 70
     8
280
     0
  0
ATTDEF
  5
A9
330
9E
100
AcDbEntity
  8
AM_6
100
AcDbText
 10
265.350000000017
 20
15.55
 30
0.0
 40
0.5
  1
Single Zone Heat Pump Outdoor Unit
100
AcDbAttributeDefinition
  3

  2
DESCRIPTION
 70
     8
280
     0
  0
ATTDEF
  5
AA
330
9E
100
AcDbEntity
  8
AM_6
100
AcDbText
 10
265.350000000017
 20
15.05
 30
0.0
 40
0.5
  1
11.18110
100
AcDbAttributeDefinition
  3

  2
OVERALL_DEPTH
 70
     8
280
     0
  0
ATTDEF
  5
AB
330
9E
100
AcDbEntity
  8
AM_6
100
AcDbText
 10
265.350000000017
 20
14.55
 30
0.0
 40
0.5
  1
21.92913
100
AcDbAttributeDefinition
  3

  2
OVERALL_HEIGHT
 70
     8
280
     0
  0
ATTDEF
  5
AC
330
9E
100
AcDbEntity
  8
AM_6
100
AcDbText
 10
265.350000000017
 20
14.05
 30
0.0
 40
0.5
  1
26.57480
100
AcDbAttributeDefinition
  3

  2
OVERALL_WIDTH
 70
     8
280
     0
  0
ATTDEF
  5
AD
330
9E
100
AcDbEntity
  8
AM_6
100
AcDbText
 10
265.350000000017
 20
13.55
 30
0.0
 40
0.5
  1
https://daikincomfort.com/
100
AcDbAttributeDefinition
  3

  2
URL
 70
     8
280
     0
  0
ATTDEF
  5
AE
330
9E
100
AcDbEntity
  8
AM_6
100
AcDbText
 10
265.350000000017
 20
13.05
 30
0.0
 40
0.5
  1
Download Revit Family (RFA)
100
AcDbAttributeDefinition
  3

  2
RFA_FAMILY
 70
     8
280
     0
  0
ATTDEF
  5
AF
330
9E
100
AcDbEntity
  8
AM_6
100
AcDbText
 10
265.350000000017
 20
12.55
 30
0.0
 40
0.5
  1
daikin
100
AcDbAttributeDefinition
  3

  2
COMPANY
 70
     8
280
     0
  0
ATTDEF
  5
B0
330
9E
100
AcDbEntity
  8
AM_6
100
AcDbText
 10
265.350000000017
 20
12.05
 30
0.0
 40
0.5
  1
{$CADENAS_DATA/23d-libs/daikin/single20zone20systems/single20zone20heat20pump20outdoor20units/28r322920heat20pump20unit20vista20single20zone20outdoor20daikin20rxv.prj},242 {VTYP=3D},{NB=RXV12AVJU9_PART6},{LINA=RXV12AVJU9_PART6},{NN=(R32) Heat Pump U
100
AcDbAttributeDefinition
  3

  2
PSOL_0
 70
     9
280
     0
  0
ATTDEF
  5
B1
330
9E
100
AcDbEntity
  8
AM_6
100
AcDbText
 10
265.350000000017
 20
11.55
 30
0.0
 40
0.5
  1
sta Single Zone Outdoor Daikin RXV_PART6},{NOPRJ=TRUE},{DATE=29.07.2026 16:04:42},{GEOMDATE=08.07.2026 12:36:00},{VERSION=},{LINEID=40},{WBVAR=},{WBNUMERIC=}  {NB=RXV12AVJU9_PART6},{LINA=RXV12AVJU9_PART6},{KT=DUMMY},{PARTNUMBER=RXV12AVJU9},{PARTNUMB
100
AcDbAttributeDefinition
  3

  2
PSOL_1
 70
     9
280
     0
  0
ATTDEF
  5
B2
330
9E
100
AcDbEntity
  8
AM_6
100
AcDbText
 10
265.350000000017
 20
11.05
 30
0.0
 40
0.5
  1
=1_RXV12AVJU9},{AMBIENT_TEMPERATURE=0},{APPARENT_POWER=3504},{ASSEMBLY_CODE=D3040600},{CATEGORY=Mechanical Equipment},{CLEARANCE_VISIBILITY=1},{COIL_AIR_PRESSURE_DROP=0},{COMPRESSOR_TYPE=Hermetically Sealed Swing Type},{CONDENSATE_DRAIN_CONNECTION_D
100
AcDbAttributeDefinition
  3

  2
PSOL_2
 70
     9
280
     0
  0
ATTDEF
  5
B3
330
9E
100
AcDbEntity
  8
AM_6
100
AcDbText
 10
265.350000000017
 20
10.55
 30
0.0
 40
0.5
  1
R=0.625},{CONDENSATE_DRAIN_CONNECTION_RADIUS=0.3125},{CONDENSATE_DRAIN_HORIZONTAL_OFFSET=1.33854166666667},{CONDENSATE_DRAIN_VERTICAL_OFFSET=0.838541666666667},{COST=0},{DEFAULT_ELEVATION=0},{DESCRIPTION=Single Zone Heat Pump Outdoor Unit},{DRAIN_FL
100
AcDbAttributeDefinition
  3

  2
PSOL_3
 70
     9
280
     0
  0
ATTDEF
  5
B4
330
9E
100
AcDbEntity
  8
AM_6
100
AcDbText
 10
265.350000000017
 20
10.05
 30
0.0
 40
0.5
  1
{ENCLOSURE_DEPTH=0.890091666666667},{ENCLOSURE_WIDTH=2.10519166666667},{FACE_VELOCITY__FPM_=0},{FAN_TYPE=Propeller},{FAN_VENT_DEPTH=0.0416666666666667},{FEET_PRESSURE_DROP=0},{FREQUENCY=60},{LOAD_SUB_CLASSIFICATION_MOTOR=1},{MANUFACTURER=Daikin},{MA
100
AcDbAttributeDefinition
  3

  2
PSOL_4
 70
     9
280
     0
  0
ATTDEF
  5
B5
330
9E
100
AcDbEntity
  8
AM_6
100
AcDbText
 10
265.350000000017
 20
9.55
 30
0.0
 40
0.5
  1
=1},{MAXIMUM_OVERCURRENT_PROTECTION=15},{MINIMUM_CIRCUIT_AMPS=14.6},{NOMINAL_COOLING_CAPACITY=10800},{NOMINAL_COOLING_CAPACITY__TONS_=1},{NOMINAL_HEATING_CAPACITY=13500},{NUMBER_OF_POLES=2},{OMNICLASS_NUMBER=23.33.17.13.11},{OVERALL_DEPTH=11.18110},
100
AcDbAttributeDefinition
  3

  2
PSOL_5
 70
     9
280
     0
  0
ATTDEF
  5
B6
330
9E
100
AcDbEntity
  8
AM_6
100
AcDbText
 10
265.350000000017
 20
9.05
 30
0.0
 40
0.5
  1
LL_HEIGHT=21.92913},{OVERALL_WIDTH=26.57480},{PARTTYPE=Normal},{PHASE=1},{PRODUCT_PAGE_URL=https://daikincomfort.com/products/heating-cooling/single-split-ductless/heat-pumps/vista-ceiling-cassette},{REFRIGERANT_CHARGE=1.653},{REFRIGERANT_LIQUID_CON
100
AcDbAttributeDefinition
  3

  2
PSOL_6
 70
     9
280
     0
  0
ATTDEF
  5
B7
330
9E
100
AcDbEntity
  8
AM_6
100
AcDbText
 10
265.350000000017
 20
8.55
 30
0.0
 40
0.5
  1
N_DIAMETER=0.25},{REFRIGERANT_LIQUID_CONNECTION_HORIZONTAL_OFFSET=0.0677083333333333},{REFRIGERANT_LIQUID_CONNECTION_RADIUS=0.0104166666666667},{REFRIGERANT_LIQUID_CONNECTION_VERTICAL_OFFSET=0.536458333333333},{REFRIGERANT_PIPE_OFFSET=0.520833333333
100
AcDbAttributeDefinition
  3

  2
PSOL_7
 70
     9
280
     0
  0
ATTDEF
  5
B8
330
9E
100
AcDbEntity
  8
AM_6
100
AcDbText
 10
265.350000000017
 20
8.05
 30
0.0
 40
0.5
  1
REFRIGERANT_SUCTION_GAS_CONNECTION_DIAMETER=0.375},{REFRIGERANT_SUCTION_GAS_CONNECTION_HORIZONTAL_OFFSET=0.0677083333333333},{REFRIGERANT_SUCTION_GAS_CONNECTION_RADIUS=0.015625},{REFRIGERANT_SUCTION_GAS_CONNECTION_VERTICAL_OFFSET=0.34375},{REFRIGERA
100
AcDbAttributeDefinition
  3

  2
PSOL_8
 70
     9
280
     0
  0
ATTDEF
  5
B9
330
9E
100
AcDbEntity
  8
AM_6
100
AcDbText
 10
265.350000000017
 20
7.550000000000001
 30
0.0
 40
0.5
  1
D=R-32},{SENSIBLE_COOLING_CAPACITY=0},{SERIES=Vista},{SYSTEM_PERFORMANCE_EER2=11.5},{SYSTEM_PERFORMANCE_HSPF2=9.0},{SYSTEM_PERFORMANCE_SEER2=19.5},{TOTAL_COOLING_CAPACITY=0},{TOTAL_STATIC_PRESSURE=0},{UNIT_BACK_CLEARANCE=0.489583333333333},{UNIT_FRO
100
AcDbAttributeDefinition
  3

  2
PSOL_9
 70
     9
280
     0
  0
ATTDEF
  5
BA
330
9E
100
AcDbEntity
  8
AM_6
100
AcDbText
 10
265.350000000017
 20
7.050000000000001
 30
0.0
 40
0.5
  1
ARANCE=0.984375},{UNIT_LEFT_CLEARANCE=0.161458333333333},{UNIT_LEG_SPACING=1.54166666666667},{UNIT_WEIGHT=63.8},{URL=https://daikincomfort.com/},{VALVE_COVER_DEPTH=0.109375},{VALVE_COVER_HEIGHT=0.859375},{VERSION=1},{VOLTAGE=240},{VOLTAGE_COMMENTS=2
100
AcDbAttributeDefinition
  3

  2
PSOL_10
 70
     9
280
     0
  0
ATTDEF
  5
BB
330
9E
100
AcDbEntity
  8
AM_6
100
AcDbText
 10
265.350000000017
 20
6.550000000000001
 30
0.0
 40
0.5
  1
 - 230 VAC},{RFA_FAMILY=Download Revit Family (RFA)},{DEFAULTSORTATTR=3},{RFA_FAMILY_=../../_pool_/1f/df/heat_pump_unit-single_zone-outdoor-daikin-rxv.zip},{RFA_FAMILY_ENG=../../_pool_/1f/df/heat_pump_unit-single_zone-outdoor-daikin-rxv.zip},{REVIT_
100
AcDbAttributeDefinition
  3

  2
PSOL_11
 70
     9
280
     0
  0
ATTDEF
  5
BC
330
9E
100
AcDbEntity
  8
AM_6
100
AcDbText
 10
265.350000000017
 20
6.050000000000001
 30
0.0
 40
0.5
  1
_DOWNLOAD=../../_pool_/1f/df/heat_pump_unit-single_zone-outdoor-daikin-rxv.zip}
100
AcDbAttributeDefinition
  3

  2
PSOL_12
 70
     9
280
     0
  0
LINE
  5
BD
330
9E
100
AcDbEntity
  8
AM_0
100
AcDbLine
 10
209.549999999999
 20
19.05
 30
0.0
 11
209.549999999999
 21
0.0
 31
0.0
  0
LINE
  5
BE
330
9E
100
AcDbEntity
  8
AM_0
100
AcDbLine
 10
260.350000000017
 20
19.05
 30
0.0
 11
209.549999999999
 21
19.05
 31
0.0
  0
LINE
  5
BF
330
9E
100
AcDbEntity
  8
AM_0
100
AcDbLine
 10
209.549999999999
 20
0.0
 30
0.0
 11
260.350000000017
 21
0.0
 31
0.0
  0
LINE
  5
C0
330
9E
100
AcDbEntity
  8
AM_0
100
AcDbLine
 10
260.350000000017
 20
0.0
 30
0.0
 11
260.350000000017
 21
19.05
 31
0.0
  0
ENDBLK
  5
A1
330
9E
100
AcDbEntity
  8
0
100
AcDbBlockEnd
  0
BLOCK
  5
C3
330
C1
100
AcDbEntity
  8
0
100
AcDbBlockBegin
  2
3_RXV12AVJU9_PART5_0_in_RXV12AVJU9_0
 70
     2
 10
0.0
 20
0.0
 30
0.0
  3
3_RXV12AVJU9_PART5_0_in_RXV12AVJU9_0
  1

  0
ATTDEF
  5
C5
330
C1
100
AcDbEntity
  8
AM_6
100
AcDbText
 10
122.631210000063
 20
480.79990200002
 30
0.0
 40
0.5
  1
RXV12AVJU9_PART5
100
AcDbAttributeDefinition
  3

  2
NB
 70
     8
280
     0
  0
ATTDEF
  5
C6
330
C1
100
AcDbEntity
  8
AM_6
100
AcDbText
 10
122.631210000063
 20
480.29990200002
 30
0.0
 40
0.5
  1

100
AcDbAttributeDefinition
  3

  2
NN
 70
     8
280
     0
  0
ATTDEF
  5
C7
330
C1
100
AcDbEntity
  8
AM_6
100
AcDbText
 10
122.631210000063
 20
479.79990200002
 30
0.0
 40
0.5
  1

100
AcDbAttributeDefinition
  3

  2
NT
 70
     8
280
     0
  0
ATTDEF
  5
C8
330
C1
100
AcDbEntity
  8
AM_6
100
AcDbText
 10
122.631210000063
 20
479.29990200002
 30
0.0
 40
0.5
  1
$PARTNUMBER._PART5
100
AcDbAttributeDefinition
  3

  2
NBSYN
 70
     8
280
     0
  0
ATTDEF
  5
C9
330
C1
100
AcDbEntity
  8
AM_6
100
AcDbText
 10
122.631210000063
 20
478.79990200002
 30
0.0
 40
0.5
  1
RXV12AVJU9_PART5
100
AcDbAttributeDefinition
  3

  2
LINA
 70
     8
280
     0
  0
ATTDEF
  5
CA
330
C1
100
AcDbEntity
  8
AM_6
100
AcDbText
 10
122.631210000063
 20
478.29990200002
 30
0.0
 40
0.5
  1
Daikin
100
AcDbAttributeDefinition
  3

  2
CATALOG
 70
     8
280
     0
  0
ATTDEF
  5
CB
330
C1
100
AcDbEntity
  8
AM_6
100
AcDbText
 10
122.631210000063
 20
477.79990200002
 30
0.0
 40
0.5
  1
RXV12AVJU9
100
AcDbAttributeDefinition
  3

  2
PARTNUMBER
 70
     8
280
     0
  0
ATTDEF
  5
CC
330
C1
100
AcDbEntity
  8
AM_6
100
AcDbText
 10
122.631210000063
 20
477.29990200002
 30
0.0
 40
0.5
  1
Single Zone Heat Pump Outdoor Unit
100
AcDbAttributeDefinition
  3

  2
DESCRIPTION
 70
     8
280
     0
  0
ATTDEF
  5
CD
330
C1
100
AcDbEntity
  8
AM_6
100
AcDbText
 10
122.631210000063
 20
476.79990200002
 30
0.0
 40
0.5
  1
11.18110
100
AcDbAttributeDefinition
  3

  2
OVERALL_DEPTH
 70
     8
280
     0
  0
ATTDEF
  5
CE
330
C1
100
AcDbEntity
  8
AM_6
100
AcDbText
 10
122.631210000063
 20
476.29990200002
 30
0.0
 40
0.5
  1
21.92913
100
AcDbAttributeDefinition
  3

  2
OVERALL_HEIGHT
 70
     8
280
     0
  0
ATTDEF
  5
CF
330
C1
100
AcDbEntity
  8
AM_6
100
AcDbText
 10
122.631210000063
 20
475.79990200002
 30
0.0
 40
0.5
  1
26.57480
100
AcDbAttributeDefinition
  3

  2
OVERALL_WIDTH
 70
     8
280
     0
  0
ATTDEF
  5
D0
330
C1
100
AcDbEntity
  8
AM_6
100
AcDbText
 10
122.631210000063
 20
475.29990200002
 30
0.0
 40
0.5
  1
https://daikincomfort.com/
100
AcDbAttributeDefinition
  3

  2
URL
 70
     8
280
     0
  0
ATTDEF
  5
D1
330
C1
100
AcDbEntity
  8
AM_6
100
AcDbText
 10
122.631210000063
 20
474.79990200002
 30
0.0
 40
0.5
  1
Download Revit Family (RFA)
100
AcDbAttributeDefinition
  3

  2
RFA_FAMILY
 70
     8
280
     0
  0
ATTDEF
  5
D2
330
C1
100
AcDbEntity
  8
AM_6
100
AcDbText
 10
122.631210000063
 20
474.29990200002
 30
0.0
 40
0.5
  1
daikin
100
AcDbAttributeDefinition
  3

  2
COMPANY
 70
     8
280
     0
  0
ATTDEF
  5
D3
330
C1
100
AcDbEntity
  8
AM_6
100
AcDbText
 10
122.631210000063
 20
473.79990200002
 30
0.0
 40
0.5
  1
{$CADENAS_DATA/23d-libs/daikin/single20zone20systems/single20zone20heat20pump20outdoor20units/28r322920heat20pump20unit20vista20single20zone20outdoor20daikin20rxv.prj},242 {VTYP=3D},{NB=RXV12AVJU9_PART5},{LINA=RXV12AVJU9_PART5},{NN=(R32) Heat Pump U
100
AcDbAttributeDefinition
  3

  2
PSOL_0
 70
     9
280
     0
  0
ATTDEF
  5
D4
330
C1
100
AcDbEntity
  8
AM_6
100
AcDbText
 10
122.631210000063
 20
473.29990200002
 30
0.0
 40
0.5
  1
sta Single Zone Outdoor Daikin RXV_PART5},{NOPRJ=TRUE},{DATE=29.07.2026 16:04:42},{GEOMDATE=08.07.2026 12:36:00},{VERSION=},{LINEID=40},{WBVAR=},{WBNUMERIC=}  {NB=RXV12AVJU9_PART5},{LINA=RXV12AVJU9_PART5},{KT=DUMMY},{PARTNUMBER=RXV12AVJU9},{PARTNUMB
100
AcDbAttributeDefinition
  3

  2
PSOL_1
 70
     9
280
     0
  0
ATTDEF
  5
D5
330
C1
100
AcDbEntity
  8
AM_6
100
AcDbText
 10
122.631210000063
 20
472.79990200002
 30
0.0
 40
0.5
  1
=1_RXV12AVJU9},{AMBIENT_TEMPERATURE=0},{APPARENT_POWER=3504},{ASSEMBLY_CODE=D3040600},{CATEGORY=Mechanical Equipment},{CLEARANCE_VISIBILITY=1},{COIL_AIR_PRESSURE_DROP=0},{COMPRESSOR_TYPE=Hermetically Sealed Swing Type},{CONDENSATE_DRAIN_CONNECTION_D
100
AcDbAttributeDefinition
  3

  2
PSOL_2
 70
     9
280
     0
  0
ATTDEF
  5
D6
330
C1
100
AcDbEntity
  8
AM_6
100
AcDbText
 10
122.631210000063
 20
472.29990200002
 30
0.0
 40
0.5
  1
R=0.625},{CONDENSATE_DRAIN_CONNECTION_RADIUS=0.3125},{CONDENSATE_DRAIN_HORIZONTAL_OFFSET=1.33854166666667},{CONDENSATE_DRAIN_VERTICAL_OFFSET=0.838541666666667},{COST=0},{DEFAULT_ELEVATION=0},{DESCRIPTION=Single Zone Heat Pump Outdoor Unit},{DRAIN_FL
100
AcDbAttributeDefinition
  3

  2
PSOL_3
 70
     9
280
     0
  0
ATTDEF
  5
D7
330
C1
100
AcDbEntity
  8
AM_6
100
AcDbText
 10
122.631210000063
 20
471.79990200002
 30
0.0
 40
0.5
  1
{ENCLOSURE_DEPTH=0.890091666666667},{ENCLOSURE_WIDTH=2.10519166666667},{FACE_VELOCITY__FPM_=0},{FAN_TYPE=Propeller},{FAN_VENT_DEPTH=0.0416666666666667},{FEET_PRESSURE_DROP=0},{FREQUENCY=60},{LOAD_SUB_CLASSIFICATION_MOTOR=1},{MANUFACTURER=Daikin},{MA
100
AcDbAttributeDefinition
  3

  2
PSOL_4
 70
     9
280
     0
  0
ATTDEF
  5
D8
330
C1
100
AcDbEntity
  8
AM_6
100
AcDbText
 10
122.631210000063
 20
471.29990200002
 30
0.0
 40
0.5
  1
=1},{MAXIMUM_OVERCURRENT_PROTECTION=15},{MINIMUM_CIRCUIT_AMPS=14.6},{NOMINAL_COOLING_CAPACITY=10800},{NOMINAL_COOLING_CAPACITY__TONS_=1},{NOMINAL_HEATING_CAPACITY=13500},{NUMBER_OF_POLES=2},{OMNICLASS_NUMBER=23.33.17.13.11},{OVERALL_DEPTH=11.18110},
100
AcDbAttributeDefinition
  3

  2
PSOL_5
 70
     9
280
     0
  0
ATTDEF
  5
D9
330
C1
100
AcDbEntity
  8
AM_6
100
AcDbText
 10
122.631210000063
 20
470.79990200002
 30
0.0
 40
0.5
  1
LL_HEIGHT=21.92913},{OVERALL_WIDTH=26.57480},{PARTTYPE=Normal},{PHASE=1},{PRODUCT_PAGE_URL=https://daikincomfort.com/products/heating-cooling/single-split-ductless/heat-pumps/vista-ceiling-cassette},{REFRIGERANT_CHARGE=1.653},{REFRIGERANT_LIQUID_CON
100
AcDbAttributeDefinition
  3

  2
PSOL_6
 70
     9
280
     0
  0
ATTDEF
  5
DA
330
C1
100
AcDbEntity
  8
AM_6
100
AcDbText
 10
122.631210000063
 20
470.29990200002
 30
0.0
 40
0.5
  1
N_DIAMETER=0.25},{REFRIGERANT_LIQUID_CONNECTION_HORIZONTAL_OFFSET=0.0677083333333333},{REFRIGERANT_LIQUID_CONNECTION_RADIUS=0.0104166666666667},{REFRIGERANT_LIQUID_CONNECTION_VERTICAL_OFFSET=0.536458333333333},{REFRIGERANT_PIPE_OFFSET=0.520833333333
100
AcDbAttributeDefinition
  3

  2
PSOL_7
 70
     9
280
     0
  0
ATTDEF
  5
DB
330
C1
100
AcDbEntity
  8
AM_6
100
AcDbText
 10
122.631210000063
 20
469.79990200002
 30
0.0
 40
0.5
  1
REFRIGERANT_SUCTION_GAS_CONNECTION_DIAMETER=0.375},{REFRIGERANT_SUCTION_GAS_CONNECTION_HORIZONTAL_OFFSET=0.0677083333333333},{REFRIGERANT_SUCTION_GAS_CONNECTION_RADIUS=0.015625},{REFRIGERANT_SUCTION_GAS_CONNECTION_VERTICAL_OFFSET=0.34375},{REFRIGERA
100
AcDbAttributeDefinition
  3

  2
PSOL_8
 70
     9
280
     0
  0
ATTDEF
  5
DC
330
C1
100
AcDbEntity
  8
AM_6
100
AcDbText
 10
122.631210000063
 20
469.29990200002
 30
0.0
 40
0.5
  1
D=R-32},{SENSIBLE_COOLING_CAPACITY=0},{SERIES=Vista},{SYSTEM_PERFORMANCE_EER2=11.5},{SYSTEM_PERFORMANCE_HSPF2=9.0},{SYSTEM_PERFORMANCE_SEER2=19.5},{TOTAL_COOLING_CAPACITY=0},{TOTAL_STATIC_PRESSURE=0},{UNIT_BACK_CLEARANCE=0.489583333333333},{UNIT_FRO
100
AcDbAttributeDefinition
  3

  2
PSOL_9
 70
     9
280
     0
  0
ATTDEF
  5
DD
330
C1
100
AcDbEntity
  8
AM_6
100
AcDbText
 10
122.631210000063
 20
468.79990200002
 30
0.0
 40
0.5
  1
ARANCE=0.984375},{UNIT_LEFT_CLEARANCE=0.161458333333333},{UNIT_LEG_SPACING=1.54166666666667},{UNIT_WEIGHT=63.8},{URL=https://daikincomfort.com/},{VALVE_COVER_DEPTH=0.109375},{VALVE_COVER_HEIGHT=0.859375},{VERSION=1},{VOLTAGE=240},{VOLTAGE_COMMENTS=2
100
AcDbAttributeDefinition
  3

  2
PSOL_10
 70
     9
280
     0
  0
ATTDEF
  5
DE
330
C1
100
AcDbEntity
  8
AM_6
100
AcDbText
 10
122.631210000063
 20
468.29990200002
 30
0.0
 40
0.5
  1
 - 230 VAC},{RFA_FAMILY=Download Revit Family (RFA)},{DEFAULTSORTATTR=3},{RFA_FAMILY_=../../_pool_/1f/df/heat_pump_unit-single_zone-outdoor-daikin-rxv.zip},{RFA_FAMILY_ENG=../../_pool_/1f/df/heat_pump_unit-single_zone-outdoor-daikin-rxv.zip},{REVIT_
100
AcDbAttributeDefinition
  3

  2
PSOL_11
 70
     9
280
     0
  0
ATTDEF
  5
DF
330
C1
100
AcDbEntity
  8
AM_6
100
AcDbText
 10
122.631210000063
 20
467.79990200002
 30
0.0
 40
0.5
  1
_DOWNLOAD=../../_pool_/1f/df/heat_pump_unit-single_zone-outdoor-daikin-rxv.zip}
100
AcDbAttributeDefinition
  3

  2
PSOL_12
 70
     9
280
     0
  0
LINE
  5
E0
330
C1
100
AcDbEntity
  8
AM_0
100
AcDbLine
 10
117.631210000063
 20
480.79990200002
 30
0.0
 11
-295.431209999909
 21
480.79990200002
 31
0.0
  0
LINE
  5
E1
330
C1
100
AcDbEntity
  8
AM_0
100
AcDbLine
 10
-295.431209999909
 20
480.79990200002
 30
0.0
 11
-295.431209999909
 21
69.8499999999993
 31
0.0
  0
LINE
  5
E2
330
C1
100
AcDbEntity
  8
AM_0
100
AcDbLine
 10
-295.431209999909
 20
69.8499999999993
 30
0.0
 11
117.631210000063
 21
69.8499999999993
 31
0.0
  0
LINE
  5
E3
330
C1
100
AcDbEntity
  8
AM_0
100
AcDbLine
 10
117.631210000063
 20
69.8499999999993
 30
0.0
 11
117.631210000063
 21
480.79990200002
 31
0.0
  0
ENDBLK
  5
C4
330
C1
100
AcDbEntity
  8
0
100
AcDbBlockEnd
  0
BLOCK
  5
E6
330
E4
100
AcDbEntity
  8
0
100
AcDbBlockBegin
  2
4_RXV12AVJU9_PART4_0_in_RXV12AVJU9_0
 70
     2
 10
0.0
 20
0.0
 30
0.0
  3
4_RXV12AVJU9_PART4_0_in_RXV12AVJU9_0
  1

  0
ATTDEF
  5
E8
330
E4
100
AcDbEntity
  8
AM_6
100
AcDbText
 10
349.802460000005
 20
166.846249999999
 30
0.0
 40
0.5
  1
RXV12AVJU9_PART4
100
AcDbAttributeDefinition
  3

  2
NB
 70
     8
280
     0
  0
ATTDEF
  5
E9
330
E4
100
AcDbEntity
  8
AM_6
100
AcDbText
 10
349.802460000005
 20
166.346249999999
 30
0.0
 40
0.5
  1

100
AcDbAttributeDefinition
  3

  2
NN
 70
     8
280
     0
  0
ATTDEF
  5
EA
330
E4
100
AcDbEntity
  8
AM_6
100
AcDbText
 10
349.802460000005
 20
165.846249999999
 30
0.0
 40
0.5
  1

100
AcDbAttributeDefinition
  3

  2
NT
 70
     8
280
     0
  0
ATTDEF
  5
EB
330
E4
100
AcDbEntity
  8
AM_6
100
AcDbText
 10
349.802460000005
 20
165.346249999999
 30
0.0
 40
0.5
  1
$PARTNUMBER._PART4
100
AcDbAttributeDefinition
  3

  2
NBSYN
 70
     8
280
     0
  0
ATTDEF
  5
EC
330
E4
100
AcDbEntity
  8
AM_6
100
AcDbText
 10
349.802460000005
 20
164.846249999999
 30
0.0
 40
0.5
  1
RXV12AVJU9_PART4
100
AcDbAttributeDefinition
  3

  2
LINA
 70
     8
280
     0
  0
ATTDEF
  5
ED
330
E4
100
AcDbEntity
  8
AM_6
100
AcDbText
 10
349.802460000005
 20
164.346249999999
 30
0.0
 40
0.5
  1
Daikin
100
AcDbAttributeDefinition
  3

  2
CATALOG
 70
     8
280
     0
  0
ATTDEF
  5
EE
330
E4
100
AcDbEntity
  8
AM_6
100
AcDbText
 10
349.802460000005
 20
163.846249999999
 30
0.0
 40
0.5
  1
RXV12AVJU9
100
AcDbAttributeDefinition
  3

  2
PARTNUMBER
 70
     8
280
     0
  0
ATTDEF
  5
EF
330
E4
100
AcDbEntity
  8
AM_6
100
AcDbText
 10
349.802460000005
 20
163.346249999999
 30
0.0
 40
0.5
  1
Single Zone Heat Pump Outdoor Unit
100
AcDbAttributeDefinition
  3

  2
DESCRIPTION
 70
     8
280
     0
  0
ATTDEF
  5
F0
330
E4
100
AcDbEntity
  8
AM_6
100
AcDbText
 10
349.802460000005
 20
162.846249999999
 30
0.0
 40
0.5
  1
11.18110
100
AcDbAttributeDefinition
  3

  2
OVERALL_DEPTH
 70
     8
280
     0
  0
ATTDEF
  5
F1
330
E4
100
AcDbEntity
  8
AM_6
100
AcDbText
 10
349.802460000005
 20
162.346249999999
 30
0.0
 40
0.5
  1
21.92913
100
AcDbAttributeDefinition
  3

  2
OVERALL_HEIGHT
 70
     8
280
     0
  0
ATTDEF
  5
F2
330
E4
100
AcDbEntity
  8
AM_6
100
AcDbText
 10
349.802460000005
 20
161.846249999999
 30
0.0
 40
0.5
  1
26.57480
100
AcDbAttributeDefinition
  3

  2
OVERALL_WIDTH
 70
     8
280
     0
  0
ATTDEF
  5
F3
330
E4
100
AcDbEntity
  8
AM_6
100
AcDbText
 10
349.802460000005
 20
161.346249999999
 30
0.0
 40
0.5
  1
https://daikincomfort.com/
100
AcDbAttributeDefinition
  3

  2
URL
 70
     8
280
     0
  0
ATTDEF
  5
F4
330
E4
100
AcDbEntity
  8
AM_6
100
AcDbText
 10
349.802460000005
 20
160.846249999999
 30
0.0
 40
0.5
  1
Download Revit Family (RFA)
100
AcDbAttributeDefinition
  3

  2
RFA_FAMILY
 70
     8
280
     0
  0
ATTDEF
  5
F5
330
E4
100
AcDbEntity
  8
AM_6
100
AcDbText
 10
349.802460000005
 20
160.346249999999
 30
0.0
 40
0.5
  1
daikin
100
AcDbAttributeDefinition
  3

  2
COMPANY
 70
     8
280
     0
  0
ATTDEF
  5
F6
330
E4
100
AcDbEntity
  8
AM_6
100
AcDbText
 10
349.802460000005
 20
159.846249999999
 30
0.0
 40
0.5
  1
{$CADENAS_DATA/23d-libs/daikin/single20zone20systems/single20zone20heat20pump20outdoor20units/28r322920heat20pump20unit20vista20single20zone20outdoor20daikin20rxv.prj},242 {VTYP=3D},{NB=RXV12AVJU9_PART4},{LINA=RXV12AVJU9_PART4},{NN=(R32) Heat Pump U
100
AcDbAttributeDefinition
  3

  2
PSOL_0
 70
     9
280
     0
  0
ATTDEF
  5
F7
330
E4
100
AcDbEntity
  8
AM_6
100
AcDbText
 10
349.802460000005
 20
159.346249999999
 30
0.0
 40
0.5
  1
sta Single Zone Outdoor Daikin RXV_PART4},{NOPRJ=TRUE},{DATE=29.07.2026 16:04:42},{GEOMDATE=08.07.2026 12:36:00},{VERSION=},{LINEID=40},{WBVAR=},{WBNUMERIC=}  {NB=RXV12AVJU9_PART4},{LINA=RXV12AVJU9_PART4},{KT=DUMMY},{PARTNUMBER=RXV12AVJU9},{PARTNUMB
100
AcDbAttributeDefinition
  3

  2
PSOL_1
 70
     9
280
     0
  0
ATTDEF
  5
F8
330
E4
100
AcDbEntity
  8
AM_6
100
AcDbText
 10
349.802460000005
 20
158.846249999999
 30
0.0
 40
0.5
  1
=1_RXV12AVJU9},{AMBIENT_TEMPERATURE=0},{APPARENT_POWER=3504},{ASSEMBLY_CODE=D3040600},{CATEGORY=Mechanical Equipment},{CLEARANCE_VISIBILITY=1},{COIL_AIR_PRESSURE_DROP=0},{COMPRESSOR_TYPE=Hermetically Sealed Swing Type},{CONDENSATE_DRAIN_CONNECTION_D
100
AcDbAttributeDefinition
  3

  2
PSOL_2
 70
     9
280
     0
  0
ATTDEF
  5
F9
330
E4
100
AcDbEntity
  8
AM_6
100
AcDbText
 10
349.802460000005
 20
158.346249999999
 30
0.0
 40
0.5
  1
R=0.625},{CONDENSATE_DRAIN_CONNECTION_RADIUS=0.3125},{CONDENSATE_DRAIN_HORIZONTAL_OFFSET=1.33854166666667},{CONDENSATE_DRAIN_VERTICAL_OFFSET=0.838541666666667},{COST=0},{DEFAULT_ELEVATION=0},{DESCRIPTION=Single Zone Heat Pump Outdoor Unit},{DRAIN_FL
100
AcDbAttributeDefinition
  3

  2
PSOL_3
 70
     9
280
     0
  0
ATTDEF
  5
FA
330
E4
100
AcDbEntity
  8
AM_6
100
AcDbText
 10
349.802460000005
 20
157.846249999999
 30
0.0
 40
0.5
  1
{ENCLOSURE_DEPTH=0.890091666666667},{ENCLOSURE_WIDTH=2.10519166666667},{FACE_VELOCITY__FPM_=0},{FAN_TYPE=Propeller},{FAN_VENT_DEPTH=0.0416666666666667},{FEET_PRESSURE_DROP=0},{FREQUENCY=60},{LOAD_SUB_CLASSIFICATION_MOTOR=1},{MANUFACTURER=Daikin},{MA
100
AcDbAttributeDefinition
  3

  2
PSOL_4
 70
     9
280
     0
  0
ATTDEF
  5
FB
330
E4
100
AcDbEntity
  8
AM_6
100
AcDbText
 10
349.802460000005
 20
157.346249999999
 30
0.0
 40
0.5
  1
=1},{MAXIMUM_OVERCURRENT_PROTECTION=15},{MINIMUM_CIRCUIT_AMPS=14.6},{NOMINAL_COOLING_CAPACITY=10800},{NOMINAL_COOLING_CAPACITY__TONS_=1},{NOMINAL_HEATING_CAPACITY=13500},{NUMBER_OF_POLES=2},{OMNICLASS_NUMBER=23.33.17.13.11},{OVERALL_DEPTH=11.18110},
100
AcDbAttributeDefinition
  3

  2
PSOL_5
 70
     9
280
     0
  0
ATTDEF
  5
FC
330
E4
100
AcDbEntity
  8
AM_6
100
AcDbText
 10
349.802460000005
 20
156.846249999999
 30
0.0
 40
0.5
  1
LL_HEIGHT=21.92913},{OVERALL_WIDTH=26.57480},{PARTTYPE=Normal},{PHASE=1},{PRODUCT_PAGE_URL=https://daikincomfort.com/products/heating-cooling/single-split-ductless/heat-pumps/vista-ceiling-cassette},{REFRIGERANT_CHARGE=1.653},{REFRIGERANT_LIQUID_CON
100
AcDbAttributeDefinition
  3

  2
PSOL_6
 70
     9
280
     0
  0
ATTDEF
  5
FD
330
E4
100
AcDbEntity
  8
AM_6
100
AcDbText
 10
349.802460000005
 20
156.346249999999
 30
0.0
 40
0.5
  1
N_DIAMETER=0.25},{REFRIGERANT_LIQUID_CONNECTION_HORIZONTAL_OFFSET=0.0677083333333333},{REFRIGERANT_LIQUID_CONNECTION_RADIUS=0.0104166666666667},{REFRIGERANT_LIQUID_CONNECTION_VERTICAL_OFFSET=0.536458333333333},{REFRIGERANT_PIPE_OFFSET=0.520833333333
100
AcDbAttributeDefinition
  3

  2
PSOL_7
 70
     9
280
     0
  0
ATTDEF
  5
FE
330
E4
100
AcDbEntity
  8
AM_6
100
AcDbText
 10
349.802460000005
 20
155.846249999999
 30
0.0
 40
0.5
  1
REFRIGERANT_SUCTION_GAS_CONNECTION_DIAMETER=0.375},{REFRIGERANT_SUCTION_GAS_CONNECTION_HORIZONTAL_OFFSET=0.0677083333333333},{REFRIGERANT_SUCTION_GAS_CONNECTION_RADIUS=0.015625},{REFRIGERANT_SUCTION_GAS_CONNECTION_VERTICAL_OFFSET=0.34375},{REFRIGERA
100
AcDbAttributeDefinition
  3

  2
PSOL_8
 70
     9
280
     0
  0
ATTDEF
  5
FF
330
E4
100
AcDbEntity
  8
AM_6
100
AcDbText
 10
349.802460000005
 20
155.346249999999
 30
0.0
 40
0.5
  1
D=R-32},{SENSIBLE_COOLING_CAPACITY=0},{SERIES=Vista},{SYSTEM_PERFORMANCE_EER2=11.5},{SYSTEM_PERFORMANCE_HSPF2=9.0},{SYSTEM_PERFORMANCE_SEER2=19.5},{TOTAL_COOLING_CAPACITY=0},{TOTAL_STATIC_PRESSURE=0},{UNIT_BACK_CLEARANCE=0.489583333333333},{UNIT_FRO
100
AcDbAttributeDefinition
  3

  2
PSOL_9
 70
     9
280
     0
  0
ATTDEF
  5
100
330
E4
100
AcDbEntity
  8
AM_6
100
AcDbText
 10
349.802460000005
 20
154.846249999999
 30
0.0
 40
0.5
  1
ARANCE=0.984375},{UNIT_LEFT_CLEARANCE=0.161458333333333},{UNIT_LEG_SPACING=1.54166666666667},{UNIT_WEIGHT=63.8},{URL=https://daikincomfort.com/},{VALVE_COVER_DEPTH=0.109375},{VALVE_COVER_HEIGHT=0.859375},{VERSION=1},{VOLTAGE=240},{VOLTAGE_COMMENTS=2
100
AcDbAttributeDefinition
  3

  2
PSOL_10
 70
     9
280
     0
  0
ATTDEF
  5
101
330
E4
100
AcDbEntity
  8
AM_6
100
AcDbText
 10
349.802460000005
 20
154.346249999999
 30
0.0
 40
0.5
  1
 - 230 VAC},{RFA_FAMILY=Download Revit Family (RFA)},{DEFAULTSORTATTR=3},{RFA_FAMILY_=../../_pool_/1f/df/heat_pump_unit-single_zone-outdoor-daikin-rxv.zip},{RFA_FAMILY_ENG=../../_pool_/1f/df/heat_pump_unit-single_zone-outdoor-daikin-rxv.zip},{REVIT_
100
AcDbAttributeDefinition
  3

  2
PSOL_11
 70
     9
280
     0
  0
ATTDEF
  5
102
330
E4
100
AcDbEntity
  8
AM_6
100
AcDbText
 10
349.802460000005
 20
153.846249999999
 30
0.0
 40
0.5
  1
_DOWNLOAD=../../_pool_/1f/df/heat_pump_unit-single_zone-outdoor-daikin-rxv.zip}
100
AcDbAttributeDefinition
  3

  2
PSOL_12
 70
     9
280
     0
  0
CIRCLE
  5
105
330
E4
100
AcDbEntity
  8
AM_9
100
AcDbCircle
 10
341.468710000005
 20
163.512499999999
 30
0.0
 40
3.175
  0
LINE
  5
108
330
E4
100
AcDbEntity
  8
AM_7
100
AcDbLine
 10
338.134960000005
 20
163.512499999999
 30
0.0
 11
344.802460000005
 21
163.512499999999
 31
0.0
  0
LINE
  5
109
330
E4
100
AcDbEntity
  8
AM_7
100
AcDbLine
 10
341.468710000005
 20
160.178749999999
 30
0.0
 11
341.468710000005
 21
166.846249999999
 31
0.0
  0
ENDBLK
  5
E7
330
E4
100
AcDbEntity
  8
0
100
AcDbBlockEnd
  0
BLOCK
  5
10C
330
10A
100
AcDbEntity
  8
0
100
AcDbBlockBegin
  2
5_RXV12AVJU9_PART3_0_in_RXV12AVJU9_0
 70
     2
 10
0.0
 20
0.0
 30
0.0
  3
5_RXV12AVJU9_PART3_0_in_RXV12AVJU9_0
  1

  0
ATTDEF
  5
10E
330
10A
100
AcDbEntity
  8
AM_6
100
AcDbText
 10
351.469335
 20
109.775624999999
 30
0.0
 40
0.5
  1
RXV12AVJU9_PART3
100
AcDbAttributeDefinition
  3

  2
NB
 70
     8
280
     0
  0
ATTDEF
  5
10F
330
10A
100
AcDbEntity
  8
AM_6
100
AcDbText
 10
351.469335
 20
109.275624999999
 30
0.0
 40
0.5
  1

100
AcDbAttributeDefinition
  3

  2
NN
 70
     8
280
     0
  0
ATTDEF
  5
110
330
10A
100
AcDbEntity
  8
AM_6
100
AcDbText
 10
351.469335
 20
108.775624999999
 30
0.0
 40
0.5
  1

100
AcDbAttributeDefinition
  3

  2
NT
 70
     8
280
     0
  0
ATTDEF
  5
111
330
10A
100
AcDbEntity
  8
AM_6
100
AcDbText
 10
351.469335
 20
108.275624999999
 30
0.0
 40
0.5
  1
$PARTNUMBER._PART3
100
AcDbAttributeDefinition
  3

  2
NBSYN
 70
     8
280
     0
  0
ATTDEF
  5
112
330
10A
100
AcDbEntity
  8
AM_6
100
AcDbText
 10
351.469335
 20
107.775624999999
 30
0.0
 40
0.5
  1
RXV12AVJU9_PART3
100
AcDbAttributeDefinition
  3

  2
LINA
 70
     8
280
     0
  0
ATTDEF
  5
113
330
10A
100
AcDbEntity
  8
AM_6
100
AcDbText
 10
351.469335
 20
107.275624999999
 30
0.0
 40
0.5
  1
Daikin
100
AcDbAttributeDefinition
  3

  2
CATALOG
 70
     8
280
     0
  0
ATTDEF
  5
114
330
10A
100
AcDbEntity
  8
AM_6
100
AcDbText
 10
351.469335
 20
106.775624999999
 30
0.0
 40
0.5
  1
RXV12AVJU9
100
AcDbAttributeDefinition
  3

  2
PARTNUMBER
 70
     8
280
     0
  0
ATTDEF
  5
115
330
10A
100
AcDbEntity
  8
AM_6
100
AcDbText
 10
351.469335
 20
106.275624999999
 30
0.0
 40
0.5
  1
Single Zone Heat Pump Outdoor Unit
100
AcDbAttributeDefinition
  3

  2
DESCRIPTION
 70
     8
280
     0
  0
ATTDEF
  5
116
330
10A
100
AcDbEntity
  8
AM_6
100
AcDbText
 10
351.469335
 20
105.775624999999
 30
0.0
 40
0.5
  1
11.18110
100
AcDbAttributeDefinition
  3

  2
OVERALL_DEPTH
 70
     8
280
     0
  0
ATTDEF
  5
117
330
10A
100
AcDbEntity
  8
AM_6
100
AcDbText
 10
351.469335
 20
105.275624999999
 30
0.0
 40
0.5
  1
21.92913
100
AcDbAttributeDefinition
  3

  2
OVERALL_HEIGHT
 70
     8
280
     0
  0
ATTDEF
  5
118
330
10A
100
AcDbEntity
  8
AM_6
100
AcDbText
 10
351.469335
 20
104.775624999999
 30
0.0
 40
0.5
  1
26.57480
100
AcDbAttributeDefinition
  3

  2
OVERALL_WIDTH
 70
     8
280
     0
  0
ATTDEF
  5
119
330
10A
100
AcDbEntity
  8
AM_6
100
AcDbText
 10
351.469335
 20
104.275624999999
 30
0.0
 40
0.5
  1
https://daikincomfort.com/
100
AcDbAttributeDefinition
  3

  2
URL
 70
     8
280
     0
  0
ATTDEF
  5
11A
330
10A
100
AcDbEntity
  8
AM_6
100
AcDbText
 10
351.469335
 20
103.775624999999
 30
0.0
 40
0.5
  1
Download Revit Family (RFA)
100
AcDbAttributeDefinition
  3

  2
RFA_FAMILY
 70
     8
280
     0
  0
ATTDEF
  5
11B
330
10A
100
AcDbEntity
  8
AM_6
100
AcDbText
 10
351.469335
 20
103.275624999999
 30
0.0
 40
0.5
  1
daikin
100
AcDbAttributeDefinition
  3

  2
COMPANY
 70
     8
280
     0
  0
ATTDEF
  5
11C
330
10A
100
AcDbEntity
  8
AM_6
100
AcDbText
 10
351.469335
 20
102.775624999999
 30
0.0
 40
0.5
  1
{$CADENAS_DATA/23d-libs/daikin/single20zone20systems/single20zone20heat20pump20outdoor20units/28r322920heat20pump20unit20vista20single20zone20outdoor20daikin20rxv.prj},242 {VTYP=3D},{NB=RXV12AVJU9_PART3},{LINA=RXV12AVJU9_PART3},{NN=(R32) Heat Pump U
100
AcDbAttributeDefinition
  3

  2
PSOL_0
 70
     9
280
     0
  0
ATTDEF
  5
11D
330
10A
100
AcDbEntity
  8
AM_6
100
AcDbText
 10
351.469335
 20
102.275624999999
 30
0.0
 40
0.5
  1
sta Single Zone Outdoor Daikin RXV_PART3},{NOPRJ=TRUE},{DATE=29.07.2026 16:04:42},{GEOMDATE=08.07.2026 12:36:00},{VERSION=},{LINEID=40},{WBVAR=},{WBNUMERIC=}  {NB=RXV12AVJU9_PART3},{LINA=RXV12AVJU9_PART3},{KT=DUMMY},{PARTNUMBER=RXV12AVJU9},{PARTNUMB
100
AcDbAttributeDefinition
  3

  2
PSOL_1
 70
     9
280
     0
  0
ATTDEF
  5
11E
330
10A
100
AcDbEntity
  8
AM_6
100
AcDbText
 10
351.469335
 20
101.775624999999
 30
0.0
 40
0.5
  1
=1_RXV12AVJU9},{AMBIENT_TEMPERATURE=0},{APPARENT_POWER=3504},{ASSEMBLY_CODE=D3040600},{CATEGORY=Mechanical Equipment},{CLEARANCE_VISIBILITY=1},{COIL_AIR_PRESSURE_DROP=0},{COMPRESSOR_TYPE=Hermetically Sealed Swing Type},{CONDENSATE_DRAIN_CONNECTION_D
100
AcDbAttributeDefinition
  3

  2
PSOL_2
 70
     9
280
     0
  0
ATTDEF
  5
11F
330
10A
100
AcDbEntity
  8
AM_6
100
AcDbText
 10
351.469335
 20
101.275624999999
 30
0.0
 40
0.5
  1
R=0.625},{CONDENSATE_DRAIN_CONNECTION_RADIUS=0.3125},{CONDENSATE_DRAIN_HORIZONTAL_OFFSET=1.33854166666667},{CONDENSATE_DRAIN_VERTICAL_OFFSET=0.838541666666667},{COST=0},{DEFAULT_ELEVATION=0},{DESCRIPTION=Single Zone Heat Pump Outdoor Unit},{DRAIN_FL
100
AcDbAttributeDefinition
  3

  2
PSOL_3
 70
     9
280
     0
  0
ATTDEF
  5
120
330
10A
100
AcDbEntity
  8
AM_6
100
AcDbText
 10
351.469335
 20
100.775624999999
 30
0.0
 40
0.5
  1
{ENCLOSURE_DEPTH=0.890091666666667},{ENCLOSURE_WIDTH=2.10519166666667},{FACE_VELOCITY__FPM_=0},{FAN_TYPE=Propeller},{FAN_VENT_DEPTH=0.0416666666666667},{FEET_PRESSURE_DROP=0},{FREQUENCY=60},{LOAD_SUB_CLASSIFICATION_MOTOR=1},{MANUFACTURER=Daikin},{MA
100
AcDbAttributeDefinition
  3

  2
PSOL_4
 70
     9
280
     0
  0
ATTDEF
  5
121
330
10A
100
AcDbEntity
  8
AM_6
100
AcDbText
 10
351.469335
 20
100.275624999999
 30
0.0
 40
0.5
  1
=1},{MAXIMUM_OVERCURRENT_PROTECTION=15},{MINIMUM_CIRCUIT_AMPS=14.6},{NOMINAL_COOLING_CAPACITY=10800},{NOMINAL_COOLING_CAPACITY__TONS_=1},{NOMINAL_HEATING_CAPACITY=13500},{NUMBER_OF_POLES=2},{OMNICLASS_NUMBER=23.33.17.13.11},{OVERALL_DEPTH=11.18110},
100
AcDbAttributeDefinition
  3

  2
PSOL_5
 70
     9
280
     0
  0
ATTDEF
  5
122
330
10A
100
AcDbEntity
  8
AM_6
100
AcDbText
 10
351.469335
 20
99.775624999999
 30
0.0
 40
0.5
  1
LL_HEIGHT=21.92913},{OVERALL_WIDTH=26.57480},{PARTTYPE=Normal},{PHASE=1},{PRODUCT_PAGE_URL=https://daikincomfort.com/products/heating-cooling/single-split-ductless/heat-pumps/vista-ceiling-cassette},{REFRIGERANT_CHARGE=1.653},{REFRIGERANT_LIQUID_CON
100
AcDbAttributeDefinition
  3

  2
PSOL_6
 70
     9
280
     0
  0
ATTDEF
  5
123
330
10A
100
AcDbEntity
  8
AM_6
100
AcDbText
 10
351.469335
 20
99.275624999999
 30
0.0
 40
0.5
  1
N_DIAMETER=0.25},{REFRIGERANT_LIQUID_CONNECTION_HORIZONTAL_OFFSET=0.0677083333333333},{REFRIGERANT_LIQUID_CONNECTION_RADIUS=0.0104166666666667},{REFRIGERANT_LIQUID_CONNECTION_VERTICAL_OFFSET=0.536458333333333},{REFRIGERANT_PIPE_OFFSET=0.520833333333
100
AcDbAttributeDefinition
  3

  2
PSOL_7
 70
     9
280
     0
  0
ATTDEF
  5
124
330
10A
100
AcDbEntity
  8
AM_6
100
AcDbText
 10
351.469335
 20
98.775624999999
 30
0.0
 40
0.5
  1
REFRIGERANT_SUCTION_GAS_CONNECTION_DIAMETER=0.375},{REFRIGERANT_SUCTION_GAS_CONNECTION_HORIZONTAL_OFFSET=0.0677083333333333},{REFRIGERANT_SUCTION_GAS_CONNECTION_RADIUS=0.015625},{REFRIGERANT_SUCTION_GAS_CONNECTION_VERTICAL_OFFSET=0.34375},{REFRIGERA
100
AcDbAttributeDefinition
  3

  2
PSOL_8
 70
     9
280
     0
  0
ATTDEF
  5
125
330
10A
100
AcDbEntity
  8
AM_6
100
AcDbText
 10
351.469335
 20
98.275624999999
 30
0.0
 40
0.5
  1
D=R-32},{SENSIBLE_COOLING_CAPACITY=0},{SERIES=Vista},{SYSTEM_PERFORMANCE_EER2=11.5},{SYSTEM_PERFORMANCE_HSPF2=9.0},{SYSTEM_PERFORMANCE_SEER2=19.5},{TOTAL_COOLING_CAPACITY=0},{TOTAL_STATIC_PRESSURE=0},{UNIT_BACK_CLEARANCE=0.489583333333333},{UNIT_FRO
100
AcDbAttributeDefinition
  3

  2
PSOL_9
 70
     9
280
     0
  0
ATTDEF
  5
126
330
10A
100
AcDbEntity
  8
AM_6
100
AcDbText
 10
351.469335
 20
97.775624999999
 30
0.0
 40
0.5
  1
ARANCE=0.984375},{UNIT_LEFT_CLEARANCE=0.161458333333333},{UNIT_LEG_SPACING=1.54166666666667},{UNIT_WEIGHT=63.8},{URL=https://daikincomfort.com/},{VALVE_COVER_DEPTH=0.109375},{VALVE_COVER_HEIGHT=0.859375},{VERSION=1},{VOLTAGE=240},{VOLTAGE_COMMENTS=2
100
AcDbAttributeDefinition
  3

  2
PSOL_10
 70
     9
280
     0
  0
ATTDEF
  5
127
330
10A
100
AcDbEntity
  8
AM_6
100
AcDbText
 10
351.469335
 20
97.275624999999
 30
0.0
 40
0.5
  1
 - 230 VAC},{RFA_FAMILY=Download Revit Family (RFA)},{DEFAULTSORTATTR=3},{RFA_FAMILY_=../../_pool_/1f/df/heat_pump_unit-single_zone-outdoor-daikin-rxv.zip},{RFA_FAMILY_ENG=../../_pool_/1f/df/heat_pump_unit-single_zone-outdoor-daikin-rxv.zip},{REVIT_
100
AcDbAttributeDefinition
  3

  2
PSOL_11
 70
     9
280
     0
  0
ATTDEF
  5
128
330
10A
100
AcDbEntity
  8
AM_6
100
AcDbText
 10
351.469335
 20
96.775624999999
 30
0.0
 40
0.5
  1
_DOWNLOAD=../../_pool_/1f/df/heat_pump_unit-single_zone-outdoor-daikin-rxv.zip}
100
AcDbAttributeDefinition
  3

  2
PSOL_12
 70
     9
280
     0
  0
CIRCLE
  5
129
330
10A
100
AcDbEntity
  8
AM_9
100
AcDbCircle
 10
341.46871
 20
104.774999999999
 30
0.0
 40
4.7625
  0
LINE
  5
12A
330
10A
100
AcDbEntity
  8
AM_7
100
AcDbLine
 10
336.468085
 20
104.774999999999
 30
0.0
 11
346.469335
 21
104.774999999999
 31
0.0
  0
LINE
  5
12B
330
10A
100
AcDbEntity
  8
AM_7
100
AcDbLine
 10
341.46871
 20
99.774374999999
 30
0.0
 11
341.46871
 21
109.775624999999
 31
0.0
  0
ENDBLK
  5
10D
330
10A
100
AcDbEntity
  8
0
100
AcDbBlockEnd
  0
BLOCK
  5
12E
330
12C
100
AcDbEntity
  8
0
100
AcDbBlockBegin
  2
6_RXV12AVJU9_PART2_0_in_RXV12AVJU9_0
 70
     2
 10
0.0
 20
0.0
 30
0.0
  3
6_RXV12AVJU9_PART2_0_in_RXV12AVJU9_0
  1

  0
ATTDEF
  5
130
330
12C
100
AcDbEntity
  8
AM_6
100
AcDbText
 10
359.1687100000059
 20
556.9999020000661
 30
0.0
 40
0.5
  1
RXV12AVJU9_PART2
100
AcDbAttributeDefinition
  3

  2
NB
 70
     8
280
     0
  0
ATTDEF
  5
131
330
12C
100
AcDbEntity
  8
AM_6
100
AcDbText
 10
359.1687100000059
 20
556.4999020000661
 30
0.0
 40
0.5
  1

100
AcDbAttributeDefinition
  3

  2
NN
 70
     8
280
     0
  0
ATTDEF
  5
132
330
12C
100
AcDbEntity
  8
AM_6
100
AcDbText
 10
359.1687100000059
 20
555.9999020000661
 30
0.0
 40
0.5
  1

100
AcDbAttributeDefinition
  3

  2
NT
 70
     8
280
     0
  0
ATTDEF
  5
133
330
12C
100
AcDbEntity
  8
AM_6
100
AcDbText
 10
359.1687100000059
 20
555.4999020000661
 30
0.0
 40
0.5
  1
$PARTNUMBER._PART2
100
AcDbAttributeDefinition
  3

  2
NBSYN
 70
     8
280
     0
  0
ATTDEF
  5
134
330
12C
100
AcDbEntity
  8
AM_6
100
AcDbText
 10
359.1687100000059
 20
554.9999020000661
 30
0.0
 40
0.5
  1
RXV12AVJU9_PART2
100
AcDbAttributeDefinition
  3

  2
LINA
 70
     8
280
     0
  0
ATTDEF
  5
135
330
12C
100
AcDbEntity
  8
AM_6
100
AcDbText
 10
359.1687100000059
 20
554.4999020000661
 30
0.0
 40
0.5
  1
Daikin
100
AcDbAttributeDefinition
  3

  2
CATALOG
 70
     8
280
     0
  0
ATTDEF
  5
136
330
12C
100
AcDbEntity
  8
AM_6
100
AcDbText
 10
359.1687100000059
 20
553.9999020000661
 30
0.0
 40
0.5
  1
RXV12AVJU9
100
AcDbAttributeDefinition
  3

  2
PARTNUMBER
 70
     8
280
     0
  0
ATTDEF
  5
137
330
12C
100
AcDbEntity
  8
AM_6
100
AcDbText
 10
359.1687100000059
 20
553.4999020000661
 30
0.0
 40
0.5
  1
Single Zone Heat Pump Outdoor Unit
100
AcDbAttributeDefinition
  3

  2
DESCRIPTION
 70
     8
280
     0
  0
ATTDEF
  5
138
330
12C
100
AcDbEntity
  8
AM_6
100
AcDbText
 10
359.1687100000059
 20
552.9999020000661
 30
0.0
 40
0.5
  1
11.18110
100
AcDbAttributeDefinition
  3

  2
OVERALL_DEPTH
 70
     8
280
     0
  0
ATTDEF
  5
139
330
12C
100
AcDbEntity
  8
AM_6
100
AcDbText
 10
359.1687100000059
 20
552.4999020000661
 30
0.0
 40
0.5
  1
21.92913
100
AcDbAttributeDefinition
  3

  2
OVERALL_HEIGHT
 70
     8
280
     0
  0
ATTDEF
  5
13A
330
12C
100
AcDbEntity
  8
AM_6
100
AcDbText
 10
359.1687100000059
 20
551.9999020000661
 30
0.0
 40
0.5
  1
26.57480
100
AcDbAttributeDefinition
  3

  2
OVERALL_WIDTH
 70
     8
280
     0
  0
ATTDEF
  5
13B
330
12C
100
AcDbEntity
  8
AM_6
100
AcDbText
 10
359.1687100000059
 20
551.4999020000661
 30
0.0
 40
0.5
  1
https://daikincomfort.com/
100
AcDbAttributeDefinition
  3

  2
URL
 70
     8
280
     0
  0
ATTDEF
  5
13C
330
12C
100
AcDbEntity
  8
AM_6
100
AcDbText
 10
359.1687100000059
 20
550.9999020000661
 30
0.0
 40
0.5
  1
Download Revit Family (RFA)
100
AcDbAttributeDefinition
  3

  2
RFA_FAMILY
 70
     8
280
     0
  0
ATTDEF
  5
13D
330
12C
100
AcDbEntity
  8
AM_6
100
AcDbText
 10
359.1687100000059
 20
550.4999020000661
 30
0.0
 40
0.5
  1
daikin
100
AcDbAttributeDefinition
  3

  2
COMPANY
 70
     8
280
     0
  0
ATTDEF
  5
13E
330
12C
100
AcDbEntity
  8
AM_6
100
AcDbText
 10
359.1687100000059
 20
549.9999020000661
 30
0.0
 40
0.5
  1
{$CADENAS_DATA/23d-libs/daikin/single20zone20systems/single20zone20heat20pump20outdoor20units/28r322920heat20pump20unit20vista20single20zone20outdoor20daikin20rxv.prj},242 {VTYP=3D},{NB=RXV12AVJU9_PART2},{LINA=RXV12AVJU9_PART2},{NN=(R32) Heat Pump U
100
AcDbAttributeDefinition
  3

  2
PSOL_0
 70
     9
280
     0
  0
ATTDEF
  5
13F
330
12C
100
AcDbEntity
  8
AM_6
100
AcDbText
 10
359.1687100000059
 20
549.4999020000661
 30
0.0
 40
0.5
  1
sta Single Zone Outdoor Daikin RXV_PART2},{NOPRJ=TRUE},{DATE=29.07.2026 16:04:42},{GEOMDATE=08.07.2026 12:36:00},{VERSION=},{LINEID=40},{WBVAR=},{WBNUMERIC=}  {NB=RXV12AVJU9_PART2},{LINA=RXV12AVJU9_PART2},{KT=DUMMY},{PARTNUMBER=RXV12AVJU9},{PARTNUMB
100
AcDbAttributeDefinition
  3

  2
PSOL_1
 70
     9
280
     0
  0
ATTDEF
  5
140
330
12C
100
AcDbEntity
  8
AM_6
100
AcDbText
 10
359.1687100000059
 20
548.9999020000661
 30
0.0
 40
0.5
  1
=1_RXV12AVJU9},{AMBIENT_TEMPERATURE=0},{APPARENT_POWER=3504},{ASSEMBLY_CODE=D3040600},{CATEGORY=Mechanical Equipment},{CLEARANCE_VISIBILITY=1},{COIL_AIR_PRESSURE_DROP=0},{COMPRESSOR_TYPE=Hermetically Sealed Swing Type},{CONDENSATE_DRAIN_CONNECTION_D
100
AcDbAttributeDefinition
  3

  2
PSOL_2
 70
     9
280
     0
  0
ATTDEF
  5
141
330
12C
100
AcDbEntity
  8
AM_6
100
AcDbText
 10
359.1687100000059
 20
548.4999020000661
 30
0.0
 40
0.5
  1
R=0.625},{CONDENSATE_DRAIN_CONNECTION_RADIUS=0.3125},{CONDENSATE_DRAIN_HORIZONTAL_OFFSET=1.33854166666667},{CONDENSATE_DRAIN_VERTICAL_OFFSET=0.838541666666667},{COST=0},{DEFAULT_ELEVATION=0},{DESCRIPTION=Single Zone Heat Pump Outdoor Unit},{DRAIN_FL
100
AcDbAttributeDefinition
  3

  2
PSOL_3
 70
     9
280
     0
  0
ATTDEF
  5
142
330
12C
100
AcDbEntity
  8
AM_6
100
AcDbText
 10
359.1687100000059
 20
547.9999020000661
 30
0.0
 40
0.5
  1
{ENCLOSURE_DEPTH=0.890091666666667},{ENCLOSURE_WIDTH=2.10519166666667},{FACE_VELOCITY__FPM_=0},{FAN_TYPE=Propeller},{FAN_VENT_DEPTH=0.0416666666666667},{FEET_PRESSURE_DROP=0},{FREQUENCY=60},{LOAD_SUB_CLASSIFICATION_MOTOR=1},{MANUFACTURER=Daikin},{MA
100
AcDbAttributeDefinition
  3

  2
PSOL_4
 70
     9
280
     0
  0
ATTDEF
  5
143
330
12C
100
AcDbEntity
  8
AM_6
100
AcDbText
 10
359.1687100000059
 20
547.4999020000661
 30
0.0
 40
0.5
  1
=1},{MAXIMUM_OVERCURRENT_PROTECTION=15},{MINIMUM_CIRCUIT_AMPS=14.6},{NOMINAL_COOLING_CAPACITY=10800},{NOMINAL_COOLING_CAPACITY__TONS_=1},{NOMINAL_HEATING_CAPACITY=13500},{NUMBER_OF_POLES=2},{OMNICLASS_NUMBER=23.33.17.13.11},{OVERALL_DEPTH=11.18110},
100
AcDbAttributeDefinition
  3

  2
PSOL_5
 70
     9
280
     0
  0
ATTDEF
  5
144
330
12C
100
AcDbEntity
  8
AM_6
100
AcDbText
 10
359.1687100000059
 20
546.9999020000661
 30
0.0
 40
0.5
  1
LL_HEIGHT=21.92913},{OVERALL_WIDTH=26.57480},{PARTTYPE=Normal},{PHASE=1},{PRODUCT_PAGE_URL=https://daikincomfort.com/products/heating-cooling/single-split-ductless/heat-pumps/vista-ceiling-cassette},{REFRIGERANT_CHARGE=1.653},{REFRIGERANT_LIQUID_CON
100
AcDbAttributeDefinition
  3

  2
PSOL_6
 70
     9
280
     0
  0
ATTDEF
  5
145
330
12C
100
AcDbEntity
  8
AM_6
100
AcDbText
 10
359.1687100000059
 20
546.4999020000661
 30
0.0
 40
0.5
  1
N_DIAMETER=0.25},{REFRIGERANT_LIQUID_CONNECTION_HORIZONTAL_OFFSET=0.0677083333333333},{REFRIGERANT_LIQUID_CONNECTION_RADIUS=0.0104166666666667},{REFRIGERANT_LIQUID_CONNECTION_VERTICAL_OFFSET=0.536458333333333},{REFRIGERANT_PIPE_OFFSET=0.520833333333
100
AcDbAttributeDefinition
  3

  2
PSOL_7
 70
     9
280
     0
  0
ATTDEF
  5
146
330
12C
100
AcDbEntity
  8
AM_6
100
AcDbText
 10
359.1687100000059
 20
545.9999020000661
 30
0.0
 40
0.5
  1
REFRIGERANT_SUCTION_GAS_CONNECTION_DIAMETER=0.375},{REFRIGERANT_SUCTION_GAS_CONNECTION_HORIZONTAL_OFFSET=0.0677083333333333},{REFRIGERANT_SUCTION_GAS_CONNECTION_RADIUS=0.015625},{REFRIGERANT_SUCTION_GAS_CONNECTION_VERTICAL_OFFSET=0.34375},{REFRIGERA
100
AcDbAttributeDefinition
  3

  2
PSOL_8
 70
     9
280
     0
  0
ATTDEF
  5
147
330
12C
100
AcDbEntity
  8
AM_6
100
AcDbText
 10
359.1687100000059
 20
545.4999020000661
 30
0.0
 40
0.5
  1
D=R-32},{SENSIBLE_COOLING_CAPACITY=0},{SERIES=Vista},{SYSTEM_PERFORMANCE_EER2=11.5},{SYSTEM_PERFORMANCE_HSPF2=9.0},{SYSTEM_PERFORMANCE_SEER2=19.5},{TOTAL_COOLING_CAPACITY=0},{TOTAL_STATIC_PRESSURE=0},{UNIT_BACK_CLEARANCE=0.489583333333333},{UNIT_FRO
100
AcDbAttributeDefinition
  3

  2
PSOL_9
 70
     9
280
     0
  0
ATTDEF
  5
148
330
12C
100
AcDbEntity
  8
AM_6
100
AcDbText
 10
359.1687100000059
 20
544.9999020000661
 30
0.0
 40
0.5
  1
ARANCE=0.984375},{UNIT_LEFT_CLEARANCE=0.161458333333333},{UNIT_LEG_SPACING=1.54166666666667},{UNIT_WEIGHT=63.8},{URL=https://daikincomfort.com/},{VALVE_COVER_DEPTH=0.109375},{VALVE_COVER_HEIGHT=0.859375},{VERSION=1},{VOLTAGE=240},{VOLTAGE_COMMENTS=2
100
AcDbAttributeDefinition
  3

  2
PSOL_10
 70
     9
280
     0
  0
ATTDEF
  5
149
330
12C
100
AcDbEntity
  8
AM_6
100
AcDbText
 10
359.1687100000059
 20
544.4999020000661
 30
0.0
 40
0.5
  1
 - 230 VAC},{RFA_FAMILY=Download Revit Family (RFA)},{DEFAULTSORTATTR=3},{RFA_FAMILY_=../../_pool_/1f/df/heat_pump_unit-single_zone-outdoor-daikin-rxv.zip},{RFA_FAMILY_ENG=../../_pool_/1f/df/heat_pump_unit-single_zone-outdoor-daikin-rxv.zip},{REVIT_
100
AcDbAttributeDefinition
  3

  2
PSOL_11
 70
     9
280
     0
  0
ATTDEF
  5
14A
330
12C
100
AcDbEntity
  8
AM_6
100
AcDbText
 10
359.1687100000059
 20
543.9999020000661
 30
0.0
 40
0.5
  1
_DOWNLOAD=../../_pool_/1f/df/heat_pump_unit-single_zone-outdoor-daikin-rxv.zip}
100
AcDbAttributeDefinition
  3

  2
PSOL_12
 70
     9
280
     0
  0
LINE
  5
14B
330
12C
100
AcDbEntity
  8
AM_0
100
AcDbLine
 10
354.1687100000059
 20
242.887499999996
 30
0.0
 11
320.8312100000066
 21
261.9375000000003
 31
0.0
  0
LINE
  5
14C
330
12C
100
AcDbEntity
  8
AM_0
100
AcDbLine
 10
354.1687100000059
 20
242.887499999996
 30
0.0
 11
354.1687100000051
 21
38.099999999993
 31
0.0
  0
LINE
  5
14D
330
12C
100
AcDbEntity
  8
AM_0
100
AcDbLine
 10
320.8312100000665
 20
19.0500000000292
 30
0.0
 11
354.1687100000051
 21
38.099999999993
 31
0.0
  0
LINE
  5
14E
330
12C
100
AcDbEntity
  8
AM_0
100
AcDbLine
 10
-320.831209999991
 20
556.9999020000661
 30
0.0
 11
320.831210000008
 21
556.999902000066
 31
0.0
  0
LINE
  5
14F
330
12C
100
AcDbEntity
  8
AM_0
100
AcDbLine
 10
320.831210000008
 20
19.05000000006131
 30
0.0
 11
-320.831209999991
 21
19.0500000000613
 31
0.0
  0
LINE
  5
150
330
12C
100
AcDbEntity
  8
AM_0
100
AcDbLine
 10
320.831210000008
 20
556.999902000066
 30
0.0
 11
320.831210000008
 21
19.05000000006131
 31
0.0
  0
LINE
  5
151
330
12C
100
AcDbEntity
  8
AM_0
100
AcDbLine
 10
-320.831209999991
 20
556.9999020000661
 30
0.0
 11
-320.831209999991
 21
19.0500000000613
 31
0.0
  0
ENDBLK
  5
12F
330
12C
100
AcDbEntity
  8
0
100
AcDbBlockEnd
  0
BLOCK
  5
154
330
152
100
AcDbEntity
  8
0
100
AcDbBlockBegin
  2
7_RXV12AVJU9_PART1_0_in_RXV12AVJU9_0
 70
     2
 10
0.0
 20
0.0
 30
0.0
  3
7_RXV12AVJU9_PART1_0_in_RXV12AVJU9_0
  1

  0
ATTDEF
  5
156
330
152
100
AcDbEntity
  8
AM_6
100
AcDbText
 10
-74.2187899999912
 20
20.6374999999946
 30
0.0
 40
0.5
  1
RXV12AVJU9_PART1
100
AcDbAttributeDefinition
  3

  2
NB
 70
     8
280
     0
  0
ATTDEF
  5
157
330
152
100
AcDbEntity
  8
AM_6
100
AcDbText
 10
-74.2187899999912
 20
20.1374999999946
 30
0.0
 40
0.5
  1

100
AcDbAttributeDefinition
  3

  2
NN
 70
     8
280
     0
  0
ATTDEF
  5
158
330
152
100
AcDbEntity
  8
AM_6
100
AcDbText
 10
-74.2187899999912
 20
19.6374999999946
 30
0.0
 40
0.5
  1

100
AcDbAttributeDefinition
  3

  2
NT
 70
     8
280
     0
  0
ATTDEF
  5
159
330
152
100
AcDbEntity
  8
AM_6
100
AcDbText
 10
-74.2187899999912
 20
19.1374999999946
 30
0.0
 40
0.5
  1
$PARTNUMBER._PART1
100
AcDbAttributeDefinition
  3

  2
NBSYN
 70
     8
280
     0
  0
ATTDEF
  5
15A
330
152
100
AcDbEntity
  8
AM_6
100
AcDbText
 10
-74.2187899999912
 20
18.6374999999946
 30
0.0
 40
0.5
  1
RXV12AVJU9_PART1
100
AcDbAttributeDefinition
  3

  2
LINA
 70
     8
280
     0
  0
ATTDEF
  5
15B
330
152
100
AcDbEntity
  8
AM_6
100
AcDbText
 10
-74.2187899999912
 20
18.1374999999946
 30
0.0
 40
0.5
  1
Daikin
100
AcDbAttributeDefinition
  3

  2
CATALOG
 70
     8
280
     0
  0
ATTDEF
  5
15C
330
152
100
AcDbEntity
  8
AM_6
100
AcDbText
 10
-74.2187899999912
 20
17.6374999999946
 30
0.0
 40
0.5
  1
RXV12AVJU9
100
AcDbAttributeDefinition
  3

  2
PARTNUMBER
 70
     8
280
     0
  0
ATTDEF
  5
15D
330
152
100
AcDbEntity
  8
AM_6
100
AcDbText
 10
-74.2187899999912
 20
17.1374999999946
 30
0.0
 40
0.5
  1
Single Zone Heat Pump Outdoor Unit
100
AcDbAttributeDefinition
  3

  2
DESCRIPTION
 70
     8
280
     0
  0
ATTDEF
  5
15E
330
152
100
AcDbEntity
  8
AM_6
100
AcDbText
 10
-74.2187899999912
 20
16.6374999999946
 30
0.0
 40
0.5
  1
11.18110
100
AcDbAttributeDefinition
  3

  2
OVERALL_DEPTH
 70
     8
280
     0
  0
ATTDEF
  5
15F
330
152
100
AcDbEntity
  8
AM_6
100
AcDbText
 10
-74.2187899999912
 20
16.1374999999946
 30
0.0
 40
0.5
  1
21.92913
100
AcDbAttributeDefinition
  3

  2
OVERALL_HEIGHT
 70
     8
280
     0
  0
ATTDEF
  5
160
330
152
100
AcDbEntity
  8
AM_6
100
AcDbText
 10
-74.2187899999912
 20
15.6374999999946
 30
0.0
 40
0.5
  1
26.57480
100
AcDbAttributeDefinition
  3

  2
OVERALL_WIDTH
 70
     8
280
     0
  0
ATTDEF
  5
161
330
152
100
AcDbEntity
  8
AM_6
100
AcDbText
 10
-74.2187899999912
 20
15.1374999999946
 30
0.0
 40
0.5
  1
https://daikincomfort.com/
100
AcDbAttributeDefinition
  3

  2
URL
 70
     8
280
     0
  0
ATTDEF
  5
162
330
152
100
AcDbEntity
  8
AM_6
100
AcDbText
 10
-74.2187899999912
 20
14.6374999999946
 30
0.0
 40
0.5
  1
Download Revit Family (RFA)
100
AcDbAttributeDefinition
  3

  2
RFA_FAMILY
 70
     8
280
     0
  0
ATTDEF
  5
163
330
152
100
AcDbEntity
  8
AM_6
100
AcDbText
 10
-74.2187899999912
 20
14.1374999999946
 30
0.0
 40
0.5
  1
daikin
100
AcDbAttributeDefinition
  3

  2
COMPANY
 70
     8
280
     0
  0
ATTDEF
  5
164
330
152
100
AcDbEntity
  8
AM_6
100
AcDbText
 10
-74.2187899999912
 20
13.6374999999946
 30
0.0
 40
0.5
  1
{$CADENAS_DATA/23d-libs/daikin/single20zone20systems/single20zone20heat20pump20outdoor20units/28r322920heat20pump20unit20vista20single20zone20outdoor20daikin20rxv.prj},242 {VTYP=3D},{NB=RXV12AVJU9_PART1},{LINA=RXV12AVJU9_PART1},{NN=(R32) Heat Pump U
100
AcDbAttributeDefinition
  3

  2
PSOL_0
 70
     9
280
     0
  0
ATTDEF
  5
165
330
152
100
AcDbEntity
  8
AM_6
100
AcDbText
 10
-74.2187899999912
 20
13.1374999999946
 30
0.0
 40
0.5
  1
sta Single Zone Outdoor Daikin RXV_PART1},{NOPRJ=TRUE},{DATE=29.07.2026 16:04:42},{GEOMDATE=08.07.2026 12:36:00},{VERSION=},{LINEID=40},{WBVAR=},{WBNUMERIC=}  {NB=RXV12AVJU9_PART1},{LINA=RXV12AVJU9_PART1},{KT=DUMMY},{PARTNUMBER=RXV12AVJU9},{PARTNUMB
100
AcDbAttributeDefinition
  3

  2
PSOL_1
 70
     9
280
     0
  0
ATTDEF
  5
166
330
152
100
AcDbEntity
  8
AM_6
100
AcDbText
 10
-74.2187899999912
 20
12.6374999999946
 30
0.0
 40
0.5
  1
=1_RXV12AVJU9},{AMBIENT_TEMPERATURE=0},{APPARENT_POWER=3504},{ASSEMBLY_CODE=D3040600},{CATEGORY=Mechanical Equipment},{CLEARANCE_VISIBILITY=1},{COIL_AIR_PRESSURE_DROP=0},{COMPRESSOR_TYPE=Hermetically Sealed Swing Type},{CONDENSATE_DRAIN_CONNECTION_D
100
AcDbAttributeDefinition
  3

  2
PSOL_2
 70
     9
280
     0
  0
ATTDEF
  5
167
330
152
100
AcDbEntity
  8
AM_6
100
AcDbText
 10
-74.2187899999912
 20
12.1374999999946
 30
0.0
 40
0.5
  1
R=0.625},{CONDENSATE_DRAIN_CONNECTION_RADIUS=0.3125},{CONDENSATE_DRAIN_HORIZONTAL_OFFSET=1.33854166666667},{CONDENSATE_DRAIN_VERTICAL_OFFSET=0.838541666666667},{COST=0},{DEFAULT_ELEVATION=0},{DESCRIPTION=Single Zone Heat Pump Outdoor Unit},{DRAIN_FL
100
AcDbAttributeDefinition
  3

  2
PSOL_3
 70
     9
280
     0
  0
ATTDEF
  5
168
330
152
100
AcDbEntity
  8
AM_6
100
AcDbText
 10
-74.2187899999912
 20
11.6374999999946
 30
0.0
 40
0.5
  1
{ENCLOSURE_DEPTH=0.890091666666667},{ENCLOSURE_WIDTH=2.10519166666667},{FACE_VELOCITY__FPM_=0},{FAN_TYPE=Propeller},{FAN_VENT_DEPTH=0.0416666666666667},{FEET_PRESSURE_DROP=0},{FREQUENCY=60},{LOAD_SUB_CLASSIFICATION_MOTOR=1},{MANUFACTURER=Daikin},{MA
100
AcDbAttributeDefinition
  3

  2
PSOL_4
 70
     9
280
     0
  0
ATTDEF
  5
169
330
152
100
AcDbEntity
  8
AM_6
100
AcDbText
 10
-74.2187899999912
 20
11.1374999999946
 30
0.0
 40
0.5
  1
=1},{MAXIMUM_OVERCURRENT_PROTECTION=15},{MINIMUM_CIRCUIT_AMPS=14.6},{NOMINAL_COOLING_CAPACITY=10800},{NOMINAL_COOLING_CAPACITY__TONS_=1},{NOMINAL_HEATING_CAPACITY=13500},{NUMBER_OF_POLES=2},{OMNICLASS_NUMBER=23.33.17.13.11},{OVERALL_DEPTH=11.18110},
100
AcDbAttributeDefinition
  3

  2
PSOL_5
 70
     9
280
     0
  0
ATTDEF
  5
16A
330
152
100
AcDbEntity
  8
AM_6
100
AcDbText
 10
-74.2187899999912
 20
10.6374999999946
 30
0.0
 40
0.5
  1
LL_HEIGHT=21.92913},{OVERALL_WIDTH=26.57480},{PARTTYPE=Normal},{PHASE=1},{PRODUCT_PAGE_URL=https://daikincomfort.com/products/heating-cooling/single-split-ductless/heat-pumps/vista-ceiling-cassette},{REFRIGERANT_CHARGE=1.653},{REFRIGERANT_LIQUID_CON
100
AcDbAttributeDefinition
  3

  2
PSOL_6
 70
     9
280
     0
  0
ATTDEF
  5
16B
330
152
100
AcDbEntity
  8
AM_6
100
AcDbText
 10
-74.2187899999912
 20
10.1374999999946
 30
0.0
 40
0.5
  1
N_DIAMETER=0.25},{REFRIGERANT_LIQUID_CONNECTION_HORIZONTAL_OFFSET=0.0677083333333333},{REFRIGERANT_LIQUID_CONNECTION_RADIUS=0.0104166666666667},{REFRIGERANT_LIQUID_CONNECTION_VERTICAL_OFFSET=0.536458333333333},{REFRIGERANT_PIPE_OFFSET=0.520833333333
100
AcDbAttributeDefinition
  3

  2
PSOL_7
 70
     9
280
     0
  0
ATTDEF
  5
16C
330
152
100
AcDbEntity
  8
AM_6
100
AcDbText
 10
-74.2187899999912
 20
9.637499999994603
 30
0.0
 40
0.5
  1
REFRIGERANT_SUCTION_GAS_CONNECTION_DIAMETER=0.375},{REFRIGERANT_SUCTION_GAS_CONNECTION_HORIZONTAL_OFFSET=0.0677083333333333},{REFRIGERANT_SUCTION_GAS_CONNECTION_RADIUS=0.015625},{REFRIGERANT_SUCTION_GAS_CONNECTION_VERTICAL_OFFSET=0.34375},{REFRIGERA
100
AcDbAttributeDefinition
  3

  2
PSOL_8
 70
     9
280
     0
  0
ATTDEF
  5
16D
330
152
100
AcDbEntity
  8
AM_6
100
AcDbText
 10
-74.2187899999912
 20
9.137499999994603
 30
0.0
 40
0.5
  1
D=R-32},{SENSIBLE_COOLING_CAPACITY=0},{SERIES=Vista},{SYSTEM_PERFORMANCE_EER2=11.5},{SYSTEM_PERFORMANCE_HSPF2=9.0},{SYSTEM_PERFORMANCE_SEER2=19.5},{TOTAL_COOLING_CAPACITY=0},{TOTAL_STATIC_PRESSURE=0},{UNIT_BACK_CLEARANCE=0.489583333333333},{UNIT_FRO
100
AcDbAttributeDefinition
  3

  2
PSOL_9
 70
     9
280
     0
  0
ATTDEF
  5
16E
330
152
100
AcDbEntity
  8
AM_6
100
AcDbText
 10
-74.2187899999912
 20
8.637499999994603
 30
0.0
 40
0.5
  1
ARANCE=0.984375},{UNIT_LEFT_CLEARANCE=0.161458333333333},{UNIT_LEG_SPACING=1.54166666666667},{UNIT_WEIGHT=63.8},{URL=https://daikincomfort.com/},{VALVE_COVER_DEPTH=0.109375},{VALVE_COVER_HEIGHT=0.859375},{VERSION=1},{VOLTAGE=240},{VOLTAGE_COMMENTS=2
100
AcDbAttributeDefinition
  3

  2
PSOL_10
 70
     9
280
     0
  0
ATTDEF
  5
16F
330
152
100
AcDbEntity
  8
AM_6
100
AcDbText
 10
-74.2187899999912
 20
8.137499999994603
 30
0.0
 40
0.5
  1
 - 230 VAC},{RFA_FAMILY=Download Revit Family (RFA)},{DEFAULTSORTATTR=3},{RFA_FAMILY_=../../_pool_/1f/df/heat_pump_unit-single_zone-outdoor-daikin-rxv.zip},{RFA_FAMILY_ENG=../../_pool_/1f/df/heat_pump_unit-single_zone-outdoor-daikin-rxv.zip},{REVIT_
100
AcDbAttributeDefinition
  3

  2
PSOL_11
 70
     9
280
     0
  0
ATTDEF
  5
170
330
152
100
AcDbEntity
  8
AM_6
100
AcDbText
 10
-74.2187899999912
 20
7.637499999994603
 30
0.0
 40
0.5
  1
_DOWNLOAD=../../_pool_/1f/df/heat_pump_unit-single_zone-outdoor-daikin-rxv.zip}
100
AcDbAttributeDefinition
  3

  2
PSOL_12
 70
     9
280
     0
  0
LINE
  5
171
330
152
100
AcDbEntity
  8
AM_9
100
AcDbLine
 10
-95.0937899999912
 20
20.6374999999946
 30
0.0
 11
-95.0937899999912
 21
19.05
 31
0.0
  0
LINE
  5
172
330
152
100
AcDbEntity
  8
AM_9
100
AcDbLine
 10
-79.2187899999912
 20
19.05
 30
0.0
 11
-79.2187899999912
 21
20.6374999999946
 31
0.0
  0
LINE
  5
173
330
152
100
AcDbEntity
  8
AM_9
100
AcDbLine
 10
-95.0937899999912
 20
20.6374999999946
 30
0.0
 11
-79.2187899999912
 21
20.6374999999946
 31
0.0
  0
ENDBLK
  5
155
330
152
100
AcDbEntity
  8
0
100
AcDbBlockEnd
  0
ENDSEC
  0
SECTION
  2
ENTITIES
  0
ATTDEF
  5
5F
330
1F
100
AcDbEntity
  8
AM_6
100
AcDbText
 10
359.1687100000059
 20
556.9999020000661
 30
0.0
 40
0.5
  1
RXV12AVJU9
100
AcDbAttributeDefinition
  3

  2
NB
 70
     8
280
     0
  0
ATTDEF
  5
60
330
1F
100
AcDbEntity
  8
AM_6
100
AcDbText
 10
359.1687100000059
 20
556.4999020000661
 30
0.0
 40
0.5
  1
(R32) Heat Pump Unit Vista Single Zone Outdoor Daikin RXV
100
AcDbAttributeDefinition
  3

  2
NN
 70
     8
280
     0
  0
ATTDEF
  5
61
330
1F
100
AcDbEntity
  8
AM_6
100
AcDbText
 10
359.1687100000059
 20
555.9999020000661
 30
0.0
 40
0.5
  1

100
AcDbAttributeDefinition
  3

  2
NT
 70
     8
280
     0
  0
ATTDEF
  5
62
330
1F
100
AcDbEntity
  8
AM_6
100
AcDbText
 10
359.1687100000059
 20
555.4999020000661
 30
0.0
 40
0.5
  1
$PARTNUMBER.
100
AcDbAttributeDefinition
  3

  2
NBSYN
 70
     8
280
     0
  0
ATTDEF
  5
63
330
1F
100
AcDbEntity
  8
AM_6
100
AcDbText
 10
359.1687100000059
 20
554.9999020000661
 30
0.0
 40
0.5
  1
RXV12AVJU9
100
AcDbAttributeDefinition
  3

  2
LINA
 70
     8
280
     0
  0
ATTDEF
  5
64
330
1F
100
AcDbEntity
  8
AM_6
100
AcDbText
 10
359.1687100000059
 20
554.4999020000661
 30
0.0
 40
0.5
  1
Daikin
100
AcDbAttributeDefinition
  3

  2
CATALOG
 70
     8
280
     0
  0
ATTDEF
  5
65
330
1F
100
AcDbEntity
  8
AM_6
100
AcDbText
 10
359.1687100000059
 20
553.9999020000661
 30
0.0
 40
0.5
  1
RXV12AVJU9
100
AcDbAttributeDefinition
  3

  2
PARTNUMBER
 70
     8
280
     0
  0
ATTDEF
  5
66
330
1F
100
AcDbEntity
  8
AM_6
100
AcDbText
 10
359.1687100000059
 20
553.4999020000661
 30
0.0
 40
0.5
  1
Single Zone Heat Pump Outdoor Unit
100
AcDbAttributeDefinition
  3

  2
DESCRIPTION
 70
     8
280
     0
  0
ATTDEF
  5
67
330
1F
100
AcDbEntity
  8
AM_6
100
AcDbText
 10
359.1687100000059
 20
552.9999020000661
 30
0.0
 40
0.5
  1
11.18110
100
AcDbAttributeDefinition
  3

  2
OVERALL_DEPTH
 70
     8
280
     0
  0
ATTDEF
  5
68
330
1F
100
AcDbEntity
  8
AM_6
100
AcDbText
 10
359.1687100000059
 20
552.4999020000661
 30
0.0
 40
0.5
  1
21.92913
100
AcDbAttributeDefinition
  3

  2
OVERALL_HEIGHT
 70
     8
280
     0
  0
ATTDEF
  5
69
330
1F
100
AcDbEntity
  8
AM_6
100
AcDbText
 10
359.1687100000059
 20
551.9999020000661
 30
0.0
 40
0.5
  1
26.57480
100
AcDbAttributeDefinition
  3

  2
OVERALL_WIDTH
 70
     8
280
     0
  0
ATTDEF
  5
6A
330
1F
100
AcDbEntity
  8
AM_6
100
AcDbText
 10
359.1687100000059
 20
551.4999020000661
 30
0.0
 40
0.5
  1
https://daikincomfort.com/
100
AcDbAttributeDefinition
  3

  2
URL
 70
     8
280
     0
  0
ATTDEF
  5
6B
330
1F
100
AcDbEntity
  8
AM_6
100
AcDbText
 10
359.1687100000059
 20
550.9999020000661
 30
0.0
 40
0.5
  1
Download Revit Family (RFA)
100
AcDbAttributeDefinition
  3

  2
RFA_FAMILY
 70
     8
280
     0
  0
ATTDEF
  5
6C
330
1F
100
AcDbEntity
  8
AM_6
100
AcDbText
 10
359.1687100000059
 20
550.4999020000661
 30
0.0
 40
0.5
  1
daikin
100
AcDbAttributeDefinition
  3

  2
COMPANY
 70
     8
280
     0
  0
ATTDEF
  5
6D
330
1F
100
AcDbEntity
  8
AM_6
100
AcDbText
 10
359.1687100000059
 20
549.9999020000661
 30
0.0
 40
0.5
  1
{$CADENAS_DATA/23d-libs/daikin/single20zone20systems/single20zone20heat20pump20outdoor20units/28r322920heat20pump20unit20vista20single20zone20outdoor20daikin20rxv.prj},222 {STYP=ASS},{VTYP=3D},{NB=RXV12AVJU9},{LINA=RXV12AVJU9},{NN=(R32) Heat Pump Un
100
AcDbAttributeDefinition
  3

  2
PSOL_0
 70
     9
280
     0
  0
ATTDEF
  5
6E
330
1F
100
AcDbEntity
  8
AM_6
100
AcDbText
 10
359.1687100000059
 20
549.4999020000661
 30
0.0
 40
0.5
  1
ta Single Zone Outdoor Daikin RXV},{DATE=29.07.2026 16:04:42},{GEOMDATE=08.07.2026 12:36:00},{VERSION=},{LINEID=40},{WBVAR=},{WBNUMERIC=}  {NB=RXV12AVJU9},{LINA=RXV12AVJU9},{KT=DUMMY},{PARTNUMBER=RXV12AVJU9},{PARTNUMBERHELP=1_RXV12AVJU9},{AMBIENT_TE
100
AcDbAttributeDefinition
  3

  2
PSOL_1
 70
     9
280
     0
  0
ATTDEF
  5
6F
330
1F
100
AcDbEntity
  8
AM_6
100
AcDbText
 10
359.1687100000059
 20
548.9999020000661
 30
0.0
 40
0.5
  1
URE=0},{APPARENT_POWER=3504},{ASSEMBLY_CODE=D3040600},{CATEGORY=Mechanical Equipment},{CLEARANCE_VISIBILITY=1},{COIL_AIR_PRESSURE_DROP=0},{COMPRESSOR_TYPE=Hermetically Sealed Swing Type},{CONDENSATE_DRAIN_CONNECTION_DIAMETER=0.625},{CONDENSATE_DRAIN
100
AcDbAttributeDefinition
  3

  2
PSOL_2
 70
     9
280
     0
  0
ATTDEF
  5
70
330
1F
100
AcDbEntity
  8
AM_6
100
AcDbText
 10
359.1687100000059
 20
548.4999020000661
 30
0.0
 40
0.5
  1
CTION_RADIUS=0.3125},{CONDENSATE_DRAIN_HORIZONTAL_OFFSET=1.33854166666667},{CONDENSATE_DRAIN_VERTICAL_OFFSET=0.838541666666667},{COST=0},{DEFAULT_ELEVATION=0},{DESCRIPTION=Single Zone Heat Pump Outdoor Unit},{DRAIN_FLOW=0},{ENCLOSURE_DEPTH=0.8900916
100
AcDbAttributeDefinition
  3

  2
PSOL_3
 70
     9
280
     0
  0
ATTDEF
  5
71
330
1F
100
AcDbEntity
  8
AM_6
100
AcDbText
 10
359.1687100000059
 20
547.9999020000661
 30
0.0
 40
0.5
  1
67},{ENCLOSURE_WIDTH=2.10519166666667},{FACE_VELOCITY__FPM_=0},{FAN_TYPE=Propeller},{FAN_VENT_DEPTH=0.0416666666666667},{FEET_PRESSURE_DROP=0},{FREQUENCY=60},{LOAD_SUB_CLASSIFICATION_MOTOR=1},{MANUFACTURER=Daikin},{MASSUNIT=1},{MAXIMUM_OVERCURRENT_P
100
AcDbAttributeDefinition
  3

  2
PSOL_4
 70
     9
280
     0
  0
ATTDEF
  5
72
330
1F
100
AcDbEntity
  8
AM_6
100
AcDbText
 10
359.1687100000059
 20
547.4999020000661
 30
0.0
 40
0.5
  1
ION=15},{MINIMUM_CIRCUIT_AMPS=14.6},{NOMINAL_COOLING_CAPACITY=10800},{NOMINAL_COOLING_CAPACITY__TONS_=1},{NOMINAL_HEATING_CAPACITY=13500},{NUMBER_OF_POLES=2},{OMNICLASS_NUMBER=23.33.17.13.11},{OVERALL_DEPTH=11.18110},{OVERALL_HEIGHT=21.92913},{OVERA
100
AcDbAttributeDefinition
  3

  2
PSOL_5
 70
     9
280
     0
  0
ATTDEF
  5
73
330
1F
100
AcDbEntity
  8
AM_6
100
AcDbText
 10
359.1687100000059
 20
546.9999020000661
 30
0.0
 40
0.5
  1
TH=26.57480},{PARTTYPE=Normal},{PHASE=1},{PRODUCT_PAGE_URL=https://daikincomfort.com/products/heating-cooling/single-split-ductless/heat-pumps/vista-ceiling-cassette},{REFRIGERANT_CHARGE=1.653},{REFRIGERANT_LIQUID_CONNECTION_DIAMETER=0.25},{REFRIGER
100
AcDbAttributeDefinition
  3

  2
PSOL_6
 70
     9
280
     0
  0
ATTDEF
  5
74
330
1F
100
AcDbEntity
  8
AM_6
100
AcDbText
 10
359.1687100000059
 20
546.4999020000661
 30
0.0
 40
0.5
  1
QUID_CONNECTION_HORIZONTAL_OFFSET=0.0677083333333333},{REFRIGERANT_LIQUID_CONNECTION_RADIUS=0.0104166666666667},{REFRIGERANT_LIQUID_CONNECTION_VERTICAL_OFFSET=0.536458333333333},{REFRIGERANT_PIPE_OFFSET=0.520833333333333},{REFRIGERANT_SUCTION_GAS_CO
100
AcDbAttributeDefinition
  3

  2
PSOL_7
 70
     9
280
     0
  0
ATTDEF
  5
75
330
1F
100
AcDbEntity
  8
AM_6
100
AcDbText
 10
359.1687100000059
 20
545.9999020000661
 30
0.0
 40
0.5
  1
ON_DIAMETER=0.375},{REFRIGERANT_SUCTION_GAS_CONNECTION_HORIZONTAL_OFFSET=0.0677083333333333},{REFRIGERANT_SUCTION_GAS_CONNECTION_RADIUS=0.015625},{REFRIGERANT_SUCTION_GAS_CONNECTION_VERTICAL_OFFSET=0.34375},{REFRIGERANT_USED=R-32},{SENSIBLE_COOLING_
100
AcDbAttributeDefinition
  3

  2
PSOL_8
 70
     9
280
     0
  0
ATTDEF
  5
76
330
1F
100
AcDbEntity
  8
AM_6
100
AcDbText
 10
359.1687100000059
 20
545.4999020000661
 30
0.0
 40
0.5
  1
TY=0},{SERIES=Vista},{SYSTEM_PERFORMANCE_EER2=11.5},{SYSTEM_PERFORMANCE_HSPF2=9.0},{SYSTEM_PERFORMANCE_SEER2=19.5},{TOTAL_COOLING_CAPACITY=0},{TOTAL_STATIC_PRESSURE=0},{UNIT_BACK_CLEARANCE=0.489583333333333},{UNIT_FRONT_CLEARANCE=0.984375},{UNIT_LEF
100
AcDbAttributeDefinition
  3

  2
PSOL_9
 70
     9
280
     0
  0
ATTDEF
  5
77
330
1F
100
AcDbEntity
  8
AM_6
100
AcDbText
 10
359.1687100000059
 20
544.9999020000661
 30
0.0
 40
0.5
  1
RANCE=0.161458333333333},{UNIT_LEG_SPACING=1.54166666666667},{UNIT_WEIGHT=63.8},{URL=https://daikincomfort.com/},{VALVE_COVER_DEPTH=0.109375},{VALVE_COVER_HEIGHT=0.859375},{VERSION=1},{VOLTAGE=240},{VOLTAGE_COMMENTS=208 VAC - 230 VAC},{RFA_FAMILY=Do
100
AcDbAttributeDefinition
  3

  2
PSOL_10
 70
     9
280
     0
  0
ATTDEF
  5
78
330
1F
100
AcDbEntity
  8
AM_6
100
AcDbText
 10
359.1687100000059
 20
544.4999020000661
 30
0.0
 40
0.5
  1
 Revit Family (RFA)},{DEFAULTSORTATTR=3},{RFA_FAMILY_=../../_pool_/1f/df/heat_pump_unit-single_zone-outdoor-daikin-rxv.zip},{RFA_FAMILY_ENG=../../_pool_/1f/df/heat_pump_unit-single_zone-outdoor-daikin-rxv.zip},{REVIT_FAMILY_DOWNLOAD=../../_pool_/1f/
100
AcDbAttributeDefinition
  3

  2
PSOL_11
 70
     9
280
     0
  0
ATTDEF
  5
79
330
1F
100
AcDbEntity
  8
AM_6
100
AcDbText
 10
359.1687100000059
 20
543.9999020000661
 30
0.0
 40
0.5
  1
t_pump_unit-single_zone-outdoor-daikin-rxv.zip}
100
AcDbAttributeDefinition
  3

  2
PSOL_12
 70
     9
280
     0
  0
INSERT
  5
7B
330
1F
100
AcDbEntity
  8
0
100
AcDbBlockReference
  2
1_RXV12AVJU9_PART7_0_in_RXV12AVJU9_0
 10
0.0
 20
0.0
 30
0.0
  0
INSERT
  5
9F
330
1F
100
AcDbEntity
  8
0
100
AcDbBlockReference
  2
2_RXV12AVJU9_PART6_0_in_RXV12AVJU9_0
 10
0.0
 20
0.0
 30
0.0
  0
INSERT
  5
C2
330
1F
100
AcDbEntity
  8
0
100
AcDbBlockReference
  2
3_RXV12AVJU9_PART5_0_in_RXV12AVJU9_0
 10
0.0
 20
0.0
 30
0.0
  0
INSERT
  5
E5
330
1F
100
AcDbEntity
  8
0
100
AcDbBlockReference
  2
4_RXV12AVJU9_PART4_0_in_RXV12AVJU9_0
 10
0.0
 20
0.0
 30
0.0
  0
INSERT
  5
10B
330
1F
100
AcDbEntity
  8
0
100
AcDbBlockReference
  2
5_RXV12AVJU9_PART3_0_in_RXV12AVJU9_0
 10
0.0
 20
0.0
 30
0.0
  0
INSERT
  5
12D
330
1F
100
AcDbEntity
  8
0
100
AcDbBlockReference
  2
6_RXV12AVJU9_PART2_0_in_RXV12AVJU9_0
 10
0.0
 20
0.0
 30
0.0
  0
INSERT
  5
153
330
1F
100
AcDbEntity
  8
0
100
AcDbBlockReference
  2
7_RXV12AVJU9_PART1_0_in_RXV12AVJU9_0
 10
0.0
 20
0.0
 30
0.0
  0
ENDSEC
  0
SECTION
  2
OBJECTS
  0
DICTIONARY
  5
C
330
0
100
AcDbDictionary
281
     1
  3
ACAD_DETAILVIEWSTYLE
350
17B
  3
ACAD_GROUP
350
D
  3
ACAD_LAYOUT
350
1A
  3
ACAD_MATERIAL
350
43
  3
ACAD_MLEADERSTYLE
350
5B
  3
ACAD_MLINESTYLE
350
17
  3
ACAD_PLOTSETTINGS
350
19
  3
ACAD_PLOTSTYLENAME
350
E
  3
ACAD_SCALELIST
350
47
  3
ACAD_SECTIONVIEWSTYLE
350
17C
  3
ACAD_TABLESTYLE
350
59
  3
ACAD_VISUALSTYLE
350
2A
  3
ACDB_RECOMPOSE_DATA
350
178
  3
AcDbVariableDictionary
350
174
  0
SUN
  5
5D
330
29
100
AcDbSun
 90
        1
290
     0
 63
     7
421
 16777215
 40
1.0
291
     1
 91
  2455826
 92
 54000000
292
     0
 70
     2
 71
   256
280
     1
  0
DICTIONARY
  5
17B
102
{ACAD_REACTORS
330
C
102
}
330
C
100
AcDbDictionary
281
     1
  0
DICTIONARY
  5
D
102
{ACAD_REACTORS
330
C
102
}
330
C
100
AcDbDictionary
281
     1
  0
DICTIONARY
  5
1A
102
{ACAD_REACTORS
330
C
102
}
330
C
100
AcDbDictionary
281
     1
  3
Layout1
350
1E
  3
Layout2
350
26
  3
Model
350
22
  0
DICTIONARY
  5
43
102
{ACAD_REACTORS
330
C
102
}
330
C
100
AcDbDictionary
281
     1
  3
ByBlock
350
45
  3
ByLayer
350
44
  3
Global
350
46
  0
DICTIONARY
  5
5B
102
{ACAD_REACTORS
330
C
102
}
330
C
100
AcDbDictionary
281
     1
  3
Standard
350
5C
  0
DICTIONARY
  5
17
102
{ACAD_REACTORS
330
C
102
}
330
C
100
AcDbDictionary
281
     1
  3
Standard
350
18
  0
DICTIONARY
  5
19
102
{ACAD_REACTORS
330
C
102
}
330
C
100
AcDbDictionary
281
     1
  0
ACDBDICTIONARYWDFLT
  5
E
102
{ACAD_REACTORS
330
C
102
}
330
C
100
AcDbDictionary
281
     1
  3
Normal
350
F
100
AcDbDictionaryWithDefault
340
F
  0
DICTIONARY
  5
47
102
{ACAD_REACTORS
330
C
102
}
330
C
100
AcDbDictionary
281
     1
  3
A0
350
48
  3
A1
350
49
  3
A2
350
4A
  3
A3
350
4B
  3
A4
350
4C
  3
A5
350
4D
  3
A6
350
4E
  3
A7
350
4F
  3
A8
350
50
  3
A9
350
51
  3
B0
350
52
  3
B1
350
53
  3
B2
350
54
  3
B3
350
55
  3
B4
350
56
  3
B5
350
57
  3
B6
350
58
  0
DICTIONARY
  5
17C
102
{ACAD_REACTORS
330
C
102
}
330
C
100
AcDbDictionary
281
     1
  0
DICTIONARY
  5
59
102
{ACAD_REACTORS
330
C
102
}
330
C
100
AcDbDictionary
281
     1
  3
Standard
350
5A
  0
DICTIONARY
  5
2A
102
{ACAD_REACTORS
330
C
102
}
330
C
100
AcDbDictionary
281
     1
  3
2dWireframe
350
2F
  3
Basic
350
32
  3
Brighten
350
36
  3
ColorChange
350
3A
  3
Conceptual
350
34
  3
Dim
350
35
  3
EdgeColorOff
350
3D
  3
Facepattern
350
39
  3
Flat
350
2B
  3
FlatWithEdges
350
2C
  3
Gouraud
350
2D
  3
GouraudWithEdges
350
2E
  3
Hidden
350
31
  3
JitterOff
350
3B
  3
Linepattern
350
38
  3
OverhangOff
350
3C
  3
Realistic
350
33
  3
Shaded
350
42
  3
Shaded with edges
350
41
  3
Shades of Gray
350
3E
  3
Sketchy
350
3F
  3
Thicken
350
37
  3
Wireframe
350
30
  3
X-Ray
350
40
  0
XRECORD
  5
178
102
{ACAD_REACTORS
330
C
102
}
330
C
100
AcDbXrecord
280
     1
 90
        1
330
5A
  0
DICTIONARY
  5
174
102
{ACAD_REACTORS
330
C
102
}
330
C
100
AcDbDictionary
281
     1
  3
CANNOSCALE
350
175
  3
CENTEREXE
350
17D
  3
CENTERLTYPEFILE
350
17E
  3
CMLEADERSTYLE
350
17A
  3
CTABLESTYLE
350
179
  0
LAYOUT
  5
1E
102
{ACAD_REACTORS
330
1A
102
}
330
1A
100
AcDbPlotSettings
  1

  2
none_device
  4

  6

 40
0.0
 41
0.0
 42
0.0
 43
0.0
 44
0.0
 45
0.0
 46
0.0
 47
0.0
 48
0.0
 49
0.0
140
0.0
141
0.0
142
1.0
143
1.0
 70
   688
 72
     1
 73
     0
 74
     5
  7

 75
    16
 76
     0
 77
     2
 78
   300
147
1.0
148
0.0
149
0.0
100
AcDbLayout
  1
Layout1
 70
     1
 71
     1
 10
0.0
 20
0.0
 11
420.0
 21
297.0
 12
0.0
 22
0.0
 32
0.0
 14
1.000000000000000E+20
 24
1.000000000000000E+20
 34
1.000000000000000E+20
 15
-1.000000000000000E+20
 25
-1.000000000000000E+20
 35
-1.000000000000000E+20
146
0.0
 13
0.0
 23
0.0
 33
0.0
 16
1.0
 26
0.0
 36
0.0
 17
0.0
 27
1.0
 37
0.0
 76
     0
330
1B
  0
LAYOUT
  5
26
102
{ACAD_REACTORS
330
1A
102
}
330
1A
100
AcDbPlotSettings
  1

  2
none_device
  4

  6

 40
0.0
 41
0.0
 42
0.0
 43
0.0
 44
0.0
 45
0.0
 46
0.0
 47
0.0
 48
0.0
 49
0.0
140
0.0
141
0.0
142
1.0
143
1.0
 70
   688
 72
     1
 73
     0
 74
     5
  7

 75
    16
 76
     0
 77
     2
 78
   300
147
1.0
148
0.0
149
0.0
100
AcDbLayout
  1
Layout2
 70
     1
 71
     2
 10
0.0
 20
0.0
 11
0.0
 21
0.0
 12
0.0
 22
0.0
 32
0.0
 14
0.0
 24
0.0
 34
0.0
 15
0.0
 25
0.0
 35
0.0
146
0.0
 13
0.0
 23
0.0
 33
0.0
 16
1.0
 26
0.0
 36
0.0
 17
0.0
 27
1.0
 37
0.0
 76
     0
330
23
  0
LAYOUT
  5
22
102
{ACAD_REACTORS
330
1A
102
}
330
1A
100
AcDbPlotSettings
  1

  2
none_device
  4
Letter_(8.50_x_11.00_Inches)
  6

 40
6.35
 41
6.35
 42
6.35000508
 43
6.35000508
 44
215.9
 45
279.4
 46
0.0
 47
0.0
 48
0.0
 49
0.0
140
0.0
141
0.0
142
1.0
143
1.0
 70
  1712
 72
     1
 73
     0
 74
     0
  7

 75
     0
 76
     0
 77
     2
 78
   300
147
1.0
148
0.0
149
0.0
100
AcDbLayout
  1
Model
 70
     1
 71
     0
 10
0.0
 20
0.0
 11
420.0
 21
297.0
 12
0.0
 22
0.0
 32
0.0
 14
-320.831209999991
 24
0.0
 34
0.0
 15
366.0856591525483
 25
557.5053257288796
 35
0.0
146
0.0
 13
0.0
 23
0.0
 33
0.0
 16
1.0
 26
0.0
 36
0.0
 17
0.0
 27
1.0
 37
0.0
 76
     0
330
1F
331
29
  0
MATERIAL
  5
45
102
{ACAD_REACTORS
330
43
102
}
330
43
100
AcDbMaterial
  1
ByBlock
 72
     1
 94
      127
  0
MATERIAL
  5
44
102
{ACAD_REACTORS
330
43
102
}
330
43
100
AcDbMaterial
  1
ByLayer
 72
     1
 94
      127
  0
MATERIAL
  5
46
102
{ACAD_REACTORS
330
43
102
}
330
43
100
AcDbMaterial
  1
Global
 72
     1
 94
      127
  0
MLEADERSTYLE
  5
5C
102
{ACAD_REACTORS
330
5B
102
}
330
5B
100
AcDbMLeaderStyle
179
     2
170
     2
171
     1
172
     0
 90
        2
 40
0.0
 41
0.0
173
     1
 91
-1056964608
340
14
 92
       -2
290
     1
 42
2.0
291
     1
 43
8.0
  3
Standard
341
0
 44
4.0
300

342
11
174
     1
178
     6
175
     1
176
     0
 93
-1056964608
 45
4.0
292
     0
297
     0
 46
4.0
343
0
 94
-1056964608
 47
1.0
 49
1.0
140
1.0
293
     1
141
0.0
294
     1
177
     0
142
1.0
295
     0
296
     0
143
3.75
271
     0
272
     9
273
     9
298
     0
  0
MLINESTYLE
  5
18
102
{ACAD_REACTORS
330
17
102
}
330
17
100
AcDbMlineStyle
  2
Standard
 70
     0
  3

 62
   256
 51
90.0
 52
90.0
 71
     2
 49
0.5
 62
   256
  6
BYLAYER
 49
-0.5
 62
   256
  6
BYLAYER
  0
ACDBPLACEHOLDER
  5
F
102
{ACAD_REACTORS
330
E
102
}
330
E
  0
SCALE
  5
48
102
{ACAD_REACTORS
330
47
102
}
330
47
100
AcDbScale
 70
     0
300
1:1
140
1.0
141
1.0
290
     1
  0
SCALE
  5
49
102
{ACAD_REACTORS
330
47
102
}
330
47
100
AcDbScale
 70
     0
300
1:2
140
1.0
141
2.0
290
     0
  0
SCALE
  5
4A
102
{ACAD_REACTORS
330
47
102
}
330
47
100
AcDbScale
 70
     0
300
1:4
140
1.0
141
4.0
290
     0
  0
SCALE
  5
4B
102
{ACAD_REACTORS
330
47
102
}
330
47
100
AcDbScale
 70
     0
300
1:5
140
1.0
141
5.0
290
     0
  0
SCALE
  5
4C
102
{ACAD_REACTORS
330
47
102
}
330
47
100
AcDbScale
 70
     0
300
1:8
140
1.0
141
8.0
290
     0
  0
SCALE
  5
4D
102
{ACAD_REACTORS
330
47
102
}
330
47
100
AcDbScale
 70
     0
300
1:10
140
1.0
141
10.0
290
     0
  0
SCALE
  5
4E
102
{ACAD_REACTORS
330
47
102
}
330
47
100
AcDbScale
 70
     0
300
1:16
140
1.0
141
16.0
290
     0
  0
SCALE
  5
4F
102
{ACAD_REACTORS
330
47
102
}
330
47
100
AcDbScale
 70
     0
300
1:20
140
1.0
141
20.0
290
     0
  0
SCALE
  5
50
102
{ACAD_REACTORS
330
47
102
}
330
47
100
AcDbScale
 70
     0
300
1:30
140
1.0
141
30.0
290
     0
  0
SCALE
  5
51
102
{ACAD_REACTORS
330
47
102
}
330
47
100
AcDbScale
 70
     0
300
1:40
140
1.0
141
40.0
290
     0
  0
SCALE
  5
52
102
{ACAD_REACTORS
330
47
102
}
330
47
100
AcDbScale
 70
     0
300
1:50
140
1.0
141
50.0
290
     0
  0
SCALE
  5
53
102
{ACAD_REACTORS
330
47
102
}
330
47
100
AcDbScale
 70
     0
300
1:100
140
1.0
141
100.0
290
     0
  0
SCALE
  5
54
102
{ACAD_REACTORS
330
47
102
}
330
47
100
AcDbScale
 70
     0
300
2:1
140
2.0
141
1.0
290
     0
  0
SCALE
  5
55
102
{ACAD_REACTORS
330
47
102
}
330
47
100
AcDbScale
 70
     0
300
4:1
140
4.0
141
1.0
290
     0
  0
SCALE
  5
56
102
{ACAD_REACTORS
330
47
102
}
330
47
100
AcDbScale
 70
     0
300
8:1
140
8.0
141
1.0
290
     0
  0
SCALE
  5
57
102
{ACAD_REACTORS
330
47
102
}
330
47
100
AcDbScale
 70
     0
300
10:1
140
10.0
141
1.0
290
     0
  0
SCALE
  5
58
102
{ACAD_REACTORS
330
47
102
}
330
47
100
AcDbScale
 70
     0
300
100:1
140
100.0
141
1.0
290
     0
  0
TABLESTYLE
  5
5A
102
{ACAD_REACTORS
330
59
102
}
102
{ACAD_XDICTIONARY
360
176
102
}
330
59
100
AcDbTableStyle
  3
Standard
 70
     0
 71
     0
 40
0.06
 41
0.06
280
     0
281
     0
  7
Standard
140
4.5
170
     2
 62
     0
 63
   257
283
     0
 90
        4
 91
        0
  1

274
    -2
284
     1
 64
     0
275
    -2
285
     1
 65
     0
276
    -2
286
     1
 66
     0
277
    -2
287
     1
 67
     0
278
    -2
288
     1
 68
     0
279
    -2
289
     1
 69
     0
  7
Standard
140
6.0
170
     5
 62
     0
 63
   257
283
     0
 90
        4
 91
        0
  1

274
    -2
284
     1
 64
     0
275
    -2
285
     1
 65
     0
276
    -2
286
     1
 66
     0
277
    -2
287
     1
 67
     0
278
    -2
288
     1
 68
     0
279
    -2
289
     1
 69
     0
  7
Standard
140
4.5
170
     5
 62
     0
 63
   257
283
     0
 90
        4
 91
        0
  1

274
    -2
284
     1
 64
     0
275
    -2
285
     1
 65
     0
276
    -2
286
     1
 66
     0
277
    -2
287
     1
 67
     0
278
    -2
288
     1
 68
     0
279
    -2
289
     1
 69
     0
  0
VISUALSTYLE
  5
2F
102
{ACAD_REACTORS
330
2A
102
}
330
2A
100
AcDbVisualStyle
  2
2dWireframe
 70
     4
177
     3
291
     0
 70
    58
 90
        0
176
     1
 90
        2
176
     1
 90
        0
176
     1
 90
        0
176
     1
 40
0.6
176
     1
 40
30.0
176
     1
 62
     7
420
 16777215
176
     1
 90
        1
176
     1
 90
        4
176
     1
 62
     7
176
     1
 62
   257
176
     1
 90
        1
176
     1
 90
        1
176
     1
 40
1.0
176
     1
 90
        0
176
     1
 62
   257
176
     1
 40
1.0
176
     1
 90
        1
176
     1
 90
        6
176
     1
 90
        2
176
     1
 62
     7
176
     1
 90
        5
176
     1
 90
        0
176
     1
 90
        0
176
     1
290
     0
176
     1
 90
        1
176
     1
 40
0.0
176
     1
 90
        0
176
     1
290
     1
176
     1
290
     1
176
     1
290
     0
176
     1
290
     0
176
     1
290
     0
176
     1
290
     0
176
     1
290
     0
176
     1
290
     0
176
     1
290
     0
176
     1
 90
       50
176
     1
 40
0.0
176
     1
 40
1.0
176
     1
 90
        0
176
     1
 62
    18
420
        0
176
     1
 90
       50
176
     1
 90
        3
176
     1
 62
     5
420
      255
176
     1
290
     0
176
     1
 90
       50
176
     1
 90
       50
176
     1
 90
       50
176
     1
290
     0
176
     1
 90
       50
176
     1
 62
   256
176
     0
 40
1.0
176
     0
 90
        2
176
     1
  1
strokes_ogs.tif
176
     1
290
     0
176
     1
 40
1.0
176
     1
 40
1.0
176
     1
  0
VISUALSTYLE
  5
32
102
{ACAD_REACTORS
330
2A
102
}
330
2A
100
AcDbVisualStyle
  2
Basic
 70
     7
177
     3
291
     1
 70
    58
 90
        1
176
     1
 90
        0
176
     1
 90
        1
176
     1
 90
        0
176
     1
 40
0.6
176
     1
 40
30.0
176
     1
 62
     7
420
 16777215
176
     1
 90
        0
176
     1
 90
        4
176
     1
 62
     7
176
     1
 62
   257
176
     1
 90
        1
176
     1
 90
        1
176
     1
 40
1.0
176
     1
 90
        8
176
     1
 62
     7
176
     1
 40
1.0
176
     1
 90
        1
176
     1
 90
        6
176
     1
 90
        2
176
     1
 62
     7
176
     1
 90
        5
176
     1
 90
        0
176
     1
 90
        0
176
     1
290
     0
176
     1
 90
        1
176
     1
 40
0.0
176
     1
 90
        0
176
     1
290
     0
176
     1
290
     1
176
     1
290
     1
176
     1
290
     0
176
     1
290
     0
176
     1
290
     0
176
     1
290
     0
176
     1
290
     0
176
     1
290
     0
176
     1
 90
       50
176
     1
 40
0.0
176
     1
 40
1.0
176
     1
 90
        0
176
     1
 62
    18
420
        0
176
     1
 90
       50
176
     1
 90
        3
176
     1
 62
     5
420
      255
176
     1
290
     0
176
     1
 90
       50
176
     1
 90
       50
176
     1
 90
       50
176
     1
290
     0
176
     1
 90
       50
176
     1
 62
   256
176
     0
 40
1.0
176
     0
 90
        2
176
     1
  1
strokes_ogs.tif
176
     1
290
     0
176
     1
 40
1.0
176
     1
 40
1.0
176
     1
  0
VISUALSTYLE
  5
36
102
{ACAD_REACTORS
330
2A
102
}
330
2A
100
AcDbVisualStyle
  2
Brighten
 70
    12
177
     3
291
     1
 70
    58
 90
        2
176
     1
 90
        2
176
     1
 90
        0
176
     1
 90
        0
176
     1
 40
0.6
176
     1
 40
30.0
176
     1
 62
     7
420
 16777215
176
     1
 90
        1
176
     1
 90
        4
176
     1
 62
     7
176
     1
 62
   257
176
     1
 90
        1
176
     1
 90
        1
176
     1
 40
1.0
176
     1
 90
        8
176
     1
 62
     7
176
     1
 40
1.0
176
     1
 90
        1
176
     1
 90
        6
176
     1
 90
        2
176
     1
 62
     7
176
     1
 90
        5
176
     1
 90
        0
176
     1
 90
        0
176
     1
290
     0
176
     1
 90
        1
176
     1
 40
50.0
176
     1
 90
        0
176
     1
290
     0
176
     1
290
     1
176
     1
290
     1
176
     1
290
     0
176
     1
290
     0
176
     1
290
     0
176
     1
290
     0
176
     1
290
     0
176
     1
290
     0
176
     1
 90
       50
176
     1
 40
0.0
176
     1
 40
1.0
176
     1
 90
        0
176
     1
 62
    18
420
        0
176
     1
 90
       50
176
     1
 90
        3
176
     1
 62
     5
420
      255
176
     1
290
     0
176
     1
 90
       50
176
     1
 90
       50
176
     1
 90
       50
176
     1
290
     0
176
     1
 90
       50
176
     1
 62
   256
176
     0
 40
1.0
176
     0
 90
        2
176
     1
  1
strokes_ogs.tif
176
     1
290
     0
176
     1
 40
1.0
176
     1
 40
1.0
176
     1
  0
VISUALSTYLE
  5
3A
102
{ACAD_REACTORS
330
2A
102
}
330
2A
100
AcDbVisualStyle
  2
ColorChange
 70
    16
177
     3
291
     1
 70
    58
 90
        2
176
     1
 90
        2
176
     1
 90
        3
176
     1
 90
        0
176
     1
 40
0.6
176
     1
 40
30.0
176
     1
 62
     8
420
  8421504
176
     1
 90
        1
176
     1
 90
        4
176
     1
 62
     7
176
     1
 62
   257
176
     1
 90
        1
176
     1
 90
        1
176
     1
 40
1.0
176
     1
 90
        8
176
     1
 62
     8
420
  8421504
176
     1
 40
1.0
176
     1
 90
        1
176
     1
 90
        6
176
     1
 90
        2
176
     1
 62
     7
176
     1
 90
        5
176
     1
 90
        0
176
     1
 90
        0
176
     1
290
     0
176
     1
 90
        1
176
     1
 40
0.0
176
     1
 90
        0
176
     1
290
     0
176
     1
290
     1
176
     1
290
     1
176
     1
290
     0
176
     1
290
     0
176
     1
290
     0
176
     1
290
     0
176
     1
290
     0
176
     1
290
     0
176
     1
 90
       50
176
     1
 40
0.0
176
     1
 40
1.0
176
     1
 90
        0
176
     1
 62
    18
420
        0
176
     1
 90
       50
176
     1
 90
        3
176
     1
 62
     5
420
      255
176
     1
290
     0
176
     1
 90
       50
176
     1
 90
       50
176
     1
 90
       50
176
     1
290
     0
176
     1
 90
       50
176
     1
 62
   256
176
     0
 40
1.0
176
     0
 90
        2
176
     1
  1
strokes_ogs.tif
176
     1
290
     0
176
     1
 40
1.0
176
     1
 40
1.0
176
     1
  0
VISUALSTYLE
  5
34
102
{ACAD_REACTORS
330
2A
102
}
330
2A
100
AcDbVisualStyle
  2
Conceptual
 70
     9
177
     3
291
     0
 70
    58
 90
        3
176
     1
 90
        2
176
     1
 90
        0
176
     1
 90
        0
176
     1
 40
0.6
176
     1
 40
30.0
176
     1
 62
     7
420
 16777215
176
     1
 90
        2
176
     1
 90
        2
176
     1
 62
     7
176
     1
 62
   257
176
     1
 90
        1
176
     1
 90
        1
176
     1
 40
179.0
176
     1
 90
        8
176
     1
 62
     7
176
     1
 40
1.0
176
     1
 90
        1
176
     1
 90
        6
176
     1
 90
        2
176
     1
 62
     7
176
     1
 90
        3
176
     1
 90
        0
176
     1
 90
        0
176
     1
290
     0
176
     1
 90
        1
176
     1
 40
0.0
176
     1
 90
        0
176
     1
290
     0
176
     1
290
     1
176
     1
290
     1
176
     1
290
     0
176
     1
290
     0
176
     1
290
     0
176
     1
290
     0
176
     1
290
     0
176
     1
290
     0
176
     1
 90
       50
176
     1
 40
0.0
176
     1
 40
1.0
176
     1
 90
        0
176
     1
 62
    18
420
        0
176
     1
 90
       50
176
     1
 90
        3
176
     1
 62
     5
420
      255
176
     1
290
     0
176
     1
 90
       50
176
     1
 90
       50
176
     1
 90
       50
176
     1
290
     0
176
     1
 90
       50
176
     1
 62
   256
176
     0
 40
1.0
176
     0
 90
        2
176
     1
  1
strokes_ogs.tif
176
     1
290
     0
176
     1
 40
1.0
176
     1
 40
1.0
176
     1
  0
VISUALSTYLE
  5
35
102
{ACAD_REACTORS
330
2A
102
}
330
2A
100
AcDbVisualStyle
  2
Dim
 70
    11
177
     3
291
     1
 70
    58
 90
        2
176
     1
 90
        2
176
     1
 90
        0
176
     1
 90
        0
176
     1
 40
0.6
176
     1
 40
30.0
176
     1
 62
     7
420
 16777215
176
     1
 90
        1
176
     1
 90
        4
176
     1
 62
     7
176
     1
 62
   257
176
     1
 90
        1
176
     1
 90
        1
176
     1
 40
1.0
176
     1
 90
        8
176
     1
 62
     7
176
     1
 40
1.0
176
     1
 90
        1
176
     1
 90
        6
176
     1
 90
        2
176
     1
 62
     7
176
     1
 90
        5
176
     1
 90
        0
176
     1
 90
        0
176
     1
290
     0
176
     1
 90
        1
176
     1
 40
-50.0
176
     1
 90
        0
176
     1
290
     0
176
     1
290
     1
176
     1
290
     1
176
     1
290
     0
176
     1
290
     0
176
     1
290
     0
176
     1
290
     0
176
     1
290
     0
176
     1
290
     0
176
     1
 90
       50
176
     1
 40
0.0
176
     1
 40
1.0
176
     1
 90
        0
176
     1
 62
    18
420
        0
176
     1
 90
       50
176
     1
 90
        3
176
     1
 62
     5
420
      255
176
     1
290
     0
176
     1
 90
       50
176
     1
 90
       50
176
     1
 90
       50
176
     1
290
     0
176
     1
 90
       50
176
     1
 62
   256
176
     0
 40
1.0
176
     0
 90
        2
176
     1
  1
strokes_ogs.tif
176
     1
290
     0
176
     1
 40
1.0
176
     1
 40
1.0
176
     1
  0
VISUALSTYLE
  5
3D
102
{ACAD_REACTORS
330
2A
102
}
330
2A
100
AcDbVisualStyle
  2
EdgeColorOff
 70
    22
177
     3
291
     1
 70
    58
 90
        2
176
     0
 90
        2
176
     0
 90
        0
176
     0
 90
        0
176
     0
 40
0.6
176
     0
 40
30.0
176
     0
 62
     7
420
 16777215
176
     0
 90
        1
176
     0
 90
        4
176
     0
 62
     7
176
     0
 62
   257
176
     0
 90
        1
176
     0
 90
        1
176
     0
 40
1.0
176
     0
 90
        8
176
     2
 62
     7
176
     0
 40
1.0
176
     0
 90
        1
176
     0
 90
        6
176
     0
 90
        2
176
     0
 62
     7
176
     0
 90
        5
176
     0
 90
        0
176
     0
 90
        0
176
     0
290
     0
176
     0
 90
        1
176
     0
 40
0.0
176
     0
 90
        0
176
     0
290
     0
176
     0
290
     1
176
     0
290
     1
176
     0
290
     0
176
     0
290
     0
176
     0
290
     0
176
     0
290
     0
176
     0
290
     0
176
     0
290
     0
176
     0
 90
       50
176
     0
 40
0.0
176
     0
 40
1.0
176
     0
 90
        0
176
     0
 62
    18
420
        0
176
     0
 90
       50
176
     0
 90
        3
176
     0
 62
     5
420
      255
176
     0
290
     0
176
     0
 90
       50
176
     0
 90
       50
176
     0
 90
       50
176
     0
290
     0
176
     0
 90
       50
176
     0
 62
   256
176
     0
 40
1.0
176
     0
 90
        2
176
     0
  1
strokes_ogs.tif
176
     0
290
     0
176
     0
 40
1.0
176
     0
 40
1.0
176
     0
  0
VISUALSTYLE
  5
39
102
{ACAD_REACTORS
330
2A
102
}
330
2A
100
AcDbVisualStyle
  2
Facepattern
 70
    15
177
     3
291
     1
 70
    58
 90
        2
176
     1
 90
        2
176
     1
 90
        0
176
     1
 90
        0
176
     1
 40
0.6
176
     1
 40
30.0
176
     1
 62
     7
420
 16777215
176
     1
 90
        1
176
     1
 90
        4
176
     1
 62
     7
176
     1
 62
   257
176
     1
 90
        1
176
     1
 90
        1
176
     1
 40
1.0
176
     1
 90
        8
176
     1
 62
     7
176
     1
 40
1.0
176
     1
 90
        1
176
     1
 90
        6
176
     1
 90
        2
176
     1
 62
     7
176
     1
 90
        5
176
     1
 90
        0
176
     1
 90
        0
176
     1
290
     0
176
     1
 90
        1
176
     1
 40
0.0
176
     1
 90
        0
176
     1
290
     0
176
     1
290
     1
176
     1
290
     1
176
     1
290
     0
176
     1
290
     0
176
     1
290
     0
176
     1
290
     0
176
     1
290
     0
176
     1
290
     0
176
     1
 90
       50
176
     1
 40
0.0
176
     1
 40
1.0
176
     1
 90
        0
176
     1
 62
    18
420
        0
176
     1
 90
       50
176
     1
 90
        3
176
     1
 62
     5
420
      255
176
     1
290
     0
176
     1
 90
       50
176
     1
 90
       50
176
     1
 90
       50
176
     1
290
     0
176
     1
 90
       50
176
     1
 62
   256
176
     0
 40
1.0
176
     0
 90
        2
176
     1
  1
strokes_ogs.tif
176
     1
290
     0
176
     1
 40
1.0
176
     1
 40
1.0
176
     1
  0
VISUALSTYLE
  5
2B
102
{ACAD_REACTORS
330
2A
102
}
330
2A
100
AcDbVisualStyle
  2
Flat
 70
     0
177
     3
291
     1
 70
    58
 90
        2
176
     1
 90
        1
176
     1
 90
        1
176
     1
 90
        2
176
     1
 40
0.6
176
     1
 40
30.0
176
     1
 62
     7
420
 16777215
176
     1
 90
        0
176
     1
 90
        0
176
     1
 62
     7
176
     1
 62
   257
176
     1
 90
        1
176
     1
 90
        1
176
     1
 40
1.0
176
     1
 90
        8
176
     1
 62
     7
176
     1
 40
1.0
176
     1
 90
        1
176
     1
 90
        6
176
     1
 90
        2
176
     1
 62
     7
176
     1
 90
        5
176
     1
 90
        0
176
     1
 90
        0
176
     1
290
     0
176
     1
 90
       13
176
     1
 40
0.0
176
     1
 90
        0
176
     1
290
     0
176
     1
290
     1
176
     1
290
     1
176
     1
290
     0
176
     1
290
     0
176
     1
290
     0
176
     1
290
     0
176
     1
290
     0
176
     1
290
     0
176
     1
 90
       50
176
     1
 40
0.0
176
     1
 40
1.0
176
     1
 90
        0
176
     1
 62
    18
420
        0
176
     1
 90
       50
176
     1
 90
        3
176
     1
 62
     5
420
      255
176
     1
290
     0
176
     1
 90
       50
176
     1
 90
       50
176
     1
 90
       50
176
     1
290
     0
176
     1
 90
       50
176
     1
 62
   256
176
     0
 40
1.0
176
     0
 90
        2
176
     1
  1
strokes_ogs.tif
176
     1
290
     0
176
     1
 40
1.0
176
     1
 40
1.0
176
     1
  0
VISUALSTYLE
  5
2C
102
{ACAD_REACTORS
330
2A
102
}
330
2A
100
AcDbVisualStyle
  2
FlatWithEdges
 70
     1
177
     3
291
     1
 70
    58
 90
        2
176
     1
 90
        1
176
     1
 90
        1
176
     1
 90
        2
176
     1
 40
0.6
176
     1
 40
30.0
176
     1
 62
     7
420
 16777215
176
     1
 90
        1
176
     1
 90
        0
176
     1
 62
     7
176
     1
 62
   257
176
     1
 90
        1
176
     1
 90
        1
176
     1
 40
1.0
176
     1
 90
        0
176
     1
 62
   257
176
     1
 40
1.0
176
     1
 90
        1
176
     1
 90
        6
176
     1
 90
        2
176
     1
 62
     7
176
     1
 90
        5
176
     1
 90
        0
176
     1
 90
        0
176
     1
290
     0
176
     1
 90
       13
176
     1
 40
0.0
176
     1
 90
        0
176
     1
290
     0
176
     1
290
     1
176
     1
290
     1
176
     1
290
     0
176
     1
290
     0
176
     1
290
     0
176
     1
290
     0
176
     1
290
     0
176
     1
290
     0
176
     1
 90
       50
176
     1
 40
0.0
176
     1
 40
1.0
176
     1
 90
        0
176
     1
 62
    18
420
        0
176
     1
 90
       50
176
     1
 90
        3
176
     1
 62
     5
420
      255
176
     1
290
     0
176
     1
 90
       50
176
     1
 90
       50
176
     1
 90
       50
176
     1
290
     0
176
     1
 90
       50
176
     1
 62
   256
176
     0
 40
1.0
176
     0
 90
        2
176
     1
  1
strokes_ogs.tif
176
     1
290
     0
176
     1
 40
1.0
176
     1
 40
1.0
176
     1
  0
VISUALSTYLE
  5
2D
102
{ACAD_REACTORS
330
2A
102
}
330
2A
100
AcDbVisualStyle
  2
Gouraud
 70
     2
177
     3
291
     1
 70
    58
 90
        2
176
     1
 90
        2
176
     1
 90
        1
176
     1
 90
        2
176
     1
 40
0.6
176
     1
 40
30.0
176
     1
 62
     7
420
 16777215
176
     1
 90
        0
176
     1
 90
        0
176
     1
 62
     7
176
     1
 62
   257
176
     1
 90
        1
176
     1
 90
        1
176
     1
 40
1.0
176
     1
 90
        0
176
     1
 62
     7
176
     1
 40
1.0
176
     1
 90
        1
176
     1
 90
        6
176
     1
 90
        2
176
     1
 62
     7
176
     1
 90
        5
176
     1
 90
        0
176
     1
 90
        0
176
     1
290
     0
176
     1
 90
       13
176
     1
 40
0.0
176
     1
 90
        0
176
     1
290
     0
176
     1
290
     1
176
     1
290
     1
176
     1
290
     0
176
     1
290
     0
176
     1
290
     0
176
     1
290
     0
176
     1
290
     0
176
     1
290
     0
176
     1
 90
       50
176
     1
 40
0.0
176
     1
 40
1.0
176
     1
 90
        0
176
     1
 62
    18
420
        0
176
     1
 90
       50
176
     1
 90
        3
176
     1
 62
     5
420
      255
176
     1
290
     0
176
     1
 90
       50
176
     1
 90
       50
176
     1
 90
       50
176
     1
290
     0
176
     1
 90
       50
176
     1
 62
   256
176
     0
 40
1.0
176
     0
 90
        2
176
     1
  1
strokes_ogs.tif
176
     1
290
     0
176
     1
 40
1.0
176
     1
 40
1.0
176
     1
  0
VISUALSTYLE
  5
2E
102
{ACAD_REACTORS
330
2A
102
}
330
2A
100
AcDbVisualStyle
  2
GouraudWithEdges
 70
     3
177
     3
291
     1
 70
    58
 90
        2
176
     1
 90
        2
176
     1
 90
        1
176
     1
 90
        2
176
     1
 40
0.6
176
     1
 40
30.0
176
     1
 62
     7
420
 16777215
176
     1
 90
        1
176
     1
 90
        0
176
     1
 62
     7
176
     1
 62
   257
176
     1
 90
        1
176
     1
 90
        1
176
     1
 40
1.0
176
     1
 90
        0
176
     1
 62
   257
176
     1
 40
1.0
176
     1
 90
        1
176
     1
 90
        6
176
     1
 90
        2
176
     1
 62
     7
176
     1
 90
        5
176
     1
 90
        0
176
     1
 90
        0
176
     1
290
     0
176
     1
 90
       13
176
     1
 40
0.0
176
     1
 90
        0
176
     1
290
     0
176
     1
290
     1
176
     1
290
     1
176
     1
290
     0
176
     1
290
     0
176
     1
290
     0
176
     1
290
     0
176
     1
290
     0
176
     1
290
     0
176
     1
 90
       50
176
     1
 40
0.0
176
     1
 40
1.0
176
     1
 90
        0
176
     1
 62
    18
420
        0
176
     1
 90
       50
176
     1
 90
        3
176
     1
 62
     5
420
      255
176
     1
290
     0
176
     1
 90
       50
176
     1
 90
       50
176
     1
 90
       50
176
     1
290
     0
176
     1
 90
       50
176
     1
 62
   256
176
     0
 40
1.0
176
     0
 90
        2
176
     1
  1
strokes_ogs.tif
176
     1
290
     0
176
     1
 40
1.0
176
     1
 40
1.0
176
     1
  0
VISUALSTYLE
  5
31
102
{ACAD_REACTORS
330
2A
102
}
330
2A
100
AcDbVisualStyle
  2
Hidden
 70
     6
177
     3
291
     0
 70
    58
 90
        1
176
     1
 90
        2
176
     1
 90
        2
176
     1
 90
        0
176
     1
 40
0.6
176
     1
 40
30.0
176
     1
 62
     7
420
 16777215
176
     1
 90
        2
176
     1
 90
        2
176
     1
 62
     7
176
     1
 62
   257
176
     1
 90
        2
176
     1
 90
        1
176
     1
 40
40.0
176
     1
 90
        0
176
     1
 62
   257
176
     1
 40
1.0
176
     1
 90
        1
176
     1
 90
        6
176
     1
 90
        2
176
     1
 62
     7
176
     1
 90
        3
176
     1
 90
        0
176
     1
 90
        0
176
     1
290
     0
176
     1
 90
        1
176
     1
 40
0.0
176
     1
 90
        0
176
     1
290
     0
176
     1
290
     1
176
     1
290
     1
176
     1
290
     0
176
     1
290
     0
176
     1
290
     0
176
     1
290
     0
176
     1
290
     0
176
     1
290
     0
176
     1
 90
       50
176
     1
 40
0.0
176
     1
 40
1.0
176
     1
 90
        0
176
     1
 62
    18
420
        0
176
     1
 90
       50
176
     1
 90
        3
176
     1
 62
     5
420
      255
176
     1
290
     0
176
     1
 90
       50
176
     1
 90
       50
176
     1
 90
       50
176
     1
290
     0
176
     1
 90
       50
176
     1
 62
   256
176
     0
 40
1.0
176
     0
 90
        2
176
     1
  1
strokes_ogs.tif
176
     1
290
     0
176
     1
 40
1.0
176
     1
 40
1.0
176
     1
  0
VISUALSTYLE
  5
3B
102
{ACAD_REACTORS
330
2A
102
}
330
2A
100
AcDbVisualStyle
  2
JitterOff
 70
    20
177
     3
291
     1
 70
    58
 90
        2
176
     0
 90
        2
176
     0
 90
        0
176
     0
 90
        0
176
     0
 40
0.6
176
     0
 40
30.0
176
     0
 62
     7
420
 16777215
176
     0
 90
        1
176
     0
 90
        4
176
     0
 62
     7
176
     0
 62
   257
176
     0
 90
        1
176
     0
 90
        1
176
     0
 40
1.0
176
     0
 90
       10
176
     2
 62
     7
176
     0
 40
1.0
176
     0
 90
        1
176
     0
 90
        6
176
     0
 90
        2
176
     0
 62
     7
176
     0
 90
        5
176
     0
 90
        0
176
     0
 90
        0
176
     0
290
     0
176
     0
 90
        1
176
     0
 40
0.0
176
     0
 90
        0
176
     0
290
     0
176
     0
290
     1
176
     0
290
     1
176
     0
290
     0
176
     0
290
     0
176
     0
290
     0
176
     0
290
     0
176
     0
290
     0
176
     0
290
     0
176
     0
 90
       50
176
     0
 40
0.0
176
     0
 40
1.0
176
     0
 90
        0
176
     0
 62
    18
420
        0
176
     0
 90
       50
176
     0
 90
        3
176
     0
 62
     5
420
      255
176
     0
290
     0
176
     0
 90
       50
176
     0
 90
       50
176
     0
 90
       50
176
     0
290
     0
176
     0
 90
       50
176
     0
 62
   256
176
     0
 40
1.0
176
     0
 90
        2
176
     0
  1
strokes_ogs.tif
176
     0
290
     0
176
     0
 40
1.0
176
     0
 40
1.0
176
     0
  0
VISUALSTYLE
  5
38
102
{ACAD_REACTORS
330
2A
102
}
330
2A
100
AcDbVisualStyle
  2
Linepattern
 70
    14
177
     3
291
     1
 70
    58
 90
        2
176
     1
 90
        2
176
     1
 90
        0
176
     1
 90
        0
176
     1
 40
0.6
176
     1
 40
30.0
176
     1
 62
     7
420
 16777215
176
     1
 90
        1
176
     1
 90
        4
176
     1
 62
     7
176
     1
 62
   257
176
     1
 90
        7
176
     1
 90
        7
176
     1
 40
1.0
176
     1
 90
        8
176
     1
 62
     7
176
     1
 40
1.0
176
     1
 90
        1
176
     1
 90
        6
176
     1
 90
        2
176
     1
 62
     7
176
     1
 90
        5
176
     1
 90
        0
176
     1
 90
        0
176
     1
290
     0
176
     1
 90
        1
176
     1
 40
0.0
176
     1
 90
        0
176
     1
290
     0
176
     1
290
     1
176
     1
290
     1
176
     1
290
     0
176
     1
290
     0
176
     1
290
     0
176
     1
290
     0
176
     1
290
     0
176
     1
290
     0
176
     1
 90
       50
176
     1
 40
0.0
176
     1
 40
1.0
176
     1
 90
        0
176
     1
 62
    18
420
        0
176
     1
 90
       50
176
     1
 90
        3
176
     1
 62
     5
420
      255
176
     1
290
     0
176
     1
 90
       50
176
     1
 90
       50
176
     1
 90
       50
176
     1
290
     0
176
     1
 90
       50
176
     1
 62
   256
176
     0
 40
1.0
176
     0
 90
        2
176
     1
  1
strokes_ogs.tif
176
     1
290
     0
176
     1
 40
1.0
176
     1
 40
1.0
176
     1
  0
VISUALSTYLE
  5
3C
102
{ACAD_REACTORS
330
2A
102
}
330
2A
100
AcDbVisualStyle
  2
OverhangOff
 70
    21
177
     3
291
     1
 70
    58
 90
        2
176
     0
 90
        2
176
     0
 90
        0
176
     0
 90
        0
176
     0
 40
0.6
176
     0
 40
30.0
176
     0
 62
     7
420
 16777215
176
     0
 90
        1
176
     0
 90
        4
176
     0
 62
     7
176
     0
 62
   257
176
     0
 90
        1
176
     0
 90
        1
176
     0
 40
1.0
176
     0
 90
        9
176
     2
 62
     7
176
     0
 40
1.0
176
     0
 90
        1
176
     0
 90
        6
176
     0
 90
        2
176
     0
 62
     7
176
     0
 90
        5
176
     0
 90
        0
176
     0
 90
        0
176
     0
290
     0
176
     0
 90
        1
176
     0
 40
0.0
176
     0
 90
        0
176
     0
290
     0
176
     0
290
     1
176
     0
290
     1
176
     0
290
     0
176
     0
290
     0
176
     0
290
     0
176
     0
290
     0
176
     0
290
     0
176
     0
290
     0
176
     0
 90
       50
176
     0
 40
0.0
176
     0
 40
1.0
176
     0
 90
        0
176
     0
 62
    18
420
        0
176
     0
 90
       50
176
     0
 90
        3
176
     0
 62
     5
420
      255
176
     0
290
     0
176
     0
 90
       50
176
     0
 90
       50
176
     0
 90
       50
176
     0
290
     0
176
     0
 90
       50
176
     0
 62
   256
176
     0
 40
1.0
176
     0
 90
        2
176
     0
  1
strokes_ogs.tif
176
     0
290
     0
176
     0
 40
1.0
176
     0
 40
1.0
176
     0
  0
VISUALSTYLE
  5
33
102
{ACAD_REACTORS
330
2A
102
}
330
2A
100
AcDbVisualStyle
  2
Realistic
 70
     8
177
     3
291
     0
 70
    58
 90
        2
176
     1
 90
        3
176
     1
 90
        0
176
     1
 90
        2
176
     1
 40
0.6
176
     1
 40
30.0
176
     1
 62
     7
420
 16777215
176
     1
 90
        0
176
     1
 90
        0
176
     1
 62
     7
176
     1
 62
   257
176
     1
 90
        1
176
     1
 90
        1
176
     1
 40
1.0
176
     1
 90
        8
176
     1
 62
   257
176
     1
 40
1.0
176
     1
 90
        1
176
     1
 90
        6
176
     1
 90
        2
176
     1
 62
     7
176
     1
 90
        3
176
     1
 90
        0
176
     1
 90
        0
176
     1
290
     0
176
     1
 90
       13
176
     1
 40
0.0
176
     1
 90
        0
176
     1
290
     0
176
     1
290
     1
176
     1
290
     1
176
     1
290
     0
176
     1
290
     0
176
     1
290
     0
176
     1
290
     0
176
     1
290
     0
176
     1
290
     0
176
     1
 90
       50
176
     1
 40
0.0
176
     1
 40
1.0
176
     1
 90
        0
176
     1
 62
    18
420
        0
176
     1
 90
       50
176
     1
 90
        3
176
     1
 62
     5
420
      255
176
     1
290
     0
176
     1
 90
       50
176
     1
 90
       50
176
     1
 90
       50
176
     1
290
     0
176
     1
 90
       50
176
     1
 62
   256
176
     0
 40
1.0
176
     0
 90
        2
176
     1
  1
strokes_ogs.tif
176
     1
290
     0
176
     1
 40
1.0
176
     1
 40
1.0
176
     1
  0
VISUALSTYLE
  5
42
102
{ACAD_REACTORS
330
2A
102
}
330
2A
100
AcDbVisualStyle
  2
Shaded
 70
    27
177
     3
291
     0
 70
    58
 90
        2
176
     1
 90
        2
176
     1
 90
        1
176
     1
 90
        2
176
     1
 40
0.6
176
     1
 40
30.0
176
     1
 62
     7
420
 16777215
176
     1
 90
        0
176
     1
 90
        4
176
     1
 62
     7
176
     1
 62
   257
176
     1
 90
        1
176
     1
 90
        1
176
     1
 40
1.0
176
     1
 90
        8
176
     1
 62
   257
176
     1
 40
1.0
176
     1
 90
        1
176
     1
 90
        6
176
     1
 90
        2
176
     1
 62
     8
420
  7895160
176
     1
 90
        3
176
     1
 90
        0
176
     1
 90
        0
176
     1
290
     0
176
     1
 90
        5
176
     1
 40
0.0
176
     1
 90
        0
176
     1
290
     0
176
     1
290
     1
176
     1
290
     1
176
     1
290
     0
176
     1
290
     0
176
     1
290
     0
176
     1
290
     0
176
     1
290
     0
176
     1
290
     0
176
     1
 90
       50
176
     1
 40
0.0
176
     1
 40
1.0
176
     1
 90
        0
176
     1
 62
    18
420
        0
176
     1
 90
       50
176
     1
 90
        3
176
     1
 62
     5
420
      255
176
     1
290
     0
176
     1
 90
       50
176
     1
 90
       50
176
     1
 90
       50
176
     1
290
     0
176
     1
 90
       50
176
     1
 62
   256
176
     0
 40
1.0
176
     0
 90
        2
176
     1
  1
strokes_ogs.tif
176
     1
290
     0
176
     1
 40
1.0
176
     1
 40
1.0
176
     1
  0
VISUALSTYLE
  5
41
102
{ACAD_REACTORS
330
2A
102
}
330
2A
100
AcDbVisualStyle
  2
Shaded with edges
 70
    26
177
     3
291
     0
 70
    58
 90
        2
176
     1
 90
        2
176
     1
 90
        1
176
     1
 90
        2
176
     1
 40
0.6
176
     1
 40
30.0
176
     1
 62
     7
420
 16777215
176
     1
 90
        1
176
     1
 90
       10
176
     1
 62
     7
176
     1
 62
   257
176
     1
 90
        2
176
     1
 90
        1
176
     1
 40
1.0
176
     1
 90
        8
176
     1
 62
   257
176
     1
 40
1.0
176
     1
 90
        1
176
     1
 90
        6
176
     1
 90
        2
176
     1
 62
     7
176
     1
 90
        3
176
     1
 90
        0
176
     1
 90
        0
176
     1
290
     0
176
     1
 90
        5
176
     1
 40
0.0
176
     1
 90
        0
176
     1
290
     0
176
     1
290
     1
176
     1
290
     1
176
     1
290
     0
176
     1
290
     0
176
     1
290
     0
176
     1
290
     0
176
     1
290
     0
176
     1
290
     0
176
     1
 90
       50
176
     1
 40
0.0
176
     1
 40
1.0
176
     1
 90
        0
176
     1
 62
    18
420
        0
176
     1
 90
       50
176
     1
 90
        3
176
     1
 62
     5
420
      255
176
     1
290
     0
176
     1
 90
       50
176
     1
 90
       50
176
     1
 90
       50
176
     1
290
     0
176
     1
 90
       50
176
     1
 62
   256
176
     0
 40
1.0
176
     0
 90
        2
176
     1
  1
strokes_ogs.tif
176
     1
290
     0
176
     1
 40
1.0
176
     1
 40
1.0
176
     1
  0
VISUALSTYLE
  5
3E
102
{ACAD_REACTORS
330
2A
102
}
330
2A
100
AcDbVisualStyle
  2
Shades of Gray
 70
    23
177
     3
291
     0
 70
    58
 90
        2
176
     1
 90
        2
176
     1
 90
        3
176
     1
 90
        0
176
     1
 40
0.6
176
     1
 40
30.0
176
     1
 62
     7
420
 16777215
176
     1
 90
        2
176
     1
 90
        2
176
     1
 62
     7
176
     1
 62
     7
176
     1
 90
        1
176
     1
 90
        1
176
     1
 40
40.0
176
     1
 90
        8
176
     1
 62
     7
176
     1
 40
1.0
176
     1
 90
        1
176
     1
 90
        6
176
     1
 90
        2
176
     1
 62
     7
176
     1
 90
        3
176
     1
 90
        0
176
     1
 90
        0
176
     1
290
     0
176
     1
 90
        1
176
     1
 40
0.0
176
     1
 90
        0
176
     1
290
     0
176
     1
290
     1
176
     1
290
     1
176
     1
290
     0
176
     1
290
     0
176
     1
290
     0
176
     1
290
     0
176
     1
290
     0
176
     1
290
     0
176
     1
 90
       50
176
     1
 40
0.0
176
     1
 40
1.0
176
     1
 90
        0
176
     1
 62
    18
420
        0
176
     1
 90
       50
176
     1
 90
        3
176
     1
 62
     5
420
      255
176
     1
290
     0
176
     1
 90
       50
176
     1
 90
       50
176
     1
 90
       50
176
     1
290
     0
176
     1
 90
       50
176
     1
 62
   256
176
     0
 40
1.0
176
     0
 90
        2
176
     1
  1
strokes_ogs.tif
176
     1
290
     0
176
     1
 40
1.0
176
     1
 40
1.0
176
     1
  0
VISUALSTYLE
  5
3F
102
{ACAD_REACTORS
330
2A
102
}
330
2A
100
AcDbVisualStyle
  2
Sketchy
 70
    24
177
     3
291
     0
 70
    58
 90
        1
176
     1
 90
        2
176
     1
 90
        2
176
     1
 90
        0
176
     1
 40
0.6
176
     1
 40
30.0
176
     1
 62
     7
420
 16777215
176
     1
 90
        2
176
     1
 90
        2
176
     1
 62
     7
176
     1
 62
     7
176
     1
 90
        1
176
     1
 90
        1
176
     1
 40
40.0
176
     1
 90
       11
176
     1
 62
     7
176
     1
 40
1.0
176
     1
 90
        1
176
     1
 90
        6
176
     1
 90
        2
176
     1
 62
     7
176
     1
 90
        6
176
     1
 90
        0
176
     1
 90
        0
176
     1
290
     0
176
     1
 90
        1
176
     1
 40
0.0
176
     1
 90
        0
176
     1
290
     0
176
     1
290
     1
176
     1
290
     1
176
     1
290
     0
176
     1
290
     0
176
     1
290
     0
176
     1
290
     0
176
     1
290
     0
176
     1
290
     0
176
     1
 90
       50
176
     1
 40
0.0
176
     1
 40
1.0
176
     1
 90
        0
176
     1
 62
    18
420
        0
176
     1
 90
       50
176
     1
 90
        3
176
     1
 62
     5
420
      255
176
     1
290
     0
176
     1
 90
       50
176
     1
 90
       50
176
     1
 90
       50
176
     1
290
     0
176
     1
 90
       50
176
     1
 62
   256
176
     0
 40
1.0
176
     0
 90
        2
176
     1
  1
strokes_ogs.tif
176
     1
290
     0
176
     1
 40
1.0
176
     1
 40
1.0
176
     1
  0
VISUALSTYLE
  5
37
102
{ACAD_REACTORS
330
2A
102
}
330
2A
100
AcDbVisualStyle
  2
Thicken
 70
    13
177
     3
291
     1
 70
    58
 90
        2
176
     1
 90
        2
176
     1
 90
        0
176
     1
 90
        0
176
     1
 40
0.6
176
     1
 40
30.0
176
     1
 62
     7
420
 16777215
176
     1
 90
        1
176
     1
 90
        4
176
     1
 62
     7
176
     1
 62
   257
176
     1
 90
        1
176
     1
 90
        1
176
     1
 40
1.0
176
     1
 90
       12
176
     1
 62
     7
176
     1
 40
1.0
176
     1
 90
        1
176
     1
 90
        6
176
     1
 90
        2
176
     1
 62
     7
176
     1
 90
        5
176
     1
 90
        0
176
     1
 90
        0
176
     1
290
     0
176
     1
 90
        1
176
     1
 40
0.0
176
     1
 90
        0
176
     1
290
     0
176
     1
290
     1
176
     1
290
     1
176
     1
290
     0
176
     1
290
     0
176
     1
290
     0
176
     1
290
     0
176
     1
290
     0
176
     1
290
     0
176
     1
 90
       50
176
     1
 40
0.0
176
     1
 40
1.0
176
     1
 90
        0
176
     1
 62
    18
420
        0
176
     1
 90
       50
176
     1
 90
        3
176
     1
 62
     5
420
      255
176
     1
290
     0
176
     1
 90
       50
176
     1
 90
       50
176
     1
 90
       50
176
     1
290
     0
176
     1
 90
       50
176
     1
 62
   256
176
     0
 40
1.0
176
     0
 90
        2
176
     1
  1
strokes_ogs.tif
176
     1
290
     0
176
     1
 40
1.0
176
     1
 40
1.0
176
     1
  0
VISUALSTYLE
  5
30
102
{ACAD_REACTORS
330
2A
102
}
330
2A
100
AcDbVisualStyle
  2
Wireframe
 70
     5
177
     3
291
     0
 70
    58
 90
        0
176
     1
 90
        2
176
     1
 90
        0
176
     1
 90
        0
176
     1
 40
0.6
176
     1
 40
30.0
176
     1
 62
     7
420
 16777215
176
     1
 90
        1
176
     1
 90
        4
176
     1
 62
     7
176
     1
 62
   257
176
     1
 90
        1
176
     1
 90
        1
176
     1
 40
1.0
176
     1
 90
        0
176
     1
 62
   257
176
     1
 40
1.0
176
     1
 90
        1
176
     1
 90
        6
176
     1
 90
        2
176
     1
 62
     7
176
     1
 90
        3
176
     1
 90
        0
176
     1
 90
        0
176
     1
290
     0
176
     1
 90
        1
176
     1
 40
0.0
176
     1
 90
        0
176
     1
290
     0
176
     1
290
     1
176
     1
290
     1
176
     1
290
     0
176
     1
290
     0
176
     1
290
     0
176
     1
290
     0
176
     1
290
     0
176
     1
290
     0
176
     1
 90
       50
176
     1
 40
0.0
176
     1
 40
1.0
176
     1
 90
        0
176
     1
 62
    18
420
        0
176
     1
 90
       50
176
     1
 90
        3
176
     1
 62
     5
420
      255
176
     1
290
     0
176
     1
 90
       50
176
     1
 90
       50
176
     1
 90
       50
176
     1
290
     0
176
     1
 90
       50
176
     1
 62
   256
176
     0
 40
1.0
176
     0
 90
        2
176
     1
  1
strokes_ogs.tif
176
     1
290
     0
176
     1
 40
1.0
176
     1
 40
1.0
176
     1
  0
VISUALSTYLE
  5
40
102
{ACAD_REACTORS
330
2A
102
}
330
2A
100
AcDbVisualStyle
  2
X-Ray
 70
    25
177
     3
291
     0
 70
    58
 90
        2
176
     1
 90
        2
176
     1
 90
        1
176
     1
 90
        1
176
     1
 40
0.5
176
     1
 40
30.0
176
     1
 62
     7
420
 16777215
176
     1
 90
        1
176
     1
 90
        0
176
     1
 62
     7
176
     1
 62
   257
176
     1
 90
        1
176
     1
 90
        1
176
     1
 40
1.0
176
     1
 90
        8
176
     1
 62
     7
176
     1
 40
1.0
176
     1
 90
        1
176
     1
 90
        6
176
     1
 90
        2
176
     1
 62
     7
176
     1
 90
        3
176
     1
 90
        0
176
     1
 90
        0
176
     1
290
     0
176
     1
 90
       13
176
     1
 40
0.0
176
     1
 90
        0
176
     1
290
     0
176
     1
290
     1
176
     1
290
     1
176
     1
290
     0
176
     1
290
     0
176
     1
290
     0
176
     1
290
     0
176
     1
290
     0
176
     1
290
     0
176
     1
 90
       50
176
     1
 40
0.0
176
     1
 40
1.0
176
     1
 90
        0
176
     1
 62
    18
420
        0
176
     1
 90
       50
176
     1
 90
        3
176
     1
 62
     5
420
      255
176
     1
290
     0
176
     1
 90
       50
176
     1
 90
       50
176
     1
 90
       50
176
     1
290
     0
176
     1
 90
       50
176
     1
 62
   256
176
     0
 40
1.0
176
     0
 90
        2
176
     1
  1
strokes_ogs.tif
176
     1
290
     0
176
     1
 40
1.0
176
     1
 40
1.0
176
     1
  0
DICTIONARYVAR
  5
175
102
{ACAD_REACTORS
330
174
102
}
330
174
100
DictionaryVariables
280
     0
  1
1:1
  0
DICTIONARYVAR
  5
17D
102
{ACAD_REACTORS
330
174
102
}
330
174
100
DictionaryVariables
280
     0
  1
3.500000
  0
DICTIONARYVAR
  5
17E
102
{ACAD_REACTORS
330
174
102
}
330
174
100
DictionaryVariables
280
     0
  1
acadiso.lin
  0
DICTIONARYVAR
  5
17A
102
{ACAD_REACTORS
330
174
102
}
330
174
100
DictionaryVariables
280
     0
  1
Standard
  0
DICTIONARYVAR
  5
179
102
{ACAD_REACTORS
330
174
102
}
330
174
100
DictionaryVariables
280
     0
  1
Standard
  0
DICTIONARY
  5
176
330
5A
100
AcDbDictionary
280
     1
281
     1
  3
ACAD_ROUNDTRIP_2008_TABLESTYLE_CELLSTYLEMAP
360
177
  0
CELLSTYLEMAP
  5
177
102
{ACAD_REACTORS
330
176
102
}
330
176
100
AcDbCellStyleMap
 90
        3
300
CELLSTYLE
  1
TABLEFORMAT_BEGIN
 90
        5
170
     1
 91
        0
 92
    32768
 62
   257
 93
        1
300
CONTENTFORMAT
  1
CONTENTFORMAT_BEGIN
 90
        0
 91
        0
 92
        4
 93
        0
300

 40
0.0
140
1.0
 94
        5
 62
     0
340
11
144
6.0
309
CONTENTFORMAT_END
171
     1
301
MARGIN
  1
CELLMARGIN_BEGIN
 40
1.5
 40
1.5
 40
1.5
 40
1.5
 40
1.5
 40
1.5
309
CELLMARGIN_END
 94
        6
 95
        1
302
GRIDFORMAT
  1
GRIDFORMAT_BEGIN
 90
        0
 91
        1
 62
     0
 92
       -2
340
14
 93
        0
 40
0.045
309
GRIDFORMAT_END
 95
        2
302
GRIDFORMAT
  1
GRIDFORMAT_BEGIN
 90
        0
 91
        1
 62
     0
 92
       -2
340
14
 93
        0
 40
0.045
309
GRIDFORMAT_END
 95
        4
302
GRIDFORMAT
  1
GRIDFORMAT_BEGIN
 90
        0
 91
        1
 62
     0
 92
       -2
340
14
 93
        0
 40
0.045
309
GRIDFORMAT_END
 95
        8
302
GRIDFORMAT
  1
GRIDFORMAT_BEGIN
 90
        0
 91
        1
 62
     0
 92
       -2
340
14
 93
        0
 40
0.045
309
GRIDFORMAT_END
 95
       16
302
GRIDFORMAT
  1
GRIDFORMAT_BEGIN
 90
        0
 91
        1
 62
     0
 92
       -2
340
14
 93
        0
 40
0.045
309
GRIDFORMAT_END
 95
       32
302
GRIDFORMAT
  1
GRIDFORMAT_BEGIN
 90
        0
 91
        1
 62
     0
 92
       -2
340
14
 93
        0
 40
0.045
309
GRIDFORMAT_END
309
TABLEFORMAT_END
  1
CELLSTYLE_BEGIN
 90
        1
 91
        1
300
_TITLE
309
CELLSTYLE_END
300
CELLSTYLE
  1
TABLEFORMAT_BEGIN
 90
        5
170
     1
 91
        0
 92
        0
 62
   257
 93
        1
300
CONTENTFORMAT
  1
CONTENTFORMAT_BEGIN
 90
        0
 91
        0
 92
        4
 93
        0
300

 40
0.0
140
1.0
 94
        5
 62
     0
340
11
144
4.5
309
CONTENTFORMAT_END
171
     1
301
MARGIN
  1
CELLMARGIN_BEGIN
 40
1.5
 40
1.5
 40
1.5
 40
1.5
 40
1.5
 40
1.5
309
CELLMARGIN_END
 94
        6
 95
        1
302
GRIDFORMAT
  1
GRIDFORMAT_BEGIN
 90
        0
 91
        1
 62
     0
 92
       -2
340
14
 93
        0
 40
0.045
309
GRIDFORMAT_END
 95
        2
302
GRIDFORMAT
  1
GRIDFORMAT_BEGIN
 90
        0
 91
        1
 62
     0
 92
       -2
340
14
 93
        0
 40
0.045
309
GRIDFORMAT_END
 95
        4
302
GRIDFORMAT
  1
GRIDFORMAT_BEGIN
 90
        0
 91
        1
 62
     0
 92
       -2
340
14
 93
        0
 40
0.045
309
GRIDFORMAT_END
 95
        8
302
GRIDFORMAT
  1
GRIDFORMAT_BEGIN
 90
        0
 91
        1
 62
     0
 92
       -2
340
14
 93
        0
 40
0.045
309
GRIDFORMAT_END
 95
       16
302
GRIDFORMAT
  1
GRIDFORMAT_BEGIN
 90
        0
 91
        1
 62
     0
 92
       -2
340
14
 93
        0
 40
0.045
309
GRIDFORMAT_END
 95
       32
302
GRIDFORMAT
  1
GRIDFORMAT_BEGIN
 90
        0
 91
        1
 62
     0
 92
       -2
340
14
 93
        0
 40
0.045
309
GRIDFORMAT_END
309
TABLEFORMAT_END
  1
CELLSTYLE_BEGIN
 90
        2
 91
        1
300
_HEADER
309
CELLSTYLE_END
300
CELLSTYLE
  1
TABLEFORMAT_BEGIN
 90
        5
170
     1
 91
        0
 92
        0
 62
   257
 93
        1
300
CONTENTFORMAT
  1
CONTENTFORMAT_BEGIN
 90
        0
 91
        0
 92
        4
 93
        0
300

 40
0.0
140
1.0
 94
        2
 62
     0
340
11
144
4.5
309
CONTENTFORMAT_END
171
     1
301
MARGIN
  1
CELLMARGIN_BEGIN
 40
1.5
 40
1.5
 40
1.5
 40
1.5
 40
1.5
 40
1.5
309
CELLMARGIN_END
 94
        6
 95
        1
302
GRIDFORMAT
  1
GRIDFORMAT_BEGIN
 90
        0
 91
        1
 62
     0
 92
       -2
340
14
 93
        0
 40
0.045
309
GRIDFORMAT_END
 95
        2
302
GRIDFORMAT
  1
GRIDFORMAT_BEGIN
 90
        0
 91
        1
 62
     0
 92
       -2
340
14
 93
        0
 40
0.045
309
GRIDFORMAT_END
 95
        4
302
GRIDFORMAT
  1
GRIDFORMAT_BEGIN
 90
        0
 91
        1
 62
     0
 92
       -2
340
14
 93
        0
 40
0.045
309
GRIDFORMAT_END
 95
        8
302
GRIDFORMAT
  1
GRIDFORMAT_BEGIN
 90
        0
 91
        1
 62
     0
 92
       -2
340
14
 93
        0
 40
0.045
309
GRIDFORMAT_END
 95
       16
302
GRIDFORMAT
  1
GRIDFORMAT_BEGIN
 90
        0
 91
        1
 62
     0
 92
       -2
340
14
 93
        0
 40
0.045
309
GRIDFORMAT_END
 95
       32
302
GRIDFORMAT
  1
GRIDFORMAT_BEGIN
 90
        0
 91
        1
 62
     0
 92
       -2
340
14
 93
        0
 40
0.045
309
GRIDFORMAT_END
309
TABLEFORMAT_END
  1
CELLSTYLE_BEGIN
 90
        3
 91
        2
300
_DATA
309
CELLSTYLE_END
  0
ENDSEC
  0
EOF
