  0
SECTION
  2
HEADER
  9
$ACADVER
  1
AC1027
  9
$ACADMAINTVER
 70
   105
  9
$DWGCODEPAGE
  3
ANSI_1252
  9
$COMMENTS
  1
File was created by Cadenas
  9
$LASTSAVEDBY
  1
psservice
  9
$CUSTOMPROPERTYTAG
  1
NB
  9
$CUSTOMPROPERTY
  1
RZA42AAVJU
  9
$CUSTOMPROPERTYTAG
  1
NN
  9
$CUSTOMPROPERTY
  1
(R32) Heat Pump Unit Sky-Air Daikin RZA
  9
$CUSTOMPROPERTYTAG
  1
NT
  9
$CUSTOMPROPERTY
  1

  9
$CUSTOMPROPERTYTAG
  1
NBSYN
  9
$CUSTOMPROPERTY
  1
$PARTNUMBER.
  9
$CUSTOMPROPERTYTAG
  1
LINA
  9
$CUSTOMPROPERTY
  1
RZA42AAVJU
  9
$CUSTOMPROPERTYTAG
  1
CATALOG
  9
$CUSTOMPROPERTY
  1
Daikin
  9
$CUSTOMPROPERTYTAG
  1
PARTNUMBER
  9
$CUSTOMPROPERTY
  1
RZA42AAVJU
  9
$CUSTOMPROPERTYTAG
  1
DESCRIPTION
  9
$CUSTOMPROPERTY
  1
Single Zone Heat Pump Outdoor Units
  9
$CUSTOMPROPERTYTAG
  1
OVERALL_DEPTH
  9
$CUSTOMPROPERTY
  1
18.1250
  9
$CUSTOMPROPERTYTAG
  1
OVERALL_HEIGHT
  9
$CUSTOMPROPERTY
  1
34.2500
  9
$CUSTOMPROPERTYTAG
  1
OVERALL_WIDTH
  9
$CUSTOMPROPERTY
  1
43.3125
  9
$CUSTOMPROPERTYTAG
  1
URL
  9
$CUSTOMPROPERTY
  1
https://daikincomfort.com/
  9
$CUSTOMPROPERTYTAG
  1
RFA_FAMILY
  9
$CUSTOMPROPERTY
  1
Download Revit Family (RFA)
  9
$CUSTOMPROPERTYTAG
  1
COMPANY
  9
$CUSTOMPROPERTY
  1
daikin
  9
$REQUIREDVERSIONS
160
                 0
  9
$INSBASE
 10
0.0
 20
0.0
 30
0.0
  9
$EXTMIN
 10
-550.068749999991
 20
0.0
 30
0.0
  9
$EXTMAX
 10
561.9856991525503
 20
870.4554237288785
 30
0.0
  9
$LIMMIN
 10
0.0
 20
0.0
  9
$LIMMAX
 10
420.0
 20
297.0
  9
$ORTHOMODE
 70
     0
  9
$REGENMODE
 70
     1
  9
$FILLMODE
 70
     1
  9
$QTEXTMODE
 70
     0
  9
$MIRRTEXT
 70
     1
  9
$LTSCALE
 40
1.0
  9
$ATTMODE
 70
     1
  9
$TEXTSIZE
 40
2.5
  9
$TRACEWID
 40
1.0
  9
$TEXTSTYLE
  7
Standard
  9
$CLAYER
  8
0
  9
$CELTYPE
  6
ByLayer
  9
$CECOLOR
 62
   256
  9
$CELTSCALE
 40
1.0
  9
$DISPSILH
 70
     0
  9
$DIMSCALE
 40
1.0
  9
$DIMASZ
 40
2.5
  9
$DIMEXO
 40
0.625
  9
$DIMDLI
 40
3.75
  9
$DIMRND
 40
0.0
  9
$DIMDLE
 40
0.0
  9
$DIMEXE
 40
1.25
  9
$DIMTP
 40
0.0
  9
$DIMTM
 40
0.0
  9
$DIMTXT
 40
2.5
  9
$DIMCEN
 40
2.5
  9
$DIMTSZ
 40
0.0
  9
$DIMTOL
 70
     0
  9
$DIMLIM
 70
     0
  9
$DIMTIH
 70
     0
  9
$DIMTOH
 70
     0
  9
$DIMSE1
 70
     0
  9
$DIMSE2
 70
     0
  9
$DIMTAD
 70
     1
  9
$DIMZIN
 70
     8
  9
$DIMBLK
  1

  9
$DIMASO
 70
     1
  9
$DIMSHO
 70
     1
  9
$DIMPOST
  1

  9
$DIMAPOST
  1

  9
$DIMALT
 70
     0
  9
$DIMALTD
 70
     3
  9
$DIMALTF
 40
0.03937007874016
  9
$DIMLFAC
 40
1.0
  9
$DIMTOFL
 70
     1
  9
$DIMTVP
 40
0.0
  9
$DIMTIX
 70
     0
  9
$DIMSOXD
 70
     0
  9
$DIMSAH
 70
     0
  9
$DIMBLK1
  1

  9
$DIMBLK2
  1

  9
$DIMSTYLE
  2
ISO-25
  9
$DIMCLRD
 70
     0
  9
$DIMCLRE
 70
     0
  9
$DIMCLRT
 70
     0
  9
$DIMTFAC
 40
1.0
  9
$DIMGAP
 40
0.625
  9
$DIMJUST
 70
     0
  9
$DIMSD1
 70
     0
  9
$DIMSD2
 70
     0
  9
$DIMTOLJ
 70
     0
  9
$DIMTZIN
 70
     8
  9
$DIMALTZ
 70
     0
  9
$DIMALTTZ
 70
     0
  9
$DIMUPT
 70
     0
  9
$DIMDEC
 70
     2
  9
$DIMTDEC
 70
     2
  9
$DIMALTU
 70
     2
  9
$DIMALTTD
 70
     3
  9
$DIMTXSTY
  7
Standard
  9
$DIMAUNIT
 70
     0
  9
$DIMADEC
 70
     0
  9
$DIMALTRND
 40
0.0
  9
$DIMAZIN
 70
     0
  9
$DIMDSEP
 70
    44
  9
$DIMATFIT
 70
     3
  9
$DIMFRAC
 70
     0
  9
$DIMLDRBLK
  1

  9
$DIMLUNIT
 70
     2
  9
$DIMLWD
 70
    -2
  9
$DIMLWE
 70
    -2
  9
$DIMTMOVE
 70
     0
  9
$DIMFXL
 40
1.0
  9
$DIMFXLON
 70
     0
  9
$DIMJOGANG
 40
0.7853981633974483
  9
$DIMTFILL
 70
     0
  9
$DIMTFILLCLR
 70
     0
  9
$DIMARCSYM
 70
     0
  9
$DIMLTYPE
  6

  9
$DIMLTEX1
  6

  9
$DIMLTEX2
  6

  9
$DIMTXTDIRECTION
 70
     0
  9
$LUNITS
 70
     2
  9
$LUPREC
 70
     4
  9
$SKETCHINC
 40
1.0
  9
$FILLETRAD
 40
0.0
  9
$AUNITS
 70
     0
  9
$AUPREC
 70
     0
  9
$MENU
  1
.
  9
$ELEVATION
 40
0.0
  9
$PELEVATION
 40
0.0
  9
$THICKNESS
 40
0.0
  9
$LIMCHECK
 70
     0
  9
$CHAMFERA
 40
0.0
  9
$CHAMFERB
 40
0.0
  9
$CHAMFERC
 40
0.0
  9
$CHAMFERD
 40
0.0
  9
$SKPOLY
 70
     0
  9
$TDCREATE
 40
2461206.709540938
  9
$TDUCREATE
 40
2461206.626207604
  9
$TDUPDATE
 40
2461206.709540938
  9
$TDUUPDATE
 40
2461206.626207604
  9
$TDINDWG
 40
0.0000000116
  9
$TDUSRTIMER
 40
0.0000000116
  9
$USRTIMER
 70
     1
  9
$ANGBASE
 50
0.0
  9
$ANGDIR
 70
     0
  9
$PDMODE
 70
     0
  9
$PDSIZE
 40
0.0
  9
$PLINEWID
 40
0.0
  9
$SPLFRAME
 70
     0
  9
$SPLINETYPE
 70
     6
  9
$SPLINESEGS
 70
     8
  9
$HANDSEED
  5
14B
  9
$SURFTAB1
 70
     6
  9
$SURFTAB2
 70
     6
  9
$SURFTYPE
 70
     6
  9
$SURFU
 70
     6
  9
$SURFV
 70
     6
  9
$UCSBASE
  2

  9
$UCSNAME
  2

  9
$UCSORG
 10
0.0
 20
0.0
 30
0.0
  9
$UCSXDIR
 10
1.0
 20
0.0
 30
0.0
  9
$UCSYDIR
 10
0.0
 20
1.0
 30
0.0
  9
$UCSORTHOREF
  2

  9
$UCSORTHOVIEW
 70
     0
  9
$UCSORGTOP
 10
0.0
 20
0.0
 30
0.0
  9
$UCSORGBOTTOM
 10
0.0
 20
0.0
 30
0.0
  9
$UCSORGLEFT
 10
0.0
 20
0.0
 30
0.0
  9
$UCSORGRIGHT
 10
0.0
 20
0.0
 30
0.0
  9
$UCSORGFRONT
 10
0.0
 20
0.0
 30
0.0
  9
$UCSORGBACK
 10
0.0
 20
0.0
 30
0.0
  9
$PUCSBASE
  2

  9
$PUCSNAME
  2

  9
$PUCSORG
 10
0.0
 20
0.0
 30
0.0
  9
$PUCSXDIR
 10
1.0
 20
0.0
 30
0.0
  9
$PUCSYDIR
 10
0.0
 20
1.0
 30
0.0
  9
$PUCSORTHOREF
  2

  9
$PUCSORTHOVIEW
 70
     0
  9
$PUCSORGTOP
 10
0.0
 20
0.0
 30
0.0
  9
$PUCSORGBOTTOM
 10
0.0
 20
0.0
 30
0.0
  9
$PUCSORGLEFT
 10
0.0
 20
0.0
 30
0.0
  9
$PUCSORGRIGHT
 10
0.0
 20
0.0
 30
0.0
  9
$PUCSORGFRONT
 10
0.0
 20
0.0
 30
0.0
  9
$PUCSORGBACK
 10
0.0
 20
0.0
 30
0.0
  9
$USERI1
 70
     0
  9
$USERI2
 70
     0
  9
$USERI3
 70
     0
  9
$USERI4
 70
     0
  9
$USERI5
 70
     0
  9
$USERR1
 40
0.0
  9
$USERR2
 40
0.0
  9
$USERR3
 40
0.0
  9
$USERR4
 40
0.0
  9
$USERR5
 40
0.0
  9
$WORLDVIEW
 70
     1
  9
$SHADEDGE
 70
     3
  9
$SHADEDIF
 70
    70
  9
$TILEMODE
 70
     1
  9
$MAXACTVP
 70
    64
  9
$PINSBASE
 10
0.0
 20
0.0
 30
0.0
  9
$PLIMCHECK
 70
     0
  9
$PEXTMIN
 10
1.000000000000000E+20
 20
1.000000000000000E+20
 30
1.000000000000000E+20
  9
$PEXTMAX
 10
-1.000000000000000E+20
 20
-1.000000000000000E+20
 30
-1.000000000000000E+20
  9
$PLIMMIN
 10
0.0
 20
0.0
  9
$PLIMMAX
 10
420.0
 20
297.0
  9
$UNITMODE
 70
     0
  9
$VISRETAIN
 70
     1
  9
$PLINEGEN
 70
     0
  9
$PSLTSCALE
 70
     1
  9
$TREEDEPTH
 70
  3020
  9
$CMLSTYLE
  2
Standard
  9
$CMLJUST
 70
     0
  9
$CMLSCALE
 40
20.0
  9
$PROXYGRAPHICS
 70
     1
  9
$MEASUREMENT
 70
     1
  9
$CELWEIGHT
370
    -1
  9
$ENDCAPS
280
     0
  9
$JOINSTYLE
280
     0
  9
$LWDISPLAY
290
     0
  9
$INSUNITS
 70
     4
  9
$HYPERLINKBASE
  1

  9
$STYLESHEET
  1

  9
$XEDIT
290
     1
  9
$CEPSNTYPE
380
     0
  9
$PSTYLEMODE
290
     1
  9
$FINGERPRINTGUID
  2
{865dbfb5-b5f6-40d3-a5fe-870a55384ac6}
  9
$VERSIONGUID
  2
{FAEB1C32-E019-11D5-929B-00C0DF256EC4}
  9
$EXTNAMES
290
     1
  9
$PSVPSCALE
 40
0.0
  9
$OLESTARTUP
290
     0
  9
$SORTENTS
280
   127
  9
$INDEXCTL
280
     0
  9
$HIDETEXT
280
     1
  9
$XCLIPFRAME
280
     2
  9
$HALOGAP
280
     0
  9
$OBSCOLOR
 70
   257
  9
$OBSLTYPE
280
     0
  9
$INTERSECTIONDISPLAY
280
     0
  9
$INTERSECTIONCOLOR
 70
   257
  9
$DIMASSOC
280
     2
  9
$PROJECTNAME
  1

  9
$CAMERADISPLAY
290
     0
  9
$LENSLENGTH
 40
50.0
  9
$CAMERAHEIGHT
 40
0.0
  9
$STEPSPERSEC
 40
2.0
  9
$STEPSIZE
 40
6.0
  9
$3DDWFPREC
 40
2.0
  9
$PSOLWIDTH
 40
5.0
  9
$PSOLHEIGHT
 40
80.0
  9
$LOFTANG1
 40
1.570796326794897
  9
$LOFTANG2
 40
1.570796326794897
  9
$LOFTMAG1
 40
0.0
  9
$LOFTMAG2
 40
0.0
  9
$LOFTPARAM
 70
     7
  9
$LOFTNORMALS
280
     1
  9
$LATITUDE
 40
37.795
  9
$LONGITUDE
 40
-122.394
  9
$NORTHDIRECTION
 40
0.0
  9
$TIMEZONE
 70
 -8000
  9
$LIGHTGLYPHDISPLAY
280
     1
  9
$TILEMODELIGHTSYNCH
280
     1
  9
$CMATERIAL
347
44
  9
$SOLIDHIST
280
     0
  9
$SHOWHIST
280
     1
  9
$DWFFRAME
280
     2
  9
$DGNFRAME
280
     2
  9
$REALWORLDSCALE
290
     1
  9
$INTERFERECOLOR
 62
   256
  9
$CSHADOW
280
     0
  9
$SHADOWPLANELOCATION
 40
0.0
  0
ENDSEC
  0
SECTION
  2
CLASSES
  0
CLASS
  1
ACDBDICTIONARYWDFLT
  2
AcDbDictionaryWithDefault
  3
ObjectDBX Classes
 90
        0
 91
        3
280
     0
281
     0
  0
CLASS
  1
VISUALSTYLE
  2
AcDbVisualStyle
  3
ObjectDBX Classes
 90
     4095
 91
        3
280
     0
281
     0
  0
CLASS
  1
MATERIAL
  2
AcDbMaterial
  3
ObjectDBX Classes
 90
     1153
 91
        3
280
     0
281
     0
  0
CLASS
  1
SCALE
  2
AcDbScale
  3
ObjectDBX Classes
 90
     1153
 91
        3
280
     0
281
     0
  0
CLASS
  1
TABLESTYLE
  2
AcDbTableStyle
  3
ObjectDBX Classes
 90
     4095
 91
        3
280
     0
281
     0
  0
CLASS
  1
MLEADERSTYLE
  2
AcDbMLeaderStyle
  3
ACDB_MLEADERSTYLE_CLASS
 90
     4095
 91
        3
280
     0
281
     0
  0
CLASS
  1
SUN
  2
AcDbSun
  3
SCENEOE
 90
     1153
 91
        3
280
     0
281
     0
  0
CLASS
  1
DICTIONARYVAR
  2
AcDbDictionaryVar
  3
ObjectDBX Classes
 90
        0
 91
        3
280
     0
281
     0
  0
CLASS
  1
CELLSTYLEMAP
  2
AcDbCellStyleMap
  3
ObjectDBX Classes
 90
     1152
 91
        3
280
     0
281
     0
  0
ENDSEC
  0
SECTION
  2
TABLES
  0
TABLE
  2
VPORT
  5
8
330
0
100
AcDbSymbolTable
 70
     1
  0
VPORT
  5
29
330
8
100
AcDbSymbolTableRecord
100
AcDbViewportTableRecord
  2
*Active
 70
     0
 10
0.0
 20
0.0
 11
1.0
 21
1.0
 12
6.000169491533882
 22
435.2766949152867
 13
0.0
 23
0.0
 14
10.0
 24
10.0
 15
10.0
 25
10.0
 16
0.0
 26
0.0
 36
1.0
 17
0.0
 27
0.0
 37
0.0
 40
887.964457627185
 41
1.277506758315528
 42
50.0
 43
0.0
 44
0.0
 50
0.0
 51
0.0
 71
     0
 72
   100
 73
     1
 74
     3
 75
     0
 76
     0
 77
     0
 78
     0
281
     0
 65
     1
110
0.0
120
0.0
130
0.0
111
1.0
121
0.0
131
0.0
112
0.0
122
1.0
132
0.0
 79
     0
146
0.0
348
2F
 60
     3
 61
     5
292
     1
282
     1
141
0.0
142
0.0
 63
   250
361
5D
  0
ENDTAB
  0
TABLE
  2
LTYPE
  5
5
330
0
100
AcDbSymbolTable
 70
     3
  0
LTYPE
  5
14
330
5
100
AcDbSymbolTableRecord
100
AcDbLinetypeTableRecord
  2
ByBlock
 70
     0
  3

 72
    65
 73
     0
 40
0.0
  0
LTYPE
  5
15
330
5
100
AcDbSymbolTableRecord
100
AcDbLinetypeTableRecord
  2
ByLayer
 70
     0
  3

 72
    65
 73
     0
 40
0.0
  0
LTYPE
  5
16
330
5
100
AcDbSymbolTableRecord
100
AcDbLinetypeTableRecord
  2
Continuous
 70
     0
  3
Solid line
 72
    65
 73
     0
 40
0.0
  0
LTYPE
  5
119
330
5
100
AcDbSymbolTableRecord
100
AcDbLinetypeTableRecord
  2
Dashed
 70
     0
  3

 72
    65
 73
     2
 40
2.0
 49
1.0
 74
     0
 49
-1.0
 74
     0
  0
LTYPE
  5
11C
330
5
100
AcDbSymbolTableRecord
100
AcDbLinetypeTableRecord
  2
Center
 70
     0
  3

 72
    65
 73
     4
 40
1.5
 49
0.45
 74
     0
 49
-0.5
 74
     0
 49
0.05
 74
     0
 49
-0.5
 74
     0
  0
ENDTAB
  0
TABLE
  2
LAYER
  5
2
330
0
100
AcDbSymbolTable
 70
     5
  0
LAYER
  5
10
330
2
100
AcDbSymbolTableRecord
100
AcDbLayerTableRecord
  2
0
 70
     0
 62
     7
  6
Continuous
370
    -3
390
F
347
46
348
0
  0
LAYER
  5
5E
330
2
100
AcDbSymbolTableRecord
100
AcDbLayerTableRecord
  2
AM_6
 70
     0
 62
    -2
  6
Continuous
370
    35
390
F
347
46
348
0
  0
LAYER
  5
94
330
2
100
AcDbSymbolTableRecord
100
AcDbLayerTableRecord
  2
AM_0
 70
     0
 62
     7
  6
Continuous
370
    50
390
F
347
46
348
0
  0
LAYER
  5
11A
330
2
100
AcDbSymbolTableRecord
100
AcDbLayerTableRecord
  2
AM_9
 70
     0
 62
     6
  6
Dashed
370
    25
390
F
347
46
348
0
  0
LAYER
  5
11D
330
2
100
AcDbSymbolTableRecord
100
AcDbLayerTableRecord
  2
AM_7
 70
     0
 62
     7
  6
Center
370
    25
390
F
347
46
348
0
  0
ENDTAB
  0
TABLE
  2
STYLE
  5
3
330
0
100
AcDbSymbolTable
 70
     1
  0
STYLE
  5
11
330
3
100
AcDbSymbolTableRecord
100
AcDbTextStyleTableRecord
  2
Standard
 70
     0
 40
0.0
 41
1.0
 50
0.0
 71
     0
 42
2.5
  3
txt
  4

  0
ENDTAB
  0
TABLE
  2
VIEW
  5
6
330
0
100
AcDbSymbolTable
 70
     0
  0
ENDTAB
  0
TABLE
  2
UCS
  5
7
330
0
100
AcDbSymbolTable
 70
     0
  0
ENDTAB
  0
TABLE
  2
APPID
  5
9
330
0
100
AcDbSymbolTable
 70
     1
  0
APPID
  5
12
330
9
100
AcDbSymbolTableRecord
100
AcDbRegAppTableRecord
  2
ACAD
 70
     0
  0
ENDTAB
  0
TABLE
  2
DIMSTYLE
  5
A
330
0
100
AcDbSymbolTable
 70
     1
100
AcDbDimStyleTable
  0
DIMSTYLE
105
27
330
A
100
AcDbSymbolTableRecord
100
AcDbDimStyleTableRecord
  2
ISO-25
 70
     0
 41
2.5
 42
0.625
 43
3.75
 44
1.25
 73
     0
 74
     0
 77
     1
 78
     8
140
2.5
141
2.5
143
0.03937007874016
147
0.625
171
     3
172
     1
178
     0
271
     2
272
     2
274
     3
278
    44
283
     0
284
     8
340
11
  0
ENDTAB
  0
TABLE
  2
BLOCK_RECORD
  5
1
330
0
100
AcDbSymbolTable
 70
     7
  0
BLOCK_RECORD
  5
1F
330
1
100
AcDbSymbolTableRecord
100
AcDbBlockTableRecord
  2
*Model_Space
340
22
 70
     0
280
     1
281
     0
  0
BLOCK_RECORD
  5
1B
330
1
100
AcDbSymbolTableRecord
100
AcDbBlockTableRecord
  2
*Paper_Space
340
1E
 70
     0
280
     1
281
     0
  0
BLOCK_RECORD
  5
23
330
1
100
AcDbSymbolTableRecord
100
AcDbBlockTableRecord
  2
*Paper_Space0
340
26
 70
     0
280
     1
281
     0
  0
BLOCK_RECORD
  5
77
330
1
100
AcDbSymbolTableRecord
100
AcDbBlockTableRecord
  2
1_RZA42AAVJU_PART6_0_in_RZA42AAVJU_0
340
0
102
{BLKREFS
331
78
102
}
 70
     0
280
     1
281
     0
  0
BLOCK_RECORD
  5
99
330
1
100
AcDbSymbolTableRecord
100
AcDbBlockTableRecord
  2
2_RZA42AAVJU_PART5_0_in_RZA42AAVJU_0
340
0
102
{BLKREFS
331
9A
102
}
 70
     0
280
     1
281
     0
  0
BLOCK_RECORD
  5
BA
330
1
100
AcDbSymbolTableRecord
100
AcDbBlockTableRecord
  2
3_RZA42AAVJU_PART4_0_in_RZA42AAVJU_0
340
0
102
{BLKREFS
331
BB
102
}
 70
     0
280
     1
281
     0
  0
BLOCK_RECORD
  5
DB
330
1
100
AcDbSymbolTableRecord
100
AcDbBlockTableRecord
  2
4_RZA42AAVJU_PART3_0_in_RZA42AAVJU_0
340
0
102
{BLKREFS
331
DC
102
}
 70
     0
280
     1
281
     0
  0
BLOCK_RECORD
  5
FC
330
1
100
AcDbSymbolTableRecord
100
AcDbBlockTableRecord
  2
5_RZA42AAVJU_PART2_0_in_RZA42AAVJU_0
340
0
102
{BLKREFS
331
FD
102
}
 70
     0
280
     1
281
     0
  0
BLOCK_RECORD
  5
120
330
1
100
AcDbSymbolTableRecord
100
AcDbBlockTableRecord
  2
6_RZA42AAVJU_PART1_0_in_RZA42AAVJU_0
340
0
102
{BLKREFS
331
121
102
}
 70
     0
280
     1
281
     0
  0
ENDTAB
  0
ENDSEC
  0
SECTION
  2
BLOCKS
  0
BLOCK
  5
20
330
1F
100
AcDbEntity
  8
0
100
AcDbBlockBegin
  2
*Model_Space
 70
     2
 10
0.0
 20
0.0
 30
0.0
  3
*Model_Space
  1

  0
ENDBLK
  5
21
330
1F
100
AcDbEntity
  8
0
100
AcDbBlockEnd
  0
BLOCK
  5
1C
330
1B
100
AcDbEntity
 67
     1
  8
0
100
AcDbBlockBegin
  2
*Paper_Space
 70
     0
 10
0.0
 20
0.0
 30
0.0
  3
*Paper_Space
  1

  0
ENDBLK
  5
1D
330
1B
100
AcDbEntity
 67
     1
  8
0
100
AcDbBlockEnd
  0
BLOCK
  5
24
330
23
100
AcDbEntity
  8
0
100
AcDbBlockBegin
  2
*Paper_Space0
 70
     0
 10
0.0
 20
0.0
 30
0.0
  3
*Paper_Space0
  1

  0
ENDBLK
  5
25
330
23
100
AcDbEntity
  8
0
100
AcDbBlockEnd
  0
BLOCK
  5
79
330
77
100
AcDbEntity
  8
0
100
AcDbBlockBegin
  2
1_RZA42AAVJU_PART6_0_in_RZA42AAVJU_0
 70
     2
 10
0.0
 20
0.0
 30
0.0
  3
1_RZA42AAVJU_PART6_0_in_RZA42AAVJU_0
  1

  0
ATTDEF
  5
7B
330
77
100
AcDbEntity
  8
AM_6
100
AcDbText
 10
555.068750000008
 20
869.950000000065
 30
0.0
 40
0.5
  1
RZA42AAVJU_PART6
100
AcDbAttributeDefinition
  3

  2
NB
 70
     8
280
     0
  0
ATTDEF
  5
7C
330
77
100
AcDbEntity
  8
AM_6
100
AcDbText
 10
555.068750000008
 20
869.450000000065
 30
0.0
 40
0.5
  1

100
AcDbAttributeDefinition
  3

  2
NN
 70
     8
280
     0
  0
ATTDEF
  5
7D
330
77
100
AcDbEntity
  8
AM_6
100
AcDbText
 10
555.068750000008
 20
868.950000000065
 30
0.0
 40
0.5
  1

100
AcDbAttributeDefinition
  3

  2
NT
 70
     8
280
     0
  0
ATTDEF
  5
7E
330
77
100
AcDbEntity
  8
AM_6
100
AcDbText
 10
555.068750000008
 20
868.450000000065
 30
0.0
 40
0.5
  1
$PARTNUMBER._PART6
100
AcDbAttributeDefinition
  3

  2
NBSYN
 70
     8
280
     0
  0
ATTDEF
  5
7F
330
77
100
AcDbEntity
  8
AM_6
100
AcDbText
 10
555.068750000008
 20
867.950000000065
 30
0.0
 40
0.5
  1
RZA42AAVJU_PART6
100
AcDbAttributeDefinition
  3

  2
LINA
 70
     8
280
     0
  0
ATTDEF
  5
80
330
77
100
AcDbEntity
  8
AM_6
100
AcDbText
 10
555.068750000008
 20
867.450000000065
 30
0.0
 40
0.5
  1
Daikin
100
AcDbAttributeDefinition
  3

  2
CATALOG
 70
     8
280
     0
  0
ATTDEF
  5
81
330
77
100
AcDbEntity
  8
AM_6
100
AcDbText
 10
555.068750000008
 20
866.950000000065
 30
0.0
 40
0.5
  1
RZA42AAVJU
100
AcDbAttributeDefinition
  3

  2
PARTNUMBER
 70
     8
280
     0
  0
ATTDEF
  5
82
330
77
100
AcDbEntity
  8
AM_6
100
AcDbText
 10
555.068750000008
 20
866.450000000065
 30
0.0
 40
0.5
  1
Single Zone Heat Pump Outdoor Units
100
AcDbAttributeDefinition
  3

  2
DESCRIPTION
 70
     8
280
     0
  0
ATTDEF
  5
83
330
77
100
AcDbEntity
  8
AM_6
100
AcDbText
 10
555.068750000008
 20
865.950000000065
 30
0.0
 40
0.5
  1
18.1250
100
AcDbAttributeDefinition
  3

  2
OVERALL_DEPTH
 70
     8
280
     0
  0
ATTDEF
  5
84
330
77
100
AcDbEntity
  8
AM_6
100
AcDbText
 10
555.068750000008
 20
865.450000000065
 30
0.0
 40
0.5
  1
34.2500
100
AcDbAttributeDefinition
  3

  2
OVERALL_HEIGHT
 70
     8
280
     0
  0
ATTDEF
  5
85
330
77
100
AcDbEntity
  8
AM_6
100
AcDbText
 10
555.068750000008
 20
864.950000000065
 30
0.0
 40
0.5
  1
43.3125
100
AcDbAttributeDefinition
  3

  2
OVERALL_WIDTH
 70
     8
280
     0
  0
ATTDEF
  5
86
330
77
100
AcDbEntity
  8
AM_6
100
AcDbText
 10
555.068750000008
 20
864.450000000065
 30
0.0
 40
0.5
  1
https://daikincomfort.com/
100
AcDbAttributeDefinition
  3

  2
URL
 70
     8
280
     0
  0
ATTDEF
  5
87
330
77
100
AcDbEntity
  8
AM_6
100
AcDbText
 10
555.068750000008
 20
863.950000000065
 30
0.0
 40
0.5
  1
Download Revit Family (RFA)
100
AcDbAttributeDefinition
  3

  2
RFA_FAMILY
 70
     8
280
     0
  0
ATTDEF
  5
88
330
77
100
AcDbEntity
  8
AM_6
100
AcDbText
 10
555.068750000008
 20
863.450000000065
 30
0.0
 40
0.5
  1
daikin
100
AcDbAttributeDefinition
  3

  2
COMPANY
 70
     8
280
     0
  0
ATTDEF
  5
89
330
77
100
AcDbEntity
  8
AM_6
100
AcDbText
 10
555.068750000008
 20
862.950000000065
 30
0.0
 40
0.5
  1
{$CADENAS_DATA/23d-libs/daikin/sky-air/sky-air20heat20pump20outdoor20units/heat_pump_unit-single_zone-outdoor-daikin-rza.prj},224 {VTYP=3D},{NB=RZA42AAVJU_PART6},{LINA=RZA42AAVJU_PART6},{NN=(R32) Heat Pump Unit Sky-Air Daikin RZA_PART6},{NOPRJ=TRUE}
100
AcDbAttributeDefinition
  3

  2
PSOL_0
 70
     9
280
     0
  0
ATTDEF
  5
8A
330
77
100
AcDbEntity
  8
AM_6
100
AcDbText
 10
555.068750000008
 20
862.450000000065
 30
0.0
 40
0.5
  1
=03.06.2026 19:23:41},{GEOMDATE=23.09.2025 06:35:21},{VERSION=},{LINEID=20},{WBVAR=},{WBNUMERIC=}  {NB=RZA42AAVJU_PART6},{LINA=RZA42AAVJU_PART6},{KT=DUMMY},{PARTNUMBER=RZA42AAVJU},{PARTNUMBERMAP09=3.5Ton_RZA42AAVJU},{AMBIENT_TEMPERATURE=0},{APPARENT
100
AcDbAttributeDefinition
  3

  2
PSOL_1
 70
     9
280
     0
  0
ATTDEF
  5
8B
330
77
100
AcDbEntity
  8
AM_6
100
AcDbText
 10
555.068750000008
 20
861.950000000065
 30
0.0
 40
0.5
  1
=8304},{ASSEMBLY_CODE=D3040600},{BACK_CLEARANCE=0.5},{CATEGORY=Mechanical Equipment},{CLEARANCE_VISIBILITY=1},{COMPRESSOR_TYPE=Hermetically sealed swing type},{COST=0},{DEFAULT_ELEVATION=0},{DESCRIPTION=Single Zone Heat Pump Outdoor Units},{DRAIN_FL
100
AcDbAttributeDefinition
  3

  2
PSOL_2
 70
     9
280
     0
  0
ATTDEF
  5
8C
330
77
100
AcDbEntity
  8
AM_6
100
AcDbText
 10
555.068750000008
 20
861.450000000065
 30
0.0
 40
0.5
  1
{ENCLOSURE_DEPTH=1.51041666666667},{ENCLOSURE_WIDTH=3.609375},{FAN_TYPE=Propeller},{FAN_VENT_DEPTH=0.0520833333333333},{FAN_VENT_HEIGHT=2.42708333333333},{FREQUENCY=60},{FRONT_CLEARANCE=1.66666666666667},{HEATING_CAPACITY_AT_17F=32000},{HEATING_CAPA
100
AcDbAttributeDefinition
  3

  2
PSOL_3
 70
     9
280
     0
  0
ATTDEF
  5
8D
330
77
100
AcDbEntity
  8
AM_6
100
AcDbText
 10
555.068750000008
 20
860.950000000065
 30
0.0
 40
0.5
  1
T_47F=47000},{LEFT_CLEARANCE=0.5},{LOAD_SUB_CLASSIFICATION_MOTOR=1},{MANUFACTURER=Daikin},{MASSUNIT=1},{MAXIMUM_OVERCURRENT_PROTECTION=35},{MINIMUM_CIRCUIT_AMPS=34.6},{MODEL=RZA42AAVJU},{NOMINAL_COOLING_CAPACITY=40500},{NOMINAL_COOLING_CAPACITY__TON
100
AcDbAttributeDefinition
  3

  2
PSOL_4
 70
     9
280
     0
  0
ATTDEF
  5
8E
330
77
100
AcDbEntity
  8
AM_6
100
AcDbText
 10
555.068750000008
 20
860.450000000065
 30
0.0
 40
0.5
  1
},{NOMINAL_HEATING_CAPACITY=0},{NUMBER_OF_POLES=2},{OMNICLASS_NUMBER=23.33.39.21},{OVERALL_DEPTH=18.1250},{OVERALL_HEIGHT=34.2500},{OVERALL_WIDTH=43.3125},{PARTTYPE=Normal},{PHASE=1},{REFRIGERANT_CHARGE=7.5},{REFRIGERANT_LIQUID_CONNECTION_DIAMETER=0
100
AcDbAttributeDefinition
  3

  2
PSOL_5
 70
     9
280
     0
  0
ATTDEF
  5
8F
330
77
100
AcDbEntity
  8
AM_6
100
AcDbText
 10
555.068750000008
 20
859.950000000065
 30
0.0
 40
0.5
  1
{REFRIGERANT_LIQUID_CONNECTION_HORIZONTAL_OFFSET=0.171875},{REFRIGERANT_LIQUID_CONNECTION_RADIUS=0.015625},{REFRIGERANT_LIQUID_CONNECTION_VERTICAL_OFFSET=0.635416666666667},{REFRIGERANT_PIPE_OFFSET=1.51041666666667},{REFRIGERANT_SUCTION_GAS_CONNECTI
100
AcDbAttributeDefinition
  3

  2
PSOL_6
 70
     9
280
     0
  0
ATTDEF
  5
90
330
77
100
AcDbEntity
  8
AM_6
100
AcDbText
 10
555.068750000008
 20
859.450000000065
 30
0.0
 40
0.5
  1
METER=0.625},{REFRIGERANT_SUCTION_GAS_CONNECTION_HORIZONTAL_OFFSET=0.171875},{REFRIGERANT_SUCTION_GAS_CONNECTION_RADIUS=0.0260416666666667},{REFRIGERANT_SUCTION_GAS_CONNECTION_VERTICAL_OFFSET=0.442708333333333},{REFRIGERANT_USED=R-32},{RIGHT_CLEARAN
100
AcDbAttributeDefinition
  3

  2
PSOL_7
 70
     9
280
     0
  0
ATTDEF
  5
91
330
77
100
AcDbEntity
  8
AM_6
100
AcDbText
 10
555.068750000008
 20
858.950000000065
 30
0.0
 40
0.5
  1
},{SERIES=SkyAir},{TOP_CLEARANCE=3.33333333333333},{UNIT_LEG_SPACING=2.42708333333333},{UNIT_WEIGHT=234},{URL=https://daikincomfort.com/},{VERSION=1},{VOLTAGE=240},{VOLTAGE_COMMENTS=208 VAC - 230 VAC},{RFA_FAMILY=Download Revit Family (RFA)},{DEFAUL
100
AcDbAttributeDefinition
  3

  2
PSOL_8
 70
     9
280
     0
  0
ATTDEF
  5
92
330
77
100
AcDbEntity
  8
AM_6
100
AcDbText
 10
555.068750000008
 20
858.450000000065
 30
0.0
 40
0.5
  1
TTR=42},{RFA_FAMILY_=../../_pool_/e1/49/heat_pump_unit-single_zone-outdoor-daikin-rza.zip},{RFA_FAMILY_ENG=../../_pool_/e1/49/heat_pump_unit-single_zone-outdoor-daikin-rza.zip},{REVIT_FAMILY_DOWNLOAD=../../_pool_/e1/49/heat_pump_unit-single_zone-out
100
AcDbAttributeDefinition
  3

  2
PSOL_9
 70
     9
280
     0
  0
ATTDEF
  5
93
330
77
100
AcDbEntity
  8
AM_6
100
AcDbText
 10
555.068750000008
 20
857.950000000065
 30
0.0
 40
0.5
  1
aikin-rza.zip}
100
AcDbAttributeDefinition
  3

  2
PSOL_10
 70
     9
280
     0
  0
LINE
  5
95
330
77
100
AcDbEntity
  8
AM_0
100
AcDbLine
 10
-550.068749999991
 20
869.9500000000647
 30
0.0
 11
-550.068749999991
 21
19.05000000006
 31
0.0
  0
LINE
  5
96
330
77
100
AcDbEntity
  8
AM_0
100
AcDbLine
 10
550.068750000008
 20
869.950000000065
 30
0.0
 11
550.068750000008
 21
19.05000000006002
 31
0.0
  0
LINE
  5
97
330
77
100
AcDbEntity
  8
AM_0
100
AcDbLine
 10
550.068750000008
 20
19.05000000006002
 30
0.0
 11
-550.068749999991
 21
19.05000000006
 31
0.0
  0
LINE
  5
98
330
77
100
AcDbEntity
  8
AM_0
100
AcDbLine
 10
-550.068749999991
 20
869.9500000000647
 30
0.0
 11
550.068750000008
 21
869.950000000065
 31
0.0
  0
ENDBLK
  5
7A
330
77
100
AcDbEntity
  8
0
100
AcDbBlockEnd
  0
BLOCK
  5
9B
330
99
100
AcDbEntity
  8
0
100
AcDbBlockBegin
  2
2_RZA42AAVJU_PART5_0_in_RZA42AAVJU_0
 70
     2
 10
0.0
 20
0.0
 30
0.0
  3
2_RZA42AAVJU_PART5_0_in_RZA42AAVJU_0
  1

  0
ATTDEF
  5
9D
330
99
100
AcDbEntity
  8
AM_6
100
AcDbText
 10
-339.487499999995
 20
19.05
 30
0.0
 40
0.5
  1
RZA42AAVJU_PART5
100
AcDbAttributeDefinition
  3

  2
NB
 70
     8
280
     0
  0
ATTDEF
  5
9E
330
99
100
AcDbEntity
  8
AM_6
100
AcDbText
 10
-339.487499999995
 20
18.55
 30
0.0
 40
0.5
  1

100
AcDbAttributeDefinition
  3

  2
NN
 70
     8
280
     0
  0
ATTDEF
  5
9F
330
99
100
AcDbEntity
  8
AM_6
100
AcDbText
 10
-339.487499999995
 20
18.05
 30
0.0
 40
0.5
  1

100
AcDbAttributeDefinition
  3

  2
NT
 70
     8
280
     0
  0
ATTDEF
  5
A0
330
99
100
AcDbEntity
  8
AM_6
100
AcDbText
 10
-339.487499999995
 20
17.55
 30
0.0
 40
0.5
  1
$PARTNUMBER._PART5
100
AcDbAttributeDefinition
  3

  2
NBSYN
 70
     8
280
     0
  0
ATTDEF
  5
A1
330
99
100
AcDbEntity
  8
AM_6
100
AcDbText
 10
-339.487499999995
 20
17.05
 30
0.0
 40
0.5
  1
RZA42AAVJU_PART5
100
AcDbAttributeDefinition
  3

  2
LINA
 70
     8
280
     0
  0
ATTDEF
  5
A2
330
99
100
AcDbEntity
  8
AM_6
100
AcDbText
 10
-339.487499999995
 20
16.55
 30
0.0
 40
0.5
  1
Daikin
100
AcDbAttributeDefinition
  3

  2
CATALOG
 70
     8
280
     0
  0
ATTDEF
  5
A3
330
99
100
AcDbEntity
  8
AM_6
100
AcDbText
 10
-339.487499999995
 20
16.05
 30
0.0
 40
0.5
  1
RZA42AAVJU
100
AcDbAttributeDefinition
  3

  2
PARTNUMBER
 70
     8
280
     0
  0
ATTDEF
  5
A4
330
99
100
AcDbEntity
  8
AM_6
100
AcDbText
 10
-339.487499999995
 20
15.55
 30
0.0
 40
0.5
  1
Single Zone Heat Pump Outdoor Units
100
AcDbAttributeDefinition
  3

  2
DESCRIPTION
 70
     8
280
     0
  0
ATTDEF
  5
A5
330
99
100
AcDbEntity
  8
AM_6
100
AcDbText
 10
-339.487499999995
 20
15.05
 30
0.0
 40
0.5
  1
18.1250
100
AcDbAttributeDefinition
  3

  2
OVERALL_DEPTH
 70
     8
280
     0
  0
ATTDEF
  5
A6
330
99
100
AcDbEntity
  8
AM_6
100
AcDbText
 10
-339.487499999995
 20
14.55
 30
0.0
 40
0.5
  1
34.2500
100
AcDbAttributeDefinition
  3

  2
OVERALL_HEIGHT
 70
     8
280
     0
  0
ATTDEF
  5
A7
330
99
100
AcDbEntity
  8
AM_6
100
AcDbText
 10
-339.487499999995
 20
14.05
 30
0.0
 40
0.5
  1
43.3125
100
AcDbAttributeDefinition
  3

  2
OVERALL_WIDTH
 70
     8
280
     0
  0
ATTDEF
  5
A8
330
99
100
AcDbEntity
  8
AM_6
100
AcDbText
 10
-339.487499999995
 20
13.55
 30
0.0
 40
0.5
  1
https://daikincomfort.com/
100
AcDbAttributeDefinition
  3

  2
URL
 70
     8
280
     0
  0
ATTDEF
  5
A9
330
99
100
AcDbEntity
  8
AM_6
100
AcDbText
 10
-339.487499999995
 20
13.05
 30
0.0
 40
0.5
  1
Download Revit Family (RFA)
100
AcDbAttributeDefinition
  3

  2
RFA_FAMILY
 70
     8
280
     0
  0
ATTDEF
  5
AA
330
99
100
AcDbEntity
  8
AM_6
100
AcDbText
 10
-339.487499999995
 20
12.55
 30
0.0
 40
0.5
  1
daikin
100
AcDbAttributeDefinition
  3

  2
COMPANY
 70
     8
280
     0
  0
ATTDEF
  5
AB
330
99
100
AcDbEntity
  8
AM_6
100
AcDbText
 10
-339.487499999995
 20
12.05
 30
0.0
 40
0.5
  1
{$CADENAS_DATA/23d-libs/daikin/sky-air/sky-air20heat20pump20outdoor20units/heat_pump_unit-single_zone-outdoor-daikin-rza.prj},224 {VTYP=3D},{NB=RZA42AAVJU_PART5},{LINA=RZA42AAVJU_PART5},{NN=(R32) Heat Pump Unit Sky-Air Daikin RZA_PART5},{NOPRJ=TRUE}
100
AcDbAttributeDefinition
  3

  2
PSOL_0
 70
     9
280
     0
  0
ATTDEF
  5
AC
330
99
100
AcDbEntity
  8
AM_6
100
AcDbText
 10
-339.487499999995
 20
11.55
 30
0.0
 40
0.5
  1
=03.06.2026 19:23:41},{GEOMDATE=23.09.2025 06:35:21},{VERSION=},{LINEID=20},{WBVAR=},{WBNUMERIC=}  {NB=RZA42AAVJU_PART5},{LINA=RZA42AAVJU_PART5},{KT=DUMMY},{PARTNUMBER=RZA42AAVJU},{PARTNUMBERMAP09=3.5Ton_RZA42AAVJU},{AMBIENT_TEMPERATURE=0},{APPARENT
100
AcDbAttributeDefinition
  3

  2
PSOL_1
 70
     9
280
     0
  0
ATTDEF
  5
AD
330
99
100
AcDbEntity
  8
AM_6
100
AcDbText
 10
-339.487499999995
 20
11.05
 30
0.0
 40
0.5
  1
=8304},{ASSEMBLY_CODE=D3040600},{BACK_CLEARANCE=0.5},{CATEGORY=Mechanical Equipment},{CLEARANCE_VISIBILITY=1},{COMPRESSOR_TYPE=Hermetically sealed swing type},{COST=0},{DEFAULT_ELEVATION=0},{DESCRIPTION=Single Zone Heat Pump Outdoor Units},{DRAIN_FL
100
AcDbAttributeDefinition
  3

  2
PSOL_2
 70
     9
280
     0
  0
ATTDEF
  5
AE
330
99
100
AcDbEntity
  8
AM_6
100
AcDbText
 10
-339.487499999995
 20
10.55
 30
0.0
 40
0.5
  1
{ENCLOSURE_DEPTH=1.51041666666667},{ENCLOSURE_WIDTH=3.609375},{FAN_TYPE=Propeller},{FAN_VENT_DEPTH=0.0520833333333333},{FAN_VENT_HEIGHT=2.42708333333333},{FREQUENCY=60},{FRONT_CLEARANCE=1.66666666666667},{HEATING_CAPACITY_AT_17F=32000},{HEATING_CAPA
100
AcDbAttributeDefinition
  3

  2
PSOL_3
 70
     9
280
     0
  0
ATTDEF
  5
AF
330
99
100
AcDbEntity
  8
AM_6
100
AcDbText
 10
-339.487499999995
 20
10.05
 30
0.0
 40
0.5
  1
T_47F=47000},{LEFT_CLEARANCE=0.5},{LOAD_SUB_CLASSIFICATION_MOTOR=1},{MANUFACTURER=Daikin},{MASSUNIT=1},{MAXIMUM_OVERCURRENT_PROTECTION=35},{MINIMUM_CIRCUIT_AMPS=34.6},{MODEL=RZA42AAVJU},{NOMINAL_COOLING_CAPACITY=40500},{NOMINAL_COOLING_CAPACITY__TON
100
AcDbAttributeDefinition
  3

  2
PSOL_4
 70
     9
280
     0
  0
ATTDEF
  5
B0
330
99
100
AcDbEntity
  8
AM_6
100
AcDbText
 10
-339.487499999995
 20
9.55
 30
0.0
 40
0.5
  1
},{NOMINAL_HEATING_CAPACITY=0},{NUMBER_OF_POLES=2},{OMNICLASS_NUMBER=23.33.39.21},{OVERALL_DEPTH=18.1250},{OVERALL_HEIGHT=34.2500},{OVERALL_WIDTH=43.3125},{PARTTYPE=Normal},{PHASE=1},{REFRIGERANT_CHARGE=7.5},{REFRIGERANT_LIQUID_CONNECTION_DIAMETER=0
100
AcDbAttributeDefinition
  3

  2
PSOL_5
 70
     9
280
     0
  0
ATTDEF
  5
B1
330
99
100
AcDbEntity
  8
AM_6
100
AcDbText
 10
-339.487499999995
 20
9.05
 30
0.0
 40
0.5
  1
{REFRIGERANT_LIQUID_CONNECTION_HORIZONTAL_OFFSET=0.171875},{REFRIGERANT_LIQUID_CONNECTION_RADIUS=0.015625},{REFRIGERANT_LIQUID_CONNECTION_VERTICAL_OFFSET=0.635416666666667},{REFRIGERANT_PIPE_OFFSET=1.51041666666667},{REFRIGERANT_SUCTION_GAS_CONNECTI
100
AcDbAttributeDefinition
  3

  2
PSOL_6
 70
     9
280
     0
  0
ATTDEF
  5
B2
330
99
100
AcDbEntity
  8
AM_6
100
AcDbText
 10
-339.487499999995
 20
8.55
 30
0.0
 40
0.5
  1
METER=0.625},{REFRIGERANT_SUCTION_GAS_CONNECTION_HORIZONTAL_OFFSET=0.171875},{REFRIGERANT_SUCTION_GAS_CONNECTION_RADIUS=0.0260416666666667},{REFRIGERANT_SUCTION_GAS_CONNECTION_VERTICAL_OFFSET=0.442708333333333},{REFRIGERANT_USED=R-32},{RIGHT_CLEARAN
100
AcDbAttributeDefinition
  3

  2
PSOL_7
 70
     9
280
     0
  0
ATTDEF
  5
B3
330
99
100
AcDbEntity
  8
AM_6
100
AcDbText
 10
-339.487499999995
 20
8.05
 30
0.0
 40
0.5
  1
},{SERIES=SkyAir},{TOP_CLEARANCE=3.33333333333333},{UNIT_LEG_SPACING=2.42708333333333},{UNIT_WEIGHT=234},{URL=https://daikincomfort.com/},{VERSION=1},{VOLTAGE=240},{VOLTAGE_COMMENTS=208 VAC - 230 VAC},{RFA_FAMILY=Download Revit Family (RFA)},{DEFAUL
100
AcDbAttributeDefinition
  3

  2
PSOL_8
 70
     9
280
     0
  0
ATTDEF
  5
B4
330
99
100
AcDbEntity
  8
AM_6
100
AcDbText
 10
-339.487499999995
 20
7.550000000000001
 30
0.0
 40
0.5
  1
TTR=42},{RFA_FAMILY_=../../_pool_/e1/49/heat_pump_unit-single_zone-outdoor-daikin-rza.zip},{RFA_FAMILY_ENG=../../_pool_/e1/49/heat_pump_unit-single_zone-outdoor-daikin-rza.zip},{REVIT_FAMILY_DOWNLOAD=../../_pool_/e1/49/heat_pump_unit-single_zone-out
100
AcDbAttributeDefinition
  3

  2
PSOL_9
 70
     9
280
     0
  0
ATTDEF
  5
B5
330
99
100
AcDbEntity
  8
AM_6
100
AcDbText
 10
-339.487499999995
 20
7.050000000000001
 30
0.0
 40
0.5
  1
aikin-rza.zip}
100
AcDbAttributeDefinition
  3

  2
PSOL_10
 70
     9
280
     0
  0
LINE
  5
B6
330
99
100
AcDbEntity
  8
AM_0
100
AcDbLine
 10
-395.287499999994
 20
19.05
 30
0.0
 11
-395.287499999994
 21
0.0
 31
0.0
  0
LINE
  5
B7
330
99
100
AcDbEntity
  8
AM_0
100
AcDbLine
 10
-344.487499999995
 20
19.05
 30
0.0
 11
-395.287499999994
 21
19.05
 31
0.0
  0
LINE
  5
B8
330
99
100
AcDbEntity
  8
AM_0
100
AcDbLine
 10
-395.287499999994
 20
0.0
 30
0.0
 11
-344.487499999995
 21
0.0
 31
0.0
  0
LINE
  5
B9
330
99
100
AcDbEntity
  8
AM_0
100
AcDbLine
 10
-344.487499999995
 20
0.0
 30
0.0
 11
-344.487499999995
 21
19.05
 31
0.0
  0
ENDBLK
  5
9C
330
99
100
AcDbEntity
  8
0
100
AcDbBlockEnd
  0
BLOCK
  5
BC
330
BA
100
AcDbEntity
  8
0
100
AcDbBlockBegin
  2
3_RZA42AAVJU_PART4_0_in_RZA42AAVJU_0
 70
     2
 10
0.0
 20
0.0
 30
0.0
  3
3_RZA42AAVJU_PART4_0_in_RZA42AAVJU_0
  1

  0
ATTDEF
  5
BE
330
BA
100
AcDbEntity
  8
AM_6
100
AcDbText
 10
400.287500000017
 20
19.05
 30
0.0
 40
0.5
  1
RZA42AAVJU_PART4
100
AcDbAttributeDefinition
  3

  2
NB
 70
     8
280
     0
  0
ATTDEF
  5
BF
330
BA
100
AcDbEntity
  8
AM_6
100
AcDbText
 10
400.287500000017
 20
18.55
 30
0.0
 40
0.5
  1

100
AcDbAttributeDefinition
  3

  2
NN
 70
     8
280
     0
  0
ATTDEF
  5
C0
330
BA
100
AcDbEntity
  8
AM_6
100
AcDbText
 10
400.287500000017
 20
18.05
 30
0.0
 40
0.5
  1

100
AcDbAttributeDefinition
  3

  2
NT
 70
     8
280
     0
  0
ATTDEF
  5
C1
330
BA
100
AcDbEntity
  8
AM_6
100
AcDbText
 10
400.287500000017
 20
17.55
 30
0.0
 40
0.5
  1
$PARTNUMBER._PART4
100
AcDbAttributeDefinition
  3

  2
NBSYN
 70
     8
280
     0
  0
ATTDEF
  5
C2
330
BA
100
AcDbEntity
  8
AM_6
100
AcDbText
 10
400.287500000017
 20
17.05
 30
0.0
 40
0.5
  1
RZA42AAVJU_PART4
100
AcDbAttributeDefinition
  3

  2
LINA
 70
     8
280
     0
  0
ATTDEF
  5
C3
330
BA
100
AcDbEntity
  8
AM_6
100
AcDbText
 10
400.287500000017
 20
16.55
 30
0.0
 40
0.5
  1
Daikin
100
AcDbAttributeDefinition
  3

  2
CATALOG
 70
     8
280
     0
  0
ATTDEF
  5
C4
330
BA
100
AcDbEntity
  8
AM_6
100
AcDbText
 10
400.287500000017
 20
16.05
 30
0.0
 40
0.5
  1
RZA42AAVJU
100
AcDbAttributeDefinition
  3

  2
PARTNUMBER
 70
     8
280
     0
  0
ATTDEF
  5
C5
330
BA
100
AcDbEntity
  8
AM_6
100
AcDbText
 10
400.287500000017
 20
15.55
 30
0.0
 40
0.5
  1
Single Zone Heat Pump Outdoor Units
100
AcDbAttributeDefinition
  3

  2
DESCRIPTION
 70
     8
280
     0
  0
ATTDEF
  5
C6
330
BA
100
AcDbEntity
  8
AM_6
100
AcDbText
 10
400.287500000017
 20
15.05
 30
0.0
 40
0.5
  1
18.1250
100
AcDbAttributeDefinition
  3

  2
OVERALL_DEPTH
 70
     8
280
     0
  0
ATTDEF
  5
C7
330
BA
100
AcDbEntity
  8
AM_6
100
AcDbText
 10
400.287500000017
 20
14.55
 30
0.0
 40
0.5
  1
34.2500
100
AcDbAttributeDefinition
  3

  2
OVERALL_HEIGHT
 70
     8
280
     0
  0
ATTDEF
  5
C8
330
BA
100
AcDbEntity
  8
AM_6
100
AcDbText
 10
400.287500000017
 20
14.05
 30
0.0
 40
0.5
  1
43.3125
100
AcDbAttributeDefinition
  3

  2
OVERALL_WIDTH
 70
     8
280
     0
  0
ATTDEF
  5
C9
330
BA
100
AcDbEntity
  8
AM_6
100
AcDbText
 10
400.287500000017
 20
13.55
 30
0.0
 40
0.5
  1
https://daikincomfort.com/
100
AcDbAttributeDefinition
  3

  2
URL
 70
     8
280
     0
  0
ATTDEF
  5
CA
330
BA
100
AcDbEntity
  8
AM_6
100
AcDbText
 10
400.287500000017
 20
13.05
 30
0.0
 40
0.5
  1
Download Revit Family (RFA)
100
AcDbAttributeDefinition
  3

  2
RFA_FAMILY
 70
     8
280
     0
  0
ATTDEF
  5
CB
330
BA
100
AcDbEntity
  8
AM_6
100
AcDbText
 10
400.287500000017
 20
12.55
 30
0.0
 40
0.5
  1
daikin
100
AcDbAttributeDefinition
  3

  2
COMPANY
 70
     8
280
     0
  0
ATTDEF
  5
CC
330
BA
100
AcDbEntity
  8
AM_6
100
AcDbText
 10
400.287500000017
 20
12.05
 30
0.0
 40
0.5
  1
{$CADENAS_DATA/23d-libs/daikin/sky-air/sky-air20heat20pump20outdoor20units/heat_pump_unit-single_zone-outdoor-daikin-rza.prj},224 {VTYP=3D},{NB=RZA42AAVJU_PART4},{LINA=RZA42AAVJU_PART4},{NN=(R32) Heat Pump Unit Sky-Air Daikin RZA_PART4},{NOPRJ=TRUE}
100
AcDbAttributeDefinition
  3

  2
PSOL_0
 70
     9
280
     0
  0
ATTDEF
  5
CD
330
BA
100
AcDbEntity
  8
AM_6
100
AcDbText
 10
400.287500000017
 20
11.55
 30
0.0
 40
0.5
  1
=03.06.2026 19:23:41},{GEOMDATE=23.09.2025 06:35:21},{VERSION=},{LINEID=20},{WBVAR=},{WBNUMERIC=}  {NB=RZA42AAVJU_PART4},{LINA=RZA42AAVJU_PART4},{KT=DUMMY},{PARTNUMBER=RZA42AAVJU},{PARTNUMBERMAP09=3.5Ton_RZA42AAVJU},{AMBIENT_TEMPERATURE=0},{APPARENT
100
AcDbAttributeDefinition
  3

  2
PSOL_1
 70
     9
280
     0
  0
ATTDEF
  5
CE
330
BA
100
AcDbEntity
  8
AM_6
100
AcDbText
 10
400.287500000017
 20
11.05
 30
0.0
 40
0.5
  1
=8304},{ASSEMBLY_CODE=D3040600},{BACK_CLEARANCE=0.5},{CATEGORY=Mechanical Equipment},{CLEARANCE_VISIBILITY=1},{COMPRESSOR_TYPE=Hermetically sealed swing type},{COST=0},{DEFAULT_ELEVATION=0},{DESCRIPTION=Single Zone Heat Pump Outdoor Units},{DRAIN_FL
100
AcDbAttributeDefinition
  3

  2
PSOL_2
 70
     9
280
     0
  0
ATTDEF
  5
CF
330
BA
100
AcDbEntity
  8
AM_6
100
AcDbText
 10
400.287500000017
 20
10.55
 30
0.0
 40
0.5
  1
{ENCLOSURE_DEPTH=1.51041666666667},{ENCLOSURE_WIDTH=3.609375},{FAN_TYPE=Propeller},{FAN_VENT_DEPTH=0.0520833333333333},{FAN_VENT_HEIGHT=2.42708333333333},{FREQUENCY=60},{FRONT_CLEARANCE=1.66666666666667},{HEATING_CAPACITY_AT_17F=32000},{HEATING_CAPA
100
AcDbAttributeDefinition
  3

  2
PSOL_3
 70
     9
280
     0
  0
ATTDEF
  5
D0
330
BA
100
AcDbEntity
  8
AM_6
100
AcDbText
 10
400.287500000017
 20
10.05
 30
0.0
 40
0.5
  1
T_47F=47000},{LEFT_CLEARANCE=0.5},{LOAD_SUB_CLASSIFICATION_MOTOR=1},{MANUFACTURER=Daikin},{MASSUNIT=1},{MAXIMUM_OVERCURRENT_PROTECTION=35},{MINIMUM_CIRCUIT_AMPS=34.6},{MODEL=RZA42AAVJU},{NOMINAL_COOLING_CAPACITY=40500},{NOMINAL_COOLING_CAPACITY__TON
100
AcDbAttributeDefinition
  3

  2
PSOL_4
 70
     9
280
     0
  0
ATTDEF
  5
D1
330
BA
100
AcDbEntity
  8
AM_6
100
AcDbText
 10
400.287500000017
 20
9.55
 30
0.0
 40
0.5
  1
},{NOMINAL_HEATING_CAPACITY=0},{NUMBER_OF_POLES=2},{OMNICLASS_NUMBER=23.33.39.21},{OVERALL_DEPTH=18.1250},{OVERALL_HEIGHT=34.2500},{OVERALL_WIDTH=43.3125},{PARTTYPE=Normal},{PHASE=1},{REFRIGERANT_CHARGE=7.5},{REFRIGERANT_LIQUID_CONNECTION_DIAMETER=0
100
AcDbAttributeDefinition
  3

  2
PSOL_5
 70
     9
280
     0
  0
ATTDEF
  5
D2
330
BA
100
AcDbEntity
  8
AM_6
100
AcDbText
 10
400.287500000017
 20
9.05
 30
0.0
 40
0.5
  1
{REFRIGERANT_LIQUID_CONNECTION_HORIZONTAL_OFFSET=0.171875},{REFRIGERANT_LIQUID_CONNECTION_RADIUS=0.015625},{REFRIGERANT_LIQUID_CONNECTION_VERTICAL_OFFSET=0.635416666666667},{REFRIGERANT_PIPE_OFFSET=1.51041666666667},{REFRIGERANT_SUCTION_GAS_CONNECTI
100
AcDbAttributeDefinition
  3

  2
PSOL_6
 70
     9
280
     0
  0
ATTDEF
  5
D3
330
BA
100
AcDbEntity
  8
AM_6
100
AcDbText
 10
400.287500000017
 20
8.55
 30
0.0
 40
0.5
  1
METER=0.625},{REFRIGERANT_SUCTION_GAS_CONNECTION_HORIZONTAL_OFFSET=0.171875},{REFRIGERANT_SUCTION_GAS_CONNECTION_RADIUS=0.0260416666666667},{REFRIGERANT_SUCTION_GAS_CONNECTION_VERTICAL_OFFSET=0.442708333333333},{REFRIGERANT_USED=R-32},{RIGHT_CLEARAN
100
AcDbAttributeDefinition
  3

  2
PSOL_7
 70
     9
280
     0
  0
ATTDEF
  5
D4
330
BA
100
AcDbEntity
  8
AM_6
100
AcDbText
 10
400.287500000017
 20
8.05
 30
0.0
 40
0.5
  1
},{SERIES=SkyAir},{TOP_CLEARANCE=3.33333333333333},{UNIT_LEG_SPACING=2.42708333333333},{UNIT_WEIGHT=234},{URL=https://daikincomfort.com/},{VERSION=1},{VOLTAGE=240},{VOLTAGE_COMMENTS=208 VAC - 230 VAC},{RFA_FAMILY=Download Revit Family (RFA)},{DEFAUL
100
AcDbAttributeDefinition
  3

  2
PSOL_8
 70
     9
280
     0
  0
ATTDEF
  5
D5
330
BA
100
AcDbEntity
  8
AM_6
100
AcDbText
 10
400.287500000017
 20
7.550000000000001
 30
0.0
 40
0.5
  1
TTR=42},{RFA_FAMILY_=../../_pool_/e1/49/heat_pump_unit-single_zone-outdoor-daikin-rza.zip},{RFA_FAMILY_ENG=../../_pool_/e1/49/heat_pump_unit-single_zone-outdoor-daikin-rza.zip},{REVIT_FAMILY_DOWNLOAD=../../_pool_/e1/49/heat_pump_unit-single_zone-out
100
AcDbAttributeDefinition
  3

  2
PSOL_9
 70
     9
280
     0
  0
ATTDEF
  5
D6
330
BA
100
AcDbEntity
  8
AM_6
100
AcDbText
 10
400.287500000017
 20
7.050000000000001
 30
0.0
 40
0.5
  1
aikin-rza.zip}
100
AcDbAttributeDefinition
  3

  2
PSOL_10
 70
     9
280
     0
  0
LINE
  5
D7
330
BA
100
AcDbEntity
  8
AM_0
100
AcDbLine
 10
395.287500000017
 20
19.05
 30
0.0
 11
344.487499999999
 21
19.05
 31
0.0
  0
LINE
  5
D8
330
BA
100
AcDbEntity
  8
AM_0
100
AcDbLine
 10
344.487499999999
 20
19.05
 30
0.0
 11
344.487499999999
 21
0.0
 31
0.0
  0
LINE
  5
D9
330
BA
100
AcDbEntity
  8
AM_0
100
AcDbLine
 10
344.487499999999
 20
0.0
 30
0.0
 11
395.287500000017
 21
0.0
 31
0.0
  0
LINE
  5
DA
330
BA
100
AcDbEntity
  8
AM_0
100
AcDbLine
 10
395.287500000017
 20
0.0
 30
0.0
 11
395.287500000017
 21
19.05
 31
0.0
  0
ENDBLK
  5
BD
330
BA
100
AcDbEntity
  8
0
100
AcDbBlockEnd
  0
BLOCK
  5
DD
330
DB
100
AcDbEntity
  8
0
100
AcDbBlockBegin
  2
4_RZA42AAVJU_PART3_0_in_RZA42AAVJU_0
 70
     2
 10
0.0
 20
0.0
 30
0.0
  3
4_RZA42AAVJU_PART3_0_in_RZA42AAVJU_0
  1

  0
ATTDEF
  5
DF
330
DB
100
AcDbEntity
  8
AM_6
100
AcDbText
 10
326.4687500000421
 20
814.387500000007
 30
0.0
 40
0.5
  1
RZA42AAVJU_PART3
100
AcDbAttributeDefinition
  3

  2
NB
 70
     8
280
     0
  0
ATTDEF
  5
E0
330
DB
100
AcDbEntity
  8
AM_6
100
AcDbText
 10
326.4687500000421
 20
813.887500000007
 30
0.0
 40
0.5
  1

100
AcDbAttributeDefinition
  3

  2
NN
 70
     8
280
     0
  0
ATTDEF
  5
E1
330
DB
100
AcDbEntity
  8
AM_6
100
AcDbText
 10
326.4687500000421
 20
813.387500000007
 30
0.0
 40
0.5
  1

100
AcDbAttributeDefinition
  3

  2
NT
 70
     8
280
     0
  0
ATTDEF
  5
E2
330
DB
100
AcDbEntity
  8
AM_6
100
AcDbText
 10
326.4687500000421
 20
812.887500000007
 30
0.0
 40
0.5
  1
$PARTNUMBER._PART3
100
AcDbAttributeDefinition
  3

  2
NBSYN
 70
     8
280
     0
  0
ATTDEF
  5
E3
330
DB
100
AcDbEntity
  8
AM_6
100
AcDbText
 10
326.4687500000421
 20
812.387500000007
 30
0.0
 40
0.5
  1
RZA42AAVJU_PART3
100
AcDbAttributeDefinition
  3

  2
LINA
 70
     8
280
     0
  0
ATTDEF
  5
E4
330
DB
100
AcDbEntity
  8
AM_6
100
AcDbText
 10
326.4687500000421
 20
811.887500000007
 30
0.0
 40
0.5
  1
Daikin
100
AcDbAttributeDefinition
  3

  2
CATALOG
 70
     8
280
     0
  0
ATTDEF
  5
E5
330
DB
100
AcDbEntity
  8
AM_6
100
AcDbText
 10
326.4687500000421
 20
811.387500000007
 30
0.0
 40
0.5
  1
RZA42AAVJU
100
AcDbAttributeDefinition
  3

  2
PARTNUMBER
 70
     8
280
     0
  0
ATTDEF
  5
E6
330
DB
100
AcDbEntity
  8
AM_6
100
AcDbText
 10
326.4687500000421
 20
810.887500000007
 30
0.0
 40
0.5
  1
Single Zone Heat Pump Outdoor Units
100
AcDbAttributeDefinition
  3

  2
DESCRIPTION
 70
     8
280
     0
  0
ATTDEF
  5
E7
330
DB
100
AcDbEntity
  8
AM_6
100
AcDbText
 10
326.4687500000421
 20
810.387500000007
 30
0.0
 40
0.5
  1
18.1250
100
AcDbAttributeDefinition
  3

  2
OVERALL_DEPTH
 70
     8
280
     0
  0
ATTDEF
  5
E8
330
DB
100
AcDbEntity
  8
AM_6
100
AcDbText
 10
326.4687500000421
 20
809.887500000007
 30
0.0
 40
0.5
  1
34.2500
100
AcDbAttributeDefinition
  3

  2
OVERALL_HEIGHT
 70
     8
280
     0
  0
ATTDEF
  5
E9
330
DB
100
AcDbEntity
  8
AM_6
100
AcDbText
 10
326.4687500000421
 20
809.387500000007
 30
0.0
 40
0.5
  1
43.3125
100
AcDbAttributeDefinition
  3

  2
OVERALL_WIDTH
 70
     8
280
     0
  0
ATTDEF
  5
EA
330
DB
100
AcDbEntity
  8
AM_6
100
AcDbText
 10
326.4687500000421
 20
808.887500000007
 30
0.0
 40
0.5
  1
https://daikincomfort.com/
100
AcDbAttributeDefinition
  3

  2
URL
 70
     8
280
     0
  0
ATTDEF
  5
EB
330
DB
100
AcDbEntity
  8
AM_6
100
AcDbText
 10
326.4687500000421
 20
808.387500000007
 30
0.0
 40
0.5
  1
Download Revit Family (RFA)
100
AcDbAttributeDefinition
  3

  2
RFA_FAMILY
 70
     8
280
     0
  0
ATTDEF
  5
EC
330
DB
100
AcDbEntity
  8
AM_6
100
AcDbText
 10
326.4687500000421
 20
807.887500000007
 30
0.0
 40
0.5
  1
daikin
100
AcDbAttributeDefinition
  3

  2
COMPANY
 70
     8
280
     0
  0
ATTDEF
  5
ED
330
DB
100
AcDbEntity
  8
AM_6
100
AcDbText
 10
326.4687500000421
 20
807.387500000007
 30
0.0
 40
0.5
  1
{$CADENAS_DATA/23d-libs/daikin/sky-air/sky-air20heat20pump20outdoor20units/heat_pump_unit-single_zone-outdoor-daikin-rza.prj},224 {VTYP=3D},{NB=RZA42AAVJU_PART3},{LINA=RZA42AAVJU_PART3},{NN=(R32) Heat Pump Unit Sky-Air Daikin RZA_PART3},{NOPRJ=TRUE}
100
AcDbAttributeDefinition
  3

  2
PSOL_0
 70
     9
280
     0
  0
ATTDEF
  5
EE
330
DB
100
AcDbEntity
  8
AM_6
100
AcDbText
 10
326.4687500000421
 20
806.887500000007
 30
0.0
 40
0.5
  1
=03.06.2026 19:23:41},{GEOMDATE=23.09.2025 06:35:21},{VERSION=},{LINEID=20},{WBVAR=},{WBNUMERIC=}  {NB=RZA42AAVJU_PART3},{LINA=RZA42AAVJU_PART3},{KT=DUMMY},{PARTNUMBER=RZA42AAVJU},{PARTNUMBERMAP09=3.5Ton_RZA42AAVJU},{AMBIENT_TEMPERATURE=0},{APPARENT
100
AcDbAttributeDefinition
  3

  2
PSOL_1
 70
     9
280
     0
  0
ATTDEF
  5
EF
330
DB
100
AcDbEntity
  8
AM_6
100
AcDbText
 10
326.4687500000421
 20
806.387500000007
 30
0.0
 40
0.5
  1
=8304},{ASSEMBLY_CODE=D3040600},{BACK_CLEARANCE=0.5},{CATEGORY=Mechanical Equipment},{CLEARANCE_VISIBILITY=1},{COMPRESSOR_TYPE=Hermetically sealed swing type},{COST=0},{DEFAULT_ELEVATION=0},{DESCRIPTION=Single Zone Heat Pump Outdoor Units},{DRAIN_FL
100
AcDbAttributeDefinition
  3

  2
PSOL_2
 70
     9
280
     0
  0
ATTDEF
  5
F0
330
DB
100
AcDbEntity
  8
AM_6
100
AcDbText
 10
326.4687500000421
 20
805.887500000007
 30
0.0
 40
0.5
  1
{ENCLOSURE_DEPTH=1.51041666666667},{ENCLOSURE_WIDTH=3.609375},{FAN_TYPE=Propeller},{FAN_VENT_DEPTH=0.0520833333333333},{FAN_VENT_HEIGHT=2.42708333333333},{FREQUENCY=60},{FRONT_CLEARANCE=1.66666666666667},{HEATING_CAPACITY_AT_17F=32000},{HEATING_CAPA
100
AcDbAttributeDefinition
  3

  2
PSOL_3
 70
     9
280
     0
  0
ATTDEF
  5
F1
330
DB
100
AcDbEntity
  8
AM_6
100
AcDbText
 10
326.4687500000421
 20
805.387500000007
 30
0.0
 40
0.5
  1
T_47F=47000},{LEFT_CLEARANCE=0.5},{LOAD_SUB_CLASSIFICATION_MOTOR=1},{MANUFACTURER=Daikin},{MASSUNIT=1},{MAXIMUM_OVERCURRENT_PROTECTION=35},{MINIMUM_CIRCUIT_AMPS=34.6},{MODEL=RZA42AAVJU},{NOMINAL_COOLING_CAPACITY=40500},{NOMINAL_COOLING_CAPACITY__TON
100
AcDbAttributeDefinition
  3

  2
PSOL_4
 70
     9
280
     0
  0
ATTDEF
  5
F2
330
DB
100
AcDbEntity
  8
AM_6
100
AcDbText
 10
326.4687500000421
 20
804.887500000007
 30
0.0
 40
0.5
  1
},{NOMINAL_HEATING_CAPACITY=0},{NUMBER_OF_POLES=2},{OMNICLASS_NUMBER=23.33.39.21},{OVERALL_DEPTH=18.1250},{OVERALL_HEIGHT=34.2500},{OVERALL_WIDTH=43.3125},{PARTTYPE=Normal},{PHASE=1},{REFRIGERANT_CHARGE=7.5},{REFRIGERANT_LIQUID_CONNECTION_DIAMETER=0
100
AcDbAttributeDefinition
  3

  2
PSOL_5
 70
     9
280
     0
  0
ATTDEF
  5
F3
330
DB
100
AcDbEntity
  8
AM_6
100
AcDbText
 10
326.4687500000421
 20
804.387500000007
 30
0.0
 40
0.5
  1
{REFRIGERANT_LIQUID_CONNECTION_HORIZONTAL_OFFSET=0.171875},{REFRIGERANT_LIQUID_CONNECTION_RADIUS=0.015625},{REFRIGERANT_LIQUID_CONNECTION_VERTICAL_OFFSET=0.635416666666667},{REFRIGERANT_PIPE_OFFSET=1.51041666666667},{REFRIGERANT_SUCTION_GAS_CONNECTI
100
AcDbAttributeDefinition
  3

  2
PSOL_6
 70
     9
280
     0
  0
ATTDEF
  5
F4
330
DB
100
AcDbEntity
  8
AM_6
100
AcDbText
 10
326.4687500000421
 20
803.887500000007
 30
0.0
 40
0.5
  1
METER=0.625},{REFRIGERANT_SUCTION_GAS_CONNECTION_HORIZONTAL_OFFSET=0.171875},{REFRIGERANT_SUCTION_GAS_CONNECTION_RADIUS=0.0260416666666667},{REFRIGERANT_SUCTION_GAS_CONNECTION_VERTICAL_OFFSET=0.442708333333333},{REFRIGERANT_USED=R-32},{RIGHT_CLEARAN
100
AcDbAttributeDefinition
  3

  2
PSOL_7
 70
     9
280
     0
  0
ATTDEF
  5
F5
330
DB
100
AcDbEntity
  8
AM_6
100
AcDbText
 10
326.4687500000421
 20
803.387500000007
 30
0.0
 40
0.5
  1
},{SERIES=SkyAir},{TOP_CLEARANCE=3.33333333333333},{UNIT_LEG_SPACING=2.42708333333333},{UNIT_WEIGHT=234},{URL=https://daikincomfort.com/},{VERSION=1},{VOLTAGE=240},{VOLTAGE_COMMENTS=208 VAC - 230 VAC},{RFA_FAMILY=Download Revit Family (RFA)},{DEFAUL
100
AcDbAttributeDefinition
  3

  2
PSOL_8
 70
     9
280
     0
  0
ATTDEF
  5
F6
330
DB
100
AcDbEntity
  8
AM_6
100
AcDbText
 10
326.4687500000421
 20
802.887500000007
 30
0.0
 40
0.5
  1
TTR=42},{RFA_FAMILY_=../../_pool_/e1/49/heat_pump_unit-single_zone-outdoor-daikin-rza.zip},{RFA_FAMILY_ENG=../../_pool_/e1/49/heat_pump_unit-single_zone-outdoor-daikin-rza.zip},{REVIT_FAMILY_DOWNLOAD=../../_pool_/e1/49/heat_pump_unit-single_zone-out
100
AcDbAttributeDefinition
  3

  2
PSOL_9
 70
     9
280
     0
  0
ATTDEF
  5
F7
330
DB
100
AcDbEntity
  8
AM_6
100
AcDbText
 10
326.4687500000421
 20
802.387500000007
 30
0.0
 40
0.5
  1
aikin-rza.zip}
100
AcDbAttributeDefinition
  3

  2
PSOL_10
 70
     9
280
     0
  0
LINE
  5
F8
330
DB
100
AcDbEntity
  8
AM_0
100
AcDbLine
 10
-524.668749999888
 20
814.387500000007
 30
0.0
 11
-524.668749999888
 21
74.61250000000696
 31
0.0
  0
LINE
  5
F9
330
DB
100
AcDbEntity
  8
AM_0
100
AcDbLine
 10
321.468750000042
 20
814.387500000007
 30
0.0
 11
-524.6687499998881
 21
814.387500000007
 31
0.0
  0
LINE
  5
FA
330
DB
100
AcDbEntity
  8
AM_0
100
AcDbLine
 10
321.468750000042
 20
74.612500000007
 30
0.0
 11
321.468750000042
 21
814.387500000007
 31
0.0
  0
LINE
  5
FB
330
DB
100
AcDbEntity
  8
AM_0
100
AcDbLine
 10
-524.668749999888
 20
74.612500000007
 30
0.0
 11
321.4687500000421
 21
74.612500000007
 31
0.0
  0
ENDBLK
  5
DE
330
DB
100
AcDbEntity
  8
0
100
AcDbBlockEnd
  0
BLOCK
  5
FE
330
FC
100
AcDbEntity
  8
0
100
AcDbBlockBegin
  2
5_RZA42AAVJU_PART2_0_in_RZA42AAVJU_0
 70
     2
 10
0.0
 20
0.0
 30
0.0
  3
5_RZA42AAVJU_PART2_0_in_RZA42AAVJU_0
  1

  0
ATTDEF
  5
100
330
FC
100
AcDbEntity
  8
AM_6
100
AcDbText
 10
507.681875000005
 20
198.675624999998
 30
0.0
 40
0.5
  1
RZA42AAVJU_PART2
100
AcDbAttributeDefinition
  3

  2
NB
 70
     8
280
     0
  0
ATTDEF
  5
101
330
FC
100
AcDbEntity
  8
AM_6
100
AcDbText
 10
507.681875000005
 20
198.175624999998
 30
0.0
 40
0.5
  1

100
AcDbAttributeDefinition
  3

  2
NN
 70
     8
280
     0
  0
ATTDEF
  5
102
330
FC
100
AcDbEntity
  8
AM_6
100
AcDbText
 10
507.681875000005
 20
197.675624999998
 30
0.0
 40
0.5
  1

100
AcDbAttributeDefinition
  3

  2
NT
 70
     8
280
     0
  0
ATTDEF
  5
103
330
FC
100
AcDbEntity
  8
AM_6
100
AcDbText
 10
507.681875000005
 20
197.175624999998
 30
0.0
 40
0.5
  1
$PARTNUMBER._PART2
100
AcDbAttributeDefinition
  3

  2
NBSYN
 70
     8
280
     0
  0
ATTDEF
  5
104
330
FC
100
AcDbEntity
  8
AM_6
100
AcDbText
 10
507.681875000005
 20
196.675624999998
 30
0.0
 40
0.5
  1
RZA42AAVJU_PART2
100
AcDbAttributeDefinition
  3

  2
LINA
 70
     8
280
     0
  0
ATTDEF
  5
105
330
FC
100
AcDbEntity
  8
AM_6
100
AcDbText
 10
507.681875000005
 20
196.175624999998
 30
0.0
 40
0.5
  1
Daikin
100
AcDbAttributeDefinition
  3

  2
CATALOG
 70
     8
280
     0
  0
ATTDEF
  5
106
330
FC
100
AcDbEntity
  8
AM_6
100
AcDbText
 10
507.681875000005
 20
195.675624999998
 30
0.0
 40
0.5
  1
RZA42AAVJU
100
AcDbAttributeDefinition
  3

  2
PARTNUMBER
 70
     8
280
     0
  0
ATTDEF
  5
107
330
FC
100
AcDbEntity
  8
AM_6
100
AcDbText
 10
507.681875000005
 20
195.175624999998
 30
0.0
 40
0.5
  1
Single Zone Heat Pump Outdoor Units
100
AcDbAttributeDefinition
  3

  2
DESCRIPTION
 70
     8
280
     0
  0
ATTDEF
  5
108
330
FC
100
AcDbEntity
  8
AM_6
100
AcDbText
 10
507.681875000005
 20
194.675624999998
 30
0.0
 40
0.5
  1
18.1250
100
AcDbAttributeDefinition
  3

  2
OVERALL_DEPTH
 70
     8
280
     0
  0
ATTDEF
  5
109
330
FC
100
AcDbEntity
  8
AM_6
100
AcDbText
 10
507.681875000005
 20
194.175624999998
 30
0.0
 40
0.5
  1
34.2500
100
AcDbAttributeDefinition
  3

  2
OVERALL_HEIGHT
 70
     8
280
     0
  0
ATTDEF
  5
10A
330
FC
100
AcDbEntity
  8
AM_6
100
AcDbText
 10
507.681875000005
 20
193.675624999998
 30
0.0
 40
0.5
  1
43.3125
100
AcDbAttributeDefinition
  3

  2
OVERALL_WIDTH
 70
     8
280
     0
  0
ATTDEF
  5
10B
330
FC
100
AcDbEntity
  8
AM_6
100
AcDbText
 10
507.681875000005
 20
193.175624999998
 30
0.0
 40
0.5
  1
https://daikincomfort.com/
100
AcDbAttributeDefinition
  3

  2
URL
 70
     8
280
     0
  0
ATTDEF
  5
10C
330
FC
100
AcDbEntity
  8
AM_6
100
AcDbText
 10
507.681875000005
 20
192.675624999998
 30
0.0
 40
0.5
  1
Download Revit Family (RFA)
100
AcDbAttributeDefinition
  3

  2
RFA_FAMILY
 70
     8
280
     0
  0
ATTDEF
  5
10D
330
FC
100
AcDbEntity
  8
AM_6
100
AcDbText
 10
507.681875000005
 20
192.175624999998
 30
0.0
 40
0.5
  1
daikin
100
AcDbAttributeDefinition
  3

  2
COMPANY
 70
     8
280
     0
  0
ATTDEF
  5
10E
330
FC
100
AcDbEntity
  8
AM_6
100
AcDbText
 10
507.681875000005
 20
191.675624999998
 30
0.0
 40
0.5
  1
{$CADENAS_DATA/23d-libs/daikin/sky-air/sky-air20heat20pump20outdoor20units/heat_pump_unit-single_zone-outdoor-daikin-rza.prj},224 {VTYP=3D},{NB=RZA42AAVJU_PART2},{LINA=RZA42AAVJU_PART2},{NN=(R32) Heat Pump Unit Sky-Air Daikin RZA_PART2},{NOPRJ=TRUE}
100
AcDbAttributeDefinition
  3

  2
PSOL_0
 70
     9
280
     0
  0
ATTDEF
  5
10F
330
FC
100
AcDbEntity
  8
AM_6
100
AcDbText
 10
507.681875000005
 20
191.175624999998
 30
0.0
 40
0.5
  1
=03.06.2026 19:23:41},{GEOMDATE=23.09.2025 06:35:21},{VERSION=},{LINEID=20},{WBVAR=},{WBNUMERIC=}  {NB=RZA42AAVJU_PART2},{LINA=RZA42AAVJU_PART2},{KT=DUMMY},{PARTNUMBER=RZA42AAVJU},{PARTNUMBERMAP09=3.5Ton_RZA42AAVJU},{AMBIENT_TEMPERATURE=0},{APPARENT
100
AcDbAttributeDefinition
  3

  2
PSOL_1
 70
     9
280
     0
  0
ATTDEF
  5
110
330
FC
100
AcDbEntity
  8
AM_6
100
AcDbText
 10
507.681875000005
 20
190.675624999998
 30
0.0
 40
0.5
  1
=8304},{ASSEMBLY_CODE=D3040600},{BACK_CLEARANCE=0.5},{CATEGORY=Mechanical Equipment},{CLEARANCE_VISIBILITY=1},{COMPRESSOR_TYPE=Hermetically sealed swing type},{COST=0},{DEFAULT_ELEVATION=0},{DESCRIPTION=Single Zone Heat Pump Outdoor Units},{DRAIN_FL
100
AcDbAttributeDefinition
  3

  2
PSOL_2
 70
     9
280
     0
  0
ATTDEF
  5
111
330
FC
100
AcDbEntity
  8
AM_6
100
AcDbText
 10
507.681875000005
 20
190.175624999998
 30
0.0
 40
0.5
  1
{ENCLOSURE_DEPTH=1.51041666666667},{ENCLOSURE_WIDTH=3.609375},{FAN_TYPE=Propeller},{FAN_VENT_DEPTH=0.0520833333333333},{FAN_VENT_HEIGHT=2.42708333333333},{FREQUENCY=60},{FRONT_CLEARANCE=1.66666666666667},{HEATING_CAPACITY_AT_17F=32000},{HEATING_CAPA
100
AcDbAttributeDefinition
  3

  2
PSOL_3
 70
     9
280
     0
  0
ATTDEF
  5
112
330
FC
100
AcDbEntity
  8
AM_6
100
AcDbText
 10
507.681875000005
 20
189.675624999998
 30
0.0
 40
0.5
  1
T_47F=47000},{LEFT_CLEARANCE=0.5},{LOAD_SUB_CLASSIFICATION_MOTOR=1},{MANUFACTURER=Daikin},{MASSUNIT=1},{MAXIMUM_OVERCURRENT_PROTECTION=35},{MINIMUM_CIRCUIT_AMPS=34.6},{MODEL=RZA42AAVJU},{NOMINAL_COOLING_CAPACITY=40500},{NOMINAL_COOLING_CAPACITY__TON
100
AcDbAttributeDefinition
  3

  2
PSOL_4
 70
     9
280
     0
  0
ATTDEF
  5
113
330
FC
100
AcDbEntity
  8
AM_6
100
AcDbText
 10
507.681875000005
 20
189.175624999998
 30
0.0
 40
0.5
  1
},{NOMINAL_HEATING_CAPACITY=0},{NUMBER_OF_POLES=2},{OMNICLASS_NUMBER=23.33.39.21},{OVERALL_DEPTH=18.1250},{OVERALL_HEIGHT=34.2500},{OVERALL_WIDTH=43.3125},{PARTTYPE=Normal},{PHASE=1},{REFRIGERANT_CHARGE=7.5},{REFRIGERANT_LIQUID_CONNECTION_DIAMETER=0
100
AcDbAttributeDefinition
  3

  2
PSOL_5
 70
     9
280
     0
  0
ATTDEF
  5
114
330
FC
100
AcDbEntity
  8
AM_6
100
AcDbText
 10
507.681875000005
 20
188.675624999998
 30
0.0
 40
0.5
  1
{REFRIGERANT_LIQUID_CONNECTION_HORIZONTAL_OFFSET=0.171875},{REFRIGERANT_LIQUID_CONNECTION_RADIUS=0.015625},{REFRIGERANT_LIQUID_CONNECTION_VERTICAL_OFFSET=0.635416666666667},{REFRIGERANT_PIPE_OFFSET=1.51041666666667},{REFRIGERANT_SUCTION_GAS_CONNECTI
100
AcDbAttributeDefinition
  3

  2
PSOL_6
 70
     9
280
     0
  0
ATTDEF
  5
115
330
FC
100
AcDbEntity
  8
AM_6
100
AcDbText
 10
507.681875000005
 20
188.175624999998
 30
0.0
 40
0.5
  1
METER=0.625},{REFRIGERANT_SUCTION_GAS_CONNECTION_HORIZONTAL_OFFSET=0.171875},{REFRIGERANT_SUCTION_GAS_CONNECTION_RADIUS=0.0260416666666667},{REFRIGERANT_SUCTION_GAS_CONNECTION_VERTICAL_OFFSET=0.442708333333333},{REFRIGERANT_USED=R-32},{RIGHT_CLEARAN
100
AcDbAttributeDefinition
  3

  2
PSOL_7
 70
     9
280
     0
  0
ATTDEF
  5
116
330
FC
100
AcDbEntity
  8
AM_6
100
AcDbText
 10
507.681875000005
 20
187.675624999998
 30
0.0
 40
0.5
  1
},{SERIES=SkyAir},{TOP_CLEARANCE=3.33333333333333},{UNIT_LEG_SPACING=2.42708333333333},{UNIT_WEIGHT=234},{URL=https://daikincomfort.com/},{VERSION=1},{VOLTAGE=240},{VOLTAGE_COMMENTS=208 VAC - 230 VAC},{RFA_FAMILY=Download Revit Family (RFA)},{DEFAUL
100
AcDbAttributeDefinition
  3

  2
PSOL_8
 70
     9
280
     0
  0
ATTDEF
  5
117
330
FC
100
AcDbEntity
  8
AM_6
100
AcDbText
 10
507.681875000005
 20
187.175624999998
 30
0.0
 40
0.5
  1
TTR=42},{RFA_FAMILY_=../../_pool_/e1/49/heat_pump_unit-single_zone-outdoor-daikin-rza.zip},{RFA_FAMILY_ENG=../../_pool_/e1/49/heat_pump_unit-single_zone-outdoor-daikin-rza.zip},{REVIT_FAMILY_DOWNLOAD=../../_pool_/e1/49/heat_pump_unit-single_zone-out
100
AcDbAttributeDefinition
  3

  2
PSOL_9
 70
     9
280
     0
  0
ATTDEF
  5
118
330
FC
100
AcDbEntity
  8
AM_6
100
AcDbText
 10
507.681875000005
 20
186.675624999998
 30
0.0
 40
0.5
  1
aikin-rza.zip}
100
AcDbAttributeDefinition
  3

  2
PSOL_10
 70
     9
280
     0
  0
CIRCLE
  5
11B
330
FC
100
AcDbEntity
  8
AM_9
100
AcDbCircle
 10
497.681250000005
 20
193.674999999998
 30
0.0
 40
4.7625
  0
LINE
  5
11E
330
FC
100
AcDbEntity
  8
AM_7
100
AcDbLine
 10
492.680625000005
 20
193.674999999998
 30
0.0
 11
502.681875000005
 21
193.674999999998
 31
0.0
  0
LINE
  5
11F
330
FC
100
AcDbEntity
  8
AM_7
100
AcDbLine
 10
497.681250000005
 20
188.674374999998
 30
0.0
 11
497.681250000005
 21
198.675624999998
 31
0.0
  0
ENDBLK
  5
FF
330
FC
100
AcDbEntity
  8
0
100
AcDbBlockEnd
  0
BLOCK
  5
122
330
120
100
AcDbEntity
  8
0
100
AcDbBlockBegin
  2
6_RZA42AAVJU_PART1_0_in_RZA42AAVJU_0
 70
     2
 10
0.0
 20
0.0
 30
0.0
  3
6_RZA42AAVJU_PART1_0_in_RZA42AAVJU_0
  1

  0
ATTDEF
  5
124
330
120
100
AcDbEntity
  8
AM_6
100
AcDbText
 10
511.0156250000001
 20
143.271874999998
 30
0.0
 40
0.5
  1
RZA42AAVJU_PART1
100
AcDbAttributeDefinition
  3

  2
NB
 70
     8
280
     0
  0
ATTDEF
  5
125
330
120
100
AcDbEntity
  8
AM_6
100
AcDbText
 10
511.0156250000001
 20
142.771874999998
 30
0.0
 40
0.5
  1

100
AcDbAttributeDefinition
  3

  2
NN
 70
     8
280
     0
  0
ATTDEF
  5
126
330
120
100
AcDbEntity
  8
AM_6
100
AcDbText
 10
511.0156250000001
 20
142.271874999998
 30
0.0
 40
0.5
  1

100
AcDbAttributeDefinition
  3

  2
NT
 70
     8
280
     0
  0
ATTDEF
  5
127
330
120
100
AcDbEntity
  8
AM_6
100
AcDbText
 10
511.0156250000001
 20
141.771874999998
 30
0.0
 40
0.5
  1
$PARTNUMBER._PART1
100
AcDbAttributeDefinition
  3

  2
NBSYN
 70
     8
280
     0
  0
ATTDEF
  5
128
330
120
100
AcDbEntity
  8
AM_6
100
AcDbText
 10
511.0156250000001
 20
141.271874999998
 30
0.0
 40
0.5
  1
RZA42AAVJU_PART1
100
AcDbAttributeDefinition
  3

  2
LINA
 70
     8
280
     0
  0
ATTDEF
  5
129
330
120
100
AcDbEntity
  8
AM_6
100
AcDbText
 10
511.0156250000001
 20
140.771874999998
 30
0.0
 40
0.5
  1
Daikin
100
AcDbAttributeDefinition
  3

  2
CATALOG
 70
     8
280
     0
  0
ATTDEF
  5
12A
330
120
100
AcDbEntity
  8
AM_6
100
AcDbText
 10
511.0156250000001
 20
140.271874999998
 30
0.0
 40
0.5
  1
RZA42AAVJU
100
AcDbAttributeDefinition
  3

  2
PARTNUMBER
 70
     8
280
     0
  0
ATTDEF
  5
12B
330
120
100
AcDbEntity
  8
AM_6
100
AcDbText
 10
511.0156250000001
 20
139.771874999998
 30
0.0
 40
0.5
  1
Single Zone Heat Pump Outdoor Units
100
AcDbAttributeDefinition
  3

  2
DESCRIPTION
 70
     8
280
     0
  0
ATTDEF
  5
12C
330
120
100
AcDbEntity
  8
AM_6
100
AcDbText
 10
511.0156250000001
 20
139.271874999998
 30
0.0
 40
0.5
  1
18.1250
100
AcDbAttributeDefinition
  3

  2
OVERALL_DEPTH
 70
     8
280
     0
  0
ATTDEF
  5
12D
330
120
100
AcDbEntity
  8
AM_6
100
AcDbText
 10
511.0156250000001
 20
138.771874999998
 30
0.0
 40
0.5
  1
34.2500
100
AcDbAttributeDefinition
  3

  2
OVERALL_HEIGHT
 70
     8
280
     0
  0
ATTDEF
  5
12E
330
120
100
AcDbEntity
  8
AM_6
100
AcDbText
 10
511.0156250000001
 20
138.271874999998
 30
0.0
 40
0.5
  1
43.3125
100
AcDbAttributeDefinition
  3

  2
OVERALL_WIDTH
 70
     8
280
     0
  0
ATTDEF
  5
12F
330
120
100
AcDbEntity
  8
AM_6
100
AcDbText
 10
511.0156250000001
 20
137.771874999998
 30
0.0
 40
0.5
  1
https://daikincomfort.com/
100
AcDbAttributeDefinition
  3

  2
URL
 70
     8
280
     0
  0
ATTDEF
  5
130
330
120
100
AcDbEntity
  8
AM_6
100
AcDbText
 10
511.0156250000001
 20
137.271874999998
 30
0.0
 40
0.5
  1
Download Revit Family (RFA)
100
AcDbAttributeDefinition
  3

  2
RFA_FAMILY
 70
     8
280
     0
  0
ATTDEF
  5
131
330
120
100
AcDbEntity
  8
AM_6
100
AcDbText
 10
511.0156250000001
 20
136.771874999998
 30
0.0
 40
0.5
  1
daikin
100
AcDbAttributeDefinition
  3

  2
COMPANY
 70
     8
280
     0
  0
ATTDEF
  5
132
330
120
100
AcDbEntity
  8
AM_6
100
AcDbText
 10
511.0156250000001
 20
136.271874999998
 30
0.0
 40
0.5
  1
{$CADENAS_DATA/23d-libs/daikin/sky-air/sky-air20heat20pump20outdoor20units/heat_pump_unit-single_zone-outdoor-daikin-rza.prj},224 {VTYP=3D},{NB=RZA42AAVJU_PART1},{LINA=RZA42AAVJU_PART1},{NN=(R32) Heat Pump Unit Sky-Air Daikin RZA_PART1},{NOPRJ=TRUE}
100
AcDbAttributeDefinition
  3

  2
PSOL_0
 70
     9
280
     0
  0
ATTDEF
  5
133
330
120
100
AcDbEntity
  8
AM_6
100
AcDbText
 10
511.0156250000001
 20
135.771874999998
 30
0.0
 40
0.5
  1
=03.06.2026 19:23:41},{GEOMDATE=23.09.2025 06:35:21},{VERSION=},{LINEID=20},{WBVAR=},{WBNUMERIC=}  {NB=RZA42AAVJU_PART1},{LINA=RZA42AAVJU_PART1},{KT=DUMMY},{PARTNUMBER=RZA42AAVJU},{PARTNUMBERMAP09=3.5Ton_RZA42AAVJU},{AMBIENT_TEMPERATURE=0},{APPARENT
100
AcDbAttributeDefinition
  3

  2
PSOL_1
 70
     9
280
     0
  0
ATTDEF
  5
134
330
120
100
AcDbEntity
  8
AM_6
100
AcDbText
 10
511.0156250000001
 20
135.271874999998
 30
0.0
 40
0.5
  1
=8304},{ASSEMBLY_CODE=D3040600},{BACK_CLEARANCE=0.5},{CATEGORY=Mechanical Equipment},{CLEARANCE_VISIBILITY=1},{COMPRESSOR_TYPE=Hermetically sealed swing type},{COST=0},{DEFAULT_ELEVATION=0},{DESCRIPTION=Single Zone Heat Pump Outdoor Units},{DRAIN_FL
100
AcDbAttributeDefinition
  3

  2
PSOL_2
 70
     9
280
     0
  0
ATTDEF
  5
135
330
120
100
AcDbEntity
  8
AM_6
100
AcDbText
 10
511.0156250000001
 20
134.771874999998
 30
0.0
 40
0.5
  1
{ENCLOSURE_DEPTH=1.51041666666667},{ENCLOSURE_WIDTH=3.609375},{FAN_TYPE=Propeller},{FAN_VENT_DEPTH=0.0520833333333333},{FAN_VENT_HEIGHT=2.42708333333333},{FREQUENCY=60},{FRONT_CLEARANCE=1.66666666666667},{HEATING_CAPACITY_AT_17F=32000},{HEATING_CAPA
100
AcDbAttributeDefinition
  3

  2
PSOL_3
 70
     9
280
     0
  0
ATTDEF
  5
136
330
120
100
AcDbEntity
  8
AM_6
100
AcDbText
 10
511.0156250000001
 20
134.271874999998
 30
0.0
 40
0.5
  1
T_47F=47000},{LEFT_CLEARANCE=0.5},{LOAD_SUB_CLASSIFICATION_MOTOR=1},{MANUFACTURER=Daikin},{MASSUNIT=1},{MAXIMUM_OVERCURRENT_PROTECTION=35},{MINIMUM_CIRCUIT_AMPS=34.6},{MODEL=RZA42AAVJU},{NOMINAL_COOLING_CAPACITY=40500},{NOMINAL_COOLING_CAPACITY__TON
100
AcDbAttributeDefinition
  3

  2
PSOL_4
 70
     9
280
     0
  0
ATTDEF
  5
137
330
120
100
AcDbEntity
  8
AM_6
100
AcDbText
 10
511.0156250000001
 20
133.771874999998
 30
0.0
 40
0.5
  1
},{NOMINAL_HEATING_CAPACITY=0},{NUMBER_OF_POLES=2},{OMNICLASS_NUMBER=23.33.39.21},{OVERALL_DEPTH=18.1250},{OVERALL_HEIGHT=34.2500},{OVERALL_WIDTH=43.3125},{PARTTYPE=Normal},{PHASE=1},{REFRIGERANT_CHARGE=7.5},{REFRIGERANT_LIQUID_CONNECTION_DIAMETER=0
100
AcDbAttributeDefinition
  3

  2
PSOL_5
 70
     9
280
     0
  0
ATTDEF
  5
138
330
120
100
AcDbEntity
  8
AM_6
100
AcDbText
 10
511.0156250000001
 20
133.271874999998
 30
0.0
 40
0.5
  1
{REFRIGERANT_LIQUID_CONNECTION_HORIZONTAL_OFFSET=0.171875},{REFRIGERANT_LIQUID_CONNECTION_RADIUS=0.015625},{REFRIGERANT_LIQUID_CONNECTION_VERTICAL_OFFSET=0.635416666666667},{REFRIGERANT_PIPE_OFFSET=1.51041666666667},{REFRIGERANT_SUCTION_GAS_CONNECTI
100
AcDbAttributeDefinition
  3

  2
PSOL_6
 70
     9
280
     0
  0
ATTDEF
  5
139
330
120
100
AcDbEntity
  8
AM_6
100
AcDbText
 10
511.0156250000001
 20
132.771874999998
 30
0.0
 40
0.5
  1
METER=0.625},{REFRIGERANT_SUCTION_GAS_CONNECTION_HORIZONTAL_OFFSET=0.171875},{REFRIGERANT_SUCTION_GAS_CONNECTION_RADIUS=0.0260416666666667},{REFRIGERANT_SUCTION_GAS_CONNECTION_VERTICAL_OFFSET=0.442708333333333},{REFRIGERANT_USED=R-32},{RIGHT_CLEARAN
100
AcDbAttributeDefinition
  3

  2
PSOL_7
 70
     9
280
     0
  0
ATTDEF
  5
13A
330
120
100
AcDbEntity
  8
AM_6
100
AcDbText
 10
511.0156250000001
 20
132.271874999998
 30
0.0
 40
0.5
  1
},{SERIES=SkyAir},{TOP_CLEARANCE=3.33333333333333},{UNIT_LEG_SPACING=2.42708333333333},{UNIT_WEIGHT=234},{URL=https://daikincomfort.com/},{VERSION=1},{VOLTAGE=240},{VOLTAGE_COMMENTS=208 VAC - 230 VAC},{RFA_FAMILY=Download Revit Family (RFA)},{DEFAUL
100
AcDbAttributeDefinition
  3

  2
PSOL_8
 70
     9
280
     0
  0
ATTDEF
  5
13B
330
120
100
AcDbEntity
  8
AM_6
100
AcDbText
 10
511.0156250000001
 20
131.771874999998
 30
0.0
 40
0.5
  1
TTR=42},{RFA_FAMILY_=../../_pool_/e1/49/heat_pump_unit-single_zone-outdoor-daikin-rza.zip},{RFA_FAMILY_ENG=../../_pool_/e1/49/heat_pump_unit-single_zone-outdoor-daikin-rza.zip},{REVIT_FAMILY_DOWNLOAD=../../_pool_/e1/49/heat_pump_unit-single_zone-out
100
AcDbAttributeDefinition
  3

  2
PSOL_9
 70
     9
280
     0
  0
ATTDEF
  5
13C
330
120
100
AcDbEntity
  8
AM_6
100
AcDbText
 10
511.0156250000001
 20
131.271874999998
 30
0.0
 40
0.5
  1
aikin-rza.zip}
100
AcDbAttributeDefinition
  3

  2
PSOL_10
 70
     9
280
     0
  0
CIRCLE
  5
13D
330
120
100
AcDbEntity
  8
AM_9
100
AcDbCircle
 10
497.68125
 20
134.937499999998
 30
0.0
 40
7.9375
  0
LINE
  5
13E
330
120
100
AcDbEntity
  8
AM_7
100
AcDbLine
 10
489.346875
 20
134.937499999998
 30
0.0
 11
506.0156250000001
 21
134.937499999998
 31
0.0
  0
LINE
  5
13F
330
120
100
AcDbEntity
  8
AM_7
100
AcDbLine
 10
497.68125
 20
126.603124999998
 30
0.0
 11
497.68125
 21
143.271874999998
 31
0.0
  0
ENDBLK
  5
123
330
120
100
AcDbEntity
  8
0
100
AcDbBlockEnd
  0
ENDSEC
  0
SECTION
  2
ENTITIES
  0
ATTDEF
  5
5F
330
1F
100
AcDbEntity
  8
AM_6
100
AcDbText
 10
555.068750000008
 20
869.950000000065
 30
0.0
 40
0.5
  1
RZA42AAVJU
100
AcDbAttributeDefinition
  3

  2
NB
 70
     8
280
     0
  0
ATTDEF
  5
60
330
1F
100
AcDbEntity
  8
AM_6
100
AcDbText
 10
555.068750000008
 20
869.450000000065
 30
0.0
 40
0.5
  1
(R32) Heat Pump Unit Sky-Air Daikin RZA
100
AcDbAttributeDefinition
  3

  2
NN
 70
     8
280
     0
  0
ATTDEF
  5
61
330
1F
100
AcDbEntity
  8
AM_6
100
AcDbText
 10
555.068750000008
 20
868.950000000065
 30
0.0
 40
0.5
  1

100
AcDbAttributeDefinition
  3

  2
NT
 70
     8
280
     0
  0
ATTDEF
  5
62
330
1F
100
AcDbEntity
  8
AM_6
100
AcDbText
 10
555.068750000008
 20
868.450000000065
 30
0.0
 40
0.5
  1
$PARTNUMBER.
100
AcDbAttributeDefinition
  3

  2
NBSYN
 70
     8
280
     0
  0
ATTDEF
  5
63
330
1F
100
AcDbEntity
  8
AM_6
100
AcDbText
 10
555.068750000008
 20
867.950000000065
 30
0.0
 40
0.5
  1
RZA42AAVJU
100
AcDbAttributeDefinition
  3

  2
LINA
 70
     8
280
     0
  0
ATTDEF
  5
64
330
1F
100
AcDbEntity
  8
AM_6
100
AcDbText
 10
555.068750000008
 20
867.450000000065
 30
0.0
 40
0.5
  1
Daikin
100
AcDbAttributeDefinition
  3

  2
CATALOG
 70
     8
280
     0
  0
ATTDEF
  5
65
330
1F
100
AcDbEntity
  8
AM_6
100
AcDbText
 10
555.068750000008
 20
866.950000000065
 30
0.0
 40
0.5
  1
RZA42AAVJU
100
AcDbAttributeDefinition
  3

  2
PARTNUMBER
 70
     8
280
     0
  0
ATTDEF
  5
66
330
1F
100
AcDbEntity
  8
AM_6
100
AcDbText
 10
555.068750000008
 20
866.450000000065
 30
0.0
 40
0.5
  1
Single Zone Heat Pump Outdoor Units
100
AcDbAttributeDefinition
  3

  2
DESCRIPTION
 70
     8
280
     0
  0
ATTDEF
  5
67
330
1F
100
AcDbEntity
  8
AM_6
100
AcDbText
 10
555.068750000008
 20
865.950000000065
 30
0.0
 40
0.5
  1
18.1250
100
AcDbAttributeDefinition
  3

  2
OVERALL_DEPTH
 70
     8
280
     0
  0
ATTDEF
  5
68
330
1F
100
AcDbEntity
  8
AM_6
100
AcDbText
 10
555.068750000008
 20
865.450000000065
 30
0.0
 40
0.5
  1
34.2500
100
AcDbAttributeDefinition
  3

  2
OVERALL_HEIGHT
 70
     8
280
     0
  0
ATTDEF
  5
69
330
1F
100
AcDbEntity
  8
AM_6
100
AcDbText
 10
555.068750000008
 20
864.950000000065
 30
0.0
 40
0.5
  1
43.3125
100
AcDbAttributeDefinition
  3

  2
OVERALL_WIDTH
 70
     8
280
     0
  0
ATTDEF
  5
6A
330
1F
100
AcDbEntity
  8
AM_6
100
AcDbText
 10
555.068750000008
 20
864.450000000065
 30
0.0
 40
0.5
  1
https://daikincomfort.com/
100
AcDbAttributeDefinition
  3

  2
URL
 70
     8
280
     0
  0
ATTDEF
  5
6B
330
1F
100
AcDbEntity
  8
AM_6
100
AcDbText
 10
555.068750000008
 20
863.950000000065
 30
0.0
 40
0.5
  1
Download Revit Family (RFA)
100
AcDbAttributeDefinition
  3

  2
RFA_FAMILY
 70
     8
280
     0
  0
ATTDEF
  5
6C
330
1F
100
AcDbEntity
  8
AM_6
100
AcDbText
 10
555.068750000008
 20
863.450000000065
 30
0.0
 40
0.5
  1
daikin
100
AcDbAttributeDefinition
  3

  2
COMPANY
 70
     8
280
     0
  0
ATTDEF
  5
6D
330
1F
100
AcDbEntity
  8
AM_6
100
AcDbText
 10
555.068750000008
 20
862.950000000065
 30
0.0
 40
0.5
  1
{$CADENAS_DATA/23d-libs/daikin/sky-air/sky-air20heat20pump20outdoor20units/heat_pump_unit-single_zone-outdoor-daikin-rza.prj},204 {STYP=ASS},{VTYP=3D},{NB=RZA42AAVJU},{LINA=RZA42AAVJU},{NN=(R32) Heat Pump Unit Sky-Air Daikin RZA},{DATE=03.06.2026 19
100
AcDbAttributeDefinition
  3

  2
PSOL_0
 70
     9
280
     0
  0
ATTDEF
  5
6E
330
1F
100
AcDbEntity
  8
AM_6
100
AcDbText
 10
555.068750000008
 20
862.450000000065
 30
0.0
 40
0.5
  1
},{GEOMDATE=23.09.2025 06:35:21},{VERSION=},{LINEID=20},{WBVAR=},{WBNUMERIC=}  {NB=RZA42AAVJU},{LINA=RZA42AAVJU},{KT=DUMMY},{PARTNUMBER=RZA42AAVJU},{PARTNUMBERMAP09=3.5Ton_RZA42AAVJU},{AMBIENT_TEMPERATURE=0},{APPARENT_POWER=8304},{ASSEMBLY_CODE=D304
100
AcDbAttributeDefinition
  3

  2
PSOL_1
 70
     9
280
     0
  0
ATTDEF
  5
6F
330
1F
100
AcDbEntity
  8
AM_6
100
AcDbText
 10
555.068750000008
 20
861.950000000065
 30
0.0
 40
0.5
  1
{BACK_CLEARANCE=0.5},{CATEGORY=Mechanical Equipment},{CLEARANCE_VISIBILITY=1},{COMPRESSOR_TYPE=Hermetically sealed swing type},{COST=0},{DEFAULT_ELEVATION=0},{DESCRIPTION=Single Zone Heat Pump Outdoor Units},{DRAIN_FLOW=0},{ENCLOSURE_DEPTH=1.5104166
100
AcDbAttributeDefinition
  3

  2
PSOL_2
 70
     9
280
     0
  0
ATTDEF
  5
70
330
1F
100
AcDbEntity
  8
AM_6
100
AcDbText
 10
555.068750000008
 20
861.450000000065
 30
0.0
 40
0.5
  1
7},{ENCLOSURE_WIDTH=3.609375},{FAN_TYPE=Propeller},{FAN_VENT_DEPTH=0.0520833333333333},{FAN_VENT_HEIGHT=2.42708333333333},{FREQUENCY=60},{FRONT_CLEARANCE=1.66666666666667},{HEATING_CAPACITY_AT_17F=32000},{HEATING_CAPACITY_AT_47F=47000},{LEFT_CLEARAN
100
AcDbAttributeDefinition
  3

  2
PSOL_3
 70
     9
280
     0
  0
ATTDEF
  5
71
330
1F
100
AcDbEntity
  8
AM_6
100
AcDbText
 10
555.068750000008
 20
860.950000000065
 30
0.0
 40
0.5
  1
},{LOAD_SUB_CLASSIFICATION_MOTOR=1},{MANUFACTURER=Daikin},{MASSUNIT=1},{MAXIMUM_OVERCURRENT_PROTECTION=35},{MINIMUM_CIRCUIT_AMPS=34.6},{MODEL=RZA42AAVJU},{NOMINAL_COOLING_CAPACITY=40500},{NOMINAL_COOLING_CAPACITY__TONS_=3.5},{NOMINAL_HEATING_CAPACIT
100
AcDbAttributeDefinition
  3

  2
PSOL_4
 70
     9
280
     0
  0
ATTDEF
  5
72
330
1F
100
AcDbEntity
  8
AM_6
100
AcDbText
 10
555.068750000008
 20
860.450000000065
 30
0.0
 40
0.5
  1
NUMBER_OF_POLES=2},{OMNICLASS_NUMBER=23.33.39.21},{OVERALL_DEPTH=18.1250},{OVERALL_HEIGHT=34.2500},{OVERALL_WIDTH=43.3125},{PARTTYPE=Normal},{PHASE=1},{REFRIGERANT_CHARGE=7.5},{REFRIGERANT_LIQUID_CONNECTION_DIAMETER=0.375},{REFRIGERANT_LIQUID_CONNEC
100
AcDbAttributeDefinition
  3

  2
PSOL_5
 70
     9
280
     0
  0
ATTDEF
  5
73
330
1F
100
AcDbEntity
  8
AM_6
100
AcDbText
 10
555.068750000008
 20
859.950000000065
 30
0.0
 40
0.5
  1
ORIZONTAL_OFFSET=0.171875},{REFRIGERANT_LIQUID_CONNECTION_RADIUS=0.015625},{REFRIGERANT_LIQUID_CONNECTION_VERTICAL_OFFSET=0.635416666666667},{REFRIGERANT_PIPE_OFFSET=1.51041666666667},{REFRIGERANT_SUCTION_GAS_CONNECTION_DIAMETER=0.625},{REFRIGERANT_
100
AcDbAttributeDefinition
  3

  2
PSOL_6
 70
     9
280
     0
  0
ATTDEF
  5
74
330
1F
100
AcDbEntity
  8
AM_6
100
AcDbText
 10
555.068750000008
 20
859.450000000065
 30
0.0
 40
0.5
  1
N_GAS_CONNECTION_HORIZONTAL_OFFSET=0.171875},{REFRIGERANT_SUCTION_GAS_CONNECTION_RADIUS=0.0260416666666667},{REFRIGERANT_SUCTION_GAS_CONNECTION_VERTICAL_OFFSET=0.442708333333333},{REFRIGERANT_USED=R-32},{RIGHT_CLEARANCE=0.5},{SERIES=SkyAir},{TOP_CLE
100
AcDbAttributeDefinition
  3

  2
PSOL_7
 70
     9
280
     0
  0
ATTDEF
  5
75
330
1F
100
AcDbEntity
  8
AM_6
100
AcDbText
 10
555.068750000008
 20
858.950000000065
 30
0.0
 40
0.5
  1
=3.33333333333333},{UNIT_LEG_SPACING=2.42708333333333},{UNIT_WEIGHT=234},{URL=https://daikincomfort.com/},{VERSION=1},{VOLTAGE=240},{VOLTAGE_COMMENTS=208 VAC - 230 VAC},{RFA_FAMILY=Download Revit Family (RFA)},{DEFAULTSORTATTR=42},{RFA_FAMILY_=../..
100
AcDbAttributeDefinition
  3

  2
PSOL_8
 70
     9
280
     0
  0
ATTDEF
  5
76
330
1F
100
AcDbEntity
  8
AM_6
100
AcDbText
 10
555.068750000008
 20
858.450000000065
 30
0.0
 40
0.5
  1
_/e1/49/heat_pump_unit-single_zone-outdoor-daikin-rza.zip},{RFA_FAMILY_ENG=../../_pool_/e1/49/heat_pump_unit-single_zone-outdoor-daikin-rza.zip},{REVIT_FAMILY_DOWNLOAD=../../_pool_/e1/49/heat_pump_unit-single_zone-outdoor-daikin-rza.zip}
100
AcDbAttributeDefinition
  3

  2
PSOL_9
 70
     9
280
     0
  0
INSERT
  5
78
330
1F
100
AcDbEntity
  8
0
100
AcDbBlockReference
  2
1_RZA42AAVJU_PART6_0_in_RZA42AAVJU_0
 10
0.0
 20
0.0
 30
0.0
  0
INSERT
  5
9A
330
1F
100
AcDbEntity
  8
0
100
AcDbBlockReference
  2
2_RZA42AAVJU_PART5_0_in_RZA42AAVJU_0
 10
0.0
 20
0.0
 30
0.0
  0
INSERT
  5
BB
330
1F
100
AcDbEntity
  8
0
100
AcDbBlockReference
  2
3_RZA42AAVJU_PART4_0_in_RZA42AAVJU_0
 10
0.0
 20
0.0
 30
0.0
  0
INSERT
  5
DC
330
1F
100
AcDbEntity
  8
0
100
AcDbBlockReference
  2
4_RZA42AAVJU_PART3_0_in_RZA42AAVJU_0
 10
0.0
 20
0.0
 30
0.0
  0
INSERT
  5
FD
330
1F
100
AcDbEntity
  8
0
100
AcDbBlockReference
  2
5_RZA42AAVJU_PART2_0_in_RZA42AAVJU_0
 10
0.0
 20
0.0
 30
0.0
  0
INSERT
  5
121
330
1F
100
AcDbEntity
  8
0
100
AcDbBlockReference
  2
6_RZA42AAVJU_PART1_0_in_RZA42AAVJU_0
 10
0.0
 20
0.0
 30
0.0
  0
ENDSEC
  0
SECTION
  2
OBJECTS
  0
DICTIONARY
  5
C
330
0
100
AcDbDictionary
281
     1
  3
ACAD_DETAILVIEWSTYLE
350
147
  3
ACAD_GROUP
350
D
  3
ACAD_LAYOUT
350
1A
  3
ACAD_MATERIAL
350
43
  3
ACAD_MLEADERSTYLE
350
5B
  3
ACAD_MLINESTYLE
350
17
  3
ACAD_PLOTSETTINGS
350
19
  3
ACAD_PLOTSTYLENAME
350
E
  3
ACAD_SCALELIST
350
47
  3
ACAD_SECTIONVIEWSTYLE
350
148
  3
ACAD_TABLESTYLE
350
59
  3
ACAD_VISUALSTYLE
350
2A
  3
ACDB_RECOMPOSE_DATA
350
144
  3
AcDbVariableDictionary
350
140
  0
SUN
  5
5D
330
29
100
AcDbSun
 90
        1
290
     0
 63
     7
421
 16777215
 40
1.0
291
     1
 91
  2455826
 92
 54000000
292
     0
 70
     2
 71
   256
280
     1
  0
DICTIONARY
  5
147
102
{ACAD_REACTORS
330
C
102
}
330
C
100
AcDbDictionary
281
     1
  0
DICTIONARY
  5
D
102
{ACAD_REACTORS
330
C
102
}
330
C
100
AcDbDictionary
281
     1
  0
DICTIONARY
  5
1A
102
{ACAD_REACTORS
330
C
102
}
330
C
100
AcDbDictionary
281
     1
  3
Layout1
350
1E
  3
Layout2
350
26
  3
Model
350
22
  0
DICTIONARY
  5
43
102
{ACAD_REACTORS
330
C
102
}
330
C
100
AcDbDictionary
281
     1
  3
ByBlock
350
45
  3
ByLayer
350
44
  3
Global
350
46
  0
DICTIONARY
  5
5B
102
{ACAD_REACTORS
330
C
102
}
330
C
100
AcDbDictionary
281
     1
  3
Standard
350
5C
  0
DICTIONARY
  5
17
102
{ACAD_REACTORS
330
C
102
}
330
C
100
AcDbDictionary
281
     1
  3
Standard
350
18
  0
DICTIONARY
  5
19
102
{ACAD_REACTORS
330
C
102
}
330
C
100
AcDbDictionary
281
     1
  0
ACDBDICTIONARYWDFLT
  5
E
102
{ACAD_REACTORS
330
C
102
}
330
C
100
AcDbDictionary
281
     1
  3
Normal
350
F
100
AcDbDictionaryWithDefault
340
F
  0
DICTIONARY
  5
47
102
{ACAD_REACTORS
330
C
102
}
330
C
100
AcDbDictionary
281
     1
  3
A0
350
48
  3
A1
350
49
  3
A2
350
4A
  3
A3
350
4B
  3
A4
350
4C
  3
A5
350
4D
  3
A6
350
4E
  3
A7
350
4F
  3
A8
350
50
  3
A9
350
51
  3
B0
350
52
  3
B1
350
53
  3
B2
350
54
  3
B3
350
55
  3
B4
350
56
  3
B5
350
57
  3
B6
350
58
  0
DICTIONARY
  5
148
102
{ACAD_REACTORS
330
C
102
}
330
C
100
AcDbDictionary
281
     1
  0
DICTIONARY
  5
59
102
{ACAD_REACTORS
330
C
102
}
330
C
100
AcDbDictionary
281
     1
  3
Standard
350
5A
  0
DICTIONARY
  5
2A
102
{ACAD_REACTORS
330
C
102
}
330
C
100
AcDbDictionary
281
     1
  3
2dWireframe
350
2F
  3
Basic
350
32
  3
Brighten
350
36
  3
ColorChange
350
3A
  3
Conceptual
350
34
  3
Dim
350
35
  3
EdgeColorOff
350
3D
  3
Facepattern
350
39
  3
Flat
350
2B
  3
FlatWithEdges
350
2C
  3
Gouraud
350
2D
  3
GouraudWithEdges
350
2E
  3
Hidden
350
31
  3
JitterOff
350
3B
  3
Linepattern
350
38
  3
OverhangOff
350
3C
  3
Realistic
350
33
  3
Shaded
350
42
  3
Shaded with edges
350
41
  3
Shades of Gray
350
3E
  3
Sketchy
350
3F
  3
Thicken
350
37
  3
Wireframe
350
30
  3
X-Ray
350
40
  0
XRECORD
  5
144
102
{ACAD_REACTORS
330
C
102
}
330
C
100
AcDbXrecord
280
     1
 90
        1
330
5A
  0
DICTIONARY
  5
140
102
{ACAD_REACTORS
330
C
102
}
330
C
100
AcDbDictionary
281
     1
  3
CANNOSCALE
350
141
  3
CENTEREXE
350
149
  3
CENTERLTYPEFILE
350
14A
  3
CMLEADERSTYLE
350
146
  3
CTABLESTYLE
350
145
  0
LAYOUT
  5
1E
102
{ACAD_REACTORS
330
1A
102
}
330
1A
100
AcDbPlotSettings
  1

  2
none_device
  4

  6

 40
0.0
 41
0.0
 42
0.0
 43
0.0
 44
0.0
 45
0.0
 46
0.0
 47
0.0
 48
0.0
 49
0.0
140
0.0
141
0.0
142
1.0
143
1.0
 70
   688
 72
     1
 73
     0
 74
     5
  7

 75
    16
 76
     0
 77
     2
 78
   300
147
1.0
148
0.0
149
0.0
100
AcDbLayout
  1
Layout1
 70
     1
 71
     1
 10
0.0
 20
0.0
 11
420.0
 21
297.0
 12
0.0
 22
0.0
 32
0.0
 14
1.000000000000000E+20
 24
1.000000000000000E+20
 34
1.000000000000000E+20
 15
-1.000000000000000E+20
 25
-1.000000000000000E+20
 35
-1.000000000000000E+20
146
0.0
 13
0.0
 23
0.0
 33
0.0
 16
1.0
 26
0.0
 36
0.0
 17
0.0
 27
1.0
 37
0.0
 76
     0
330
1B
  0
LAYOUT
  5
26
102
{ACAD_REACTORS
330
1A
102
}
330
1A
100
AcDbPlotSettings
  1

  2
none_device
  4

  6

 40
0.0
 41
0.0
 42
0.0
 43
0.0
 44
0.0
 45
0.0
 46
0.0
 47
0.0
 48
0.0
 49
0.0
140
0.0
141
0.0
142
1.0
143
1.0
 70
   688
 72
     1
 73
     0
 74
     5
  7

 75
    16
 76
     0
 77
     2
 78
   300
147
1.0
148
0.0
149
0.0
100
AcDbLayout
  1
Layout2
 70
     1
 71
     2
 10
0.0
 20
0.0
 11
0.0
 21
0.0
 12
0.0
 22
0.0
 32
0.0
 14
0.0
 24
0.0
 34
0.0
 15
0.0
 25
0.0
 35
0.0
146
0.0
 13
0.0
 23
0.0
 33
0.0
 16
1.0
 26
0.0
 36
0.0
 17
0.0
 27
1.0
 37
0.0
 76
     0
330
23
  0
LAYOUT
  5
22
102
{ACAD_REACTORS
330
1A
102
}
330
1A
100
AcDbPlotSettings
  1

  2
none_device
  4
Letter_(8.50_x_11.00_Inches)
  6

 40
6.35
 41
6.35
 42
6.35000508
 43
6.35000508
 44
215.9
 45
279.4
 46
0.0
 47
0.0
 48
0.0
 49
0.0
140
0.0
141
0.0
142
1.0
143
1.0
 70
  1712
 72
     1
 73
     0
 74
     0
  7

 75
     0
 76
     0
 77
     2
 78
   300
147
1.0
148
0.0
149
0.0
100
AcDbLayout
  1
Model
 70
     1
 71
     0
 10
0.0
 20
0.0
 11
420.0
 21
297.0
 12
0.0
 22
0.0
 32
0.0
 14
-550.068749999991
 24
0.0
 34
0.0
 15
561.9856991525503
 25
870.4554237288785
 35
0.0
146
0.0
 13
0.0
 23
0.0
 33
0.0
 16
1.0
 26
0.0
 36
0.0
 17
0.0
 27
1.0
 37
0.0
 76
     0
330
1F
331
29
  0
MATERIAL
  5
45
102
{ACAD_REACTORS
330
43
102
}
330
43
100
AcDbMaterial
  1
ByBlock
 72
     1
 94
      127
  0
MATERIAL
  5
44
102
{ACAD_REACTORS
330
43
102
}
330
43
100
AcDbMaterial
  1
ByLayer
 72
     1
 94
      127
  0
MATERIAL
  5
46
102
{ACAD_REACTORS
330
43
102
}
330
43
100
AcDbMaterial
  1
Global
 72
     1
 94
      127
  0
MLEADERSTYLE
  5
5C
102
{ACAD_REACTORS
330
5B
102
}
330
5B
100
AcDbMLeaderStyle
179
     2
170
     2
171
     1
172
     0
 90
        2
 40
0.0
 41
0.0
173
     1
 91
-1056964608
340
14
 92
       -2
290
     1
 42
2.0
291
     1
 43
8.0
  3
Standard
341
0
 44
4.0
300

342
11
174
     1
178
     6
175
     1
176
     0
 93
-1056964608
 45
4.0
292
     0
297
     0
 46
4.0
343
0
 94
-1056964608
 47
1.0
 49
1.0
140
1.0
293
     1
141
0.0
294
     1
177
     0
142
1.0
295
     0
296
     0
143
3.75
271
     0
272
     9
273
     9
298
     0
  0
MLINESTYLE
  5
18
102
{ACAD_REACTORS
330
17
102
}
330
17
100
AcDbMlineStyle
  2
Standard
 70
     0
  3

 62
   256
 51
90.0
 52
90.0
 71
     2
 49
0.5
 62
   256
  6
BYLAYER
 49
-0.5
 62
   256
  6
BYLAYER
  0
ACDBPLACEHOLDER
  5
F
102
{ACAD_REACTORS
330
E
102
}
330
E
  0
SCALE
  5
48
102
{ACAD_REACTORS
330
47
102
}
330
47
100
AcDbScale
 70
     0
300
1:1
140
1.0
141
1.0
290
     1
  0
SCALE
  5
49
102
{ACAD_REACTORS
330
47
102
}
330
47
100
AcDbScale
 70
     0
300
1:2
140
1.0
141
2.0
290
     0
  0
SCALE
  5
4A
102
{ACAD_REACTORS
330
47
102
}
330
47
100
AcDbScale
 70
     0
300
1:4
140
1.0
141
4.0
290
     0
  0
SCALE
  5
4B
102
{ACAD_REACTORS
330
47
102
}
330
47
100
AcDbScale
 70
     0
300
1:5
140
1.0
141
5.0
290
     0
  0
SCALE
  5
4C
102
{ACAD_REACTORS
330
47
102
}
330
47
100
AcDbScale
 70
     0
300
1:8
140
1.0
141
8.0
290
     0
  0
SCALE
  5
4D
102
{ACAD_REACTORS
330
47
102
}
330
47
100
AcDbScale
 70
     0
300
1:10
140
1.0
141
10.0
290
     0
  0
SCALE
  5
4E
102
{ACAD_REACTORS
330
47
102
}
330
47
100
AcDbScale
 70
     0
300
1:16
140
1.0
141
16.0
290
     0
  0
SCALE
  5
4F
102
{ACAD_REACTORS
330
47
102
}
330
47
100
AcDbScale
 70
     0
300
1:20
140
1.0
141
20.0
290
     0
  0
SCALE
  5
50
102
{ACAD_REACTORS
330
47
102
}
330
47
100
AcDbScale
 70
     0
300
1:30
140
1.0
141
30.0
290
     0
  0
SCALE
  5
51
102
{ACAD_REACTORS
330
47
102
}
330
47
100
AcDbScale
 70
     0
300
1:40
140
1.0
141
40.0
290
     0
  0
SCALE
  5
52
102
{ACAD_REACTORS
330
47
102
}
330
47
100
AcDbScale
 70
     0
300
1:50
140
1.0
141
50.0
290
     0
  0
SCALE
  5
53
102
{ACAD_REACTORS
330
47
102
}
330
47
100
AcDbScale
 70
     0
300
1:100
140
1.0
141
100.0
290
     0
  0
SCALE
  5
54
102
{ACAD_REACTORS
330
47
102
}
330
47
100
AcDbScale
 70
     0
300
2:1
140
2.0
141
1.0
290
     0
  0
SCALE
  5
55
102
{ACAD_REACTORS
330
47
102
}
330
47
100
AcDbScale
 70
     0
300
4:1
140
4.0
141
1.0
290
     0
  0
SCALE
  5
56
102
{ACAD_REACTORS
330
47
102
}
330
47
100
AcDbScale
 70
     0
300
8:1
140
8.0
141
1.0
290
     0
  0
SCALE
  5
57
102
{ACAD_REACTORS
330
47
102
}
330
47
100
AcDbScale
 70
     0
300
10:1
140
10.0
141
1.0
290
     0
  0
SCALE
  5
58
102
{ACAD_REACTORS
330
47
102
}
330
47
100
AcDbScale
 70
     0
300
100:1
140
100.0
141
1.0
290
     0
  0
TABLESTYLE
  5
5A
102
{ACAD_REACTORS
330
59
102
}
102
{ACAD_XDICTIONARY
360
142
102
}
330
59
100
AcDbTableStyle
  3
Standard
 70
     0
 71
     0
 40
0.06
 41
0.06
280
     0
281
     0
  7
Standard
140
4.5
170
     2
 62
     0
 63
   257
283
     0
 90
        4
 91
        0
  1

274
    -2
284
     1
 64
     0
275
    -2
285
     1
 65
     0
276
    -2
286
     1
 66
     0
277
    -2
287
     1
 67
     0
278
    -2
288
     1
 68
     0
279
    -2
289
     1
 69
     0
  7
Standard
140
6.0
170
     5
 62
     0
 63
   257
283
     0
 90
        4
 91
        0
  1

274
    -2
284
     1
 64
     0
275
    -2
285
     1
 65
     0
276
    -2
286
     1
 66
     0
277
    -2
287
     1
 67
     0
278
    -2
288
     1
 68
     0
279
    -2
289
     1
 69
     0
  7
Standard
140
4.5
170
     5
 62
     0
 63
   257
283
     0
 90
        4
 91
        0
  1

274
    -2
284
     1
 64
     0
275
    -2
285
     1
 65
     0
276
    -2
286
     1
 66
     0
277
    -2
287
     1
 67
     0
278
    -2
288
     1
 68
     0
279
    -2
289
     1
 69
     0
  0
VISUALSTYLE
  5
2F
102
{ACAD_REACTORS
330
2A
102
}
330
2A
100
AcDbVisualStyle
  2
2dWireframe
 70
     4
177
     3
291
     0
 70
    58
 90
        0
176
     1
 90
        2
176
     1
 90
        0
176
     1
 90
        0
176
     1
 40
0.6
176
     1
 40
30.0
176
     1
 62
     7
420
 16777215
176
     1
 90
        1
176
     1
 90
        4
176
     1
 62
     7
176
     1
 62
   257
176
     1
 90
        1
176
     1
 90
        1
176
     1
 40
1.0
176
     1
 90
        0
176
     1
 62
   257
176
     1
 40
1.0
176
     1
 90
        1
176
     1
 90
        6
176
     1
 90
        2
176
     1
 62
     7
176
     1
 90
        5
176
     1
 90
        0
176
     1
 90
        0
176
     1
290
     0
176
     1
 90
        1
176
     1
 40
0.0
176
     1
 90
        0
176
     1
290
     1
176
     1
290
     1
176
     1
290
     0
176
     1
290
     0
176
     1
290
     0
176
     1
290
     0
176
     1
290
     0
176
     1
290
     0
176
     1
290
     0
176
     1
 90
       50
176
     1
 40
0.0
176
     1
 40
1.0
176
     1
 90
        0
176
     1
 62
    18
420
        0
176
     1
 90
       50
176
     1
 90
        3
176
     1
 62
     5
420
      255
176
     1
290
     0
176
     1
 90
       50
176
     1
 90
       50
176
     1
 90
       50
176
     1
290
     0
176
     1
 90
       50
176
     1
 62
   256
176
     0
 40
1.0
176
     0
 90
        2
176
     1
  1
strokes_ogs.tif
176
     1
290
     0
176
     1
 40
1.0
176
     1
 40
1.0
176
     1
  0
VISUALSTYLE
  5
32
102
{ACAD_REACTORS
330
2A
102
}
330
2A
100
AcDbVisualStyle
  2
Basic
 70
     7
177
     3
291
     1
 70
    58
 90
        1
176
     1
 90
        0
176
     1
 90
        1
176
     1
 90
        0
176
     1
 40
0.6
176
     1
 40
30.0
176
     1
 62
     7
420
 16777215
176
     1
 90
        0
176
     1
 90
        4
176
     1
 62
     7
176
     1
 62
   257
176
     1
 90
        1
176
     1
 90
        1
176
     1
 40
1.0
176
     1
 90
        8
176
     1
 62
     7
176
     1
 40
1.0
176
     1
 90
        1
176
     1
 90
        6
176
     1
 90
        2
176
     1
 62
     7
176
     1
 90
        5
176
     1
 90
        0
176
     1
 90
        0
176
     1
290
     0
176
     1
 90
        1
176
     1
 40
0.0
176
     1
 90
        0
176
     1
290
     0
176
     1
290
     1
176
     1
290
     1
176
     1
290
     0
176
     1
290
     0
176
     1
290
     0
176
     1
290
     0
176
     1
290
     0
176
     1
290
     0
176
     1
 90
       50
176
     1
 40
0.0
176
     1
 40
1.0
176
     1
 90
        0
176
     1
 62
    18
420
        0
176
     1
 90
       50
176
     1
 90
        3
176
     1
 62
     5
420
      255
176
     1
290
     0
176
     1
 90
       50
176
     1
 90
       50
176
     1
 90
       50
176
     1
290
     0
176
     1
 90
       50
176
     1
 62
   256
176
     0
 40
1.0
176
     0
 90
        2
176
     1
  1
strokes_ogs.tif
176
     1
290
     0
176
     1
 40
1.0
176
     1
 40
1.0
176
     1
  0
VISUALSTYLE
  5
36
102
{ACAD_REACTORS
330
2A
102
}
330
2A
100
AcDbVisualStyle
  2
Brighten
 70
    12
177
     3
291
     1
 70
    58
 90
        2
176
     1
 90
        2
176
     1
 90
        0
176
     1
 90
        0
176
     1
 40
0.6
176
     1
 40
30.0
176
     1
 62
     7
420
 16777215
176
     1
 90
        1
176
     1
 90
        4
176
     1
 62
     7
176
     1
 62
   257
176
     1
 90
        1
176
     1
 90
        1
176
     1
 40
1.0
176
     1
 90
        8
176
     1
 62
     7
176
     1
 40
1.0
176
     1
 90
        1
176
     1
 90
        6
176
     1
 90
        2
176
     1
 62
     7
176
     1
 90
        5
176
     1
 90
        0
176
     1
 90
        0
176
     1
290
     0
176
     1
 90
        1
176
     1
 40
50.0
176
     1
 90
        0
176
     1
290
     0
176
     1
290
     1
176
     1
290
     1
176
     1
290
     0
176
     1
290
     0
176
     1
290
     0
176
     1
290
     0
176
     1
290
     0
176
     1
290
     0
176
     1
 90
       50
176
     1
 40
0.0
176
     1
 40
1.0
176
     1
 90
        0
176
     1
 62
    18
420
        0
176
     1
 90
       50
176
     1
 90
        3
176
     1
 62
     5
420
      255
176
     1
290
     0
176
     1
 90
       50
176
     1
 90
       50
176
     1
 90
       50
176
     1
290
     0
176
     1
 90
       50
176
     1
 62
   256
176
     0
 40
1.0
176
     0
 90
        2
176
     1
  1
strokes_ogs.tif
176
     1
290
     0
176
     1
 40
1.0
176
     1
 40
1.0
176
     1
  0
VISUALSTYLE
  5
3A
102
{ACAD_REACTORS
330
2A
102
}
330
2A
100
AcDbVisualStyle
  2
ColorChange
 70
    16
177
     3
291
     1
 70
    58
 90
        2
176
     1
 90
        2
176
     1
 90
        3
176
     1
 90
        0
176
     1
 40
0.6
176
     1
 40
30.0
176
     1
 62
     8
420
  8421504
176
     1
 90
        1
176
     1
 90
        4
176
     1
 62
     7
176
     1
 62
   257
176
     1
 90
        1
176
     1
 90
        1
176
     1
 40
1.0
176
     1
 90
        8
176
     1
 62
     8
420
  8421504
176
     1
 40
1.0
176
     1
 90
        1
176
     1
 90
        6
176
     1
 90
        2
176
     1
 62
     7
176
     1
 90
        5
176
     1
 90
        0
176
     1
 90
        0
176
     1
290
     0
176
     1
 90
        1
176
     1
 40
0.0
176
     1
 90
        0
176
     1
290
     0
176
     1
290
     1
176
     1
290
     1
176
     1
290
     0
176
     1
290
     0
176
     1
290
     0
176
     1
290
     0
176
     1
290
     0
176
     1
290
     0
176
     1
 90
       50
176
     1
 40
0.0
176
     1
 40
1.0
176
     1
 90
        0
176
     1
 62
    18
420
        0
176
     1
 90
       50
176
     1
 90
        3
176
     1
 62
     5
420
      255
176
     1
290
     0
176
     1
 90
       50
176
     1
 90
       50
176
     1
 90
       50
176
     1
290
     0
176
     1
 90
       50
176
     1
 62
   256
176
     0
 40
1.0
176
     0
 90
        2
176
     1
  1
strokes_ogs.tif
176
     1
290
     0
176
     1
 40
1.0
176
     1
 40
1.0
176
     1
  0
VISUALSTYLE
  5
34
102
{ACAD_REACTORS
330
2A
102
}
330
2A
100
AcDbVisualStyle
  2
Conceptual
 70
     9
177
     3
291
     0
 70
    58
 90
        3
176
     1
 90
        2
176
     1
 90
        0
176
     1
 90
        0
176
     1
 40
0.6
176
     1
 40
30.0
176
     1
 62
     7
420
 16777215
176
     1
 90
        2
176
     1
 90
        2
176
     1
 62
     7
176
     1
 62
   257
176
     1
 90
        1
176
     1
 90
        1
176
     1
 40
179.0
176
     1
 90
        8
176
     1
 62
     7
176
     1
 40
1.0
176
     1
 90
        1
176
     1
 90
        6
176
     1
 90
        2
176
     1
 62
     7
176
     1
 90
        3
176
     1
 90
        0
176
     1
 90
        0
176
     1
290
     0
176
     1
 90
        1
176
     1
 40
0.0
176
     1
 90
        0
176
     1
290
     0
176
     1
290
     1
176
     1
290
     1
176
     1
290
     0
176
     1
290
     0
176
     1
290
     0
176
     1
290
     0
176
     1
290
     0
176
     1
290
     0
176
     1
 90
       50
176
     1
 40
0.0
176
     1
 40
1.0
176
     1
 90
        0
176
     1
 62
    18
420
        0
176
     1
 90
       50
176
     1
 90
        3
176
     1
 62
     5
420
      255
176
     1
290
     0
176
     1
 90
       50
176
     1
 90
       50
176
     1
 90
       50
176
     1
290
     0
176
     1
 90
       50
176
     1
 62
   256
176
     0
 40
1.0
176
     0
 90
        2
176
     1
  1
strokes_ogs.tif
176
     1
290
     0
176
     1
 40
1.0
176
     1
 40
1.0
176
     1
  0
VISUALSTYLE
  5
35
102
{ACAD_REACTORS
330
2A
102
}
330
2A
100
AcDbVisualStyle
  2
Dim
 70
    11
177
     3
291
     1
 70
    58
 90
        2
176
     1
 90
        2
176
     1
 90
        0
176
     1
 90
        0
176
     1
 40
0.6
176
     1
 40
30.0
176
     1
 62
     7
420
 16777215
176
     1
 90
        1
176
     1
 90
        4
176
     1
 62
     7
176
     1
 62
   257
176
     1
 90
        1
176
     1
 90
        1
176
     1
 40
1.0
176
     1
 90
        8
176
     1
 62
     7
176
     1
 40
1.0
176
     1
 90
        1
176
     1
 90
        6
176
     1
 90
        2
176
     1
 62
     7
176
     1
 90
        5
176
     1
 90
        0
176
     1
 90
        0
176
     1
290
     0
176
     1
 90
        1
176
     1
 40
-50.0
176
     1
 90
        0
176
     1
290
     0
176
     1
290
     1
176
     1
290
     1
176
     1
290
     0
176
     1
290
     0
176
     1
290
     0
176
     1
290
     0
176
     1
290
     0
176
     1
290
     0
176
     1
 90
       50
176
     1
 40
0.0
176
     1
 40
1.0
176
     1
 90
        0
176
     1
 62
    18
420
        0
176
     1
 90
       50
176
     1
 90
        3
176
     1
 62
     5
420
      255
176
     1
290
     0
176
     1
 90
       50
176
     1
 90
       50
176
     1
 90
       50
176
     1
290
     0
176
     1
 90
       50
176
     1
 62
   256
176
     0
 40
1.0
176
     0
 90
        2
176
     1
  1
strokes_ogs.tif
176
     1
290
     0
176
     1
 40
1.0
176
     1
 40
1.0
176
     1
  0
VISUALSTYLE
  5
3D
102
{ACAD_REACTORS
330
2A
102
}
330
2A
100
AcDbVisualStyle
  2
EdgeColorOff
 70
    22
177
     3
291
     1
 70
    58
 90
        2
176
     0
 90
        2
176
     0
 90
        0
176
     0
 90
        0
176
     0
 40
0.6
176
     0
 40
30.0
176
     0
 62
     7
420
 16777215
176
     0
 90
        1
176
     0
 90
        4
176
     0
 62
     7
176
     0
 62
   257
176
     0
 90
        1
176
     0
 90
        1
176
     0
 40
1.0
176
     0
 90
        8
176
     2
 62
     7
176
     0
 40
1.0
176
     0
 90
        1
176
     0
 90
        6
176
     0
 90
        2
176
     0
 62
     7
176
     0
 90
        5
176
     0
 90
        0
176
     0
 90
        0
176
     0
290
     0
176
     0
 90
        1
176
     0
 40
0.0
176
     0
 90
        0
176
     0
290
     0
176
     0
290
     1
176
     0
290
     1
176
     0
290
     0
176
     0
290
     0
176
     0
290
     0
176
     0
290
     0
176
     0
290
     0
176
     0
290
     0
176
     0
 90
       50
176
     0
 40
0.0
176
     0
 40
1.0
176
     0
 90
        0
176
     0
 62
    18
420
        0
176
     0
 90
       50
176
     0
 90
        3
176
     0
 62
     5
420
      255
176
     0
290
     0
176
     0
 90
       50
176
     0
 90
       50
176
     0
 90
       50
176
     0
290
     0
176
     0
 90
       50
176
     0
 62
   256
176
     0
 40
1.0
176
     0
 90
        2
176
     0
  1
strokes_ogs.tif
176
     0
290
     0
176
     0
 40
1.0
176
     0
 40
1.0
176
     0
  0
VISUALSTYLE
  5
39
102
{ACAD_REACTORS
330
2A
102
}
330
2A
100
AcDbVisualStyle
  2
Facepattern
 70
    15
177
     3
291
     1
 70
    58
 90
        2
176
     1
 90
        2
176
     1
 90
        0
176
     1
 90
        0
176
     1
 40
0.6
176
     1
 40
30.0
176
     1
 62
     7
420
 16777215
176
     1
 90
        1
176
     1
 90
        4
176
     1
 62
     7
176
     1
 62
   257
176
     1
 90
        1
176
     1
 90
        1
176
     1
 40
1.0
176
     1
 90
        8
176
     1
 62
     7
176
     1
 40
1.0
176
     1
 90
        1
176
     1
 90
        6
176
     1
 90
        2
176
     1
 62
     7
176
     1
 90
        5
176
     1
 90
        0
176
     1
 90
        0
176
     1
290
     0
176
     1
 90
        1
176
     1
 40
0.0
176
     1
 90
        0
176
     1
290
     0
176
     1
290
     1
176
     1
290
     1
176
     1
290
     0
176
     1
290
     0
176
     1
290
     0
176
     1
290
     0
176
     1
290
     0
176
     1
290
     0
176
     1
 90
       50
176
     1
 40
0.0
176
     1
 40
1.0
176
     1
 90
        0
176
     1
 62
    18
420
        0
176
     1
 90
       50
176
     1
 90
        3
176
     1
 62
     5
420
      255
176
     1
290
     0
176
     1
 90
       50
176
     1
 90
       50
176
     1
 90
       50
176
     1
290
     0
176
     1
 90
       50
176
     1
 62
   256
176
     0
 40
1.0
176
     0
 90
        2
176
     1
  1
strokes_ogs.tif
176
     1
290
     0
176
     1
 40
1.0
176
     1
 40
1.0
176
     1
  0
VISUALSTYLE
  5
2B
102
{ACAD_REACTORS
330
2A
102
}
330
2A
100
AcDbVisualStyle
  2
Flat
 70
     0
177
     3
291
     1
 70
    58
 90
        2
176
     1
 90
        1
176
     1
 90
        1
176
     1
 90
        2
176
     1
 40
0.6
176
     1
 40
30.0
176
     1
 62
     7
420
 16777215
176
     1
 90
        0
176
     1
 90
        0
176
     1
 62
     7
176
     1
 62
   257
176
     1
 90
        1
176
     1
 90
        1
176
     1
 40
1.0
176
     1
 90
        8
176
     1
 62
     7
176
     1
 40
1.0
176
     1
 90
        1
176
     1
 90
        6
176
     1
 90
        2
176
     1
 62
     7
176
     1
 90
        5
176
     1
 90
        0
176
     1
 90
        0
176
     1
290
     0
176
     1
 90
       13
176
     1
 40
0.0
176
     1
 90
        0
176
     1
290
     0
176
     1
290
     1
176
     1
290
     1
176
     1
290
     0
176
     1
290
     0
176
     1
290
     0
176
     1
290
     0
176
     1
290
     0
176
     1
290
     0
176
     1
 90
       50
176
     1
 40
0.0
176
     1
 40
1.0
176
     1
 90
        0
176
     1
 62
    18
420
        0
176
     1
 90
       50
176
     1
 90
        3
176
     1
 62
     5
420
      255
176
     1
290
     0
176
     1
 90
       50
176
     1
 90
       50
176
     1
 90
       50
176
     1
290
     0
176
     1
 90
       50
176
     1
 62
   256
176
     0
 40
1.0
176
     0
 90
        2
176
     1
  1
strokes_ogs.tif
176
     1
290
     0
176
     1
 40
1.0
176
     1
 40
1.0
176
     1
  0
VISUALSTYLE
  5
2C
102
{ACAD_REACTORS
330
2A
102
}
330
2A
100
AcDbVisualStyle
  2
FlatWithEdges
 70
     1
177
     3
291
     1
 70
    58
 90
        2
176
     1
 90
        1
176
     1
 90
        1
176
     1
 90
        2
176
     1
 40
0.6
176
     1
 40
30.0
176
     1
 62
     7
420
 16777215
176
     1
 90
        1
176
     1
 90
        0
176
     1
 62
     7
176
     1
 62
   257
176
     1
 90
        1
176
     1
 90
        1
176
     1
 40
1.0
176
     1
 90
        0
176
     1
 62
   257
176
     1
 40
1.0
176
     1
 90
        1
176
     1
 90
        6
176
     1
 90
        2
176
     1
 62
     7
176
     1
 90
        5
176
     1
 90
        0
176
     1
 90
        0
176
     1
290
     0
176
     1
 90
       13
176
     1
 40
0.0
176
     1
 90
        0
176
     1
290
     0
176
     1
290
     1
176
     1
290
     1
176
     1
290
     0
176
     1
290
     0
176
     1
290
     0
176
     1
290
     0
176
     1
290
     0
176
     1
290
     0
176
     1
 90
       50
176
     1
 40
0.0
176
     1
 40
1.0
176
     1
 90
        0
176
     1
 62
    18
420
        0
176
     1
 90
       50
176
     1
 90
        3
176
     1
 62
     5
420
      255
176
     1
290
     0
176
     1
 90
       50
176
     1
 90
       50
176
     1
 90
       50
176
     1
290
     0
176
     1
 90
       50
176
     1
 62
   256
176
     0
 40
1.0
176
     0
 90
        2
176
     1
  1
strokes_ogs.tif
176
     1
290
     0
176
     1
 40
1.0
176
     1
 40
1.0
176
     1
  0
VISUALSTYLE
  5
2D
102
{ACAD_REACTORS
330
2A
102
}
330
2A
100
AcDbVisualStyle
  2
Gouraud
 70
     2
177
     3
291
     1
 70
    58
 90
        2
176
     1
 90
        2
176
     1
 90
        1
176
     1
 90
        2
176
     1
 40
0.6
176
     1
 40
30.0
176
     1
 62
     7
420
 16777215
176
     1
 90
        0
176
     1
 90
        0
176
     1
 62
     7
176
     1
 62
   257
176
     1
 90
        1
176
     1
 90
        1
176
     1
 40
1.0
176
     1
 90
        0
176
     1
 62
     7
176
     1
 40
1.0
176
     1
 90
        1
176
     1
 90
        6
176
     1
 90
        2
176
     1
 62
     7
176
     1
 90
        5
176
     1
 90
        0
176
     1
 90
        0
176
     1
290
     0
176
     1
 90
       13
176
     1
 40
0.0
176
     1
 90
        0
176
     1
290
     0
176
     1
290
     1
176
     1
290
     1
176
     1
290
     0
176
     1
290
     0
176
     1
290
     0
176
     1
290
     0
176
     1
290
     0
176
     1
290
     0
176
     1
 90
       50
176
     1
 40
0.0
176
     1
 40
1.0
176
     1
 90
        0
176
     1
 62
    18
420
        0
176
     1
 90
       50
176
     1
 90
        3
176
     1
 62
     5
420
      255
176
     1
290
     0
176
     1
 90
       50
176
     1
 90
       50
176
     1
 90
       50
176
     1
290
     0
176
     1
 90
       50
176
     1
 62
   256
176
     0
 40
1.0
176
     0
 90
        2
176
     1
  1
strokes_ogs.tif
176
     1
290
     0
176
     1
 40
1.0
176
     1
 40
1.0
176
     1
  0
VISUALSTYLE
  5
2E
102
{ACAD_REACTORS
330
2A
102
}
330
2A
100
AcDbVisualStyle
  2
GouraudWithEdges
 70
     3
177
     3
291
     1
 70
    58
 90
        2
176
     1
 90
        2
176
     1
 90
        1
176
     1
 90
        2
176
     1
 40
0.6
176
     1
 40
30.0
176
     1
 62
     7
420
 16777215
176
     1
 90
        1
176
     1
 90
        0
176
     1
 62
     7
176
     1
 62
   257
176
     1
 90
        1
176
     1
 90
        1
176
     1
 40
1.0
176
     1
 90
        0
176
     1
 62
   257
176
     1
 40
1.0
176
     1
 90
        1
176
     1
 90
        6
176
     1
 90
        2
176
     1
 62
     7
176
     1
 90
        5
176
     1
 90
        0
176
     1
 90
        0
176
     1
290
     0
176
     1
 90
       13
176
     1
 40
0.0
176
     1
 90
        0
176
     1
290
     0
176
     1
290
     1
176
     1
290
     1
176
     1
290
     0
176
     1
290
     0
176
     1
290
     0
176
     1
290
     0
176
     1
290
     0
176
     1
290
     0
176
     1
 90
       50
176
     1
 40
0.0
176
     1
 40
1.0
176
     1
 90
        0
176
     1
 62
    18
420
        0
176
     1
 90
       50
176
     1
 90
        3
176
     1
 62
     5
420
      255
176
     1
290
     0
176
     1
 90
       50
176
     1
 90
       50
176
     1
 90
       50
176
     1
290
     0
176
     1
 90
       50
176
     1
 62
   256
176
     0
 40
1.0
176
     0
 90
        2
176
     1
  1
strokes_ogs.tif
176
     1
290
     0
176
     1
 40
1.0
176
     1
 40
1.0
176
     1
  0
VISUALSTYLE
  5
31
102
{ACAD_REACTORS
330
2A
102
}
330
2A
100
AcDbVisualStyle
  2
Hidden
 70
     6
177
     3
291
     0
 70
    58
 90
        1
176
     1
 90
        2
176
     1
 90
        2
176
     1
 90
        0
176
     1
 40
0.6
176
     1
 40
30.0
176
     1
 62
     7
420
 16777215
176
     1
 90
        2
176
     1
 90
        2
176
     1
 62
     7
176
     1
 62
   257
176
     1
 90
        2
176
     1
 90
        1
176
     1
 40
40.0
176
     1
 90
        0
176
     1
 62
   257
176
     1
 40
1.0
176
     1
 90
        1
176
     1
 90
        6
176
     1
 90
        2
176
     1
 62
     7
176
     1
 90
        3
176
     1
 90
        0
176
     1
 90
        0
176
     1
290
     0
176
     1
 90
        1
176
     1
 40
0.0
176
     1
 90
        0
176
     1
290
     0
176
     1
290
     1
176
     1
290
     1
176
     1
290
     0
176
     1
290
     0
176
     1
290
     0
176
     1
290
     0
176
     1
290
     0
176
     1
290
     0
176
     1
 90
       50
176
     1
 40
0.0
176
     1
 40
1.0
176
     1
 90
        0
176
     1
 62
    18
420
        0
176
     1
 90
       50
176
     1
 90
        3
176
     1
 62
     5
420
      255
176
     1
290
     0
176
     1
 90
       50
176
     1
 90
       50
176
     1
 90
       50
176
     1
290
     0
176
     1
 90
       50
176
     1
 62
   256
176
     0
 40
1.0
176
     0
 90
        2
176
     1
  1
strokes_ogs.tif
176
     1
290
     0
176
     1
 40
1.0
176
     1
 40
1.0
176
     1
  0
VISUALSTYLE
  5
3B
102
{ACAD_REACTORS
330
2A
102
}
330
2A
100
AcDbVisualStyle
  2
JitterOff
 70
    20
177
     3
291
     1
 70
    58
 90
        2
176
     0
 90
        2
176
     0
 90
        0
176
     0
 90
        0
176
     0
 40
0.6
176
     0
 40
30.0
176
     0
 62
     7
420
 16777215
176
     0
 90
        1
176
     0
 90
        4
176
     0
 62
     7
176
     0
 62
   257
176
     0
 90
        1
176
     0
 90
        1
176
     0
 40
1.0
176
     0
 90
       10
176
     2
 62
     7
176
     0
 40
1.0
176
     0
 90
        1
176
     0
 90
        6
176
     0
 90
        2
176
     0
 62
     7
176
     0
 90
        5
176
     0
 90
        0
176
     0
 90
        0
176
     0
290
     0
176
     0
 90
        1
176
     0
 40
0.0
176
     0
 90
        0
176
     0
290
     0
176
     0
290
     1
176
     0
290
     1
176
     0
290
     0
176
     0
290
     0
176
     0
290
     0
176
     0
290
     0
176
     0
290
     0
176
     0
290
     0
176
     0
 90
       50
176
     0
 40
0.0
176
     0
 40
1.0
176
     0
 90
        0
176
     0
 62
    18
420
        0
176
     0
 90
       50
176
     0
 90
        3
176
     0
 62
     5
420
      255
176
     0
290
     0
176
     0
 90
       50
176
     0
 90
       50
176
     0
 90
       50
176
     0
290
     0
176
     0
 90
       50
176
     0
 62
   256
176
     0
 40
1.0
176
     0
 90
        2
176
     0
  1
strokes_ogs.tif
176
     0
290
     0
176
     0
 40
1.0
176
     0
 40
1.0
176
     0
  0
VISUALSTYLE
  5
38
102
{ACAD_REACTORS
330
2A
102
}
330
2A
100
AcDbVisualStyle
  2
Linepattern
 70
    14
177
     3
291
     1
 70
    58
 90
        2
176
     1
 90
        2
176
     1
 90
        0
176
     1
 90
        0
176
     1
 40
0.6
176
     1
 40
30.0
176
     1
 62
     7
420
 16777215
176
     1
 90
        1
176
     1
 90
        4
176
     1
 62
     7
176
     1
 62
   257
176
     1
 90
        7
176
     1
 90
        7
176
     1
 40
1.0
176
     1
 90
        8
176
     1
 62
     7
176
     1
 40
1.0
176
     1
 90
        1
176
     1
 90
        6
176
     1
 90
        2
176
     1
 62
     7
176
     1
 90
        5
176
     1
 90
        0
176
     1
 90
        0
176
     1
290
     0
176
     1
 90
        1
176
     1
 40
0.0
176
     1
 90
        0
176
     1
290
     0
176
     1
290
     1
176
     1
290
     1
176
     1
290
     0
176
     1
290
     0
176
     1
290
     0
176
     1
290
     0
176
     1
290
     0
176
     1
290
     0
176
     1
 90
       50
176
     1
 40
0.0
176
     1
 40
1.0
176
     1
 90
        0
176
     1
 62
    18
420
        0
176
     1
 90
       50
176
     1
 90
        3
176
     1
 62
     5
420
      255
176
     1
290
     0
176
     1
 90
       50
176
     1
 90
       50
176
     1
 90
       50
176
     1
290
     0
176
     1
 90
       50
176
     1
 62
   256
176
     0
 40
1.0
176
     0
 90
        2
176
     1
  1
strokes_ogs.tif
176
     1
290
     0
176
     1
 40
1.0
176
     1
 40
1.0
176
     1
  0
VISUALSTYLE
  5
3C
102
{ACAD_REACTORS
330
2A
102
}
330
2A
100
AcDbVisualStyle
  2
OverhangOff
 70
    21
177
     3
291
     1
 70
    58
 90
        2
176
     0
 90
        2
176
     0
 90
        0
176
     0
 90
        0
176
     0
 40
0.6
176
     0
 40
30.0
176
     0
 62
     7
420
 16777215
176
     0
 90
        1
176
     0
 90
        4
176
     0
 62
     7
176
     0
 62
   257
176
     0
 90
        1
176
     0
 90
        1
176
     0
 40
1.0
176
     0
 90
        9
176
     2
 62
     7
176
     0
 40
1.0
176
     0
 90
        1
176
     0
 90
        6
176
     0
 90
        2
176
     0
 62
     7
176
     0
 90
        5
176
     0
 90
        0
176
     0
 90
        0
176
     0
290
     0
176
     0
 90
        1
176
     0
 40
0.0
176
     0
 90
        0
176
     0
290
     0
176
     0
290
     1
176
     0
290
     1
176
     0
290
     0
176
     0
290
     0
176
     0
290
     0
176
     0
290
     0
176
     0
290
     0
176
     0
290
     0
176
     0
 90
       50
176
     0
 40
0.0
176
     0
 40
1.0
176
     0
 90
        0
176
     0
 62
    18
420
        0
176
     0
 90
       50
176
     0
 90
        3
176
     0
 62
     5
420
      255
176
     0
290
     0
176
     0
 90
       50
176
     0
 90
       50
176
     0
 90
       50
176
     0
290
     0
176
     0
 90
       50
176
     0
 62
   256
176
     0
 40
1.0
176
     0
 90
        2
176
     0
  1
strokes_ogs.tif
176
     0
290
     0
176
     0
 40
1.0
176
     0
 40
1.0
176
     0
  0
VISUALSTYLE
  5
33
102
{ACAD_REACTORS
330
2A
102
}
330
2A
100
AcDbVisualStyle
  2
Realistic
 70
     8
177
     3
291
     0
 70
    58
 90
        2
176
     1
 90
        3
176
     1
 90
        0
176
     1
 90
        2
176
     1
 40
0.6
176
     1
 40
30.0
176
     1
 62
     7
420
 16777215
176
     1
 90
        0
176
     1
 90
        0
176
     1
 62
     7
176
     1
 62
   257
176
     1
 90
        1
176
     1
 90
        1
176
     1
 40
1.0
176
     1
 90
        8
176
     1
 62
   257
176
     1
 40
1.0
176
     1
 90
        1
176
     1
 90
        6
176
     1
 90
        2
176
     1
 62
     7
176
     1
 90
        3
176
     1
 90
        0
176
     1
 90
        0
176
     1
290
     0
176
     1
 90
       13
176
     1
 40
0.0
176
     1
 90
        0
176
     1
290
     0
176
     1
290
     1
176
     1
290
     1
176
     1
290
     0
176
     1
290
     0
176
     1
290
     0
176
     1
290
     0
176
     1
290
     0
176
     1
290
     0
176
     1
 90
       50
176
     1
 40
0.0
176
     1
 40
1.0
176
     1
 90
        0
176
     1
 62
    18
420
        0
176
     1
 90
       50
176
     1
 90
        3
176
     1
 62
     5
420
      255
176
     1
290
     0
176
     1
 90
       50
176
     1
 90
       50
176
     1
 90
       50
176
     1
290
     0
176
     1
 90
       50
176
     1
 62
   256
176
     0
 40
1.0
176
     0
 90
        2
176
     1
  1
strokes_ogs.tif
176
     1
290
     0
176
     1
 40
1.0
176
     1
 40
1.0
176
     1
  0
VISUALSTYLE
  5
42
102
{ACAD_REACTORS
330
2A
102
}
330
2A
100
AcDbVisualStyle
  2
Shaded
 70
    27
177
     3
291
     0
 70
    58
 90
        2
176
     1
 90
        2
176
     1
 90
        1
176
     1
 90
        2
176
     1
 40
0.6
176
     1
 40
30.0
176
     1
 62
     7
420
 16777215
176
     1
 90
        0
176
     1
 90
        4
176
     1
 62
     7
176
     1
 62
   257
176
     1
 90
        1
176
     1
 90
        1
176
     1
 40
1.0
176
     1
 90
        8
176
     1
 62
   257
176
     1
 40
1.0
176
     1
 90
        1
176
     1
 90
        6
176
     1
 90
        2
176
     1
 62
     8
420
  7895160
176
     1
 90
        3
176
     1
 90
        0
176
     1
 90
        0
176
     1
290
     0
176
     1
 90
        5
176
     1
 40
0.0
176
     1
 90
        0
176
     1
290
     0
176
     1
290
     1
176
     1
290
     1
176
     1
290
     0
176
     1
290
     0
176
     1
290
     0
176
     1
290
     0
176
     1
290
     0
176
     1
290
     0
176
     1
 90
       50
176
     1
 40
0.0
176
     1
 40
1.0
176
     1
 90
        0
176
     1
 62
    18
420
        0
176
     1
 90
       50
176
     1
 90
        3
176
     1
 62
     5
420
      255
176
     1
290
     0
176
     1
 90
       50
176
     1
 90
       50
176
     1
 90
       50
176
     1
290
     0
176
     1
 90
       50
176
     1
 62
   256
176
     0
 40
1.0
176
     0
 90
        2
176
     1
  1
strokes_ogs.tif
176
     1
290
     0
176
     1
 40
1.0
176
     1
 40
1.0
176
     1
  0
VISUALSTYLE
  5
41
102
{ACAD_REACTORS
330
2A
102
}
330
2A
100
AcDbVisualStyle
  2
Shaded with edges
 70
    26
177
     3
291
     0
 70
    58
 90
        2
176
     1
 90
        2
176
     1
 90
        1
176
     1
 90
        2
176
     1
 40
0.6
176
     1
 40
30.0
176
     1
 62
     7
420
 16777215
176
     1
 90
        1
176
     1
 90
       10
176
     1
 62
     7
176
     1
 62
   257
176
     1
 90
        2
176
     1
 90
        1
176
     1
 40
1.0
176
     1
 90
        8
176
     1
 62
   257
176
     1
 40
1.0
176
     1
 90
        1
176
     1
 90
        6
176
     1
 90
        2
176
     1
 62
     7
176
     1
 90
        3
176
     1
 90
        0
176
     1
 90
        0
176
     1
290
     0
176
     1
 90
        5
176
     1
 40
0.0
176
     1
 90
        0
176
     1
290
     0
176
     1
290
     1
176
     1
290
     1
176
     1
290
     0
176
     1
290
     0
176
     1
290
     0
176
     1
290
     0
176
     1
290
     0
176
     1
290
     0
176
     1
 90
       50
176
     1
 40
0.0
176
     1
 40
1.0
176
     1
 90
        0
176
     1
 62
    18
420
        0
176
     1
 90
       50
176
     1
 90
        3
176
     1
 62
     5
420
      255
176
     1
290
     0
176
     1
 90
       50
176
     1
 90
       50
176
     1
 90
       50
176
     1
290
     0
176
     1
 90
       50
176
     1
 62
   256
176
     0
 40
1.0
176
     0
 90
        2
176
     1
  1
strokes_ogs.tif
176
     1
290
     0
176
     1
 40
1.0
176
     1
 40
1.0
176
     1
  0
VISUALSTYLE
  5
3E
102
{ACAD_REACTORS
330
2A
102
}
330
2A
100
AcDbVisualStyle
  2
Shades of Gray
 70
    23
177
     3
291
     0
 70
    58
 90
        2
176
     1
 90
        2
176
     1
 90
        3
176
     1
 90
        0
176
     1
 40
0.6
176
     1
 40
30.0
176
     1
 62
     7
420
 16777215
176
     1
 90
        2
176
     1
 90
        2
176
     1
 62
     7
176
     1
 62
     7
176
     1
 90
        1
176
     1
 90
        1
176
     1
 40
40.0
176
     1
 90
        8
176
     1
 62
     7
176
     1
 40
1.0
176
     1
 90
        1
176
     1
 90
        6
176
     1
 90
        2
176
     1
 62
     7
176
     1
 90
        3
176
     1
 90
        0
176
     1
 90
        0
176
     1
290
     0
176
     1
 90
        1
176
     1
 40
0.0
176
     1
 90
        0
176
     1
290
     0
176
     1
290
     1
176
     1
290
     1
176
     1
290
     0
176
     1
290
     0
176
     1
290
     0
176
     1
290
     0
176
     1
290
     0
176
     1
290
     0
176
     1
 90
       50
176
     1
 40
0.0
176
     1
 40
1.0
176
     1
 90
        0
176
     1
 62
    18
420
        0
176
     1
 90
       50
176
     1
 90
        3
176
     1
 62
     5
420
      255
176
     1
290
     0
176
     1
 90
       50
176
     1
 90
       50
176
     1
 90
       50
176
     1
290
     0
176
     1
 90
       50
176
     1
 62
   256
176
     0
 40
1.0
176
     0
 90
        2
176
     1
  1
strokes_ogs.tif
176
     1
290
     0
176
     1
 40
1.0
176
     1
 40
1.0
176
     1
  0
VISUALSTYLE
  5
3F
102
{ACAD_REACTORS
330
2A
102
}
330
2A
100
AcDbVisualStyle
  2
Sketchy
 70
    24
177
     3
291
     0
 70
    58
 90
        1
176
     1
 90
        2
176
     1
 90
        2
176
     1
 90
        0
176
     1
 40
0.6
176
     1
 40
30.0
176
     1
 62
     7
420
 16777215
176
     1
 90
        2
176
     1
 90
        2
176
     1
 62
     7
176
     1
 62
     7
176
     1
 90
        1
176
     1
 90
        1
176
     1
 40
40.0
176
     1
 90
       11
176
     1
 62
     7
176
     1
 40
1.0
176
     1
 90
        1
176
     1
 90
        6
176
     1
 90
        2
176
     1
 62
     7
176
     1
 90
        6
176
     1
 90
        0
176
     1
 90
        0
176
     1
290
     0
176
     1
 90
        1
176
     1
 40
0.0
176
     1
 90
        0
176
     1
290
     0
176
     1
290
     1
176
     1
290
     1
176
     1
290
     0
176
     1
290
     0
176
     1
290
     0
176
     1
290
     0
176
     1
290
     0
176
     1
290
     0
176
     1
 90
       50
176
     1
 40
0.0
176
     1
 40
1.0
176
     1
 90
        0
176
     1
 62
    18
420
        0
176
     1
 90
       50
176
     1
 90
        3
176
     1
 62
     5
420
      255
176
     1
290
     0
176
     1
 90
       50
176
     1
 90
       50
176
     1
 90
       50
176
     1
290
     0
176
     1
 90
       50
176
     1
 62
   256
176
     0
 40
1.0
176
     0
 90
        2
176
     1
  1
strokes_ogs.tif
176
     1
290
     0
176
     1
 40
1.0
176
     1
 40
1.0
176
     1
  0
VISUALSTYLE
  5
37
102
{ACAD_REACTORS
330
2A
102
}
330
2A
100
AcDbVisualStyle
  2
Thicken
 70
    13
177
     3
291
     1
 70
    58
 90
        2
176
     1
 90
        2
176
     1
 90
        0
176
     1
 90
        0
176
     1
 40
0.6
176
     1
 40
30.0
176
     1
 62
     7
420
 16777215
176
     1
 90
        1
176
     1
 90
        4
176
     1
 62
     7
176
     1
 62
   257
176
     1
 90
        1
176
     1
 90
        1
176
     1
 40
1.0
176
     1
 90
       12
176
     1
 62
     7
176
     1
 40
1.0
176
     1
 90
        1
176
     1
 90
        6
176
     1
 90
        2
176
     1
 62
     7
176
     1
 90
        5
176
     1
 90
        0
176
     1
 90
        0
176
     1
290
     0
176
     1
 90
        1
176
     1
 40
0.0
176
     1
 90
        0
176
     1
290
     0
176
     1
290
     1
176
     1
290
     1
176
     1
290
     0
176
     1
290
     0
176
     1
290
     0
176
     1
290
     0
176
     1
290
     0
176
     1
290
     0
176
     1
 90
       50
176
     1
 40
0.0
176
     1
 40
1.0
176
     1
 90
        0
176
     1
 62
    18
420
        0
176
     1
 90
       50
176
     1
 90
        3
176
     1
 62
     5
420
      255
176
     1
290
     0
176
     1
 90
       50
176
     1
 90
       50
176
     1
 90
       50
176
     1
290
     0
176
     1
 90
       50
176
     1
 62
   256
176
     0
 40
1.0
176
     0
 90
        2
176
     1
  1
strokes_ogs.tif
176
     1
290
     0
176
     1
 40
1.0
176
     1
 40
1.0
176
     1
  0
VISUALSTYLE
  5
30
102
{ACAD_REACTORS
330
2A
102
}
330
2A
100
AcDbVisualStyle
  2
Wireframe
 70
     5
177
     3
291
     0
 70
    58
 90
        0
176
     1
 90
        2
176
     1
 90
        0
176
     1
 90
        0
176
     1
 40
0.6
176
     1
 40
30.0
176
     1
 62
     7
420
 16777215
176
     1
 90
        1
176
     1
 90
        4
176
     1
 62
     7
176
     1
 62
   257
176
     1
 90
        1
176
     1
 90
        1
176
     1
 40
1.0
176
     1
 90
        0
176
     1
 62
   257
176
     1
 40
1.0
176
     1
 90
        1
176
     1
 90
        6
176
     1
 90
        2
176
     1
 62
     7
176
     1
 90
        3
176
     1
 90
        0
176
     1
 90
        0
176
     1
290
     0
176
     1
 90
        1
176
     1
 40
0.0
176
     1
 90
        0
176
     1
290
     0
176
     1
290
     1
176
     1
290
     1
176
     1
290
     0
176
     1
290
     0
176
     1
290
     0
176
     1
290
     0
176
     1
290
     0
176
     1
290
     0
176
     1
 90
       50
176
     1
 40
0.0
176
     1
 40
1.0
176
     1
 90
        0
176
     1
 62
    18
420
        0
176
     1
 90
       50
176
     1
 90
        3
176
     1
 62
     5
420
      255
176
     1
290
     0
176
     1
 90
       50
176
     1
 90
       50
176
     1
 90
       50
176
     1
290
     0
176
     1
 90
       50
176
     1
 62
   256
176
     0
 40
1.0
176
     0
 90
        2
176
     1
  1
strokes_ogs.tif
176
     1
290
     0
176
     1
 40
1.0
176
     1
 40
1.0
176
     1
  0
VISUALSTYLE
  5
40
102
{ACAD_REACTORS
330
2A
102
}
330
2A
100
AcDbVisualStyle
  2
X-Ray
 70
    25
177
     3
291
     0
 70
    58
 90
        2
176
     1
 90
        2
176
     1
 90
        1
176
     1
 90
        1
176
     1
 40
0.5
176
     1
 40
30.0
176
     1
 62
     7
420
 16777215
176
     1
 90
        1
176
     1
 90
        0
176
     1
 62
     7
176
     1
 62
   257
176
     1
 90
        1
176
     1
 90
        1
176
     1
 40
1.0
176
     1
 90
        8
176
     1
 62
     7
176
     1
 40
1.0
176
     1
 90
        1
176
     1
 90
        6
176
     1
 90
        2
176
     1
 62
     7
176
     1
 90
        3
176
     1
 90
        0
176
     1
 90
        0
176
     1
290
     0
176
     1
 90
       13
176
     1
 40
0.0
176
     1
 90
        0
176
     1
290
     0
176
     1
290
     1
176
     1
290
     1
176
     1
290
     0
176
     1
290
     0
176
     1
290
     0
176
     1
290
     0
176
     1
290
     0
176
     1
290
     0
176
     1
 90
       50
176
     1
 40
0.0
176
     1
 40
1.0
176
     1
 90
        0
176
     1
 62
    18
420
        0
176
     1
 90
       50
176
     1
 90
        3
176
     1
 62
     5
420
      255
176
     1
290
     0
176
     1
 90
       50
176
     1
 90
       50
176
     1
 90
       50
176
     1
290
     0
176
     1
 90
       50
176
     1
 62
   256
176
     0
 40
1.0
176
     0
 90
        2
176
     1
  1
strokes_ogs.tif
176
     1
290
     0
176
     1
 40
1.0
176
     1
 40
1.0
176
     1
  0
DICTIONARYVAR
  5
141
102
{ACAD_REACTORS
330
140
102
}
330
140
100
DictionaryVariables
280
     0
  1
1:1
  0
DICTIONARYVAR
  5
149
102
{ACAD_REACTORS
330
140
102
}
330
140
100
DictionaryVariables
280
     0
  1
3.500000
  0
DICTIONARYVAR
  5
14A
102
{ACAD_REACTORS
330
140
102
}
330
140
100
DictionaryVariables
280
     0
  1
acadiso.lin
  0
DICTIONARYVAR
  5
146
102
{ACAD_REACTORS
330
140
102
}
330
140
100
DictionaryVariables
280
     0
  1
Standard
  0
DICTIONARYVAR
  5
145
102
{ACAD_REACTORS
330
140
102
}
330
140
100
DictionaryVariables
280
     0
  1
Standard
  0
DICTIONARY
  5
142
330
5A
100
AcDbDictionary
280
     1
281
     1
  3
ACAD_ROUNDTRIP_2008_TABLESTYLE_CELLSTYLEMAP
360
143
  0
CELLSTYLEMAP
  5
143
102
{ACAD_REACTORS
330
142
102
}
330
142
100
AcDbCellStyleMap
 90
        3
300
CELLSTYLE
  1
TABLEFORMAT_BEGIN
 90
        5
170
     1
 91
        0
 92
    32768
 62
   257
 93
        1
300
CONTENTFORMAT
  1
CONTENTFORMAT_BEGIN
 90
        0
 91
        0
 92
        4
 93
        0
300

 40
0.0
140
1.0
 94
        5
 62
     0
340
11
144
6.0
309
CONTENTFORMAT_END
171
     1
301
MARGIN
  1
CELLMARGIN_BEGIN
 40
1.5
 40
1.5
 40
1.5
 40
1.5
 40
1.5
 40
1.5
309
CELLMARGIN_END
 94
        6
 95
        1
302
GRIDFORMAT
  1
GRIDFORMAT_BEGIN
 90
        0
 91
        1
 62
     0
 92
       -2
340
14
 93
        0
 40
0.045
309
GRIDFORMAT_END
 95
        2
302
GRIDFORMAT
  1
GRIDFORMAT_BEGIN
 90
        0
 91
        1
 62
     0
 92
       -2
340
14
 93
        0
 40
0.045
309
GRIDFORMAT_END
 95
        4
302
GRIDFORMAT
  1
GRIDFORMAT_BEGIN
 90
        0
 91
        1
 62
     0
 92
       -2
340
14
 93
        0
 40
0.045
309
GRIDFORMAT_END
 95
        8
302
GRIDFORMAT
  1
GRIDFORMAT_BEGIN
 90
        0
 91
        1
 62
     0
 92
       -2
340
14
 93
        0
 40
0.045
309
GRIDFORMAT_END
 95
       16
302
GRIDFORMAT
  1
GRIDFORMAT_BEGIN
 90
        0
 91
        1
 62
     0
 92
       -2
340
14
 93
        0
 40
0.045
309
GRIDFORMAT_END
 95
       32
302
GRIDFORMAT
  1
GRIDFORMAT_BEGIN
 90
        0
 91
        1
 62
     0
 92
       -2
340
14
 93
        0
 40
0.045
309
GRIDFORMAT_END
309
TABLEFORMAT_END
  1
CELLSTYLE_BEGIN
 90
        1
 91
        1
300
_TITLE
309
CELLSTYLE_END
300
CELLSTYLE
  1
TABLEFORMAT_BEGIN
 90
        5
170
     1
 91
        0
 92
        0
 62
   257
 93
        1
300
CONTENTFORMAT
  1
CONTENTFORMAT_BEGIN
 90
        0
 91
        0
 92
        4
 93
        0
300

 40
0.0
140
1.0
 94
        5
 62
     0
340
11
144
4.5
309
CONTENTFORMAT_END
171
     1
301
MARGIN
  1
CELLMARGIN_BEGIN
 40
1.5
 40
1.5
 40
1.5
 40
1.5
 40
1.5
 40
1.5
309
CELLMARGIN_END
 94
        6
 95
        1
302
GRIDFORMAT
  1
GRIDFORMAT_BEGIN
 90
        0
 91
        1
 62
     0
 92
       -2
340
14
 93
        0
 40
0.045
309
GRIDFORMAT_END
 95
        2
302
GRIDFORMAT
  1
GRIDFORMAT_BEGIN
 90
        0
 91
        1
 62
     0
 92
       -2
340
14
 93
        0
 40
0.045
309
GRIDFORMAT_END
 95
        4
302
GRIDFORMAT
  1
GRIDFORMAT_BEGIN
 90
        0
 91
        1
 62
     0
 92
       -2
340
14
 93
        0
 40
0.045
309
GRIDFORMAT_END
 95
        8
302
GRIDFORMAT
  1
GRIDFORMAT_BEGIN
 90
        0
 91
        1
 62
     0
 92
       -2
340
14
 93
        0
 40
0.045
309
GRIDFORMAT_END
 95
       16
302
GRIDFORMAT
  1
GRIDFORMAT_BEGIN
 90
        0
 91
        1
 62
     0
 92
       -2
340
14
 93
        0
 40
0.045
309
GRIDFORMAT_END
 95
       32
302
GRIDFORMAT
  1
GRIDFORMAT_BEGIN
 90
        0
 91
        1
 62
     0
 92
       -2
340
14
 93
        0
 40
0.045
309
GRIDFORMAT_END
309
TABLEFORMAT_END
  1
CELLSTYLE_BEGIN
 90
        2
 91
        1
300
_HEADER
309
CELLSTYLE_END
300
CELLSTYLE
  1
TABLEFORMAT_BEGIN
 90
        5
170
     1
 91
        0
 92
        0
 62
   257
 93
        1
300
CONTENTFORMAT
  1
CONTENTFORMAT_BEGIN
 90
        0
 91
        0
 92
        4
 93
        0
300

 40
0.0
140
1.0
 94
        2
 62
     0
340
11
144
4.5
309
CONTENTFORMAT_END
171
     1
301
MARGIN
  1
CELLMARGIN_BEGIN
 40
1.5
 40
1.5
 40
1.5
 40
1.5
 40
1.5
 40
1.5
309
CELLMARGIN_END
 94
        6
 95
        1
302
GRIDFORMAT
  1
GRIDFORMAT_BEGIN
 90
        0
 91
        1
 62
     0
 92
       -2
340
14
 93
        0
 40
0.045
309
GRIDFORMAT_END
 95
        2
302
GRIDFORMAT
  1
GRIDFORMAT_BEGIN
 90
        0
 91
        1
 62
     0
 92
       -2
340
14
 93
        0
 40
0.045
309
GRIDFORMAT_END
 95
        4
302
GRIDFORMAT
  1
GRIDFORMAT_BEGIN
 90
        0
 91
        1
 62
     0
 92
       -2
340
14
 93
        0
 40
0.045
309
GRIDFORMAT_END
 95
        8
302
GRIDFORMAT
  1
GRIDFORMAT_BEGIN
 90
        0
 91
        1
 62
     0
 92
       -2
340
14
 93
        0
 40
0.045
309
GRIDFORMAT_END
 95
       16
302
GRIDFORMAT
  1
GRIDFORMAT_BEGIN
 90
        0
 91
        1
 62
     0
 92
       -2
340
14
 93
        0
 40
0.045
309
GRIDFORMAT_END
 95
       32
302
GRIDFORMAT
  1
GRIDFORMAT_BEGIN
 90
        0
 91
        1
 62
     0
 92
       -2
340
14
 93
        0
 40
0.045
309
GRIDFORMAT_END
309
TABLEFORMAT_END
  1
CELLSTYLE_BEGIN
 90
        3
 91
        2
300
_DATA
309
CELLSTYLE_END
  0
ENDSEC
  0
EOF
